<svg width="512" height="512" viewBox="0 0 512 512" fill="none" xmlns="http://www.w3.org/2000/svg">
<g clip-path="url(#clip0_229_840)">
<path d="M136 249.348V429.348" stroke="black" stroke-width="20" stroke-miterlimit="10"/>
<path d="M76 429.348V249.348" stroke="black" stroke-width="20" stroke-miterlimit="10"/>
<path d="M436 249.348V429.348" stroke="black" stroke-width="20" stroke-miterlimit="10"/>
<path d="M376 429.348V249.348" stroke="black" stroke-width="20" stroke-miterlimit="10"/>
<path d="M21.79 189.348H490.21C492.011 189.348 493.738 188.633 495.011 187.36C496.285 186.086 497 184.359 497 182.558V133.558C496.998 132.296 496.646 131.059 495.982 129.985C495.318 128.912 494.369 128.044 493.24 127.478L259 10.7085C258.059 10.2399 257.021 9.99609 255.97 9.99609C254.919 9.99609 253.881 10.2399 252.94 10.7085L18.76 127.468C17.6313 128.034 16.682 128.902 16.0181 129.975C15.3541 131.049 15.0016 132.286 15 133.548V182.548C14.9987 183.441 15.1734 184.325 15.514 185.15C15.8546 185.975 16.3546 186.725 16.9852 187.356C17.6159 187.988 18.3648 188.489 19.1893 188.831C20.0137 189.173 20.8975 189.348 21.79 189.348V189.348Z" stroke="black" stroke-width="20" stroke-miterlimit="10"/>
<path d="M15 129.348H497" stroke="black" stroke-width="20" stroke-miterlimit="10"/>
<path d="M0 489.348H512" stroke="black" stroke-width="20" stroke-miterlimit="10"/>
<path d="M166 189.348V242.558C166 244.358 165.285 246.086 164.011 247.359C162.738 248.632 161.011 249.348 159.21 249.348H52.79C50.9892 249.348 49.2621 248.632 47.9887 247.359C46.7154 246.086 46 244.358 46 242.558V189.348" stroke="black" stroke-width="20" stroke-miterlimit="10"/>
<path d="M46 489.348V436.138C46 434.337 46.7154 432.61 47.9887 431.336C49.2621 430.063 50.9892 429.348 52.79 429.348H159.21C161.011 429.348 162.738 430.063 164.011 431.336C165.285 432.61 166 434.337 166 436.138V489.348" stroke="black" stroke-width="20" stroke-miterlimit="10"/>
<path d="M466 189.348V242.558C466 244.358 465.285 246.086 464.011 247.359C462.738 248.632 461.011 249.348 459.21 249.348H352.79C350.989 249.348 349.262 248.632 347.989 247.359C346.715 246.086 346 244.358 346 242.558V189.348" stroke="black" stroke-width="20" stroke-miterlimit="10"/>
<path d="M346 489.348V436.138C346 434.337 346.715 432.61 347.989 431.336C349.262 430.063 350.989 429.348 352.79 429.348H459.21C461.011 429.348 462.738 430.063 464.011 431.336C465.285 432.61 466 434.337 466 436.138V489.348" stroke="black" stroke-width="20" stroke-miterlimit="10"/>
<path d="M291.647 302.377C296.822 302.377 300.547 307.347 299.095 312.314V312.314C298.128 315.623 295.094 317.896 291.647 317.896H221.353C216.178 317.896 212.453 312.927 213.905 307.96V307.96C214.872 304.651 217.906 302.377 221.353 302.377H291.647ZM268.141 407C263.899 407 259.882 405.091 257.202 401.802L214.381 349.247C213.227 347.831 212.578 346.072 212.534 344.246V344.246C212.425 339.627 216.139 335.824 220.758 335.824H236.619C242.935 335.824 248.316 334.932 252.764 333.148C257.212 331.32 260.614 328.6 262.971 324.987C265.329 321.33 266.507 316.737 266.507 311.207C266.507 303.046 264.061 296.646 259.169 292.008C254.276 287.326 246.76 284.984 236.619 284.984H221.096C216.07 284.984 212.469 280.132 213.926 275.321V275.321C214.882 272.161 217.795 270 221.096 270H236.619C247.471 270 256.367 271.806 263.305 275.418C270.288 278.986 275.447 283.892 278.783 290.135C282.163 296.334 283.853 303.358 283.853 311.207C283.853 318.298 282.297 324.831 279.183 330.807C276.114 336.738 271.177 341.51 264.372 345.123C257.612 348.735 248.672 350.541 237.553 350.541V350.541C237.392 350.541 237.304 350.727 237.405 350.851L282.075 405.712C282.19 405.853 282.252 406.029 282.252 406.21V406.21C282.252 406.647 281.899 407 281.463 407H268.141ZM291.678 270C296.838 270 300.552 274.955 299.104 279.908V279.908C298.133 283.228 295.076 285.501 291.617 285.474L239.48 285.064C234.452 285.024 230.873 280.162 232.331 275.349V275.349C233.292 272.173 236.22 270 239.539 270H291.678Z" fill="black" stroke="black" stroke-width="4"/>
</g>
<defs>
<clipPath id="clip0_229_840">
<rect width="512" height="499.35" fill="white"/>
</clipPath>
</defs>
</svg>
