<svg width="512" height="512" viewBox="0 0 512 512" fill="none" xmlns="http://www.w3.org/2000/svg">
<g clip-path="url(#clip0_230_1284)">
<g clip-path="url(#clip1_230_1284)">
<path d="M226.696 271.786V242.621" stroke="black" stroke-width="20" stroke-linecap="round" stroke-linejoin="round"/>
<path d="M134.645 271.786V242.621" stroke="black" stroke-width="20" stroke-linecap="round" stroke-linejoin="round"/>
<path d="M356.974 333.316V358.609" stroke="black" stroke-width="20" stroke-linecap="round" stroke-linejoin="round"/>
<path d="M250.722 307.704L226.696 271.785L202.661 307.704C202.302 308.239 202.096 308.862 202.065 309.505C202.034 310.148 202.179 310.787 202.485 311.354C202.79 311.921 203.245 312.393 203.8 312.721C204.354 313.048 204.988 313.217 205.632 313.211H247.81C248.449 313.206 249.075 313.029 249.621 312.698C250.167 312.366 250.613 311.893 250.912 311.328C251.21 310.763 251.35 310.128 251.317 309.49C251.283 308.852 251.078 308.235 250.722 307.704V307.704Z" stroke="black" stroke-width="20" stroke-linecap="round" stroke-linejoin="round"/>
<path d="M158.681 307.704L134.645 271.785L110.62 307.704C110.261 308.239 110.055 308.862 110.024 309.505C109.993 310.148 110.138 310.787 110.444 311.354C110.749 311.921 111.204 312.393 111.759 312.721C112.313 313.048 112.947 313.217 113.591 313.211H155.769C156.406 313.203 157.03 313.024 157.574 312.691C158.119 312.359 158.563 311.886 158.861 311.323C159.159 310.759 159.3 310.126 159.268 309.489C159.236 308.852 159.033 308.236 158.681 307.704V307.704Z" stroke="black" stroke-width="20" stroke-linecap="round" stroke-linejoin="round"/>
<path d="M158.513 397.031H69.6992" stroke="black" stroke-width="20" stroke-linecap="round" stroke-linejoin="round"/>
<path d="M291.642 397.031H153.293" stroke="black" stroke-width="20" stroke-linecap="round" stroke-linejoin="round"/>
<path d="M291.642 452.006V248.355C291.639 246.833 291.033 245.375 289.956 244.3C288.879 243.225 287.42 242.621 285.898 242.621H75.4332C73.9125 242.621 72.454 243.225 71.3787 244.301C70.3033 245.376 69.6992 246.834 69.6992 248.355V452.006" stroke="black" stroke-width="20" stroke-linecap="round" stroke-linejoin="round"/>
<path d="M22.9559 502.095H488.628C492.09 502.095 495.41 500.72 497.858 498.272C500.306 495.824 501.681 492.504 501.681 489.042V465.047C501.678 461.586 500.302 458.269 497.854 455.823C495.407 453.378 492.088 452.004 488.628 452.004H22.9559C19.4958 452.004 16.1774 453.378 13.7298 455.823C11.2823 458.269 9.90595 461.586 9.90332 465.047V489.042C9.90332 492.504 11.2785 495.824 13.7263 498.272C16.1741 500.72 19.4941 502.095 22.9559 502.095Z" stroke="black" stroke-width="20" stroke-linecap="round" stroke-linejoin="round"/>
<path d="M460.701 452.007V210.109" stroke="black" stroke-width="20" stroke-linecap="round" stroke-linejoin="round"/>
<path d="M38.0483 208.047V452.004" stroke="black" stroke-width="20" stroke-linecap="round" stroke-linejoin="round"/>
<path d="M419.711 169.126C419.879 179.886 424.27 190.148 431.938 197.697C439.606 205.247 449.935 209.479 460.696 209.479C471.457 209.479 481.786 205.247 489.454 197.697C497.122 190.148 501.514 179.886 501.681 169.126V147.27" stroke="black" stroke-width="20" stroke-linecap="round" stroke-linejoin="round"/>
<path d="M337.752 147.27V169.126C337.752 179.995 342.069 190.418 349.755 198.103C357.44 205.788 367.863 210.106 378.732 210.106C389.6 210.106 400.024 205.788 407.709 198.103C415.394 190.418 419.712 179.995 419.712 169.126V147.27" stroke="black" stroke-width="20" stroke-linecap="round" stroke-linejoin="round"/>
<path d="M255.792 147.27V169.126C255.792 179.995 260.11 190.418 267.795 198.103C275.48 205.788 285.903 210.106 296.772 210.106C307.64 210.106 318.064 205.788 325.749 198.103C333.434 190.418 337.752 179.995 337.752 169.126" stroke="black" stroke-width="20" stroke-linecap="round" stroke-linejoin="round"/>
<path d="M173.833 147.27V169.126C173.833 179.995 178.15 190.418 185.835 198.103C193.52 205.788 203.944 210.106 214.812 210.106C225.681 210.106 236.104 205.788 243.789 198.103C251.475 190.418 255.792 179.995 255.792 169.126" stroke="black" stroke-width="20" stroke-linecap="round" stroke-linejoin="round"/>
<path d="M91.873 147.27V169.126C91.873 174.508 92.933 179.836 94.9924 184.808C97.0519 189.78 100.07 194.298 103.876 198.103C107.681 201.909 112.199 204.927 117.171 206.986C122.142 209.046 127.471 210.106 132.853 210.106C138.234 210.106 143.563 209.046 148.535 206.986C153.507 204.927 158.025 201.909 161.83 198.103C165.635 194.298 168.654 189.78 170.713 184.808C172.773 179.836 173.833 174.508 173.833 169.126" stroke="black" stroke-width="20" stroke-linecap="round" stroke-linejoin="round"/>
<path d="M9.90332 147.27V169.126C10.0706 179.886 14.4622 190.148 22.1301 197.697C29.798 205.247 40.1273 209.479 50.8881 209.479C61.6489 209.479 71.9781 205.247 79.646 197.697C87.314 190.148 91.7056 179.886 91.8728 169.126" stroke="black" stroke-width="20" stroke-linecap="round" stroke-linejoin="round"/>
<path d="M338.554 92.7538H173.03C168.828 92.7538 164.798 91.0844 161.826 88.1128C158.854 85.1413 157.185 81.111 157.185 76.9085V25.7085C157.185 21.5061 158.854 17.4758 161.826 14.5043C164.798 11.5327 168.828 9.86328 173.03 9.86328H338.554C342.756 9.86328 346.787 11.5327 349.758 14.5043C352.73 17.4758 354.399 21.5061 354.399 25.7085V76.9482C354.389 81.1437 352.715 85.1638 349.744 88.1268C346.774 91.0898 342.749 92.7538 338.554 92.7538Z" stroke="black" stroke-width="20" stroke-linecap="round" stroke-linejoin="round"/>
<path d="M152.444 51.3281H77.2754C71.5069 51.3274 65.8519 52.9313 60.9427 55.9604C56.0334 58.9896 52.0636 63.3245 49.4769 68.4806L9.86377 147.281H501.681L462.068 68.4806C459.481 63.3245 455.511 58.9896 450.602 55.9604C445.693 52.9313 440.038 51.3274 434.269 51.3281H359.14" stroke="black" stroke-width="20" stroke-linecap="round" stroke-linejoin="round"/>
<path d="M426.128 452.006V248.355C426.126 246.833 425.52 245.375 424.443 244.3C423.366 243.225 421.906 242.621 420.385 242.621H330.552C329.031 242.621 327.573 243.225 326.497 244.301C325.422 245.376 324.818 246.834 324.818 248.355V452.006" stroke="black" stroke-width="20" stroke-linecap="round" stroke-linejoin="round"/>
</g>
</g>
<defs>
<clipPath id="clip0_230_1284">
<rect width="512" height="512" fill="white"/>
</clipPath>
<clipPath id="clip1_230_1284">
<rect width="511.584" height="512" fill="white"/>
</clipPath>
</defs>
</svg>
