<svg width="512" height="512" viewBox="0 0 512 512" fill="none" xmlns="http://www.w3.org/2000/svg">
<path d="M230 10.5998C175.9 16.9998 131.6 34.8998 93.5 65.6998C82 74.9998 65.6 91.2998 57.5 101.5C32.9 132.3 16.9 169 11.5 207.2C9.50001 221.1 9.60001 251.2 11.6 264.9C16.8 301 30.7 334.8 51.7 362.8C55.7 368.2 57 370.8 56.6 372.3C56.3 373.5 45.7 400.1 33 431.4C8.00001 493.3 7.70001 494.4 12.6 499.4C17.9 504.6 17.7 504.6 90.1 472.7L156.5 443.4L165.3 446.7C177 451.1 197.5 456.4 213.5 459.2C225 461.2 229.9 461.5 256 461.5C282.1 461.5 287 461.2 298.5 459.2C324 454.8 346.8 447.8 367.7 438C375.6 434.3 378.2 432.5 379.4 430.2C381.4 426.3 381.4 423.7 379.5 420C376.1 413.4 370.6 413.4 355.7 420.1C324.2 434.3 292.1 441.1 256 441.1C221.9 441.1 200.8 437 160.4 422.4C156.9 421.1 155.8 421.1 152.4 422.3C150.3 423 124.3 434.4 94.7 447.4C65.1 460.5 40.7 471 40.5 470.8C40.3 470.6 49.1 448.3 60.1 421.2C73.6 387.7 80 370.7 80 368.2C80 365.2 78.9 363.2 74.4 357.5C54.6 333 40.1 302 33.8 271C31.8 260.9 31.5 256.6 31.5 236C31.5 215.4 31.8 211.1 33.8 201C47.2 134.7 92.8 80.0998 159 50.7998C204.9 30.4998 259.5 25.3998 310 36.5998C367.9 49.5998 418.3 83.6998 449.6 131.1C462.8 151.2 473.3 176.7 478.2 201C480.2 211.1 480.5 215.4 480.5 236C480.5 256.6 480.2 260.9 478.2 271C473.4 294.5 462.9 320.6 450.6 339.5C444.5 348.8 443.4 354.2 446.5 358.7C448.8 362 454.2 363.4 458.6 362C467.9 358.9 489 316.4 496.6 285.5C503.8 255.8 503.9 217.9 496.9 187.7C488.1 150 468.7 115.2 440.2 85.7998C402.7 47.1998 356.8 23.2998 301 13.2998C288.2 10.9998 283.4 10.6998 260 10.4998C245.4 10.2998 231.9 10.3998 230 10.5998Z" fill="white"/>
<path d="M245.3 130.6C239.1 134.3 236 140.1 236 148C236 160.3 243.7 168 256 168C268.3 168 276 160.3 276 148C276 135.7 268.3 128 255.9 128C250.8 128 248.6 128.5 245.3 130.6Z" fill="white"/>
<path d="M248.6 209.601L246 212.301V271.001V329.701L248.6 332.401C252.4 336.101 259.6 336.101 263.4 332.401L266 329.701V271.001V212.301L263.4 209.601C261.3 207.501 259.8 207.001 256 207.001C252.2 207.001 250.7 207.501 248.6 209.601Z" fill="white"/>
</svg>
