<svg width="512" height="512" viewBox="0 0 512 512" fill="none" xmlns="http://www.w3.org/2000/svg">
<path fill-rule="evenodd" clip-rule="evenodd" d="M131.88 481.933C130.926 482.886 130.169 484.018 129.652 485.263C129.136 486.509 128.87 487.844 128.87 489.193C128.87 490.541 129.136 491.877 129.652 493.123C130.169 494.368 130.926 495.5 131.88 496.453C133.815 498.384 136.436 499.468 139.17 499.468C141.903 499.468 144.525 498.384 146.46 496.453L379.99 263.193C380.944 262.24 381.701 261.108 382.218 259.863C382.734 258.617 383 257.281 383 255.933C383 254.584 382.734 253.249 382.218 252.003C381.701 250.757 380.944 249.626 379.99 248.673L146.46 15.4529C145.53 14.4073 144.397 13.5622 143.13 12.9694C141.862 12.3765 140.488 12.0484 139.089 12.005C137.691 11.9615 136.298 12.2037 134.996 12.7168C133.695 13.2298 132.511 14.003 131.519 14.9889C130.526 15.9748 129.745 17.1528 129.223 18.4509C128.701 19.749 128.449 21.1399 128.483 22.5386C128.517 23.9373 128.835 25.3144 129.419 26.5858C130.003 27.8572 130.841 28.9961 131.88 29.9329L358.13 255.933L131.88 481.933Z" fill="black"/>
</svg>
