<svg width="512" height="512" viewBox="0 0 512 512" fill="none" xmlns="http://www.w3.org/2000/svg">
<path d="M90.7 2.39999C69.8 9.89999 63.3 37.1 78.5 53.8C84.1 60.1 91.6 63.3 101.6 63.8L110 64.3V84.6V105H78.7C61.4 105 46 105.4 44.1 106C38.3 107.6 33.2 111.9 30.5 117.3C28 122.3 28 122.8 28 145.4C28 171.2 29 178.1 34 188.8C45.6 213.6 70.5 231.4 107.2 240.9L117.1 243.5L121.4 253.8C132.2 279.1 152.8 302.1 177.5 316.4C185.6 321 200.1 327.2 206.1 328.5L209.3 329.2L208.7 338.4C207.9 349.4 205 361.6 201.2 369L198.4 374.5L183.5 375C166.9 375.6 164.6 376.3 157.7 382.9C150.5 389.7 149.6 392.6 149.2 409.7L148.8 425H135.4C124.4 425 121.1 425.4 116.5 427.1C109.2 429.8 100.9 437.5 97.3 444.8C94.6 450.4 94.5 450.9 94.5 468C94.5 485.1 94.6 485.6 97.3 491.2C100.8 498.3 106.4 504.1 113.2 507.7L118.5 510.5H256H393.5L398.8 507.7C405.6 504.1 411.2 498.3 414.7 491.2C417.3 485.9 417.5 484.5 417.9 470.8C418.2 457.9 417.9 455.2 416 448.9C414.2 442.8 413 440.9 407.7 435.5C398.9 426.6 394.1 425 376.6 425H363.2L362.8 409.7C362.4 392.6 361.5 389.7 354.3 382.8C348 376.7 344.4 375.6 328 375L313.6 374.5L310.8 369C307 361.6 304.1 349.4 303.3 338.4L302.7 329.3L307.2 328.2C313.9 326.5 327.3 320.7 335.4 315.9C360.4 301.1 379.9 278.9 391.1 252.5L394.9 243.5L404.8 240.9C441.4 231.4 466.4 213.6 478 188.8C483 178.1 484 171.2 484 145.4C484 122.8 484 122.3 481.5 117.3C478.8 111.9 473.7 107.6 467.9 106C466 105.4 450.6 105 433.3 105H402V84.6V64.3L410.4 63.8C424.1 63.1 434 56.7 439.4 45.1C442.5 38.4 442.3 25.3 439.1 18.8C436.2 12.9 430.4 6.79999 424.8 3.79999L420.5 1.49999L257.5 1.29999C122.1 1.09999 93.9 1.29999 90.7 2.39999ZM413.1 20C424 23 426.3 37.2 416.7 43C413.6 45 410.5 45 256 45C101.5 45 98.4 45 95.3 43C86 37.4 87.9 23.1 98.5 20.1C102.8 18.8 408.5 18.7 413.1 20ZM382.7 139.7C382.3 222 382.5 218.9 376.5 237C367.2 264.9 345.3 289.9 318.2 303.4C309.8 307.7 295.9 311.9 285.3 313.5C272.4 315.5 239.7 315.5 227 313.5C184.8 307.1 148.9 277.1 135.5 237.1C129.5 218.9 129.7 222 129.3 139.7L128.9 64H256H383.1L382.7 139.7ZM110.1 164.7C110.1 187.2 110.5 209.1 111 213.5C111.4 217.9 111.6 221.7 111.4 221.9C110.6 222.7 96.8 217.9 88.4 214C67.3 204.2 53.6 190.1 48.6 173.1C46.6 166.2 46.2 127.2 48.2 125.2C49.1 124.3 57.5 124 79.7 124H110L110.1 164.7ZM463.8 125.2C465.8 127.2 465.4 166.2 463.4 173.1C458.4 190.1 444.7 204.2 423.6 214C415.2 217.9 401.4 222.7 400.6 221.9C400.4 221.7 400.6 217.9 401 213.5C401.5 209.1 401.9 187.2 401.9 164.7L402 124H432.3C454.5 124 462.9 124.3 463.8 125.2ZM284.8 344.5C285.7 353.9 288.8 367 291.5 373.2C292.2 374.9 290.1 375 256 375C221.9 375 219.8 374.9 220.5 373.2C223.2 367 226.3 353.9 227.2 344.5L228.4 333.5H256H283.6L284.8 344.5ZM341.1 396.9C344 399.8 344 399.9 344 412.4V425H256H168V412.4C168 399.9 168 399.8 170.9 396.9L173.8 394H256H338.2L341.1 396.9ZM390 445.5C391.6 446.3 394.2 448.7 395.7 450.7C398.5 454.3 398.5 454.6 398.5 468.1C398.5 480.4 398.3 482.1 396.4 484.6C393.5 488.6 389.9 491 385.4 492C380.2 493.2 131.8 493.2 126.6 492C122.1 491 118.5 488.6 115.6 484.6C113.7 482.1 113.5 480.4 113.5 468C113.5 452.6 114.1 451 121 446.2L124.3 444H255.7C370.5 444 387.5 444.2 390 445.5Z" fill="white"/>
<path d="M250.2 95.6996C249.1 96.6996 242.1 106.5 234.6 117.5L221.1 137.5L197 144.4C170.5 152 169 152.9 169 159.9C169 163.2 170.9 166.1 184.6 183.6L200.1 203.5L199.6 215.5C199.2 222.1 198.9 233.7 198.8 241.2C198.7 254.3 198.8 255.1 200.9 257.4C205.2 262 207 261.7 232.4 252.6L256 244.1L279.6 252.6C305 261.7 306.8 262 311.1 257.4C313.2 255.1 313.3 254.3 313.2 241.2C313.1 233.7 312.8 222.1 312.4 215.5L311.9 203.5L327.4 183.6C341.2 165.9 343 163.2 343 159.9C343 152.9 341.1 151.8 314.7 144.2L290.8 137.3L276.9 116.9C269.3 105.7 262.2 95.8996 261.3 95.1996C258.8 93.3996 252.6 93.6996 250.2 95.6996ZM267 136.6C272.8 145.2 278.4 152.8 279.5 153.5C280.6 154.2 289.2 156.9 298.5 159.5C307.9 162.2 315.8 164.6 316.3 165C316.7 165.3 311.9 172.2 305.6 180.4C299.3 188.5 293.8 196 293.4 197.2C293.1 198.3 293.1 207.8 293.5 218.2L294.2 237.2L291.9 236.5C290.6 236.1 282.8 233.3 274.5 230.3C266.3 227.3 258.2 224.8 256.5 224.7C254.9 224.7 245.8 227.4 236.4 230.8C226.9 234.2 218.9 237 218.5 237C218.1 237 218.1 228.5 218.5 218.1C218.9 207.8 218.9 198.3 218.6 197.2C218.2 196 212.7 188.5 206.4 180.4C200.1 172.2 195.3 165.3 195.7 165C196.2 164.6 204.2 162.2 213.5 159.5C222.9 156.9 231.4 154.2 232.5 153.5C233.6 152.8 239.2 145.2 245 136.6C250.8 128.1 255.7 121 256 121C256.3 121 261.2 128.1 267 136.6Z" fill="white"/>
</svg>
