<svg width="512" height="512" viewBox="0 0 512 512" fill="none" xmlns="http://www.w3.org/2000/svg">
<path d="M80.8 11.9C65 17 52.8 29.2 48 44.8C46.2 50.5 46 54.1 46 78.6V106H23H0V116V126H23H46V176V226H23H0V236V246H23H46V296V346H23H0V356V366H23H46V413.4C46 457.7 46.1 461.2 48 467.1C52.8 482.8 65.2 495.2 80.8 500C87.1 502 90.4 502 236 502C381.6 502 384.9 502 391.2 500C411.8 493.7 426 474.6 426 453.4V446H443.4C457.9 446 461.8 445.7 467.2 444C482.8 439.2 495.2 426.8 500 411.1C502 404.9 502 401.1 502 256C502 110.4 502 107.1 500 100.8C496.3 88.7 486.6 76.9 476 71.5C466.9 66.9 461.7 66 443.3 66H426V58.6C426 36.9 411.6 18 390.1 11.6C385.2 10.2 369.8 9.99999 235.6 10.1C94.2 10.1 86.2 10.2 80.8 11.9ZM386.5 32.4C393 35 401 43 403.6 49.5C405.4 54.4 405.5 59.8 405.8 251.5C406 374.3 405.7 450.9 405.1 454.8C403.3 466.6 396.4 475.7 386.2 479.7C381.7 481.4 374.2 481.5 240.5 481.8C153.2 482 97.1 481.7 93.2 481.1C85.1 479.8 78.6 476.5 73.9 471.2C66.6 462.9 66.6 463 66.2 411.8L65.9 366H90.9H116V356V346H91H66V296V246H91H116V236V226H91H66V176V126H91H116V116V106H90.9H65.8L66.2 80.2C66.7 51.1 67.3 48.4 74.1 40.6C78.5 35.6 84.7 32.2 91.7 31C94.4 30.6 160.6 30.3 239 30.4C377.1 30.5 381.7 30.6 386.5 32.4ZM462.5 88.6C469.1 90.9 477 98.8 479.5 105.5C481.2 110 481.4 114.4 481.8 148.2L482.1 186H454.1H426V135.9V85.7L441.8 86.3C453.2 86.6 458.9 87.3 462.5 88.6ZM482 256V306H454H426V256V206H454H482V256ZM482 359.7C482 378.3 481.6 396.1 481 399.3C479.8 407.1 476.4 413.5 471.2 418.1C464.6 423.9 459.8 425.1 441.8 425.7L426 426.3V376.1V326H454H482V359.7Z" fill="white"/>
<path d="M240.8 87.9C219.4 94.8 206 113.3 206 136C206 164.7 227.3 186 256 186C284.7 186 306 164.7 306 136C306 112.8 292.2 94.2 270.1 87.6C262.6 85.4 248.2 85.6 240.8 87.9ZM266.6 108.7C273.4 111 281.1 118.9 283.5 125.9C285.9 133.1 285.3 142.9 282 149.4C276.7 159.8 266.4 165.5 254.2 164.8C234.3 163.7 222.1 144.7 228.7 125.4C230.8 119.1 238.9 110.9 245 108.7C251 106.6 260.5 106.6 266.6 108.7Z" fill="white"/>
<path d="M200.8 207.9C185 213 172.8 225.2 168 240.8C166.2 246.6 166 250.1 166 276.6V306H256H346V276.6C346 250.1 345.8 246.6 344 240.8C340.3 228.7 330.6 216.9 320 211.5C309.3 206.1 308.5 206 255.6 206.1C210.9 206.1 206 206.3 200.8 207.9ZM306.5 228.5C313.2 231 321.1 238.9 323.4 245.5C324.8 249.3 325.4 254.7 325.7 268.2L326.2 286H256H185.8L186.3 268.2C186.8 247.9 187.9 243.7 194.1 236.6C198.5 231.6 204.7 228.2 211.7 227C214.4 226.5 235.6 226.3 259 226.4C297.8 226.6 301.9 226.8 306.5 228.5Z" fill="white"/>
<path d="M165.3 358.6C159.1 362.3 156 368.1 156 376C156 384 159.1 389.8 165.4 393.5C168.7 395.5 171 396 176 396C188.3 396 196 388.3 196 376C196 363.7 188.3 356 175.9 356C170.8 356 168.6 356.5 165.3 358.6Z" fill="white"/>
<path d="M245.3 358.6C239.1 362.3 236 368.1 236 376C236 381 236.5 383.3 238.5 386.6C242.2 392.9 248 396 256 396C268.3 396 276 388.3 276 376C276 363.7 268.3 356 255.9 356C250.8 356 248.6 356.5 245.3 358.6Z" fill="white"/>
<path d="M325.3 358.6C319.1 362.3 316 368.1 316 376C316 388.3 323.7 396 336 396C348.3 396 356 388.3 356 376C356 363.7 348.3 356 335.9 356C330.8 356 328.6 356.5 325.3 358.6Z" fill="white"/>
</svg>
