<svg width="512" height="512" viewBox="0 0 512 512" fill="none" xmlns="http://www.w3.org/2000/svg">
<path d="M80.8 11.9C65 17 52.8 29.2 48 44.8C46.2 50.5 46 54.1 46 78.6V99C46 102.866 42.866 106 39 106H23H7C3.13401 106 0 109.134 0 113V116V119C0 122.866 3.13401 126 7 126H23H39C42.866 126 46 129.134 46 133V176V219C46 222.866 42.866 226 39 226H23H7C3.13401 226 0 229.134 0 233V236V239C0 242.866 3.13401 246 7 246H23H39C42.866 246 46 249.134 46 253V296V339C46 342.866 42.866 346 39 346H23H7C3.13401 346 0 349.134 0 353V356V359C0 362.866 3.13401 366 7 366H23H39C42.866 366 46 369.134 46 373V413.4C46 457.7 46.1 461.2 48 467.1C52.8 482.8 65.2 495.2 80.8 500C87.1 502 90.4 502 236 502C381.6 502 384.9 502 391.2 500C411.8 493.7 426 474.6 426 453.4V453C426 449.134 429.134 446 433 446H443.4C457.9 446 461.8 445.7 467.2 444C482.8 439.2 495.2 426.8 500 411.1C502 404.9 502 401.1 502 256C502 110.4 502 107.1 500 100.8C496.3 88.7 486.6 76.9 476 71.5C466.9 66.9 461.7 66 443.3 66H433C429.134 66 426 62.866 426 59V58.6C426 36.9 411.6 18 390.1 11.6C385.2 10.2 369.8 10 235.6 10.1C94.2 10.1 86.2 10.2 80.8 11.9ZM386.5 32.4C393 35 401 43 403.6 49.5C405.4 54.4 405.5 59.8 405.8 251.5C406 374.3 405.7 450.9 405.1 454.8C403.3 466.6 396.4 475.7 386.2 479.7C381.7 481.4 374.2 481.5 240.5 481.8C153.2 482 97.1 481.7 93.2 481.1C85.1 479.8 78.6 476.5 73.9 471.2C66.6 462.9 66.6 463 66.2 411.8L65.9462 373.046C65.9207 369.162 69.0621 366 72.946 366H90.9H109C112.866 366 116 362.866 116 359V356V353C116 349.134 112.866 346 109 346H91H73C69.134 346 66 342.866 66 339V296V253C66 249.134 69.134 246 73 246H91H109C112.866 246 116 242.866 116 239V236V233C116 229.134 112.866 226 109 226H91H73C69.134 226 66 222.866 66 219V176V133C66 129.134 69.134 126 73 126H91H109C112.866 126 116 122.866 116 119V116V113C116 109.134 112.866 106 109 106H90.9H72.9094C69.0009 106 65.8496 102.799 65.9102 98.8915L66.2 80.2C66.7 51.1 67.3 48.4 74.1 40.6C78.5 35.6 84.7 32.2 91.7 31C94.4 30.6 160.6 30.3 239 30.4C377.1 30.5 381.7 30.6 386.5 32.4ZM462.5 88.6C469.1 90.9 477 98.8 479.5 105.5C481.2 110 481.4 114.4 481.8 148.2L482.044 178.944C482.075 182.832 478.932 186 475.044 186H454.1H433C429.134 186 426 182.866 426 179V135.9V92.9709C426 89.0007 429.298 85.8253 433.266 85.9759L441.8 86.3C453.2 86.6 458.9 87.3 462.5 88.6ZM482 256V299C482 302.866 478.866 306 475 306H454H433C429.134 306 426 302.866 426 299V256V213C426 209.134 429.134 206 433 206H454H475C478.866 206 482 209.134 482 213V256ZM482 359.7C482 378.3 481.6 396.1 481 399.3C479.8 407.1 476.4 413.5 471.2 418.1C464.6 423.9 459.8 425.1 441.8 425.7L433.266 426.024C429.298 426.175 426 422.999 426 419.029V376.1V333C426 329.134 429.134 326 433 326H454H475C478.866 326 482 329.134 482 333V359.7Z" fill="black"/>
<path d="M165.3 358.6C159.1 362.3 156 368.1 156 376C156 384 159.1 389.8 165.4 393.5C168.7 395.5 171 396 176 396C188.3 396 196 388.3 196 376C196 363.7 188.3 356 175.9 356C170.8 356 168.6 356.5 165.3 358.6Z" fill="black"/>
<path d="M245.3 358.6C239.1 362.3 236 368.1 236 376C236 381 236.5 383.3 238.5 386.6C242.2 392.9 248 396 256 396C268.3 396 276 388.3 276 376C276 363.7 268.3 356 255.9 356C250.8 356 248.6 356.5 245.3 358.6Z" fill="black"/>
<path d="M325.3 358.6C319.1 362.3 316 368.1 316 376C316 388.3 323.7 396 336 396C348.3 396 356 388.3 356 376C356 363.7 348.3 356 335.9 356C330.8 356 328.6 356.5 325.3 358.6Z" fill="black"/>
<path d="M241.925 109.41C222.925 113.04 207.98 125.243 201.222 142.66C198.402 149.959 197.9 152.739 197.9 162.162C197.9 169.576 198.016 170.851 198.827 174.133C200.642 181.587 203.925 188.615 208.25 194.369C212.189 199.583 219.024 205.646 224.392 208.658L225.705 209.391L221.071 210.241C200.604 214.064 181.333 222.946 169.207 234.146C164.496 238.548 160.248 245.19 158.085 251.524C156.27 256.776 156 259.556 156 271.644C156 281.8 156.077 283.19 156.772 285.391C158.626 291.455 163.415 296.243 169.439 298.097C171.872 298.869 173.185 298.869 251 298.869C328.815 298.869 330.128 298.869 332.561 298.097C338.585 296.243 343.374 291.455 345.228 285.391C345.923 283.19 346 281.8 346 271.644C346 263.186 345.846 259.556 345.421 257.278C343.644 247.855 338.547 239.089 331.132 232.717C324.142 226.654 310.742 218.93 307.266 218.93C304.911 218.93 303.52 220.398 303.52 222.831C303.52 225.109 304.022 225.534 310.201 228.7C318.195 232.794 325.88 238.316 329.472 242.564C333.372 247.121 336.114 252.644 337.35 258.32C338.083 261.68 338.508 276.973 337.967 280.448C337.195 285.237 334.608 288.713 330.63 290.257C328.892 290.914 325.339 290.952 252.738 291.068C205.315 291.146 175.734 291.03 174.228 290.798C171.1 290.296 168.628 289.022 166.774 286.975C164.496 284.349 164.033 282.611 163.839 275.119C163.376 259.749 165.191 252.064 171.215 244.186C177.858 235.42 194.425 225.765 210.953 221.015C221.728 217.926 231.846 216.42 245.593 215.841C257.758 215.339 259.341 215.184 264.323 213.91C281.045 209.662 294.561 197.69 300.778 181.664C303.598 174.365 304.1 171.585 304.1 162.162C304.1 154.747 303.984 153.473 303.173 150.19C298.268 130.186 283.902 115.55 264.13 110.337C260.037 109.255 259.071 109.139 252.159 109.024C246.984 108.946 243.778 109.062 241.925 109.41ZM259.11 117.597C265.134 118.678 271.39 121.265 276.642 124.78C279.654 126.865 284.907 131.924 287.339 135.129C290.043 138.644 293.673 146.135 294.909 150.77C295.874 154.361 295.951 155.172 295.951 162.162C295.951 169.113 295.874 170.001 294.909 173.477C293.75 177.802 290.892 184.058 288.421 187.688C286.297 190.816 281.276 196.03 278.033 198.501C274.364 201.32 266.988 204.835 262.392 205.993C251.772 208.696 240.882 207.576 231.112 202.749C228.563 201.475 225.358 199.583 223.967 198.501C220.724 196.03 215.703 190.816 213.579 187.688C211.108 184.058 208.25 177.802 207.091 173.477C206.126 170.001 206.049 169.113 206.049 162.162C206.049 155.172 206.126 154.361 207.091 150.77C208.327 146.135 211.957 138.644 214.661 135.129C217.132 131.885 222.346 126.865 225.474 124.741C235.205 118.099 247.409 115.55 259.11 117.597Z" fill="black" stroke="black" stroke-width="9"/>
</svg>
