<svg width="512" height="512" viewBox="0 0 512 512" fill="none" xmlns="http://www.w3.org/2000/svg">
<path d="M55.1514 24.7975C42.9245 28.579 31.3278 38.7892 25.1513 51.1422C22.1261 57.1926 22 58.3271 22 82.4028C22 120.344 25.2773 142.403 35.8656 177.823C57.2943 248.412 96.118 311.564 151.454 365.892C210.698 423.875 280.279 463.329 355.657 481.606C384.397 488.539 395.741 489.926 427.254 489.926C455.489 489.926 456.372 489.8 462.548 486.901C470.49 482.993 481.582 471.774 486.498 462.825L490.28 455.892L490.658 407.614C491.162 363.118 491.036 359.085 489.019 356.942C486.372 353.917 475.406 349.631 437.464 336.522C392.464 321.017 367.632 313.833 361.96 314.463C358.556 314.967 349.859 320.009 331.581 332.11L305.867 349.127L293.388 341.942C242.841 312.698 194.186 263.79 167.841 215.765L163.303 207.571L177.799 185.513C185.866 173.412 193.808 160.681 195.572 157.277C198.597 151.353 198.724 150.596 197.211 144.042C195.194 134.714 172.127 64.5036 164.312 43.8312C160.908 34.8816 157.253 26.4362 155.992 25.1757C154.101 23.0328 150.95 22.9067 107.21 23.0328C72.0423 23.0328 59.059 23.537 55.1514 24.7975ZM153.597 98.0331L169.732 146.563L154.48 169.504C138.597 193.58 134.311 201.647 134.185 207.193C134.185 208.958 137.589 217.277 141.622 225.471C155.992 253.958 172.127 275.135 203.513 306.522C234.9 338.034 257.715 355.303 287.463 370.429C308.64 381.144 307.884 381.27 343.808 357.572C355.909 349.631 366.623 343.076 367.506 343.076C368.514 343.076 390.825 350.261 417.044 358.959L464.817 374.967L464.187 410.514C463.557 445.052 463.431 446.438 460.532 451.606C454.607 462.447 445.531 465.094 420.447 463.455C308.01 456.396 194.564 389.715 121.076 287.614C101.79 260.891 81.6221 222.824 69.8994 191.437C62.5884 171.521 54.7733 142.151 51.4959 121.857C48.3447 102.319 48.2186 66.7725 51.2438 61.1002C53.6388 56.6884 60.5716 52.0245 66.6221 50.638C68.7649 50.0077 85.5297 49.6296 103.933 49.5035L137.337 49.3775L153.597 98.0331Z" fill="black"/>
</svg>
