<svg width="512" height="512" viewBox="0 0 512 512" fill="none" xmlns="http://www.w3.org/2000/svg">
<g clip-path="url(#clip0_240_1588)">
<path d="M506.93 140.078C504.083 133.21 499.898 126.975 494.62 121.738V121.738C489.387 116.492 483.172 112.328 476.329 109.484C469.486 106.641 462.15 105.175 454.74 105.168H373.95L373.87 104.918L363.48 73.7383C359.759 62.4634 352.576 52.6493 342.955 45.6922C333.334 38.7352 321.763 34.9896 309.89 34.9883H201.35C189.491 34.994 177.936 38.7336 168.322 45.6764C158.708 52.6193 151.524 62.413 147.79 73.6683L137.29 105.138H56.55C41.5404 105.157 27.1523 111.134 16.5483 121.757C5.94423 132.38 -0.00795631 146.779 7.98216e-06 161.788V419.738C0.0344256 434.734 6.01428 449.104 16.6283 459.698C27.2423 470.291 41.6241 476.243 56.62 476.248H454.75C469.737 476.209 484.098 470.231 494.686 459.624C505.274 449.017 511.227 434.646 511.24 419.658V161.738C511.255 154.304 509.79 146.941 506.93 140.078V140.078ZM491.16 419.678C491.142 429.344 487.295 438.609 480.462 445.446C473.629 452.283 464.366 456.135 454.7 456.158H56.55C46.8839 456.132 37.6215 452.28 30.7875 445.444C23.9534 438.608 20.1038 429.344 20.08 419.678V161.738C20.1117 152.081 23.9641 142.829 30.7957 136.003C37.6273 129.177 46.8827 125.332 56.54 125.308H144.54C146.647 125.311 148.701 124.648 150.408 123.414C152.116 122.181 153.391 120.439 154.05 118.438L166.84 80.0483C169.255 72.7877 173.896 66.472 180.103 61.9972C186.31 57.5224 193.768 55.1156 201.42 55.1183H309.86C317.505 55.1177 324.956 57.5221 331.158 61.9909C337.361 66.4597 342 72.7666 344.42 80.0183L357.2 118.408C357.859 120.409 359.134 122.151 360.842 123.384C362.549 124.618 364.603 125.281 366.71 125.278H454.71C464.375 125.292 473.64 129.137 480.473 135.972C487.306 142.807 491.149 152.073 491.16 161.738V419.678Z" fill="black"/>
<path d="M369.85 234.66C361.278 213.938 347.241 195.93 329.236 182.56C311.232 169.189 289.936 160.957 267.62 158.741C263.62 158.347 259.637 158.154 255.67 158.16C229.094 158.098 203.203 166.587 181.822 182.372C160.442 198.157 144.707 220.402 136.942 245.819C129.178 271.235 129.795 298.476 138.704 323.514C147.613 348.553 164.341 370.061 186.415 384.861C208.489 399.661 234.738 406.967 261.284 405.699C287.83 404.432 313.264 394.659 333.828 377.823C354.392 360.988 368.994 337.984 375.477 312.21C381.961 286.437 379.981 259.262 369.83 234.701L369.85 234.66ZM358.72 292.29C356.357 316.272 345.793 338.704 328.81 355.8L328.17 356.441C308.878 375.586 282.8 386.33 255.62 386.33H255.35C234.254 386.429 213.624 380.13 196.181 368.264C178.739 356.399 165.303 339.524 157.646 319.866C149.99 300.209 148.473 278.692 153.295 258.154C158.117 237.617 169.052 219.023 184.657 204.827C200.262 190.631 219.804 181.5 240.705 178.637C261.606 175.774 282.883 179.315 301.731 188.792C320.578 198.269 336.11 213.237 346.277 231.721C356.444 250.206 360.769 271.338 358.68 292.33L358.72 292.29Z" fill="black"/>
<path d="M431.12 194.361C436.709 194.361 441.24 189.83 441.24 184.241C441.24 178.652 436.709 174.121 431.12 174.121C425.531 174.121 421 178.652 421 184.241C421 189.83 425.531 194.361 431.12 194.361Z" fill="black"/>
</g>
<defs>
<clipPath id="clip0_240_1588">
<rect width="511.24" height="441.25" fill="white" transform="translate(0 35)"/>
</clipPath>
</defs>
</svg>
