<svg width="512" height="512" viewBox="0 0 512 512" fill="none" xmlns="http://www.w3.org/2000/svg">
<path d="M188.6 7.60001L187.678 8.55736C186.602 9.67538 186 11.1671 186 12.7192V37.6V59C186 62.3137 183.314 65 180 65H178.6C172 65 171 65.3 168.6 67.6L167.678 68.5574C166.602 69.6754 166 71.1671 166 72.7192V103.6V131C166 134.314 163.314 137 160 137H128.6H93.7194C92.1673 137 90.6756 137.601 89.5576 138.678L88.6002 139.6L87.6783 140.557C86.6017 141.675 86.0002 143.167 86.0002 144.719V257.1V366C86.0002 369.314 83.3139 372 80.0002 372H58.6002H33.7194C32.1673 372 30.6756 372.601 29.5576 373.678L28.6002 374.6L27.6783 375.557C26.6017 376.675 26.0002 378.167 26.0002 379.719V432.1V481C26.0002 484.314 23.3139 487 20.0002 487H18.1002C11.0002 487 10.0002 487.2 7.6002 489.6C3.9002 493.4 3.9002 500.6 7.6002 504.4L8.55757 505.322C9.67559 506.399 11.1673 507 12.7194 507H256H499.281C500.833 507 502.325 506.399 503.443 505.322L504.4 504.4C508.1 500.6 508.1 493.4 504.4 489.6C502 487.2 501 487 493.9 487H492C488.687 487 486 484.314 486 481V409.7C486 332.9 486 332.4 483.9 330.2C482.8 328.9 469.3 321.7 453.9 314L429.309 301.66C427.281 300.643 426 298.567 426 296.298V276.2C426 253.5 425.9 252.3 423.9 250.2C422.8 248.9 404.8 239.4 383.9 229L349.311 211.66C347.282 210.642 346 208.567 346 206.296V140.1V72.7192C346 71.1671 345.399 69.6754 344.322 68.5574L343.4 67.6C341 65.3 340 65 333.4 65H332C328.687 65 326 62.3137 326 59V37.6V12.7192C326 11.1671 325.399 9.67538 324.322 8.55736L323.4 7.60001L322.443 6.67807C321.325 5.60147 319.833 5 318.281 5H256H193.719C192.167 5 190.676 5.60147 189.558 6.67809L188.6 7.60001ZM306 45V59C306 62.3137 303.314 65 300 65H256H212C208.686 65 206 62.3137 206 59V45V31C206 27.6863 208.686 25 212 25H256H300C303.314 25 306 27.6863 306 31V45ZM326 142.5V190.292C326 194.752 321.306 197.653 317.317 195.658L313 193.5C297.8 185.9 293.1 185.1 288.6 189.6L287.678 190.557C286.602 191.675 286 193.167 286 194.719V339.6V481C286 484.314 283.314 487 280 487H256H232C228.686 487 226 484.314 226 481V314.6V144.719C226 143.167 225.399 141.675 224.322 140.557L223.4 139.6L222.443 138.678C221.325 137.601 219.833 137 218.281 137H203.4H192C188.686 137 186 134.314 186 131V111V91C186 87.6863 188.686 85 192 85H256H320C323.314 85 326 87.6863 326 91V142.5ZM206 322V481C206 484.314 203.314 487 200 487H186H172C168.686 487 166 484.314 166 481V432.1V379.719C166 378.167 165.399 376.675 164.322 375.557L163.4 374.6L162.443 373.678C161.325 372.601 159.833 372 158.281 372H133.4H112C108.686 372 106 369.314 106 366V264.5V163C106 159.686 108.686 157 112 157H156H200C203.314 157 206 159.686 206 163V322ZM406 375.5V481C406 484.314 403.314 487 400 487H356H312C308.687 487 306 484.314 306 481V350.5V223.708C306 219.248 310.694 216.347 314.683 218.342L356 239L402.683 262.342C404.716 263.358 406 265.436 406 267.708V375.5ZM466 415.5V481C466 484.314 463.314 487 460 487H446H432C428.687 487 426 484.314 426 481V405.5V333.708C426 329.248 430.694 326.347 434.683 328.342L446 334L462.683 342.342C464.716 343.358 466 345.436 466 347.708V415.5ZM146 439.5V481C146 484.314 143.314 487 140 487H126H112C108.686 487 106 484.314 106 481V464.6V444.719C106 443.167 105.399 441.675 104.322 440.557L103.4 439.6C101.3 437.5 99.8002 437 96.0002 437C92.2002 437 90.7002 437.5 88.6002 439.6L87.6783 440.557C86.6017 441.675 86.0002 443.167 86.0002 444.719V464.6V481C86.0002 484.314 83.3139 487 80.0002 487H66.0002H52.0002C48.6865 487 46.0002 484.314 46.0002 481V439.5V398C46.0002 394.686 48.6865 392 52.0002 392H96.0002H140C143.314 392 146 394.686 146 398V439.5Z" fill="black"/>
<path d="M148.6 199.601L146 202.301V222.001V241.701L148.6 244.401C152.4 248.101 159.6 248.101 163.4 244.401L166 241.701V222.001V202.301L163.4 199.601C161.3 197.501 159.8 197.001 156 197.001C152.2 197.001 150.7 197.501 148.6 199.601Z" fill="black"/>
<path d="M148.6 289.6L146 292.3V312V331.7L148.6 334.4C150.7 336.5 152.2 337 156 337C159.8 337 161.3 336.5 163.4 334.4L166 331.7V312V292.3L163.4 289.6C161.3 287.5 159.8 287 156 287C152.2 287 150.7 287.5 148.6 289.6Z" fill="black"/>
<path d="M348.6 299.6L346 302.3V322V341.7L348.6 344.4C350.7 346.5 352.2 347 356 347C359.8 347 361.3 346.5 363.4 344.4L366 341.7V322V302.3L363.4 299.6C361.3 297.5 359.8 297 356 297C352.2 297 350.7 297.5 348.6 299.6Z" fill="black"/>
<path d="M348.6 389.6L346 392.3V412V431.7L348.6 434.4C350.7 436.5 352.2 437 356 437C359.8 437 361.3 436.5 363.4 434.4L366 431.7V412V392.3L363.4 389.6C359.6 385.9 352.4 385.9 348.6 389.6Z" fill="black"/>
</svg>
