<svg width="512" height="512" viewBox="0 0 512 512" fill="none" xmlns="http://www.w3.org/2000/svg">
<path d="M123.9 1.39999C111.7 4.79999 99.5001 12.9 92.3001 22.5C86.5001 30.2 84.5001 34.2 82.0001 43.1C80.2001 49.9 80.0001 53.3 80.0001 86.2C80.0001 120.9 79.9001 121.9 78.0001 122.5C73.9001 123.8 66.4001 130.8 63.5001 136.1C60.6001 141.4 60.5001 141.8 60.5001 155.5C60.5001 169.1 60.6001 169.6 63.4001 174.8C69.4001 185.5 77.3001 190.2 90.6001 190.8L99.7001 191.2L100.4 199.7C103.1 233.1 124.3 265 153.8 279.9L160 283V292V301H119.2C73.1001 301 69.7001 301.4 55.7001 308.7C45.8001 313.8 32.8001 326.8 27.7001 336.7C19.9001 351.8 20.0001 350.1 20.0001 433V506.6L22.8001 509.3L25.6001 512H205.2C362.9 512 385.8 511.8 393.1 510.5C443 501.2 481.8 462.3 490.5 412.6C492.4 401.2 492.4 381.8 490.5 370.4C481.6 319.4 440.4 279.5 389 271.9C376.3 270.1 353.8 271.2 341.9 274.3C324.9 278.7 307.6 287.3 296.1 296.9L291.2 301H266.1H241V292.2V283.5L248.6 279.5C276 265.2 297.2 234.5 300.5 204.7C300.8 201.8 301.3 197.6 301.6 195.3L302.1 191.2L310.8 190.8C324.5 190.3 333.4 184.7 338.9 173C341.3 168 341.5 166.4 341.5 155.5C341.5 145.1 341.2 142.8 339.2 138.5C336.5 132.6 331 126.6 325.8 123.9L322.2 122L321.8 84.8C321.4 47.6 321.4 47.5 318.8 40.3C315.5 30.9 312.2 25.5 305.9 18.6C299.2 11.2 290.2 5.49999 280.7 2.49999L272.9 -7.62939e-06L200.7 0.0999924C145.7 0.199992 127.4 0.499992 123.9 1.39999ZM266.7 20.9C283.5 23.4 296.5 35.4 299.9 51.8C300.6 55 301 69.2 301 88V119H298.4C292.9 119 281.9 115.7 276.3 112.4C261.4 103.4 253.5 90.5 251.5 71.6C250.9 66.9 250.2 65.1 248 62.8C244.1 58.9 238.3 58.9 234 62.7C231.3 65.2 230.8 66.4 230 73.5C227.9 92.2 218.2 106.6 202.6 113.9C192.4 118.7 189 119 143.4 119H100.9L101.2 84.2L101.5 49.5L104.6 43C110.3 31.1 121.2 22.9 133.5 21.1C141.5 19.9 258.8 19.8 266.7 20.9ZM242 108.9C242 109.4 245.2 113.2 249 117.3C256.8 125.7 265.2 131.5 274.8 135.1L281.1 137.5L280.7 170C280.3 199.1 280.1 203.3 278.2 210.2C274.4 224.1 266.9 237.1 257 247C239.9 264.1 215.3 272.8 192.5 270C163.8 266.4 140.8 249.8 128.6 223.9C122 209.9 121.7 207.9 121.2 172.2L120.9 140H154.5C193.4 140 198.3 139.4 212.5 132.5C222.1 127.9 233.9 118.2 238 111.5C240 108.2 242 106.9 242 108.9ZM100 155.5V170H93.4001C87.5001 170 86.6001 169.7 83.9001 167.1C81.2001 164.3 81.0001 163.7 81.0001 156.3C81.1001 144.3 83.9001 141.1 94.3001 141H100V155.5ZM317.2 143.9C320.4 146.8 320.5 147 320.5 155.5C320.5 164 320.4 164.2 317.2 167.1C314.4 169.6 313.2 170 308 170H302V155.5V141H308C313.2 141 314.4 141.4 317.2 143.9ZM201.5 291.3C207 291.3 213.4 290.9 215.8 290.5L220 289.8V303C220 318.2 218.7 322 211.9 327C204.3 332.4 195.4 331.9 188.3 325.7C182.3 320.4 181 316.3 181 302.2V289.8L186.3 290.6C189.1 291 196 291.3 201.5 291.3ZM398.4 295.4C408.9 298.6 421 304.5 429.5 310.5C436.4 315.4 449.2 328.4 453.7 335.1C458.9 342.6 464.7 355.1 467.6 364.6C470.1 372.8 470.4 374.9 470.4 391C470.5 406.4 470.2 409.4 468.2 416.4C462.9 434.7 454.5 449.2 441.8 461.8C420.7 483 393 493.1 362.9 490.8C333.5 488.6 305.4 471.9 288.6 446.8C282.2 437 279 430.2 275.3 418.1C272.8 410.2 272.6 408 272.6 392C272.5 376.6 272.8 373.5 274.8 366.6C285.2 330.7 311.5 304.4 346.1 295.1C357.1 292.2 357.3 292.1 374 292.4C387.4 292.7 390.7 293.1 398.4 295.4ZM113.2 344.7C118.6 357.3 123.2 368.3 123.6 369.2C124.2 370.9 123.2 371 111.2 371C103.2 371 97.1001 371.5 95.5001 372.2C92.4001 373.6 90.0001 377.7 90.0001 381.5C90.0001 383.5 132.1 486.8 134.7 491.2C134.9 491.7 113.9 492 88.1001 492H41.0001V426.6C41.0001 365.2 41.1001 360.8 42.9001 355.1C47.6001 340 60.3001 327.8 76.0001 323.4C78.5001 322.7 85.7001 322.1 92.0001 322.1L103.5 322L113.2 344.7ZM164 327.7C167.4 335.9 177.5 345.9 185.4 348.9C206.3 356.7 230 347 238.2 327.3L240.4 322H256.2H272.1L269.5 326.2C256.8 347 251 367.3 251 391.3C251 409.9 253.9 424.5 260.7 440L263.1 445.4L253.4 468.7L243.7 492L200.7 491.8L157.7 491.5L137 441.7L116.2 392H129.6C137 392 144 391.5 145.3 390.9C148.3 389.6 151 385 151 381.5C151 380.1 145.8 366.7 139.5 351.9C133.1 337.1 127.7 324.3 127.4 323.5C126.9 322.2 129.2 322 144.2 322H161.6L164 327.7ZM285.2 476.3C289.8 480.8 295.7 486.1 298.4 488L303.2 491.5L285.5 491.8C275.7 491.9 267.6 491.9 267.4 491.7C267 491.3 276.2 468 276.7 468C276.9 468 280.7 471.7 285.2 476.3Z" fill="white"/>
<path d="M180.4 216.499C177.4 218.499 175.7 223.299 176.4 227.399C177.2 231.599 181.3 235.299 188.9 238.799C193.5 240.899 195.2 241.199 202.4 240.799C211.4 240.299 216.3 238.299 221.8 232.999C224.5 230.199 225 228.999 225 224.999C225 221.199 224.5 219.699 222.4 217.599C218.8 213.999 212.4 213.999 207.2 217.499C205.2 218.899 202.2 219.999 200.5 219.999C198.8 219.999 195.9 218.899 194 217.499C190.1 214.599 183.7 214.099 180.4 216.499Z" fill="white"/>
<path d="M391.1 329.101C381.1 331.101 372.9 337.601 368.7 346.901C366.4 352.001 365.9 364.501 367.8 369.001C368.7 371.401 367.3 373.001 342.5 398.001C315.7 425.101 314.6 426.501 315.8 432.701C316.5 436.701 333.5 453.501 337.6 454.401C342.5 455.501 347.8 452.801 349.6 448.401C351.7 443.401 350.7 440.001 345.5 434.201L341.1 429.301L347.5 423.001L353.9 416.601L358.9 421.301C363.2 425.301 364.5 426.001 368 426.001C373.2 426.001 375.6 424.701 377.5 421.001C380.3 415.701 379.5 412.401 374 406.601L369.1 401.401L376.4 394.101L383.8 386.801L387.5 388.001C392.2 389.501 401.5 389.501 406.7 388.001C413.5 385.901 420.1 380.201 423.7 373.101C426.6 367.601 427 365.901 427 359.001C427 352.101 426.6 350.401 423.7 344.901C417.6 332.901 404.3 326.501 391.1 329.101ZM400.5 350.401C404.4 352.101 406 354.601 406 359.001C406 363.401 404.4 365.901 400.4 367.601C395.6 369.601 390.5 367.501 388.5 362.501C387.1 359.401 387.1 358.601 388.4 355.501C389.4 353.201 391.1 351.401 393.2 350.501C397.3 348.701 396.5 348.801 400.5 350.401Z" fill="white"/>
<path d="M196.5 381.9C191.6 384 190.5 386.6 190.5 396.7V406.2L193.9 409.2C196.9 411.9 197.8 412.2 201.9 411.7C209.2 410.9 211 408 211 396.9C211 391.9 210.5 387 210 385.9C207.9 382 201.2 380 196.5 381.9Z" fill="white"/>
<path d="M195.8 432.6C191.7 434.7 190 438.9 190 446.4C190 457.4 193.2 462 200.8 462C204.3 462 205.7 461.4 208.1 459.1C210.9 456.3 211 455.7 211 447.6C211 437.6 209.9 434.7 205.5 432.5C201.4 430.6 199.3 430.6 195.8 432.6Z" fill="white"/>
</svg>
