<svg width="512" height="512" viewBox="0 0 512 512" fill="none" xmlns="http://www.w3.org/2000/svg">
<path d="M150.2 38.7C150.6 72.2 150.6 72.6 153.1 79.2C154.5 82.9 157.2 88.2 159 91C162.1 95.8 173.4 107 175.2 107C175.6 107 176 115.8 176 126.5V146L171.2 142.5C149.5 127 117.5 124.5 92.5 136.4C73.8 145.3 60.1 161 52.8 182.1L49.5 191.5V224C49.5 261.1 50 264.6 57.5 279.5C61.4 287.4 61.6 288 59.8 288.6C58.7 288.9 53.9 291.8 49.1 295C32.3 306.2 17.5 324.7 11.1 342.5C5 359.5 5 359.1 5 436.5V507H256.5H508V441.7C508 374.6 507.5 364.3 503.9 351C500.9 340 493 324.7 485.5 315.3C478.1 306.1 465.7 295.6 456.5 290.8L450.4 287.7L453.7 281.6C455.5 278.2 458.2 271.9 459.7 267.5C462.4 259.6 462.4 259 462.8 229.5C463.2 196.4 462.7 190.4 457.9 177.9C446.4 147.8 418.5 129 385.5 129C368.4 129 355.5 132.9 342.1 141.9L336 146.1V98.7C336 46.6 335.9 45.3 329.7 33.6C325.5 25.6 315.1 15.1 307.5 11.2C294.7 4.80003 297.6 5.00003 220.2 5.00003H149.9L150.2 38.7ZM293.3 27.9C300.4 30.7 308.6 38.4 312.1 45.5C314.4 50.3 314.5 51.5 314.8 72.8L315.1 95.1L256.3 94.8L197.5 94.5L191.9 91.9C184 88.2 178.6 82.9 174.8 75.2L171.5 68.6L171.2 46.7L170.9 24.9L229.2 25.2L287.5 25.5L293.3 27.9ZM315 142.8C315 172.4 314.5 176.2 308.7 188C304.4 196.9 291.9 209.4 283 213.7C273.8 218.2 266 220 256 220C239 220 226.7 214.8 214.5 202.5C209 197 205.5 192.5 203.3 188C197.5 176.2 197 172.4 197 142.5V115.5L256 115.8L315 116V142.8ZM143.8 152.6C159.3 157.8 171 168.3 177.7 183C179.6 187.1 182.3 193 183.7 196C185.1 199 187.5 203.4 189.1 205.8C190.7 208.2 192 210.3 192 210.4C192 210.6 189.4 211.1 186.3 211.5C177.4 212.5 163.3 217.6 155.2 222.7C131.3 237.6 118.1 260.2 116.3 289.7C116 295.4 115.5 300 115.3 300C113.7 300 102.5 295.6 98.5 293.4C91.1 289.3 80.1 277.7 76.3 269.9C70.5 258.1 69.8 252.8 70.2 222C70.6 195.4 70.7 194.3 73.1 187.9C79.9 170.1 91.8 158.5 109.2 152.6C119.7 149 133.1 149 143.8 152.6ZM402.8 152.5C421.1 158.3 435.5 173.7 440.4 192.7C442.7 201.3 442.7 248.8 440.5 257.5C435.3 277.8 418.6 294.6 398.9 299.3L396.3 300L395.7 289.7C393.8 259.1 379.5 235.5 353.8 220.7C347.7 217.2 333 212.3 325.8 211.5C320.3 210.8 318.8 209.9 321 208.5C322.5 207.5 328.6 196.2 332.5 187C340.1 168.8 353.8 156.2 371.3 151.5C380 149.2 393.6 149.6 402.8 152.5ZM236.4 239C253.4 243.3 274.6 241.2 290.9 233.5L298.3 230L297.7 243C295.4 287.4 283 328.1 263.5 355.5C259.9 360.4 256.6 364.5 256 364.5C254.1 364.5 242.1 346.6 236.6 335.5C223.8 309.7 216 277.4 214.3 243.2L213.7 230L221.1 233.5C225.2 235.4 232.1 237.9 236.4 239ZM193.4 245.2C196.1 299.4 214 350.6 240.4 379.7L246 385.8V436.4V487H191.5H136.9L137.2 384.2C137.5 287.7 137.6 281.2 139.4 276C146.5 254.5 162.5 239 183 233.6C193.3 230.9 192.6 230.1 193.4 245.2ZM328.5 233.5C349.3 238.8 365.4 254.3 372.6 276C374.4 281.2 374.5 287.7 374.8 384.2L375.1 487H320.5H266V436.4V385.8L271.6 379.7C298 350.6 315.9 299.3 318.7 245C319.4 230.3 318.7 231 328.5 233.5ZM83.8 309.2C90.4 313.7 101.4 318.4 109.8 320.1L116 321.4V404.2V487H71H26V427.2C26 370.4 26.1 366.9 28 359.4C30.4 350 34.4 341.3 39.8 333.3C43.8 327.5 53.8 317.3 59.6 313.3C65 309.5 76.3 304.1 77.4 304.8C78 305.1 80.9 307.1 83.8 309.2ZM451.7 312.8C458.2 317.2 468.6 327.5 472.6 333.4C477 339.8 482 350.8 484.3 358.9C486.3 366.2 486.4 368.9 486.8 426.8L487.1 487H441.6H396V404.2V321.5L403.9 319.7C412.4 317.8 425.1 312 431.5 307.2L435.4 304.2L440.6 306.5C443.5 307.8 448.5 310.6 451.7 312.8Z" fill="white"/>
</svg>
