<svg width="512" height="512" viewBox="0 0 512 512" fill="none" xmlns="http://www.w3.org/2000/svg">
<path d="M372.57 49.4297H342.18V69.4897C342.18 80.1997 333.5 88.8797 322.79 88.8797C312.09 88.8797 303.41 80.1997 303.41 69.4897V49.4297H238.39V69.4897C238.39 80.1997 229.72 88.8797 219.01 88.8797C208.3 88.8797 199.63 80.1997 199.63 69.4897V49.4297H134.61V69.4897C134.61 80.1997 125.93 88.8797 115.23 88.8797C104.52 88.8797 95.84 80.1997 95.84 69.4897V49.4297H65.45C53.33 49.4297 43.5 59.2497 43.5 71.3697V132.28H394.52V71.3697C394.52 59.2497 384.69 49.4297 372.57 49.4297Z" stroke="black" stroke-width="20" stroke-miterlimit="10" stroke-linecap="round" stroke-linejoin="round"/>
<path d="M43.5071 361.653V480.051C43.5071 492.171 53.3271 502.001 65.4471 502.001H394.517C353.657 502.001 320.527 468.881 320.527 428.021C320.527 407.591 328.807 389.091 342.197 375.701C355.587 362.311 374.087 354.031 394.517 354.031V132.281H43.5071V393.693" stroke="black" stroke-width="20" stroke-miterlimit="10" stroke-linecap="round" stroke-linejoin="round"/>
<path d="M115.226 88.877C104.52 88.877 95.842 80.198 95.842 69.493V29.384C95.841 18.679 104.52 10 115.226 10C125.932 10 134.61 18.679 134.61 29.384V69.492C134.61 80.198 125.931 88.877 115.226 88.877Z" stroke="black" stroke-width="20" stroke-miterlimit="10" stroke-linecap="round" stroke-linejoin="round"/>
<path d="M322.795 88.877C312.089 88.877 303.411 80.198 303.411 69.493V29.384C303.411 18.678 312.09 10 322.795 10C333.501 10 342.179 18.679 342.179 29.384V69.492C342.179 80.198 333.5 88.877 322.795 88.877Z" stroke="black" stroke-width="20" stroke-miterlimit="10" stroke-linecap="round" stroke-linejoin="round"/>
<path d="M219.01 88.877C208.304 88.877 199.626 80.198 199.626 69.493V29.384C199.626 18.678 208.305 10 219.01 10C229.716 10 238.394 18.679 238.394 29.384V69.492C238.395 80.198 229.716 88.877 219.01 88.877Z" stroke="black" stroke-width="20" stroke-miterlimit="10" stroke-linecap="round" stroke-linejoin="round"/>
<path d="M394.516 501.999C353.656 501.999 320.532 468.875 320.532 428.015C320.532 387.155 353.656 354.031 394.516 354.031C435.376 354.031 468.5 387.155 468.5 428.015C468.5 468.875 435.376 501.999 394.516 501.999Z" stroke="black" stroke-width="20" stroke-miterlimit="10" stroke-linecap="round" stroke-linejoin="round"/>
<path d="M424.468 408.297L381.378 451.387L362.489 432.498" stroke="black" stroke-width="20" stroke-miterlimit="10" stroke-linecap="round" stroke-linejoin="round"/>
<path d="M158.464 190L115.375 233.089L96.4861 214.201" stroke="black" stroke-width="20" stroke-miterlimit="10" stroke-linecap="round" stroke-linejoin="round"/>
<path d="M158.464 295L115.375 338.09L96.4861 319.201" stroke="black" stroke-width="20" stroke-miterlimit="10" stroke-linecap="round" stroke-linejoin="round"/>
<path d="M158.464 401L115.375 444.089L96.4861 425.201" stroke="black" stroke-width="20" stroke-miterlimit="10" stroke-linecap="round" stroke-linejoin="round"/>
<path d="M204.626 211H333.808" stroke="black" stroke-width="20" stroke-miterlimit="10" stroke-linecap="round" stroke-linejoin="round"/>
<path d="M204.626 317H333.808" stroke="black" stroke-width="20" stroke-miterlimit="10" stroke-linecap="round" stroke-linejoin="round"/>
<path d="M204.626 423H278.106" stroke="black" stroke-width="20" stroke-miterlimit="10" stroke-linecap="round" stroke-linejoin="round"/>
</svg>
