<svg width="512" height="512" viewBox="0 0 512 512" fill="none" xmlns="http://www.w3.org/2000/svg">
<path d="M232 2.39999C209.6 6.39999 189.2 14.9 171 27.8C161.7 34.4 146.8 49.1 139.5 58.9C122 82.1 111 114.4 111 142.3V152.5L107.5 154.9C100.8 159.4 92.8 169.2 88.9 177.5C81 194.5 81 210.6 89.1 227.9C92.2 234.6 94.5 237.7 100.7 243.9C113.2 256.3 125.4 260.9 145.5 261L155.5 261.1L159 268.8C166.9 286.1 181.1 302.8 196.9 313L205 318.3V327.9V337.5L196.2 341.3L187.5 345H167.5C145.1 345 135.3 345.9 120.2 349.5C60.3 363.8 13.3 414 3 474.7C1.9 481 1 490.7 1 496.1C1 505.4 1.2 506.3 3.5 508.5L5.9 511H110.5H215.1L217.5 508.5C221 505.1 221 498.9 217.5 495.5L215.1 493H117.5H20V490.7C20 485.2 23.4 468.7 26.5 459.3C43.9 406.9 89.8 370.1 145 364.5L151.5 363.8L151.6 367.7C151.6 371 154.8 376.2 175.4 406.5C188.5 425.7 200.3 442.6 201.5 443.9C203.2 445.7 204.9 446.3 208 446.3C212.1 446.3 212.5 445.9 234.1 424.4L256 402.5L277.8 424.1C289.8 436.1 300.6 446 301.9 446.3C307.9 447.7 309.4 446 334.8 408.7C348.1 389.1 359.5 371.9 360 370.4C360.6 368.9 360.8 366.8 360.4 365.7C359.8 363.8 360.1 363.8 366.6 364.4C415.7 369.4 457.1 398.2 478.6 442.3C485.3 456.1 492 480.1 492 490.6V493H394.5H296.9L294.5 495.5C292.6 497.3 292 499 292 502C292 505 292.6 506.7 294.5 508.5L296.9 511H401.5H506.1L508.7 508.4L511.3 505.8L510.7 492.2C508.2 432.7 468.6 378 412.3 356C391.3 347.7 374.3 345 344.5 345H324.5L315.8 341.3L307 337.5V327.9V318.3L315.2 312.9C331 302.6 345.2 286 353 268.8L356.5 261.1L366.5 261C386.5 260.9 398.8 256.2 411.3 243.9C417.5 237.7 419.8 234.6 422.9 227.9C431.3 210 430.9 192.5 421.7 174.3C418.8 168.6 410 158.6 404.7 155L401.3 152.6L400.7 138.6C399.8 116.2 396.1 102.1 385.5 80.5C377.7 64.8 369.5 53.6 356.2 40.9C336.5 21.9 313.2 9.49999 286 3.49999C275.9 1.19999 242.5 0.599992 232 2.39999ZM277.9 21.6C330.4 31 371.3 72.4 380.5 125.4C381.3 130.3 382 136.7 382 139.8V145.2L378.9 144.6C377.2 144.3 372.9 144 369.5 144H363.3L362.1 135.2C359.1 111.3 350 91.7 334.2 74.9C323.9 64 315.7 57.9 302.5 51.5C285.2 43 278.2 41.5 256 41.5C233.8 41.5 226.8 43 209.5 51.5C176 67.8 154.7 97.7 149.9 135.2L148.7 144H142.5C139.1 144 134.8 144.3 133.1 144.6L130 145.2V139.8C130 125.5 135.4 105.4 143.5 89.3C168.6 39.4 223.3 11.9 277.9 21.6ZM275.7 62.1C306.9 68.9 332.5 93.9 341 125.6C343.4 134.6 345 156 343.2 156C342.6 156 339.1 155.3 335.3 154.5C320.3 151.3 305.6 144.9 291.6 135.4C287 132.2 282.7 130 281.1 130C279.5 130 274.9 132.3 270 135.6C254.1 146.1 238.2 152.5 220 155.6C208.1 157.6 186 157.1 175.1 154.5L167.7 152.8L168.3 143.1C170.4 110 189.1 82.4 219.1 68.1C237.1 59.4 255 57.6 275.7 62.1ZM287.1 155.5C302.1 164.7 321 171.8 336.8 174.2L344.1 175.4L343.8 206.4C343.5 233 343.2 238.6 341.6 244.7L339.7 252H315.4H291.2L290.6 249.7C289.2 244.5 283.2 238.2 276.4 234.9C269.9 231.7 269.2 231.5 257.6 231.5C243.4 231.5 238.2 232.7 231.4 237.9C224.1 243.4 220.5 251.1 220.5 261C220.5 270.9 224.1 278.6 231.4 284.1C238.2 289.2 243.4 290.5 257.5 290.5C269.1 290.5 269.8 290.4 276.3 287.2C283.2 283.8 289.2 277.5 290.6 272.2C291.2 270 291.3 270 310.6 270C321.3 270 330 270.2 330 270.6C330 273.7 315.4 289.2 306.3 295.6C277 316.7 235 316.7 205.7 295.6C192.7 286.3 182.8 274.3 176 259.6C169 244.6 168.7 242.3 168.3 205.6L167.9 172.7L172.2 173.4C184.7 175.5 189.5 176 200.5 176C226.6 176 254.6 168.4 273.5 156.1C276.8 153.9 279.9 152.1 280.4 152.1C280.8 152 283.9 153.6 287.1 155.5ZM149 202.5V242H142.5C126.3 242 112.8 233.2 105.6 218C102.9 212.2 102.5 210.5 102.5 202.4C102.5 194 102.7 192.9 106.3 185.8C113.5 171.2 126.2 163.2 142.8 163.1L149 163V202.5ZM386.4 166.8C395.5 171 401.3 176.8 405.8 185.8C409.2 192.9 409.5 194 409.5 202.4C409.5 210.5 409.1 212.2 406.4 218.1C399.2 233.3 385.7 242 369.3 242H363V202.4V162.7L371.5 163.2C378 163.7 381.4 164.4 386.4 166.8ZM266.3 251.4C276.5 255.7 275.8 267.6 265.2 271.1C263.2 271.8 258.4 272 253.8 271.8C246.5 271.4 245.6 271.1 242.7 268.2C238.4 263.9 238.3 258.4 242.4 254.1C244 252.4 246.2 250.9 247.4 250.7C252.4 249.7 263.3 250.1 266.3 251.4ZM234.5 328.6C247.4 331.7 275.6 330.5 286.3 326.5C287.8 325.8 288 326.6 288 334.7V343.5L272 359.5L256 375.5L240 359.5L224 343.5V334.7C224 326.7 224.2 325.9 225.8 326.4C226.7 326.7 230.7 327.7 234.5 328.6ZM226 405.5L209.4 422L192.3 396.8L175.1 371.6L192.3 363.9L209.5 356.2L226 372.6L242.5 389L226 405.5ZM335.6 372.7C335.3 373.5 327.7 384.8 318.8 398L302.5 421.9L286 405.5L269.5 389L285.9 372.6L302.2 356.3L319.1 363.8C331.1 369.1 335.9 371.8 335.6 372.7Z" fill="white"/>
<path d="M249.5 495.5C247.6 497.3 247 499 247 502C247 507.6 250.4 511 256 511C261.6 511 265 507.6 265 502C265 496.4 261.6 493 256 493C253 493 251.3 493.6 249.5 495.5Z" fill="white"/>
</svg>
