<svg width="512" height="512" viewBox="0 0 512 512" fill="none" xmlns="http://www.w3.org/2000/svg">
<g clip-path="url(#clip0_219_55)">
<path d="M261.39 13.9403C253.737 12.5498 245.968 11.9002 238.19 12.0003C229.678 11.8983 221.176 12.6419 212.81 14.2203C191.402 18.8695 171.821 29.6801 156.48 45.3203C140.971 60.913 130.296 80.6545 125.74 102.17C122.165 118.99 122.398 136.397 126.423 153.116C130.448 169.834 138.162 185.44 149 198.79C159.766 211.983 173.345 222.601 188.744 229.868C204.144 237.135 220.973 240.867 238 240.79C268.89 240.79 294.75 230.59 317 209.6C340.21 187.69 352.47 158.89 352.47 126.32C352.42 71.1603 315 25.0003 261.39 13.9403ZM237.9 219.59C187.27 219.59 144.5 176.84 144.5 126.23C144.5 102.08 154.65 78.2303 172.34 60.6603C183.404 49.3658 197.184 41.1037 212.359 36.6664C227.534 32.2291 243.595 31.7656 259 35.3203C279.59 40.1703 297.65 52.3203 310.57 68.6003C323.49 84.8803 331.25 105.15 331.25 126.22C331.29 176.84 288.53 219.59 237.9 219.59Z" fill="black"/>
<path d="M316.6 286.27C307.195 291.77 298.709 298.707 291.45 306.83H237.76C156.76 306.83 147.32 306.93 136.54 309.95C123.48 313.39 99.65 324.3 91 330.83C72.7 344.6 54.49 367.91 47.73 386.09C40 406.5 39.35 412.92 38.3 448.26L37.46 480L34.71 482.39C32.03 484.76 31.23 485.06 27.45 485.06C23.39 485.06 23.32 485.06 20.18 481.88L17 478.69V450.43C17 425.23 18.18 413.43 19.15 407.92C30.39 343.12 80.36 295.39 146.47 286.29C151.32 285.76 193.8 285.29 243.76 285.44C258.94 285.52 271.66 285.62 282.38 285.73C297.34 285.87 308.34 286 316.6 286.27Z" fill="black"/>
<path d="M458.55 450.429V463.069C452.383 469.444 445.555 475.143 438.18 480.069L438.07 479.979L437.38 453.979C445.551 446.822 452.553 438.431 458.13 429.109C458.42 435.529 458.55 442.579 458.55 450.429Z" fill="black"/>
<path d="M423.37 326.999C420.793 321.953 416.876 317.714 412.047 314.749C407.219 311.783 401.666 310.206 396 310.189C394.548 310.189 393.097 310.292 391.66 310.499C391.08 310.569 390.49 310.669 389.92 310.779C382.353 312.264 375.581 316.442 370.86 322.539C369.29 324.552 367.97 326.748 366.93 329.079C364.6 334.239 364.06 347.139 365.98 351.689C367.19 354.899 366.18 356.089 338.98 383.519C310.82 411.979 309.77 413.319 310.98 419.399C311.63 423.109 329.38 440.739 333.32 441.599C335.624 442.102 338.03 441.801 340.14 440.748C342.25 439.695 343.937 437.953 344.92 435.809C346.92 430.959 345.98 427.689 340.74 421.809L335.43 415.909L342.93 408.589L350.39 401.129L356.39 406.779C360.79 410.869 361.97 411.489 365.39 411.489C370.5 411.489 372.73 410.329 374.58 406.729C377.34 401.499 376.58 398.469 371.03 392.619L365 386.429L373.42 378.009L381.7 369.839L386.2 371.299C391.02 372.829 400.63 372.829 405.97 371.299C409.841 370.029 413.391 367.938 416.38 365.169C419.244 362.576 421.615 359.487 423.38 356.049C426.28 350.549 426.72 348.809 426.76 342.719V341.519C426.76 334.329 426.37 332.699 423.37 326.999ZM404.25 348.579C403.058 349.874 401.583 350.877 399.94 351.509C398.646 352.088 397.247 352.391 395.83 352.399H395.76C394.345 352.398 392.945 352.108 391.647 351.545C390.348 350.983 389.179 350.161 388.21 349.129C387.23 348.093 386.478 346.863 386 345.519C384.44 342.079 384.43 340.929 385.92 337.379C386.498 336.026 387.322 334.792 388.35 333.739C389.258 332.81 390.338 332.066 391.53 331.549L392.37 331.179C395.6 329.739 395.91 329.729 398.82 330.939L400.04 331.439C404.56 333.249 406.5 336.249 406.5 341.439C406.683 344.022 405.879 346.577 404.25 348.589V348.579Z" fill="black"/>
<path d="M368.91 250.911C337.955 251.019 308.145 262.634 285.277 283.498C262.409 304.362 248.117 332.984 245.178 363.8C242.24 394.616 250.865 425.423 269.378 450.233C287.891 475.043 314.968 492.083 345.345 498.039C375.722 503.996 407.229 498.443 433.74 482.461C460.251 466.48 479.872 441.211 488.789 411.567C497.705 381.923 495.28 350.023 481.984 322.068C468.689 294.113 445.473 272.101 416.85 260.311C401.643 254.057 385.353 250.863 368.91 250.911V250.911ZM437.38 454.001C417.744 471.174 392.355 480.313 366.279 479.593C340.202 478.873 315.356 468.349 296.697 450.119C278.038 431.889 266.938 407.294 265.612 381.241C264.286 355.189 272.832 329.594 289.544 309.564C306.256 289.534 329.905 276.541 355.774 273.178C381.642 269.814 407.828 276.328 429.106 291.419C450.384 306.51 465.19 329.069 470.57 354.595C475.95 380.12 471.508 406.736 458.13 429.131C452.558 438.456 445.556 446.848 437.38 454.001V454.001Z" fill="black"/>
</g>
<defs>
<clipPath id="clip0_219_55">
<rect width="477" height="488.85" fill="white" transform="translate(17 12)"/>
</clipPath>
</defs>
</svg>
