<svg width="512" height="512" viewBox="0 0 512 512" fill="none" xmlns="http://www.w3.org/2000/svg">
<g clip-path="url(#clip0_231_1384)">
<path d="M393.07 147.399L390.34 144.759H318.09V135.599C318.09 124.519 317.87 121.869 316.64 117.889C314.941 112.35 311.909 107.312 307.81 103.216C303.711 99.1211 298.671 96.0935 293.13 94.3989C288.69 92.9689 286.29 92.9389 256.13 93.0089C226.63 93.0089 223.56 93.1189 219.64 94.3189C214.128 96.0703 209.119 99.1241 205.037 103.222C200.955 107.319 197.92 112.34 196.19 117.859C194.96 121.859 194.74 124.489 194.74 135.569V144.729H122.46L119.68 147.399C117.43 149.659 117 151.669 117 154.599C117 158.689 118.67 163.779 126.65 164.769C132.1 165.449 134.8 166.619 137.76 169.579C138.39 170.199 138.96 170.679 139.42 171.059C140.86 172.269 141.58 172.869 142.08 182.169C142.65 192.859 142.71 213.509 142.82 254.659C142.82 263.409 142.87 273.099 142.9 283.809C143.25 391.409 143.3 391.539 144.63 394.809C148.96 405.739 157.2 413.579 167.81 416.879C172.4 418.399 172.4 418.399 256.4 418.399C340.4 418.399 340.4 418.399 344.97 416.949C355.6 413.649 363.84 405.809 368.16 394.949C369.5 391.639 369.55 391.509 369.9 283.949C369.9 273.229 369.96 263.539 369.98 254.789C370.09 213.649 370.15 192.999 370.72 182.309C371.22 173.009 371.94 172.409 373.38 171.199C373.84 170.819 374.38 170.339 375.05 169.709C378.05 166.709 380.7 165.589 386.15 164.909C394.15 163.909 395.8 158.829 395.8 154.739C395.8 151.709 395.4 149.699 393.07 147.399ZM214.66 136.719C214.97 123.949 215.66 122.109 218.86 118.419C221.334 115.689 224.663 113.883 228.3 113.299C229.74 113.079 240.76 112.889 258.3 112.959C282.12 113.089 285.46 113.219 287.89 114.109C291.32 115.389 295.65 119.739 296.83 123.109C297.6 125.199 297.93 128.759 298.11 136.729L298.34 144.729H214.4L214.66 136.719ZM350.14 259.399V277.969C350.14 347.429 349.83 381.759 349.54 384.229C348.54 390.489 344.89 395.279 339.49 397.389C337.23 398.259 328.31 398.339 259.31 398.519C206.31 398.659 179.68 398.399 177.38 398.109C170.96 397.109 166.05 393.439 163.93 388.019C163.05 385.699 162.93 373.559 162.66 279.319C162.31 171.719 162.26 171.589 160.91 168.249C160.47 167.249 159.83 165.819 159.19 164.529H353.54C350.13 170.399 350.13 172.999 350.14 259.399Z" fill="black"/>
<path d="M214.47 202.04V361.11L211.75 363.93C209.78 365.689 207.231 366.662 204.59 366.662C201.949 366.662 199.4 365.689 197.43 363.93L197.35 363.85L194.71 361.11V202.04L197.39 199.25C199.65 197 201.66 196.57 204.59 196.57C207.52 196.57 209.53 197 211.79 199.25L214.47 202.04Z" fill="black"/>
<path d="M266.28 202.04V361.11L263.56 363.93C261.59 365.689 259.041 366.662 256.4 366.662C253.759 366.662 251.21 365.689 249.24 363.93L249.16 363.85L246.52 361.11V202.04L249.2 199.25C251.46 197 253.47 196.57 256.4 196.57C259.33 196.57 261.34 197 263.6 199.25L266.28 202.04Z" fill="black"/>
<path d="M318.09 202.03V361.11L315.4 363.93C313.427 365.688 310.877 366.659 308.235 366.659C305.593 366.659 303.043 365.688 301.07 363.93L301 363.85L298.36 361.11V202.04L301.04 199.25C303.3 197 305.31 196.57 308.24 196.57C311.17 196.57 313.18 197 315.44 199.25L318.09 202.03Z" fill="black"/>
</g>
<defs>
<clipPath id="clip0_231_1384">
<rect width="278.8" height="325.38" fill="white" transform="translate(117 93)"/>
</clipPath>
</defs>
</svg>
