<svg width="512" height="512" viewBox="0 0 512 512" fill="none" xmlns="http://www.w3.org/2000/svg">
<path d="M153.3 6.50057C143.3 9.60057 134.3 17.7006 129.2 28.0006L126.5 33.5006L126.2 140.101L126 246.801L120.2 247.501C73 253.001 31.5 285.201 14.5 329.501C8.50002 345.101 6.90002 353.601 6.30002 372.501C5.70002 392.401 7.10002 402.401 12.6 419.001C19.4 439.201 30.7 456.801 46.4 471.801C60.7 485.201 75.8 494.301 94.3 500.501C114.9 507.401 103.4 507.001 300 506.801L477.5 506.501L483.5 503.601C491.2 499.801 498.8 492.201 502.6 484.501L505.5 478.501L505.8 294.001L506 109.601L453.7 57.3006L401.5 5.00057L279.5 5.10057C181.1 5.10057 156.7 5.40057 153.3 6.50057ZM386 72.4006V119.701L388.6 122.401L391.3 125.001H438.7H486L485.8 298.201L485.5 471.501L483.4 475.501C480.9 480.101 478.9 482.001 474 484.601C470.6 486.401 465.3 486.501 338.7 486.801L206.8 487.001L214.8 481.001C229.8 469.701 244.5 452.001 252.9 435.201C257.8 425.501 262.9 409.101 264.8 397.501L266.4 387.001H348.6H430.7L433.4 384.401C435.5 382.301 436 380.801 436 377.001C436 373.201 435.5 371.701 433.4 369.601L430.7 367.001H348.5H266.2L265.6 361.201C263.2 341.701 255.6 321.001 244.6 304.601C242.1 300.801 240 297.601 240 297.401C240 297.201 282.9 297.001 335.4 297.001H430.7L433.4 294.401C435.5 292.301 436 290.801 436 287.001C436 283.201 435.5 281.701 433.4 279.601L430.7 277.001H325.4H220.1L212.8 271.501C204.3 265.001 186.8 256.101 175.7 252.501C171.4 251.201 162.9 249.301 156.9 248.301L145.9 246.601L146.2 143.501C146.5 45.1006 146.6 40.3006 148.4 37.0006C151.9 30.4006 156 27.4006 163 25.9006C164.9 25.5006 215.9 25.2006 276.3 25.1006L386 25.0006V72.4006ZM438.5 73.0006L470.5 105.001H438.2H406V73.0006C406 55.4006 406.1 41.0006 406.3 41.0006C406.4 41.0006 420.9 55.4006 438.5 73.0006ZM156.5 269.601C178.1 273.801 197.3 284.101 213.1 299.901C226.2 313.101 235 327.501 240.4 344.701C243.9 356.001 245 363.501 245 377.101C245 406.901 234.1 433.101 213.1 454.101C199.9 467.201 185.5 476.001 168.3 481.401C157.2 484.901 148.5 486.101 136 486.101C123.5 486.101 114.8 484.801 103.7 481.401C66.8 469.801 39.2 440.301 29.4 402.001C26.7 391.201 26.7 362.801 29.4 352.001C36.5 324.001 53.1 300.701 76.7 285.301C100.1 270.001 129 264.401 156.5 269.601Z" fill="white"/>
<path d="M198.6 189.6C196.5 191.7 196 193.2 196 197C196 200.8 196.5 202.3 198.6 204.4L201.3 207H316H430.7L433.4 204.4C437.1 200.6 437.1 193.4 433.4 189.6L430.7 187H316H201.3L198.6 189.6Z" fill="white"/>
<path d="M147.3 372.2L115 404.4L102.6 392.2L90.2 380H85.2C78.2 380 75 383.3 75 390.3V395.4L92.3 412.7L109.6 430H115H120.4L157.7 392.7L195 355.4V350.4C195 343.2 191.8 340 184.7 340H179.6L147.3 372.2Z" fill="white"/>
</svg>
