<svg width="512" height="512" viewBox="0 0 512 512" fill="none" xmlns="http://www.w3.org/2000/svg">
<path d="M487.93 87.4186L424.29 23.7786C418.664 18.1575 411.037 15 403.085 15C395.132 15 387.505 18.1575 381.88 23.7786L57.4299 348.219L163.49 454.279L487.95 129.859C490.736 127.071 492.946 123.762 494.453 120.12C495.961 116.479 496.735 112.576 496.734 108.634C496.732 104.693 495.953 100.791 494.443 97.1506C492.932 93.5103 490.719 90.2033 487.93 87.4186V87.4186Z" stroke="black" stroke-width="20" stroke-linecap="round" stroke-linejoin="round"/>
<path d="M15 496.709L57.43 348.219L163.49 454.279L15 496.709Z" stroke="black" stroke-width="20" stroke-linecap="round" stroke-linejoin="round"/>
<path d="M445.51 172.269L339.44 66.1992" stroke="black" stroke-width="20" stroke-linecap="round" stroke-linejoin="round"/>
</svg>
