<svg width="512" height="512" viewBox="0 0 512 512" fill="none" xmlns="http://www.w3.org/2000/svg">
<path d="M412.061 142.857L369.126 99.9225C365.331 96.1302 360.186 94 354.82 94C349.455 94 344.31 96.1302 340.515 99.9225L121.625 318.805L193.179 390.358L412.074 171.489C413.954 169.609 415.445 167.376 416.462 164.919C417.479 162.462 418.001 159.829 418 157.17C417.999 154.511 417.474 151.879 416.455 149.423C415.436 146.967 413.943 144.736 412.061 142.857V142.857Z" stroke="black" stroke-width="20" stroke-linecap="round" stroke-linejoin="round"/>
<path d="M93 418.983L121.625 318.805L193.178 390.358L93 418.983Z" stroke="black" stroke-width="20" stroke-linecap="round" stroke-linejoin="round"/>
<path d="M383.442 200.099L311.882 128.539" stroke="black" stroke-width="20" stroke-linecap="round" stroke-linejoin="round"/>
</svg>
