<svg width="512" height="512" viewBox="0 0 512 512" fill="none" xmlns="http://www.w3.org/2000/svg">
<path d="M31.1001 8.00067C20.7001 11.8007 10.9001 21.8007 7.70006 32.1007C6.10006 37.1007 6.00006 52.4007 6.20006 245.001L6.50006 452.501L9.40006 458.301C13.2001 465.701 20.3001 472.801 27.7001 476.601L33.5001 479.501L153 480.001L272.5 480.501L277.5 483.701C290.4 492.001 307.7 499.001 325.2 503.201C338.1 506.301 373.9 506.501 387 503.601C440.6 491.901 482.6 454.201 499.3 402.901C504.6 386.901 505.5 380.001 505.5 357.001C505.5 339.801 505.1 333.801 503.6 327.101C499.9 309.901 493.5 293.701 485.3 280.301L480.5 272.501L480 153.001L479.5 33.5007L476.6 27.7007C472.8 20.3007 465.7 13.2007 458.3 9.40067L452.5 6.50067L244.5 6.30066C40.8 6.10068 36.4001 6.10068 31.1001 8.00067ZM234 129.001V234.001H129H24.0001V140.601C24.0001 83.2007 24.4001 45.3007 25.0001 42.1007C26.6001 33.3007 33.0001 26.7007 41.1001 25.1007C43.5001 24.6007 87.9001 24.2007 139.8 24.1007L234 24.0007V129.001ZM444.1 25.0007C450.5 26.2007 455.5 29.9007 459 36.1007L461.5 40.5007L461.8 145.401L462.1 250.301L457.8 246.401C436 226.401 406.9 212.901 377.4 208.901C364.3 207.201 336.8 208.201 325.2 210.901C300.1 216.701 278.6 227.401 259.7 243.501L252 250.101V137.001V24.0007H345.4C404.6 24.0007 440.7 24.4007 444.1 25.0007ZM379 228.701C426.3 236.601 465.9 270.801 480.9 316.701C489.3 342.401 489.2 372.701 480.5 398.501C467.6 437.101 436.2 468.201 397.3 480.901C371.7 489.301 342.3 489.301 316.9 481.001C271.4 466.101 238.1 428.101 228.9 380.801C226.5 368.501 226.4 347.201 228.5 334.701C235.6 294.201 261.9 259.001 298.7 240.601C324.4 227.801 350.5 223.901 379 228.701ZM234 261.701V271.301L228.6 280.401C218.6 297.301 211.7 316.701 209.1 335.401C207.7 345.401 207.7 368.601 209.1 378.601C213.1 407.201 226.9 436.501 246.4 457.801L250.3 462.101L145.4 461.801L40.5001 461.501L36.1001 459.001C29.9001 455.501 26.2001 450.501 25.0001 444.101C24.4001 440.701 24.0001 404.601 24.0001 345.401V252.001H129H234V261.701Z" fill="black"/>
<path d="M122.5 87.5C120.1 89.8 120 90.3 120 105V120H105C90.3 120 89.8 120.1 87.5 122.5C84 125.9 84 132.1 87.5 135.5C89.8 137.9 90.3 138 105 138H120V153C120 167.7 120.1 168.2 122.5 170.5C124.3 172.4 126 173 129 173C132 173 133.7 172.4 135.5 170.5C137.9 168.2 138 167.7 138 153V138H153C167.7 138 168.2 137.9 170.5 135.5C172.4 133.7 173 132 173 129C173 126 172.4 124.3 170.5 122.5C168.2 120.1 167.7 120 153 120H138V105C138 90.3 137.9 89.8 135.5 87.5C132.1 84 125.9 84 122.5 87.5Z" fill="black"/>
<path d="M320.5 122.5C318.6 124.3 318 126 318 129C318 132 318.6 133.7 320.5 135.5L322.9 138H357H391.1L393.5 135.5C395.4 133.7 396 132 396 129C396 126 395.4 124.3 393.5 122.5L391.1 120H357H322.9L320.5 122.5Z" fill="black"/>
<path d="M315.5 325.5C312 328.9 312 335.1 315.5 338.5L317.9 341H357H396.1L398.5 338.5C400.4 336.7 401 335 401 332C401 329 400.4 327.3 398.5 325.5L396.1 323H357H317.9L315.5 325.5Z" fill="black"/>
<path d="M315.5 375.5C312 378.9 312 385.1 315.5 388.5L317.9 391H357H396.1L398.5 388.5C400.4 386.7 401 385 401 382C401 379 400.4 377.3 398.5 375.5L396.1 373H357H317.9L315.5 375.5Z" fill="black"/>
<path d="M97.5 325.5C95.6 327.3 95 329 95 332.1C95 336.1 95.5 336.8 105.2 346.6L115.4 357L105.2 367.4C95.5 377.2 95 377.9 95 381.9C95 387.7 98.3 391 104.1 391C108.1 391 108.8 390.5 118.6 380.8L129 370.6L139.4 380.8C149.2 390.5 149.9 391 153.9 391C157 391 158.7 390.4 160.5 388.5C162.4 386.7 163 385 163 381.9C163 377.9 162.5 377.2 152.8 367.4L142.6 357L152.8 346.6C162.5 336.8 163 336.1 163 332.1C163 326.3 159.7 323 153.9 323C149.9 323 149.2 323.5 139.4 333.2L129 343.4L118.6 333.2C108.8 323.5 108.1 323 104.1 323C101 323 99.3 323.6 97.5 325.5Z" fill="black"/>
</svg>
