<svg width="512" height="512" viewBox="0 0 512 512" fill="none" xmlns="http://www.w3.org/2000/svg">
<path d="M128.6 7.60081L126 10.3008V45.0008V79.7008L128.6 82.4008L131.3 85.0008H157.7H184.1L183.5 88.2008C182.8 92.2008 166 210.101 166 211.101C166 211.501 162.5 214.401 158.3 217.601C121.9 244.901 98.1002 290.101 96.3002 335.001L95.7002 349.501L98.5002 352.301L101.3 355.001H173.6H246V428.401V501.701L248.6 504.401C252.4 508.101 259.6 508.101 263.4 504.401L266 501.701V428.401V355.001H338.4H410.7L413.5 352.201L416.3 349.501L415.7 335.001C413.9 290.101 390.1 244.901 353.8 217.601C349.5 214.401 346 211.501 346 211.101C346 210.101 329.2 92.2008 328.5 88.2008L327.9 85.0008H354.3H380.7L383.4 82.4008L386 79.7008V45.0008V10.3008L383.4 7.60081L380.7 5.00081H256H131.3L128.6 7.60081ZM366 45.0008V65.0008H256H146V45.0008V25.0008H256H366V45.0008ZM307 85.8008C307 86.2008 310.6 111.801 315 142.501C319.4 173.201 323 198.501 323 198.601C323 198.601 318.8 197.201 313.8 195.201C293.8 187.801 278.3 185.001 256 185.001C233.7 185.001 218.2 187.801 198.3 195.201C193.2 197.201 189 198.601 189 198.601C189 198.501 192.6 173.201 197 142.501C201.4 111.801 205 86.2008 205 85.8008C205 85.4008 228 85.0008 256 85.0008C284.1 85.0008 307 85.4008 307 85.8008ZM278.2 207.501C315.9 213.101 350.7 235.901 372.7 269.201C380.1 280.401 384.6 289.901 388.9 303.301C391.6 311.901 395 328.301 395 333.201C395 334.901 387.7 335.001 256 335.001C124.3 335.001 117 334.901 117 333.201C117 332.301 117.7 327.301 118.5 322.201C124.6 284.601 147 250.201 179.5 228.801C209 209.301 242.1 202.101 278.2 207.501Z" fill="black"/>
</svg>
