<svg width="512" height="512" viewBox="0 0 512 512" fill="none" xmlns="http://www.w3.org/2000/svg">
<path d="M326.5 5.60072C290.6 10.8007 258.4 26.7007 233.6 51.6007C211.6 73.6007 196.9 100.601 189.8 132.201C187.8 141.301 187.5 145.101 187.5 165.001V187.501H165C145.1 187.501 141.3 187.801 132.2 189.801C68.6 204.001 22 250.601 7.8 314.201C5.8 323.301 5.5 327.101 5.5 347.001C5.5 366.901 5.8 370.701 7.8 379.801C21.9 442.701 67.3 488.701 130 503.701C145.6 507.401 174.5 508.101 191.7 505.201C257.1 494.001 307.5 445.601 322.2 379.801C324.2 370.701 324.5 366.901 324.5 347.001V324.401L343 324.801C358.4 325.201 363.5 324.901 373.7 323.101C439.1 312.001 489.5 263.601 504.2 197.801C506.2 188.701 506.5 184.901 506.5 165.001C506.5 145.101 506.2 141.301 504.2 132.201C490.1 69.3007 444.7 23.3007 382 8.30072C372.9 6.10072 368.8 5.80072 350.5 5.50072C339 5.30072 328.2 5.40072 326.5 5.60072ZM369.2 27.5007C406.6 33.1007 441.7 55.9007 463.2 88.5007C478.7 112.001 486 136.401 486 165.001C486 193.601 478.7 218.101 463.2 241.501C437.2 280.901 394.4 304.101 347.4 304.101C340.6 304.101 331.5 303.601 327.1 303.001L319.2 301.801L316 292.601C311.8 280.501 303.4 264.601 295.5 253.501C291.9 248.501 289 244.201 289 243.801C289 243.401 291.4 241.301 294.3 239.201C310.6 227.301 327 221.901 347 221.901C369.5 221.901 389.3 229.501 406.3 244.701C411.7 249.501 412.7 250.001 417 250.001C423.7 250.001 427 246.601 427 239.901C427 235.501 426.6 234.701 422.3 230.401C408.1 216.601 387.7 206.301 367.3 202.401C355.1 200.101 330.8 200.901 319.6 203.901C304.8 207.901 290.4 215.001 279.1 224.101L273.4 228.701L268.6 224.301C257.2 214.001 236.1 201.901 219.3 196.001L210.3 192.901L209.2 185.201C207.5 174.501 207.7 153.301 209.5 142.201C215.7 104.301 238 70.2007 271.2 48.3007C300.1 29.2007 333.3 22.2007 369.2 27.5007ZM187.2 209.501C224.9 215.101 259.7 237.901 281.7 271.201C296.8 294.201 304 318.501 304 347.001C304 375.601 296.7 400.101 281.2 423.501C263.3 450.501 237.7 470.001 206.6 479.901C180.6 488.301 149.5 488.201 123.3 479.901C73.3 464.001 35.8 420.801 27.5 369.801C25.6 357.901 25.6 336.101 27.5 324.201C33.6 286.601 56 252.201 88.5 230.801C118 211.301 151.1 204.101 187.2 209.501Z" fill="white"/>
<path d="M259.6 107.6C257.5 109.7 257 111.2 257 115C257 119.3 257.4 120.2 261.2 123.8C270.5 132.9 285.8 137.5 299.3 135.2C308 133.7 317.2 129.3 322.8 123.8C326.6 120.2 327 119.3 327 115C327 111.2 326.5 109.7 324.4 107.6C320.5 103.8 313.8 103.9 309 107.9C302.7 113 299 114.4 292 114.4C285 114.4 281.3 113 275 107.9C270.2 103.9 263.5 103.8 259.6 107.6Z" fill="white"/>
<path d="M369.6 107.6C367.5 109.7 367 111.2 367 115C367 119.3 367.4 120.2 371.2 123.8C380.5 132.9 395.8 137.5 409.3 135.2C418 133.7 427.2 129.3 432.8 123.8C436.6 120.2 437 119.3 437 115C437 111.2 436.5 109.7 434.4 107.6C430.5 103.8 423.8 103.9 419 107.9C412.7 113 409 114.4 402 114.4C395 114.4 391.3 113 385 107.9C380.2 103.9 373.5 103.8 369.6 107.6Z" fill="white"/>
<path d="M95.5 288.802C87.7 291.702 84.3 293.702 79.5 298.402C75.4 302.302 75 303.102 75 307.402C75 311.002 75.5 312.602 77.4 314.502C82.1 319.202 87.2 319.002 93.6 313.902C99.1 309.502 103.4 308.002 110 308.002C116.6 308.002 120.9 309.502 126.4 313.902C132.8 319.002 137.9 319.202 142.6 314.502C144.5 312.602 145 311.002 145 307.402C145 303.102 144.6 302.302 140.4 298.202C137.8 295.802 132.7 292.402 129.1 290.602C123.2 287.802 121.4 287.502 111.5 287.302C102.7 287.002 99.5 287.302 95.5 288.802Z" fill="white"/>
<path d="M205.5 288.802C197.7 291.702 194.3 293.702 189.5 298.402C185.4 302.302 185 303.102 185 307.402C185 311.002 185.5 312.602 187.4 314.502C192.1 319.202 197.2 319.002 203.6 313.902C209.1 309.502 213.4 308.002 220 308.002C226.6 308.002 230.9 309.502 236.4 313.902C242.8 319.002 247.9 319.202 252.6 314.502C254.5 312.602 255 311.002 255 307.402C255 303.102 254.6 302.302 250.4 298.202C247.8 295.802 242.7 292.402 239.1 290.602C233.2 287.802 231.4 287.502 221.5 287.302C212.7 287.002 209.5 287.302 205.5 288.802Z" fill="white"/>
<path d="M87.6 385.602C85.5 387.802 85 389.202 85 393.102C85 397.502 85.4 398.302 89.8 402.602C103.7 416.202 124.2 426.702 144 430.402C154.7 432.502 175.3 432.502 186 430.402C205.8 426.702 226.3 416.202 240.3 402.602C244.6 398.302 245 397.502 245 393.102C245 386.402 241.7 383.002 235 383.002C230.8 383.002 229.7 383.502 224.4 388.202C206.8 403.602 187.4 411.102 165.2 411.102C142.5 411.102 122.7 403.502 105.7 388.302C100.3 383.502 99.3 383.002 95 383.002C91.2 383.002 89.7 383.502 87.6 385.602Z" fill="white"/>
</svg>
