<svg width="518" height="512" viewBox="0 0 518 512" fill="none" xmlns="http://www.w3.org/2000/svg">
<path d="M483.56 206.505H475.71V185.145C475.694 173.306 470.984 161.955 462.612 153.584C454.24 145.212 442.89 140.501 431.05 140.485H419.91C417.31 130.838 411.293 122.464 402.98 116.922C394.667 111.379 384.623 109.046 374.718 110.356C364.813 111.665 355.721 116.529 349.134 124.042C342.547 131.554 338.914 141.204 338.91 151.195V219.395H179.09V151.195C179.086 141.204 175.453 131.554 168.866 124.042C162.279 116.529 153.187 111.665 143.282 110.356C133.377 109.046 123.333 111.379 115.02 116.922C106.707 122.464 100.69 130.838 98.09 140.485H87C75.1516 140.488 63.7886 145.193 55.4058 153.566C47.0231 161.939 42.3059 173.297 42.29 185.145V206.505H34.44C26.0971 206.513 18.0988 209.834 12.2032 215.737C6.30764 221.64 2.99735 229.642 3 237.985V273.595C3.02117 281.923 6.34197 289.902 12.235 295.786C18.128 301.669 26.1127 304.977 34.44 304.985H42.29V326.455C42.3033 338.305 47.0196 349.664 55.4029 358.038C63.7862 366.412 75.1508 371.115 87 371.115H98.09C100.69 380.762 106.707 389.136 115.02 394.679C123.333 400.221 133.377 402.555 143.282 401.245C153.187 399.935 162.279 395.072 168.866 387.559C175.453 380.047 179.086 370.397 179.09 360.405V292.215H338.91V360.405C338.914 370.397 342.547 380.047 349.134 387.559C355.721 395.072 364.813 399.935 374.718 401.245C384.623 402.555 394.667 400.221 402.98 394.679C411.293 389.136 417.31 380.762 419.91 371.115H431.05C442.89 371.102 454.242 366.393 462.615 358.02C470.987 349.648 475.697 338.296 475.71 326.455V304.985H483.56C491.893 304.975 499.883 301.66 505.776 295.769C511.67 289.877 514.987 281.889 515 273.555V237.985C515.003 229.642 511.692 221.64 505.797 215.737C499.901 209.834 491.903 206.513 483.56 206.505ZM42.29 289.985H34.44C30.084 289.977 25.9085 288.244 22.8274 285.165C19.7464 282.086 18.0106 277.911 18 273.555V237.985C18.0053 233.627 19.7391 229.448 22.821 226.366C25.903 223.284 30.0815 221.551 34.44 221.545H42.29V289.985ZM96.67 209.085V356.085H87C79.1361 356.077 71.5966 352.95 66.036 347.389C60.4754 341.829 57.3479 334.289 57.34 326.425V185.145C57.3506 177.282 60.4789 169.744 66.0389 164.184C71.5989 158.624 79.1369 155.496 87 155.485H96.72L96.67 209.085ZM164.09 360.405C164.09 367.357 161.329 374.023 156.413 378.939C151.498 383.854 144.831 386.615 137.88 386.615C130.929 386.615 124.262 383.854 119.347 378.939C114.431 374.023 111.67 367.357 111.67 360.405V151.195C111.67 144.244 114.431 137.577 119.347 132.662C124.262 127.747 130.929 124.985 137.88 124.985C144.831 124.985 151.498 127.747 156.413 132.662C161.329 137.577 164.09 144.244 164.09 151.195V360.405ZM338.91 277.215H179.09V234.395H338.91V277.215ZM406.33 360.405C406.33 367.357 403.569 374.023 398.653 378.939C393.738 383.854 387.071 386.615 380.12 386.615C373.169 386.615 366.502 383.854 361.587 378.939C356.671 374.023 353.91 367.357 353.91 360.405V151.195C353.91 144.244 356.671 137.577 361.587 132.662C366.502 127.747 373.169 124.985 380.12 124.985C387.071 124.985 393.738 127.747 398.653 132.662C403.569 137.577 406.33 144.244 406.33 151.195V360.405ZM460.71 326.455C460.702 334.319 457.575 341.859 452.014 347.419C446.453 352.98 438.914 356.107 431.05 356.115H421.33V155.485H431.05C438.913 155.496 446.451 158.624 452.011 164.184C457.571 169.744 460.699 177.282 460.71 185.145V326.455ZM500 273.555C499.989 277.911 498.254 282.086 495.173 285.165C492.091 288.244 487.916 289.977 483.56 289.985H475.71V221.505H483.56C485.722 221.508 487.861 221.936 489.857 222.766C491.853 223.596 493.667 224.81 495.193 226.341C496.72 227.871 497.93 229.687 498.755 231.685C499.579 233.683 500.003 235.824 500 237.985V273.555Z" fill="black" stroke="black" stroke-width="5" stroke-miterlimit="10"/>
</svg>
