<svg width="512" height="512" viewBox="0 0 512 512" fill="none" xmlns="http://www.w3.org/2000/svg">
<g clip-path="url(#clip0_204_617)">
<path d="M223.483 234.026L141.681 315.607C141.091 316.193 140.623 316.889 140.304 317.656C139.985 318.422 139.821 319.244 139.821 320.075V485.746C139.819 487.382 140.454 488.954 141.592 490.132C142.777 491.255 144.352 491.876 145.986 491.866H267.461C269.139 491.865 270.749 491.2 271.937 490.016L272.059 489.894L272.182 489.772C273.368 488.586 274.035 486.98 274.035 485.304V446.853C274.035 401.024 274.103 400.276 278.6 391.708C281.669 385.825 286.297 380.896 291.979 377.455C297.661 374.015 304.179 372.196 310.825 372.196C317.47 372.196 323.989 374.015 329.671 377.455C335.353 380.896 339.98 385.825 343.05 391.708C347.546 400.276 347.614 401.024 347.614 446.853V485.304C347.615 486.98 348.281 488.586 349.468 489.772L349.59 489.894L349.713 490.016C350.9 491.2 352.51 491.865 354.189 491.866H475.697C477.336 491.867 478.912 491.233 480.091 490.098C481.209 488.924 481.831 487.366 481.829 485.746V320.075C481.829 319.244 481.664 318.422 481.345 317.656C481.026 316.889 480.558 316.193 479.969 315.607L398.166 234.026L316.425 152.384C315.838 151.795 315.141 151.328 314.372 151.01C313.604 150.691 312.781 150.527 311.949 150.527H309.701C308.869 150.527 308.045 150.691 307.277 151.01C306.509 151.328 305.811 151.795 305.225 152.384L223.483 234.026ZM389.65 246.537L466.35 323.087C467.536 324.272 468.202 325.879 468.203 327.554V471.943C468.203 473.62 467.535 475.229 466.347 476.415C465.159 477.6 463.547 478.267 461.867 478.267H368.278C366.606 478.269 365.001 477.609 363.815 476.433C362.629 475.257 361.958 473.66 361.949 471.991L361.717 439.305C361.445 395.72 361.513 396.4 356.403 386.065C337.872 348.599 283.437 348.599 265.178 386.133C260.137 396.468 260.205 395.788 259.932 439.305L259.728 471.991C259.719 473.66 259.048 475.257 257.862 476.433C256.676 477.609 255.071 478.269 253.399 478.267H159.783C158.102 478.267 156.491 477.6 155.302 476.415C154.114 475.229 153.447 473.62 153.447 471.943V327.554C153.447 325.879 154.113 324.272 155.3 323.087L231.931 246.605C275.125 203.496 310.62 168.206 310.825 168.206C311.029 168.206 346.524 203.496 389.65 246.537Z" fill="black" stroke="black" stroke-width="7"/>
<path d="M245.5 141.994C245.5 206.037 193.476 257.988 129.259 257.988C65.0423 257.988 13.0178 206.037 13.0178 141.994C13.0178 77.9508 65.0423 26 129.259 26C193.476 26 245.5 77.9508 245.5 141.994Z" stroke="black" stroke-width="20"/>
</g>
<path d="M159.335 84.8742C158.229 85.8321 141.129 108.629 121.413 135.449C87.1114 182.096 85.502 184.49 85.502 188.609C85.502 194.739 89.0226 197.996 95.4604 197.996C98.6793 197.996 100.892 197.421 102.2 196.176C103.306 195.218 120.407 172.422 140.123 145.602C174.424 98.9546 176.033 96.56 176.033 92.4412C176.033 86.311 172.513 83.0543 166.075 83.0543C162.856 83.0543 160.643 83.629 159.335 84.8742Z" fill="black"/>
<path d="M79.9696 93.2093C71.8217 97.2323 67.4963 104.225 67.3958 113.133C67.3958 129.703 84.6973 139.761 100.389 132.29C107.733 128.841 111.756 123.094 112.36 115.144C113.567 100.968 104.514 91.7725 89.5257 91.6767C85.5021 91.6767 81.7802 92.2515 79.9696 93.2093ZM94.5552 109.11C95.6617 110.259 96.567 111.983 96.567 112.941C96.567 115.144 92.2416 119.454 90.0286 119.454C87.715 119.454 83.4902 115.144 83.4902 112.749C83.4902 110.067 87.0109 107.002 90.0286 107.002C91.3363 107.002 93.3481 107.96 94.5552 109.11Z" fill="black"/>
<path d="M158.43 151.638C150.383 155.565 145.957 162.653 145.856 171.465C145.856 178.362 147.566 182.289 152.495 186.886C162.554 196.178 179.655 194.262 187.199 182.768C189.714 179.128 190.116 177.5 190.116 172.04C190.116 168.496 189.613 164.377 189.01 162.844C187.501 159.013 182.27 154.032 177.542 151.925C172.513 149.722 162.655 149.53 158.43 151.638ZM172.211 167.059C174.424 168.975 174.625 173.381 172.412 175.392C168.892 178.84 161.951 176.063 161.951 171.369C161.951 166.197 168.188 163.611 172.211 167.059Z" fill="black"/>
<defs>
<clipPath id="clip0_204_617">
<rect width="511" height="479.882" fill="white" transform="translate(0 16)"/>
</clipPath>
</defs>
</svg>
