<svg width="512" height="512" viewBox="0 0 512 512" fill="none" xmlns="http://www.w3.org/2000/svg">
<path d="M42.6999 7.59999C41.0999 9.19999 39.8999 11.8 39.4999 14.3C39.1999 16.6 38.9999 105.6 39.1999 212C39.4999 378.5 39.6999 405.8 40.8999 407.7C41.6999 408.9 53.8999 416.3 67.8999 424.3C81.9999 432.2 120.6 454.1 153.8 472.9C207.2 503.1 214.6 507 218.4 507C223.5 507 227.4 503.8 228.4 498.9C228.7 497.1 229 476.9 229 453.9V412H288.4H347.7L350.2 409.5C351.6 408.1 353 405.6 353.4 403.9C353.7 402.1 354 359.9 354 309.9V219H395.2H436.4L416.2 239.3C396.5 259.1 396 259.7 396 263.7C396 271.6 403.3 276.6 410.3 273.6C415 271.6 470.8 215.2 471.8 211.5C473.5 205.4 472.1 203.6 441 172.5L411 142.5H406.4C402.5 142.5 401.4 143 398.9 145.8C396.7 148.3 396 150 396 153.2C396 157.3 396.4 157.8 416.2 177.7L436.4 198H395.2H354V107.1C354 57.1 353.7 14.9 353.4 13.1C353 11.4 351.6 8.89999 350.2 7.49999L347.7 4.99999H196.5H45.2999L42.6999 7.59999ZM333 111.5V198H310.9H288.8L285.9 200.9C282 204.8 281.8 211.5 285.4 215.7L287.8 218.5L310.4 218.8L333 219.1V305.1V391H281H229L228.8 248.7C228.5 126.5 228.3 106.2 227.1 104.3C226.3 103.1 196.3 85.6 160.6 65.4C124.8 45.1 94.1999 27.8 92.4999 26.8C89.5999 25.1 93.7999 25 211.3 25H333V111.5ZM139.8 78L208 116.5V297.8V479.1L202.2 475.8C199 474 165.7 455.2 128.2 434L59.9999 395.5V214.2V32.9L65.8999 36.2C69.0999 38 102.4 56.8 139.8 78Z" fill="black"/>
</svg>
