<svg width="512" height="512" viewBox="0 0 512 512" fill="none" xmlns="http://www.w3.org/2000/svg">
<path d="M29.5 24.9998C18.8 27.8998 8.2 36.2999 3.4 45.5999C1.6 49.1999 1.5 52.9998 1.5 143.5V237.7L3.7 242.1C6.8 248.4 17 257.5 23.8 260.3L29.4 262.6L29.7 297.2C30 331.7 30 331.9 32.3 335.2C38.2 343.4 50.5 343.5 57.2 335.5C58.4 334.1 71.5 317.6 86.3 298.9C106.5 273.2 140.8 249.998 143.5 248.698C148.2 246.398 150.3 243.398 150.3 238.598C150.3 232.898 146 228.898 140 228.898C130 228.898 101.8 244.7 71.5 283.1L51 309.1L50.5 278.8C50 248.6 50 248.6 47.6 246C46 244.3 43.7 243.3 40.6 242.9C34.3 242 29.2 239.7 25.6 236C19.2 229.4 19.5 233.6 19.5 144.1C19.5 85.8999 19.8 61.6998 20.6 59.2998C22.5 53.6998 26.5 49.2998 31.9 46.7998L37 44.3998H164C253.8 44.3998 292.2 44.6998 295 45.4998C297.5 46.1998 300.8 48.3998 303.6 51.2998C309.6 57.1998 310.5 61.3998 310.5 82.7998V129L313.3 131.7C319.2 137.4 329.3 134.2 330.9 126.3C331.8 121.4 331.6 67.6998 330.5 59.8998C328 42.1998 315 28.1998 297.7 24.4998C293.9 23.6998 254.8 23.3998 163.7 23.4998C53.7 23.4998 34.2 23.6998 29.5 24.9998Z" fill="black"/>
<path d="M169.5 124.4C157.7 128.1 147.2 136.6 141.8 146.6C136 157.4 136 155.9 136 258.7C136 323.7 136.3 354.5 137.1 358.2C140.1 372.5 149.5 384.5 162.9 390.9L170.5 394.5L276.9 394.8C359 395 383.7 395.3 384.8 396.3C385.6 396.9 401.2 416.3 419.4 439.4C448.5 476.2 453 481.6 456.9 483.3C462.4 485.7 468.7 484.9 473 481.3C479.1 476.2 479 476.8 479 433.5C479 402.1 479.3 394 480.3 394C481 394 484.8 392.4 488.8 390.5C497.1 386.5 504.3 379.9 508.9 371.9L512 366.5V258.9V151.4L508.4 145.4C506.5 142.2 503.7 138.2 502.2 136.7C498 132.2 489.9 127.3 483.2 125.1C477.1 123 476.4 123 325.3 123.1C205.5 123.1 172.7 123.4 169.5 124.4ZM479.9 146.7C485.4 149.4 490.4 155.1 492.7 161.3C493.5 163.7 493.9 189.3 493.9 259.1L494 353.7L491 359.7C486.8 368.1 478.6 374 471 374C466.6 374 461.4 376.4 459.8 379.2C458.8 380.9 458.4 390.1 458 417.4L457.5 453.3L430.3 418.9C415.4 400 401.9 383.2 400.3 381.6C398.8 380 395.5 377.8 393 376.6C388.5 374.5 387.6 374.5 281.5 374C184.2 373.5 174.2 373.3 171.5 371.8C167.2 369.4 162.2 364.2 159.7 359.6L157.5 355.5V259V162.5L159.7 158.4C162.6 152.9 167.5 148.1 172.5 145.9C176.3 144.1 183.4 144 325.6 144H474.6L479.9 146.7Z" fill="black"/>
<path d="M202.4 189.001C199.2 190.301 196 194.901 196 198.201C196 202.201 198.4 206.401 201.5 207.801C203.5 208.701 233.5 209.001 325.6 209.001C457.6 209.001 451.2 209.301 453.8 203.501C455.8 199.101 455.2 195.301 452.1 191.801L449.2 188.501L326.8 188.301C259.5 188.201 203.5 188.501 202.4 189.001Z" fill="black"/>
<path d="M199.3 248.4C196.9 250.5 196.5 251.6 196.5 256C196.5 260.4 196.9 261.5 199.3 263.6L202.1 266H325.6H449.2L452.1 263.1C456.2 259 456.2 253 452.1 248.9L449.2 246H325.6H202.1L199.3 248.4Z" fill="black"/>
<path d="M201.1 304.4C195.4 307.5 194.4 315.1 198.9 320.2L201.8 323.5H325.5H449.2L452.1 320.2C456.4 315.4 455.8 309 450.6 304.8C448.6 303.2 440.6 303 326 303.1C226.2 303.1 203.1 303.3 201.1 304.4Z" fill="black"/>
</svg>
