<svg width="512" height="512" viewBox="0 0 512 512" fill="none" xmlns="http://www.w3.org/2000/svg">
<path d="M12.3 35.6994C11.1 35.8994 9.00001 37.2994 7.60001 38.6994L5.00001 41.2994V228.899C5.00001 438.299 4.50001 422.199 12.2 437.999C15.6 444.699 18.2 448.299 25 455.099C34.1 464.299 40.6 468.499 52.2 472.799L59.5 475.499L259.5 475.799C400.9 475.999 461 475.699 464.8 474.899C482.5 471.299 498.4 456.599 504.7 438.099L506.9 431.499L507 281.399V131.299L504.5 128.799C503.1 127.399 500.3 125.999 498.2 125.599C496.2 125.299 477.1 124.999 455.8 124.999H417V83.0994V41.2994L414.5 38.7994C413.1 37.3994 410.6 35.9994 408.9 35.5994C405.4 34.8994 15.8 34.9994 12.3 35.6994ZM397 243.399C397 426.799 397 430.899 399 437.099C400 440.599 402.5 446.099 404.4 449.299L407.9 454.999L235.2 454.799L62.5 454.499L54.7 450.799C38.7 443.199 28 428.199 26 410.699C25.4 405.899 25 331.399 25 229.199V55.9994H211H397V243.399ZM486.8 286.699L486.5 427.499L484.2 433.299C481.3 440.399 473.5 448.599 466.5 452.099C462.3 454.099 460 454.499 452 454.499C444 454.499 441.7 454.099 437.5 452.099C430.5 448.599 422.7 440.399 419.8 433.299L417.5 427.499L417.2 286.699L416.9 145.999H452H487.1L486.8 286.699Z" fill="white"/>
<path d="M72.3 95.7C71.1 95.9 69 97.3 67.6 98.7L65 101.3V136V170.7L67.6 173.4L70.3 176H211H351.7L354.4 173.4L357 170.7V136V101.3L354.5 98.8C353.1 97.4 350.3 96 348.2 95.6C344.1 95 75.8 95 72.3 95.7ZM337 135.5V155H211H85V135.5V116H211H337V135.5Z" fill="white"/>
<path d="M72.3 215.7C71.1 215.9 69 217.3 67.6 218.7L65 221.3V256V290.7L67.6 293.4L70.3 296H120H169.7L172.4 293.4L175 290.7V256V221.3L172.5 218.8C171.1 217.4 168.6 216 166.9 215.6C163.5 214.9 75.8 215 72.3 215.7ZM155 255.5V275H120H85V255.5V236H120H155V255.5Z" fill="white"/>
<path d="M224.3 215.7C223.1 215.9 221 217.3 219.6 218.7C215.9 222.4 215.9 229.6 219.6 233.4L222.3 236H287H351.7L354.4 233.4C356.5 231.3 357 229.8 357 226C357 220.2 353.9 216.6 348.2 215.6C344.1 215 227.8 215 224.3 215.7Z" fill="white"/>
<path d="M224.3 275.7C223.1 275.9 221 277.3 219.6 278.7C215.9 282.4 215.9 289.6 219.6 293.4L222.3 296H287H351.7L354.4 293.4C356.5 291.3 357 289.8 357 286C357 280.2 353.9 276.6 348.2 275.6C344.1 275 227.8 275 224.3 275.7Z" fill="white"/>
<path d="M72.3 335.7C71.1 335.9 69 337.3 67.6 338.7C63.9 342.4 63.9 349.6 67.6 353.4L70.3 356H211H351.7L354.4 353.4C356.5 351.3 357 349.8 357 346C357 340.2 353.9 336.6 348.2 335.6C344.1 335 75.8 335 72.3 335.7Z" fill="white"/>
<path d="M72.3 395.7C71.1 395.9 69 397.3 67.6 398.7C63.9 402.4 63.9 409.6 67.6 413.4L70.3 416H211H351.7L354.4 413.4C356.5 411.3 357 409.8 357 406C357 400.2 353.9 396.6 348.2 395.6C344.1 395 75.8 395 72.3 395.7Z" fill="white"/>
</svg>
