<svg width="512" height="512" viewBox="0 0 512 512" fill="none" xmlns="http://www.w3.org/2000/svg">
<path d="M246 5.99843C224.6 9.19843 206.9 25.7984 202.5 46.6984C201.5 51.2984 201 60.0984 201 74.1984V94.7984L191.4 99.8984C156 118.498 130.7 149.998 120.5 188.098C117.3 200.298 116.2 210.898 115 244.998C113.6 285.298 110.1 312.798 103 339.698C94.0998 373.098 79.0998 400.998 64.4998 410.998C59.1998 414.698 57.2998 419.298 58.9998 424.398C61.1998 431.298 58.4998 430.998 124 430.998H183V434.898C183 441.598 185.9 455.898 188.6 462.298C197.3 483.098 216.2 499.598 237.6 504.998C248.1 507.698 263.9 507.698 274.4 504.998C295.9 499.498 315 482.798 323.4 461.998C326.2 455.198 329 441.498 329 434.898V430.998H388C453.5 430.998 450.8 431.298 453 424.398C454.7 419.298 452.8 414.698 447.5 410.998C432.8 400.898 417.9 373.298 409 339.598C401.9 312.798 398.4 285.198 397 244.998C395.8 210.898 394.7 200.298 391.5 188.098C381.3 150.098 355.9 118.498 320.6 99.8984L311 94.7984V74.1984C311 50.1984 309.9 43.3984 304.4 32.9984C300.4 25.1984 290.8 15.4984 283.8 11.8984C273.1 6.39843 258.4 4.09843 246 5.99843ZM269.2 28.4984C275.7 30.7984 283.3 37.7984 286.7 44.7984C289.4 50.2984 289.5 51.0984 289.8 69.3984L290.2 88.2984L287.8 87.6984C271.3 83.4984 240.7 83.4984 224.2 87.6984L221.8 88.2984L222.2 69.3984C222.5 52.6984 222.8 49.8984 224.7 45.8984C227.1 40.4984 232.8 33.8984 237.4 30.9984C245.6 25.9984 258.9 24.9984 269.2 28.4984ZM279.1 107.498C301.9 112.198 321 122.298 337.9 138.398C358.1 157.798 371 182.898 374 208.798C374.5 213.598 375.4 230.298 376 245.998C377.5 287.198 380.7 313.498 387.7 341.398C393.9 366.198 402.5 387.698 412.4 402.898L417 409.998H256H94.9998L99.5998 402.898C121.5 369.198 133.5 317.198 136 245.998C136.6 230.298 137.5 213.598 138 208.798C142.1 173.098 165.6 138.498 198.4 120.298C211 113.198 227.5 107.798 242 105.998C250.8 104.798 270.1 105.598 279.1 107.498ZM308 434.298C308 445.598 302.2 460.198 294.3 468.998C273.8 491.798 238.3 491.898 218 469.298C209.6 459.998 204.1 446.198 204 434.698V430.998H256H308V434.298Z" fill="black"/>
</svg>
