<svg width="512" height="512" viewBox="0 0 512 512" fill="none" xmlns="http://www.w3.org/2000/svg">
<path d="M241 47.9C232 50.8 226.9 53.9 220.5 60.4C215.5 65.5 198.6 92.5 115 229C60.3001 318.4 14.5001 394.2 13.1001 397.5C9.50008 406.1 9.00008 421.2 11.8001 430.7C16.7001 446.7 29.0001 459.1 44.8001 464C51.1001 466 54.5001 466 256 466C457.5 466 460.9 466 467.2 464C483 459.1 495.3 446.7 500.2 430.7C503 421.2 502.5 406.1 498.9 397.5C497.5 394.2 451.7 318.4 397 229C313.4 92.4 296.5 65.5 291.5 60.4C281.6 50.3 270.7 46 255.6 46.1C249.7 46.1 244.5 46.7 241 47.9ZM266.2 68.7C269 69.5 272.9 71.9 275.4 74.3C278.8 77.5 304.5 118.8 379.3 241C434 330.4 479.3 405.2 480 407.3C481.8 413.1 480.9 423.6 478 429.4C475 435.3 468.5 441.2 462.2 443.7C457.7 445.4 448.5 445.5 260.5 445.8C137.7 446 61.1001 445.7 57.2001 445.1C41.1001 442.6 31.0001 431.4 31.0001 416C31.0001 412.9 31.5001 408.8 32.2001 406.9C33.8001 402 231.6 79.2 235.3 75.2C239 71.4 245.1 68.3 251.1 67.1C256.1 66.2 259.4 66.5 266.2 68.7Z" fill="white"/>
<path d="M246 236V316H256H266V236V156H256H246V236Z" fill="white"/>
<path d="M245.3 358.6C239.1 362.3 236 368.1 236 376C236 381 236.5 383.3 238.5 386.6C242.2 392.9 248 396 256 396C268.3 396 276 388.3 276 376C276 363.7 268.3 356 255.9 356C250.8 356 248.6 356.5 245.3 358.6Z" fill="white"/>
</svg>
