<svg width="512" height="512" viewBox="0 0 512 512" fill="none" xmlns="http://www.w3.org/2000/svg">
<path d="M157.8 138.9C136.4 145.8 123 164.3 123 187C123 215.7 144.3 237 173 237C201.7 237 223 215.7 223 187C223 163.8 209.2 145.2 187.1 138.6C179.6 136.4 165.2 136.6 157.8 138.9ZM183.6 159.7C190.4 162 198.1 169.9 200.5 176.9C202.9 184.1 202.3 193.9 199 200.4C193.7 210.8 183.4 216.5 171.2 215.8C151.3 214.7 139.1 195.7 145.7 176.4C147.8 170.1 155.9 161.9 162 159.7C168 157.6 177.5 157.6 183.6 159.7Z" fill="white"/>
<path d="M322.8 278.9C301.4 285.8 288 304.3 288 327C288 355.7 309.3 377 338 377C366.7 377 388 355.7 388 327C388 303.8 374.2 285.2 352.1 278.6C344.6 276.4 330.2 276.6 322.8 278.9ZM348.6 299.7C355.4 302 363.1 309.9 365.5 316.9C367.9 324.1 367.3 333.9 364 340.4C358.7 350.8 348.4 356.5 336.2 355.8C316.3 354.7 304.1 335.7 310.7 316.4C312.8 310.1 320.9 301.9 327 299.7C333 297.6 342.5 297.6 348.6 299.7Z" fill="white"/>
<path d="M187.3 11.9005C180.9 14.1005 174.8 18.2005 170.6 23.1005C168.9 25.2005 163.7 34.1005 159 43.1005C152.6 55.2005 149.5 60.1005 146.7 62.4005L142.8 65.5005H118.7H94.4999L87.9999 68.6005C79.6999 72.5005 72.4999 79.7005 68.5999 88.0005L65.4999 94.5005V118.701V142.801L62.3999 146.701C60.0999 149.501 55.1999 152.701 42.8999 159.101C23.6999 169.201 18.3999 173.501 13.7999 182.701C10.9999 188.401 10.4999 190.601 10.1999 198.501C9.69993 210.501 10.9999 214.601 20.6999 229.701C38.2999 257.201 38.2999 254.801 20.6999 282.301C10.9999 297.401 9.69993 301.501 10.1999 313.501C10.4999 321.401 10.9999 323.601 13.7999 329.301C18.3999 338.501 23.6999 342.801 42.8999 352.901C55.1999 359.301 60.0999 362.501 62.3999 365.301L65.4999 369.201V393.301V417.501L68.5999 424.001C72.4999 432.301 79.6999 439.501 87.9999 443.401L94.4999 446.501H118.7H142.8L146.7 449.601C149.6 451.901 152.6 456.601 159 469.101C172 494.201 180.1 500.901 198.1 501.801C209.9 502.401 215.1 500.701 229.5 491.401C247.9 479.601 251.1 478.001 255.9 478.001C261 478.001 263.7 479.401 280.9 490.401C297 500.701 301.8 502.401 314 501.801C321.3 501.501 323.8 500.901 329.3 498.201C338.5 493.601 343 488.101 353 469.001C359.4 456.701 362.5 451.901 365.3 449.601L369.2 446.501H393.3H417.5L424 443.401C432.3 439.501 439.5 432.301 443.4 424.001L446.5 417.501V393.301V369.201L449.6 365.301C451.9 362.401 456.6 359.401 469.1 353.001C494.2 340.001 500.9 331.901 501.8 313.901C502.4 302.101 500.7 296.901 491.4 282.501C473.7 254.701 473.7 257.301 491.4 229.501C500.7 215.001 502.4 209.901 501.8 198.001C501.5 190.701 500.9 188.201 498.2 182.701C493.6 173.501 488.1 169.001 469 159.001C456.7 152.601 451.9 149.501 449.6 146.701L446.5 142.801V118.701V94.5005L443.4 88.0005C439.5 79.7005 432.3 72.5005 424 68.6005L417.5 65.5005H393.3H369.2L365.3 62.4005C362.5 60.1005 359.4 55.3005 353 43.0005C343 23.9005 338.5 18.4005 329.3 13.8005C323.8 11.1005 321.3 10.5005 314 10.2005C301.8 9.60053 297 11.3005 280.9 21.6005C263.8 32.6005 261 34.0005 256 34.0005C251.1 34.0005 249.3 33.1005 232 22.1005C224.6 17.4005 216.3 12.8005 213.5 11.8005C206.8 9.50053 194.1 9.50053 187.3 11.9005ZM222.2 41.1005C242.1 53.9005 243.3 54.4005 256 54.4005C268.7 54.4005 269.9 53.9005 289.9 41.1005C304.9 31.4005 309.1 29.8005 315.5 31.2005C322.6 32.8005 325.1 35.7005 334.1 53.0005C344.1 72.3005 349.1 78.5005 358.8 83.2005L365.5 86.5005H389.6C413.4 86.5005 413.7 86.5005 417.2 88.9005C419.1 90.2005 421.8 92.9005 423.1 94.8005C425.5 98.3005 425.5 98.6005 425.5 122.401V146.501L428.7 153.101C433.5 162.801 438.9 167.201 458.3 177.501C479 188.401 480.5 190.001 480.5 200.401V207.501L471.1 221.901C458.1 242.101 457.6 243.201 457.6 256.001C457.6 268.801 458.1 269.901 471.1 290.101L480.5 304.501V311.601C480.5 322.001 479 323.601 458.3 334.501C438.9 344.801 433.5 349.201 428.7 358.901L425.5 365.501L425.4 388.001C425.4 400.401 425.3 411.501 425.2 412.701C425 415.201 419 422.301 415.6 424.301C414.1 425.101 406.3 425.501 389.5 425.501H365.5L358.8 428.801C349.1 433.501 344.1 439.701 334.1 459.001C325.1 476.301 322.5 479.301 315.4 480.801C309.1 482.201 304.8 480.501 289.8 470.901C269.9 458.101 268.7 457.601 256 457.601C243.3 457.601 242.1 458.101 222.1 470.901C207.1 480.601 202.9 482.201 196.5 480.801C189.4 479.201 186.9 476.301 177.9 459.001C167.9 439.701 162.9 433.501 153.2 428.801L146.5 425.501H122.5C105.7 425.501 97.8999 425.101 96.3999 424.301C93.3999 422.501 86.9999 415.301 86.7999 413.201C86.6999 412.301 86.5999 401.101 86.5999 388.501L86.4999 365.501L83.1999 358.801C78.4999 349.101 72.2999 344.101 52.9999 334.101C33.0999 323.701 31.4999 322.001 31.4999 311.601V304.501L40.8999 290.101C53.8999 269.901 54.3999 268.801 54.3999 256.001C54.3999 243.201 53.8999 242.101 40.8999 221.901L31.4999 207.501V200.401C31.4999 190.001 33.0999 188.301 52.9999 177.901C72.2999 167.901 78.4999 162.901 83.1999 153.201L86.4999 146.501V122.401C86.4999 98.6005 86.4999 98.3005 88.8999 94.8005C90.1999 92.9005 92.8999 90.2005 94.7999 88.9005C98.2999 86.5005 98.5999 86.5005 122.4 86.5005H146.5L153.2 83.2005C162.9 78.5005 167.9 72.3005 177.9 53.0005C186.9 35.7005 189.5 32.7005 196.6 31.2005C202.9 29.8005 207.2 31.5005 222.2 41.1005Z" fill="white"/>
<line x1="329.012" y1="148.359" x2="175.522" y2="373.893" stroke="white" stroke-width="20"/>
</svg>
