<svg width="512" height="512" viewBox="0 0 512 512" fill="none" xmlns="http://www.w3.org/2000/svg">
<path d="M256 165.122C261.534 165.122 266.02 160.636 266.02 155.102C266.02 149.568 261.534 145.082 256 145.082C250.466 145.082 245.98 149.568 245.98 155.102C245.98 160.636 250.466 165.122 256 165.122Z" fill="black"/>
<path d="M466.208 180.422C462.149 176.66 455.809 176.899 452.049 180.959L391.656 246.119H339.067V178.07L387.932 116.988C391.577 118.432 395.544 119.235 399.697 119.235C417.366 119.235 431.741 104.86 431.741 87.1924C431.741 69.5234 417.366 55.1484 399.697 55.1484C382.029 55.1484 367.654 69.5234 367.654 87.1924C367.654 93.4204 369.446 99.2344 372.533 104.158L321.224 168.295C319.802 170.072 319.028 172.279 319.028 174.554V246.118H266.02V200.056C266.02 194.523 261.534 190.036 256 190.036C250.466 190.036 245.98 194.522 245.98 200.056V246.118H192.238V98.9404C192.238 93.4074 187.752 88.9204 182.218 88.9204H123.964V76.9164C123.964 71.3834 119.478 66.8964 113.944 66.8964H69.896C64.363 66.8964 59.876 71.3824 59.876 76.9164V120.964C59.876 126.497 64.362 130.984 69.896 130.984H113.945C119.478 130.984 123.965 126.498 123.965 120.964V108.96H172.2V246.119H120.345L59.952 180.959C56.19 176.9 49.851 176.661 45.793 180.422C41.735 184.183 41.494 190.523 45.256 194.581L105.952 260.068V501.98C105.952 507.513 110.438 512 115.972 512H396.03C401.563 512 406.05 507.514 406.05 501.98V260.068L466.746 194.581C470.508 190.523 470.267 184.183 466.208 180.422V180.422ZM399.697 75.1884C406.316 75.1884 411.702 80.5744 411.702 87.1934C411.702 93.8124 406.316 99.1974 399.697 99.1974C393.078 99.1974 387.693 93.8124 387.693 87.1934C387.693 80.5734 393.077 75.1884 399.697 75.1884ZM103.926 110.944H79.916V86.9354H103.926V110.944ZM386.011 491.961H125.989V266.159H386.011V491.961Z" fill="black"/>
<path d="M245.98 62.474V110.048C245.98 115.581 250.466 120.068 256 120.068C261.534 120.068 266.02 115.582 266.02 110.048V62.474C278.795 58.257 288.044 46.213 288.044 32.044C288.044 14.375 273.669 0 256 0C238.331 0 223.956 14.375 223.956 32.044C223.956 46.214 233.205 58.257 245.98 62.474V62.474ZM256 20.039C262.619 20.039 268.005 25.425 268.005 32.044C268.005 38.663 262.619 44.048 256 44.048C249.381 44.048 243.995 38.663 243.995 32.044C243.995 25.425 249.381 20.039 256 20.039Z" fill="black"/>
<path d="M306.889 419.233C308.868 421.683 311.765 422.956 314.687 422.955C316.898 422.955 319.125 422.227 320.979 420.728L362.897 386.853C365.251 384.951 366.619 382.087 366.619 379.06C366.619 376.033 365.251 373.17 362.897 371.267L320.979 337.391C316.68 333.913 310.367 334.582 306.889 338.886C303.411 343.189 304.08 349.499 308.384 352.976L340.658 379.059L308.384 405.141C304.08 408.621 303.411 414.93 306.889 419.233V419.233Z" fill="black"/>
<path d="M149.103 386.855L191.021 420.73C192.875 422.229 195.1 422.957 197.313 422.957C200.235 422.957 203.132 421.685 205.111 419.235C208.589 414.932 207.92 408.622 203.616 405.145L171.342 379.063L203.616 352.98C207.92 349.503 208.59 343.193 205.111 338.89C201.634 334.586 195.323 333.916 191.021 337.395L149.103 371.271C146.749 373.173 145.381 376.037 145.381 379.064C145.381 382.091 146.749 384.952 149.103 386.855V386.855Z" fill="black"/>
<path d="M232.473 415.455C234.082 416.415 235.85 416.872 237.596 416.872C241.009 416.872 244.335 415.127 246.21 411.984L282.999 350.319C285.834 345.568 284.28 339.417 279.527 336.581C274.775 333.745 268.625 335.3 265.789 340.053L229 401.718C226.166 406.469 227.72 412.62 232.473 415.455V415.455Z" fill="black"/>
</svg>
