<svg width="512" height="512" viewBox="0 0 512 512" fill="none" xmlns="http://www.w3.org/2000/svg">
<path d="M228.376 293.909C228.391 295.232 228.14 296.544 227.64 297.768C227.14 298.993 226.401 300.105 225.465 301.04C224.533 301.975 223.423 302.715 222.201 303.215C220.978 303.72 219.664 303.967 218.342 303.94C217.017 303.933 215.707 303.655 214.493 303.124C213.266 302.594 212.159 301.82 211.239 300.848L173.399 263.051C172.476 262.128 171.743 261.033 171.243 259.828C170.474 258.007 170.268 255.998 170.652 254.059C171.037 252.121 171.993 250.341 173.399 248.951L211.209 211.154C213.051 209.38 215.512 208.39 218.07 208.395H218.181C220.109 208.425 221.986 209.017 223.584 210.096C225.182 211.175 226.431 212.696 227.178 214.473C227.926 216.25 228.14 218.206 227.795 220.102C227.449 221.999 226.559 223.754 225.233 225.153L194.455 256.001L225.314 286.849C226.269 287.764 227.032 288.86 227.56 290.072C228.087 291.284 228.364 292.588 228.376 293.909V293.909Z" fill="black"/>
<path d="M341.737 256C341.744 257.314 341.485 258.616 340.976 259.827C340.467 261.038 339.718 262.135 338.775 263.05L300.965 300.847C299.123 302.623 296.663 303.612 294.104 303.607H293.993C292.065 303.576 290.188 302.985 288.59 301.905C286.992 300.826 285.743 299.305 284.996 297.528C284.248 295.751 284.034 293.795 284.379 291.899C284.724 290.002 285.615 288.247 286.941 286.848L317.749 256L286.89 225.152C285.936 224.237 285.172 223.141 284.644 221.929C284.117 220.718 283.84 219.413 283.828 218.092C283.814 216.769 284.064 215.457 284.564 214.233C285.064 213.009 285.803 211.896 286.739 210.961C287.663 210.033 288.762 209.298 289.973 208.798C291.184 208.299 292.482 208.045 293.792 208.051H293.902C295.225 208.07 296.53 208.353 297.741 208.884C298.952 209.415 300.045 210.183 300.955 211.143L338.806 248.95C339.737 249.858 340.471 250.948 340.962 252.153C341.476 253.37 341.74 254.678 341.737 256V256Z" fill="black"/>
<path d="M395.707 116.443C394.773 115.49 393.659 114.733 392.429 114.214C391.199 113.695 389.879 113.426 388.544 113.422H123.66C120.972 113.424 118.396 114.493 116.496 116.392C114.596 118.292 113.527 120.867 113.524 123.553V170.163H39.183V56.5899L43.5252 54.0117C47.9469 51.5058 51.6255 47.8734 54.1862 43.4843C56.747 39.0952 58.0986 34.1061 58.1033 29.025C58.1019 25.2108 57.3473 21.4344 55.883 17.9122C54.4187 14.3901 52.2734 11.1915 49.57 8.49983C46.8849 5.79986 43.6898 3.66025 40.1703 2.20532C33.0505 -0.735107 25.0552 -0.735107 17.9354 2.20532C10.8212 5.15406 5.16856 10.8047 2.21879 17.9164C-0.488278 24.3996 -0.726437 31.6493 1.54931 38.2961C3.82506 44.9428 8.45713 50.5262 14.5704 53.9915L18.963 56.5899V180.345C18.963 183.021 20.0228 185.588 21.9107 187.484C23.7987 189.381 26.3611 190.453 29.0377 190.467H113.504V321.533H29.0579C27.7274 321.532 26.4097 321.793 25.1801 322.301C23.9505 322.809 22.8331 323.554 21.8918 324.494C20.9506 325.434 20.2038 326.551 19.6944 327.779C19.1849 329.008 18.9227 330.325 18.9227 331.655V455.41L14.6006 457.958C9.90055 460.644 6.04882 464.594 3.48358 469.36C0.91834 474.126 -0.257434 479.516 0.0900052 484.916C0.437444 490.317 2.29415 495.512 5.44892 499.91C8.60368 504.308 12.9299 507.733 17.9354 509.795C25.0552 512.735 33.0505 512.735 40.1703 509.795C43.6954 508.337 46.8986 506.199 49.597 503.503C52.2954 500.807 54.4361 497.606 55.8969 494.084C57.606 489.977 58.3407 485.53 58.0436 481.092C57.7464 476.654 56.4255 472.345 54.1842 468.503C51.6228 464.123 47.9446 460.502 43.5252 458.008L39.1527 455.41V341.787H113.494V388.396C113.497 390.403 114.095 392.363 115.212 394.03C116.329 395.697 117.916 396.996 119.771 397.762C120.995 398.267 122.305 398.527 123.629 398.528H388.544C391.231 398.525 393.808 397.457 395.708 395.557C397.608 393.658 398.677 391.082 398.679 388.396V123.604C398.682 122.273 398.42 120.955 397.91 119.726C397.4 118.497 396.651 117.381 395.707 116.443ZM378.419 378.295H133.785V133.725H378.419V378.295Z" fill="black"/>
<path d="M512 199.269V312.742C511.997 315.374 510.95 317.899 509.088 319.76C507.225 321.622 504.7 322.669 502.066 322.672H463.641L461.516 328.624C458.976 335.854 456.053 342.944 452.761 349.864L450.051 355.585L477.152 382.726C479.011 384.59 480.055 387.114 480.055 389.746C480.055 392.378 479.011 394.902 477.152 396.766L396.886 477.003C395.022 478.862 392.497 479.905 389.864 479.905C387.231 479.905 384.706 478.862 382.842 477.003L355.741 449.912L350.009 452.621C343.074 455.916 335.968 458.837 328.721 461.373L322.676 463.498V501.879C322.673 504.503 321.633 507.02 319.781 508.88C317.93 510.74 315.418 511.793 312.793 511.809H199.341C196.707 511.807 194.182 510.759 192.32 508.898C190.458 507.036 189.41 504.512 189.407 501.879V463.467L183.453 461.342C171.876 457.271 160.669 452.217 149.955 446.236C148.31 445.243 146.988 443.796 146.149 442.068C145.31 440.341 144.989 438.407 145.226 436.501C145.462 434.596 146.246 432.799 147.482 431.329C148.718 429.859 150.354 428.779 152.191 428.218C153.124 427.943 154.091 427.804 155.063 427.805C156.641 427.803 158.197 428.184 159.596 428.913C173.029 436.396 187.291 442.284 202.091 446.457C204.167 447.049 205.994 448.299 207.297 450.02C208.6 451.74 209.308 453.837 209.315 455.995V491.939H303.01V456.025C303.02 453.867 303.729 451.77 305.031 450.048C306.333 448.327 308.159 447.074 310.234 446.477C325.018 442.308 339.265 436.43 352.688 428.963C354.585 427.917 356.769 427.509 358.916 427.801C361.063 428.093 363.059 429.069 364.607 430.585L389.975 455.944L456.196 389.746L430.798 364.397C429.277 362.861 428.295 360.875 427.997 358.734C427.699 356.594 428.102 354.415 429.146 352.523C436.628 339.094 442.515 324.837 446.686 310.042C447.281 307.968 448.534 306.142 450.256 304.84C451.979 303.538 454.077 302.829 456.237 302.821H492.193V209.159H456.196C454.036 209.154 451.936 208.447 450.213 207.145C448.49 205.842 447.238 204.015 446.645 201.938C442.47 187.151 436.584 172.901 429.105 159.478C428.057 157.586 427.65 155.405 427.946 153.262C428.242 151.12 429.225 149.131 430.747 147.594L456.116 122.234L389.894 56.0564L364.526 81.4158C362.992 82.9348 361.006 83.9166 358.867 84.2143C356.728 84.512 354.55 84.1097 352.658 83.0675C339.223 75.5884 324.962 69.7007 310.163 65.5234C308.087 64.9316 306.26 63.6813 304.957 61.961C303.655 60.2407 302.946 58.1437 302.939 55.9859V20.0418H209.245V55.9759C209.24 58.1323 208.535 60.2289 207.236 61.9506C205.937 63.6722 204.114 64.926 202.041 65.5234C187.237 69.6909 172.972 75.5755 159.536 83.0574C157.238 84.3462 154.522 84.6696 151.985 83.9566C149.449 83.2437 147.3 81.5526 146.011 79.2555C144.721 76.9584 144.398 74.2434 145.111 71.7078C145.824 69.1722 147.516 67.0237 149.814 65.7349C160.567 59.7465 171.815 54.6923 183.433 50.6281L189.478 48.503V10.1216C189.48 7.50094 190.518 4.9873 192.365 3.12761C194.213 1.26791 196.72 0.212647 199.341 0.191406H312.863C315.495 0.194067 318.019 1.23976 319.881 3.09928C321.743 4.9588 322.791 7.48046 322.797 10.1116V48.5332L328.751 50.6583C335.984 53.1956 343.077 56.1171 349.999 59.4102L355.721 62.1193L382.872 35.0277C384.736 33.1692 387.262 32.1255 389.894 32.1255C392.527 32.1255 395.052 33.1692 396.917 35.0277L477.182 115.265C479.041 117.129 480.085 119.653 480.085 122.285C480.085 124.917 479.041 127.441 477.182 129.304L450.081 156.396L452.791 162.106C456.084 169.047 459.006 176.157 461.546 183.407L463.672 189.45H502.066C504.693 189.452 507.212 190.494 509.074 192.347C510.935 194.2 511.987 196.714 512 199.34V199.269Z" fill="black"/>
</svg>
