<svg width="512" height="512" viewBox="0 0 512 512" fill="none" xmlns="http://www.w3.org/2000/svg">
<g clip-path="url(#clip0_203_445)">
<path d="M144.5 13.7003C103.9 15.4003 83.6999 23.0003 63.3999 44.1003C50.0999 58.0003 42.4999 72.5003 38.3999 91.5003C36.7999 99.0003 35.0999 141.8 34.9999 175.2V193.8L29.5999 196.8C21.5999 201.4 11.8999 211.7 7.19993 220.8C-0.400069 235.4 -0.10007 230.3 0.19993 329.7L0.49993 418.5L3.59993 426.2C9.59993 440.8 19.9999 452.6 33.1999 459.5C44.1999 465.3 51.4999 466.6 79.4999 467.9C93.2999 468.5 110.5 469.3 117.8 469.6L131 470.2L133.5 474.5C136.7 479.8 145.4 488.1 150.6 490.8C159.4 495.3 164.2 495.9 200 497.2C238 498.6 442 498.9 453.4 497.6C458.6 497 460.8 496.2 462.6 494.5C466.8 490.3 467 484.6 463.1 479.9L461.2 477.5L328.8 477.4C227.1 477.4 172.6 476.2 164.8 473.8C159.9 472.3 153.5 466.8 150.9 461.9C147.4 454.9 145.6 439.6 145.6 414.5C145.6 387.4 147.4 372.4 151.6 365.3C154.9 359.6 160.9 355.4 167.3 354.1C181.3 351.2 350.3 349.9 429 352.1C474.4 353.3 476.7 353.6 483.4 360.4C488.5 365.4 490.3 370.4 492.2 384C494 397.7 493.8 434.8 491.7 447.7C489.8 459.6 487.6 464.5 482 469.2C477.3 473.3 472.3 475 464.9 475.1C450.5 475.2 445 478.2 445 486C445 489 445.7 490.8 447.9 493.2L450.7 496.4L461.8 496.2C480.3 495.7 490 492 499.5 481.8C505.1 475.8 509.3 468.2 510.9 460.9C511.5 458.3 512 439.2 512 414.5C512 380.4 511.7 371.3 510.5 366.7C505.8 348.6 492 335.9 474.2 333.1C466.8 332 399.7 330 368.4 330H348.3L347.6 302.7C346.6 265.6 345.2 242.7 343.5 235.5C339.2 218.2 326.2 202.1 310 194.1C304.4 191.3 298.8 189.5 293.5 188.6C279.6 186.2 228.7 184.5 169.1 184.5H111.8L112.5 160.3L113.2 106L109.7 102.5C107.2 100 105.3 99.0003 103.1 99.0003C98.5999 99.0003 94.4999 101.4 93.1999 104.7C92.5999 106.2 91.7999 148.4 91.3999 161.7L90.7999 185.8L76.0999 186.4C68.0999 186.8 60.1999 187.3 58.5999 187.5L55.6999 188L56.3999 150.8C57.1999 107.9 57.9999 98.3003 61.4999 87.4003C65.0999 76.0003 70.2999 67.7003 79.9999 58.0003C93.4999 44.5003 106.5 38.3003 126.8 35.8003C139.8 34.2003 205.3 34.2003 218.4 35.8003C248.2 39.5003 271.4 56.7003 281.9 83.1003C285.5 92.2003 286.7 98.8003 287.6 115.2L288.2 128H270.6C260.9 128 253 127.9 253 127.7C252.9 127.6 252.5 121.3 252.1 113.8C251.3 101.6 250.9 99.4003 248.2 93.6003C242 80.3003 230.6 72.7003 213.8 70.9003C208.7 70.3003 190.1 69.8003 172.5 69.8003C154.9 69.8003 136.3 70.3003 131.2 70.9003C116.2 72.5003 105.8 78.4003 99.1999 88.8003C93.8999 97.0003 91.3999 110.1 93.9999 115.1C94.5999 116.1 96.3999 117.7 97.9999 118.5C105.5 122.4 112.3 118.4 114 109C115.4 101.8 118.8 96.7003 124.3 94.1003C130.8 91.0003 163.9 89.4003 194.1 90.9003C219.5 92.1003 222.6 93.0003 227.6 100.2C230.4 104.2 230.5 104.8 231.6 123.4C232.2 133.9 233 143.3 233.4 144.3C235.4 148.6 238.2 149 270.5 149C303.7 149 305.4 148.7 307.8 143.5C310.3 138 308.5 98.8003 305 85.5003C296.2 51.2003 266.5 23.5003 231.5 16.6003C217.3 13.8003 175.2 12.4003 144.5 13.7003ZM258.5 207C271.7 207.6 285.1 208.5 288.3 209C304.1 211.5 318 223.8 322.4 239C324.3 245.4 325.6 265.7 326.6 303.2L327.3 330H288.9C242.1 330 173.9 331.7 164.8 333.1C145.6 336.1 131.4 350.4 127.7 370.6C124.1 389.6 123.1 427 125.7 444.8L126.3 449.1L114.9 448.5C108.6 448.2 92.9999 447.5 80.0999 446.9C53.8999 445.7 48.1999 444.5 39.3999 438.6C29.5999 432 23.0999 421.4 21.0999 409C18.2999 392.1 17.1999 322.1 18.9999 277.9C20.1999 248.5 21.1999 240.5 24.4999 233.2C29.6999 221.9 43.1999 211.3 55.4999 209.1C58.2999 208.6 73.7999 207.7 89.9999 207C106.2 206.4 123.3 205.8 128 205.6C144.2 205 234.6 205.9 258.5 207Z" fill="black"/>
<path d="M333.1 107.699C330.1 110.299 315 142.799 315 146.799C315 151.199 316.4 153.599 320 155.499C324.5 157.799 328.6 157.399 331.9 154.199C335.8 150.599 350 120.299 350 115.599C350 113.399 349.1 111.099 347.4 109.099C345.2 106.399 344.2 105.999 340 105.999C336.9 105.999 334.5 106.599 333.1 107.699Z" fill="black"/>
<path d="M353.2 148.2C333.1 155.5 331 157 331 164C331 168.2 331.4 169.2 334.1 171.4C336.1 173.1 338.3 174 340.7 174C346.2 174 378 162.4 380.8 159.4C383.9 155.9 383.9 149.1 380.7 145.5C376.7 140.8 372.7 141.2 353.2 148.2Z" fill="black"/>
<path d="M333.2 179.501C329.5 182.601 328.5 187.001 330.5 191.601C331.8 194.801 333.5 195.901 349.5 203.601C370.9 213.901 375.7 214.401 379.5 207.001C381.8 202.501 381.4 198.401 378.3 195.101C374.6 191.301 344.1 177.001 339.5 177.001C337.4 177.001 335.1 177.901 333.2 179.501Z" fill="black"/>
<path d="M187.7 371.102C184.4 373.002 183 377.502 183 386.502C183 391.202 182.7 395.002 182.4 395.002C182 395.002 178.6 393.202 174.8 391.002C166 385.902 161.2 385.602 156.9 389.902C154.6 392.302 154 393.702 154 397.202C154.1 402.702 155 403.802 164.3 409.502C173.1 414.802 173.2 414.002 162.8 419.902C155.9 423.802 154 426.202 154 431.302C154 436.202 155.3 438.602 159 440.502C163.4 442.802 165.6 442.402 174.6 437.502L182.8 433.002L183.2 442.902C183.5 451.802 183.8 453.102 185.9 455.402C190.6 460.402 199.6 459.602 202.5 453.902C203.5 452.102 204 448.002 204 442.002C204 437.102 204.3 433.002 204.6 433.002C204.9 433.002 208.4 434.902 212.3 437.202C217.7 440.402 220.5 441.502 223.6 441.502C231.1 441.502 235.5 434.902 233 427.502C232 424.602 230.5 423.202 223.9 419.402C219.6 416.902 216 414.502 216 414.202C216 413.802 219.2 411.702 223.2 409.502C233.2 403.902 236 398.702 232.5 392.002C229.1 385.402 222.6 385.202 212 391.402L204.5 395.802L204 385.302C203.5 375.302 203.4 374.702 200.7 372.402C197.7 369.802 191.1 369.102 187.7 371.102Z" fill="black"/>
<path d="M269.3 372.399C266.6 374.699 266.5 375.299 266 385.299L265.5 395.799L258 391.399C249.9 386.699 244.3 385.699 240.4 388.499C237.4 390.599 235.7 395.299 236.4 399.499C237.1 403.299 239.7 405.499 249.3 410.999L255.2 414.199L247 418.899C241.1 422.199 238.3 424.399 237.2 426.599C235.3 430.699 236.3 435.999 239.6 439.099C243.6 442.899 249 442.299 257.7 437.199C261.6 434.899 265.1 432.999 265.4 432.999C265.7 432.999 266 437.299 266 442.499C266 449.499 266.4 452.699 267.5 454.399C271 459.699 279.6 460.199 284.1 455.399C286.2 453.099 286.6 451.599 287 442.899L287.5 432.999L294.5 437.099C302.7 441.899 305.9 442.699 309.9 440.999C313.9 439.399 316 435.899 316 431.099C316 426.099 314.1 423.899 305.2 418.599L297.8 414.299L305.6 409.499C315 403.799 315.9 402.699 316 397.199C316 393.699 315.4 392.299 313.1 389.899C308.8 385.599 304 385.899 295.2 390.999C291.4 393.199 288 394.999 287.6 394.999C287.3 394.999 287 391.399 287 386.999C287 378.199 285.4 372.799 282.2 371.099C278.5 369.099 272.4 369.799 269.3 372.399Z" fill="black"/>
<path d="M352.7 371.099C349.6 372.899 348 378.399 348 386.999C348 391.399 347.7 394.999 347.3 394.999C346.9 394.999 343.6 393.199 339.9 390.999C331.3 385.899 326.3 385.599 321.9 389.899C319.7 392.199 319 393.799 319 396.799C319 401.999 321.6 405.099 329.6 409.599C333.1 411.499 336.2 413.499 336.4 413.899C336.7 414.299 333.6 416.599 329.5 418.899C320.9 423.799 319 425.999 319 431.299C319 435.899 321.1 439.399 325.1 440.999C329.1 442.699 332.3 441.899 340.5 437.099L347.5 432.999L348 442.899C348.4 451.599 348.8 453.099 350.9 455.399C355.4 460.199 364 459.699 367.5 454.399C368.6 452.699 369 449.499 369 442.499C369 437.299 369.3 432.999 369.6 432.999C369.9 432.999 373.4 434.899 377.3 437.199C386 442.299 391.4 442.899 395.4 439.099C398.6 436.099 399.7 430.999 398 426.899C397.1 424.699 394.5 422.599 388.9 419.399C384.5 416.899 381 414.499 381 414.199C381 413.799 383.1 412.399 385.7 410.999C397.7 404.699 400.9 399.899 398 392.899C394.9 385.499 388 384.999 377 391.399L369.5 395.799L369 385.299C368.5 375.299 368.4 374.699 365.7 372.399C362.6 369.799 356.1 369.099 352.7 371.099Z" fill="black"/>
<path d="M434.3 372.402C431.6 374.702 431.5 375.302 431 385.302L430.5 395.802L423 391.402C417.3 388.002 414.5 387.002 411.2 387.002C406 387.002 402.5 390.002 401.5 395.302C400.4 400.902 402.9 404.302 412.1 409.602L420.2 414.302L412.1 418.802C406.1 422.202 403.7 424.202 402.4 426.802C399 434.002 403.6 441.502 411.4 441.502C414.5 441.502 417.3 440.402 422.7 437.202C426.6 434.902 430.1 433.002 430.4 433.002C430.7 433.002 431 437.102 431 442.002C431 448.002 431.5 452.102 432.5 453.902C435.4 459.602 444.4 460.402 449.1 455.402C451.2 453.102 451.5 451.802 451.8 442.902L452.2 433.002L460.4 437.502C469.4 442.402 471.6 442.802 476 440.502C479.7 438.602 481 436.202 481 431.202C481 426.002 479.2 423.902 470.1 418.602L462.8 414.202L469.9 410.102C479.4 404.502 481 402.702 481 397.202C481 393.702 480.4 392.302 478.1 389.902C473.8 385.602 469 385.902 460.2 391.002C456.4 393.202 453 395.002 452.6 395.002C452.3 395.002 452 391.202 452 386.502C452 373.802 449.5 370.002 441.1 370.002C438.3 370.002 436.3 370.702 434.3 372.402Z" fill="black"/>
</g>
<defs>
<clipPath id="clip0_203_445">
<rect width="512" height="512" fill="white"/>
</clipPath>
</defs>
</svg>
