<svg width="512" height="512" viewBox="0 0 512 512" fill="none" xmlns="http://www.w3.org/2000/svg">
<path d="M248.6 12.6008L246 15.3008V102.501V399.701L248.6 402.401C252.4 406.101 259.6 406.101 263.4 402.401L266 399.701V102.501V15.3008L263.4 12.6008C261.3 10.5008 259.8 10.0008 256 10.0008C252.2 10.0008 250.7 10.5008 248.6 12.6008Z" fill="#151515"/>
<path d="M12.6 248.6C10.5 250.7 10 252.2 10 256C10 259.8 10.5 261.3 12.6 263.4L15.3 266H102.5H389.7L392.4 263.4C396.1 259.6 396.1 252.4 392.4 248.6L389.7 246H102.5H15.3L12.6 248.6Z" fill="#151515"/>
<path d="M318.6 248.6C316.5 250.7 316 252.2 316 256C316 259.8 316.5 261.3 318.6 263.4L321.3 266H409H496.7L499.4 263.4C503.1 259.6 503.1 252.4 499.4 248.6L496.7 246H409H321.3L318.6 248.6Z" fill="#151515"/>
<path d="M248.6 319.601L246 322.301V409.501V496.701L248.6 499.401C252.4 503.101 259.6 503.101 263.4 499.401L266 496.701V409.501V322.301L263.4 319.601C261.3 317.501 259.8 317.001 256 317.001C252.2 317.001 250.7 317.501 248.6 319.601Z" fill="#151515"/>
</svg>
