<svg width="512" height="512" viewBox="0 0 512 512" fill="none" xmlns="http://www.w3.org/2000/svg">
<g clip-path="url(#clip0_231_1368)">
<path fill-rule="evenodd" clip-rule="evenodd" d="M27.0298 194.44C21.5898 194.44 17.0298 197.57 17.0298 201.28V485.47C17.0298 489.17 21.6198 492.3 27.0298 492.3C32.4398 492.3 37.0298 489.17 37.0298 485.47V201.28C37.0698 197.57 32.4698 194.44 27.0298 194.44ZM255.65 0C250.21 0 245.65 3.13 245.65 6.84V485.47C245.65 489.17 250.24 492.3 255.65 492.3C261.06 492.3 265.65 489.17 265.65 485.47V6.84C265.68 3.15 261.09 0 255.65 0ZM484.27 105.15C478.83 105.15 474.27 108.28 474.27 111.99V485.49C474.27 489.19 478.87 492.32 484.27 492.32C489.67 492.32 494.27 489.19 494.27 485.49V111.97C494.3 108.26 489.7 105.15 484.27 105.15Z" fill="black"/>
</g>
<defs>
<clipPath id="clip0_231_1368">
<rect width="477.3" height="492.3" fill="white" transform="translate(17)"/>
</clipPath>
</defs>
</svg>
