<svg width="512" height="512" viewBox="0 0 512 512" fill="none" xmlns="http://www.w3.org/2000/svg">
<path d="M68.0003 6.6C62.5003 9 61.2003 10.7 53.9003 25.2C47.5003 38 46.8003 38.9 43.8003 39.5C42.0003 39.8 35.0003 40.9 28.2003 41.9C18.1003 43.5 15.3003 44.3 12.4003 46.5C5.80026 51.5 3.30026 61 6.50026 68.6C7.40026 70.7 12.6003 76.6 18.8003 82.6L29.6003 92.9L27.4003 105.7C26.1003 112.8 25.1003 120.4 25.0003 122.8C24.9003 132.6 32.8003 140.4 42.9003 140.5C47.9003 140.5 50.0003 139.8 62.1003 133.6L75.7003 126.6L88.6003 133.5C100.4 139.8 102 140.4 107.6 140.4C115.3 140.5 121.2 137 124.1 130.7C126.5 125.3 126.4 121.3 123.6 105.8L121.3 93L132.2 82.5C138.2 76.7 143.8 70.4 144.6 68.5C147.7 61 145.1 51.5 138.6 46.5C135.5 44.1 132.8 43.4 119.7 41.4C111.4 40.2 104.4 39.1 104.3 39.1C104.1 39 100.9 32.8 97.1003 25.2C93.3003 17.7 89.4003 10.7 88.3003 9.8C83.2003 5.2 74.4003 3.8 68.0003 6.6ZM91.0003 54.1C95.3003 58 97.2003 58.5 115.9 61.2L124.3 62.4L114.8 71.4C100.8 84.8 99.9003 87.1 103 104.7C104.1 111.3 105 117.3 105 117.9C105 118.5 99.6003 116.3 93.0003 112.8C76.5003 104.3 74.6003 104.3 58.2003 112.8C44.1003 120 45.0003 120.8 48.0003 104.4C51.2003 87.5 50.2003 84.8 36.2003 71.4L26.7003 62.4L35.6003 61.1C53.4003 58.6 56.2003 57.9 59.9003 54.4C62.2003 52.4 65.7003 46.8 69.5003 39L75.5003 26.9L81.2003 38.7C85.2003 46.9 88.2003 51.6 91.0003 54.1Z" fill="black"/>
<path d="M249.6 6C244.6 7.5 241 12.1 234.3 25.5C230.7 32.6 227.7 38.6 227.5 38.8C227.4 38.9 220.5 40.1 212.2 41.4C195.3 44 191.7 45.6 188.2 51.8C185.8 56.2 185.2 63.9 187.1 68.6C187.6 70.2 193 76.4 199.1 82.5L210 93.7L207.5 108.3C205.4 120.2 205.1 123.7 206 126.9C207.4 132.1 211.4 136.8 216.5 139.1C223.5 142.3 226.7 141.7 242 133.8L256 126.6L270 133.8C279.6 138.8 285.1 141 287.5 141C293.9 141 301.5 136.7 304.2 131.5C306.8 126.7 306.9 122.5 304.4 108L302 93.5L312.9 82.5C319 76.5 324.4 70.2 324.9 68.7C326.9 63.6 326.2 56.1 323.5 51.4C320 45.5 315.3 43.5 298.7 41.1C291 40 284.7 39 284.5 38.8C284.4 38.6 281.3 32.6 277.7 25.5C274.1 18.3 269.9 11.3 268.3 9.7C263.7 5.4 256.5 4 249.6 6ZM262 39.1C268.4 52.1 270 54.5 274.3 56.7C276.9 58 298.1 62 303 62C303.8 62 300.1 66.4 294.8 71.7C289.5 77.1 284.5 82.9 283.6 84.7C281.5 88.9 281.6 94.3 284 107.5C285.1 113.5 285.8 118.5 285.7 118.7C285.5 118.8 280 116.2 273.4 112.8C257.1 104.3 254.9 104.3 238.6 112.8C232.1 116.2 226.6 118.9 226.4 118.7C226.2 118.6 227 113.5 228 107.5C230.4 94.3 230.5 88.9 228.4 84.7C227.5 82.9 222.5 77.1 217.2 71.7C211.9 66.4 208.2 62 209 62C213.9 62 235.1 58 237.7 56.7C242 54.5 243.6 52.1 250 39.1C253 33 255.7 28 256 28C256.3 28 259 33 262 39.1Z" fill="black"/>
<path d="M429 6.59864C423.5 8.99864 422.2 10.6986 414.9 25.1986C411.1 32.7986 407.9 38.9986 407.7 39.0986C407.6 39.0986 400.6 40.1986 392.3 41.3986C379.3 43.3986 376.5 44.1986 373.5 46.3986C369.3 49.5986 367.2 53.4986 366.4 59.3986C365.3 66.9987 367.2 70.1987 379.5 82.0987L390.7 93.0987L388.4 105.799C385.6 121.299 385.5 125.299 387.9 130.699C390.8 136.999 396.7 140.499 404.4 140.399C410 140.399 411.6 139.799 423.4 133.499L436.3 126.599L449.6 133.399C464.1 140.799 467.6 141.699 473.7 140.099C479 138.699 482.6 135.799 485 130.899C487.5 125.999 487.5 121.599 484.6 105.699L482.4 92.8987L493.2 82.4987C499.3 76.5987 504.7 70.4987 505.5 68.5987C508.7 60.9986 506.1 51.4986 499.6 46.4986C496.7 44.2986 493.9 43.4986 483.8 41.8986C477 40.8986 470 39.7986 468.2 39.4986C465.2 38.8986 464.5 37.9986 458.1 25.1986C454.3 17.6986 450.4 10.6986 449.3 9.79864C444.2 5.19864 435.4 3.79864 429 6.59864ZM453 55.1986C456 57.5986 458.6 58.2986 470.9 60.1986L485.3 62.3986L475.8 71.4987C461.8 84.7987 461 87.0987 464 103.999C465.1 110.299 466 116.299 466 117.299C466 118.699 463.8 117.899 453.9 112.799C437.5 104.299 435.6 104.299 419.1 112.799C412.4 116.299 407 118.599 407 117.899C407 117.299 407.9 111.299 409 104.699C412.1 87.0987 411.2 84.6987 397.2 71.3987L387.7 62.3986L399.6 60.6986C406.1 59.6986 413.1 58.4986 415.2 57.9986C420.5 56.4986 425 50.7986 431 38.0986L436.4 26.8986L442.9 39.5986C447.5 48.4986 450.6 53.2986 453 55.1986Z" fill="black"/>
<path d="M273.5 178.399C271.9 179.099 269.5 180.799 268.4 182.099C267.2 183.399 255.8 206.499 243 233.499C230.2 260.399 218.2 284.699 216.2 287.399C206.4 300.799 190.8 307.999 171.3 307.999C162.6 307.999 162 307.899 162 305.999C162 300.199 156.4 292.999 149.5 289.899C145.9 288.199 142.5 287.999 118.5 287.999C102.5 287.999 89.9005 288.399 87.7005 289.099C83.0005 290.399 76.8005 295.799 74.4005 300.799C72.6005 304.299 72.5005 308.999 72.2005 386.499C72.0005 442.199 72.3005 470.099 73.0005 473.499C74.5005 480.599 78.3005 485.499 84.5005 488.499L89.8005 491.099L119.1 490.799L148.5 490.499L153.2 487.299C157.7 484.099 162 477.499 162 473.699C162 472.299 163 471.999 166.8 471.999C179.7 472.099 193 477.999 205.9 489.499C210.6 493.699 217.3 498.499 221.1 500.399C234.6 507.199 233.8 507.099 319.5 506.799L396.5 506.499L403 503.399C410.9 499.699 418 492.699 421.8 485.099C424.2 479.999 424.5 478.499 424.5 468.499C424.5 458.599 424.2 456.999 421.8 452.099L419.1 446.599L421.9 443.099C426.4 437.099 427.8 434.499 429.6 428.399C431.9 420.399 431.1 409.499 427.6 401.599L425 395.799L427.9 392.099C435.1 382.999 438.1 371.999 436.3 361.399C435.6 357.699 434.1 352.599 432.8 350.099L430.5 345.299L434.2 340.699C439.7 333.699 442.2 326.099 442.2 316.499C442.1 300.099 434.5 288.299 419.3 281.199L413.5 278.499L365.2 278.199C324.1 277.999 316.8 277.699 316.3 276.499C316 275.699 317.4 270.999 319.3 266.199C324.5 253.299 326 246.399 326 235.799C326 217.999 320.4 204.199 308.1 191.999C295.5 179.399 282.6 174.399 273.5 178.399ZM287.6 200.899C300.7 210.599 306.6 222.499 305.8 237.899C305.4 245.199 304.6 248.299 300.7 258.299C297.1 267.399 296 271.499 296 275.799C296 285.599 302.1 294.199 310.9 296.899C313.5 297.599 329.3 297.999 361.1 297.999C404.3 297.999 407.8 298.199 411.6 299.899C416.4 302.099 420.4 306.899 421.9 312.399C423.5 318.299 421.7 323.799 415.9 330.599C413.1 333.899 410.7 337.799 410.4 339.799C409.3 345.399 410.5 352.299 413.3 356.499C418.5 364.499 417.7 373.099 411.1 380.299C405.2 386.699 403.7 390.399 404.2 396.899C404.5 400.799 405.5 403.799 407.5 406.999C412.9 415.499 411.9 423.699 404.5 431.999C397 440.499 396.2 448.099 402 458.299C407.4 467.899 405.3 478.099 396.8 483.699L392.6 486.499L318.1 486.799C246.1 486.999 243.3 486.999 236.9 484.999C229.7 482.899 225.9 480.399 215.5 471.199C203.4 460.399 187 453.399 171.3 452.299L163 451.699V389.999V328.299L175.8 327.699C182.8 327.399 191.2 326.399 194.5 325.499C202.4 323.299 214.2 317.099 220.9 311.599C233 301.599 234.2 299.499 268 228.199C275.9 211.599 282.6 197.999 283 197.999C283.4 197.999 285.5 199.299 287.6 200.899ZM142.5 389.499V470.499H117.5H92.5005L92.2005 391.499C92.1005 347.999 92.2005 311.499 92.5005 310.199L93.0005 307.999L117.8 308.199L142.5 308.499V389.499Z" fill="black"/>
</svg>
