<svg width="512" height="512" viewBox="0 0 512 512" fill="none" xmlns="http://www.w3.org/2000/svg">
<g clip-path="url(#clip0_238_1524)">
<path d="M395.44 104.771V55.6914H444.52" stroke="black" stroke-width="20" stroke-miterlimit="10" stroke-linecap="square"/>
<path d="M395.44 59.4102C426.856 81.6681 452.475 111.137 470.147 145.344C487.819 179.551 497.027 217.498 497 256C497 389.1 389.1 497 256 497" stroke="black" stroke-width="20" stroke-miterlimit="10"/>
<path d="M116.56 407.23V456.31H67.48" stroke="black" stroke-width="20" stroke-miterlimit="10" stroke-linecap="square"/>
<path d="M116.56 452.59C85.1437 430.332 59.5246 400.863 41.853 366.656C24.1814 332.449 14.9728 294.502 15.0001 256C15.0001 122.9 122.9 15 256 15" stroke="black" stroke-width="20" stroke-miterlimit="10"/>
<path d="M394.3 255.999C394.3 283.352 386.189 310.091 370.993 332.835C355.796 355.578 334.196 373.304 308.925 383.772C283.654 394.239 255.847 396.978 229.019 391.642C202.192 386.306 177.549 373.134 158.207 353.792C138.866 334.45 125.694 309.808 120.358 282.98C115.021 256.153 117.76 228.345 128.228 203.074C138.695 177.803 156.422 156.204 179.165 141.007C201.908 125.81 228.647 117.699 256 117.699C274.162 117.699 292.146 121.276 308.925 128.227C325.705 135.177 340.951 145.364 353.793 158.206C366.635 171.049 376.823 186.295 383.773 203.074C390.723 219.853 394.3 237.837 394.3 255.999V255.999Z" stroke="black" stroke-width="20" stroke-miterlimit="10" stroke-linecap="square"/>
<path d="M264.021 169.659C261.422 169.188 258.783 168.969 256.142 169.004C253.249 168.968 250.36 169.22 247.517 169.756V169.756C232.882 172.857 220.991 184.881 217.926 199.646C216.712 205.361 216.791 211.276 218.158 216.956C219.524 222.637 222.143 227.94 225.824 232.478C229.483 236.96 234.099 240.567 239.333 243.034C244.567 245.501 250.287 246.765 256.073 246.735C266.567 246.735 275.354 243.267 282.927 236.133C290.81 228.69 294.977 218.902 294.977 207.832C294.945 189.105 282.229 173.401 264.021 169.659ZM256.041 239.547C238.842 239.547 224.311 225.02 224.311 207.821C224.311 199.614 227.761 191.489 233.771 185.537C237.529 181.697 242.212 178.888 247.369 177.38C252.526 175.873 257.983 175.716 263.218 176.926V176.926C277.209 180.214 287.76 193.492 287.76 207.817C287.767 225.02 273.24 239.547 256.041 239.547Z" fill="black" stroke="black" stroke-width="13"/>
<path d="M331 330.995V340.596L329.92 341.676C328.839 342.756 328.839 342.756 327.449 342.756C326.171 342.756 325.894 342.656 324.975 341.845L324.043 341.024L323.758 330.221C323.477 321.279 323.146 317.17 322.537 315.067C317.978 298.955 306.814 287.72 291.11 283.445C286.525 282.174 286.525 282.174 255.995 282.174C228.464 282.174 225.273 282.206 221.611 283.233C217.174 284.403 209.078 288.109 206.125 290.327C199.91 295.008 193.723 302.931 191.425 309.107C188.815 316.043 188.591 318.225 188.235 330.235L187.95 341.017L187.018 341.831C186.106 342.638 185.833 342.738 184.551 342.738C183.172 342.738 183.146 342.738 182.08 341.658L181 340.578V330.995C181 322.413 181.4 318.412 181.742 316.547C185.559 294.526 202.535 278.306 224.992 275.213C226.641 275.033 241.071 274.871 258.044 274.925C282.892 275.072 288.441 275.227 291.02 275.839C306.145 279.469 318.198 288.501 324.975 301.271C329.707 310.072 331 316.461 331 330.995Z" fill="black" stroke="black" stroke-width="13"/>
</g>
<defs>
<clipPath id="clip0_238_1524">
<rect width="502" height="502" fill="white" transform="translate(5 5)"/>
</clipPath>
</defs>
</svg>
