<svg width="517" height="517" viewBox="0 0 517 517" fill="none" xmlns="http://www.w3.org/2000/svg">
<g clip-path="url(#clip0_323_82)">
<path d="M507 258.5C507 395.74 395.74 507 258.5 507C121.26 507 10 395.74 10 258.5C10 121.26 121.26 10 258.5 10C395.74 10 507 121.26 507 258.5Z" stroke="black" stroke-width="20" stroke-linecap="round" stroke-linejoin="round"/>
<path d="M465 258.5C465 372.545 372.545 465 258.5 465C144.455 465 52 372.545 52 258.5C52 144.455 144.455 52 258.5 52C372.545 52 465 144.455 465 258.5Z" stroke="black" stroke-width="20" stroke-linecap="round" stroke-linejoin="round"/>
<path d="M172 342L338.162 176.098M178.838 176L345 341.902" stroke="black" stroke-width="20" stroke-linecap="round"/>
</g>
<defs>
<clipPath id="clip0_323_82">
<rect width="517" height="517" fill="white"/>
</clipPath>
</defs>
</svg>
