<svg width="512" height="512" viewBox="0 0 512 512" fill="none" xmlns="http://www.w3.org/2000/svg">
<path fill-rule="evenodd" clip-rule="evenodd" d="M123.58 493.582C122.575 494.583 121.778 495.772 121.234 497.08C120.691 498.389 120.411 499.791 120.411 501.208C120.411 502.624 120.691 504.027 121.234 505.335C121.778 506.643 122.575 507.832 123.58 508.833C125.617 510.861 128.378 512 131.256 512C134.134 512 136.895 510.861 138.932 508.833L384.83 263.834C385.835 262.833 386.632 261.645 387.176 260.336C387.72 259.028 388 257.625 388 256.209C388 254.792 387.72 253.39 387.176 252.081C386.632 250.773 385.835 249.584 384.83 248.583L138.932 3.62664C137.953 2.52841 136.76 1.64083 135.426 1.01816C134.092 0.395498 132.644 0.0508227 131.171 0.00520824C129.699 -0.0404063 128.232 0.213998 126.862 0.752869C125.491 1.29174 124.245 2.10376 123.2 3.13929C122.155 4.17482 121.332 5.41212 120.782 6.77554C120.233 8.13896 119.968 9.59987 120.003 11.069C120.039 12.5381 120.374 13.9845 120.989 15.3198C121.604 16.6552 122.486 17.8514 123.58 18.8353L361.813 256.209L123.58 493.582Z" fill="black"/>
</svg>
