<svg width="512" height="512" viewBox="0 0 512 512" fill="none" xmlns="http://www.w3.org/2000/svg">
<path d="M210.5 6.99809C259.8 15.9981 300.1 42.2981 327.6 83.4981C362.4 135.898 366.4 203.098 337.9 259.998L331.1 273.498L416.4 358.998C514.2 456.998 506.5 447.798 506.5 466.998C506.5 477.698 506.3 478.898 503.6 484.498C499.8 492.198 492.2 499.798 484.5 503.598C478.9 506.298 477.7 506.498 467 506.498C447.8 506.498 457 514.198 359 416.398L273.5 331.098L260 337.898C195.5 370.198 119 360.498 64.3001 313.098C39.9001 291.898 19.6001 259.798 11.1001 228.898C6.00008 210.098 5.50008 205.598 5.50008 180.498C5.60008 159.398 5.80008 155.198 7.80008 145.998C13.0001 122.198 21.7001 101.698 35.1001 81.3981C45.1001 66.2981 66.3001 45.0981 81.4001 35.0981C101.5 21.6981 122.3 12.9981 145.5 7.99809C160.5 4.69809 195.1 4.19809 210.5 6.99809ZM159.5 27.0981C141.3 29.3981 118.2 37.3981 102.5 46.8981C60.7001 71.9981 33.2001 113.398 26.9001 160.698C25.2001 173.298 26.3001 200.998 28.9001 212.698C49.0001 303.398 141.5 356.598 229.2 327.898C274.7 313.098 313.2 274.598 327.9 229.298C338.3 197.198 338.4 164.298 328 132.898C316.7 98.6981 295.5 70.9981 265.8 51.2981C234.3 30.4981 197.7 22.1981 159.5 27.0981ZM306.7 333.998L322 349.498L335.7 335.698L349.5 321.998L334.2 306.698L318.8 291.298L305.1 304.898L291.3 318.498L306.7 333.998ZM395.7 423.298C428.1 455.698 456.2 482.998 458.2 484.098C466.9 488.598 478.5 485.198 483.5 476.598C486.5 471.498 486.9 463.698 484.4 458.698C483.5 456.898 456.2 428.798 423.7 396.298L364.5 336.998L350.8 350.698L337 364.498L395.7 423.298Z" fill="#151515"/>
</svg>
