<svg width="512" height="512" viewBox="0 0 512 512" fill="none" xmlns="http://www.w3.org/2000/svg">
<path fill-rule="evenodd" clip-rule="evenodd" d="M500.2 428.22H210.35C207.687 428.22 205.134 429.278 203.251 431.161C201.368 433.044 200.31 435.597 200.31 438.26C200.31 440.923 201.368 443.476 203.251 445.359C205.134 447.242 207.687 448.3 210.35 448.3H500.2C502.863 448.3 505.416 447.242 507.299 445.359C509.182 443.476 510.24 440.923 510.24 438.26C510.24 435.597 509.182 433.044 507.299 431.161C505.416 429.278 502.863 428.22 500.2 428.22ZM500.2 245.61H12.04C9.37723 245.61 6.82351 246.668 4.94065 248.551C3.05778 250.434 2 252.987 2 255.65C2 258.313 3.05778 260.866 4.94065 262.749C6.82351 264.632 9.37723 265.69 12.04 265.69H500.2C502.863 265.69 505.416 264.632 507.299 262.749C509.182 260.866 510.24 258.313 510.24 255.65C510.24 252.987 509.182 250.434 507.299 248.551C505.416 246.668 502.863 245.61 500.2 245.61V245.61ZM500.2 63H12.04C9.37723 63 6.82351 64.0578 4.94065 65.9406C3.05778 67.8235 2 70.3772 2 73.04C2 75.7028 3.05778 78.2565 4.94065 80.1394C6.82351 82.0222 9.37723 83.08 12.04 83.08H500.2C502.863 83.08 505.416 82.0222 507.299 80.1394C509.182 78.2565 510.24 75.7028 510.24 73.04C510.24 70.3772 509.182 67.8235 507.299 65.9406C505.416 64.0578 502.863 63 500.2 63V63Z" fill="black"/>
</svg>
