<svg width="512" height="512" viewBox="0 0 512 512" fill="none" xmlns="http://www.w3.org/2000/svg">
<path fill-rule="evenodd" clip-rule="evenodd" d="M41 102C41 96.4772 45.4772 92 51 92H460.6C466.123 92 470.6 96.4772 470.6 102C470.6 107.523 466.123 112 460.6 112H51C45.4772 112 41 107.523 41 102ZM41 255.6C41 250.077 45.4772 245.6 51 245.6H460.6C466.123 245.6 470.6 250.077 470.6 255.6C470.6 261.123 466.123 265.6 460.6 265.6H51C45.4772 265.6 41 261.123 41 255.6ZM207.4 409.2C207.4 403.677 211.877 399.2 217.4 399.2H460.6C466.123 399.2 470.6 403.677 470.6 409.2C470.6 414.723 466.123 419.2 460.6 419.2H217.4C211.877 419.2 207.4 414.723 207.4 409.2Z" fill="black"/>
</svg>
