<svg width="512" height="512" viewBox="0 0 512 512" fill="none" xmlns="http://www.w3.org/2000/svg">
<g clip-path="url(#clip0_203_450)">
<path d="M231.3 1.10004C220.5 2.70004 202.5 7.70004 191.8 12C139.5 32.9 99.6001 80.3 88.0001 135.1C78.0001 182.8 88.2001 226.9 120.7 276.5C130.6 291.6 145.5 311.6 166.9 338.5L181.9 357.5L158.7 358C139.4 358.4 135 358.8 132.9 360.1C131.1 361.3 122.1 379.1 99.7001 425.8C59.7001 509.2 63.5001 500.4 64.9001 505.1C67.1001 512.4 62.2001 512 142.8 512H325.2L328.1 509.1C332.2 505 332.2 499 328.1 494.9L325.2 492H153.5C107.8 492 91.9001 491.7 92.2001 490.9C92.4001 490.2 104.5 464.8 119 434.4L145.5 379.1L172.2 379H198.9L216.8 401.7L234.8 424.5L219.8 425C204.9 425.5 204.8 425.5 202.4 428.3C198.3 433.1 199.5 441.1 205 444.3C207.5 445.8 212.8 446 256 446C299.2 446 304.5 445.8 307 444.3C312.5 441.1 313.7 433.1 309.6 428.3C307.2 425.5 307.1 425.5 292.2 425L277.2 424.5L295.2 401.8L313.1 379H339.8L366.5 379.1L392.7 433.8C407.1 463.9 419.2 489.3 419.6 490.3C420.2 491.9 416.5 492 358.5 492H296.8L293.9 494.9C289.8 499 289.8 505 293.9 509.1L296.8 512H369.2C449.7 512 444.9 512.4 447.1 505.1C448.5 500.4 451.9 508.1 412.8 426.8C389.9 379.1 380.9 361.4 379.1 360.1C377 358.8 372.7 358.4 353.3 358L330.1 357.5L345.1 338.5C389.1 283.1 407.8 253.8 418 224.5C435.8 173.5 428.9 121.2 398.3 75C389 61 369.3 40.8 355 30.8C337 18 313.4 7.90002 290.4 2.90002C282.4 1.10004 276.5 0.700012 259 0.400024C247.2 0.300018 234.7 0.600037 231.3 1.10004ZM269.6 21.4C300.5 23.3 335.1 38.9 359.2 61.8C386.3 87.6 402.3 120.3 406 157.5C410 197.9 394.8 238.2 356.3 289.3C341.6 308.9 256.8 416 256 416C255.1 416 167.9 305.7 154.8 288C116.4 236.2 102 197.8 106 157.5C109.7 120.4 125.7 87.6 152.6 62C177.7 38.1 210.9 23.5 245 21.1C250.8 20.7 256.9 20.5 258.5 20.7C260.2 20.8 265.1 21.1 269.6 21.4Z" fill="black"/>
<path d="M247.5 67.5996C221.1 70.5996 201.7 79.4996 183.7 96.8996C170.9 109.3 162 124.1 156.3 142.5C153.8 151 153.6 152.6 153.6 170.5C153.6 188.4 153.8 190 156.3 198.5C165.4 228.4 185.1 251.3 212.4 264C239.8 276.8 272.2 276.8 299.6 264C326.9 251.3 346.6 228.4 355.7 198.5C358.2 190 358.4 188.4 358.4 170.5C358.4 152.6 358.2 151 355.7 142.5C346.6 112.7 326.9 89.6996 299.7 76.9996C284.1 69.6996 263 65.8996 247.5 67.5996ZM276.1 90.9996C285.6 93.4996 291.7 96.0996 300.4 101.7C335 124 347.9 168.2 330.5 204.9C319.5 228 299.7 244.1 274.5 250.5C259.8 254.3 239.7 252.6 224.5 246.3C203.2 237.5 185.5 218.3 177.8 195.6C175.1 187.7 174.6 184.8 174.2 173.4C173.8 162.4 174.1 159 175.9 151.9C184.6 117.6 212.8 92.7996 248 88.5996C254.3 87.8996 268.3 89.0996 276.1 90.9996Z" fill="black"/>
</g>
<defs>
<clipPath id="clip0_203_450">
<rect width="512" height="512" fill="white"/>
</clipPath>
</defs>
</svg>
