<svg width="512" height="512" viewBox="0 0 512 512" fill="none" xmlns="http://www.w3.org/2000/svg">
<g clip-path="url(#clip0_230_1332)">
<path d="M18.2901 359.821C18.2811 359.871 18.2811 359.922 18.2901 359.971L18.1001 359.781L18.2901 359.821Z" fill="black"/>
<path d="M64.49 351.961C64.4946 355.555 63.4823 359.077 61.57 362.121H45.33H44.74C38.0241 362.014 31.5545 359.575 26.44 355.221C25.1606 354.151 23.9792 352.97 22.91 351.691C18.5604 346.569 16.1187 340.099 16 333.381C16 333.191 16 332.991 16 332.791V316.551C19.0449 314.637 22.5684 313.621 26.165 313.621C29.7616 313.621 33.2851 314.637 36.33 316.551V341.821H44.55C44.81 341.821 45.07 341.821 45.33 341.821H61.56C63.4747 344.856 64.4906 348.372 64.49 351.961V351.961Z" fill="black"/>
<path d="M26.16 304.621C22.6834 304.614 19.2367 305.262 16 306.531V332.791C16.0828 330.15 17.1901 327.646 19.0874 325.807C20.9846 323.968 23.523 322.94 26.165 322.94C28.807 322.94 31.3454 323.968 33.2426 325.807C35.1399 327.646 36.2472 330.15 36.33 332.791V306.521C33.0875 305.262 29.6386 304.617 26.16 304.621V304.621ZM71.59 341.791H45.33C45.07 341.791 44.81 341.791 44.55 341.791H45.33C48.0219 341.791 50.6036 342.861 52.5071 344.764C54.4106 346.667 55.48 349.249 55.48 351.941C55.48 354.633 54.4106 357.215 52.5071 359.118C50.6036 361.022 48.0219 362.091 45.33 362.091H71.58C72.8491 358.854 73.497 355.408 73.49 351.931C73.4902 348.463 72.8459 345.024 71.59 341.791V341.791ZM18.29 359.791H18.14L18.33 359.981C18.3062 359.931 18.2926 359.877 18.29 359.821V359.791Z" fill="black"/>
<path d="M132.15 347.018L141.05 353.938C140.674 357.505 139.305 360.895 137.099 363.724C134.893 366.552 131.938 368.705 128.57 369.938L118.5 362.118H45.3302H44.7402C38.0244 362.011 31.5547 359.572 26.4402 355.218C26.2507 354.145 26.157 353.058 26.1602 351.968C26.1553 348.716 26.9851 345.518 28.5702 342.678C30.3002 339.538 32.8737 336.943 36.0002 335.188L36.2902 335.028V341.818H44.5102C44.7702 341.818 45.0302 341.818 45.2902 341.818H111.78V170.468H36.3102V177.218L36.0402 177.068C32.9017 175.324 30.3141 172.737 28.5702 169.598C26.9851 166.759 26.1553 163.56 26.1602 160.308C26.1569 159.222 26.2506 158.138 26.4402 157.068C28.7085 155.144 31.2581 153.58 34.0002 152.428C37.4018 150.992 41.0483 150.224 44.7402 150.168C44.9368 150.158 45.1337 150.158 45.3302 150.168H118.49L128.57 142.328C131.944 143.567 134.903 145.728 137.109 148.566C139.315 151.403 140.681 154.803 141.05 158.378L132.15 165.308V347.018Z" fill="black"/>
<path d="M141.05 353.912L132.15 346.992V351.992C132.137 354.678 131.062 357.25 129.161 359.147C127.26 361.045 124.686 362.114 122 362.122H118.5L128.57 369.952L136.47 376.102C142.5 372.486 146.967 366.753 149 360.022L141.05 353.912ZM42.9198 170.182L43.0798 170.472H45.3098C44.5043 170.473 43.7017 170.375 42.9198 170.182V170.182ZM42.9198 170.182L43.0798 170.472H45.3098C44.5043 170.473 43.7017 170.375 42.9198 170.182V170.182ZM42.9198 170.182L43.0798 170.472H45.3098C44.5043 170.473 43.7017 170.375 42.9198 170.182V170.182ZM37.5698 358.522C36.0107 356.688 35.1563 354.359 35.1598 351.952C35.159 351.143 35.2564 350.337 35.4498 349.552C35.8923 347.742 36.8228 346.089 38.14 344.772C39.4571 343.455 41.1104 342.524 42.9198 342.082C43.4548 341.949 44.0001 341.862 44.5498 341.822H36.3298V325.272C35.5058 325.543 34.6978 325.86 33.9098 326.222C27.5293 329.054 22.4266 334.153 19.5898 340.532C19.0615 341.693 18.6235 342.893 18.2798 344.122C19.4265 346.861 20.9881 349.408 22.9098 351.672C23.979 352.951 25.1604 354.133 26.4398 355.202C31.5542 359.556 38.0239 361.995 44.7398 362.102C43.3641 362.024 42.0189 361.666 40.7861 361.05C39.5533 360.435 38.459 359.574 37.5698 358.522V358.522ZM36.3098 170.522H45.3098C44.5043 170.523 43.7017 170.425 42.9198 170.232C41.1112 169.791 39.4582 168.863 38.141 167.547C36.8238 166.232 35.8929 164.58 35.4498 162.772C35.0987 161.324 35.0698 159.818 35.3652 158.358C35.6605 156.898 36.2729 155.521 37.1591 154.324C38.0452 153.127 39.1835 152.139 40.4934 151.43C41.8033 150.721 43.2529 150.309 44.7398 150.222C41.0511 150.262 37.4047 151.013 33.9998 152.432C31.2576 153.583 28.708 155.148 26.4398 157.072C25.1638 158.138 23.9858 159.316 22.9198 160.592C20.9961 162.86 19.4313 165.41 18.2798 168.152C18.628 169.376 19.0658 170.572 19.5898 171.732C22.4322 178.098 27.5293 183.188 33.8998 186.022C34.6912 186.384 35.5025 186.701 36.3298 186.972V179.452C36.3298 179.232 36.3298 179.012 36.3298 178.802L36.3098 170.522ZM136.47 136.222L128.57 142.362L118.49 150.202H122C124.694 150.205 127.278 151.275 129.185 153.18C131.091 155.085 132.164 157.667 132.17 160.362V165.362L141.07 158.432L148.98 152.282C146.964 145.54 142.502 139.794 136.47 136.172V136.222ZM42.9198 170.222L43.0798 170.512H45.3098C44.5026 170.5 43.7 170.389 42.9198 170.182V170.222ZM42.9198 170.222L43.0798 170.512H45.3098C44.5026 170.5 43.7 170.389 42.9198 170.182V170.222ZM42.9198 170.222L43.0798 170.512H45.3098C44.5026 170.5 43.7 170.389 42.9198 170.182V170.222Z" fill="black"/>
<path d="M36.3302 341.819H43.0602C43.0195 341.908 42.9727 341.995 42.9202 342.079C41.2626 345.071 38.8339 347.564 35.8865 349.3C32.9391 351.036 29.5807 351.95 26.1602 351.949C25.0706 351.952 23.983 351.859 22.9102 351.669C18.5649 346.552 16.1235 340.09 16.0002 333.379C16.0002 333.189 16.0002 332.989 16.0002 332.789V179.469C15.9902 179.272 15.9902 179.075 16.0002 178.879C16.0554 175.19 16.8228 171.546 18.2602 168.149C19.4117 165.407 20.9765 162.857 22.9002 160.589C23.9697 160.399 25.054 160.305 26.1402 160.309C29.5594 160.313 32.9154 161.231 35.8616 162.966C38.8079 164.701 41.2377 167.191 42.9002 170.179L43.0602 170.469H36.3102V178.819C36.3102 179.029 36.3102 179.249 36.3102 179.469L36.3302 341.819Z" fill="black"/>
<path d="M36 335.19L36.29 335.03V332.82C36.2909 333.619 36.1935 334.415 36 335.19V335.19ZM36 335.19L36.29 335.03V332.82C36.2909 333.619 36.1935 334.415 36 335.19V335.19ZM36 335.19L36.29 335.03V332.82C36.2909 333.619 36.1935 334.415 36 335.19V335.19ZM36 335.19L36.29 335.03V332.82C36.2909 333.619 36.1935 334.415 36 335.19V335.19ZM36 335.19L36.29 335.03V332.82C36.2909 333.619 36.1935 334.415 36 335.19V335.19ZM36 335.19L36.29 335.03V332.82C36.2909 333.619 36.1935 334.415 36 335.19V335.19ZM36 335.19L36.29 335.03V332.82C36.2909 333.619 36.1935 334.415 36 335.19V335.19ZM36 335.19L36.29 335.03V332.82C36.2909 333.619 36.1935 334.415 36 335.19V335.19ZM51.9 168.02C49.0632 161.641 43.9605 156.542 37.58 153.71C36.4196 153.196 35.2231 152.768 34 152.43C31.2578 153.581 28.7083 155.146 26.44 157.07C25.164 158.136 23.986 159.314 22.92 160.59C20.9963 162.858 19.4315 165.408 18.28 168.15C16.8357 171.546 16.0615 175.19 16 178.88C16.1726 176.311 17.3126 173.904 19.1902 172.143C21.0677 170.383 23.543 169.399 26.117 169.392C28.691 169.384 31.1721 170.353 33.06 172.102C34.948 173.852 36.1022 176.253 36.29 178.82V170.47H52.85C52.5804 169.636 52.2633 168.818 51.9 168.02ZM45.33 341.79C45.07 341.79 44.81 341.79 44.55 341.79H36.33V332.79C36.3309 333.589 36.2335 334.385 36.04 335.16C35.5975 336.969 34.667 338.622 33.3498 339.939C32.0327 341.257 30.3794 342.187 28.57 342.63C27.1243 342.984 25.6186 343.016 24.159 342.725C22.6995 342.433 21.3217 341.825 20.1229 340.943C18.9241 340.061 17.9335 338.926 17.2212 337.619C16.5088 336.312 16.0919 334.865 16 333.38C16.1177 340.089 18.552 346.551 22.89 351.67C23.9592 352.949 25.1406 354.13 26.42 355.2C28.6948 357.124 31.2512 358.689 34 359.84C35.2283 359.491 36.4284 359.05 37.59 358.52C43.967 355.692 49.0691 350.601 51.91 344.23C52.2891 343.436 52.623 342.621 52.91 341.79H45.33ZM36 335.19L36.29 335.03V332.82C36.2909 333.619 36.1935 334.415 36 335.19V335.19ZM36 335.19L36.29 335.03V332.82C36.2909 333.619 36.1935 334.415 36 335.19V335.19ZM36 335.19L36.29 335.03V332.82C36.2909 333.619 36.1935 334.415 36 335.19V335.19ZM36 335.19L36.29 335.03V332.82C36.2909 333.619 36.1935 334.415 36 335.19V335.19ZM36 335.19L36.29 335.03V332.82C36.2909 333.619 36.1935 334.415 36 335.19V335.19ZM36 335.19L36.29 335.03V332.82C36.2909 333.619 36.1935 334.415 36 335.19V335.19ZM36 335.19L36.29 335.03V332.82C36.2909 333.619 36.1935 334.415 36 335.19V335.19ZM36 335.19L36.29 335.03V332.82C36.2909 333.619 36.1935 334.415 36 335.19V335.19ZM36 335.19L36.29 335.03V332.82C36.2909 333.619 36.1935 334.415 36 335.19V335.19Z" fill="black"/>
<path d="M18.2899 152.44C18.2438 152.43 18.196 152.43 18.1499 152.44L18.3299 152.27C18.3108 152.293 18.2973 152.32 18.2904 152.35C18.2834 152.379 18.2833 152.41 18.2899 152.44Z" fill="black"/>
<path d="M64.4901 160.312C64.4948 163.906 63.4825 167.428 61.5701 170.472H36.3101V178.822C36.3101 179.032 36.3101 179.252 36.3101 179.472V195.712C33.264 197.622 29.741 198.636 26.1451 198.636C22.5493 198.636 19.0263 197.622 15.9801 195.712V179.472C15.9702 179.275 15.9702 179.078 15.9801 178.882C16.0353 175.193 16.8027 171.549 18.2401 168.152C19.3917 165.409 20.9565 162.86 22.8801 160.592C23.9461 159.316 25.1242 158.138 26.4001 157.072C28.6806 155.144 31.2439 153.579 34.0001 152.432C37.4016 150.995 41.0482 150.228 44.7401 150.172C44.9367 150.162 45.1336 150.162 45.3301 150.172H61.5701C63.4788 153.209 64.491 156.724 64.4901 160.312Z" fill="black"/>
<path d="M18.1501 152.478C18.1962 152.468 18.244 152.468 18.2901 152.478C18.2756 152.436 18.2756 152.391 18.2901 152.348L18.1501 152.478ZM36.3101 178.818V179.468C36.3528 180.829 36.1217 182.184 35.6306 183.453C35.1395 184.723 34.3983 185.88 33.4511 186.858C32.5039 187.835 31.37 188.612 30.1167 189.143C28.8634 189.674 27.5162 189.947 26.1551 189.947C24.7941 189.947 23.4469 189.674 22.1935 189.143C20.9402 188.612 19.8063 187.835 18.8591 186.858C17.9119 185.88 17.1707 184.723 16.6796 183.453C16.1885 182.184 15.9574 180.829 16.0001 179.468V205.738C22.54 208.272 29.7902 208.272 36.3301 205.738V179.468C36.3301 179.248 36.3201 179.018 36.3101 178.818ZM71.5901 150.148H45.3301C48.0247 150.148 50.609 151.219 52.5143 153.124C54.4197 155.03 55.4901 157.614 55.4901 160.308C55.4901 163.003 54.4197 165.587 52.5143 167.493C50.609 169.398 48.0247 170.468 45.3301 170.468H71.5901C74.1239 163.932 74.1239 156.685 71.5901 150.148Z" fill="black"/>
<path d="M304.57 469.728V486.168C304.57 486.378 304.57 486.588 304.57 486.798V487.088C304.57 487.268 304.57 487.458 304.5 487.638C304.43 487.818 304.5 487.898 304.43 488.018C304.365 488.391 304.274 488.758 304.16 489.118C304.11 489.278 304.06 489.428 304 489.588C303.94 489.748 303.83 490.038 303.73 490.258L303.52 490.698C303.43 490.889 303.326 491.073 303.21 491.248L303.11 491.418C303.04 491.538 302.96 491.658 302.88 491.778L302.6 492.168C302.569 492.225 302.532 492.279 302.49 492.328C302.432 492.409 302.368 492.486 302.3 492.558L301.97 492.938L301.64 493.278C301.292 493.636 300.922 493.97 300.53 494.278L300.13 494.558C300.01 494.648 299.87 494.728 299.74 494.808L299.67 494.858L299.29 495.068C298.552 495.473 297.766 495.782 296.95 495.988L296.5 496.088C296.206 496.15 295.909 496.197 295.61 496.228C295.225 496.277 294.838 496.3 294.45 496.298V496.298H293.76H293.5L292.93 496.218L292.55 496.148C292.177 496.083 291.81 495.993 291.45 495.878L290.98 495.718L290.33 495.458L289.65 495.118L289.06 494.768C288.84 494.628 288.62 494.478 288.42 494.328C288.361 494.292 288.304 494.251 288.25 494.208L288.03 494.028L275.33 484.158L266.33 477.158L136.56 376.158L128.66 370.008L118.5 362.118H105.73C103.826 359.07 102.816 355.547 102.816 351.953C102.816 348.359 103.826 344.837 105.73 341.788H111.82V335.698C114.868 333.792 118.39 332.781 121.985 332.781C125.58 332.781 129.102 333.792 132.15 335.698V347.018L141.05 353.938L149 360.018L266.29 451.268L284.29 465.268V453.868L304.57 469.728Z" fill="black"/>
<path d="M111.82 325.701V341.791H95.6998C93.1912 348.335 93.1912 355.576 95.6998 362.121H118.5L115.74 360.021C114.686 359.196 113.804 358.171 113.146 357.005C112.488 355.839 112.066 354.555 111.905 353.226C111.743 351.897 111.845 350.55 112.205 349.26C112.564 347.971 113.174 346.765 114 345.711C114.95 344.495 116.164 343.511 117.55 342.832C118.935 342.153 120.457 341.797 122 341.791C124.254 341.788 126.444 342.541 128.22 343.931L132.15 346.991V325.681C125.605 323.167 118.36 323.174 111.82 325.701V325.701ZM284.24 442.501V465.311L300.65 478.081C301.706 478.897 302.589 479.915 303.248 481.076C303.907 482.236 304.329 483.516 304.49 484.841C304.541 485.259 304.568 485.68 304.57 486.101V458.321L284.24 442.501Z" fill="black"/>
<path d="M304.57 26.14V42.53L284.24 58.35V46.95L275.24 53.95L266.24 60.95L149 152.21L141.09 158.36L132.19 165.29V176.55C129.14 178.452 125.619 179.46 122.025 179.46C118.431 179.46 114.909 178.452 111.86 176.55V170.45H105.77C103.866 167.403 102.856 163.883 102.856 160.29C102.856 156.697 103.866 153.177 105.77 150.13H118.53L128.61 142.29L136.51 136.15L266.28 35.15L275.28 28.15L287.98 18.27L288.37 17.97C288.54 17.84 288.72 17.72 288.9 17.6C289.08 17.48 289.36 17.31 289.6 17.18L290.28 16.84L290.93 16.58C291.073 16.5211 291.22 16.471 291.37 16.43C291.74 16.3121 292.117 16.2185 292.5 16.15L292.88 16.08L293.45 16H293.71H294.38H295C295.22 16 295.43 16 295.64 16.06L296.13 16.14L296.63 16.24C296.792 16.2706 296.952 16.3106 297.11 16.36C297.216 16.3793 297.32 16.4095 297.42 16.45C297.57 16.4895 297.717 16.5396 297.86 16.6C298.24 16.74 298.61 16.9 298.96 17.07C299.186 17.1813 299.407 17.3049 299.62 17.44H299.69C299.955 17.5959 300.209 17.7697 300.45 17.96C300.669 18.119 300.879 18.2892 301.08 18.47C301.24 18.61 301.4 18.76 301.56 18.92L301.78 19.15C301.96 19.34 302.14 19.54 302.31 19.75L302.52 20.03L302.8 20.42L303.04 20.79C303.16 20.99 303.28 21.2 303.39 21.42C303.5 21.64 303.57 21.76 303.65 21.94C303.73 22.12 303.85 22.42 303.94 22.66L304.06 23.01C304.181 23.3969 304.278 23.791 304.35 24.19C304.35 24.31 304.4 24.43 304.42 24.56C304.425 24.6065 304.425 24.6535 304.42 24.7C304.42 24.86 304.42 25.03 304.48 25.19C304.54 25.35 304.48 25.31 304.48 25.37C304.56 25.66 304.57 25.9 304.57 26.14Z" fill="black"/>
<path d="M128.24 168.33C126.105 169.802 123.49 170.403 120.927 170.01C118.365 169.618 116.049 168.262 114.453 166.219C112.857 164.176 112.101 161.6 112.34 159.019C112.579 156.438 113.795 154.045 115.74 152.33L118.49 150.19H95.7198C93.2099 156.731 93.2099 163.969 95.7198 170.51H111.83V186.63C118.375 189.137 125.615 189.137 132.16 186.63V165.33L128.24 168.33ZM300.64 34.1902L284.24 46.9502V69.7602L304.57 53.9402V26.1602C304.573 27.7102 304.221 29.2404 303.54 30.6327C302.858 32.0249 301.866 33.242 300.64 34.1902Z" fill="black"/>
<path d="M369.45 370.948C368.611 371.986 367.576 372.849 366.403 373.487C365.23 374.125 363.944 374.526 362.616 374.666C361.289 374.807 359.947 374.685 358.667 374.307C357.386 373.929 356.193 373.302 355.155 372.463C354.117 371.624 353.254 370.589 352.616 369.416C351.978 368.244 351.578 366.957 351.437 365.629C351.296 364.302 351.418 362.96 351.796 361.68C352.174 360.399 352.801 359.206 353.64 358.168C401.4 299.038 401.4 213.168 353.64 154.078C351.945 151.982 351.153 149.298 351.437 146.617C351.721 143.936 353.059 141.478 355.155 139.783C357.252 138.088 359.936 137.296 362.616 137.58C365.297 137.864 367.755 139.202 369.45 141.298C423.22 207.828 423.22 304.408 369.45 370.948Z" fill="black"/>
<path d="M304.57 26.1408V486.141C304.57 486.351 304.57 486.561 304.57 486.771V487.061C304.57 487.241 304.57 487.431 304.5 487.611C304.43 487.791 304.5 487.871 304.43 487.991C304.365 488.363 304.275 488.731 304.16 489.091C304.11 489.251 304.06 489.401 304 489.561C303.94 489.721 303.83 490.011 303.73 490.231L303.52 490.671C303.43 490.861 303.327 491.045 303.21 491.221L303.11 491.391C303.04 491.511 302.96 491.631 302.88 491.751L302.6 492.141C302.569 492.198 302.532 492.252 302.49 492.301C302.432 492.382 302.369 492.459 302.3 492.531L301.97 492.911L301.64 493.251C301.293 493.608 300.922 493.942 300.53 494.251L300.13 494.531C300.01 494.621 299.87 494.701 299.74 494.781L299.67 494.831L299.29 495.041C298.552 495.446 297.766 495.755 296.95 495.961L296.5 496.061C296.206 496.123 295.909 496.17 295.61 496.201C295.225 496.249 294.838 496.273 294.45 496.271V496.271H293.76H293.5L292.93 496.191L292.55 496.121C292.178 496.056 291.81 495.965 291.45 495.851L290.98 495.691L290.33 495.431L289.65 495.091L289.06 494.741C288.84 494.601 288.62 494.451 288.42 494.301C288.361 494.264 288.304 494.224 288.25 494.181L288.03 494.001L275.33 484.131V458.311L284.33 465.311V46.9508L275.33 53.9508V28.2008L288.03 18.3208L288.42 18.0208C288.59 17.8908 288.77 17.7708 288.95 17.6508C289.13 17.5308 289.41 17.3608 289.65 17.2308L290.33 16.8908L290.98 16.6308C291.124 16.5719 291.271 16.5218 291.42 16.4808C291.79 16.3628 292.168 16.2693 292.55 16.2008L292.93 16.1308L293.5 16.0508H293.76H294.43H295.05C295.27 16.0508 295.48 16.0508 295.69 16.1108L296.18 16.1908L296.68 16.2908C296.842 16.3213 297.003 16.3614 297.16 16.4108C297.266 16.4301 297.37 16.4603 297.47 16.5008C297.62 16.5402 297.767 16.5904 297.91 16.6508C298.29 16.7908 298.66 16.9508 299.01 17.1208C299.237 17.2321 299.457 17.3556 299.67 17.4908H299.74C300.005 17.6467 300.259 17.8204 300.5 18.0108C300.719 18.1697 300.929 18.34 301.13 18.5208C301.29 18.6608 301.45 18.8108 301.61 18.9708L301.83 19.2008C302.01 19.3908 302.19 19.5908 302.36 19.8008L302.57 20.0808L302.85 20.4708L303.09 20.8408C303.21 21.0408 303.33 21.2508 303.44 21.4708C303.55 21.6908 303.62 21.8108 303.7 21.9908C303.78 22.1708 303.9 22.4708 303.99 22.7108L304.11 23.0608C304.231 23.4476 304.328 23.8418 304.4 24.2408C304.4 24.3608 304.45 24.4808 304.47 24.6108C304.476 24.6573 304.476 24.7043 304.47 24.7508C304.47 24.9108 304.47 25.0808 304.53 25.2408C304.59 25.4008 304.53 25.3608 304.53 25.4208C304.56 25.6608 304.57 25.9008 304.57 26.1408Z" fill="black"/>
<path d="M284.24 486.1V465.31L266.24 451.31V477.07L275.24 484.07L287.94 493.94C286.783 492.987 285.852 491.79 285.212 490.435C284.572 489.079 284.241 487.599 284.24 486.1V486.1ZM287.94 493.94L288.16 494.12C288.215 494.164 288.271 494.204 288.33 494.24L287.94 493.94ZM302.25 492.56C302.319 492.488 302.382 492.411 302.44 492.33C302.483 492.281 302.519 492.227 302.55 492.17L302.25 492.56ZM275.25 28.2003L266.25 35.2003V60.9603L275.25 53.9603L284.25 46.9603V26.1603C284.251 24.6615 284.582 23.1813 285.222 21.8259C285.862 20.4704 286.793 19.2733 287.95 18.3203L275.25 28.2003Z" fill="black"/>
<path d="M455.69 370.948C454.851 371.986 453.815 372.849 452.643 373.487C451.47 374.125 450.184 374.526 448.856 374.666C447.529 374.807 446.187 374.685 444.906 374.307C443.626 373.929 442.433 373.302 441.395 372.463C440.357 371.624 439.494 370.589 438.856 369.416C438.218 368.244 437.817 366.957 437.677 365.629C437.536 364.302 437.658 362.96 438.036 361.68C438.414 360.399 439.041 359.206 439.88 358.168C487.64 299.038 487.64 213.168 439.88 154.078C438.185 151.982 437.393 149.298 437.677 146.617C437.961 143.936 439.298 141.478 441.395 139.783C443.491 138.088 446.175 137.296 448.856 137.58C451.537 137.864 453.995 139.202 455.69 141.298C509.46 207.828 509.46 304.408 455.69 370.948Z" fill="black"/>
</g>
<defs>
<clipPath id="clip0_230_1332">
<rect width="480.02" height="480.26" fill="white" transform="translate(16 16)"/>
</clipPath>
</defs>
</svg>
