<svg width="512" height="512" viewBox="0 0 512 512" fill="none" xmlns="http://www.w3.org/2000/svg">
<g clip-path="url(#clip0_226_230)">
<path d="M99.5 53.4C96 54.3 90.8 58.8 89.4 62.3C88.2 65.1 88 79 88 142.2V268.9L90.9 271.8C95.1 276 100.8 275.9 104.4 271.6L107 268.5V71.7H182V300.7H107V246.5L104.1 243.6C101.9 241.5 100.2 240.7 97.5 240.7C94.8 240.7 93.1 241.5 90.9 243.6L88 246.5V388.7H56.2C21.4 388.7 17.2 389.2 9.8 394.3C7.09892 396.352 4.73682 398.815 2.8 401.6C0 406.1 0 406.1 0 423.7V441.4L3 446C7.14091 451.73 13.1542 455.834 20 457.6C22.9 458.3 61.7 458.7 132.3 458.7C338.3 458.7 334.2 458.9 337 453.8C339.2 449.5 337.5 442.8 333.6 440.8C332.1 440 210.4 439.6 132.2 439.4L22.8 439.2L19.9 435.9C17.2 432.8 17 432.2 17 423.7C17 415.2 17.2 414.6 19.9 411.5L22.8 408.2H489.2L492.1 411.5C494.8 414.6 495 415.2 495 423.7C495 432.2 494.8 432.8 492.1 435.9L489.2 439.2L379.8 439.4C301.6 439.6 269.9 440 268.4 440.8C264.5 442.8 262.8 449.5 265 453.8C267.8 458.9 263.8 458.7 379.4 458.7C451.6 458.7 488.5 458.4 491.9 457.6C498 456.3 505.5 451.1 509.2 445.6L512 441.4V406.1L509.2 401.6C507.296 398.85 504.967 396.419 502.3 394.4C494.7 389.1 491.4 388.7 457.6 388.6C430.1 388.5 427 388.4 431.3 387.2C433.847 386.503 436.299 385.496 438.6 384.2C441.3 382.5 444.9 375.6 445 372.3C445 369.4 385.1 140.7 383.3 137C381.5 133.3 376.6 129.8 371.7 129C369.4 128.7 357.6 131.3 331.8 138.1C311.6 143.4 294.9 147.7 294.6 147.7C294.3 147.7 294 135.2 294 119.8C294 92.6 294 91.9 291.7 88.7C290.185 86.5331 288.246 84.696 286 83.3C282.6 81.3 280.8 81.2 241.9 80.9L201.2 80.6L200.8 72.3C200.3 62.7 198.3 58.4 193 55.2C189.6 53.3 187.8 53.2 145.5 53C121.3 53 100.6 53.1 99.5 53.4ZM275 204.7V309.7H201V99.7H275V204.7ZM380.2 198.3C387.2 225.2 395.2 255.5 397.8 265.7L402.7 284.3L366.8 293.7C347.1 298.8 330.8 302.9 330.6 302.6C330.1 302.1 295.9 171.8 295.7 169.3C295.5 167.6 299.6 166.3 330.5 158.2C349.8 153.1 365.9 149 366.4 149.1C366.9 149.2 373.1 171.3 380.2 198.3ZM313.5 314.2C323.7 353.2 332.3 386 332.6 386.9C333.1 388.6 331.7 388.7 313.6 388.7H294L294.1 314.9C294.1 274.4 294.3 241.6 294.6 242.2C294.9 242.8 303.3 275.1 313.5 314.2ZM409.9 311.8C411.3 317 411.9 321.2 411.4 321.7C410.5 322.5 340.9 340.9 340.4 340.4C340.3 340.3 339.1 336 337.7 331L335.1 321.7L337.4 321.1C338.7 320.8 354.7 316.6 373.1 311.7C391.5 306.8 406.7 302.8 407 302.8C407.3 302.8 408.6 306.8 409.9 311.8ZM182 329.7V339.7H107V319.7H182V329.7ZM275 338.7V348.7H201V328.7H275V338.7ZM421.2 354.7C423.2 362.4 424.5 368.9 424.2 369.1C422.9 369.8 352.9 387.9 352.6 387.6C352.5 387.4 350.7 381 348.7 373.3L345.1 359.5L347.3 358.9C358.2 355.8 414.8 340.9 416 340.8C417.2 340.7 418.4 344.3 421.2 354.7ZM182 373.7V388.7H107V358.7H182V373.7ZM275 378.2V388.7H201V367.7H275V378.2Z" fill="black" stroke="black" stroke-width="0.5" stroke-miterlimit="10"/>
</g>
<defs>
<clipPath id="clip0_226_230">
<rect width="512" height="512" fill="white"/>
</clipPath>
</defs>
</svg>
