<svg width="512" height="512" viewBox="0 0 512 512" fill="none" xmlns="http://www.w3.org/2000/svg">
<path d="M205 266C181.9 269.3 157.8 281.7 142 298.7C136.8 304.2 127.2 317.4 125.8 320.8C125.5 321.7 112.7 330 111.8 330C111.5 330 110.3 327.2 109 323.7C107.8 320.3 105.9 316.5 104.8 315.3C100.6 310.7 99.6 310.9 53.7 326.5C7.4 342.3 5 343.4 5 349.8C5 352 47.7 478.8 55.2 498.8C57.2 504.1 60.6 507 64.9 507C66 507 86.1 500.5 109.7 492.5C146.4 480 152.9 477.5 155.3 475C158.4 471.6 158.6 469.1 156.5 463.1C155.1 459.1 155.2 459 157.3 458.6C158.5 458.3 186.3 457.4 219 456.5C298.2 454.3 313.5 453.6 326.1 450.9C346.7 446.7 366.8 438.5 383.3 427.7C397.5 418.4 487.3 354.2 492.5 349.6C504.3 339.3 509.7 321.7 505.6 306.5C498.9 281.4 473.6 267.7 448.6 275.7C445.6 276.7 430.8 285.8 411.1 298.9C393.2 310.9 378 320.9 377.3 321.3C376.6 321.7 375.1 320 373.2 316.8C369.4 309.9 361.4 302.5 354.5 299.4C346.8 295.8 339.6 295 315.2 295H293.8L289.2 290.9C271.6 275.4 248.2 266.4 223.5 265.5C216.9 265.3 208.6 265.5 205 266ZM240.5 287.8C254.9 291.6 265.6 297.4 277.7 307.9L285.9 315H311.8C332.2 315 338.7 315.3 342.8 316.5C358.8 321.3 363.6 341.6 351.3 353.2C345.2 359 345.1 359 295.9 359C257.3 359 250.3 359.2 247.5 360.5C241.4 363.5 240.1 371.2 245 376.1L247.9 379.1L297.7 378.8L347.5 378.5L354.1 375.4C365.3 370.1 372.9 361.6 376.5 350.4L378.2 345.2L415.8 320.2C456.9 292.8 458.9 291.8 467.9 294C485.4 298.2 492.6 318.7 481.4 331.9C477.5 336.4 377.4 408 364.8 415.3C348.9 424.4 326.2 431.7 308.5 433.4C301.9 434.1 148.8 439.1 148.4 438.7C148.3 438.6 141.6 419.4 133.7 396C125.7 372.6 118.8 352.8 118.5 351.9C118 350.6 120.4 348.7 129.1 343.4C136.3 339 140.9 335.5 141.9 333.7C159.4 301.7 189.2 284 223 285.5C228.8 285.8 236.7 286.8 240.5 287.8ZM112.9 397.8C124.7 432.3 134.5 460.9 134.7 461.5C135 462.4 72.1 484.5 71.4 483.7C70.8 483.2 28.7 359.5 28.6 358.1C28.5 357.1 38.1 353.4 59.5 345.9C76.6 340 90.7 335.2 91 335.1C91.3 335.1 101.1 363.2 112.9 397.8Z" fill="black"/>
<path d="M354.786 238.223C365.311 235.863 375.35 231.703 384.459 225.924L390.907 232.36C391.712 233.166 392.668 233.805 393.72 234.242C394.772 234.678 395.899 234.903 397.038 234.903C398.177 234.903 399.305 234.678 400.357 234.242C401.409 233.805 402.365 233.166 403.169 232.36L420.357 215.191C421.974 213.56 422.882 211.356 422.882 209.059C422.882 206.762 421.974 204.558 420.357 202.927L413.943 196.512C419.702 187.392 423.861 177.355 426.24 166.834H435.322C437.62 166.827 439.822 165.911 441.448 164.287C443.073 162.662 443.991 160.461 444 158.162V133.831C443.996 131.53 443.081 129.325 441.454 127.698C439.828 126.071 437.623 125.155 435.322 125.152H426.24C423.861 114.633 419.702 104.598 413.943 95.481L420.357 89.0591C421.974 87.4283 422.882 85.2243 422.882 82.9272C422.882 80.6302 421.974 78.4262 420.357 76.7953L403.134 59.6331C402.33 58.827 401.374 58.1875 400.322 57.7512C399.27 57.3149 398.142 57.0903 397.003 57.0903C395.865 57.0903 394.737 57.3149 393.685 57.7512C392.633 58.1875 391.677 58.827 390.872 59.6331L384.459 66.048C375.345 60.2744 365.308 56.1074 354.786 53.7283V44.679C354.782 42.3795 353.868 40.1752 352.242 38.5486C350.617 36.9219 348.414 36.0055 346.115 36H321.836C319.536 36.0037 317.331 36.9193 315.704 38.5461C314.078 40.1729 313.162 42.3783 313.158 44.679V53.7283C302.633 56.1109 292.592 60.2776 283.472 66.048L277.058 59.6331C276.253 58.827 275.297 58.1875 274.245 57.7512C273.193 57.3149 272.066 57.0903 270.927 57.0903C269.788 57.0903 268.66 57.3149 267.608 57.7512C266.556 58.1875 265.601 58.827 264.796 59.6331L247.622 76.8023C246.005 78.4331 245.097 80.6371 245.097 82.9342C245.097 85.2313 246.005 87.4353 247.622 89.0661L254.043 95.488C248.27 104.599 244.108 114.636 241.739 125.159H232.657C230.361 125.168 228.163 126.085 226.541 127.71C224.919 129.334 224.006 131.535 224 133.831V158.134C224.009 160.432 224.926 162.632 226.55 164.256C228.174 165.881 230.374 166.797 232.671 166.806H241.753C244.122 177.332 248.284 187.371 254.057 196.484L247.636 202.899C246.019 204.53 245.111 206.734 245.111 209.031C245.111 211.328 246.019 213.532 247.636 215.163L264.796 232.36C265.601 233.166 266.556 233.805 267.608 234.242C268.66 234.678 269.788 234.903 270.927 234.903C272.066 234.903 273.193 234.678 274.245 234.242C275.297 233.805 276.253 233.166 277.058 232.36L283.472 225.945C292.587 231.72 302.63 235.881 313.158 238.244V247.328C313.164 249.627 314.08 251.831 315.707 253.456C317.333 255.082 319.537 255.996 321.836 256H346.115C348.413 255.994 350.615 255.079 352.24 253.454C353.865 251.829 354.78 249.626 354.786 247.328V238.223Z" stroke="black" stroke-width="20" stroke-linecap="round" stroke-linejoin="round"/>
<path d="M354.786 238.193V194.176C364.258 190.697 372.586 184.673 378.855 176.766C385.124 168.86 389.091 159.377 390.319 149.361C391.546 139.346 389.988 129.186 385.814 119.999C381.641 110.812 375.014 102.955 366.664 97.2905C351.453 86.8872 354.381 103.327 354.381 106.101V139.078C354.368 144.616 352.259 149.943 348.478 153.988C344.697 158.034 339.524 160.498 334 160.884C328.475 160.498 323.301 158.034 319.518 153.989C315.735 149.944 313.622 144.617 313.606 139.078V106.101C313.606 103.306 316.554 86.8872 301.323 97.2905C292.968 102.952 286.337 110.808 282.16 119.996C277.984 129.184 276.424 139.346 277.652 149.363C278.88 159.381 282.848 168.865 289.121 176.772C295.393 184.679 303.725 190.701 313.201 194.176V238.193" stroke="black" stroke-width="20" stroke-linecap="round" stroke-linejoin="round"/>
</svg>
