<svg xmlns="http://www.w3.org/2000/svg" xmlns:xlink="http://www.w3.org/1999/xlink" viewBox="0 0 1898.51 385.22"><defs><style>.cls-1{fill:none;}.cls-2{fill:#332b67;}.cls-3{clip-path:url(#clip-path);}</style><clipPath id="clip-path" transform="translate(-11.49 -10.16)"><rect class="cls-1" width="1920" height="406"/></clipPath></defs><g id="Layer_2" data-name="Layer 2"><g id="Layer_1-2" data-name="Layer 1"><polyline class="cls-2" points="442.95 165.13 442.95 87.38 620.54 87.38 620.54 165.13 572.02 165.13 572.02 305.09 491.47 305.09 491.47 165.13"/><g class="cls-3"><path class="cls-2" d="M668.42,305.92a117.91,117.91,0,0,1-43.39-42,111.33,111.33,0,0,1,0-115.07,120.56,120.56,0,0,1,205.89,0,111.33,111.33,0,0,1,0,115.07,121.16,121.16,0,0,1-162.5,42m37.63-77.75a29.66,29.66,0,0,0,21.77,9,30.2,30.2,0,0,0,21.93-9,29.45,29.45,0,0,0,9.17-21.78,31.33,31.33,0,0,0-31.1-31.1,29.4,29.4,0,0,0-21.77,9.18,30.13,30.13,0,0,0-9,21.92,29.66,29.66,0,0,0,9,21.78" transform="translate(-11.49 -10.16)"/><polyline class="cls-2" points="841.98 165.13 841.98 87.38 1019.57 87.38 1019.57 165.13 971.05 165.13 971.05 305.09 890.5 305.09 890.5 165.13"/><polyline class="cls-2" points="1250.34 305.09 1163.57 305.09 1114.73 169.8 1091.41 232.62 1131.54 232.62 1157.65 305.09 980.69 305.09 1065.9 87.38 1163.57 87.38"/><polyline class="cls-2" points="1334.32 87.38 1334.32 226.4 1413.94 226.4 1413.94 305.09 1253.45 305.09 1253.45 87.38"/><rect class="cls-2" x="1422.33" y="87.38" width="80.86" height="217.71"/><polyline class="cls-2" points="1511.91 165.13 1511.91 87.38 1689.51 87.38 1689.51 165.13 1640.98 165.13 1640.98 305.09 1560.43 305.09 1560.43 165.13"/><polyline class="cls-2" points="1787.48 173.84 1770.99 144.92 1803.96 87.38 1898.51 87.38 1808.63 235.11 1808.63 305.09 1727.76 305.09 1727.76 235.73 1637.57 87.38 1732.43 87.38 1782.82 173.84"/><path class="cls-2" d="M204.09,10.16c106.36,0,192.62,86.26,192.62,192.61S310.45,395.38,204.09,395.38,11.49,309.13,11.49,202.77,97.74,10.16,204.09,10.16m-9,197.94,30.79,52.84h58l-79.72-131-79.73,131h57.78l20.14-35.16L192.22,208.1Z" transform="translate(-11.49 -10.16)"/></g></g></g></svg>