<svg width="512" height="512" viewBox="0 0 512 512" fill="none" xmlns="http://www.w3.org/2000/svg">
<path d="M231 5.69948C201.3 8.69948 173.5 16.7995 145.5 30.4995C120.3 42.7995 98.5 58.3995 78.5 78.4995C41.2 115.699 17.3 161.899 7.8 214.699C5.8 225.999 5.5 230.699 5.5 254.999C5.5 277.299 5.9 284.399 7.3 292.499C11.9 317.399 21.5 348.499 26.1 353.199C29.6 356.799 36.3 357.099 40.3 353.999C44.9 350.399 44.7 346.899 39.1 330.399C29.4 301.699 26 282.399 26 255.399C26.1 217.799 33.4 186.699 50.2 153.499C82.6 89.1995 143.3 43.0995 213.5 29.5995C244.1 23.6995 280.4 24.6995 310.6 32.3995C344.7 41.0995 379.6 58.8995 406.5 81.3995C409.4 83.7995 408.9 83.6995 397.5 79.9995C383 75.0995 379.9 74.9995 375.9 78.8995C371.6 83.1995 372.1 90.9995 376.9 94.6995C377.8 95.3995 393.5 100.899 411.8 107.099C438.7 116.099 445.9 118.099 448.8 117.599C453.7 116.899 457 112.999 457 108.199C457 102.999 435.6 39.2995 433 36.4995C428.5 31.6995 419.6 32.9995 416.6 38.8995C414.4 43.0995 414.5 44.1995 418.5 55.8995C421.3 64.3995 421.6 65.9995 420.1 64.8995C419.1 64.0995 413.6 59.9995 407.9 55.6995C373 29.2995 330.9 12.2995 286.7 6.49948C275.9 5.09948 241.5 4.59948 231 5.69948Z" fill="white"/>
<path d="M218.7 98.6C216.1 101.2 216 101.5 215.8 116.7L215.5 132.2L208.5 134.9C198 139 185.9 145.7 176.8 152.6L168.6 158.7L156.9 151.8C147.2 146.2 144.4 145 140.8 145C137.3 145 135.9 145.6 133.8 147.7C132.4 149.3 124.5 162.3 116.1 176.8C95.9001 212.1 95.8001 210.6 117.6 223L128.6 229.4L127.3 235.9C125.7 244.4 125.7 267.6 127.3 276.1L128.6 282.7L116.8 289.5C96.1001 301.4 96.1001 300.3 116.2 335.2C124.5 349.7 132.5 362.7 133.8 364.2C135.9 366.4 137.3 367 140.8 367C144.4 367 147.2 365.8 156.9 360.2L168.6 353.3L176.8 359.4C185.9 366.3 198 373 208.5 377.1L215.5 379.8L215.8 395.3C216 410.5 216.1 410.8 218.7 413.4L221.3 416H256H290.7L293.3 413.4C295.9 410.8 296 410.5 296.2 395.3L296.5 379.8L303.5 377.1C314 373 326.1 366.3 335.2 359.4L343.4 353.3L355.1 360.2C364.8 365.8 367.6 367 371.2 367C374.7 367 376.1 366.4 378.2 364.3C379.6 362.7 387.5 349.7 395.9 335.2C416.2 299.8 416.3 301.2 393.9 288.6L383.4 282.7L384.7 276.1C386.3 267.6 386.3 244.4 384.7 235.9L383.4 229.3L393.9 223.4C408.6 215.1 411 212.9 411 207.5C411 203.7 409 199.6 395.9 176.8C387.5 162.3 379.6 149.3 378.2 147.7C376.1 145.6 374.7 145 371.2 145C367.6 145 364.8 146.2 355.1 151.8L343.4 158.7L335.2 152.6C326.1 145.7 314 139 303.5 134.9L296.5 132.2L296.2 116.7C296 101.5 295.9 101.2 293.3 98.6L290.7 96H256H221.3L218.7 98.6ZM276 130.5C276 144.5 276.1 145.2 278.3 147.4C279.6 148.7 283.3 150.5 286.6 151.5C301.7 155.9 316.2 163.9 329.3 175.2C339.8 184.3 341.5 184.3 355.8 176C361.5 172.7 366.5 170 366.8 170C367.6 170.1 386.4 202.9 385.9 203.3C385.7 203.5 381 206.2 375.5 209.4C359.8 218.4 359.4 219.3 363 235.6C365.6 247.6 365.6 264.4 363 276.4C359.4 292.7 359.8 293.6 375.5 302.6C381 305.8 385.7 308.5 385.9 308.7C386.4 309.1 367.6 341.9 366.8 342C366.5 342 361.5 339.3 355.8 336C341.5 327.7 339.8 327.7 329.3 336.8C316.2 348.1 301.7 356.1 286.6 360.5C283.3 361.5 279.6 363.3 278.3 364.6C276.1 366.8 276 367.5 276 381.5V396H256H236V381.5C236 367.6 235.9 366.8 233.7 364.6C232.4 363.4 228.1 361.3 224 360.1C209.1 355.6 195 347.5 182.2 336.4C172.4 327.8 170.6 327.8 156.3 336C150.5 339.3 145.5 342 145.2 342C144.3 341.9 125.6 309.1 126.1 308.7C126.3 308.5 131 305.8 136.5 302.6C152.2 293.6 152.6 292.7 149 276.4C146.4 264.4 146.4 247.6 149 235.6C152.6 219.3 152.2 218.4 136.5 209.4C131 206.2 126.3 203.5 126.1 203.3C125.6 202.9 144.3 170.1 145.2 170C145.5 170 150.5 172.7 156.3 176C170.7 184.3 172.3 184.2 182.7 175.2C195.8 163.9 210.3 155.9 225.4 151.5C228.7 150.5 232.4 148.7 233.7 147.4C235.9 145.2 236 144.5 236 130.5V116H256H276V130.5Z" fill="white"/>
<path d="M237.5 187.9C225 191.4 216.4 196.5 206.5 206.5C191.9 221 186 235.2 186 256C186 276.4 191.9 290.9 206 305.1C215.2 314.4 222.7 319.2 234.5 323.1C240.6 325.2 243.3 325.5 256.5 325.5C270.3 325.4 272.1 325.2 278.8 322.8C290.2 318.6 296.8 314.3 305.6 305.6C314.3 296.8 318.6 290.2 322.8 278.8C325.3 272 325.5 270.4 325.5 256C325.5 241.6 325.3 240 322.8 233.2C318.6 221.8 314.3 215.2 305.6 206.4C296.8 197.6 290.1 193.3 278.8 189.3C268.7 185.7 248.2 185 237.5 187.9ZM265.1 207.5C272.8 208.5 283.5 214.3 290.5 221.3C300.6 231.4 305 241.9 305 256C305 270.1 300.6 280.6 290.4 290.8C266.2 315 226.1 307.7 211.2 276.3C207.5 268.6 207.5 268.4 207.5 256C207.5 243.6 207.5 243.4 211.2 235.7C216.3 225.1 225 216.3 235.3 211.4C242.5 208 252.3 206 258 206.6C259.4 206.8 262.6 207.2 265.1 207.5Z" fill="white"/>
<path d="M471.7 158C467.1 161.6 467.3 165.1 472.9 181.6C483.5 212.8 486.4 231.2 485.7 262C485.2 284.3 484.2 292.7 479.4 311.5C456.2 403.9 376.9 473.6 282 485C266.5 486.8 240.6 486.4 224.4 484.1C185 478.3 147.7 462.6 114.8 437.7C108.3 432.9 103 428.7 103 428.5C103 428.3 108.3 429.9 114.7 432.1C129 436.9 132.1 437 136.1 433.1C140.4 428.8 139.9 421 135.1 417.3C134.2 416.6 118.5 411.1 100.2 404.9C73.3 395.9 66.1 393.9 63.2 394.4C58.3 395.1 55 399 55 403.8C55 409 76.4 472.7 79 475.5C83.5 480.3 92.4 479 95.4 473.1C97.6 468.9 97.5 467.8 93.5 456.1C90.7 447.6 90.4 446 91.9 447.1C92.9 447.9 98.4 452 104.1 456.3C135.9 480.3 174.2 496.8 215.1 504C230.6 506.8 265.2 507.8 282.2 506.1C312.8 502.9 344.4 493.3 372 478.9C446.7 439.7 497.5 365.1 506.1 282.2C507.8 266 506.7 230.6 504.1 216.9C499.7 192.7 489.6 161.4 485.3 158C481.8 155.3 475.1 155.3 471.7 158Z" fill="white"/>
</svg>
