<svg width="512" height="512" viewBox="0 0 512 512" fill="none" xmlns="http://www.w3.org/2000/svg">
<path d="M232.5 11.4C183.3 20.8 144.6 52.4 127.1 97.5C119.8 116.4 118.5 123.6 118.5 148C118.5 167.2 118.8 170.5 120.9 179C125.6 198.3 134.1 216.5 145.3 231.4C155.5 244.9 173.2 260.6 187.1 268.4L190.5 270.3L178.5 272.5C125.5 282.4 75.6 305.4 44.2 334.4C32 345.8 21 363 15.4 379.4C10.7 393 10 400.2 10 431.5C10 457.8 10.2 461.4 12 467.1C16.8 482.8 29.2 495.2 44.8 500C51.1 502 54.5 502 256 502C457.5 502 460.9 502 467.2 500C482.8 495.2 495.2 482.8 500 467.1C501.8 461.4 502 457.8 502 431.5C502 409.6 501.6 400.2 500.5 394.3C495.9 369.9 482.7 347.2 463.5 330.7C445.4 315 410.7 295 401.7 295C395.6 295 392 298.8 392 305.1C392 311 393.3 312.1 409.3 320.3C430 330.9 449.9 345.2 459.2 356.2C469.3 368 476.4 382.3 479.6 397C481.5 405.7 482.6 445.3 481.2 454.3C479.2 466.7 472.5 475.7 462.2 479.7C457.7 481.4 448.5 481.5 260.5 481.8C137.7 482 61.1 481.7 57.2 481.1C49.1 479.8 42.7 476.5 37.9 471.2C32 464.4 30.8 459.9 30.3 440.5C29.1 400.7 33.8 380.8 49.4 360.4C66.6 337.7 109.5 312.7 152.3 300.4C180.2 292.4 206.4 288.5 242 287C273.5 285.7 277.6 285.3 290.5 282C333.8 271 368.8 240 384.9 198.5C392.2 179.6 393.5 172.4 393.5 148C393.5 128.8 393.2 125.5 391.1 117C378.4 65.2 341.2 27.3 290 13.8C279.4 11 276.9 10.7 259 10.4C245.6 10.2 237.3 10.5 232.5 11.4ZM277 32.6C292.6 35.4 308.8 42.1 322.4 51.2C330.2 56.6 343.8 69.7 350.1 78C357.1 87.1 366.5 106.5 369.7 118.5C372.2 127.8 372.4 129.9 372.4 148C372.4 166 372.2 168.3 369.7 177.3C366.7 188.5 359.3 204.7 352.9 214.1C347.4 222.2 334.4 235.7 326 242.1C316.5 249.4 297.4 258.5 285.5 261.5C258 268.5 229.8 265.6 204.5 253.1C197.9 249.8 189.6 244.9 186 242.1C177.6 235.7 164.6 222.2 159.1 214.1C152.7 204.7 145.3 188.5 142.3 177.3C139.8 168.3 139.6 166 139.6 148C139.6 129.9 139.8 127.8 142.3 118.5C145.5 106.5 154.9 87.1 161.9 78C168.3 69.6 181.8 56.6 189.9 51.1C215.1 33.9 246.7 27.3 277 32.6Z" fill="black"/>
</svg>
