<svg width="512" height="512" viewBox="0 0 512 512" fill="none" xmlns="http://www.w3.org/2000/svg">
<path d="M89.3 6.49999C86 8.79999 84.6 14.2 86 18.7C89.6 30 100.1 43.1 109.5 48.1C112 49.4 114 51 114 51.6C114 52.2 110.3 58 105.9 64.6C79.9 102.8 51.6 129.5 18.1 147.4C12.4 150.4 7.2 153.7 6.4 154.7C5.7 155.7 5 158.6 5 161.1C5 164.8 5.5 166.3 7.6 168.4C10.2 171 10.5 171 24.6 171H39V253V335H31.2C22.2 335 19.7 336.2 18 341.5C17.1 344.1 17.1 345.9 18 348.5C19.7 353.8 22.2 355 31.2 355H39V428.4V501.7L41.6 504.4L44.3 507H256H467.7L470.4 504.4L473 501.7V428.4V355H480.8C489.8 355 492.3 353.8 494 348.5C494.9 345.9 494.9 344.1 494 341.5C492.2 336.1 489.8 335 479.6 335C472.6 335 470.9 334.7 471.8 333.8C472.7 332.9 473 313.3 473 251.8V171H487.4C501.5 171 501.8 171 504.4 168.4C506.5 166.3 507 164.8 507 161.1C507 158.6 506.3 155.7 505.6 154.7C504.8 153.7 499.6 150.4 493.9 147.4C460.4 129.5 432.1 102.8 406.1 64.6C401.7 58 398 52.2 398 51.6C398 51 400 49.4 402.5 48.1C408.7 44.8 418.2 35 421.8 28.2C426.4 19.4 427.4 15.6 426 11.5C424.5 6.89999 421.6 4.99999 416 4.99999C410.5 4.99999 408.5 6.69999 404.6 15.2C401.3 22.3 392.9 30.2 386.4 32.4C382.1 33.8 368.7 34 256 34C141.2 34 129.9 33.9 125.4 32.3C119.1 30.2 108.9 20.3 107 14.5C105 7.99999 101.5 4.99999 96 4.99999C93.5 4.99999 90.5 5.69999 89.3 6.49999ZM381.1 65.2C389 78 401.9 95.7 411.5 107C421.1 118.3 439.5 136.1 449.8 144C454.3 147.5 458 150.5 458 150.7C458 150.8 367 151 255.8 150.9H53.5L56.4 148.7C83.5 128.3 110.8 97.6 130.9 65.2L137.2 55H256H374.8L381.1 65.2ZM453 251.8C453 313.3 453.3 332.9 454.2 333.8C455.1 334.7 450.7 335 434.2 335H413V314.6V294.3L410.4 291.6C406.6 287.9 399.4 287.9 395.6 291.6L393 294.3V314.6V335H373H353V303.1V271.1L350.6 268.3C348.5 265.9 347.4 265.5 343 265.5C338.6 265.5 337.5 265.9 335.4 268.3L333 271.1V303.1V335H250.5H168V307.6V280.3L165.4 277.6C162.8 275 162.6 275 147.9 275H133V247.6V220.3L130.4 217.6L127.7 215H93.4H59V193V171H256H453V251.8ZM113 255V275H86H59V255V235H86H113V255ZM148 315V335H103.5H59V315V295H103.5H148V315ZM177 421V487H118H59V421V355H118H177V421ZM315 421V487H256H197V421V355H256H315V421ZM453 421V487H394H335V421V355H394H453V421Z" fill="white"/>
</svg>
