<svg width="512" height="512" viewBox="0 0 512 512" fill="none" xmlns="http://www.w3.org/2000/svg">
<g clip-path="url(#clip0_233_1432)">
<path d="M394 160.61C359.16 134.37 323.26 118.71 284.24 112.73C277.14 111.66 262.65 111 250.78 111C244.69 111 239.27 111.17 235.86 111.55C193.69 116.22 153.65 132.73 116.78 160.61C91.1802 179.88 69.1702 203.61 56.4002 225.86C43.8302 247.97 43.8302 262.86 56.4002 285.02C76.3402 319.8 116.97 355.8 159.93 376.94C191.49 392.38 223.65 400.09 255.72 400.09C296.08 400.09 336.29 387.88 374.95 363.55C423.29 333.21 464.13 283.7 464.13 255.43C464.13 231.55 433.98 190.8 394 160.61ZM314.61 369.8C256.37 389.35 198.11 380.19 141.44 342.57C111.11 322.39 83.7802 293.87 71.8802 269.8C67.5502 261.3 66.4802 256.66 67.6502 251.43C70.8502 237.95 89.7802 211.62 108.93 194C147.05 158.95 192.59 136.92 237.14 132C241.927 131.552 246.733 131.352 251.54 131.4C257.24 131.4 263.46 131.59 269.18 131.95C274.114 132.212 279.03 132.73 283.91 133.5C326.63 140.95 366.3 161.32 401.78 194C420.96 211.62 439.86 238 443.05 251.46C444.69 258.7 440.71 269 430.54 283.86C405.14 320.86 359.63 354.57 314.61 369.8Z" fill="black"/>
<path d="M329.95 234.389C325.59 219.869 319.78 210.199 309.21 199.879C301.998 192.782 293.446 187.192 284.051 183.436C274.656 179.679 264.607 177.831 254.49 177.999C250.41 178.089 245.29 178.439 243.06 178.779C231.518 180.989 220.519 185.432 210.68 191.859C204.05 196.399 193.25 208.099 188.86 215.489C183.844 224.415 180.384 234.131 178.63 244.219C175.78 262.489 180.78 283.909 191.78 300.129C195.32 305.229 205.56 315.459 210.67 319.009C217.996 323.758 225.95 327.461 234.3 330.009C241.22 332.079 243.53 332.349 254.93 332.439C270.16 332.439 276.93 330.949 289.36 324.859C309.73 315.059 323 299.229 329.92 276.489C332.11 269.489 332.36 267.329 332.36 255.419C332.36 243.509 332.13 241.369 329.95 234.389ZM306.16 280.729C303.06 287.179 301.35 289.519 295.4 295.469C289.45 301.419 287.11 303.119 280.66 306.229C272.3 310.289 263.31 312.529 255.37 312.529C247.43 312.529 238.44 310.289 230.07 306.229C223.61 303.119 221.27 301.409 215.33 295.469C209.39 289.529 207.68 287.179 204.57 280.729C200.51 272.359 198.27 263.379 198.27 255.429C198.27 247.479 200.51 238.509 204.57 230.129C207.68 223.679 209.38 221.339 215.33 215.399C221.28 209.459 223.62 207.739 230.07 204.639C238.71 200.459 246.76 198.429 255.07 198.429C258.938 198.444 262.795 198.853 266.58 199.649V199.649C271.401 200.847 276.091 202.521 280.58 204.649C287.02 207.749 289.37 209.459 295.31 215.409C301.25 221.359 302.96 223.689 306.07 230.149C314.5 247.399 314.5 263.469 306.16 280.729Z" fill="black"/>
<path d="M273.99 255.429C273.99 266.749 266.68 274.059 255.36 274.059C247.99 274.059 242.52 271.059 239.09 265.259C237.27 262.259 236.74 260.049 236.74 255.429C236.74 248.149 239.66 242.709 245.42 239.259C248.42 237.339 250.58 236.809 255.28 236.809C266.65 236.799 273.99 244.119 273.99 255.429Z" fill="black"/>
</g>
<defs>
<clipPath id="clip0_233_1432">
<rect width="417.13" height="289.09" fill="white" transform="translate(47 111)"/>
</clipPath>
</defs>
</svg>
