<svg width="512" height="512" viewBox="0 0 512 512" fill="none" xmlns="http://www.w3.org/2000/svg">
<path d="M288.5 6.49999C238.1 14.6 193.9 41.3 164 81.5C142 111.2 129.1 146.5 127.2 182.2C125.3 217.4 131.2 248 145.6 278C151.4 290.2 163.1 308.4 169.9 316.2C172.2 318.7 174 321.2 174 321.7C174 322.1 167.9 328.6 160.5 336L147 349.5L136.5 339L126 328.5L66.5 388C33.8 420.7 7 447.9 7 448.5C7 449.8 62.2 505 63.5 505C64.1 505 91.3 478.2 124 445.5L183.5 386L173 375.5L162.5 365L176 351.5C183.4 344.1 189.9 338 190.3 338C190.8 338 193.3 339.8 195.8 342.1C209.9 354.5 236.2 368.9 257.5 375.8C279.9 383.2 289.1 384.5 317 384.5C338.6 384.5 342.8 384.2 352.9 382.2C430.3 366.5 488.1 308.7 504.1 231C506.2 220.7 506.5 216.9 506.5 195C506.5 173.4 506.2 169.2 504.2 159.1C488.6 82 430.8 24 353.5 7.89999C340.2 5.09999 302.2 4.29999 288.5 6.49999ZM331.5 26.5C370 28.6 412.8 49.3 440.5 79.2C470.5 111.6 486 151.1 486 195C486 280.6 424.4 350.8 338.5 363.1C328.1 364.6 303.9 364.3 292.5 362.6C220.8 351.7 164.9 298.1 150.5 226.5C146.9 208.6 147.1 180.1 150.9 161.6C165.1 93.6 217.3 42.1 285.8 28.5C294 26.8 314.1 25.1 319 25.6C320.4 25.8 326 26.2 331.5 26.5ZM140 372.5L153.5 386L108.7 430.8L64 475.5L50.3 461.7L36.5 448L81 403.5C105.5 379 125.7 359 126 359C126.3 359 132.6 365.1 140 372.5Z" fill="#151515"/>
<path d="M292.1 127C265.8 132.3 236 147.3 210.3 168.1C202 174.9 183 193.6 183 195C183 196.4 202 215.1 210.3 221.9C222.9 232.1 239.5 242.8 253.5 249.5C276.9 260.8 294 265 316.9 265C339.5 265 357.9 260.5 380.5 249.5C403 238.6 430.3 218.4 445 201.9L451.2 195L445 188.1C441.6 184.3 433.9 177 427.9 171.8C399.7 147.8 368.6 132 339.1 126.5C327.4 124.4 304.3 124.6 292.1 127ZM336.8 147.6C353.3 150.5 372.7 158.8 391 170.8C401.9 177.9 414.6 187.8 419 192.5L421.5 195.2L416.3 200C402.1 213.1 379.4 227.6 362.1 234.6C330.6 247.4 304.2 247.5 272.3 234.8C255.5 228.1 232.6 213.7 219 201L212.5 195L219 189C232.6 176.3 255.5 161.9 272.3 155.2C295.8 145.8 314.5 143.6 336.8 147.6Z" fill="#151515"/>
<path d="M304.3 156.4C290.2 161 279.2 174.2 277.2 188.7C274.7 206.9 283.5 223.7 299.5 231.6C305.1 234.3 306.3 234.5 317 234.5C327.7 234.5 328.9 234.3 334.5 231.6C342.2 227.8 349.8 220.2 353.6 212.5C356.3 206.9 356.5 205.7 356.5 195C356.5 184.3 356.3 183.1 353.6 177.5C349.8 169.8 342.2 162.2 334.5 158.5C329.3 155.9 327.3 155.5 318.5 155.3C312.1 155.1 307 155.5 304.3 156.4ZM325.8 177.9C332.6 181.4 336 187.2 336 195.3C336 205.9 327.8 214 317 214C305.9 214 298 206.1 298 195C298 183.9 305.7 176.1 316.8 176C320.1 176 323.5 176.7 325.8 177.9Z" fill="#151515"/>
</svg>
