<svg width="512" height="512" viewBox="0 0 512 512" fill="none" xmlns="http://www.w3.org/2000/svg">
<path d="M483.55 161.34C471.194 131.382 452.99 104.189 430 81.35V81.35C407.237 58.431 380.166 40.2398 350.345 27.823C320.524 15.4063 288.543 9.00927 256.24 9H255.57C119.63 9 9.00004 119.63 9.00004 255.62C8.97436 298.895 20.3161 341.417 41.89 378.93L44.32 383.05L11.75 502.15L133.57 470.15L137.66 472.4C173.836 492.03 214.332 502.34 255.49 502.4H255.58C391.5 502.4 502.12 391.76 502.17 255.76C502.299 223.362 495.969 191.263 483.55 161.34V161.34ZM255.55 482.21H248.7V482.04C210.47 480.913 173.15 470.11 140.23 450.64L136.6 448.48L40.51 473.69L66.18 379.89L63.81 376.15C41.1172 340.05 29.1171 298.26 29.2 255.62C29.2 130.81 130.79 29.26 255.65 29.26C285.383 29.2784 314.822 35.1532 342.285 46.549C369.748 57.9447 394.697 74.6383 415.709 95.6765C436.72 116.715 453.381 141.685 464.742 169.163C476.103 196.64 481.94 226.087 481.92 255.82C481.86 380.65 380.32 482.21 255.57 482.21H255.55Z" fill="black"/>
<path d="M375 323.631C374.778 330.674 373.428 337.636 371 344.251C367.42 354.321 345.78 365.901 336.58 367.341C324.805 369.343 312.727 368.593 301.29 365.151C289.185 361.397 277.288 357.001 265.65 351.981C215.65 330.381 178.92 285.191 161.52 260.241C160.89 259.311 160.42 258.651 160.12 258.241L160.06 258.161C152.86 248.551 136.06 223.491 136.06 198.481C136.06 173.471 147.86 160.741 154.23 153.931L155.54 152.521L155.7 152.351C156.769 151.118 158.077 150.113 159.545 149.398C161.012 148.683 162.61 148.273 164.24 148.191C167.41 148.191 172 148.191 175.87 148.421H178.21C179.016 149.631 179.687 150.925 180.21 152.281C181.69 155.831 183.73 160.801 185.95 166.211L187.33 169.541C195.51 189.481 199.33 198.751 200.44 200.931C200.617 201.252 200.768 201.586 200.89 201.931L200.04 203.671L199.89 203.991C198.942 206.21 197.676 208.279 196.13 210.131C195.06 211.371 193.95 212.711 192.82 214.131L192.64 214.331C190.93 216.421 188.58 219.331 187.07 220.801C183.84 224.011 174.01 233.801 182.39 248.161C187.33 256.591 200.94 278.091 220.57 295.601C235.58 309.137 252.786 320.016 271.45 327.771L272.72 328.301H272.89C273.76 328.671 274.5 329.011 275.04 329.301C286.23 334.911 295.66 333.441 303.04 324.901C305.65 321.901 318.52 306.901 323.84 299.201C324.21 299.331 324.65 299.481 325.17 299.681C329.86 301.391 359.17 315.621 368.08 320.181L371.29 321.751L372.4 322.271C373.302 322.654 374.171 323.109 375 323.631V323.631Z" fill="black"/>
</svg>
