<svg width="512" height="512" viewBox="0 0 512 512" fill="none" xmlns="http://www.w3.org/2000/svg">
<g clip-path="url(#clip0_171_382)">
<path d="M327.9 29.5993C326.9 29.8993 303.6 54.2993 275.9 83.7993C239.5 122.699 225.1 137.499 223.6 137.399C222.4 137.299 216.9 136.299 211.4 135.199C166.4 125.599 117.5 134.699 79.4999 159.699C39.3999 186.099 13.1999 224.599 2.89991 272.499C-0.200092 286.599 -0.900092 316.999 1.39991 332.899C5.59991 361.399 17.1999 389.099 34.8999 412.999C42.3999 423.099 59.4999 440.099 70.3999 448.199C116.5 482.499 178 492.099 232.4 473.399C238 471.399 247.1 467.699 252.7 464.899L262.9 459.999H336H409.2L412.1 457.099L415 454.199V430.099V405.999L412.2 402.899C409.9 400.299 408.6 399.699 405.4 399.699C395.8 399.699 394 403.499 394 423.999V438.999H343H292L298.8 432.299C334.1 397.199 352.3 351.299 350.7 301.499C349.2 256.199 333.1 217.999 302 185.699C286.8 169.899 273.1 159.499 256 150.999C251.3 148.699 247.3 146.599 247.1 146.399C246.6 145.999 331 55.9993 332 55.9993C332.4 55.9993 365.3 90.7993 405.1 133.199L477.4 210.499L439 210.999C417.8 211.299 399.7 211.899 398.8 212.299C397.9 212.799 396.4 214.699 395.6 216.499C394.2 219.399 394 226.399 394 270.299C394 303.599 394.4 441.699 395.1 443.799C396.5 447.799 400 449.999 405 449.999C408.3 449.999 409.8 449.399 412.1 447.099L415 444.199V278.099V231.999H459C505.9 231.999 508.5 231.799 510.9 227.199C511.5 225.999 512 223.099 512 220.699V216.299L428.4 126.899C382.4 77.6993 343.1 35.7993 341.1 33.6993C337.4 29.8993 332.3 28.2993 327.9 29.5993ZM200.5 154.499C263.4 164.799 313.4 213.199 327.2 277.399C330.4 292.299 330.4 322.099 327.2 336.999C320.2 368.999 306.1 394.799 283.4 417.299C250 450.199 201.9 466.699 156.5 460.599C89.6999 451.799 37.8999 403.599 23.3999 336.999C20.4999 323.899 20.6999 289.199 23.6999 275.799C38.7999 208.699 92.0999 160.799 160.4 152.999C169.7 151.899 189.1 152.599 200.5 154.499Z" fill="black"/>
<path d="M213 231.901C203.9 234.701 195.4 242.601 192.6 250.701C187.4 266.101 194.4 282.701 208.9 289.401C215.7 292.501 227.8 292.301 234.4 289.101C240.7 286.001 246 280.701 249.1 274.401C252.7 267.001 252.5 255.601 248.7 247.801C245.3 240.901 239.6 235.701 232.3 233.001C226.8 231.001 217.8 230.501 213 231.901ZM225.9 253.401C228.8 254.901 231 258.701 231 262.101C231 263.301 229.4 265.801 227.5 267.701C224.3 270.901 223.5 271.201 220.2 270.701C212.2 269.401 209.3 260.601 214.9 254.901C218.2 251.701 221.6 251.201 225.9 253.401Z" fill="black"/>
<path d="M114.8 246.299C111.6 249.199 110.6 253.699 112 257.599C113.1 260.499 220.1 367.299 224.4 369.699C227.2 371.399 229.6 371.299 233.5 369.499C237.2 367.699 239 364.399 239 359.199C239 355.599 236.9 353.399 183.2 299.699L127.3 243.999H122.3C118.4 243.999 116.7 244.499 114.8 246.299Z" fill="black"/>
<path d="M123 322.899C109.3 325.799 100.1 336.599 99.1999 350.599C98.4999 360.899 100.8 366.899 107.9 374.099C115 381.099 120.9 383.399 131.3 382.799C157 381.499 169.3 351.599 152 332.699C144.6 324.499 133.2 320.699 123 322.899ZM136.3 347.099C140 351.099 139.9 355.299 136.1 359.099C133.9 361.199 132.2 361.999 129.5 361.999C122 361.999 117.3 352.999 121.8 347.299C125.7 342.299 131.8 342.199 136.3 347.099Z" fill="black"/>
</g>
<defs>
<clipPath id="clip0_171_382">
<rect width="512" height="512" fill="white"/>
</clipPath>
</defs>
</svg>
