<svg width="512" height="512" viewBox="0 0 512 512" fill="none" xmlns="http://www.w3.org/2000/svg">
<g clip-path="url(#clip0_204_617)">
<path d="M223.483 234.026L141.681 315.607C141.091 316.193 140.623 316.889 140.304 317.656C139.985 318.422 139.821 319.244 139.821 320.075V485.746C139.819 487.382 140.454 488.954 141.592 490.132C142.777 491.255 144.352 491.876 145.986 491.866H267.461C269.139 491.865 270.749 491.2 271.937 490.016L272.059 489.894L272.182 489.772C273.368 488.586 274.035 486.98 274.035 485.304V446.853C274.035 401.024 274.103 400.276 278.6 391.708C281.669 385.825 286.297 380.896 291.979 377.455C297.661 374.015 304.179 372.196 310.825 372.196C317.47 372.196 323.989 374.015 329.671 377.455C335.353 380.896 339.98 385.825 343.05 391.708C347.546 400.276 347.614 401.024 347.614 446.853V485.304C347.615 486.98 348.281 488.586 349.468 489.772L349.59 489.894L349.713 490.016C350.9 491.2 352.51 491.865 354.189 491.866H475.697C477.336 491.867 478.912 491.233 480.091 490.098C481.209 488.924 481.831 487.366 481.829 485.746V320.075C481.829 319.244 481.664 318.422 481.345 317.656C481.026 316.889 480.558 316.193 479.969 315.607L398.166 234.026L316.425 152.384C315.838 151.795 315.141 151.328 314.372 151.01C313.604 150.691 312.781 150.527 311.949 150.527H309.701C308.869 150.527 308.045 150.691 307.277 151.01C306.509 151.328 305.811 151.795 305.225 152.384L223.483 234.026ZM389.65 246.537L466.35 323.087C467.536 324.272 468.202 325.879 468.203 327.554V471.943C468.203 473.62 467.535 475.229 466.347 476.415C465.159 477.6 463.547 478.267 461.867 478.267H368.278C366.606 478.269 365.001 477.609 363.815 476.433C362.629 475.257 361.958 473.66 361.949 471.991L361.717 439.305C361.445 395.72 361.513 396.4 356.403 386.065C337.872 348.599 283.437 348.599 265.178 386.133C260.137 396.468 260.205 395.788 259.932 439.305L259.728 471.991C259.719 473.66 259.048 475.257 257.862 476.433C256.676 477.609 255.071 478.269 253.399 478.267H159.783C158.102 478.267 156.491 477.6 155.302 476.415C154.114 475.229 153.447 473.62 153.447 471.943V327.554C153.447 325.879 154.113 324.272 155.3 323.087L231.931 246.605C275.125 203.496 310.62 168.206 310.825 168.206C311.029 168.206 346.524 203.496 389.65 246.537Z" fill="black" stroke="black" stroke-width="7"/>
<path d="M258.5 160.994C258.5 225.037 206.475 276.988 142.259 276.988C78.042 276.988 26.0176 225.037 26.0176 160.994C26.0176 96.9508 78.042 45 142.259 45C206.475 45 258.5 96.9508 258.5 160.994Z" stroke="black" stroke-width="20"/>
</g>
<path d="M172.336 103.859C171.229 104.816 154.129 127.613 134.413 154.433C100.112 201.08 98.5024 203.475 98.5024 207.594C98.5024 213.724 102.023 216.98 108.461 216.98C111.68 216.98 113.893 216.406 115.2 215.161C116.307 214.203 133.407 191.406 153.123 164.586C187.424 117.939 189.034 115.544 189.034 111.426C189.034 105.295 185.513 102.039 179.075 102.039C175.857 102.039 173.644 102.613 172.336 103.859Z" fill="black"/>
<path d="M92.9698 112.194C84.822 116.217 80.4966 123.209 80.396 132.117C80.396 148.688 97.6976 158.745 113.39 151.274C120.733 147.826 124.756 142.079 125.36 134.128C126.567 119.952 117.514 110.757 102.526 110.661C98.5023 110.661 94.7804 111.236 92.9698 112.194ZM107.555 128.094C108.662 129.243 109.567 130.967 109.567 131.925C109.567 134.128 105.242 138.439 103.029 138.439C100.715 138.439 96.4905 134.128 96.4905 131.734C96.4905 129.052 100.011 125.987 103.029 125.987C104.337 125.987 106.348 126.945 107.555 128.094Z" fill="black"/>
<path d="M171.43 170.622C163.383 174.549 158.957 181.637 158.856 190.449C158.856 197.346 160.566 201.273 165.495 205.871C175.554 215.162 192.655 213.246 200.199 201.752C202.714 198.112 203.116 196.484 203.116 191.024C203.116 187.48 202.613 183.361 202.01 181.829C200.501 177.997 195.27 173.017 190.542 170.909C185.513 168.706 175.655 168.515 171.43 170.622ZM185.211 186.043C187.424 187.959 187.625 192.365 185.412 194.377C181.892 197.825 174.951 195.047 174.951 190.354C174.951 185.181 181.188 182.595 185.211 186.043Z" fill="black"/>
<defs>
<clipPath id="clip0_204_617">
<rect width="511" height="479.882" fill="white" transform="translate(0 16)"/>
</clipPath>
</defs>
</svg>
