<svg width="512" height="512" viewBox="0 0 512 512" fill="none" xmlns="http://www.w3.org/2000/svg">
<path d="M381 6.59877C403.3 9.29877 426.5 14.8988 444.5 22.0988C476.6 34.9988 498.6 54.0988 505 74.7988C507 81.0988 507 84.3988 507 225.999C507 368.599 507 370.899 505 377.399C495.1 409.199 450.2 435.099 387.8 444.599C371.8 447.099 329 447.599 311.5 445.599C303.8 444.699 296.6 443.699 295.5 443.499C294 443.099 292.9 443.899 291 446.699C286.6 453.199 268.7 470.299 258.9 477.199C241.3 489.799 222 498.399 200 503.699C184.4 507.399 155.5 508.099 138.3 505.199C72.9 493.999 22.5 445.599 7.79999 379.799C5.79999 370.699 5.49999 366.899 5.49999 346.999C5.49999 327.099 5.79999 323.299 7.79999 314.199C22 250.599 68.7 203.999 132.2 189.799C141.2 187.799 145.2 187.499 163.7 187.499H185V134.399C185 84.0988 185.1 80.8988 187 74.8988C189.8 65.7988 194.1 58.9988 202.3 50.3988C223.5 27.9988 262.8 12.0988 310.6 6.49877C326.7 4.59877 364.9 4.69877 381 6.59877ZM324.5 26.4988C296.3 27.7988 265.1 35.6988 242.8 47.0988C193.7 72.2988 193.7 107.699 242.8 132.899C273.6 148.599 314.8 155.999 360.3 153.899C429 150.599 486 121.699 486 89.9988C486 63.2988 446.2 38.3988 388.4 28.8988C375.3 26.7988 350.9 25.0988 341 25.5988C338 25.7988 330.5 26.1988 324.5 26.4988ZM474.5 142.099C455.4 155.799 423.1 167.199 387.8 172.599C371.9 175.099 329 175.599 311.6 173.599C268.8 168.599 233.1 155.899 210.3 137.299L205 132.999V162.199V191.499L214.8 194.499C227.3 198.299 247 208.199 258.7 216.599C263.7 220.199 271.8 226.999 276.7 231.699L285.5 240.199L299.5 242.699C342.1 249.999 394.5 245.899 431 232.299C458.6 221.999 476.5 208.799 483.9 192.999C486.5 187.599 486.5 187.199 486.8 160.099L487.2 132.699L484.3 134.899C482.8 136.099 478.4 139.299 474.5 142.099ZM142.8 209.499C105.1 215.099 70.3 237.899 48.3 271.199C33.2 294.199 26 318.499 26 346.999C26 375.599 33.3 400.099 48.8 423.499C66.7 450.499 92.3 469.999 123.4 479.899C149.4 488.299 180.5 488.199 206.7 479.899C256.7 463.999 294.2 420.799 302.5 369.799C304.4 357.899 304.4 336.099 302.5 324.199C296.4 286.599 274 252.199 241.5 230.799C212 211.299 178.9 204.099 142.8 209.499ZM474.5 234.099C455.1 247.999 422.6 259.399 386.7 264.699C374.4 266.599 326.5 267.199 311.4 265.699L303.2 264.899L308 274.199C316.3 290.199 322.7 311.799 324.5 329.199L325.2 335.899L334.9 336.199C378.1 337.599 419.4 329.599 450 313.899C467.5 304.899 478.2 295.199 483.9 282.999C486.4 277.599 486.5 277.099 486.8 251.099L487.2 224.699L484.3 226.899C482.8 228.099 478.4 231.299 474.5 234.099ZM474.5 324.099C459.8 334.699 434.9 344.799 409.8 350.399C389 355.099 378.8 356.199 351.4 356.699L325.2 357.199L324.5 364.399C323 380.499 316.6 402.999 309.5 417.099L306.1 423.799L310.8 424.499C320 425.899 345.3 426.599 360.3 425.899C394.1 424.299 425.1 416.699 450 403.899C467.5 394.899 478.2 385.199 483.9 372.999C486.4 367.599 486.5 367.099 486.8 341.099L487.2 314.699L484.3 316.899C482.8 318.099 478.4 321.299 474.5 324.099Z" fill="black"/>
<path d="M206.832 316.049C212.914 316.049 217.292 321.89 215.584 327.728V327.728C214.447 331.615 210.882 334.287 206.832 334.287H124.168C118.086 334.287 113.708 328.446 115.416 322.608V322.608C116.553 318.721 120.118 316.049 124.168 316.049H206.832ZM179.186 439C174.199 439 169.476 436.757 166.325 432.891L115.975 371.13C114.619 369.466 113.855 367.398 113.804 365.251V365.251C113.675 359.824 118.039 355.355 123.468 355.355H142.123C149.549 355.355 155.877 354.307 161.107 352.211C166.337 350.062 170.337 346.865 173.109 342.62C175.881 338.323 177.267 332.924 177.267 326.426C177.267 316.835 174.391 309.314 168.638 303.864C162.885 298.361 154.047 295.609 142.123 295.609H123.867C117.959 295.609 113.728 289.906 115.44 284.252V284.252C116.565 280.539 119.987 278 123.867 278H142.123C154.884 278 165.343 280.123 173.501 284.368C181.712 288.56 187.779 294.325 191.701 301.663C195.675 308.947 197.663 317.202 197.663 326.426C197.663 334.759 195.832 342.437 192.172 349.459C188.563 356.43 182.758 362.038 174.757 366.283C166.807 370.528 156.296 372.65 143.221 372.65V372.65C143.033 372.65 142.929 372.869 143.048 373.015L195.572 437.486C195.706 437.652 195.78 437.859 195.78 438.072V438.072C195.78 438.585 195.365 439 194.852 439H179.186ZM206.867 278C212.932 278 217.297 283.824 215.594 289.645V289.645C214.453 293.546 210.861 296.216 206.796 296.184L145.483 295.702C139.573 295.656 135.368 289.941 137.081 284.285V284.285C138.212 280.553 141.653 278 145.553 278H206.867Z" fill="black"/>
</svg>
