<svg width="512" height="512" viewBox="0 0 512 512" fill="none" xmlns="http://www.w3.org/2000/svg">
<path d="M313.5 6.50001C274.4 12.6 240.4 37.4 222.7 72.5C209.9 98.1 206.9 130.1 214.5 159.1C217.6 170.5 227 190 233.9 199.1C257.8 230.4 293 248 332 248C365.8 248 396.1 235.1 419.5 210.8C469.9 158.6 463.2 73.1 405.3 29.6C379.2 10 345.3 1.50001 313.5 6.50001ZM355.5 27.9C385.6 35.3 410.8 56.1 424 84.3C448.9 137.4 422.2 201.6 366.8 221.9C354 226.6 349 227.4 332 227.5C312.1 227.5 304.4 225.8 287.5 217.5C247.8 198.2 224.8 155.1 231.4 112.4C236.6 77.9 259 48.2 290.3 34C309.7 25.2 335.2 22.8 355.5 27.9Z" fill="black"/>
<path d="M205 266C181.9 269.3 157.8 281.7 142 298.7C136.8 304.2 127.2 317.4 125.8 320.8C125.5 321.7 112.7 330 111.8 330C111.5 330 110.3 327.2 109 323.7C107.8 320.3 105.9 316.5 104.8 315.3C100.6 310.7 99.6 310.9 53.7 326.5C7.4 342.3 5 343.4 5 349.8C5 352 47.7 478.8 55.2 498.8C57.2 504.1 60.6 507 64.9 507C66 507 86.1 500.5 109.7 492.5C146.4 480 152.9 477.5 155.3 475C158.4 471.6 158.6 469.1 156.5 463.1C155.1 459.1 155.2 459 157.3 458.6C158.5 458.3 186.3 457.4 219 456.5C298.2 454.3 313.5 453.6 326.1 450.9C346.7 446.7 366.8 438.5 383.3 427.7C397.5 418.4 487.3 354.2 492.5 349.6C504.3 339.3 509.7 321.7 505.6 306.5C498.9 281.4 473.6 267.7 448.6 275.7C445.6 276.7 430.8 285.8 411.1 298.9C393.2 310.9 378 320.9 377.3 321.3C376.6 321.7 375.1 320 373.2 316.8C369.4 309.9 361.4 302.5 354.5 299.4C346.8 295.8 339.6 295 315.2 295H293.8L289.2 290.9C271.6 275.4 248.2 266.4 223.5 265.5C216.9 265.3 208.6 265.5 205 266ZM240.5 287.8C254.9 291.6 265.6 297.4 277.7 307.9L285.9 315H311.8C332.2 315 338.7 315.3 342.8 316.5C358.8 321.3 363.6 341.6 351.3 353.2C345.2 359 345.1 359 295.9 359C257.3 359 250.3 359.2 247.5 360.5C241.4 363.5 240.1 371.2 245 376.1L247.9 379.1L297.7 378.8L347.5 378.5L354.1 375.4C365.3 370.1 372.9 361.6 376.5 350.4L378.2 345.2L415.8 320.2C456.9 292.8 458.9 291.8 467.9 294C485.4 298.2 492.6 318.7 481.4 331.9C477.5 336.4 377.4 408 364.8 415.3C348.9 424.4 326.2 431.7 308.5 433.4C301.9 434.1 148.8 439.1 148.4 438.7C148.3 438.6 141.6 419.4 133.7 396C125.7 372.6 118.8 352.8 118.5 351.9C118 350.6 120.4 348.7 129.1 343.4C136.3 339 140.9 335.5 141.9 333.7C159.4 301.7 189.2 284 223 285.5C228.8 285.8 236.7 286.8 240.5 287.8ZM112.9 397.8C124.7 432.3 134.5 460.9 134.7 461.5C135 462.4 72.1 484.5 71.4 483.7C70.8 483.2 28.7 359.5 28.6 358.1C28.5 357.1 38.1 353.4 59.5 345.9C76.6 340 90.7 335.2 91 335.1C91.3 335.1 101.1 363.2 112.9 397.8Z" fill="black"/>
<path d="M367.647 100.377C372.822 100.377 376.547 105.347 375.095 110.314V110.314C374.128 113.623 371.094 115.896 367.647 115.896H297.353C292.178 115.896 288.453 110.927 289.905 105.96V105.96C290.872 102.651 293.906 100.377 297.353 100.377H367.647ZM344.141 205C339.899 205 335.882 203.091 333.202 199.802L290.381 147.247C289.227 145.831 288.578 144.072 288.534 142.246V142.246C288.425 137.627 292.139 133.824 296.758 133.824H312.619C318.935 133.824 324.316 132.932 328.764 131.148C333.212 129.32 336.614 126.6 338.971 122.987C341.329 119.33 342.507 114.737 342.507 109.207C342.507 101.046 340.061 94.6463 335.169 90.0083C330.276 85.3257 322.76 82.9844 312.619 82.9844H297.096C292.07 82.9844 288.469 78.1322 289.926 73.3212V73.3212C290.882 70.1612 293.795 68 297.096 68H312.619C323.471 68 332.367 69.8062 339.305 73.4185C346.288 76.9862 351.447 81.8918 354.783 88.1353C358.163 94.3341 359.853 101.358 359.853 109.207C359.853 116.298 358.297 122.831 355.183 128.807C352.114 134.738 347.177 139.51 340.372 143.123C333.612 146.735 324.672 148.541 313.553 148.541V148.541C313.392 148.541 313.304 148.727 313.405 148.851L358.075 203.712C358.19 203.853 358.252 204.029 358.252 204.21V204.21C358.252 204.647 357.899 205 357.463 205H344.141ZM367.678 68C372.838 68 376.552 72.9551 375.104 77.9077V77.9077C374.133 81.2282 371.076 83.5008 367.617 83.4736L315.48 83.0635C310.452 83.024 306.873 78.1622 308.331 73.3494V73.3494C309.292 70.1727 312.22 68 315.539 68H367.678Z" fill="black" stroke="black" stroke-width="4"/>
</svg>
