<svg width="512" height="512" viewBox="0 0 512 512" fill="none" xmlns="http://www.w3.org/2000/svg">
<g clip-path="url(#clip0_171_401)">
<path d="M382.7 18.7C372.3 29.1 363.2 38.7 362.4 40.2C358.4 47.9 363.4 56 372.2 56C374.8 56 377 54.3 385.6 45.8L396 35.6V100.9C396 157.1 396.2 166.5 397.5 169C399.4 172.7 401.8 174 407 174C410.3 174 411.8 173.4 414.1 171.1L417 168.2V102.3V36.5L425.8 45.2C430.6 49.9 435.5 54.3 436.7 54.9C440.6 56.9 444.7 56.2 448.2 53.1C451 50.6 451.5 49.5 451.5 45.7C451.5 41.4 451.1 40.9 439.4 28.4C432.7 21.3 423.6 12 419.2 7.7C411.5 0.300003 411.1 0 406.4 0H401.6L382.7 18.7Z" fill="black"/>
<path d="M363.4 193.999C361.7 194.599 359.5 195.899 358.4 197.099C356.5 199.199 356.5 202.899 356.2 345.599L356 491.999H337.5H319V392.699C319 302.599 318.9 293.199 317.4 291.099C313.9 286.199 312 285.999 268.8 286.099C223.9 286.099 222.6 286.299 219.8 291.999C218.1 295.299 218 302.199 218 393.699V491.999H201H184V431.999C184 367.699 184 367.699 179.1 364.999C176.4 363.599 90.5999 363.599 87.8999 364.999C82.9999 367.699 83 367.699 83 431.999V491.999H65.6999C46.4 491.999 45 492.399 43 498.499C42.1 501.099 42.1 502.899 43 505.499C45.3 512.599 24.8 511.999 270.3 511.999H492.2L495.1 509.099C497.4 506.799 498 505.299 498 501.999C498 498.699 497.4 497.199 495.1 494.899L492.2 491.999H474.6H457.1L456.8 441.399L456.5 250.799L453.2 247.899C448.7 243.799 443 243.799 438.9 247.899L436 250.799V441.399V491.999H406.5H377V352.999V213.999H406.5H436V262.499C436 304.699 436.2 311.399 437.5 313.399C441 318.699 449.6 319.199 454.1 314.399L456.5 311.799L456.8 258.199C457 221.399 456.8 203.299 456 200.699C453.9 193.399 454.7 193.499 408 193.299C385 193.199 365.1 193.499 363.4 193.999ZM298 399.499V491.999H268.5H239V399.499V306.999H268.5H298V399.499ZM163 438.499V491.999H133.5H104V438.499V384.999H133.5H163V438.499Z" fill="black"/>
<path d="M139.616 88.15C118.016 96.15 112.016 122.85 128.216 139.05C134.216 145.05 139.916 147.25 149.416 147.25C156.116 147.25 158.316 146.85 163.116 144.45C169.216 141.45 173.616 137.05 177.116 130.45C180.416 124.25 180.416 110.15 177.016 103.75C171.516 93.15 162.916 87.65 150.916 87.05C146.116 86.85 142.016 87.25 139.616 88.15ZM156.016 110.65C163.316 117.95 155.416 129.65 145.816 125.75C142.016 124.15 139.416 119.05 140.316 115.25C142.216 107.75 150.616 105.25 156.016 110.65Z" fill="black"/>
<path d="M225.916 95.449C219.716 101.549 134.816 203.049 133.716 205.749C130.216 214.749 141.016 223.249 149.116 217.949C150.616 217.049 172.516 191.549 197.916 161.449C243.716 106.849 243.916 106.549 243.916 102.149C243.916 95.949 239.916 91.7489 233.916 91.7489C230.516 91.7489 229.116 92.449 225.916 95.449Z" fill="black"/>
<path d="M217.616 167.15C211.016 168.95 205.116 173.35 201.216 179.15C192.916 191.45 194.316 207.75 204.616 218.05C219.616 233.05 245.516 228.25 254.216 208.85C257.216 202.25 257.116 190.95 254.116 184.15C248.016 170.65 231.916 163.05 217.616 167.15ZM232.616 189.85C235.616 192.75 236.416 196.95 234.516 200.65C231.416 206.65 224.616 207.65 219.816 202.85C215.216 198.15 216.016 191.45 221.716 188.25C225.016 186.35 229.516 187.05 232.616 189.85Z" fill="black"/>
</g>
<defs>
<clipPath id="clip0_171_401">
<rect width="512" height="512" fill="white"/>
</clipPath>
</defs>
</svg>
