<svg width="92" height="71" viewBox="0 0 92 71" fill="none" xmlns="http://www.w3.org/2000/svg">
<g clip-path="url(#clip0_443_2863)">
<path d="M83.0543 3.87305H29.3975L29.5613 4.29595L33.57 14.4472L82.4983 14.4881C82.4983 14.4881 84.2713 14.5891 85.2555 14.8159L85.1535 14.7794V6.00953C85.1535 5.72884 85.0992 5.4509 84.9937 5.19159C84.8882 4.93229 84.7335 4.6967 84.5386 4.49829C84.3436 4.29988 84.1122 4.14254 83.8575 4.03526C83.6028 3.92798 83.3299 3.87286 83.0543 3.87305Z" fill="#006CB5"/>
<path d="M82.4954 14.4886L33.5672 14.4476L29.5584 4.29639L27.863 8.53067e-06H4.44269C3.85745 -0.00114847 3.27773 0.115398 2.73682 0.342962C2.1959 0.570526 1.70443 0.904626 1.29059 1.3261C0.876761 1.74757 0.548713 2.24812 0.325272 2.79902C0.101832 3.34992 -0.0126023 3.94033 -0.0114662 4.53638V66.4695C-0.0126023 67.0655 0.101832 67.6559 0.325272 68.2068C0.548713 68.7578 0.876761 69.2583 1.29059 69.6798C1.70443 70.1012 2.1959 70.4353 2.73682 70.6629C3.27773 70.8905 3.85745 71.007 4.44269 71.0059H87.5502C88.7315 71.0059 89.8644 70.5279 90.6997 69.6772C91.5351 68.8265 92.0043 67.6726 92.0043 66.4695V23.8511C91.9994 21.8026 91.3381 19.8117 90.1207 18.181C88.9034 16.5504 87.1967 15.369 85.2599 14.8164C84.2713 14.5896 82.4954 14.4886 82.4954 14.4886Z" fill="#E8E8E8"/>
</g>
<defs>
<clipPath id="clip0_443_2863">
<rect width="92" height="71" fill="white"/>
</clipPath>
</defs>
</svg>
