<svg width="24" height="25" viewBox="0 0 24 25" fill="none" xmlns="http://www.w3.org/2000/svg">
<path fill-rule="evenodd" clip-rule="evenodd" d="M19.5 14.5193L12 21.9473L4.5 14.5193M4.49995 14.5193C3.15125 13.2069 2.65368 11.2484 3.21243 9.45137C3.77118 7.65436 5.29161 6.32328 7.14672 6.00704C9.00182 5.69079 10.8774 6.44295 12 7.95334C13.1272 6.45412 14.9988 5.71195 16.8472 6.03115C18.6955 6.35036 20.2098 7.67723 20.7689 9.46769C21.3281 11.2581 20.8381 13.2109 19.5 14.5253" fill="white"/>
<path d="M19.8518 14.8745C20.048 14.6802 20.0496 14.3636 19.8553 14.1674C19.6609 13.9712 19.3444 13.9697 19.1482 14.164L19.8518 14.8745ZM12 21.9473L11.6482 22.3025C11.843 22.4955 12.157 22.4955 12.3518 22.3025L12 21.9473ZM4.85184 14.164C4.65564 13.9697 4.33906 13.9712 4.14475 14.1674C3.95043 14.3636 3.95195 14.6802 4.14816 14.8745L4.85184 14.164ZM4.15125 14.8777C4.34916 15.0703 4.66571 15.0659 4.85829 14.868C5.05088 14.6701 5.04656 14.3536 4.84865 14.161L4.15125 14.8777ZM12 7.95334L11.5987 8.2516C11.6927 8.37813 11.8409 8.4529 11.9986 8.45333C12.1562 8.45377 12.3048 8.37983 12.3996 8.25383L12 7.95334ZM19.1496 14.1686C18.9526 14.3621 18.9497 14.6787 19.1432 14.8757C19.3367 15.0727 19.6533 15.0756 19.8503 14.882L19.1496 14.1686ZM19.1482 14.164L11.6482 21.592L12.3518 22.3025L19.8518 14.8745L19.1482 14.164ZM12.3518 21.592L4.85184 14.164L4.14816 14.8745L11.6482 22.3025L12.3518 21.592ZM4.84865 14.161C3.63482 12.9798 3.18701 11.2171 3.68989 9.59983L2.73498 9.30291C2.12036 11.2796 2.66768 13.434 4.15125 14.8777L4.84865 14.161ZM3.68989 9.59983C4.19276 7.98252 5.56114 6.78455 7.23074 6.49993L7.06269 5.51415C5.02207 5.86202 3.34961 7.3262 2.73498 9.30291L3.68989 9.59983ZM7.23074 6.49993C8.90034 6.2153 10.5883 6.89225 11.5987 8.2516L12.4013 7.65508C11.1664 5.99365 9.10331 5.16628 7.06269 5.51415L7.23074 6.49993ZM12.3996 8.25383C13.4141 6.90453 15.0985 6.23658 16.7621 6.52386L16.9322 5.53845C14.899 5.18732 12.8403 6.00371 11.6003 7.65285L12.3996 8.25383ZM16.7621 6.52386C18.4256 6.81114 19.7884 8.00533 20.2917 9.61674L21.2462 9.31863C20.6311 7.34913 18.9655 5.88957 16.9322 5.53845L16.7621 6.52386ZM20.2917 9.61674C20.7949 11.2281 20.354 12.9857 19.1496 14.1686L19.8503 14.882C21.3223 13.4362 21.8613 11.2881 21.2462 9.31863L20.2917 9.61674Z" fill="#E57373"/>
</svg>
