<svg width="14" height="14" viewBox="0 0 14 14" fill="none" xmlns="http://www.w3.org/2000/svg">
<path d="M1.24976 12.8112L2.04976 9.79494C1.5555 8.9131 1.29573 7.91005 1.29573 6.8856C1.29803 3.67439 3.82447 1.06454 6.92792 1.06454C8.43366 1.06454 9.84975 1.67066 10.9118 2.77117C11.9762 3.87168 12.5624 5.33348 12.5601 6.89035C12.5578 10.0992 10.0314 12.7114 6.92792 12.7114H6.92562C5.98309 12.7114 5.05665 12.4666 4.23366 12.0031L1.24976 12.8112Z" fill="url(#paint0_linear_446_5615)"/>
<path d="M1.04517 13.0228L1.87275 9.89714C1.36241 8.98441 1.09574 7.9457 1.09574 6.88322C1.09574 3.55792 3.71413 0.852997 6.93022 0.852997C8.49114 0.852997 9.95551 1.48288 11.0567 2.62142C12.1578 3.76233 12.7647 5.27643 12.7647 6.88797C12.7624 10.2133 10.1463 12.9182 6.93022 12.9182H6.92792C5.95091 12.9182 4.99229 12.6639 4.13942 12.1837L1.04517 13.0228ZM4.28195 11.0927L4.45896 11.2021C5.20379 11.6584 6.05666 11.9009 6.92792 11.9009H6.93022C9.60379 11.9009 11.7785 9.65232 11.7785 6.88797C11.7785 5.54977 11.2751 4.29001 10.3601 3.34162C9.44517 2.39323 8.22678 1.87269 6.93252 1.87269C4.25666 1.87269 2.08195 4.12125 2.08195 6.88559C2.08195 7.8316 2.33712 8.75385 2.82218 9.55249L2.93712 9.74264L2.44746 11.5919L4.28195 11.0927Z" fill="url(#paint1_linear_446_5615)"/>
<path fill-rule="evenodd" clip-rule="evenodd" d="M5.47045 4.36132C5.3601 4.10937 5.24516 4.10462 5.14171 4.09986C5.05666 4.09511 4.9601 4.09749 4.86125 4.09749C4.7647 4.09749 4.60608 4.13552 4.47275 4.28526C4.33941 4.43501 3.9624 4.80105 3.9624 5.54265C3.9624 6.28424 4.48424 7.00207 4.5578 7.1019C4.63137 7.20173 5.567 8.77287 7.04746 9.37661C8.27964 9.87813 8.53022 9.7783 8.79689 9.75453C9.06355 9.73076 9.65895 9.39087 9.78079 9.03908C9.90263 8.6873 9.90263 8.38543 9.86585 8.32363C9.82907 8.26183 9.73252 8.2238 9.58539 8.14774C9.44056 8.07168 8.72332 7.70801 8.58999 7.6581C8.45666 7.60818 8.3601 7.58204 8.26125 7.73416C8.1647 7.88391 7.88424 8.2238 7.79918 8.32363C7.71413 8.42346 7.62907 8.43773 7.48424 8.36166C7.33941 8.2856 6.86815 8.12635 6.31183 7.61294C5.87734 7.21362 5.58539 6.71922 5.50033 6.56947C5.41528 6.41973 5.49114 6.33654 5.5647 6.26285C5.62907 6.1963 5.70953 6.08696 5.78309 5.99902C5.85666 5.91107 5.87964 5.84927 5.92792 5.74706C5.9762 5.64723 5.95321 5.55929 5.91643 5.48323C5.88424 5.40479 5.60148 4.66082 5.47045 4.36132Z" fill="white"/>
<defs>
<linearGradient id="paint0_linear_446_5615" x1="6.90488" y1="12.8122" x2="6.90488" y2="1.06374" gradientUnits="userSpaceOnUse">
<stop stop-color="#20B038"/>
<stop offset="1" stop-color="#60D66A"/>
</linearGradient>
<linearGradient id="paint1_linear_446_5615" x1="6.90494" y1="13.0228" x2="6.90494" y2="0.852997" gradientUnits="userSpaceOnUse">
<stop stop-color="#F9F9F9"/>
<stop offset="1" stop-color="white"/>
</linearGradient>
</defs>
</svg>
