<svg width="110" height="113" viewBox="0 0 110 113" fill="none" xmlns="http://www.w3.org/2000/svg">
<path d="M78.411 28.3306C80.69 29.0763 85.0076 38.5236 86.3684 40.747C87.8842 43.2238 89.0437 45.8986 90.1982 48.5631C90.6355 49.5722 91.0773 50.5983 91.2166 51.6894C91.3343 52.6117 91.2491 97.4918 91.2491 97.4918L56.7259 97.5586C56.7259 97.5586 57.9991 94.7714 58.57 93.6122C54.6892 89.7699 51.0873 85.646 47.8018 81.2838" fill="white"/>
<path d="M56.5418 97.6773L56.6183 97.5097C56.6308 97.4826 57.845 94.8257 58.4263 93.6365C54.5755 89.8176 50.9692 85.6859 47.7074 81.3551L47.896 81.213C51.1681 85.5573 54.7874 89.701 58.6528 93.5284L58.7133 93.5881L58.6757 93.6644C58.1929 94.6452 57.1939 96.8209 56.91 97.4404L91.1316 97.3741C91.1364 94.8196 91.2123 52.5857 91.0998 51.7043C90.9617 50.622 90.5185 49.5992 90.0902 48.6101C88.955 45.9905 87.7816 43.2817 86.2681 40.8086C85.9321 40.2595 85.4082 39.2562 84.8019 38.0944C82.9092 34.469 80.0488 28.9902 78.3749 28.4425L78.4483 28.2183C80.2136 28.7958 83.1008 34.3257 85.0114 37.9851C85.6156 39.1429 86.1379 40.1431 86.4699 40.6852C87.9919 43.1724 89.1688 45.889 90.3073 48.5161C90.7422 49.5203 91.1921 50.5587 91.3346 51.6743C91.4519 52.5935 91.3714 95.659 91.3681 97.4921L91.3679 97.6096L56.5418 97.6773Z" fill="black"/>
<path d="M62.6193 94.6069C61.5267 94.6069 60.1036 94.5245 58.5014 93.5444L58.5698 93.6124L56.9207 97.5586L62.6193 94.6069Z" fill="black"/>
<path d="M56.6865 97.8126L58.4303 93.6399L57.7025 92.917L58.5627 93.4433C60.0642 94.3623 61.3999 94.4888 62.6193 94.4888H63.1038L56.6865 97.8126ZM58.6354 93.7609L57.155 97.3042L62.149 94.7177C61.0775 94.6818 59.9171 94.4961 58.6354 93.7609Z" fill="black"/>
<path d="M42.2126 50.9328L26.6274 43.1255C24.2825 41.9509 23.3338 39.0976 24.5086 36.7528C25.6832 34.4079 28.5364 33.4591 30.8813 34.6339L46.4665 42.4413C48.8114 43.6159 49.7599 46.4691 48.5853 48.814C47.4107 51.1587 44.5575 52.1074 42.2126 50.9328Z" fill="white"/>
<path d="M44.3316 51.5534C43.5998 51.5534 42.8576 51.3879 42.1597 51.0384L26.5745 43.2308C25.4122 42.6486 24.5463 41.6484 24.1362 40.4151C23.726 39.1815 23.8209 37.8621 24.4031 36.6998C24.9853 35.5375 25.9852 34.6716 27.2188 34.2614C28.4524 33.851 29.7716 33.9461 30.9341 34.5281L46.5194 42.3354C47.6817 42.9177 48.5475 43.9178 48.9577 45.1512C49.3676 46.3847 49.273 47.7042 48.6908 48.8665C47.8384 50.5683 46.1165 51.5534 44.3316 51.5534ZM42.2655 50.8274C44.5483 51.9708 47.3361 51.0441 48.4798 48.7612C49.0339 47.6554 49.1238 46.4001 48.7337 45.2262C48.3436 44.0526 47.5195 43.101 46.4136 42.5471L30.8284 34.7395C29.7225 34.1854 28.4672 34.0953 27.2934 34.4856C26.1197 34.876 25.1682 35.7001 24.6143 36.8057C24.0602 37.9116 23.97 39.1669 24.3604 40.3408C24.7505 41.5144 25.5746 42.4659 26.6805 43.0198L42.2655 50.8274Z" fill="black"/>
<path d="M42.2125 50.9329L37.005 48.3242C34.6601 47.1496 33.7116 44.2964 34.8862 41.9515C36.0607 39.6066 38.914 38.6579 41.2589 39.8327L46.4664 42.4414C48.8113 43.616 49.7598 46.4692 48.5853 48.8141C47.4107 51.1588 44.5574 52.1075 42.2125 50.9329Z" fill="black"/>
<path d="M44.3316 51.5533C43.5998 51.5533 42.8576 51.3878 42.1597 51.0383L36.9522 48.4296C34.553 47.2276 33.5788 44.2977 34.7807 41.8985C35.9829 39.4993 38.9131 38.5258 41.3118 39.7271L46.5194 42.3358C47.6817 42.918 48.5475 43.9182 48.9577 45.1515C49.3676 46.3851 49.273 47.7046 48.6908 48.8669C47.8384 50.5682 46.1165 51.5533 44.3316 51.5533ZM42.2655 50.8273C44.5483 51.9707 47.3362 51.044 48.4798 48.7611C49.0339 47.6553 49.1239 46.4 48.7337 45.2261C48.3436 44.0525 47.5195 43.1009 46.4136 42.547L41.2061 39.9383C38.9237 38.7944 36.1356 39.7214 34.9917 42.0045C33.848 44.2873 34.7751 47.0749 37.0579 48.2188L42.2655 50.8273Z" fill="black"/>
<path d="M95.8943 111.982H51.4933V101.099C51.4933 99.1436 53.0783 97.5586 55.0333 97.5586H92.3543C94.3093 97.5586 95.8943 99.1436 95.8943 101.099V111.982Z" fill="#006CB5"/>
<path d="M95.894 112.1H51.493C51.4279 112.1 51.375 112.047 51.375 111.982V101.099C51.375 99.0818 53.0159 97.4409 55.033 97.4409H92.354C94.3711 97.4409 96.012 99.0818 96.012 101.099V111.982C96.012 112.047 95.9594 112.1 95.894 112.1ZM51.6112 111.864H95.7763V101.099C95.7763 99.2121 94.2411 97.6769 92.3543 97.6769H55.0332C53.1464 97.6769 51.6112 99.2121 51.6112 101.099V111.864Z" fill="black"/>
<path d="M90.212 104.77C91.257 104.77 92.1042 103.923 92.1042 102.878C92.1042 101.833 91.257 100.986 90.212 100.986C89.1669 100.986 88.3197 101.833 88.3197 102.878C88.3197 103.923 89.1669 104.77 90.212 104.77Z" fill="white"/>
<path d="M90.2119 104.888C89.1037 104.888 88.2017 103.986 88.2017 102.878C88.2017 101.77 89.1034 100.868 90.2119 100.868C91.3202 100.868 92.2219 101.769 92.2219 102.878C92.2222 103.986 91.3202 104.888 90.2119 104.888ZM90.2119 101.104C89.2335 101.104 88.4377 101.9 88.4377 102.878C88.4377 103.856 89.2335 104.652 90.2119 104.652C91.1904 104.652 91.9859 103.857 91.9859 102.878C91.9862 101.9 91.1904 101.104 90.2119 101.104Z" fill="black"/>
<path d="M74.9355 86.5156H39.0078C37.4806 86.5156 36.2426 85.2776 36.2426 83.7504V13.0885C36.2426 11.5613 37.4806 10.3232 39.0078 10.3232H74.9355C76.4626 10.3232 77.7007 11.5613 77.7007 13.0885V83.7502C77.7007 85.2775 76.4626 86.5156 74.9355 86.5156Z" fill="black"/>
<path d="M74.9355 86.8696H39.0078C37.2878 86.8696 35.8885 85.4701 35.8885 83.7501V13.0884C35.8885 11.3685 37.2878 9.96924 39.0078 9.96924H74.9352C76.6552 9.96924 78.0547 11.3685 78.0547 13.0884V83.7501C78.0547 85.4701 76.6554 86.8696 74.9355 86.8696ZM39.0078 10.6772C37.6781 10.6772 36.5965 11.7588 36.5965 13.0884V83.7501C36.5965 85.0798 37.6781 86.1616 39.0078 86.1616H74.9352C76.2648 86.1616 77.3467 85.0798 77.3467 83.7501V13.0884C77.3467 11.7588 76.2648 10.6772 74.9352 10.6772H39.0078Z" fill="black"/>
<path d="M36.6532 31.592C36.0061 31.592 35.4814 31.0673 35.4814 30.4202V24.1766C35.4814 23.5295 36.0061 23.0049 36.6532 23.0049C37.3003 23.0049 37.8249 23.5295 37.8249 24.1766V30.4202C37.8249 31.0673 37.3003 31.592 36.6532 31.592Z" fill="black"/>
<path d="M36.6532 41.1857C36.0061 41.1857 35.4814 40.6611 35.4814 40.014V33.7704C35.4814 33.1233 36.0061 32.5986 36.6532 32.5986C37.3003 32.5986 37.8249 33.1233 37.8249 33.7704V40.014C37.8249 40.6611 37.3003 41.1857 36.6532 41.1857Z" fill="black"/>
<path d="M61.6916 14.5502H52.2516C52.0005 14.5502 51.7966 14.3466 51.7966 14.0955V13.7365C51.7966 13.4854 52.0003 13.2817 52.2516 13.2817H61.6916C61.9427 13.2817 62.1464 13.4854 62.1464 13.7365V14.0955C62.1466 14.3466 61.943 14.5502 61.6916 14.5502Z" fill="white"/>
<path d="M61.6916 14.6683H52.2516C51.9356 14.6683 51.6786 14.4113 51.6786 14.0953V13.7363C51.6786 13.4206 51.9356 13.1636 52.2516 13.1636H61.6916C62.0074 13.1636 62.2644 13.4206 62.2644 13.7363V14.0953C62.2644 14.4113 62.0074 14.6683 61.6916 14.6683ZM52.2516 13.3996C52.0659 13.3996 51.9146 13.5506 51.9146 13.7363V14.0953C51.9146 14.281 52.0659 14.4323 52.2516 14.4323H61.6916C61.8773 14.4323 62.0284 14.281 62.0284 14.0953V13.7363C62.0284 13.5506 61.8773 13.3996 61.6916 13.3996H52.2516Z" fill="black"/>
<path d="M56.9717 84.2241C58.1051 84.2241 59.0239 83.3053 59.0239 82.1719C59.0239 81.0385 58.1051 80.1196 56.9717 80.1196C55.8383 80.1196 54.9194 81.0385 54.9194 82.1719C54.9194 83.3053 55.8383 84.2241 56.9717 84.2241Z" fill="white"/>
<path d="M56.9716 84.3422C55.7749 84.3422 54.8014 83.3687 54.8014 82.172C54.8014 80.9755 55.7749 80.002 56.9716 80.002C58.1684 80.002 59.1419 80.9755 59.1419 82.172C59.1421 83.3687 58.1686 84.3422 56.9716 84.3422ZM56.9716 80.2377C55.9049 80.2377 55.0374 81.1055 55.0374 82.1717C55.0374 83.2385 55.9052 84.106 56.9716 84.106C58.0384 84.106 58.9059 83.2382 58.9059 82.1717C58.9061 81.1055 58.0384 80.2377 56.9716 80.2377Z" fill="black"/>
<path d="M77.7009 16.2197H36.2426V78.9009H77.7009V16.2197Z" fill="white"/>
<path d="M77.8186 79.0187H36.1245V16.1016H77.8186V79.0187ZM36.3605 78.7827H77.5826V16.3376H36.3605V78.7827Z" fill="black"/>
<path d="M40.818 26.0498H41.1437V26.6051H41.6412V26.0498H41.9671V27.4908H41.6412V26.8893H41.1437V27.4908H40.818V26.0498Z" fill="black"/>
<path d="M42.6833 26.7642C42.6833 26.2934 42.9491 26.0234 43.3378 26.0234C43.7262 26.0234 43.9922 26.2953 43.9922 26.7642C43.9922 27.2351 43.7265 27.5176 43.3378 27.5176C42.9491 27.5176 42.6833 27.2351 42.6833 26.7642ZM43.6585 26.7642C43.6585 26.4754 43.5346 26.3047 43.338 26.3047C43.1414 26.3047 43.0173 26.4754 43.0173 26.7642C43.0173 27.0531 43.1412 27.2362 43.338 27.2362C43.5344 27.2362 43.6585 27.0531 43.6585 26.7642Z" fill="black"/>
<path d="M44.5669 26.0498H44.9008L45.0007 26.7229C45.0198 26.8749 45.0403 27.0268 45.0594 27.1786H45.0684C45.0965 27.0266 45.1253 26.873 45.1543 26.7229L45.3093 26.0498H45.5857L45.7408 26.7229C45.7696 26.8694 45.7986 27.025 45.8274 27.1786H45.8363C45.8555 27.025 45.8755 26.8711 45.8944 26.7229L45.9942 26.0498H46.3055L46.0497 27.4908H45.64L45.4991 26.8364C45.4762 26.725 45.4571 26.6096 45.4413 26.502H45.4325C45.4151 26.6098 45.3969 26.7252 45.374 26.8364L45.2374 27.4908H44.835L44.5669 26.0498Z" fill="black"/>
<path d="M47.8329 26.0498H48.1883L48.4222 26.6901C48.451 26.775 48.4762 26.8673 48.5052 26.956H48.514C48.543 26.8673 48.5673 26.775 48.5963 26.6901L48.8227 26.0498H49.1781V27.4908H48.8814V26.9619C48.8814 26.8215 48.9076 26.6117 48.9232 26.4722H48.9142L48.7962 26.8133L48.5926 27.3653H48.4118L48.2077 26.8133L48.0927 26.4722H48.084C48.0993 26.6117 48.1255 26.8213 48.1255 26.9619V27.4908H47.8334V26.0498H47.8329Z" fill="black"/>
<path d="M50.2293 26.0498H50.6189L51.0715 27.4908H50.7267L50.5382 26.7609C50.4981 26.6169 50.4596 26.4463 50.4211 26.2962H50.4124C50.3777 26.4484 50.339 26.6169 50.2991 26.7609L50.1096 27.4908H49.7766L50.2293 26.0498ZM50.0752 26.8945H50.7685V27.1477H50.0752V26.8945Z" fill="black"/>
<path d="M51.9185 26.977L51.4843 26.0498H51.8328L51.9614 26.3809C51.9999 26.489 52.0377 26.5888 52.0787 26.7005H52.0877C52.1288 26.5888 52.1698 26.489 52.2095 26.3809L52.3381 26.0498H52.6784L52.2442 26.977V27.4911H51.9185V26.977Z" fill="black"/>
<path d="M54.0198 26.0498H54.3535L54.4535 26.7229C54.4724 26.8749 54.4932 27.0268 54.5123 27.1786H54.521C54.5491 27.0266 54.5779 26.873 54.6067 26.7229L54.7618 26.0498H55.0381L55.1929 26.7229C55.222 26.8694 55.2508 27.025 55.2795 27.1786H55.2885C55.3074 27.025 55.3274 26.8711 55.3463 26.7229L55.4462 26.0498H55.7574L55.5014 27.4908H55.0919L54.951 26.8364C54.9279 26.725 54.9088 26.6096 54.8932 26.502H54.8845C54.867 26.6098 54.8488 26.7252 54.826 26.8364L54.6895 27.4908H54.2872L54.0198 26.0498Z" fill="black"/>
<path d="M56.4009 26.0498H57.3038V26.3231H56.7268V26.6124H57.2181V26.8857H56.7268V27.2178H57.326V27.4911H56.4009V26.0498Z" fill="black"/>
<path d="M58.9404 26.0498H59.2663V26.6051H59.7636V26.0498H60.0895V27.4908H59.7636V26.8893H59.2663V27.4908H58.9404V26.0498Z" fill="black"/>
<path d="M60.8743 26.0498H61.7772V26.3231H61.2002V26.6124H61.6915V26.8857H61.2002V27.2178H61.7994V27.4911H60.8743V26.0498Z" fill="black"/>
<path d="M62.5288 26.0498H62.8547V27.2178H63.4235V27.4911H62.5288V26.0498Z" fill="black"/>
<path d="M64.1173 26.0498H64.6124C64.9296 26.0498 65.1854 26.1633 65.1854 26.5133C65.1854 26.8522 64.9268 27.0018 64.6214 27.0018H64.4432V27.4908H64.1173V26.0498ZM64.6018 26.7432C64.7809 26.7432 64.8657 26.6634 64.8657 26.5133C64.8657 26.3625 64.7694 26.3085 64.5931 26.3085H64.443V26.7432H64.6018Z" fill="black"/>
<path d="M67.0104 26.977L66.5764 26.0498H66.925L67.0536 26.3809C67.0921 26.489 67.1298 26.5888 67.1709 26.7005H67.1796C67.2209 26.5888 67.262 26.489 67.3016 26.3809L67.4303 26.0498H67.7706L67.3363 26.977V27.4911H67.0104V26.977Z" fill="black"/>
<path d="M68.2988 26.7642C68.2988 26.2934 68.5648 26.0234 68.9533 26.0234C69.342 26.0234 69.6077 26.2953 69.6077 26.7642C69.6077 27.2351 69.342 27.5176 68.9533 27.5176C68.5646 27.5176 68.2988 27.2351 68.2988 26.7642ZM69.274 26.7642C69.274 26.4754 69.1498 26.3047 68.9533 26.3047C68.7567 26.3047 68.6328 26.4754 68.6328 26.7642C68.6328 27.0531 68.7567 27.2362 68.9533 27.2362C69.1498 27.2362 69.274 27.0531 69.274 26.7642Z" fill="black"/>
<path d="M70.3145 26.8232V26.0498H70.6404V26.8565C70.6404 27.1387 70.7291 27.2362 70.8905 27.2362C71.0527 27.2362 71.1459 27.1387 71.1459 26.8565V26.0498H71.46V26.8232C71.46 27.307 71.2634 27.5175 70.8905 27.5175C70.5177 27.5175 70.3145 27.307 70.3145 26.8232Z" fill="black"/>
<path d="M72.6858 26.3846C72.6858 26.294 72.6242 26.2451 72.5369 26.2451C72.4555 26.2451 72.396 26.2873 72.3354 26.3473L72.1562 26.1837C72.2601 26.0655 72.4055 25.9829 72.5775 25.9829C72.8154 25.9829 72.9966 26.1004 72.9966 26.3619C72.9966 26.6343 72.6646 26.7178 72.6906 26.9793H72.4064C72.3616 26.6763 72.6858 26.5517 72.6858 26.3846ZM72.3524 27.313C72.3524 27.1971 72.4359 27.1079 72.5485 27.1079C72.6611 27.1079 72.7446 27.1971 72.7446 27.313C72.7446 27.4279 72.6611 27.5171 72.5485 27.5171C72.4359 27.5171 72.3524 27.4282 72.3524 27.313Z" fill="black"/>
<path d="M43.9125 23.9482C43.9125 23.4861 44.1645 23.1958 44.5353 23.1958C44.7054 23.1958 44.8364 23.2803 44.9141 23.37L44.8544 23.4382C44.7758 23.3485 44.6691 23.2883 44.536 23.2883C44.2167 23.2883 44.0191 23.5427 44.0191 23.9468C44.0191 24.3517 44.2146 24.6137 44.5277 24.6137C44.6781 24.6137 44.7904 24.5523 44.8961 24.4341L44.9558 24.4978C44.8442 24.6274 44.7123 24.706 44.5225 24.706C44.1633 24.706 43.9125 24.411 43.9125 23.9482Z" fill="black"/>
<path d="M45.6917 24.1204V23.2222H45.7934V24.1088C45.7934 24.4966 45.9753 24.6134 46.1813 24.6134C46.3914 24.6134 46.5776 24.4966 46.5776 24.1088V23.2222H46.6741V24.1204C46.6741 24.5754 46.4327 24.7059 46.1816 24.7059C45.9305 24.7059 45.6917 24.5754 45.6917 24.1204Z" fill="black"/>
<path d="M47.4291 24.4865L47.4944 24.4166C47.6002 24.5363 47.7522 24.6135 47.9221 24.6135C48.1444 24.6135 48.2848 24.4943 48.2848 24.3208C48.2848 24.1389 48.1661 24.0808 48.0226 24.0164L47.8017 23.9173C47.6748 23.8613 47.5062 23.7707 47.5062 23.5548C47.5062 23.3433 47.6875 23.1958 47.9299 23.1958C48.1055 23.1958 48.2471 23.2756 48.3358 23.3702L48.277 23.4379C48.1916 23.3475 48.0757 23.2883 47.9299 23.2883C47.7375 23.2883 47.6084 23.3912 47.6084 23.5489C47.6084 23.719 47.754 23.7832 47.8605 23.8299L48.0809 23.9283C48.244 24.001 48.3875 24.0909 48.3875 24.314C48.3875 24.5372 48.2041 24.7062 47.9214 24.7062C47.7083 24.706 47.5442 24.6158 47.4291 24.4865Z" fill="black"/>
<path d="M49.4504 23.3097H48.9865V23.2222H50.0159V23.3097H49.5519V24.6792H49.4502V23.3097H49.4504Z" fill="black"/>
<path d="M50.6447 23.9463C50.6447 23.4851 50.8946 23.1958 51.2448 23.1958C51.5948 23.1958 51.8447 23.4854 51.8447 23.9463C51.8447 24.4077 51.5948 24.706 51.2448 24.706C50.8943 24.706 50.6447 24.4074 50.6447 23.9463ZM51.7383 23.9463C51.7383 23.5422 51.5405 23.2883 51.2448 23.2883C50.9489 23.2883 50.7511 23.5422 50.7511 23.9463C50.7511 24.3505 50.9489 24.6137 51.2448 24.6137C51.5405 24.6135 51.7383 24.3505 51.7383 23.9463Z" fill="black"/>
<path d="M52.6233 23.2222H52.7673L53.0715 24.077C53.1099 24.1846 53.1479 24.2929 53.1864 24.4008H53.1954C53.2338 24.2929 53.2678 24.1846 53.3063 24.077L53.6095 23.2222H53.7537V24.6792H53.6556V23.7213C53.6556 23.6033 53.6626 23.4497 53.6685 23.3277H53.6596L53.5463 23.6526L53.2322 24.5199H53.1441L52.8279 23.6526L52.713 23.3277H52.7042C52.7099 23.4497 52.717 23.6031 52.717 23.7213V24.6792H52.6235L52.6233 23.2222Z" fill="black"/>
<path d="M54.6273 23.2222H55.4248V23.3097H54.7293V23.8615H55.3134V23.949H54.7293V24.5917H55.4469V24.6792H54.6273V23.2222Z" fill="black"/>
<path d="M56.2092 23.2222H56.6258C56.9156 23.2222 57.1051 23.3284 57.1051 23.6068C57.1051 23.8723 56.9153 24.0102 56.6258 24.0102H56.3109V24.6792H56.2092V23.2222ZM56.5991 23.9245C56.8568 23.9245 57.0001 23.8223 57.0001 23.6071C57.0001 23.3878 56.8568 23.3081 56.5991 23.3081H56.3107V23.9245H56.5991ZM56.6029 23.9804L56.7001 23.9512L57.1329 24.6792H57.0147L56.6029 23.9804Z" fill="black"/>
<path d="M58.6276 24.4865L58.6929 24.4166C58.7987 24.5363 58.9509 24.6135 59.1208 24.6135C59.3431 24.6135 59.4833 24.4943 59.4833 24.3208C59.4833 24.1389 59.3646 24.0808 59.2211 24.0164L59.0002 23.9173C58.8732 23.8613 58.7045 23.7707 58.7045 23.5548C58.7045 23.3433 58.886 23.1958 59.1281 23.1958C59.3037 23.1958 59.4453 23.2756 59.5343 23.3702L59.4753 23.4379C59.3901 23.3475 59.274 23.2883 59.1281 23.2883C58.9358 23.2883 58.8067 23.3912 58.8067 23.5489C58.8067 23.719 58.9521 23.7832 59.0587 23.8299L59.2792 23.9283C59.4422 24.001 59.586 24.0909 59.586 24.314C59.586 24.5372 59.4026 24.7062 59.1199 24.7062C58.9068 24.706 58.7425 24.6158 58.6276 24.4865Z" fill="black"/>
<path d="M60.3301 24.1204V23.2222H60.432V24.1088C60.432 24.4966 60.6137 24.6134 60.8198 24.6134C61.03 24.6134 61.2163 24.4966 61.2163 24.1088V23.2222H61.3123V24.1204C61.3123 24.5754 61.0709 24.7059 60.8195 24.7059C60.5687 24.7059 60.3301 24.5754 60.3301 24.1204Z" fill="black"/>
<path d="M62.1801 23.2222H62.547C62.8767 23.2222 63.075 23.3293 63.075 23.6281C63.075 23.9139 62.8805 24.0527 62.5558 24.0527H62.2818V24.6792H62.1801V23.2222ZM62.53 23.967C62.8276 23.967 62.9699 23.8679 62.9699 23.6281C62.9699 23.3845 62.8222 23.3081 62.5213 23.3081H62.2815V23.967H62.53Z" fill="black"/>
<path d="M63.837 23.2222H64.204C64.5337 23.2222 64.7319 23.3293 64.7319 23.6281C64.7319 23.9139 64.5375 24.0527 64.2128 24.0527H63.9388V24.6792H63.837V23.2222ZM64.1873 23.967C64.4849 23.967 64.6272 23.8679 64.6272 23.6281C64.6272 23.3845 64.4794 23.3081 64.1785 23.3081H63.9388V23.967H64.1873Z" fill="black"/>
<path d="M65.4 23.9463C65.4 23.4851 65.6499 23.1958 65.9999 23.1958C66.3502 23.1958 66.6001 23.4854 66.6001 23.9463C66.6001 24.4077 66.3502 24.706 65.9999 24.706C65.6499 24.706 65.4 24.4074 65.4 23.9463ZM66.4936 23.9463C66.4936 23.5422 66.2959 23.2883 65.9999 23.2883C65.7042 23.2883 65.5065 23.5422 65.5065 23.9463C65.5065 24.3505 65.7042 24.6137 65.9999 24.6137C66.2959 24.6135 66.4936 24.3505 66.4936 23.9463Z" fill="black"/>
<path d="M67.3787 23.2222H67.7952C68.085 23.2222 68.2745 23.3284 68.2745 23.6068C68.2745 23.8723 68.0848 24.0102 67.7952 24.0102H67.4804V24.6792H67.3787V23.2222ZM67.7685 23.9245C68.0262 23.9245 68.1695 23.8223 68.1695 23.6071C68.1695 23.3878 68.0262 23.3081 67.7685 23.3081H67.4801V23.9245H67.7685ZM67.7723 23.9804L67.8695 23.9512L68.3024 24.6792H68.1841L67.7723 23.9804Z" fill="black"/>
<path d="M69.3386 23.3097H68.8746V23.2222H69.9041V23.3097H69.4401V24.6792H69.3384V23.3097H69.3386Z" fill="black"/>
<path d="M77.583 16.3384H36.3635V20.0124H77.583V16.3384Z" fill="#006CB5"/>
<path d="M38.9153 18.6862C38.6314 18.6862 38.4004 18.4551 38.4004 18.1712C38.4004 17.8873 38.6314 17.6562 38.9153 17.6562C39.1993 17.6562 39.4303 17.8873 39.4303 18.1712C39.4303 18.4551 39.1993 18.6862 38.9153 18.6862ZM38.9153 17.8923C38.7615 17.8923 38.6364 18.0173 38.6364 18.1712C38.6364 18.3248 38.7615 18.4502 38.9153 18.4502C39.0692 18.4502 39.1943 18.3251 39.1943 18.1712C39.1943 18.0173 39.0692 17.8923 38.9153 17.8923Z" fill="white"/>
<path d="M40.7117 18.6862C40.4278 18.6862 40.1968 18.4551 40.1968 18.1712C40.1968 17.8873 40.4278 17.6562 40.7117 17.6562C40.9956 17.6562 41.2267 17.8873 41.2267 18.1712C41.2267 18.4551 40.9956 18.6862 40.7117 18.6862ZM40.7117 17.8923C40.5579 17.8923 40.4328 18.0173 40.4328 18.1712C40.4328 18.3248 40.5579 18.4502 40.7117 18.4502C40.8654 18.4502 40.9907 18.3251 40.9907 18.1712C40.9907 18.0173 40.8654 17.8923 40.7117 17.8923Z" fill="white"/>
<path d="M42.5082 18.6862C42.2243 18.6862 41.9933 18.4551 41.9933 18.1712C41.9933 17.8873 42.2243 17.6562 42.5082 17.6562C42.7921 17.6562 43.0232 17.8873 43.0232 18.1712C43.0232 18.4551 42.7921 18.6862 42.5082 18.6862ZM42.5082 17.8923C42.3544 17.8923 42.2293 18.0173 42.2293 18.1712C42.2293 18.3248 42.3544 18.4502 42.5082 18.4502C42.6619 18.4502 42.7872 18.3251 42.7872 18.1712C42.787 18.0173 42.6619 17.8923 42.5082 17.8923Z" fill="white"/>
<path d="M75.4982 18.8622H72.905V17.4424H75.4982V17.7763H75.9029V18.5285H75.4982V18.8622ZM73.023 18.7442H75.3802V18.4102H75.7849V17.8941H75.3802V17.5601H73.023V18.7442Z" fill="#F6EEE3"/>
<path d="M73.6045 17.6382H73.1122V18.6499H73.6045V17.6382Z" fill="#F6EEE3"/>
<path d="M73.6638 18.7088H73.0532V17.5791H73.6638V18.7088ZM73.1712 18.5908H73.5458V17.6971H73.1712V18.5908Z" fill="#006CB5"/>
<path d="M74.1914 17.6382H73.6991V18.6499H74.1914V17.6382Z" fill="#F6EEE3"/>
<path d="M74.2504 18.7088H73.6399V17.5791H74.2504V18.7088ZM73.7579 18.5908H74.1324V17.6971H73.7579V18.5908Z" fill="#006CB5"/>
<path d="M51.1572 74.4288H43.0695C42.786 74.4288 42.5564 74.1989 42.5564 73.9157V71.4188C42.5564 71.1354 42.786 70.9058 43.0695 70.9058H51.1572C51.4406 70.9058 51.6702 71.1356 51.6702 71.4188V73.9157C51.6705 74.1991 51.4406 74.4288 51.1572 74.4288Z" fill="#006CB5"/>
<path d="M50.1516 72.2761H43.9772C43.9283 72.2761 43.8887 72.2365 43.8887 72.1876C43.8887 72.1388 43.9283 72.0991 43.9772 72.0991H50.1516C50.2005 72.0991 50.2401 72.1388 50.2401 72.1876C50.2401 72.2365 50.2005 72.2761 50.1516 72.2761Z" fill="#F6EEE3"/>
<path d="M49.2973 73.3542H44.8607C44.8119 73.3542 44.7722 73.3146 44.7722 73.2657C44.7722 73.2169 44.8119 73.1772 44.8607 73.1772H49.2973C49.3461 73.1772 49.3858 73.2169 49.3858 73.2657C49.3858 73.3146 49.3461 73.3542 49.2973 73.3542Z" fill="#F6EEE3"/>
<path d="M61.0132 74.4288H53.0419C52.7584 74.4288 52.5288 74.1989 52.5288 73.9157V71.4188C52.5288 71.1354 52.7587 70.9058 53.0419 70.9058H61.0132C61.2967 70.9058 61.5263 71.1356 61.5263 71.4188V73.9157C61.5265 74.1991 61.2967 74.4288 61.0132 74.4288Z" fill="#ED9D4A"/>
<path d="M60.0078 72.2761H53.8334C53.7845 72.2761 53.7449 72.2365 53.7449 72.1876C53.7449 72.1388 53.7845 72.0991 53.8334 72.0991H60.0076C60.0565 72.0991 60.0961 72.1388 60.0961 72.1876C60.0963 72.2365 60.0567 72.2761 60.0078 72.2761Z" fill="#F6EEE3"/>
<path d="M59.4113 73.3542H54.9747C54.9259 73.3542 54.8862 73.3146 54.8862 73.2657C54.8862 73.2169 54.9259 73.1772 54.9747 73.1772H59.4113C59.4601 73.1772 59.4998 73.2169 59.4998 73.2657C59.4998 73.3146 59.4601 73.3542 59.4113 73.3542Z" fill="#F6EEE3"/>
<path d="M67.0166 65.2166H47.2601C47.2113 65.2166 47.1716 65.1769 47.1716 65.1281C47.1716 65.0792 47.2113 65.0396 47.2601 65.0396H67.0166C67.0655 65.0396 67.1051 65.0792 67.1051 65.1281C67.1051 65.1769 67.0655 65.2166 67.0166 65.2166Z" fill="black"/>
<path d="M65.1083 67.1951H50.9125C50.8636 67.1951 50.824 67.1554 50.824 67.1066C50.824 67.0577 50.8636 67.0181 50.9125 67.0181H65.1083C65.1572 67.0181 65.1968 67.0577 65.1968 67.1066C65.1968 67.1554 65.1572 67.1951 65.1083 67.1951Z" fill="black"/>
<path d="M70.8957 74.4288H62.7832C62.4998 74.4288 62.2701 74.1989 62.2701 73.9157V71.4188C62.2701 71.1354 62.5 70.9058 62.7832 70.9058H70.8957C71.1791 70.9058 71.4088 71.1356 71.4088 71.4188V73.9157C71.4088 74.1991 71.1791 74.4288 70.8957 74.4288Z" fill="#006CB5"/>
<path d="M69.9267 72.2761H63.7522C63.7033 72.2761 63.6637 72.2365 63.6637 72.1876C63.6637 72.1388 63.7033 72.0991 63.7522 72.0991H69.9267C69.9755 72.0991 70.0152 72.1388 70.0152 72.1876C70.0152 72.2365 69.9755 72.2761 69.9267 72.2761Z" fill="#F6EEE3"/>
<path d="M69.3304 73.3542H64.8938C64.8449 73.3542 64.8053 73.3146 64.8053 73.2657C64.8053 73.2169 64.8449 73.1772 64.8938 73.1772H69.3304C69.3792 73.1772 69.4189 73.2169 69.4189 73.2657C69.4189 73.3146 69.3792 73.3542 69.3304 73.3542Z" fill="#F6EEE3"/>
<path opacity="0.2" d="M67.123 57.7895C72.6075 52.305 72.6075 43.4128 67.123 37.9283C61.6385 32.4438 52.7463 32.4438 47.2618 37.9283C41.7773 43.4128 41.7773 52.305 47.2618 57.7895C52.7463 63.274 61.6385 63.274 67.123 57.7895Z" fill="#006CB5"/>
<path d="M52.1501 45.7643C51.7798 45.7643 51.4799 45.4641 51.4799 45.094V42.6014C51.4799 42.2311 51.78 41.9312 52.1501 41.9312C52.5204 41.9312 52.8206 42.2313 52.8206 42.6014V45.094C52.8203 45.4641 52.5204 45.7643 52.1501 45.7643Z" fill="#006CB5"/>
<path d="M52.1501 45.8823C51.7153 45.8823 51.3618 45.5286 51.3618 45.0941V42.6012C51.3618 42.1665 51.7153 41.813 52.1501 41.813C52.5848 41.813 52.9385 42.1668 52.9385 42.6012V45.0941C52.9385 45.5286 52.5848 45.8823 52.1501 45.8823ZM52.1501 42.049C51.8456 42.049 51.5978 42.2968 51.5978 42.6012V45.0941C51.5978 45.3985 51.8456 45.6463 52.1501 45.6463C52.4547 45.6463 52.7025 45.3985 52.7025 45.0941V42.6012C52.7025 42.2968 52.4547 42.049 52.1501 42.049Z" fill="black"/>
<path d="M64.6872 42.755C64.7214 42.4893 64.741 42.2188 64.741 41.9437C64.741 38.4773 61.9311 35.6675 58.4648 35.6675C54.9984 35.6675 52.1886 38.4775 52.1886 41.9437C52.1886 44.9437 54.2942 47.4507 57.1078 48.0712C57.0733 48.3369 57.0537 48.6074 57.0537 48.8825C57.0537 52.3489 59.8638 55.1587 63.3299 55.1587C66.7961 55.1587 69.6061 52.3487 69.6061 48.8825C69.6063 45.8823 67.5007 43.3755 64.6872 42.755Z" fill="black"/>
<path d="M63.3301 55.2768C59.8045 55.2768 56.9359 52.4085 56.9359 48.8826C56.9359 48.6499 56.9501 48.408 56.9779 48.1626C54.128 47.4829 52.0708 44.885 52.0708 41.944C52.0708 38.4181 54.9391 35.5498 58.465 35.5498C61.9906 35.5498 64.8592 38.4181 64.8592 41.944C64.8592 42.1767 64.845 42.4186 64.8172 42.664C67.6671 43.3435 69.7245 45.9416 69.7245 48.8826C69.7245 52.4082 66.856 55.2768 63.3301 55.2768ZM58.465 35.7856C55.0694 35.7856 52.3068 38.5482 52.3068 41.9438C52.3068 44.8107 54.3366 47.3392 57.1332 47.9559C57.1929 47.9691 57.2328 48.0257 57.225 48.0861C57.1899 48.3582 57.1719 48.6261 57.1719 48.8822C57.1719 52.2777 59.9346 55.0403 63.3301 55.0403C66.7259 55.0403 69.4885 52.2777 69.4885 48.8822C69.4885 46.0152 67.4585 43.4867 64.6619 42.8701C64.6022 42.8568 64.5623 42.8004 64.5701 42.7398C64.6052 42.4677 64.6232 42.1998 64.6232 41.9435C64.6229 38.5482 61.8603 35.7856 58.465 35.7856Z" fill="black"/>
<path d="M63.4927 44.0343C63.4927 43.134 62.9201 42.3693 62.1201 42.0786V40.9113C62.1201 38.2327 59.9487 36.061 57.2698 36.061C54.591 36.061 52.4196 38.2325 52.4196 40.9113V45.4954C52.4196 47.5252 53.8703 49.2143 55.7911 49.5871V53.5694H61.4102V47.3319C61.6519 46.9352 61.8374 46.5021 61.9575 46.0415C62.8416 45.8008 63.4927 44.9946 63.4927 44.0343Z" fill="white"/>
<path d="M61.4102 53.6872H55.7908C55.7256 53.6872 55.6728 53.6344 55.6728 53.5692V49.6833C53.7133 49.2566 52.3013 47.5106 52.3013 45.4952V40.9111C52.3013 38.1717 54.5301 35.9429 57.2698 35.9429C60.0095 35.9429 62.2381 38.1717 62.2381 40.9111V41.9972C63.0624 42.3326 63.6104 43.1406 63.6104 44.0339C63.6104 45.0001 62.9739 45.8546 62.0542 46.1359C61.935 46.5678 61.7583 46.9806 61.5282 47.3646V53.5692C61.5282 53.6346 61.4753 53.6872 61.4102 53.6872ZM55.9088 53.4512H61.2922V47.3318C61.2922 47.31 61.2981 47.2888 61.3094 47.2704C61.5478 46.8789 61.7276 46.4553 61.8435 46.0113C61.8541 45.9705 61.8859 45.9384 61.9265 45.9273C62.779 45.6953 63.3744 44.9168 63.3744 44.0339C63.3744 43.2119 62.854 42.4706 62.0797 42.1891C62.0332 42.1721 62.0021 42.128 62.0021 42.0782V40.9111C62.0021 38.3017 59.8792 36.1789 57.2698 36.1789C54.6603 36.1789 52.5373 38.3019 52.5373 40.9111V45.4952C52.5373 47.4306 53.915 49.1027 55.8134 49.4711C55.8686 49.482 55.9088 49.5306 55.9088 49.587V53.4512Z" fill="black"/>
<path d="M52.4213 40.8748C53.7155 40.4736 54.6555 39.2671 54.6555 37.841C54.6555 37.52 54.6069 37.2106 54.5184 36.9185C53.2605 37.7872 52.4335 39.2334 52.4213 40.8748Z" fill="black"/>
<path d="M52.4212 40.9931C52.3962 40.9931 52.3714 40.9851 52.3509 40.9697C52.3207 40.9473 52.303 40.9117 52.3032 40.8742C52.3153 39.2571 53.1181 37.7422 54.4513 36.8218C54.4824 36.8003 54.5214 36.7949 54.5573 36.8074C54.5927 36.8199 54.6203 36.8485 54.6311 36.8846C54.7253 37.1959 54.7734 37.5178 54.7734 37.8413C54.7734 39.2937 53.8422 40.5582 52.4564 40.9879C52.4448 40.9912 52.433 40.9931 52.4212 40.9931ZM54.4494 37.1135C53.3058 37.964 52.6046 39.2875 52.5435 40.709C53.7431 40.2662 54.5374 39.1339 54.5374 37.8413C54.5374 37.5961 54.5079 37.3521 54.4494 37.1135Z" fill="black"/>
<path d="M57.2699 36.061C56.3271 36.061 55.4498 36.3343 54.7053 36.8C54.5634 38.7354 56.4427 40.8448 59.2355 41.7312C60.2279 42.0462 61.2146 42.1675 62.1199 42.1196V40.9111C62.1202 38.2327 59.9485 36.061 57.2699 36.061Z" fill="black"/>
<path d="M61.7411 42.2476C60.9092 42.2476 60.0383 42.1098 59.1996 41.8436C56.3782 40.9482 54.4385 38.8235 54.5872 36.7913C54.59 36.7538 54.6106 36.7198 54.6424 36.7C55.4342 36.2046 56.3428 35.9429 57.2696 35.9429C60.0091 35.9429 62.2379 38.1717 62.2379 40.9111V42.1197C62.2379 42.1825 62.1888 42.2342 62.126 42.2375C61.999 42.2443 61.8704 42.2476 61.7411 42.2476ZM54.8192 36.8682C54.7246 38.7454 56.6246 40.7787 59.2711 41.6187C60.1752 41.9054 61.1152 42.038 62.0019 42.0069V40.9111C62.0019 38.3017 59.879 36.1789 57.2696 36.1789C56.4075 36.1789 55.5614 36.4172 54.8192 36.8682Z" fill="black"/>
<path d="M53.7437 43.4358C53.748 43.6083 53.8912 43.7448 54.0638 43.7405C54.2363 43.7363 54.3727 43.593 54.3684 43.4205C54.3642 43.248 54.2209 43.1116 54.0484 43.1158C53.8759 43.1201 53.7395 43.2633 53.7437 43.4358Z" fill="black"/>
<path d="M57.049 43.4358C57.0533 43.6083 57.1965 43.7448 57.3691 43.7405C57.5416 43.7363 57.678 43.593 57.6737 43.4205C57.6695 43.248 57.5262 43.1116 57.3537 43.1158C57.1812 43.1201 57.0448 43.2633 57.049 43.4358Z" fill="black"/>
<path d="M55.6053 42.52L55.5848 43.5558C55.5822 43.6835 55.4767 43.7852 55.3488 43.7826L55.1187 43.7781C54.9445 43.7746 54.8006 43.9131 54.7973 44.0871C54.7888 44.5182 55.1314 44.8748 55.5626 44.8833L55.9228 44.8904" fill="white"/>
<path d="M55.923 45.0088C55.9223 45.0088 55.9213 45.0088 55.9206 45.0088L55.5605 45.0017C55.3205 44.997 55.0965 44.899 54.9301 44.7258C54.7637 44.5528 54.6745 44.3251 54.6793 44.0851C54.684 43.8462 54.882 43.6666 55.121 43.6603L55.3511 43.665C55.3521 43.665 55.3528 43.665 55.3535 43.665C55.4151 43.665 55.4658 43.6157 55.4668 43.5538L55.4873 42.518C55.4887 42.4529 55.5378 42.4005 55.6077 42.4024C55.6728 42.4036 55.7245 42.4576 55.7233 42.5228L55.7028 43.5586C55.699 43.7511 55.5435 43.8975 55.3464 43.901L55.1163 43.8963C55.0033 43.8906 54.9171 43.9808 54.915 44.0896C54.9115 44.2668 54.9773 44.4344 55.0998 44.5623C55.2228 44.6899 55.3877 44.7622 55.5647 44.7657L55.9249 44.7728C55.99 44.774 56.0419 44.828 56.0405 44.8931C56.0396 44.9573 55.9869 45.0088 55.923 45.0088Z" fill="black"/>
<path d="M54.8497 47.5911C54.8637 47.5951 54.879 47.5944 54.8934 47.5883C54.9078 47.5819 55.2549 47.4375 55.5051 47.7124C55.5292 47.7388 55.5702 47.741 55.5969 47.7167C55.6236 47.6926 55.6255 47.6513 55.6014 47.6249C55.287 47.2798 54.8457 47.467 54.8412 47.4689C54.8084 47.4833 54.7936 47.5215 54.8077 47.5543C54.8157 47.5732 54.8316 47.5861 54.8497 47.5911Z" fill="black"/>
<path d="M55.5532 47.7927C55.5192 47.7927 55.486 47.779 55.4614 47.7523C55.2372 47.5059 54.9203 47.6409 54.9172 47.6423C54.8894 47.6539 54.8608 47.6558 54.8337 47.648C54.7978 47.6378 54.7688 47.6123 54.7537 47.5781C54.7268 47.5156 54.7553 47.4424 54.8174 47.4151C54.8391 47.4063 55.3099 47.2175 55.6448 47.5852C55.6908 47.6357 55.6873 47.7143 55.6368 47.7606C55.6129 47.782 55.583 47.7927 55.5532 47.7927ZM55.1242 47.4866C55.2547 47.4866 55.4142 47.5253 55.5485 47.6728C55.2783 47.3575 54.8806 47.5165 54.8641 47.5234L54.866 47.5345C54.8669 47.5347 54.8679 47.5349 54.8707 47.534C54.8719 47.5333 54.9807 47.4866 55.1242 47.4866Z" fill="black"/>
<path d="M58.4631 42.3984C58.3082 42.4298 58.1279 42.3736 57.9507 42.3292C57.7732 42.2808 57.5936 42.2365 57.4365 42.2037C57.2788 42.1706 57.0966 42.1388 56.9144 42.1119C56.7341 42.0812 56.5458 42.06 56.4186 41.9693C56.2954 41.8837 56.2746 41.7083 56.4771 41.5405C56.6688 41.376 57.1068 41.2453 57.6286 41.3536C58.1492 41.4643 58.4914 41.7586 58.5947 41.9851C58.7061 42.2188 58.612 42.3698 58.4631 42.3984Z" fill="black"/>
<path d="M53.1939 42.1597C53.3183 42.1621 53.4498 42.0927 53.5805 42.033C53.711 41.9702 53.8436 41.9102 53.9607 41.8623C54.078 41.8142 54.2144 41.7637 54.3515 41.7167C54.4865 41.6672 54.6295 41.624 54.7149 41.5357C54.798 41.4519 54.789 41.3132 54.6085 41.2122C54.4367 41.1121 54.0792 41.0736 53.6907 41.2317C53.3037 41.3918 53.0809 41.6683 53.0332 41.8583C52.9801 42.0554 53.0745 42.159 53.1939 42.1597Z" fill="black"/>
<path d="M56.8801 45.2559L56.8808 45.3786C56.8824 45.6634 56.6613 45.8997 56.3769 45.9171L55.4775 45.9724" fill="white"/>
<path d="M55.4775 46.0904C55.4154 46.0904 55.3635 46.0423 55.3597 45.9798C55.3557 45.9146 55.405 45.8587 55.4704 45.8547L56.3696 45.7995C56.5912 45.7858 56.7637 45.6015 56.7625 45.3794L56.7618 45.2564C56.7613 45.1913 56.814 45.1382 56.8791 45.1377C56.9388 45.1365 56.9973 45.1899 56.9978 45.255L56.9985 45.3777C57.0006 45.7251 56.7304 46.0135 56.384 46.0347L55.4846 46.09C55.4824 46.0902 55.4799 46.0904 55.4775 46.0904Z" fill="black"/>
<path d="M61.9214 46.2575C60.8627 46.2575 60.0046 45.3995 60.0046 44.3408V43.3538C60.0046 42.2951 60.8627 41.437 61.9214 41.437C62.9801 41.437 63.8382 42.2951 63.8382 43.3538V44.3408C63.8382 45.3995 62.9801 46.2575 61.9214 46.2575Z" fill="#006CB5"/>
<path d="M61.9214 46.3756C60.7995 46.3756 59.8868 45.4628 59.8868 44.3408V43.3536C59.8868 42.2317 60.7995 41.3188 61.9214 41.3188C63.0433 41.3188 63.9562 42.2317 63.9562 43.3536V44.3408C63.9562 45.463 63.0433 46.3756 61.9214 46.3756ZM61.9214 41.5553C60.9297 41.5553 60.1228 42.3622 60.1228 43.3541V44.3413C60.1228 45.3332 60.9297 46.1401 61.9214 46.1401C62.9133 46.1401 63.7202 45.3332 63.7202 44.3413V43.3541C63.7202 42.362 62.9133 41.5553 61.9214 41.5553Z" fill="black"/>
<path d="M61.9215 45.1129C61.3657 45.1129 60.9152 44.6624 60.9152 44.1066V43.5883C60.9152 43.0326 61.3657 42.582 61.9215 42.582C62.4772 42.582 62.9278 43.0326 62.9278 43.5883V44.1066C62.9278 44.6624 62.4772 45.1129 61.9215 45.1129Z" fill="white"/>
<path d="M61.9214 45.2307C61.3015 45.2307 60.7971 44.7264 60.7971 44.1064V43.5882C60.7971 42.9684 61.3015 42.4639 61.9214 42.4639C62.5414 42.4639 63.046 42.9682 63.046 43.5882V44.1064C63.046 44.7264 62.5414 45.2307 61.9214 45.2307ZM61.9214 42.7001C61.4317 42.7001 61.0331 43.0985 61.0331 43.5884V44.1067C61.0331 44.5964 61.4317 44.995 61.9214 44.995C62.4114 44.995 62.81 44.5966 62.81 44.1067V43.5884C62.81 43.0985 62.4114 42.7001 61.9214 42.7001Z" fill="black"/>
<path d="M61.9215 44.4798C61.6437 44.4798 61.4183 44.2544 61.4183 43.9766V43.7175C61.4183 43.4397 61.6435 43.2144 61.9215 43.2144C62.1993 43.2144 62.4246 43.4397 62.4246 43.7175V43.9766C62.4246 44.2546 62.1995 44.4798 61.9215 44.4798Z" fill="white"/>
<path d="M61.9214 44.5981C61.579 44.5981 61.3003 44.3194 61.3003 43.977V43.7178C61.3003 43.3752 61.579 43.0967 61.9214 43.0967C62.2641 43.0967 62.5428 43.3754 62.5428 43.7178V43.977C62.5428 44.3194 62.2641 44.5981 61.9214 44.5981ZM61.9214 43.3324C61.709 43.3324 61.5363 43.5052 61.5363 43.7176V43.9767C61.5363 44.1891 61.709 44.3619 61.9214 44.3619C62.1338 44.3619 62.3068 44.1891 62.3068 43.9767V43.7176C62.3068 43.5054 62.1338 43.3324 61.9214 43.3324Z" fill="black"/>
<path d="M59.7556 47.2996H56.5826C56.5175 47.2996 56.4646 47.2467 56.4646 47.1816C56.4646 47.1164 56.5175 47.0636 56.5826 47.0636H59.7556C60.8846 47.0636 61.8034 46.1835 61.8034 45.1017V44.4803C61.8034 44.4152 61.8563 44.3623 61.9214 44.3623C61.9865 44.3623 62.0394 44.4152 62.0394 44.4803V45.1017C62.0394 46.3136 61.0149 47.2996 59.7556 47.2996Z" fill="black"/>
<path d="M56.9725 47.5038H56.4533C56.2886 47.5038 56.1548 47.3702 56.1548 47.2053C56.1548 47.0403 56.2884 46.9067 56.4533 46.9067H56.9725C57.1373 46.9067 57.2711 47.0403 57.2711 47.2053C57.2708 47.3702 57.1373 47.5038 56.9725 47.5038Z" fill="#006CB5"/>
<path d="M56.9722 47.6217H56.453C56.2234 47.6217 56.0365 47.435 56.0365 47.2051C56.0365 46.9755 56.2234 46.7886 56.453 46.7886H56.9722C57.2019 46.7886 57.3888 46.9755 57.3888 47.2051C57.3888 47.435 57.2019 47.6217 56.9722 47.6217ZM56.453 47.0248C56.3535 47.0248 56.2725 47.1058 56.2725 47.2054C56.2725 47.3047 56.3535 47.3859 56.453 47.3859H56.9722C57.0718 47.3859 57.1528 47.3049 57.1528 47.2054C57.1528 47.106 57.0718 47.0248 56.9722 47.0248H56.453Z" fill="black"/>
<path d="M56.9902 45.1149C56.88 45.0415 56.7334 45.0596 56.6357 45.1491C56.4578 45.3119 56.0707 45.601 55.5161 45.6574C55.38 45.6713 55.3096 45.8297 55.3682 45.9534C55.4968 46.2255 55.8409 46.6451 56.5574 46.309C57.4303 45.8998 57.2776 45.306 56.9902 45.1149Z" fill="white"/>
<path d="M56.063 46.5533C55.569 46.5533 55.3335 46.1566 55.2615 46.0039C55.215 45.905 55.2193 45.7889 55.2733 45.6938C55.3229 45.606 55.4069 45.55 55.5044 45.5401C56.0233 45.4873 56.3863 45.218 56.5565 45.0622C56.6971 44.9334 56.9024 44.9145 57.0558 45.0169C57.2406 45.1396 57.349 45.3667 57.332 45.5951C57.318 45.7813 57.2059 46.1358 56.6079 46.4162C56.3988 46.5141 56.218 46.5533 56.063 46.5533ZM56.8375 45.1873C56.7946 45.1873 56.7507 45.2038 56.7155 45.2362C56.5237 45.4117 56.1144 45.7152 55.528 45.7749C55.502 45.7775 55.4864 45.7952 55.4784 45.8099C55.4624 45.8382 55.461 45.8741 55.4746 45.9033C55.5877 46.1426 55.8716 46.5002 56.5074 46.2026C56.8699 46.0324 57.079 45.8106 57.0962 45.5776C57.1094 45.4016 57.0122 45.2716 56.9251 45.2135C56.8989 45.1958 56.8685 45.1873 56.8375 45.1873Z" fill="black"/>
<path d="M55.8308 49.6017C55.8308 49.6017 57.6249 49.8672 58.8195 48.772C58.8195 48.772 58.4174 50.9125 55.8308 50.896V49.6017Z" fill="black"/>
<path d="M55.8605 51.0142C55.8504 51.0142 55.8402 51.0142 55.8301 51.0142C55.7652 51.0137 55.7128 50.9611 55.7128 50.8962V49.602C55.7128 49.5678 55.7279 49.5352 55.7536 49.5128C55.7796 49.4904 55.8147 49.4807 55.848 49.4854C55.865 49.4878 57.6017 49.7285 58.7397 48.6854C58.7772 48.6511 58.8324 48.6443 58.8768 48.6693C58.9212 48.6941 58.9448 48.7444 58.9353 48.7942C58.9313 48.8163 58.4877 51.0142 55.8605 51.0142ZM55.9488 49.7337V50.7773C57.7006 50.7428 58.3628 49.6782 58.5929 49.105C57.589 49.808 56.3556 49.7695 55.9488 49.7337Z" fill="black"/>
<path d="M58.4867 54.4074H56.3936C55.2176 54.4074 54.2642 53.4539 54.2642 52.2779V51.3677H56.3572C57.5332 51.3677 58.4867 52.3211 58.4867 53.4971V54.4074Z" fill="white"/>
<path d="M58.4866 54.5252H56.3935C55.1543 54.5252 54.1461 53.517 54.1461 52.2778V51.3675C54.1461 51.3024 54.199 51.2495 54.2641 51.2495H56.3572C57.5964 51.2495 58.6044 52.2577 58.6044 53.4969V54.4072C58.6046 54.4723 58.552 54.5252 58.4866 54.5252ZM54.3824 51.4855V52.2778C54.3824 53.387 55.2846 54.2892 56.3938 54.2892H58.3689V53.4969C58.3689 52.3877 57.4666 51.4855 56.3577 51.4855H54.3824Z" fill="black"/>
<path d="M57.1931 54.4074H59.9548C61.2476 54.4074 62.2954 53.3593 62.2954 52.0667V51.3677H59.5338C58.241 51.3677 57.1931 52.4158 57.1931 53.7083V54.4074Z" fill="white"/>
<path d="M59.9547 54.5252H57.1931C57.1279 54.5252 57.0751 54.4723 57.0751 54.4072V53.7082C57.0751 52.3523 58.1781 51.2495 59.534 51.2495H62.2954C62.3605 51.2495 62.4134 51.3024 62.4134 51.3675V52.0663C62.4134 53.4221 61.3103 54.5252 59.9547 54.5252ZM57.3111 54.2892H59.9547C61.1803 54.2892 62.1774 53.2919 62.1774 52.0663V51.4855H59.534C58.3084 51.4855 57.3111 52.4826 57.3111 53.7082V54.2892Z" fill="black"/>
<path d="M57.1931 61.9028C62.1035 61.9028 66.4228 59.3809 68.9331 55.5634C67.5825 53.982 65.5753 52.978 63.3324 52.978H51.8573C49.3654 52.978 47.1642 54.2168 45.8318 56.1109C48.3851 59.6198 52.5214 61.9028 57.1931 61.9028Z" fill="#006CB5"/>
<path d="M57.1931 62.0207C52.6803 62.0207 48.3976 59.8372 45.7367 56.1801C45.707 56.1393 45.7065 56.0843 45.7358 56.0428C47.1381 54.0498 49.4268 52.8599 51.8576 52.8599H63.3326C65.5232 52.8599 67.5974 53.8173 69.0231 55.4865C69.0573 55.5267 69.0608 55.5842 69.032 55.6281C66.3997 59.6309 61.9737 62.0207 57.1931 62.0207ZM45.9774 56.1098C48.5977 59.6649 52.7837 61.7847 57.1929 61.7847C61.8642 61.7847 66.1911 59.4643 68.7854 55.5727C67.4065 53.9974 65.4243 53.0959 63.3322 53.0959H51.8571C49.5314 53.0956 47.3396 54.2209 45.9774 56.1098Z" fill="black"/>
<path d="M63.8381 57.0104H60.915C60.8499 57.0104 60.797 56.9576 60.797 56.8924C60.797 56.8273 60.8499 56.7744 60.915 56.7744H63.8381C63.9032 56.7744 63.9561 56.8273 63.9561 56.8924C63.9561 56.9578 63.9032 57.0104 63.8381 57.0104Z" fill="black"/>
<path d="M48.2756 49.8529L48.2857 49.8518C48.3006 49.7342 48.3152 49.6167 48.3299 49.4992L48.3301 49.498C48.5633 47.6357 48.7934 45.7727 49.0372 43.9119C49.0553 43.7736 49.0733 43.6325 49.0452 43.4958C49.0039 43.294 48.8569 43.1166 48.665 43.0361C48.4731 42.9556 48.2416 42.9747 48.0658 43.0854C47.86 43.215 47.7455 43.4477 47.6759 43.6785C47.5841 43.9829 47.4991 44.2876 47.405 44.5913C47.3122 44.8899 46.8726 44.8547 46.8303 44.5448C46.6767 43.4179 46.5247 42.291 46.3739 41.1637C46.3442 40.9413 46.3045 40.6997 46.1365 40.5489C45.9071 40.3431 45.4799 40.4373 45.361 40.7197C45.3128 40.8344 45.3114 40.9624 45.3107 41.0865C45.3069 41.8632 45.2699 42.6401 45.2994 43.4163C45.3223 44.0197 45.2458 44.4084 45.301 44.8441C45.2829 44.7011 45.2746 44.4868 45.2564 44.3438C45.146 43.4779 45.0252 42.6141 44.9515 41.7452C44.94 41.6099 44.8739 41.4605 44.7922 41.3515C44.7384 41.2798 44.6617 41.2243 44.5749 41.1986C44.488 41.1731 44.3903 41.1783 44.311 41.2215C44.2176 41.2722 44.1574 41.3692 44.1288 41.4705C44.0797 41.6444 44.0573 41.8268 44.0632 42.0062C44.0797 42.5214 44.1005 43.0366 44.1154 43.5517C44.1305 44.0766 44.1888 44.614 44.1682 45.1388C44.1739 44.9935 44.1331 44.8382 44.1083 44.6961C44.0561 44.3976 43.9969 44.1 43.9344 43.8033C43.8716 43.5057 43.8348 43.1449 43.5757 42.9431C43.4661 42.8579 43.3057 42.8161 43.1874 42.8888C43.1329 42.9223 43.0937 42.9761 43.0673 43.0337C42.9797 43.2244 43.0189 43.446 43.0435 43.6464C43.0673 43.8416 43.0909 44.037 43.1145 44.2321C43.1624 44.6272 43.2108 45.022 43.2646 45.4164C43.2924 45.6422 43.3198 45.8681 43.3477 46.0939L43.0213 45.2901C42.9009 44.9795 42.5311 44.4979 42.2387 44.6638C42.0707 44.7591 41.9985 44.9614 42.069 45.1393L43.6205 50.1158L43.4362 50.6952C43.6967 51.9651 44.0052 53.2872 44.5838 54.4061C45.2144 55.6253 46.0317 56.7146 46.9759 57.6933L48.2756 49.8529Z" fill="white"/>
<path d="M47.0864 57.7225C47.0805 57.7225 47.0744 57.7221 47.0685 57.7211C47.004 57.7112 46.9599 57.651 46.9698 57.5866L48.1593 49.8352C48.1616 49.8198 48.1668 49.8054 48.1744 49.7927L48.345 48.4281C48.5336 46.9173 48.7224 45.4062 48.9201 43.8965C48.9366 43.769 48.9541 43.6371 48.9298 43.5196C48.896 43.357 48.7745 43.2097 48.6195 43.1448C48.4637 43.0797 48.2711 43.0957 48.1288 43.1852C47.9787 43.2796 47.8676 43.4521 47.789 43.7126C47.7503 43.8405 47.713 43.9684 47.6757 44.0964C47.624 44.2731 47.5723 44.4499 47.5178 44.6264C47.4593 44.8147 47.2861 44.9301 47.0883 44.9139C46.8908 44.8976 46.74 44.7557 46.7135 44.561C46.5601 43.4341 46.4079 42.307 46.2571 41.1796C46.2278 40.9618 46.1908 40.7563 46.0579 40.6371C45.9779 40.5653 45.8564 40.5398 45.7313 40.5672C45.6086 40.5948 45.5109 40.6692 45.47 40.7662C45.4302 40.8608 45.4297 40.9762 45.4292 41.0878C45.428 41.3472 45.4231 41.6068 45.4181 41.8662C45.4084 42.3736 45.3983 42.8984 45.4179 43.4124C45.4283 43.6878 45.4184 43.9215 45.4096 44.1277C45.4004 44.3432 45.3922 44.5337 45.408 44.7277C45.4113 44.7642 45.4146 44.7987 45.4186 44.8298C45.4269 44.8945 45.3811 44.9537 45.3162 44.962C45.2532 44.9696 45.1925 44.9245 45.1842 44.8598C45.1842 44.8584 45.184 44.857 45.1835 44.8553C45.1786 44.8152 45.1746 44.7758 45.1715 44.7366C45.168 44.6939 45.1647 44.6493 45.1613 44.6045C45.155 44.5169 45.1486 44.4294 45.1396 44.3595L45.0795 43.8922C44.9888 43.1937 44.8949 42.4713 44.8343 41.7562C44.8253 41.6509 44.7731 41.5235 44.6981 41.4232C44.6582 41.3699 44.6027 41.3307 44.5416 41.3127C44.4807 41.2946 44.4158 41.3 44.3674 41.3262C44.3113 41.3566 44.2657 41.4213 44.2426 41.5037C44.1963 41.6672 44.1758 41.8355 44.1812 42.0033L44.203 42.635C44.2138 42.94 44.2247 43.2446 44.2334 43.5493C44.2386 43.7334 44.2492 43.9191 44.2598 44.1051C44.2794 44.4461 44.2995 44.7989 44.286 45.1444C44.2834 45.2096 44.2251 45.2627 44.1635 45.2577C44.0984 45.2551 44.0477 45.2004 44.0503 45.1352C44.0503 45.1348 44.0503 45.1343 44.0503 45.1338C44.054 45.0361 44.0323 44.9266 44.0116 44.8204L43.9922 44.7173C43.9452 44.4482 43.89 44.1657 43.819 43.8285L43.7944 43.7065C43.7446 43.4502 43.6932 43.1852 43.5032 43.0372C43.431 42.9808 43.3208 42.9466 43.2493 42.9905C43.2129 43.0129 43.1886 43.0537 43.1747 43.0842C43.1091 43.2274 43.1317 43.4061 43.1539 43.579L43.2321 44.2191C43.2797 44.6134 43.3281 45.0078 43.3819 45.4017L43.465 46.0806C43.4723 46.1394 43.4348 46.1944 43.3774 46.2093C43.3196 46.2237 43.2606 46.1944 43.2384 46.1394L42.912 45.3356C42.8242 45.109 42.6109 44.8254 42.432 44.7616C42.3631 44.7373 42.3223 44.7531 42.297 44.7675C42.1795 44.8343 42.1297 44.9729 42.1788 45.097L43.7331 50.0818C43.7394 50.1026 43.7402 50.1247 43.7347 50.1457L43.5983 50.6845C43.5823 50.7478 43.5176 50.7855 43.4551 50.77C43.3918 50.7539 43.3536 50.6897 43.3696 50.6267L43.4978 50.1203L41.9562 45.1754C41.868 44.9526 41.9631 44.6854 42.1804 44.562C42.2798 44.5058 42.3942 44.4976 42.5111 44.5391C42.7898 44.6385 43.0244 44.9953 43.1188 45.2181C43.0763 44.8952 43.0366 44.5714 42.9972 44.2474L42.9196 43.6088C42.8946 43.4127 42.866 43.1904 42.9597 42.9857C42.9994 42.8994 43.0567 42.8316 43.1254 42.7894C43.2965 42.6844 43.5108 42.7446 43.6476 42.851C43.8631 43.0185 43.9429 43.2694 43.9957 43.5127C43.9872 43.2229 43.9769 42.9331 43.9665 42.6433L43.9448 42.0108C43.9384 41.8187 43.962 41.6264 44.0149 41.4395C44.0557 41.2941 44.1409 41.1801 44.2544 41.1187C44.358 41.0621 44.4866 41.0505 44.6079 41.0864C44.7174 41.1187 44.8163 41.1881 44.8864 41.2816C44.9881 41.4173 45.0561 41.587 45.0688 41.7361C45.0969 42.0644 45.1319 42.3948 45.1703 42.724C45.1708 42.434 45.1762 42.1453 45.1816 41.8619C45.1866 41.6035 45.1916 41.3453 45.1927 41.0869C45.1934 40.9585 45.1939 40.8129 45.252 40.6748C45.3223 40.5077 45.4821 40.3815 45.6791 40.3371C45.8776 40.292 46.0782 40.339 46.2149 40.4617C46.4235 40.6486 46.4636 40.9495 46.4903 41.1485C46.6411 42.2756 46.7933 43.4028 46.9467 44.5294C46.9606 44.6311 47.0387 44.6734 47.1072 44.679C47.1754 44.6845 47.261 44.6557 47.2917 44.5568C47.346 44.3817 47.3972 44.2061 47.4487 44.0305C47.4862 43.9019 47.5237 43.7733 47.5626 43.6447C47.6582 43.3275 47.8022 43.112 48.0026 42.9857C48.2114 42.8545 48.4826 42.8323 48.7101 42.9275C48.9383 43.0233 49.111 43.2319 49.1606 43.4724C49.1927 43.6288 49.1722 43.7874 49.154 43.9274C48.9562 45.4368 48.7674 46.9472 48.5789 48.4579L48.4026 49.867C48.4004 49.8847 48.3943 49.9013 48.3853 49.9154L47.2025 57.6229C47.194 57.6808 47.1437 57.7225 47.0864 57.7225Z" fill="black"/>
<path d="M46.3866 47.0229C46.363 47.017 46.3441 46.9977 46.3401 46.9724C46.098 45.3679 47.2931 44.6617 47.3051 44.6549C47.3349 44.6377 47.3731 44.6478 47.3903 44.6771C47.4078 44.7063 47.3976 44.7441 47.3679 44.7613C47.3214 44.788 46.2341 45.4346 46.4635 46.9545C46.4687 46.9882 46.4451 47.0194 46.4111 47.0243C46.4027 47.0253 46.3944 47.0248 46.3866 47.0229Z" fill="white"/>
<path d="M46.4017 47.1428C46.3871 47.1428 46.3725 47.1411 46.3581 47.1376C46.2875 47.1201 46.2346 47.0621 46.2236 46.9903C45.9689 45.3036 47.2339 44.5595 47.2466 44.5522C47.3318 44.5031 47.442 44.5321 47.4921 44.6171C47.5164 44.6584 47.523 44.7068 47.5109 44.7533C47.4987 44.8 47.4689 44.8392 47.4269 44.8632C47.3833 44.8883 46.3626 45.4941 46.5801 46.9365C46.5875 46.9837 46.5757 47.0311 46.5471 47.0696C46.5183 47.1085 46.4761 47.1338 46.4279 47.1406C46.4192 47.1421 46.4105 47.1428 46.4017 47.1428Z" fill="black"/>
<path d="M48.4373 31.6323H43.2456C41.3998 31.6323 39.9038 33.1286 39.9038 34.9741C39.9038 36.8198 41.4 38.3158 43.2456 38.3158H46.9085L48.2962 39.7035V38.3158H48.4373C50.2831 38.3158 51.7791 36.8196 51.7791 34.9741C51.7791 33.1286 50.2829 31.6323 48.4373 31.6323Z" fill="white"/>
<path d="M48.4142 39.9884L46.8596 38.4339H43.2455C41.3377 38.4339 39.7855 36.8817 39.7855 34.9742C39.7855 33.0663 41.3377 31.5142 43.2455 31.5142H48.4373C50.3449 31.5142 51.8973 33.0663 51.8973 34.9742C51.8973 36.882 50.3451 38.4339 48.4373 38.4339H48.4142V39.9884ZM43.2455 31.7502C41.4677 31.7502 40.0215 33.1964 40.0215 34.9742C40.0215 36.7517 41.4677 38.1979 43.2455 38.1979H46.9573L48.1782 39.4187V38.1979H48.4373C50.2151 38.1979 51.6613 36.7517 51.6613 34.9742C51.6613 33.1964 50.2151 31.7502 48.4373 31.7502H43.2455Z" fill="black"/>
<path d="M43.3475 35.5177C43.0475 35.5177 42.8037 35.2736 42.8037 34.9739C42.8037 34.6742 43.0477 34.4302 43.3475 34.4302C43.6474 34.4302 43.8914 34.6742 43.8914 34.9739C43.8914 35.2739 43.6474 35.5177 43.3475 35.5177ZM43.3475 34.6662C43.1778 34.6662 43.0397 34.8042 43.0397 34.9739C43.0397 35.1436 43.1778 35.2817 43.3475 35.2817C43.5171 35.2817 43.6554 35.1436 43.6554 34.9739C43.6554 34.8042 43.5171 34.6662 43.3475 34.6662Z" fill="black"/>
<path d="M48.3354 35.5177C48.0354 35.5177 47.7916 35.2736 47.7916 34.9739C47.7916 34.6742 48.0357 34.4302 48.3354 34.4302C48.6353 34.4302 48.8793 34.6742 48.8793 34.9739C48.8791 35.2739 48.6353 35.5177 48.3354 35.5177ZM48.3354 34.6662C48.1657 34.6662 48.0276 34.8042 48.0276 34.9739C48.0276 35.1436 48.1657 35.2817 48.3354 35.2817C48.5051 35.2817 48.6433 35.1436 48.6433 34.9739C48.6431 34.8042 48.5051 34.6662 48.3354 34.6662Z" fill="black"/>
<path d="M45.936 35.5177C45.6362 35.5177 45.3922 35.2736 45.3922 34.9739C45.3922 34.6742 45.6362 34.4302 45.936 34.4302C46.2359 34.4302 46.4797 34.6742 46.4797 34.9739C46.4797 35.2739 46.2357 35.5177 45.936 35.5177ZM45.936 34.6662C45.7663 34.6662 45.6282 34.8042 45.6282 34.9739C45.6282 35.1436 45.7663 35.2817 45.936 35.2817C46.1056 35.2817 46.2437 35.1436 46.2437 34.9739C46.2437 34.8042 46.1056 34.6662 45.936 34.6662Z" fill="black"/>
<path d="M89.3321 51.4866C89.1952 50.4157 88.7615 49.4084 88.3324 48.4177C87.1991 45.8021 86.0609 43.1764 84.5729 40.7451C83.2372 38.5626 78.9988 29.2882 76.7616 28.5564C74.4879 27.8125 72.0859 29.917 71.5925 32.2578C71.099 34.5987 71.9365 36.9922 72.7614 39.2378C72.8926 39.5953 73.0165 39.9609 73.1342 40.3328C74.6135 44.9962 76.5081 49.5109 78.7456 53.8615C78.8105 53.9878 78.8735 54.1136 78.9339 54.2382" fill="black"/>
<path d="M78.9342 54.3565C78.8906 54.3565 78.8485 54.332 78.828 54.2902C78.7678 54.166 78.7053 54.0412 78.6409 53.9156C76.3521 49.4652 74.4615 44.9073 73.0217 40.3688C72.9002 39.985 72.7753 39.6185 72.6505 39.2787C71.8979 37.2297 70.9614 34.6798 71.4769 32.2336C71.7719 30.8344 72.7196 29.5241 73.9499 28.8137C74.8913 28.2705 75.8764 28.1423 76.7982 28.4444C78.5323 29.0115 81.3667 34.4414 83.2426 38.0343C83.8357 39.1704 84.3481 40.1514 84.6737 40.6836C86.1686 43.1257 87.3238 45.7921 88.441 48.3708C88.8679 49.3566 89.3095 50.3756 89.4494 51.4716C89.4577 51.5363 89.4119 51.5953 89.3472 51.6036C89.283 51.6097 89.2236 51.566 89.2151 51.5014C89.0794 50.4387 88.6444 49.4352 88.2241 48.4645C87.1102 45.8933 85.9583 43.2345 84.4722 40.8066C84.1423 40.2675 83.6285 39.2829 83.0333 38.1431C81.1753 34.5839 78.3673 29.2055 76.725 28.6681C75.6432 28.3144 74.6829 28.6627 74.0679 29.0176C72.8938 29.6954 71.9894 30.946 71.7079 32.2818C71.2062 34.6616 72.1299 37.1764 72.8723 39.1968C72.9983 39.5399 73.1244 39.91 73.2469 40.297C74.6827 44.823 76.5681 49.3686 78.8507 53.8076C78.916 53.9345 78.9795 54.061 79.0406 54.1866C79.069 54.2453 79.0447 54.3159 78.9861 54.3445C78.9691 54.353 78.9514 54.3565 78.9342 54.3565Z" fill="black"/>
<path d="M79.7237 53.0024L78.0901 64.2598L77.8114 49.8374L79.7237 53.0024Z" fill="black"/>
<path d="M78.0903 64.3774C78.088 64.3774 78.0856 64.3774 78.083 64.3772C78.0217 64.3731 77.9735 64.3231 77.9723 64.2617L77.6934 49.8395C77.6924 49.7862 77.7274 49.7388 77.7786 49.7239C77.83 49.709 77.8845 49.7305 77.9122 49.7763L79.8242 52.9413C79.8386 52.9647 79.844 52.9923 79.84 53.0194L78.2067 64.2766C78.1987 64.3347 78.1486 64.3774 78.0903 64.3774ZM77.9379 50.2747L78.1802 62.8165L79.6007 53.0272L77.9379 50.2747Z" fill="black"/>
<path d="M91.2178 51.8337C91.0715 50.6882 90.6075 49.6106 90.1482 48.551C88.9362 45.7529 87.7184 42.9443 86.1266 40.3434C84.6978 38.0086 80.1638 28.0879 77.7705 27.3048C75.3383 26.509 72.769 28.7602 72.241 31.2642C71.7131 33.7682 72.6092 36.3288 73.4914 38.731C73.6318 39.1133 73.7642 39.5046 73.8904 39.9023C75.4728 44.8908 77.4996 49.7201 79.8931 54.3743C79.9625 54.5093 80.0297 54.6438 80.0946 54.7774" fill="white"/>
<path d="M80.0949 54.8955C80.0512 54.8955 80.0092 54.871 79.9887 54.8292C79.9245 54.6963 79.8575 54.5628 79.7883 54.4287C77.34 49.6681 75.318 44.7928 73.7781 39.9383C73.645 39.5196 73.5154 39.138 73.3807 38.7718C72.5759 36.5812 71.5746 33.8549 72.1256 31.2401C72.4409 29.7455 73.4531 28.3457 74.7672 27.5872C75.7718 27.0074 76.8232 26.8705 77.8073 27.1929C79.6592 27.7987 82.6902 33.605 84.6962 37.4473C85.3305 38.6627 85.8788 39.7127 86.2271 40.2822C87.8253 42.8937 89.0612 45.746 90.2563 48.5044C90.713 49.5586 91.1852 50.6487 91.3346 51.8193C91.3429 51.8839 91.2971 51.9429 91.2324 51.9512C91.1687 51.9585 91.1088 51.9139 91.1003 51.849C90.9551 50.7117 90.4895 49.6372 90.0394 48.5981C88.8476 45.8473 87.6152 43.0025 86.0253 40.4051C85.6727 39.8288 85.1231 38.7758 84.4864 37.5564C82.4981 33.748 79.4938 27.9929 77.7335 27.4171C76.5728 27.0374 75.5436 27.4112 74.8847 27.7916C73.6268 28.5176 72.6578 29.8576 72.356 31.2887C71.8188 33.8372 72.8074 36.5281 73.6018 38.6903C73.7373 39.0599 73.8685 39.4448 74.0023 39.8668C75.5382 44.7088 77.5553 49.5718 79.9972 54.3206C80.0673 54.4563 80.135 54.5918 80.2001 54.7261C80.2284 54.7848 80.2041 54.8554 80.1456 54.884C80.1298 54.892 80.1121 54.8955 80.0949 54.8955Z" fill="black"/>
<path d="M79.9812 34.7461C79.7945 34.7461 79.6071 34.722 79.4247 34.6623C79.1731 34.5802 78.9309 34.4329 78.6839 34.2123C77.8501 33.467 77.4682 32.3507 77.1482 31.2712C76.9304 30.5351 76.7576 29.8699 76.8482 29.1784C76.9375 28.498 77.3719 27.726 78.1415 27.5354C78.205 27.5193 78.2687 27.5582 78.2843 27.6215C78.2999 27.6847 78.2614 27.7487 78.1982 27.7643C77.5402 27.9273 77.1584 28.6276 77.0821 29.2088C76.9974 29.8545 77.1643 30.4943 77.3741 31.204C77.6844 32.2511 78.053 33.332 78.8406 34.0362C79.0626 34.2347 79.2776 34.3661 79.4973 34.4379C80.047 34.617 80.6318 34.4426 81.2843 34.2139L82.465 33.8007C82.5266 33.7792 82.5937 33.8118 82.6154 33.8731C82.6371 33.9347 82.6045 34.002 82.5429 34.0235L81.3622 34.4367C80.9735 34.5733 80.4793 34.7461 79.9812 34.7461Z" fill="black"/>
<path d="M89.2593 47.9346C89.2341 48.5817 88.8824 49.1832 88.4151 49.6316C87.9479 50.08 87.3704 50.3946 86.7903 50.6833" fill="white"/>
<path d="M86.7905 50.8015C86.747 50.8015 86.7055 50.7774 86.685 50.7361C86.6559 50.6778 86.6798 50.607 86.7381 50.578C87.2618 50.3175 87.8603 50.0015 88.3339 49.5469C88.8328 49.0683 89.1198 48.4941 89.1417 47.9303C89.1443 47.8654 89.1908 47.8137 89.2645 47.817C89.3296 47.8196 89.3803 47.8744 89.3777 47.9395C89.3532 48.5647 89.0405 49.196 88.4972 49.7173C87.9997 50.1945 87.3826 50.5209 86.8433 50.7895C86.8261 50.7977 86.8082 50.8015 86.7905 50.8015Z" fill="black"/>
<path d="M37.9936 57.5594L32.5307 56.1214C30.2769 55.5281 28.9305 53.2201 29.5238 50.9663C30.1171 48.7125 32.4252 47.3661 34.679 47.9594L40.1419 49.3973C42.3957 49.9906 43.7421 52.2987 43.1488 54.5525C42.5555 56.8063 40.2474 58.1525 37.9936 57.5594Z" fill="black"/>
<path d="M35.6601 65.6985L30.1971 64.2605C27.9433 63.6672 26.5972 61.3591 27.1903 59.1053C27.7836 56.8515 30.0916 55.5054 32.3454 56.0985L37.8084 57.5364C40.0622 58.1297 41.4086 60.4378 40.8152 62.6916C40.2219 64.9454 37.9139 66.2918 35.6601 65.6985Z" fill="black"/>
<path d="M35.8846 74.5687L30.4216 73.1307C28.1678 72.5374 26.8217 70.2293 27.4147 67.9755C28.0081 65.7217 30.3161 64.3754 32.5699 64.9687L38.0329 66.4066C40.2867 66.9999 41.6328 69.308 41.0397 71.5618C40.4467 73.8158 38.1386 75.162 35.8846 74.5687Z" fill="black"/>
<path d="M36.8269 57.302L31.364 55.864C29.1102 55.2707 27.7638 52.9627 28.3571 50.7089C28.9504 48.4551 31.2585 47.1089 33.5123 47.702L38.9752 49.1399C41.229 49.7332 42.5754 52.0413 41.9821 54.2951C41.3888 56.5489 39.0807 57.8951 36.8269 57.302Z" fill="white"/>
<path d="M37.9002 57.5596C37.5356 57.5596 37.1656 57.5133 36.7967 57.4163L31.3338 55.9784C29.0207 55.3695 27.634 52.9923 28.2429 50.679C28.8517 48.366 31.2292 46.9795 33.5422 47.5881L39.0052 49.0261C40.1257 49.3211 41.0643 50.0345 41.6481 51.0356C42.232 52.0365 42.3911 53.2049 42.0961 54.3255C41.5844 56.2699 39.8227 57.5596 37.9002 57.5596ZM36.8569 57.1879C39.0439 57.7633 41.292 56.4525 41.8679 54.2653C42.1468 53.2056 41.9962 52.1007 41.4445 51.1543C40.8925 50.208 40.0049 49.533 38.9452 49.254L33.4823 47.8161C31.2948 47.24 29.0472 48.5517 28.4713 50.739C27.8957 52.9264 29.2067 55.1743 31.3942 55.7499L36.8569 57.1879Z" fill="black"/>
<path d="M34.4931 65.4411L29.0301 64.0032C26.7763 63.4099 25.4302 61.1018 26.0233 58.848C26.6166 56.5942 28.9247 55.2481 31.1785 55.8411L36.6414 57.2791C38.8952 57.8724 40.2413 60.1805 39.6483 62.4343C39.0552 64.6881 36.7471 66.0345 34.4931 65.4411Z" fill="white"/>
<path d="M35.5664 65.6987C35.202 65.6987 34.8317 65.6524 34.4631 65.5554L29.0002 64.1175C26.6871 63.5084 25.3006 61.1312 25.9093 58.8181C26.5184 56.5048 28.8956 55.1188 31.2087 55.7272L36.6716 57.1652C37.7921 57.4602 38.7307 58.1736 39.3146 59.1747C39.8984 60.1756 40.0575 61.3438 39.7625 62.4643C39.2506 64.409 37.4891 65.6987 35.5664 65.6987ZM34.5233 65.3272C36.7105 65.9026 38.9587 64.5916 39.5343 62.4044C39.8132 61.3447 39.6627 60.24 39.1107 59.2934C38.5587 58.3468 37.6711 57.6721 36.6114 57.3931L31.1485 55.9552C28.961 55.3798 26.7131 56.6903 26.1375 58.8778C25.5619 61.0653 26.8731 63.3132 29.0604 63.889L34.5233 65.3272Z" fill="black"/>
<path d="M34.7178 74.3113L29.2548 72.8733C27.001 72.28 25.6547 69.9719 26.248 67.7181C26.8413 65.4643 29.1493 64.1182 31.4031 64.7113L36.8661 66.1492C39.1199 66.7425 40.4662 69.0506 39.8729 71.3044C39.2796 73.5584 36.9716 74.9046 34.7178 74.3113Z" fill="white"/>
<path d="M35.7911 74.5688C35.4265 74.5688 35.0564 74.5225 34.6875 74.4253L29.2246 72.9873C28.1041 72.6923 27.1655 71.9789 26.5817 70.9778C25.9978 69.9769 25.839 68.8085 26.134 67.6882C26.4287 66.5674 27.1424 65.6289 28.1435 65.045C29.1444 64.4614 30.3126 64.3025 31.4333 64.5973L36.8963 66.0352C39.2093 66.6444 40.5958 69.0216 39.9872 71.3346C39.4753 73.279 37.7135 74.5688 35.7911 74.5688ZM34.7477 74.1973C36.9352 74.7731 39.1831 73.4622 39.7587 71.2747C40.3343 69.0872 39.0231 66.8393 36.8359 66.2635L31.3729 64.8255C30.3135 64.5468 29.2086 64.6969 28.2622 65.2491C27.3158 65.8011 26.6409 66.689 26.3619 67.7484C26.083 68.808 26.2336 69.9127 26.7856 70.8593C27.3376 71.8059 28.2252 72.4806 29.2848 72.7596L34.7477 74.1973Z" fill="black"/>
<path opacity="0.2" d="M19.5377 0.122559H19.0138C11.2036 0.122559 4.87195 6.45397 4.87195 14.2644C4.87195 22.0746 11.2034 28.4062 19.0138 28.4062H19.5377C20.8112 28.4062 22.0443 28.2351 23.2181 27.9193L27.4942 32.1954V25.9554C31.2275 23.4096 33.6793 19.1239 33.6793 14.2644C33.6795 6.4542 27.3481 0.122559 19.5377 0.122559Z" fill="#006CB5"/>
<path d="M18.556 22.3295C18.5256 22.3295 18.4949 22.3274 18.464 22.3232L17.3316 22.162C17.1596 22.1374 17.0071 22.0475 16.9028 21.9083C16.7985 21.7693 16.7544 21.5979 16.7789 21.4259L16.9847 19.979C16.2368 19.714 15.5586 19.313 14.966 18.7858L13.7975 19.6632C13.6588 19.7675 13.4874 19.8114 13.3151 19.7871C13.1431 19.7626 12.9906 19.6727 12.8863 19.5334L12.1993 18.6189C12.095 18.4799 12.0509 18.3086 12.0754 18.1363C12.1 17.9642 12.1899 17.8118 12.3291 17.7075L13.4976 16.83C13.1563 16.1138 12.9604 15.3506 12.9144 14.5585L11.4675 14.3527C11.1121 14.3022 10.864 13.9718 10.9148 13.6167L11.0757 12.4841C11.1003 12.3121 11.1902 12.1596 11.3294 12.0553C11.4684 11.951 11.64 11.9075 11.8121 11.9314L13.259 12.1372C13.524 11.3891 13.925 10.711 14.4522 10.1187L13.5747 8.95023C13.4704 8.81123 13.4263 8.63989 13.4508 8.46761C13.4754 8.29557 13.5653 8.14311 13.7043 8.0388L14.619 7.3518C14.7583 7.24749 14.9294 7.20359 15.1017 7.2279C15.2737 7.25245 15.4262 7.34236 15.5305 7.4816L16.4079 8.65004C17.1237 8.30878 17.8869 8.1129 18.6792 8.06688L18.885 6.61997C18.9355 6.26479 19.2659 6.01675 19.6211 6.06702L20.7534 6.22821C21.1086 6.27871 21.3568 6.60911 21.3063 6.96429L21.1005 8.41121C21.8484 8.676 22.5267 9.07696 23.1191 9.60442L24.2875 8.72697C24.4265 8.62266 24.5981 8.57924 24.7701 8.60308C24.9422 8.62762 25.0946 8.71753 25.1989 8.85677L25.8859 9.77127C26.1014 10.0583 26.0431 10.4672 25.7564 10.6827L24.5879 11.5602C24.9292 12.2762 25.1251 13.0392 25.1708 13.8314L26.6178 14.0372C26.9732 14.0877 27.2212 14.4181 27.1705 14.7733L27.0093 15.9059C26.9847 16.0779 26.8948 16.2304 26.7558 16.3347C26.6168 16.4392 26.4457 16.4829 26.2732 16.4586L24.8263 16.2528C24.5613 17.0007 24.1605 17.6789 23.6331 18.2713L24.5105 19.4397C24.726 19.7269 24.6679 20.1357 24.3809 20.3512L23.4662 21.0382C23.3274 21.1427 23.1563 21.1864 22.9836 21.162C22.8115 21.1375 22.6591 21.0476 22.5548 20.9083L21.6773 19.7399C20.9613 20.0812 20.1983 20.2771 19.4061 20.3231L19.2003 21.77C19.154 22.0945 18.8746 22.3295 18.556 22.3295ZM14.9728 18.5148C15.0016 18.5148 15.0302 18.5252 15.0526 18.546C15.6617 19.1055 16.3683 19.5233 17.1527 19.7874C17.2065 19.8055 17.2398 19.8596 17.232 19.9157L17.0126 21.4589C16.9802 21.6855 17.1383 21.896 17.3649 21.9281L18.4972 22.0893C18.7236 22.1209 18.9343 21.9633 18.9664 21.7369L19.1859 20.1937C19.1939 20.1373 19.2409 20.0949 19.2977 20.0925C20.1247 20.0576 20.9195 19.8534 21.6606 19.486C21.7116 19.4607 21.7731 19.4754 21.8074 19.5207L22.7431 20.7668C22.8097 20.8553 22.9067 20.9128 23.0164 20.9284C23.1271 20.9449 23.2356 20.9159 23.3239 20.8493L24.2386 20.1624C24.4215 20.025 24.4586 19.7645 24.3212 19.5816L23.3853 18.3355C23.351 18.2899 23.3543 18.2267 23.3928 18.1847C23.9526 17.5753 24.3703 16.8687 24.6342 16.0847C24.6521 16.0307 24.7078 15.9972 24.7626 16.0057L26.3058 16.2252C26.4165 16.2415 26.525 16.2129 26.6135 16.1461C26.702 16.0796 26.7596 15.9826 26.7752 15.8728L26.9364 14.7403C26.9687 14.5137 26.8106 14.3032 26.584 14.2711L25.0406 14.0516C24.9842 14.0436 24.9417 13.9966 24.9393 13.9397C24.9044 13.1128 24.7003 12.3177 24.3328 11.5769C24.3076 11.5259 24.3222 11.4641 24.3675 11.4301L25.6136 10.4944C25.7965 10.357 25.8335 10.0965 25.6962 9.91335L25.0092 8.99885C24.9426 8.91035 24.8456 8.85276 24.7359 8.83719C24.6262 8.82137 24.5169 8.84946 24.4281 8.91625L23.1821 9.85199C23.1368 9.88597 23.0733 9.88267 23.0313 9.84443C22.4221 9.28488 21.7156 8.86716 20.9313 8.60308C20.8775 8.5849 20.8443 8.53086 20.8523 8.47469L21.0718 6.93149C21.1039 6.70493 20.9457 6.49442 20.7194 6.46232L19.5876 6.3009C19.3608 6.26927 19.1505 6.42668 19.1184 6.65324L18.8989 8.19645C18.8909 8.25285 18.8439 8.29533 18.787 8.29769C17.9601 8.33262 17.1652 8.53676 16.4242 8.90421C16.3732 8.9297 16.3116 8.91507 16.2774 8.86952L15.3417 7.62344C15.2751 7.53494 15.1781 7.47736 15.0684 7.46178C14.9589 7.4455 14.8494 7.47405 14.7606 7.54084L13.8459 8.22784C13.7574 8.29439 13.6998 8.39138 13.6842 8.50112C13.6687 8.61086 13.6968 8.72013 13.7633 8.80863L14.699 10.0547C14.7333 10.1003 14.73 10.1635 14.6915 10.2055C14.1319 10.8146 13.7142 11.5212 13.4501 12.3054C13.4322 12.3595 13.3774 12.3932 13.3218 12.3845L11.7785 12.165C11.552 12.131 11.3415 12.2908 11.3094 12.5174L11.1482 13.6499C11.1326 13.7597 11.1607 13.8689 11.2273 13.9577C11.2938 14.0462 11.3908 14.1038 11.5005 14.1193L13.0437 14.3388C13.1001 14.3468 13.1426 14.3938 13.145 14.4507C13.1799 15.2774 13.3841 16.0725 13.7515 16.8138C13.7768 16.8647 13.7621 16.9266 13.7168 16.9605L12.4707 17.8963C12.382 17.9628 12.3247 18.0598 12.3091 18.1696C12.2935 18.2793 12.3216 18.3886 12.3881 18.4773L13.0751 19.392C13.1417 19.4805 13.2387 19.5381 13.3484 19.5537C13.4589 19.57 13.5677 19.5414 13.6559 19.4747L14.902 18.5389C14.923 18.5226 14.9478 18.5148 14.9728 18.5148ZM19.049 17.4073C18.8968 17.4073 18.7434 17.3964 18.59 17.3747C17.7406 17.2539 16.9892 16.8095 16.474 16.1237C15.9588 15.4376 15.7417 14.5923 15.8625 13.7429C16.112 11.9897 17.7413 10.766 19.4946 11.0155C20.3439 11.1363 21.0954 11.5805 21.6103 12.2665C22.1255 12.9526 22.3426 13.7979 22.2218 14.6473C22.101 15.4966 21.6566 16.2481 20.9707 16.7632C20.4088 17.1852 19.7398 17.4073 19.049 17.4073ZM19.0403 11.2191C17.5837 11.2191 16.3072 12.2929 16.0962 13.776C15.9841 14.563 16.1856 15.3463 16.6628 15.9819C17.14 16.6174 17.8362 17.0292 18.6233 17.1411C19.4098 17.2537 20.1934 17.0519 20.8291 16.5747C21.4647 16.0975 21.8763 15.4011 21.9881 14.6142C22.1002 13.8272 21.8989 13.0439 21.4217 12.4083C20.9446 11.7728 20.2481 11.361 19.4613 11.2491C19.3199 11.2288 19.1793 11.2191 19.0403 11.2191Z" fill="black"/>
<path d="M5.71329 35.8802H14.3216C17.3818 35.8802 19.8627 33.3993 19.8627 30.3391C19.8627 27.2789 17.3818 24.7979 14.3216 24.7979H5.71329C2.65307 24.7979 0.172241 27.2787 0.172241 30.3391C0.172241 33.3993 2.65307 35.8802 5.71329 35.8802Z" fill="#006CB5"/>
<path d="M14.1526 31.1629C13.6983 31.1629 13.3285 30.7933 13.3285 30.3388C13.3285 29.8845 13.6981 29.5146 14.1526 29.5146C14.6071 29.5146 14.9767 29.8842 14.9767 30.3388C14.9767 30.7931 14.6071 31.1629 14.1526 31.1629ZM14.1526 29.7506C13.8283 29.7506 13.5645 30.0145 13.5645 30.3388C13.5645 30.663 13.8283 30.9269 14.1526 30.9269C14.4769 30.9269 14.7407 30.663 14.7407 30.3388C14.7407 30.0145 14.4769 29.7506 14.1526 29.7506Z" fill="#F6EEE3"/>
<path d="M5.88246 31.1629C5.42816 31.1629 5.05835 30.7933 5.05835 30.3388C5.05835 29.8845 5.42792 29.5146 5.88246 29.5146C6.337 29.5146 6.70657 29.8842 6.70657 30.3388C6.70657 30.7931 6.33676 31.1629 5.88246 31.1629ZM5.88246 29.7506C5.5582 29.7506 5.29435 30.0145 5.29435 30.3388C5.29435 30.663 5.5582 30.9269 5.88246 30.9269C6.20672 30.9269 6.47057 30.663 6.47057 30.3388C6.47057 30.0145 6.20672 29.7506 5.88246 29.7506Z" fill="#F6EEE3"/>
<path d="M9.86098 31.1629C9.40668 31.1629 9.03687 30.7933 9.03687 30.3388C9.03687 29.8845 9.40644 29.5146 9.86098 29.5146C10.3155 29.5146 10.6851 29.8842 10.6851 30.3388C10.6849 30.7931 10.3153 31.1629 9.86098 31.1629ZM9.86098 29.7506C9.53671 29.7506 9.27287 30.0145 9.27287 30.3388C9.27287 30.663 9.53671 30.9269 9.86098 30.9269C10.1852 30.9269 10.4491 30.663 10.4491 30.3388C10.4489 30.0145 10.1852 29.7506 9.86098 29.7506Z" fill="#F6EEE3"/>
<path opacity="0.2" d="M20.7303 42.6016C20.9742 40.1476 19.1826 37.9606 16.7287 37.7167C14.2747 37.4728 12.0877 39.2644 11.8438 41.7184C11.5999 44.1723 13.3915 46.3593 15.8455 46.6032C18.2994 46.8471 20.4864 45.0555 20.7303 42.6016Z" fill="#006CB5"/>
<path d="M16.2869 43.9948C16.2218 43.9948 16.1689 43.9419 16.1689 43.8768V40.4432C16.1689 40.3781 16.2218 40.3252 16.2869 40.3252C16.3521 40.3252 16.4049 40.3781 16.4049 40.4432V43.8768C16.4049 43.9421 16.3523 43.9948 16.2869 43.9948Z" fill="black"/>
<path d="M18.0036 42.278H14.5703C14.5051 42.278 14.4523 42.2251 14.4523 42.16C14.4523 42.0949 14.5051 42.042 14.5703 42.042H18.0036C18.0687 42.042 18.1216 42.0949 18.1216 42.16C18.1216 42.2251 18.069 42.278 18.0036 42.278Z" fill="black"/>
<path opacity="0.2" d="M83.5076 10.6957C86.0023 10.6957 88.0247 8.67335 88.0247 6.17866C88.0247 3.68397 86.0023 1.66162 83.5076 1.66162C81.013 1.66162 78.9906 3.68397 78.9906 6.17866C78.9906 8.67335 81.013 10.6957 83.5076 10.6957Z" fill="#006CB5"/>
<path d="M83.5076 8.03318C83.4425 8.03318 83.3896 7.98031 83.3896 7.91518V4.44173C83.3896 4.37659 83.4425 4.32373 83.5076 4.32373C83.5728 4.32373 83.6256 4.37659 83.6256 4.44173V7.91518C83.6256 7.98031 83.5728 8.03318 83.5076 8.03318Z" fill="black"/>
<path d="M85.2444 6.29655H81.771C81.7058 6.29655 81.653 6.24368 81.653 6.17855C81.653 6.11341 81.7058 6.06055 81.771 6.06055H85.2444C85.3095 6.06055 85.3624 6.11341 85.3624 6.17855C85.3624 6.24368 85.3098 6.29655 85.2444 6.29655Z" fill="black"/>
<path d="M23.8874 49.957C23.8223 49.957 23.7694 49.9041 23.7694 49.839V48.2044C23.7694 48.1393 23.8223 48.0864 23.8874 48.0864C23.9525 48.0864 24.0054 48.1393 24.0054 48.2044V49.839C24.0054 49.9041 23.9528 49.957 23.8874 49.957Z" fill="#ED9D4A"/>
<path d="M24.7049 49.1398H23.0701C23.005 49.1398 22.9521 49.0869 22.9521 49.0218C22.9521 48.9567 23.005 48.9038 23.0701 48.9038H24.7049C24.7701 48.9038 24.8229 48.9567 24.8229 49.0218C24.8229 49.0872 24.7701 49.1398 24.7049 49.1398Z" fill="#ED9D4A"/>
<path d="M1.80733 2.14104C1.7422 2.14104 1.68933 2.08818 1.68933 2.02304V0.388508C1.68933 0.323372 1.7422 0.270508 1.80733 0.270508C1.87247 0.270508 1.92533 0.323372 1.92533 0.388508V2.02304C1.92533 2.08818 1.87247 2.14104 1.80733 2.14104Z" fill="#ED9D4A"/>
<path d="M2.6246 1.3234H0.989826C0.92469 1.3234 0.871826 1.27054 0.871826 1.2054C0.871826 1.14027 0.92469 1.0874 0.989826 1.0874H2.6246C2.68973 1.0874 2.7426 1.14027 2.7426 1.2054C2.7426 1.27077 2.68997 1.3234 2.6246 1.3234Z" fill="#ED9D4A"/>
<path d="M98.9232 48.8888C98.858 48.8888 98.8052 48.836 98.8052 48.7708V47.1361C98.8052 47.0709 98.858 47.0181 98.9232 47.0181C98.9883 47.0181 99.0412 47.0709 99.0412 47.1361V48.7708C99.0412 48.836 98.9885 48.8888 98.9232 48.8888Z" fill="#ED9D4A"/>
<path d="M99.7404 48.0714H98.1059C98.0408 48.0714 97.9879 48.0186 97.9879 47.9534C97.9879 47.8883 98.0408 47.8354 98.1059 47.8354H99.7404C99.8056 47.8354 99.8584 47.8883 99.8584 47.9534C99.8584 48.0188 99.8056 48.0714 99.7404 48.0714Z" fill="#ED9D4A"/>
<path d="M105.485 1.87054C105.42 1.87054 105.367 1.81767 105.367 1.75254V0.118C105.367 0.052864 105.42 0 105.485 0C105.551 0 105.603 0.052864 105.603 0.118V1.75254C105.603 1.81767 105.551 1.87054 105.485 1.87054Z" fill="#ED9D4A"/>
<path d="M106.303 1.05338H104.668C104.603 1.05338 104.55 1.00052 104.55 0.935383C104.55 0.870247 104.603 0.817383 104.668 0.817383H106.303C106.368 0.817383 106.421 0.870247 106.421 0.935383C106.421 1.00052 106.368 1.05338 106.303 1.05338Z" fill="#ED9D4A"/>
<path d="M37.5427 2.30651C37.237 2.30651 36.9888 2.05801 36.9888 1.75262C36.9888 1.44724 37.2373 1.19873 37.5427 1.19873C37.848 1.19873 38.0966 1.44724 38.0966 1.75262C38.0966 2.05801 37.8483 2.30651 37.5427 2.30651ZM37.5427 1.43473C37.3673 1.43473 37.2248 1.57727 37.2248 1.75262C37.2248 1.92797 37.3673 2.07051 37.5427 2.07051C37.718 2.07051 37.8606 1.92797 37.8606 1.75262C37.8606 1.57727 37.718 1.43473 37.5427 1.43473Z" fill="#006CB5"/>
<path d="M2.83929 48.413C2.53391 48.413 2.2854 48.1645 2.2854 47.8591C2.2854 47.5537 2.53391 47.3052 2.83929 47.3052C3.14468 47.3052 3.39318 47.5537 3.39318 47.8591C3.39342 48.1645 3.14491 48.413 2.83929 48.413ZM2.83929 47.5412C2.66394 47.5412 2.5214 47.684 2.5214 47.8591C2.5214 48.0344 2.66394 48.177 2.83929 48.177C3.01464 48.177 3.15718 48.0344 3.15718 47.8591C3.15742 47.6837 3.01464 47.5412 2.83929 47.5412Z" fill="#006CB5"/>
<path d="M96.7617 8.46911C96.456 8.46911 96.2075 8.2206 96.2075 7.91522C96.2075 7.60984 96.456 7.36133 96.7617 7.36133C97.067 7.36133 97.3155 7.60984 97.3155 7.91522C97.3155 8.2206 97.067 8.46911 96.7617 8.46911ZM96.7617 7.59733C96.5863 7.59733 96.4435 7.73987 96.4435 7.91522C96.4435 8.09057 96.5861 8.23311 96.7617 8.23311C96.9368 8.23311 97.0795 8.09057 97.0795 7.91522C97.0795 7.73987 96.9368 7.59733 96.7617 7.59733Z" fill="#006CB5"/>
<path d="M108.67 33.1527C108.365 33.1527 108.116 32.9042 108.116 32.5988C108.116 32.2934 108.365 32.0449 108.67 32.0449C108.976 32.0449 109.225 32.2934 109.225 32.5988C109.225 32.9042 108.976 33.1527 108.67 33.1527ZM108.67 32.2807C108.495 32.2807 108.352 32.4235 108.352 32.5986C108.352 32.7739 108.495 32.9165 108.67 32.9165C108.846 32.9165 108.989 32.7737 108.989 32.5986C108.989 32.4235 108.846 32.2807 108.67 32.2807Z" fill="#006CB5"/>
<path d="M0.553892 19.6107C0.248508 19.6107 0 19.3622 0 19.0568C0 18.7512 0.248508 18.5029 0.553892 18.5029C0.859512 18.5029 1.10778 18.7514 1.10778 19.0568C1.10778 19.3622 0.859512 19.6107 0.553892 19.6107ZM0.553892 18.7387C0.378544 18.7387 0.236 18.8812 0.236 19.0566C0.236 19.2319 0.378544 19.3745 0.553892 19.3745C0.72924 19.3745 0.871784 19.2319 0.871784 19.0566C0.871784 18.8815 0.72924 18.7387 0.553892 18.7387Z" fill="#006CB5"/>
<path d="M88.2452 14.0288H99.5798C103.609 14.0288 106.876 17.2953 106.876 21.3247C106.876 25.3542 103.609 28.6207 99.5798 28.6207H91.5827L88.5531 31.6502V28.6207H88.2452C84.2157 28.6207 80.9492 25.3542 80.9492 21.3247C80.9492 17.2953 84.2157 14.0288 88.2452 14.0288Z" fill="#006CB5"/>
<path d="M99.3572 22.3726C98.7797 22.3726 98.3098 21.9024 98.3098 21.3249C98.3098 20.7472 98.7797 20.2773 99.3572 20.2773C99.9349 20.2773 100.405 20.7472 100.405 21.3249C100.405 21.9024 99.9349 22.3726 99.3572 22.3726ZM99.3572 20.5131C98.9097 20.5131 98.5458 20.877 98.5458 21.3247C98.5458 21.7724 98.91 22.1363 99.3572 22.1363C99.8046 22.1363 100.169 21.7722 100.169 21.3247C100.169 20.8773 99.8046 20.5131 99.3572 20.5131Z" fill="white"/>
<path d="M88.4676 22.3726C87.8899 22.3726 87.42 21.9024 87.42 21.3249C87.42 20.7472 87.8899 20.2773 88.4676 20.2773C89.0454 20.2773 89.5152 20.7472 89.5152 21.3249C89.5155 21.9024 89.0456 22.3726 88.4676 22.3726ZM88.4676 20.5131C88.02 20.5131 87.656 20.877 87.656 21.3247C87.656 21.7724 88.0202 22.1363 88.4676 22.1363C88.9151 22.1363 89.2792 21.7722 89.2792 21.3247C89.2792 20.8773 88.9153 20.5131 88.4676 20.5131Z" fill="white"/>
<path d="M93.7064 22.3726C93.1287 22.3726 92.6586 21.9024 92.6586 21.3249C92.6586 20.7472 93.1284 20.2773 93.7064 20.2773C94.2841 20.2773 94.754 20.7472 94.754 21.3249C94.754 21.9024 94.2841 22.3726 93.7064 22.3726ZM93.7064 20.5131C93.2587 20.5131 92.8946 20.877 92.8946 21.3247C92.8946 21.7724 93.2587 22.1363 93.7064 22.1363C94.1539 22.1363 94.518 21.7722 94.518 21.3247C94.518 20.8773 94.1539 20.5131 93.7064 20.5131Z" fill="white"/>
<path opacity="0.2" d="M102.903 37.7947C103.071 35.0962 101.02 32.7721 98.3218 32.6037C95.6233 32.4353 93.2992 34.4863 93.1308 37.1848C92.9624 39.8832 95.0134 42.2073 97.7119 42.3758C100.41 42.5442 102.734 40.4932 102.903 37.7947Z" fill="#006CB5"/>
<path d="M97.916 38.8071H97.9158C97.8112 38.8071 97.713 38.7663 97.6392 38.6922L95.8921 36.9453C95.846 36.8993 95.846 36.8245 95.8921 36.7785C95.9381 36.7324 96.0129 36.7324 96.0589 36.7785L97.806 38.5253C97.8355 38.5546 97.8745 38.5709 97.916 38.5709C97.9578 38.5709 97.9967 38.5546 98.0262 38.5253L102.603 33.9491C102.649 33.903 102.724 33.903 102.77 33.9491C102.816 33.9951 102.816 34.0699 102.77 34.1159L98.1931 38.6922C98.119 38.7663 98.0205 38.8071 97.916 38.8071Z" fill="black"/>
</svg>
