<svg width="24" height="24" viewBox="0 0 24 24" fill="none" xmlns="http://www.w3.org/2000/svg">
<path d="M19.5048 11.0688C19.5428 11.3423 19.7953 11.5332 20.0688 11.4952C20.3423 11.4572 20.5333 11.2046 20.4952 10.9311L19.5048 11.0688ZM4.03845 8.80768C3.93226 9.06258 4.05281 9.35531 4.30772 9.46151C4.56263 9.5677 4.85536 9.44714 4.96155 9.19224L4.03845 8.80768ZM4.5 5C4.5 4.72386 4.27614 4.5 4 4.5C3.72386 4.5 3.5 4.72386 3.5 5H4.5ZM4 9H3.5C3.5 9.27614 3.72386 9.5 4 9.5V9ZM8 9.5C8.27614 9.5 8.5 9.27614 8.5 9C8.5 8.72386 8.27614 8.5 8 8.5V9.5ZM20.4952 10.9311C19.9615 7.09037 16.9234 4.08185 13.0777 3.58562L12.9497 4.5774C16.3483 5.01593 19.0331 7.67462 19.5048 11.0688L20.4952 10.9311ZM13.0777 3.58562C9.23187 3.08939 5.52966 5.2282 4.03845 8.80768L4.96155 9.19224C6.27936 6.02898 9.55108 4.13887 12.9497 4.5774L13.0777 3.58562ZM3.5 5V9H4.5V5H3.5ZM4 9.5H8V8.5H4V9.5Z" fill="#333333"/>
<path d="M4.49524 12.9312C4.45723 12.6577 4.20469 12.4667 3.93118 12.5048C3.65766 12.5428 3.46675 12.7953 3.50476 13.0688L4.49524 12.9312ZM19.9615 15.1923C20.0677 14.9374 19.9472 14.6446 19.6923 14.5385C19.4374 14.4323 19.1446 14.5528 19.0385 14.8077L19.9615 15.1923ZM19.5 19C19.5 19.2761 19.7239 19.5 20 19.5C20.2761 19.5 20.5 19.2761 20.5 19H19.5ZM20 15H20.5C20.5 14.7239 20.2761 14.5 20 14.5V15ZM16 14.5C15.7239 14.5 15.5 14.7239 15.5 15C15.5 15.2761 15.7239 15.5 16 15.5V14.5ZM3.50476 13.0688C4.03852 16.9096 7.07655 19.9181 10.9223 20.4143L11.0503 19.4226C7.65171 18.984 4.96693 16.3253 4.49524 12.9312L3.50476 13.0688ZM10.9223 20.4143C14.7681 20.9106 18.4703 18.7718 19.9615 15.1923L19.0385 14.8077C17.7206 17.971 14.4489 19.8611 11.0503 19.4226L10.9223 20.4143ZM20.5 19V15H19.5V19H20.5ZM20 14.5H16V15.5H20V14.5Z" fill="#333333"/>
<circle cx="12" cy="10.3333" r="1.33333" stroke="#333333" stroke-linecap="round" stroke-linejoin="round"/>
<path d="M10 15V14.3333C10 13.597 10.597 13 11.3333 13H12.6667C13.403 13 14 13.597 14 14.3333V15" stroke="#333333" stroke-linecap="round" stroke-linejoin="round"/>
</svg>
