<svg width="173" height="171" viewBox="0 0 173 171" fill="none" xmlns="http://www.w3.org/2000/svg">
<path opacity="0.2" d="M165.955 59.0263C150.876 43.936 138.108 56.5965 132.731 36.3312C120.58 -9.44692 70.1849 -8.99932 63.5561 23.5641C51.6141 82.2371 -0.385986 44.9761 0.00143433 87.0029C0.414398 131.869 33.3668 166.815 92.4682 170.306C145.452 173.435 190.938 84.0318 165.955 59.0263Z" fill="#006CB5"/>
<path d="M114.11 87.7096C117.973 93.2445 123.975 95.9665 128.812 94.5241C133.684 93.0707 136.233 87.7314 136.429 87.3073C138.312 83.2266 136.767 81.1153 138.565 79.5728C141.776 76.8198 147.924 82.4958 152.393 79.5746C154.773 78.0184 155.677 74.6776 155.696 72.4652C155.732 68.3882 152.778 66.7582 153.649 64.9381C154.846 62.4355 160.617 65.1147 165.299 61.8485C168.199 59.8254 170.299 55.7884 169.484 52.3229C168.125 46.5368 158.952 43.6756 154.564 46.1755C151.478 47.9337 152.281 51.4775 148.629 53.3631C145.054 55.2087 142.729 52.6141 140.252 54.3806C136.617 56.9715 139.872 63.8069 135.904 66.9093C133.587 68.7212 131.778 66.9366 129.538 68.7076C125.859 71.617 129.048 77.7717 126.037 82.5232C124.578 84.8247 121.426 87.1744 114.109 87.7096H114.11Z" fill="white"/>
<path d="M126.164 95.1157C121.839 95.1157 117.114 92.3882 113.935 87.8334C113.891 87.7706 113.884 87.6887 113.917 87.6186C113.95 87.5495 114.018 87.5021 114.095 87.4967C120.036 87.0626 123.995 85.3508 125.859 82.4095C127.252 80.2108 127.287 77.7245 127.319 75.3201C127.356 72.6537 127.391 70.1355 129.407 68.5402C130.579 67.6138 131.645 67.6119 132.676 67.6101C133.699 67.6083 134.667 67.6074 135.774 66.741C137.723 65.2167 137.864 62.7122 137.999 60.2896C138.136 57.8443 138.266 55.5346 140.129 54.2068C141.405 53.2977 142.643 53.4806 143.954 53.6744C145.333 53.8783 146.758 54.0894 148.533 53.173C150.387 52.2156 151.062 50.7977 151.714 49.4263C152.315 48.1631 152.937 46.8572 154.46 45.989C156.781 44.6667 160.592 44.7632 163.945 46.2283C167.01 47.568 169.107 49.7721 169.694 52.2748C170.582 56.0533 168.157 60.1185 165.422 62.0251C162.885 63.7952 160.053 63.8552 157.777 63.9035C155.861 63.9444 154.347 63.9763 153.842 65.0319C153.475 65.7991 153.887 66.5499 154.457 67.5883C155.113 68.785 155.93 70.2748 155.91 72.468C155.888 75.0034 154.828 78.2396 152.51 79.7548C150.118 81.3174 147.239 80.4965 144.698 79.7721C142.368 79.1078 140.168 78.4808 138.704 79.7366C137.865 80.4565 137.815 81.2855 137.74 82.5396C137.665 83.7882 137.571 85.3417 136.623 87.3984C136.348 87.9945 133.794 93.2628 128.872 94.7307C128.001 94.991 127.091 95.1166 126.164 95.1166V95.1157ZM114.504 87.8944C118.27 93.0753 124.081 95.7127 128.751 94.3194C133.574 92.8806 136.129 87.4484 136.235 87.2182C137.15 85.2352 137.241 83.7263 137.314 82.5141C137.39 81.2491 137.45 80.249 138.427 79.4108C140.066 78.0057 142.373 78.6637 144.816 79.3599C147.389 80.0934 150.049 80.8524 152.277 79.3963C154.775 77.7645 155.468 74.2717 155.485 72.4653C155.503 70.384 154.716 68.9488 154.084 67.7949C153.476 66.6873 152.997 65.8119 153.458 64.8463C154.077 63.5531 155.706 63.5185 157.769 63.4748C159.987 63.4275 162.747 63.3693 165.179 61.6738C167.797 59.8483 170.123 55.9678 169.279 52.374C168.722 50.0042 166.716 47.9074 163.775 46.6224C160.539 45.2091 156.881 45.1044 154.672 46.363C153.265 47.1648 152.7 48.3533 152.101 49.6119C151.418 51.0471 150.712 52.5314 148.729 53.5543C146.833 54.5335 145.27 54.3024 143.892 54.0985C142.616 53.9092 141.514 53.7463 140.378 54.5554C138.682 55.7639 138.559 57.9735 138.427 60.3133C138.285 62.8314 138.14 65.4342 136.037 67.0786C134.814 68.0351 133.727 68.0369 132.677 68.0379C131.675 68.0397 130.728 68.0406 129.673 68.8751C127.816 70.3439 127.784 72.6518 127.747 75.3247C127.714 77.6735 127.678 80.3364 126.219 82.6379C124.319 85.6365 120.379 87.4039 114.504 87.8935V87.8944Z" fill="#263238"/>
<path d="M120.281 89.1339C120.104 89.1339 119.927 89.132 119.748 89.1266C117.292 89.0638 114.899 88.4968 112.635 87.4421C112.528 87.392 112.482 87.2646 112.532 87.1572C112.582 87.0498 112.709 87.0034 112.816 87.0535C115.026 88.0836 117.362 88.637 119.76 88.6988C123.2 88.7871 126.282 88.0008 128.914 86.3591C131.653 84.6518 133.005 82.5523 135.245 79.075C136.805 76.6552 137.455 75.1508 138.084 73.6966C138.704 72.2623 139.29 70.9082 140.667 68.7977C141.802 67.0595 143.913 63.8243 147.509 60.9649C151.114 58.0982 155.624 56.1616 160.552 55.3644C160.67 55.3453 160.778 55.4254 160.797 55.5419C160.816 55.6583 160.736 55.7685 160.62 55.7876C155.764 56.5729 151.322 58.4795 147.774 61.3007C144.232 64.1164 142.145 67.3143 141.024 69.0325C139.667 71.112 139.088 72.4507 138.475 73.8667C137.839 75.3374 137.182 76.8581 135.604 79.3071C133.331 82.8354 131.959 84.9649 129.139 86.7231C126.572 88.3239 123.593 89.1339 120.28 89.1339H120.281Z" fill="#263238"/>
<path d="M112.474 87.0699C113.792 87.5713 117.845 88.9128 122.405 87.281C123.21 86.9935 128.971 84.9313 129.876 80.5384C130.641 76.8299 127.274 74.7195 128.468 72.5527C129.997 69.7779 136.165 72.0621 138.086 68.8051C139.068 67.1406 138.438 64.88 138.23 64.1301C137.72 62.2936 136.898 62.0379 135.483 59.5498C135.239 59.1202 132.711 54.6182 133.734 53.6999C134.485 53.0247 136.257 55.0896 138.856 54.489C139.093 54.4344 140.738 54.0285 141.627 52.576C142.454 51.2264 142.17 49.7184 141.916 48.4653C141.206 44.967 139.346 43.875 139.792 43.0404C140.469 41.7736 144.944 43.9341 151.322 44.148C155.253 44.2799 160.455 44.4547 163.308 41.0429C165.294 38.6685 165.816 34.9482 164.628 32.1398C162.296 26.6294 153.497 24.923 147.811 26.8123C144.745 27.8316 144.31 29.3223 141.028 29.7946C136.371 30.4644 135.12 27.7688 131.732 28.5578C127.158 29.6235 123.261 35.9775 123.696 41.2313C123.978 44.623 125.957 46.263 125 47.6171C123.441 49.8231 117.547 46.3922 115.175 48.9476C113.319 50.947 114.84 55.2998 115.137 56.1471C116.655 60.4899 119.855 61.9187 119.268 63.3638C118.55 65.1312 113.68 63.2009 111.911 65.5125C110.189 67.7603 112.41 72.7047 114.341 77.0019C116.119 80.9589 117.598 82.7326 116.812 84.5308C116.12 86.1152 114.086 86.7668 112.476 87.0699H112.474Z" fill="white"/>
<path d="M117.835 88.2812C115.525 88.2812 113.59 87.7242 112.398 87.2701C112.309 87.2364 112.253 87.1463 112.261 87.0508C112.269 86.9552 112.34 86.8769 112.435 86.8587C114.694 86.4338 116.099 85.6211 116.613 84.4444C117.155 83.204 116.507 81.9117 115.434 79.7703C115.046 78.9959 114.606 78.1177 114.143 77.0884C112.173 72.7019 109.939 67.7303 111.738 65.3805C112.743 64.0664 114.621 64.0382 116.277 64.0136C117.623 63.9936 118.786 63.9763 119.068 63.281C119.3 62.7113 118.762 62.0788 117.949 61.1224C117.017 60.0248 115.74 58.5223 114.933 56.2162C114.239 54.2287 113.326 50.6221 115.017 48.8002C116.329 47.386 118.638 47.6972 120.675 47.972C122.463 48.2132 124.153 48.4407 124.824 47.4924C125.271 46.86 124.971 46.1346 124.518 45.0362C124.116 44.0615 123.615 42.8484 123.483 41.2485C123.031 35.8073 127.093 29.4178 131.683 28.3485C133.372 27.9544 134.562 28.4004 135.822 28.8718C137.203 29.3887 138.63 29.9229 140.998 29.5825C142.82 29.3204 143.719 28.7516 144.76 28.0928C145.565 27.5831 146.398 27.0562 147.745 26.6094C153.735 24.6191 162.501 26.5648 164.826 32.057C166.047 34.9455 165.479 38.7823 163.473 41.1812C160.553 44.6731 155.215 44.4938 151.316 44.3628C148.308 44.2617 145.679 43.7221 143.76 43.328C141.733 42.9112 140.267 42.6109 139.983 43.1424C139.848 43.3954 140.052 43.7476 140.455 44.4001C140.962 45.2191 141.728 46.4559 142.128 48.4234C142.369 49.612 142.699 51.2391 141.812 52.6889C140.903 54.1723 139.232 54.6236 138.906 54.6983C137.364 55.055 136.105 54.5153 135.184 54.1222C134.513 53.8346 134.092 53.669 133.878 53.8601C133.278 54.3998 134.325 57.0781 135.671 59.4442C136.258 60.4771 136.75 61.1315 137.146 61.6566C137.718 62.4183 138.131 62.968 138.438 64.0728C138.652 64.839 139.3 67.1715 138.272 68.9143C137.218 70.7007 135.034 70.9009 132.92 71.0948C131.077 71.264 129.338 71.4233 128.657 72.6564C128.132 73.6092 128.581 74.5566 129.15 75.7561C129.781 77.0884 130.497 78.5991 130.088 80.5821C129.249 84.6537 124.487 86.7641 122.48 87.483C120.846 88.0673 119.27 88.2812 117.838 88.2812H117.835ZM113.258 87.119C115.285 87.7743 118.661 88.3931 122.333 87.0799C123.846 86.5384 128.848 84.4626 129.666 80.4956C130.046 78.6528 129.363 77.2112 128.761 75.9399C128.189 74.7341 127.649 73.5947 128.28 72.4498C129.07 71.0174 130.92 70.8481 132.878 70.6679C134.884 70.4841 136.958 70.2939 137.9 68.6958C138.836 67.1105 138.224 64.91 138.022 64.1874C137.737 63.1609 137.364 62.6649 136.799 61.9141C136.397 61.379 135.896 60.7119 135.295 59.6553C134.62 58.4677 132.502 54.5163 133.589 53.5398C134.015 53.1566 134.603 53.4078 135.348 53.7272C136.262 54.1186 137.399 54.6045 138.805 54.2796C139.102 54.2114 140.623 53.801 141.443 52.4632C142.242 51.1572 141.943 49.6884 141.704 48.5072C141.32 46.6151 140.608 45.4648 140.088 44.6239C139.656 43.9259 139.345 43.4208 139.603 42.9376C140.038 42.124 141.469 42.418 143.843 42.9058C145.747 43.2971 148.355 43.8322 151.327 43.9323C155.138 44.0606 160.357 44.2353 163.143 40.9036C165.051 38.6212 165.592 34.9701 164.43 32.2217C162.193 26.9352 153.694 25.0805 147.877 27.0134C146.58 27.4448 145.77 27.9572 144.987 28.4522C143.95 29.1084 142.97 29.729 141.057 30.0039C138.582 30.3597 137.036 29.7809 135.671 29.2704C134.421 28.8026 133.342 28.3995 131.779 28.7635C127.371 29.7909 123.473 35.9557 123.909 41.2103C124.036 42.7438 124.523 43.9232 124.913 44.8706C125.385 46.0118 125.756 46.9136 125.173 47.7382C124.353 48.8985 122.539 48.6546 120.619 48.3952C118.59 48.1222 116.493 47.8392 115.331 49.0905C114.191 50.3191 114.193 52.799 115.338 56.0734C116.117 58.3048 117.364 59.7718 118.275 60.843C119.157 61.8804 119.794 62.6303 119.465 63.4412C119.076 64.3986 117.782 64.4177 116.284 64.4404C114.725 64.4641 112.959 64.4905 112.079 65.6399C110.435 67.7867 112.613 72.6337 114.534 76.9109C114.992 77.932 115.43 78.8057 115.817 79.5765C116.947 81.8298 117.628 83.1894 117.006 84.6145C116.494 85.7876 115.235 86.6276 113.26 87.1163L113.258 87.119Z" fill="#263238"/>
<path d="M111.608 87.3748C110.088 87.3748 108.769 87.1373 107.763 86.8688C107.649 86.8388 107.581 86.7214 107.611 86.6067C107.641 86.4929 107.759 86.4247 107.873 86.4547C109.641 86.927 112.4 87.2993 115.506 86.3892C115.692 86.3346 120.099 85.0105 122.819 81.3011C125.15 78.1232 124.938 75.0117 124.643 70.7053C124.501 68.6213 124.339 66.2587 124.454 63.5186C124.605 59.9257 125.065 48.9932 130.586 42.115C133.785 38.1307 138.676 35.5307 145.125 34.3877C148.856 33.727 153.106 33.5759 157.413 33.9527C157.531 33.9627 157.617 34.0664 157.607 34.1847C157.597 34.3021 157.495 34.3904 157.376 34.3795C151.748 33.888 137.903 33.6833 130.92 42.3834C125.487 49.1524 125.031 59.9775 124.882 63.5359C124.768 66.2533 124.929 68.6031 125.07 70.6762C125.359 74.9079 125.588 78.2506 123.165 81.555C120.407 85.3153 116.107 86.6604 115.626 86.8015C114.195 87.2201 112.835 87.3757 111.607 87.3757L111.608 87.3748Z" fill="#263238"/>
<path d="M88.0852 47.7291C88.0852 47.7291 84.2593 46.475 84.7844 39.6578C85.1877 34.4168 83.8415 29.8929 78.6532 28.475C73.4658 27.0571 68.5926 30.0503 68.7497 35.0902C68.9069 40.1301 68.8878 44.1971 65.606 46.4304C61.3614 49.318 57.3794 47.2176 49.5187 54.2533C39.6235 63.1099 42.4974 90.0585 71.1077 82.6561L88.0852 47.73V47.7291Z" fill="#263238"/>
<path d="M79.606 44.0852C79.606 44.0852 78.823 44.9488 77.188 44.6458L79.606 44.0852Z" fill="white"/>
<path d="M77.8666 44.9243C77.6468 44.9243 77.4079 44.9043 77.1481 44.8561C77.0318 44.8342 76.9555 44.7232 76.9764 44.6067C76.9982 44.4902 77.1081 44.4138 77.2253 44.4347C78.7131 44.7104 79.418 43.9715 79.4471 43.9396C79.527 43.8532 79.6623 43.8477 79.7486 43.9278C79.8349 44.0079 79.8413 44.1417 79.7623 44.229C79.7323 44.2618 79.1146 44.9243 77.8648 44.9243H77.8666Z" fill="#263238"/>
<path d="M79.0082 146.393C79.0082 146.393 80.3716 150.579 81.735 151.858C83.0984 153.135 88.5211 155.648 88.5964 158.38C88.6845 161.553 86.8452 162.139 81.9185 160.994C78.3596 160.165 75.4221 157.985 74.373 156.741C73.4456 155.642 73.9634 154.707 74.1895 153.418C74.4675 151.838 74.5211 150.226 74.5211 148.621V145.997L79.0073 146.394L79.0082 146.393Z" fill="white"/>
<path d="M85.6245 161.748C84.6607 161.748 83.4327 161.566 81.8704 161.203C78.2316 160.357 75.2405 158.102 74.2096 156.88C73.3993 155.92 73.6055 155.041 73.8235 154.11C73.878 153.877 73.9344 153.636 73.9789 153.382C74.2677 151.737 74.3068 150.053 74.3068 148.621V145.997C74.3068 145.937 74.3322 145.879 74.3758 145.838C74.4203 145.798 74.4793 145.778 74.5393 145.783L79.0255 146.18C79.1109 146.187 79.1835 146.245 79.2099 146.326C79.2235 146.367 80.5724 150.475 81.8794 151.701C82.2419 152.041 82.9213 152.484 83.7079 152.996C85.8361 154.383 88.7509 156.283 88.809 158.374C88.8463 159.707 88.5556 160.58 87.8953 161.12C87.3839 161.539 86.6545 161.748 85.6236 161.748H85.6245ZM74.7346 146.231V148.621C74.7346 150.071 74.6946 151.779 74.4003 153.456C74.354 153.721 74.2959 153.968 74.2395 154.207C74.0215 155.137 73.8644 155.807 74.5357 156.603C75.5312 157.783 78.4287 159.962 81.9666 160.784C85.0168 161.494 86.7626 161.495 87.6255 160.788C88.175 160.338 88.4148 159.575 88.3821 158.385C88.3304 156.52 85.5236 154.691 83.4754 153.355C82.6724 152.831 81.9785 152.379 81.5888 152.013C80.3244 150.828 79.1 147.337 78.8493 146.593L74.7346 146.229V146.231Z" fill="#263238"/>
<path d="M88.4029 159.909C88.3974 159.909 88.3929 159.909 88.3874 159.909L86.6362 159.781C82.1027 159.453 77.8618 157.496 74.6954 154.274C74.2703 153.841 74.0368 153.57 74.0277 153.558C73.9505 153.468 73.9605 153.334 74.0505 153.256C74.1395 153.179 74.2748 153.189 74.352 153.279C74.3547 153.282 74.5864 153.551 75.0006 153.973C78.0934 157.121 82.2372 159.032 86.6671 159.354L88.4183 159.481C88.5364 159.489 88.6245 159.592 88.6163 159.71C88.6081 159.823 88.5146 159.909 88.4029 159.909Z" fill="#263238"/>
<path d="M77.8311 153.175C77.7284 153.175 77.6376 153.101 77.6203 152.996C77.6013 152.88 77.6794 152.769 77.7956 152.749C77.8183 152.746 80.0819 152.355 80.923 151.255C80.9948 151.161 81.1292 151.143 81.2227 151.215C81.3163 151.287 81.3345 151.422 81.2627 151.515C80.318 152.75 77.9664 153.154 77.8665 153.172C77.8547 153.174 77.8429 153.174 77.8311 153.174V153.175Z" fill="#263238"/>
<path d="M79.9138 154.593C79.8148 154.593 79.7258 154.524 79.7049 154.423C79.6803 154.307 79.7548 154.194 79.8702 154.169C79.892 154.165 82.0265 153.702 82.6515 152.642C82.7114 152.54 82.8431 152.506 82.944 152.567C83.0457 152.627 83.0793 152.758 83.0193 152.86C82.2981 154.082 80.0537 154.568 79.9583 154.588C79.9438 154.59 79.9283 154.592 79.9138 154.592V154.593Z" fill="#263238"/>
<path d="M82.1546 155.932C82.0674 155.932 81.9865 155.878 81.9538 155.793C81.9129 155.682 81.9693 155.559 82.0801 155.517C82.0973 155.511 83.8395 154.85 84.3454 153.788C84.3963 153.681 84.5244 153.636 84.6306 153.687C84.7369 153.738 84.7823 153.866 84.7315 153.973C84.151 155.192 82.3072 155.889 82.229 155.918C82.2045 155.927 82.1791 155.932 82.1546 155.932Z" fill="#263238"/>
<path d="M68.4953 136.095C68.329 136.095 65.9583 135.86 64.5877 135.722C64.0554 135.669 63.5803 136.055 63.5231 136.589L63.2542 139.077C63.1589 139.956 62.9827 140.825 62.7356 141.674C62.286 143.216 61.6229 145.872 61.9862 147.083C62.3741 148.38 63.5876 150.186 64.3887 151.213C64.7584 151.687 65.3824 151.876 65.952 151.685C66.9702 151.342 68.597 150.685 69.5516 149.728C71.0177 148.259 69.4345 145.439 69.4345 145.439L68.4962 136.096L68.4953 136.095Z" fill="white"/>
<path d="M65.5033 151.971C65.011 151.971 64.5332 151.748 64.2198 151.344C63.3351 150.21 62.1652 148.429 61.781 147.144C61.4195 145.936 61.989 143.47 62.5304 141.613C62.7783 140.764 62.95 139.903 63.0417 139.053L63.3115 136.565C63.3815 135.918 63.9664 135.444 64.6104 135.508C66.9239 135.741 68.3763 135.88 68.4962 135.881C68.6052 135.881 68.6979 135.964 68.7088 136.074L69.6425 145.373C69.8433 145.746 71.1849 148.393 69.7025 149.878C68.746 150.837 67.1719 151.499 66.0201 151.887C65.8512 151.944 65.6768 151.971 65.5042 151.971H65.5033ZM64.4905 135.932C64.1081 135.932 63.7775 136.223 63.7357 136.611L63.4659 139.1C63.3715 139.974 63.1943 140.86 62.9391 141.734C62.5095 143.208 61.84 145.856 62.1888 147.022C62.5322 148.171 63.6249 149.889 64.555 151.082C64.8675 151.483 65.4007 151.644 65.8821 151.482C66.7895 151.177 68.4535 150.523 69.3982 149.577C70.7316 148.241 69.261 145.571 69.2456 145.544C69.2311 145.518 69.222 145.489 69.2192 145.46L68.2991 136.297C67.834 136.259 66.5824 136.138 64.565 135.936C64.5396 135.933 64.5141 135.933 64.4896 135.933L64.4905 135.932Z" fill="#263238"/>
<path d="M66.5914 151.561C66.5242 151.561 66.4588 151.53 66.417 151.471C63.514 147.379 63.7112 146.308 64.1417 143.959C64.2298 143.478 64.3297 142.933 64.4124 142.296C64.6313 140.599 65.2862 135.935 65.2925 135.889C65.3089 135.771 65.4188 135.69 65.5342 135.707C65.6513 135.723 65.7322 135.831 65.7158 135.949C65.7095 135.995 65.0546 140.658 64.8366 142.351C64.753 142.999 64.6522 143.551 64.5623 144.037C64.1535 146.263 63.9673 147.279 66.7658 151.223C66.834 151.32 66.8113 151.454 66.7159 151.522C66.6786 151.548 66.635 151.561 66.5924 151.561H66.5914Z" fill="#263238"/>
<path d="M66.1981 144.434C66.0936 144.434 66.0028 144.358 65.9864 144.251C65.9692 144.134 66.05 144.026 66.1672 144.008L68.8395 143.614C68.9548 143.597 69.0647 143.678 69.082 143.795C69.0992 143.913 69.0184 144.021 68.9012 144.038L66.2289 144.432C66.218 144.434 66.2081 144.435 66.1972 144.435L66.1981 144.434Z" fill="#263238"/>
<path d="M66.4733 146.364C66.3688 146.364 66.278 146.287 66.2617 146.181C66.2444 146.063 66.3252 145.955 66.4424 145.938L69.1147 145.544C69.2301 145.526 69.34 145.607 69.3572 145.725C69.3745 145.842 69.2936 145.95 69.1765 145.968L66.5042 146.362C66.4933 146.364 66.4833 146.364 66.4724 146.364L66.4733 146.364Z" fill="#263238"/>
<path d="M69.379 147.242C70.9368 148.318 74.2349 149.705 79.7766 148.039L77.2333 91.7321L66.7939 89.7345C66.7939 89.7345 65.4315 103.734 66.9111 117.822C68.2618 130.681 68.3172 141.642 68.2945 145.124C68.289 145.966 68.6869 146.765 69.3781 147.243L69.379 147.242Z" fill="#263238"/>
<path d="M67.2635 88.0891L92.247 89.4997L91.3968 116.872C91.2978 120.068 90.3122 123.172 88.5501 125.837C85.7252 130.112 81.2127 136.399 77.6429 138.858C72.0132 142.735 67.2626 88.0891 67.2626 88.0891H67.2635Z" fill="#263238"/>
<path d="M79.6786 137.917C79.5651 137.917 79.4706 137.828 79.4651 137.714L78.6395 119.975C78.634 119.856 78.7249 119.756 78.8429 119.751C78.9574 119.745 79.0609 119.836 79.0664 119.955L79.8921 137.694C79.8975 137.812 79.8067 137.912 79.6886 137.917C79.685 137.917 79.6822 137.917 79.6786 137.917Z" fill="white"/>
<path d="M55.4492 95.073C55.2921 95.0466 55.1368 95.1313 55.0741 95.2778C54.7852 95.9531 53.9705 97.6276 52.7043 98.2537C51.8041 98.6978 50.9957 98.9808 49.8994 100.022C48.8039 101.063 46.9228 103.76 47.3334 104.424C47.8211 105.213 49.3825 104.408 50.5833 103.675C51.7832 102.941 52.9768 101.18 54.1449 101.003C55.313 100.825 52.8423 103.642 53.1948 104.086C53.5481 104.53 54.807 103.871 55.6145 102.538C55.9334 102.012 57.839 97.3755 58.414 95.9712C58.4985 95.7656 58.3695 95.5353 58.1506 95.4989L55.4492 95.073Z" fill="white"/>
<path d="M47.9956 104.968C47.6377 104.968 47.3425 104.843 47.1526 104.537C46.6004 103.642 48.893 100.683 49.7532 99.8663C50.6978 98.969 51.4545 98.6113 52.1866 98.2655C52.3264 98.199 52.4672 98.1326 52.6107 98.0616C53.8025 97.4728 54.5936 95.8602 54.8788 95.194C54.9806 94.9565 55.2285 94.82 55.4847 94.8619L58.1851 95.2878C58.3568 95.3169 58.5012 95.4188 58.5848 95.569C58.6674 95.7182 58.6783 95.8948 58.6129 96.0531C57.8727 97.8623 56.116 102.127 55.799 102.65C55.1177 103.774 54.1685 104.4 53.5845 104.437C53.2829 104.457 53.1158 104.33 53.0295 104.221C52.7969 103.928 53.0849 103.405 53.6153 102.507C53.857 102.098 54.2539 101.425 54.2512 101.21C54.2357 101.21 54.2121 101.21 54.1785 101.216C53.5427 101.312 52.8415 101.982 52.1639 102.629C51.6879 103.084 51.1947 103.555 50.6969 103.859C49.7877 104.414 48.7531 104.969 47.9965 104.969L47.9956 104.968ZM55.392 95.2823C55.3403 95.2823 55.2921 95.3133 55.2712 95.3624C54.9678 96.0722 54.1195 97.7941 52.7997 98.4457C52.6543 98.5176 52.5108 98.5849 52.3691 98.6523C51.6352 98.999 50.9431 99.3266 50.0475 100.177C48.8585 101.306 47.2253 103.84 47.516 104.311C47.8103 104.787 48.8049 104.511 50.4725 103.492C50.9313 103.212 51.4072 102.758 51.8677 102.318C52.5935 101.624 53.3447 100.908 54.1131 100.791C54.402 100.747 54.5409 100.854 54.6063 100.951C54.8207 101.269 54.5246 101.805 53.9823 102.723C53.748 103.121 53.3583 103.78 53.3737 103.964C53.4101 103.999 53.4718 104.014 53.5563 104.009C54.025 103.979 54.8552 103.379 55.4329 102.427C55.6791 102.021 57.0325 98.7842 58.2169 95.8902C58.2378 95.8393 58.2214 95.7974 58.2106 95.7765C58.1987 95.7555 58.1715 95.7191 58.1161 95.71L55.4166 95.2841C55.4166 95.2841 55.4156 95.2841 55.4147 95.2841C55.4075 95.2832 55.4002 95.2823 55.3929 95.2823H55.392Z" fill="#263238"/>
<path d="M114.02 30.9676L113.294 31.3062C111.661 32.0697 110.507 33.5886 110.209 35.3696L109.661 38.6458L112.333 39.2765C112.333 39.2765 115.22 36.8857 115.519 33.4639C115.76 33.261 115.983 32.8551 116.289 32.9234C117.671 33.2319 117.798 32.7714 117.487 32.1389C116.86 30.8675 115.302 30.3679 114.02 30.9667V30.9676Z" fill="white"/>
<path d="M112.334 39.4913C112.317 39.4913 112.301 39.4894 112.285 39.4858L109.612 38.8551C109.503 38.8297 109.432 38.7223 109.451 38.6112L109.999 35.335C110.309 33.4849 111.507 31.9059 113.205 31.1133L113.93 30.7747C115.329 30.1204 117.012 30.691 117.679 32.0461C117.879 32.4511 117.895 32.766 117.725 32.9825C117.505 33.2628 117.034 33.3111 116.243 33.1345C116.144 33.1127 116.004 33.2683 115.88 33.4048C115.83 33.4603 115.779 33.5167 115.725 33.5686C115.384 36.9941 112.59 39.3447 112.47 39.4439C112.431 39.4758 112.383 39.4931 112.334 39.4931V39.4913ZM109.905 38.4838L112.276 39.0435C112.734 38.6331 115.046 36.4226 115.307 33.4458C115.311 33.3893 115.339 33.3375 115.382 33.3011C115.439 33.2528 115.499 33.1864 115.563 33.1163C115.755 32.9043 115.995 32.6404 116.336 32.7159C117.189 32.9061 117.362 32.7505 117.389 32.7168C117.444 32.6458 117.41 32.4656 117.296 32.2354C116.73 31.0878 115.301 30.6064 114.11 31.1633L113.386 31.5019C111.816 32.2354 110.708 33.6951 110.422 35.406L109.906 38.4847L109.905 38.4838Z" fill="#263238"/>
<path d="M111.906 36.3852C111.87 36.3852 111.833 36.3761 111.8 36.357C111.697 36.2978 111.662 36.1677 111.721 36.0649L112.08 35.4388C112.794 34.192 114.072 33.3738 115.502 33.2519C115.618 33.241 115.723 33.3292 115.734 33.4466C115.744 33.565 115.657 33.6678 115.538 33.6787C114.249 33.7888 113.094 34.5269 112.45 35.6517L112.091 36.2778C112.051 36.347 111.98 36.3852 111.906 36.3852Z" fill="#263238"/>
<path d="M80.1184 48.1705C82.3456 47.6663 84.6301 47.4688 86.91 47.5935C89.5177 47.7355 92.8159 48.1395 94.9749 49.2207C99.0215 51.2483 100.957 53.7155 103.332 52.7463C105.326 51.9327 107.931 41.9075 108.717 38.7059C108.851 38.1599 109.39 37.8177 109.94 37.9278L112.437 38.4283C112.959 38.533 113.32 39.0126 113.277 39.5441C112.922 43.7986 111.248 61.2043 107.467 62.4411C103.156 63.8517 92.3363 58.2102 92.3363 58.2102C92.3363 58.2102 92.4244 79.6284 95.2393 90.9095C95.2393 90.9095 90.7967 90.8858 87.9082 92.0844C72.5085 98.4757 66.0076 90.9095 66.0076 90.9095C66.1048 86.5294 67.0649 83.5262 70.215 78.6401C71.9372 75.9691 72.4313 71.6536 69.0242 67.7585C69.0242 67.7585 60.7248 93.4449 59.178 96.4708C59.0717 96.6783 53.9615 95.5407 53.9515 95.4206C53.124 86.2099 59.4305 69.0263 60.347 64.8591C60.6249 63.596 60.9946 62.3546 61.4933 61.1606C63.0483 57.4367 66.5245 51.3311 73.0126 49.7777L80.1202 48.1696L80.1184 48.1705Z" fill="#E8F2F8"/>
<path d="M59.0526 96.7111C58.8001 96.7111 58.3186 96.6438 57.3595 96.4572C56.6364 96.3171 55.7772 96.1305 55.0605 95.9603C53.7552 95.6491 53.7525 95.6136 53.7362 95.4407C53.1003 88.3568 56.6428 76.6353 58.7601 69.6315C59.4095 67.4837 59.9218 65.7865 60.1362 64.8136C60.4378 63.4458 60.8156 62.2236 61.2943 61.0788C62.8039 57.4622 66.3264 51.1582 72.9608 49.5693L80.0703 47.9603C82.3274 47.4497 84.6318 47.2532 86.9208 47.3779C89.4051 47.5125 92.8358 47.9084 95.0694 49.0278C96.4019 49.6958 97.5001 50.4056 98.4692 51.0326C100.448 52.3122 101.755 53.1576 103.251 52.547C104.764 51.929 106.959 44.9653 108.509 38.6531C108.671 37.9952 109.318 37.5829 109.982 37.7167L112.478 38.2172C113.108 38.3437 113.542 38.9216 113.489 39.5614C113.065 44.6577 111.382 61.3854 107.532 62.645C107.031 62.8088 106.447 62.8816 105.807 62.8816C101.362 62.8816 94.1692 59.3788 92.5515 58.5615C92.5797 61.3918 92.8658 80.5194 95.4454 90.8576C95.4618 90.9222 95.4472 90.9896 95.4064 91.0415C95.3655 91.0933 95.3001 91.1243 95.2374 91.1234C95.1947 91.1234 90.8048 91.1133 87.9899 92.2819C79.9758 95.6081 74.3923 95.1058 71.1196 94.0983C67.5517 92.9999 65.9131 91.1279 65.845 91.0487C65.8105 91.0087 65.7923 90.9568 65.7932 90.904C65.8941 86.3547 66.925 83.346 70.0351 78.5227C71.5856 76.1183 72.2387 72.0058 69.1086 68.1881C68.0504 71.4561 60.822 93.7216 59.3678 96.5673C59.3269 96.6474 59.2951 96.7093 59.0526 96.7093V96.7111ZM54.1522 95.2814C54.8243 95.5144 58.3931 96.2806 59.0308 96.2843C60.6603 92.9244 68.7371 67.9469 68.8198 67.693C68.8434 67.6193 68.9042 67.5647 68.9796 67.5493C69.055 67.5338 69.1331 67.5602 69.1831 67.6175C72.7492 71.6946 72.0634 76.1666 70.393 78.7566C67.3528 83.4725 66.3319 86.4193 66.222 90.8285C66.5299 91.1525 68.1603 92.7469 71.275 93.6988C74.4768 94.6771 79.9476 95.1567 87.8255 91.8869C90.3407 90.8431 93.944 90.7129 94.9658 90.6975C92.24 79.451 92.1219 58.4241 92.121 58.2112C92.121 58.1365 92.1591 58.0665 92.2236 58.0273C92.2872 57.9882 92.3671 57.9855 92.4334 58.0201C92.5406 58.0756 103.223 63.6033 107.399 62.2373C110.259 61.3017 112.199 49.8914 113.062 39.5259C113.098 39.1027 112.81 38.7214 112.394 38.6377L109.898 38.1371C109.458 38.0489 109.03 38.321 108.924 38.756C107.945 42.7448 105.447 52.1129 103.412 52.9438C101.71 53.639 100.254 52.6962 98.2376 51.393C97.2775 50.7724 96.1903 50.0689 94.8786 49.4118C92.7105 48.3261 89.3424 47.9394 86.8981 47.8065C84.6482 47.6845 82.3838 47.8766 80.1656 48.3789L73.058 49.987C66.6107 51.5313 63.1673 57.7024 61.6894 61.2444C61.2217 62.3656 60.8501 63.5632 60.5549 64.9064C60.3369 65.8957 59.8219 67.5993 59.1707 69.7561C57.0752 76.6899 53.5754 88.2685 54.1531 95.2814H54.1522Z" fill="#263238"/>
<path d="M80.5372 92.7696C80.5054 92.7696 80.4736 92.7623 80.4436 92.7478C80.3373 92.6959 80.2937 92.5676 80.3455 92.4611L86.4449 80.0043C86.4967 79.8978 86.6248 79.8541 86.731 79.906C86.8373 79.9579 86.8809 80.0862 86.8291 80.1927L80.7297 92.6495C80.6925 92.725 80.6162 92.7696 80.5372 92.7696Z" fill="#263238"/>
<path d="M87.2496 84.7903C87.2224 84.7903 87.1951 84.7848 87.1679 84.7739C87.0589 84.7284 87.0071 84.6037 87.0516 84.4945L88.7229 80.4402C88.7684 80.331 88.8928 80.2791 89.0018 80.3237C89.1108 80.3692 89.1626 80.4939 89.1181 80.6031L87.4467 84.6574C87.4131 84.7402 87.3332 84.7903 87.2487 84.7903H87.2496Z" fill="#263238"/>
<path d="M75.1626 42.5663L74.3624 48.6837L71.3486 50.2972C71.3486 50.2972 72.5021 52.8117 76.4924 53.0829C80.4818 53.3541 82.3683 49.7721 82.5927 48.2978L80.1193 48.1695L79.2746 42.7465L75.1626 42.5663Z" fill="white"/>
<path d="M76.9211 53.3132C76.7757 53.3132 76.6286 53.3086 76.4778 53.2977C72.4085 53.021 71.2041 50.4947 71.1541 50.3873C71.1069 50.2845 71.1478 50.1625 71.2477 50.1088L74.1643 48.5472L74.95 42.539C74.9645 42.4289 75.0554 42.347 75.1716 42.3524L79.2836 42.5326C79.3853 42.5372 79.4698 42.6127 79.4852 42.7137L80.3027 47.9657L82.6035 48.0849C82.6635 48.0876 82.7198 48.1167 82.7579 48.1631C82.7961 48.2105 82.8124 48.2705 82.8034 48.3306C82.5944 49.7057 80.8196 53.3122 76.9211 53.3132ZM71.6428 50.3837C71.9916 50.9415 73.315 52.6534 76.5069 52.8709C80.2001 53.122 81.9831 49.9623 82.3347 48.4999L80.1074 48.3843C80.0066 48.3788 79.9231 48.3033 79.9076 48.2032L79.0901 42.9531L75.3497 42.7893L74.5749 48.7119C74.5658 48.7802 74.524 48.8402 74.4631 48.873L71.6428 50.3837Z" fill="#263238"/>
<path d="M81.3473 37.9377C81.1874 37.8977 81.0157 37.9541 80.8559 38.0806C80.8532 38.046 80.8504 38.0105 80.8468 37.9769V34.2811C76.6821 37.3116 75.9092 35.3741 73.2777 36.2414C73.2777 36.2414 73.2496 37.9587 73.2414 38.0788C73.0825 37.9532 72.9117 37.8977 72.7527 37.9377C72.3476 38.0397 72.1669 38.714 72.3494 39.4448C72.5266 40.151 73.2405 40.9373 73.6547 40.8972C74.2905 42.761 75.5713 44.3664 77.05 44.3664C78.5288 44.3664 79.8086 42.761 80.4453 40.8972C80.8586 40.9382 81.5735 40.1519 81.7506 39.4448C81.9332 38.714 81.7533 38.0388 81.3473 37.9377Z" fill="white"/>
<path d="M77.05 44.5812C75.3515 44.5812 74.0898 42.7356 73.4994 41.0993C72.958 40.9837 72.3122 40.1738 72.1433 39.4976C72.0461 39.109 72.0397 38.7195 72.1251 38.4001C72.2223 38.0369 72.4267 37.7985 72.7019 37.7303C72.8118 37.703 72.9253 37.7048 73.038 37.7348C73.0461 37.3489 73.057 36.7083 73.0652 36.2378C73.067 36.1468 73.1261 36.0667 73.2124 36.0376C74.2015 35.7118 74.9445 35.7664 75.663 35.8182C76.9283 35.9111 78.1237 35.9984 80.7233 34.1073C80.7887 34.06 80.875 34.0536 80.9458 34.09C81.0176 34.1264 81.0621 34.2001 81.0621 34.2811V37.7357C81.1756 37.7048 81.2901 37.703 81.4 37.7312C81.9277 37.864 82.173 38.6403 81.9586 39.4985C81.7896 40.1747 81.1429 40.9846 80.6016 41.1002C80.0111 42.7365 78.7495 44.5821 77.0509 44.5821L77.05 44.5812ZM73.6547 40.6834C73.7455 40.6834 73.8273 40.7407 73.8573 40.8281C74.4222 42.4826 75.6276 44.1525 77.05 44.1525C78.4725 44.1525 79.6778 42.4826 80.2428 40.8281C80.2746 40.7344 80.3663 40.6734 80.4662 40.6843C80.7224 40.7089 81.3773 40.0555 81.5426 39.3929C81.7024 38.755 81.5435 38.208 81.2946 38.1452C81.1838 38.117 81.0666 38.1862 80.9885 38.2481C80.9267 38.2972 80.8432 38.3081 80.7705 38.2763C80.6978 38.2444 80.6488 38.1762 80.6424 38.097L80.6334 37.9978C80.6334 37.9905 80.6324 37.9833 80.6324 37.9751V34.6943C78.1327 36.428 76.8611 36.3351 75.6294 36.245C74.9591 36.1959 74.325 36.1495 73.4885 36.3979C73.4812 36.8393 73.4612 37.9878 73.4549 38.0925C73.4494 38.1716 73.4004 38.2417 73.3286 38.2736C73.2569 38.3054 73.1724 38.2954 73.1097 38.2463C73.0316 38.1844 72.9153 38.117 72.8054 38.1452C72.6901 38.1744 72.592 38.3072 72.5384 38.5111C72.4721 38.7577 72.4793 39.079 72.5584 39.3929C72.7237 40.0555 73.3768 40.7089 73.6347 40.6843C73.642 40.6843 73.6493 40.6834 73.6556 40.6834H73.6547Z" fill="#263238"/>
<path d="M27.7263 96.6856L35.1491 98.6122C41.8598 100.354 49.2372 98.179 56.0678 96.9923L60.7293 96.1824L60.1961 88.0811L32.6522 89.1495L27.7263 96.6847V96.6856Z" fill="white"/>
<path d="M40.6444 99.4786C38.7642 99.4786 36.9076 99.2911 35.0954 98.8197L27.6726 96.8931C27.6063 96.8758 27.5518 96.8276 27.5273 96.763C27.5028 96.6984 27.51 96.6265 27.5482 96.5682L32.474 89.033C32.5122 88.9747 32.5758 88.9392 32.6448 88.9365L60.1888 87.8681C60.3041 87.8635 60.4031 87.9527 60.4104 88.0683L60.9436 96.1696C60.9509 96.2788 60.8745 96.3762 60.7665 96.3944L56.1049 97.2044C54.8188 97.4273 53.4835 97.6922 52.1928 97.9479C48.3706 98.705 44.4612 99.4795 40.6453 99.4795L40.6444 99.4786ZM28.0678 96.5537L35.2026 98.4056C40.5999 99.8071 46.4513 98.6477 52.1092 97.5274C53.4027 97.2717 54.7397 97.0069 56.0305 96.7821L60.5021 96.0049L59.9953 88.304L32.7692 89.3597L28.0668 96.5528L28.0678 96.5537Z" fill="#263238"/>
<path d="M37.9695 151.375L38.7216 156.738L42.3685 157.038L42.146 150.656L37.9695 151.375Z" fill="white"/>
<path d="M42.3685 157.252C42.363 157.252 42.3566 157.252 42.3512 157.252L38.7043 156.952C38.6044 156.944 38.5235 156.868 38.5099 156.768L37.7578 151.406C37.7415 151.291 37.8196 151.184 37.9331 151.164L42.1096 150.444C42.1704 150.434 42.2331 150.45 42.2803 150.489C42.3285 150.528 42.3566 150.586 42.3594 150.647L42.5819 157.03C42.5837 157.091 42.5601 157.15 42.5156 157.192C42.4756 157.23 42.423 157.251 42.3675 157.251L42.3685 157.252ZM38.9087 156.539L42.1459 156.805L41.9397 150.909L38.2092 151.552L38.9087 156.539Z" fill="#263238"/>
<path d="M42.5274 166.616C41.0078 166.787 38.5217 166.906 35.6196 166.422C34.6668 166.263 34.0546 165.32 34.3116 164.387C35.0256 161.792 36.2682 156.863 38.231 154.617L38.6679 155.877L39.3519 154.721C39.4455 154.562 39.609 154.459 39.7915 154.441L40.8098 154.394C41.1086 154.365 41.3802 154.57 41.4338 154.866L41.6309 155.954L42.7754 154.458L43.0706 158.657C43.1641 159.992 43.3295 161.321 43.5638 162.637L43.9544 164.832C44.0461 165.719 43.4112 166.517 42.5274 166.616Z" fill="#263238"/>
<path d="M39.7952 166.98C38.5589 166.98 37.1302 166.891 35.5842 166.633C35.0664 166.547 34.6086 166.245 34.3271 165.803C34.0482 165.367 33.9674 164.83 34.1054 164.33L34.2589 163.769C34.9883 161.089 36.2091 156.606 38.0694 154.476C38.1193 154.419 38.1965 154.392 38.271 154.407C38.3455 154.421 38.4073 154.475 38.4318 154.547L38.7179 155.371L39.1666 154.612C39.2947 154.396 39.5199 154.252 39.7688 154.228L40.798 154.18C41.1931 154.141 41.5691 154.425 41.6427 154.828L41.7535 155.44L42.6046 154.328C42.6591 154.257 42.7509 154.228 42.8353 154.253C42.9207 154.279 42.9807 154.354 42.987 154.443L43.2822 158.642C43.3749 159.965 43.5402 161.296 43.7727 162.601L44.1633 164.796C44.2696 165.813 43.5447 166.718 42.5501 166.83C41.8135 166.913 40.8779 166.981 39.7943 166.981L39.7952 166.98ZM38.1538 155.048C36.4889 157.205 35.3589 161.356 34.6713 163.881L34.5178 164.444C34.4106 164.832 34.4715 165.233 34.6877 165.572C34.9039 165.912 35.2563 166.144 35.655 166.21C38.5063 166.686 40.9533 166.578 42.5038 166.402C43.2659 166.317 43.8218 165.621 43.7418 164.853L43.3531 162.674C43.1187 161.354 42.9516 160.007 42.8571 158.67L42.601 155.036L41.7998 156.083C41.7481 156.151 41.6618 156.181 41.58 156.161C41.4974 156.141 41.4347 156.075 41.4202 155.991L41.2231 154.904C41.1894 154.719 41.0178 154.589 40.8298 154.607L39.8006 154.654C39.6971 154.665 39.5944 154.731 39.5354 154.83L38.8514 155.986C38.8087 156.058 38.7279 156.098 38.6461 156.09C38.5635 156.081 38.4926 156.026 38.4654 155.947L38.1538 155.048V155.048Z" fill="#263238"/>
<path d="M38.8179 165.223C37.7233 165.223 36.5062 165.118 35.299 164.807C35.1846 164.778 35.1155 164.66 35.1455 164.546C35.1746 164.431 35.2909 164.362 35.4062 164.392C38.9405 165.303 42.6973 164.362 42.7346 164.353C42.8481 164.324 42.9653 164.393 42.9943 164.508C43.0234 164.622 42.9544 164.739 42.8399 164.768C42.7346 164.795 41.0269 165.223 38.8179 165.223Z" fill="#263238"/>
<path d="M37.6025 161.19C37.4854 161.19 37.3891 161.094 37.3891 160.977C37.3891 160.858 37.4835 160.762 37.6016 160.761L41.0106 160.743H41.0115C41.1286 160.743 41.2249 160.838 41.2249 160.956C41.2249 161.074 41.1305 161.17 41.0124 161.171L37.6034 161.19H37.6025Z" fill="#263238"/>
<path d="M54.8833 147.914L55.7017 155.749L60.0725 155.595L60.0017 147.733L54.8833 147.914Z" fill="white"/>
<path d="M55.7017 155.963C55.5927 155.963 55.501 155.88 55.4892 155.771L54.6708 147.935C54.6644 147.876 54.6835 147.817 54.7225 147.773C54.7616 147.728 54.817 147.702 54.876 147.699L59.9944 147.52C60.0526 147.52 60.108 147.539 60.1498 147.579C60.1915 147.619 60.2152 147.673 60.2161 147.732L60.2869 155.594C60.2878 155.71 60.1961 155.806 60.0807 155.809L55.7099 155.962C55.7099 155.962 55.7044 155.962 55.7026 155.962L55.7017 155.963ZM55.1195 148.119L55.8934 155.528L59.8564 155.389L59.7892 147.955L55.1186 148.119H55.1195Z" fill="#263238"/>
<path d="M54.7152 160.223C54.7298 160.967 55.2593 161.601 55.9878 161.744C58.5211 162.242 64.2272 163.347 65.8504 163.532C67.9568 163.771 71.0096 162.921 71.5746 161.771C72.3031 160.285 68.9496 157.698 67.2101 156.69C64.626 155.194 62.0872 152.146 61.0635 152.042C60.0398 151.936 58.2414 154.964 58.2414 154.964L55.0877 153.764C55.0877 153.764 54.6389 156.452 54.7152 160.222V160.223Z" fill="#263238"/>
<path d="M66.5843 163.786C66.3209 163.786 66.0656 163.773 65.8258 163.746C64.1854 163.559 58.3703 162.432 55.946 161.955C55.1249 161.794 54.5172 161.068 54.5009 160.228C54.4255 156.48 54.8715 153.757 54.876 153.73C54.8869 153.666 54.925 153.612 54.9805 153.58C55.0359 153.548 55.1031 153.542 55.163 153.565L58.1505 154.701C58.6119 153.947 60.0662 151.725 61.0844 151.829C61.6657 151.889 62.5195 152.645 63.7003 153.692C64.7994 154.665 66.0456 155.77 67.3155 156.505C68.7461 157.334 72.6328 160.096 71.7644 161.866C71.2085 163 68.6226 163.786 66.5825 163.786H66.5843ZM55.2593 154.06C55.153 154.819 54.8669 157.176 54.9287 160.219C54.9414 160.858 55.4037 161.412 56.0287 161.534C58.4475 162.01 64.2499 163.135 65.874 163.32C67.9549 163.556 70.8897 162.681 71.382 161.677C72.0088 160.399 68.9041 157.92 67.1029 156.877C65.7959 156.12 64.5324 155 63.4179 154.013C62.4242 153.133 61.4859 152.301 61.0417 152.256C60.3895 152.186 59.0942 153.949 58.4257 155.074C58.373 155.163 58.2631 155.201 58.1659 155.165L55.2602 154.06H55.2593Z" fill="#263238"/>
<path d="M66.6805 161.84C62.4332 161.84 56.1603 160.223 55.7934 160.127C55.6789 160.097 55.6108 159.981 55.6408 159.866C55.6707 159.752 55.787 159.682 55.9015 159.712C59.324 160.604 68.5208 162.504 69.9577 160.604C70.0286 160.511 70.163 160.491 70.2575 160.563C70.352 160.635 70.3701 160.769 70.2984 160.864C69.7552 161.583 68.3791 161.841 66.6805 161.841V161.84Z" fill="#263238"/>
<path d="M61.8446 157.76C61.7892 157.76 61.7329 157.738 61.6911 157.694C61.6093 157.609 61.6111 157.474 61.6965 157.391L63.8493 155.304C63.9337 155.222 64.0691 155.224 64.1517 155.31C64.2335 155.394 64.2317 155.53 64.1463 155.613L61.9936 157.7C61.9518 157.74 61.8982 157.76 61.8446 157.76Z" fill="#263238"/>
<path d="M35.3525 89.7528C35.3525 89.7528 34.3443 121.95 33.931 130.451C33.5995 137.288 35.3725 147.387 36.0801 151.078C36.2345 151.883 36.9712 152.441 37.7859 152.369L41.6309 152.032C42.4574 151.959 43.0905 151.264 43.0869 150.433C43.0724 147.215 43.0524 139.427 43.1732 134.317C43.2232 132.203 43.5938 130.11 44.2868 128.114C45.107 125.752 46.2106 122.128 46.6012 118.774C47.2516 113.181 49.8221 104.295 49.8221 104.295C49.8221 104.295 53.1784 142.267 53.9177 150.253C53.9841 150.97 54.5981 151.506 55.3157 151.476C56.7345 151.418 58.6792 151.658 60.1289 151.085C60.5712 150.91 60.8891 150.519 60.9663 150.05C61.4795 146.927 63.8966 133.133 63.2053 125.501C62.4187 116.818 61.8229 87.9691 61.8229 87.9691L35.3516 89.7537L35.3525 89.7528Z" fill="#263238"/>
<path d="M30.9179 91.2434C30.9179 91.2434 41.1665 94.2466 50.3987 94.6407C55.8505 94.8727 59.5047 93.2528 59.5047 93.2528L54.3036 50.998C54.3036 50.998 54.0184 47.6854 48.2324 46.1456C45.125 45.3183 42.767 48.914 42.767 48.914L30.9179 91.2443V91.2434Z" fill="#E8F2F8"/>
<path d="M51.4552 94.8773C51.1082 94.8773 50.753 94.8701 50.3897 94.8546C41.2375 94.4642 30.9607 91.4792 30.8581 91.4492C30.7454 91.4164 30.6809 91.299 30.7118 91.1862L42.5609 48.8558C42.5672 48.8349 42.5763 48.8148 42.5881 48.7957C42.688 48.6437 45.0669 45.0818 48.2869 45.9381C54.1511 47.4989 54.5044 50.8379 54.5162 50.979L59.7164 93.2265C59.7282 93.3202 59.6764 93.4103 59.591 93.4486C59.5565 93.464 56.3083 94.8764 51.4552 94.8764V94.8773ZM31.1814 91.0961C32.6693 91.5156 42.0186 94.0683 50.4079 94.426C55.1412 94.628 58.5437 93.4049 59.2722 93.1164L54.0911 51.0235C54.0875 50.9853 53.7278 47.8292 48.177 46.3522C45.3921 45.6105 43.1831 48.6865 42.9633 49.005L31.1814 91.0961Z" fill="#263238"/>
<path d="M35.9955 62.4757C33.9418 61.1898 28.896 62.9107 24.8903 61.8969C20.8846 60.8831 12.7261 58.4423 12.8042 50.6522C12.8768 43.4346 20.5231 46.0219 22.3942 50.2245C23.0491 51.6951 31.0242 49.8714 33.0888 48.9195C36.5886 47.3059 39.9194 48.1332 39.9194 48.1332L35.9955 62.4766V62.4757Z" fill="white"/>
<path d="M35.9956 62.6896C35.9556 62.6896 35.9165 62.6787 35.882 62.6568C34.8892 62.0352 33.1053 62.1617 31.0407 62.3083C29.0642 62.4484 26.8251 62.6068 24.8377 62.1044C21.7876 61.3327 12.5064 58.9838 12.5899 50.6504C12.6253 47.1131 14.4311 46.2103 15.5038 45.9873C18.0126 45.4649 21.3897 47.4434 22.5887 50.1372C22.6341 50.2391 22.7504 50.3265 22.9348 50.3956C24.7551 51.0818 31.2232 49.5429 32.999 48.7239C36.526 47.0976 39.8314 47.8893 39.9704 47.9239C40.0258 47.9376 40.0739 47.974 40.103 48.0231C40.1321 48.0732 40.1402 48.1323 40.1248 48.1878L36.2009 62.5303C36.1827 62.5958 36.1355 62.6486 36.0728 62.6732C36.0473 62.6832 36.021 62.6878 35.9947 62.6878L35.9956 62.6896ZM33.4586 61.7604C34.4087 61.7604 35.2299 61.8551 35.8611 62.1581L39.6534 48.297C38.8695 48.1542 36.0664 47.7829 33.1789 49.1143C31.3068 49.9779 24.7315 51.5314 22.7849 50.7979C22.4897 50.6868 22.2926 50.523 22.1991 50.3128C21.0936 47.8293 17.8827 45.9318 15.5919 46.4078C13.9333 46.7527 13.0432 48.2215 13.0186 50.6559C12.9387 58.6526 21.9747 60.9386 24.9431 61.6903C26.8633 62.1763 29.0669 62.0198 31.0116 61.8824C31.8863 61.8205 32.712 61.7613 33.4586 61.7613V61.7604Z" fill="#263238"/>
<path d="M46.9289 44.0407C51.7721 44.5266 54.3618 47.6772 56.9541 51.4012C56.9541 51.4012 71.5445 55.1688 70.1657 69.7789C69.7451 74.24 68.4635 80.1572 64.9201 78.7721C61.3767 77.387 60.3203 76.1384 60.3203 76.1384C60.3203 76.1384 61.6211 80.2354 61.8799 83.6126C61.988 85.0205 62.0207 86.2318 62.0225 87.1673C62.0253 88.7062 62.2251 90.2369 62.6111 91.7258L63.1034 93.6224C63.4504 94.9574 63.0644 96.3908 62.058 97.3318C60.5474 98.746 58.4165 99.9063 55.0403 99.7479C55.0403 99.7479 55.3146 92.9125 54.5507 89.0557C54.1874 87.2219 53.1491 79.37 52.8903 71.8365C52.715 66.7548 55.8142 55.4965 53.1064 51.7215C52.4679 50.8315 43.669 47.5234 43.1876 48.5272C41.8532 51.3075 42.123 53.3605 41.9304 54.7502C40.6543 63.9563 40.3518 65.0193 37.1136 72.8931C33.5257 81.6196 34.2806 83.8292 32.6038 100.539C32.6038 100.539 29.2112 97.9115 27.4827 96.6993C27.4827 96.6993 29.7262 73.9142 31.0233 69.9309C32.3195 65.9475 33.0107 60.5791 31.6283 58.587L36.7948 51.6069C36.7948 51.6069 38.0219 43.147 46.9262 44.0398L46.9289 44.0407Z" fill="#263238"/>
<path d="M32.6066 100.754C32.5603 100.754 32.5139 100.738 32.4758 100.709C32.4422 100.683 29.0678 98.0716 27.3628 96.8758C27.2993 96.8312 27.2647 96.7566 27.2729 96.6792C27.3647 95.7482 29.5337 73.825 30.8226 69.8653C32.1188 65.8829 32.781 60.6201 31.4557 58.7108C31.4031 58.6352 31.4049 58.5351 31.4594 58.4605L36.595 51.5213C36.7267 50.7796 38.3281 42.9631 46.9499 43.8268C51.8766 44.3209 54.5617 47.5962 57.085 51.2146C57.6363 51.3712 61.018 52.4004 64.2099 54.9431C67.4226 57.5013 71.0995 62.1562 70.3783 69.7989C70.0558 73.218 69.2392 77.5598 67.1828 78.8285C66.487 79.258 65.6995 79.3062 64.842 78.9713C62.6421 78.1113 61.3877 77.3032 60.7401 76.7999C61.1234 78.1368 61.8991 81.0781 62.0926 83.5963C62.1852 84.8075 62.2342 86.0088 62.2361 87.1664C62.2388 88.6798 62.435 90.1951 62.8183 91.6712L63.3106 93.5677C63.6821 94.9993 63.2588 96.5009 62.2043 97.4883C60.2804 99.2893 57.9342 100.098 55.0312 99.9618C54.9141 99.9563 54.8232 99.8571 54.8278 99.7388C54.8305 99.6706 55.0921 92.8843 54.3418 89.0975C53.9731 87.2365 52.9367 79.3709 52.6769 71.8438C52.6169 70.1074 52.9358 67.6557 53.2736 65.0611C53.9313 60.0058 54.6761 54.2761 52.9339 51.8471C52.4607 51.1882 45.9326 48.6019 43.8107 48.5554C43.4492 48.5472 43.3811 48.6219 43.3802 48.6228C42.3874 50.6922 42.302 52.3267 42.233 53.6408C42.2112 54.0504 42.1912 54.4362 42.1431 54.7811C40.8714 63.96 40.5998 64.9801 37.3126 72.9768C34.6194 79.5274 34.3914 82.3049 33.7147 90.5518C33.4995 93.181 33.2306 96.4526 32.8182 100.562C32.81 100.64 32.761 100.707 32.6902 100.738C32.6629 100.75 32.6347 100.755 32.6057 100.755L32.6066 100.754ZM27.7107 96.5964C29.1377 97.6047 31.5784 99.4767 32.4322 100.134C32.8228 96.2069 33.0807 93.0599 33.2896 90.5145C33.9709 82.2184 34.1998 79.4236 36.9184 72.8112C40.1865 64.8618 40.4554 63.848 41.7207 54.7202C41.7661 54.3944 41.7852 54.034 41.807 53.6163C41.8742 52.3358 41.9659 50.5821 42.9969 48.4335C43.1222 48.1714 43.461 48.1423 43.5728 48.1323C45.3921 47.973 52.6496 50.715 53.2818 51.5959C55.123 54.1623 54.3664 59.9812 53.6987 65.1157C53.3636 67.693 53.0475 70.1274 53.1056 71.8283C53.3636 79.3308 54.3954 87.1619 54.7624 89.0138C55.4464 92.4666 55.301 98.3483 55.2629 99.5414C57.9479 99.6242 60.1251 98.8488 61.9136 97.1743C62.8528 96.2943 63.2298 94.9538 62.8982 93.6751L62.4059 91.7786C62.0135 90.2679 61.8128 88.7162 61.8101 87.1664C61.8082 86.0188 61.7601 84.8285 61.6675 83.6281C61.4131 80.3146 60.1306 76.243 60.117 76.202C60.0861 76.1047 60.1278 75.9991 60.2169 75.95C60.3059 75.9008 60.4176 75.9208 60.4839 75.9991C60.4939 76.0109 61.5657 77.2295 64.9983 78.5718C65.734 78.8594 66.3753 78.8239 66.9593 78.4635C68.9658 77.2249 69.6961 72.4772 69.9532 69.7579C70.5172 63.7752 68.4962 58.9037 63.9437 55.278C60.5429 52.5697 56.9369 51.6169 56.9006 51.6078C56.8515 51.595 56.8079 51.565 56.7789 51.5231C54.2065 47.8292 51.6886 44.7323 46.9072 44.2536C43.303 43.8923 40.5444 45.018 38.7069 47.6008C37.328 49.5392 37.011 51.6178 37.0083 51.6387C37.0029 51.6733 36.9892 51.707 36.9683 51.7352L31.8908 58.5952C33.1988 60.7274 32.5621 65.9002 31.2287 69.9973C30.0033 73.7613 27.8915 94.7736 27.7107 96.5964Z" fill="white"/>
<path d="M24.9666 33.9208C24.9666 33.9208 23.4379 38.8442 22.6132 44.5111C21.9138 49.3162 21.5341 50.5639 20.1416 51.6087C18.7501 52.6534 16.5211 53.0156 14.8497 50.1771C13.1712 47.3269 22.1708 31.7685 22.6858 30.3234C23.4207 28.2612 25.0339 26.8424 27.0004 26.4401C28.6499 26.1025 30.8062 26.3592 31.9262 27.1727C32.4094 27.524 35.069 29.7446 34.504 30.9367C33.9981 32.0042 32.6238 32.3309 29.2049 30.9841C29.2049 30.9841 31.8926 33.0208 31.4493 33.6842C30.9852 34.3777 30.3121 33.7697 29.1858 33.0508C27.9532 32.2636 25.7669 31.8122 24.9675 33.9199L24.9666 33.9208Z" fill="white"/>
<path d="M18.0117 52.5934C17.8146 52.5934 17.6102 52.5752 17.4004 52.5324C16.3376 52.3194 15.4175 51.5641 14.6654 50.2864C13.4555 48.2324 17.0761 40.698 21.1699 32.8624C21.8448 31.5701 22.378 30.55 22.4842 30.2524C23.2327 28.1547 24.9049 26.6513 26.9577 26.2308C28.7535 25.8632 30.9434 26.1944 32.0516 26.9998C32.0852 27.0244 35.4069 29.5307 34.6966 31.0296C34.1417 32.2017 32.7347 32.3937 30.3076 31.6102C31.1378 32.3464 31.9762 33.2801 31.6256 33.8043C31.1079 34.5779 30.3685 34.0883 29.5119 33.5222C29.373 33.4303 29.2249 33.3329 29.0696 33.2328C28.4011 32.806 27.2993 32.4156 26.3928 32.7168C25.8314 32.9034 25.4199 33.332 25.1683 33.9909C25.1057 34.1929 23.6242 39.0481 22.824 44.543C22.1291 49.3153 21.7558 50.665 20.2697 51.7816C19.8338 52.1083 19.0172 52.5943 18.0117 52.5943V52.5934ZM28.5182 26.5075C28.0186 26.5075 27.5173 26.5539 27.0431 26.6504C25.1375 27.0399 23.5842 28.4405 22.8866 30.3962C22.7704 30.722 22.2844 31.653 21.5487 33.0608C19.2234 37.5119 13.778 47.9366 15.0342 50.0689C15.7218 51.2374 16.5465 51.9245 17.4848 52.1129C18.6048 52.3367 19.5504 51.7861 20.0145 51.4376C21.3125 50.4629 21.6922 49.3572 22.4025 44.4802C23.2209 38.8615 24.7478 33.9063 24.7632 33.8571C24.765 33.8526 24.7659 33.8489 24.7678 33.8444C25.0666 33.0554 25.5689 32.5385 26.2592 32.3091C27.3065 31.9615 28.5173 32.371 29.3003 32.8706C29.4583 32.9716 29.6082 33.0699 29.749 33.1637C30.7409 33.8198 31.0243 33.9354 31.2714 33.565C31.4448 33.3056 30.3975 32.1571 29.0759 31.1552C28.9906 31.0905 28.966 30.9732 29.0187 30.8794C29.0714 30.7857 29.184 30.7456 29.283 30.7848C33.1025 32.29 33.9818 31.5401 34.3115 30.8448C34.7557 29.9066 32.5957 27.9236 31.8018 27.3457C31.067 26.8115 29.8017 26.5066 28.5191 26.5066L28.5182 26.5075Z" fill="#263238"/>
<path d="M47.9773 41.1285L46.1979 45.6487C43.7944 47.0766 43.2803 48.4335 43.2803 48.4335C45.2986 51.9381 48.8138 53.1176 52.9512 51.8116L53.1084 51.7224C53.1084 51.7224 51.3426 50.0124 51.5688 47.8137L54.0113 39.2783L47.9773 41.1294V41.1285Z" fill="white"/>
<path d="M49.822 52.5397C46.9735 52.5397 44.6073 51.1627 43.0959 48.5391C43.0641 48.4835 43.0587 48.4162 43.0814 48.3561C43.1032 48.2988 43.64 46.9374 46.0261 45.5013L47.7783 41.0493C47.8019 40.9883 47.8519 40.9419 47.9145 40.9228L53.9485 39.0717C54.0239 39.049 54.1057 39.069 54.1611 39.1236C54.2174 39.1791 54.2383 39.2601 54.2165 39.3357L51.7785 47.8529C51.5769 49.9151 53.2391 51.5513 53.2555 51.5668C53.3036 51.6141 53.3272 51.6806 53.3191 51.7479C53.3109 51.8153 53.2709 51.8735 53.2128 51.9072L53.0556 51.9964C53.0429 52.0036 53.0284 52.01 53.0139 52.0146C51.8994 52.3658 50.8293 52.5397 49.8202 52.5397H49.822ZM43.5228 48.4207C45.4475 51.6733 48.7983 52.8454 52.7495 51.6487C52.2709 51.1009 51.1691 49.6193 51.3571 47.7901C51.358 47.7773 51.3607 47.7655 51.3644 47.7528L53.6987 39.5968L48.1398 41.3023L46.3986 45.7261C46.3813 45.7707 46.3495 45.8071 46.3086 45.8316C44.3566 46.991 43.6836 48.105 43.5228 48.4207Z" fill="#263238"/>
<path d="M46.6575 28.8464C48.4287 29.0393 46.6129 30.8076 53.2083 29.9139C55.9124 29.5471 54.1093 32.382 54.8124 32.301C57.4093 32.0025 58.1777 32.9799 58.68 33.505C59.2613 34.112 59.7219 35.4079 59.3876 36.4818C58.9471 37.8996 56.9497 38.0179 55.3737 40.9055C54.2674 42.9341 54.232 44.2728 53.3136 44.442C52.3853 44.6131 51.9339 43.3336 50.9057 43.4437C49.575 43.5866 49.4596 45.8226 48.0699 46.5251C47.1943 46.9683 45.3331 46.9301 42.6581 45.0317C42.2248 44.7241 42.0713 44.149 42.2957 43.6667C42.5827 43.0478 42.9497 42.2688 43.3621 41.5526C45.3295 38.1426 46.7655 37.5383 46.4522 36.5173C45.9717 34.9529 43.0932 35.3214 42.837 34.0601C42.5709 32.7496 44.2313 28.5816 46.6575 28.8455V28.8464Z" fill="#263238"/>
<path d="M51.3616 36.9214C51.051 37.3227 50.7694 37.745 50.5169 38.1845C50.0445 39.009 49.2225 40.4178 48.702 41.1722C48.0571 42.1069 45.2441 40.6544 44.3766 40.1739C44.2367 40.0966 44.1922 39.9173 44.2776 39.7817L44.7454 38.9581L44.0487 38.6514C43.9679 38.6013 43.897 38.5349 43.8516 38.4512C43.739 38.2428 43.7789 37.998 43.9315 37.8378C44.7227 37.0087 46.1097 35.6582 46.9862 33.8481C47.0752 33.6634 47.2642 33.5469 47.4685 33.5542C48.1725 33.5769 49.8147 33.7853 51.2226 35.1322C51.7186 35.6063 51.7822 36.3771 51.3625 36.9205L51.3616 36.9214Z" fill="white"/>
<path d="M47.9373 41.6909C46.8736 41.6909 45.2959 40.9274 44.2722 40.3613C44.1541 40.2958 44.0669 40.1839 44.0342 40.0528C44.0006 39.9218 44.0242 39.7807 44.0969 39.667L44.4411 39.06L43.9615 38.8488C43.9525 38.8452 43.9443 38.8406 43.9361 38.8352C43.8171 38.7615 43.7227 38.665 43.6627 38.5549C43.5083 38.2709 43.5537 37.9242 43.7753 37.6912L43.9988 37.4583C44.799 36.6283 46.008 35.3751 46.7919 33.7552C46.9181 33.4941 47.1843 33.3321 47.474 33.3403C48.1535 33.3621 49.8929 33.566 51.3689 34.9775C51.9475 35.5308 52.0166 36.4226 51.5297 37.0515C51.2263 37.4428 50.9484 37.8596 50.7013 38.2901C50.2471 39.0818 49.4069 40.5242 48.8774 41.2923C48.6821 41.5754 48.3478 41.6891 47.9373 41.6891V41.6909ZM44.1478 38.463L44.8299 38.7633C44.8853 38.7879 44.928 38.8343 44.9471 38.8916C44.9662 38.9489 44.9598 39.0117 44.9298 39.0645L44.4629 39.8881C44.4439 39.9182 44.4466 39.9373 44.4493 39.9473C44.452 39.9591 44.4602 39.9755 44.4793 39.9864C46.2015 40.9383 48.1217 41.6372 48.5259 41.0503C49.0472 40.2949 49.8802 38.8643 50.3307 38.078C50.5878 37.6303 50.8775 37.1971 51.1918 36.7903C51.5442 36.3353 51.4934 35.69 51.0737 35.2887C49.704 33.9791 48.0908 33.7907 47.4604 33.7698C47.345 33.7662 47.2297 33.8344 47.177 33.9436C46.3632 35.6245 45.126 36.9077 44.3067 37.7568L44.0851 37.9879C43.9924 38.0853 43.9734 38.2309 44.0388 38.351C44.0606 38.392 44.0987 38.4311 44.1487 38.463H44.1478Z" fill="#263238"/>
<path d="M51.19 40.325C52.865 41.3588 53.8532 39.7999 53.6734 38.7032C53.598 38.2418 53.0221 38.0698 52.6951 38.4029L51.1455 39.9828C51.0465 40.0838 51.0692 40.2503 51.19 40.325Z" fill="white"/>
<path d="M34.4952 72.0348L33.4379 74.7232C33.1863 75.4931 33.5842 76.3057 34.3054 76.4978L35.1392 76.7198C35.815 76.9 36.5235 76.465 36.7397 75.7379L37.9931 72.3033L34.4952 72.0339V72.0348Z" fill="white"/>
<path d="M35.4544 76.9755C35.3317 76.9755 35.2082 76.96 35.0847 76.9264L34.2508 76.7043C33.8639 76.6015 33.5423 76.3439 33.3452 75.9799C33.13 75.5822 33.09 75.0999 33.2353 74.6558L34.2972 71.9556C34.3317 71.8683 34.4198 71.8137 34.5124 71.821L38.0104 72.0903C38.0767 72.0958 38.1375 72.1313 38.1739 72.1877C38.2102 72.2441 38.2175 72.3142 38.1948 72.377L36.9413 75.8116C36.7333 76.5132 36.1183 76.9755 35.4553 76.9755H35.4544ZM34.636 72.2605L33.6359 74.8014C33.5314 75.1217 33.5605 75.4812 33.7204 75.7761C33.8612 76.0354 34.0882 76.2184 34.3598 76.2912L35.1937 76.5132C35.7614 76.6643 36.35 76.2975 36.5344 75.6778L37.6952 72.4962L34.636 72.2605Z" fill="#263238"/>
<path d="M33.2635 74.8741C33.2635 74.8741 32.1063 75.6113 31.6803 76.6278C31.2552 77.6434 30.4586 79.7966 31.1453 80.1698C31.6539 80.4464 37.4118 81.2782 40.263 81.6795C41.1614 81.806 41.819 80.8286 41.3448 80.0542C40.9851 79.4663 40.2122 78.7837 39.2748 78.1594C37.8678 77.2212 37.2474 76.5041 36.9749 76.0445C36.7878 75.7287 36.4045 75.5913 36.0639 75.725L34.1927 76.4622L33.2635 74.8751V74.8741Z" fill="white"/>
<path d="M40.4193 81.9053C40.3584 81.9053 40.2966 81.9007 40.234 81.8925C34.5333 81.0908 31.4405 80.5748 31.0435 80.3591C30.4177 80.0187 30.5658 78.7355 31.4832 76.546C31.9292 75.4803 33.0991 74.7258 33.1481 74.6949C33.1972 74.664 33.2571 74.6539 33.3134 74.6676C33.3698 74.6812 33.4179 74.7177 33.4479 74.7677L34.2844 76.1965L35.9848 75.5258C36.4217 75.3538 36.9158 75.5258 37.1584 75.9353C37.4073 76.3557 37.9977 77.051 39.3928 77.982C40.4093 78.6591 41.1668 79.3562 41.5265 79.9432C41.7872 80.3682 41.7781 80.8933 41.5029 81.3137C41.2576 81.6887 40.8534 81.9062 40.4174 81.9062L40.4193 81.9053ZM33.1972 75.1836C32.8665 75.4293 32.1744 76.0045 31.8783 76.7116C31.0263 78.7446 30.9482 79.8194 31.2479 79.9832C31.3724 80.0506 32.3924 80.3582 40.293 81.4684C40.6309 81.5158 40.9579 81.3665 41.1459 81.0789C41.3321 80.7941 41.3385 80.4537 41.1623 80.1671C40.8344 79.632 40.1222 78.9822 39.1558 78.3379C37.6925 77.3623 37.0621 76.6115 36.7905 76.1537C36.6552 75.9262 36.3827 75.8297 36.141 75.9244L34.2699 76.6615C34.1718 76.6998 34.0601 76.6615 34.0074 76.5705L33.1954 75.1836H33.1972Z" fill="#263238"/>
<path d="M36.0085 78.873C35.9276 78.873 35.8495 78.8266 35.8141 78.7474C35.765 78.64 35.8123 78.5126 35.9195 78.4635L37.4836 77.7464C37.5908 77.6972 37.7179 77.7445 37.767 77.8519C37.816 77.9593 37.7688 78.0867 37.6616 78.1359L36.0975 78.853C36.0684 78.8657 36.0385 78.8721 36.0085 78.8721V78.873Z" fill="#263238"/>
<path d="M26.0369 75.1564L24.7335 79.0714C24.5618 79.8632 25.0069 80.6276 25.7063 80.7405L26.5138 80.8715C27.1687 80.978 27.8009 80.4702 27.9426 79.7249L29.3405 75.6196L26.0369 75.1564Z" fill="white"/>
<path d="M26.69 81.1C26.62 81.1 26.5501 81.0945 26.4792 81.0827L25.6717 80.9516C25.3075 80.8925 24.9859 80.6823 24.7661 80.3592C24.51 79.9833 24.4219 79.4965 24.5245 79.0251C24.5263 79.0178 24.5281 79.0105 24.5309 79.0032L25.8343 75.0881C25.867 74.9899 25.9642 74.9298 26.0668 74.9435L29.3704 75.4067C29.434 75.4158 29.4894 75.4522 29.523 75.5068C29.5566 75.5614 29.5639 75.6278 29.543 75.6879L28.1496 79.7786C27.9952 80.5558 27.3776 81.0982 26.69 81.0982V81.1ZM24.9396 79.1279C24.866 79.481 24.9314 79.8423 25.1195 80.1189C25.2721 80.3437 25.4928 80.4893 25.7398 80.5294L26.5473 80.6604C27.0923 80.7487 27.611 80.3201 27.7327 79.6848C27.7345 79.6748 27.7373 79.6657 27.74 79.6557L29.0543 75.7962L26.1831 75.393L24.9396 79.1279Z" fill="#263238"/>
<path d="M22.0603 81.8208C21.8096 82.2222 21.8704 82.7445 22.2083 83.0749C23.3837 84.2252 26.0351 86.807 26.8353 87.4723C27.8735 88.3359 29.4876 88.8373 30.495 88.5343C31.5023 88.2322 30.5158 85.4492 29.9409 84.3053C29.0861 82.6062 28.7955 80.0972 28.2877 79.684C27.78 79.2699 25.7689 80.2537 25.7689 80.2537L24.5073 78.5137C24.5073 78.5137 23.3328 79.7878 22.0612 81.8208H22.0603Z" fill="white"/>
<path d="M29.84 88.8355C28.8399 88.8355 27.5874 88.3778 26.6981 87.6379C25.887 86.9635 23.1838 84.3298 22.0584 83.2286C21.6515 82.831 21.5761 82.1912 21.8786 81.707C23.1466 79.6803 24.3365 78.3817 24.3483 78.3689C24.3919 78.3216 24.4537 78.2961 24.5181 78.3007C24.5817 78.3043 24.6408 78.3371 24.6789 78.389L25.8361 79.9852C26.4674 79.6903 27.9026 79.0979 28.4212 79.5193C28.7146 79.7586 28.8963 80.382 29.1915 81.465C29.4367 82.3641 29.7147 83.3824 30.1307 84.2115C30.5022 84.9505 31.4668 87.2893 31.0326 88.2995C30.9363 88.5243 30.771 88.6772 30.5558 88.7418C30.3414 88.8064 30.0989 88.8364 29.84 88.8364V88.8355ZM22.241 81.9346C22.0448 82.2485 22.0938 82.6635 22.3572 82.922C23.4781 84.0195 26.1722 86.6432 26.9706 87.3075C27.9743 88.143 29.5275 88.6007 30.4322 88.3295C30.4913 88.3122 30.5776 88.2713 30.6393 88.1284C30.9345 87.4404 30.3123 85.5229 29.7483 84.4026C29.3123 83.5363 29.0289 82.4951 28.7782 81.5769C28.5693 80.8088 28.3522 80.0152 28.1514 79.8514C27.9107 79.6558 26.7726 80.0016 25.8615 80.4475C25.768 80.493 25.6563 80.4648 25.5945 80.3811L24.49 78.8567C24.1194 79.2872 23.2047 80.3966 22.241 81.9355V81.9346Z" fill="#263238"/>
<path d="M26.7862 83.1012C26.689 83.1012 26.6 83.0338 26.5782 82.9346C26.5519 82.8191 26.6245 82.7044 26.739 82.678L28.2259 82.3404C28.3422 82.314 28.4557 82.3868 28.4821 82.5024C28.5084 82.6179 28.4357 82.7326 28.3213 82.759L26.8344 83.0966C26.818 83.1003 26.8026 83.1021 26.7871 83.1021L26.7862 83.1012Z" fill="#263238"/>
<path d="M38.0984 74.3337C38.3251 74.4392 38.3251 74.4392 38.3252 74.4391L38.3254 74.4385L38.3264 74.4365L38.3301 74.4284L38.3448 74.3967L38.4018 74.2731C38.4517 74.1647 38.5248 74.0053 38.6176 73.8008C38.8033 73.3919 39.0681 72.8028 39.3849 72.0816C40.0183 70.6395 40.8598 68.6685 41.6918 66.5537C42.5234 64.4396 43.3469 62.1781 43.9433 60.156C44.5364 58.1448 44.9159 56.3353 44.8342 55.1417C44.743 53.8101 44.0625 52.4264 43.1256 51.115C42.1856 49.7992 40.9696 48.5315 39.7711 47.4285C38.5717 46.3247 37.384 45.3807 36.4967 44.7129C36.0529 44.3788 35.6837 44.1135 35.4252 43.9315C35.296 43.8405 35.1943 43.7704 35.1248 43.7228C35.0901 43.699 35.0634 43.6809 35.0453 43.6686L35.0381 43.6638L34.9661 43.5917L34.8424 43.6093L25.2433 44.9707L24.783 45.036L25.0912 45.384L25.2784 45.2183C25.0912 45.384 25.0913 45.3841 25.0913 45.3841L25.0916 45.3844L25.0926 45.3856L25.0967 45.3902L25.113 45.4086L25.1769 45.4808L25.4207 45.757C25.6316 45.996 25.9346 46.3401 26.303 46.7599C27.0399 47.5998 28.0384 48.7429 29.0853 49.9562C31.1844 52.3892 33.4614 55.0861 34.2255 56.1977C34.8052 57.0412 35.0398 58.4688 35.0356 60.1946C35.0314 61.9064 34.7933 63.8582 34.4756 65.7053C34.1581 67.5508 33.7625 69.284 33.446 70.5563C33.2879 71.1923 33.1496 71.7127 33.0509 72.0738C33.0016 72.2544 32.9622 72.3951 32.9351 72.4905L32.9042 72.599L32.8962 72.6265L32.8942 72.6333L32.8937 72.635L32.8936 72.6353L33.1336 72.7056L32.8936 72.6354L32.8666 72.7277L32.9084 72.8142C33.1412 73.297 33.612 73.6337 34.136 73.8724C34.6649 74.1133 35.2838 74.2707 35.8657 74.3746C36.4494 74.4788 37.0066 74.5309 37.4169 74.5571C37.6223 74.5702 37.7917 74.5769 37.9101 74.5802C37.9693 74.5819 38.0159 74.5828 38.0478 74.5832L38.0846 74.5836L38.0944 74.5837L38.097 74.5837L38.0978 74.5837H38.098C38.0981 74.5837 38.0982 74.5837 38.0984 74.3337ZM38.0984 74.3337L38.3251 74.4392L38.2577 74.5839L38.0982 74.5837L38.0984 74.3337Z" fill="#263238" stroke="white" stroke-width="0.5"/>
<path d="M20.9139 44.0364L20.9028 44.2833C20.6724 44.2289 20.6724 44.229 20.6724 44.2292L20.6723 44.2296L20.672 44.2308L20.6711 44.2346L20.6681 44.2483C20.6655 44.26 20.6618 44.2768 20.6574 44.2986C20.6484 44.342 20.6362 44.4051 20.6225 44.4855C20.595 44.6463 20.5614 44.877 20.5361 45.1602C20.4856 45.7257 20.4679 46.5051 20.6005 47.3576C20.8664 49.0665 21.7417 51.0836 24.1706 52.2324L24.1706 52.2324C24.7581 52.5102 25.2345 52.711 25.6203 52.8732L25.6284 52.8766C26.0142 53.0388 26.297 53.1577 26.5172 53.277C26.7345 53.3947 26.8735 53.504 26.976 53.6376C27.0791 53.772 27.1591 53.9492 27.2287 54.2244C27.5003 55.2997 27.5383 56.8721 27.4208 58.6995C27.3037 60.5206 27.034 62.5715 26.7033 64.5919C26.0419 68.6323 25.1393 72.5343 24.7375 74.2005L24.7374 74.2007C24.5719 74.8891 24.8126 75.6248 25.3805 76.0609L25.3807 76.061C26.1651 76.6623 27.5131 77.2863 29.3587 76.7167C29.9064 76.548 30.3352 76.1237 30.526 75.589L30.526 75.5889C31.1221 73.9171 32.7228 69.3983 34.207 64.9413C34.9491 62.713 35.6626 60.4983 36.2071 58.6618C36.7485 56.8357 37.131 55.3569 37.1984 54.6163C37.3768 52.6586 36.2667 50.9601 34.8782 49.5802C33.6477 48.3574 32.1584 47.3458 31.0458 46.5901C30.8999 46.4911 30.7605 46.3964 30.6291 46.3062C30.0221 45.8899 29.1049 45.5461 28.0949 45.2624C27.0786 44.9769 25.944 44.746 24.8856 44.5649C23.8265 44.3838 22.8398 44.252 22.1181 44.1655C21.7571 44.1222 21.4621 44.0902 21.2572 44.069C21.2461 44.0679 21.2353 44.0668 21.2248 44.0657L21.2317 44.0364H20.9158H20.9139Z" fill="#263238" stroke="white" stroke-width="0.5"/>
<path d="M34.2889 65.0776C34.2662 65.0776 34.2435 65.0739 34.2217 65.0666C34.11 65.0293 34.0491 64.9083 34.0864 64.7955C35.6142 60.2042 36.8095 55.9151 36.9294 54.5974C37.2237 51.363 33.2634 48.6611 31.3596 47.3633C31.2624 47.2969 31.237 47.1631 31.3033 47.0657C31.3696 46.9684 31.5031 46.9429 31.6003 47.0093C33.723 48.4563 37.6733 51.151 37.3554 54.6365C37.231 56.0043 36.0538 60.2379 34.4915 64.931C34.4615 65.0211 34.3779 65.0776 34.2889 65.0776Z" fill="white"/>
<path d="M21.1482 26.4556C20.4333 26.3564 18.5059 25.9496 16.4803 23.5989C13.6881 25.6011 10.1293 25.0705 8.21003 22.748C5.86474 19.9096 6.18538 14.6558 9.60067 11.9584C6.89478 11.9356 6.16721 10.8927 5.95194 10.4823C4.68574 8.06063 8.032 2.39644 11.1548 2.38734C12.3075 2.3837 13.8371 3.81157 16.8482 6.66551C19.9583 9.61318 20.0909 10.1847 21.0319 10.2875C23.7996 10.5879 24.6352 5.92109 28.2976 5.34047C31.2623 4.86997 34.1944 7.22702 34.1944 10.8017C34.1944 12.2396 32.4223 11.9411 31.3941 14.7914C30.0734 18.4526 25.5263 27.0644 21.1482 26.4565V26.4556Z" fill="#263238"/>
<path d="M37.7887 22.2539C40.3392 22.4086 42.8953 22.0728 45.3196 21.2647C45.3196 21.2647 47.2398 20.5712 47.0118 19.7667L45.5812 9.86532C45.4268 8.7596 45.7447 7.63751 46.4659 6.78751C47.257 5.8547 48.3879 4.80723 49.5705 4.65252C51.7641 4.36403 48.7921 8.36828 48.753 9.49129C48.714 10.6143 53.4109 18.8822 52.1674 22.2321C50.3281 27.1855 37.1192 29.4889 37.1192 29.4889L37.7887 22.2548V22.2539Z" fill="white"/>
<path d="M37.1192 29.7027C37.0656 29.7027 37.0139 29.6827 36.9739 29.6463C36.9249 29.6008 36.9003 29.5353 36.9058 29.4688L37.5752 22.2348C37.5861 22.1192 37.6878 22.0337 37.8014 22.0409C40.3347 22.1947 42.8426 21.8653 45.2514 21.0626C45.8119 20.8597 46.9364 20.2882 46.8056 19.8259C46.8029 19.8168 46.801 19.8077 46.7992 19.7977L45.3686 9.89624C45.2051 8.72409 45.5448 7.54101 46.3024 6.64825C47.079 5.73273 48.2716 4.60608 49.5424 4.43954C49.9738 4.38312 50.2799 4.47412 50.4507 4.71165C50.8676 5.29226 50.2799 6.49809 49.6577 7.7749C49.3235 8.46108 48.9783 9.17093 48.9665 9.49855C48.9565 9.79431 49.4325 10.911 49.9357 12.094C51.26 15.2028 53.261 19.9005 52.3672 22.3058C50.5061 27.3174 37.6997 29.6035 37.1556 29.6991C37.1438 29.7009 37.131 29.7018 37.1192 29.7018V29.7027ZM37.9821 22.4796L37.3581 29.2258C39.2565 28.86 50.3362 26.5494 51.9667 22.1574C52.8005 19.9114 50.7613 15.1236 49.5424 12.2624C48.8738 10.6934 48.5259 9.85711 48.5387 9.48398C48.5532 9.06536 48.8866 8.381 49.2726 7.58743C49.7358 6.63642 50.3698 5.33413 50.1028 4.96191C50.0138 4.83815 49.7785 4.84088 49.5969 4.86454C48.4615 5.01379 47.3551 6.06763 46.6276 6.92582C45.9499 7.72485 45.6447 8.78597 45.7919 9.83527L47.2207 19.723C47.4723 20.684 45.6057 21.3884 45.3913 21.4667C42.9906 22.2666 40.5009 22.607 37.9821 22.4796Z" fill="#263238"/>
<path d="M21.8276 26.3992L18.6821 22.9073C14.6455 26.5248 12.57 27.049 12.57 27.049C12.0659 27.2629 11.4818 27.0681 11.2066 26.5931C10.0812 24.6456 7.28629 19.8741 6.31893 18.813C5.09542 17.4716 1.35131 16.0947 0.518379 17.2841C-0.726931 19.0633 2.15699 19.4546 3.71568 20.9307C4.47322 21.6487 7.7568 34.2694 13.5001 34.2812C17.0181 34.2885 21.8276 26.4001 21.8276 26.4001V26.3992Z" fill="white"/>
<path d="M13.5056 34.495H13.5001C8.89675 34.4859 5.86295 26.7314 4.40509 23.0047C4.04449 22.0837 3.70478 21.2137 3.56944 21.0863C3.07349 20.6167 2.4413 20.2627 1.82909 19.9205C0.945293 19.4254 0.182302 18.9986 0.0278876 18.3224C-0.0538614 17.9621 0.048779 17.5816 0.343984 17.1612C0.569248 16.839 0.961643 16.6579 1.51027 16.6234C2.96268 16.5296 5.46783 17.5625 6.47698 18.6692C7.45524 19.7421 10.2402 24.4935 11.3919 26.4866C11.6117 26.867 12.0822 27.0244 12.4864 26.8524C12.4964 26.8478 12.5073 26.8442 12.5173 26.8424C12.5373 26.8369 14.6065 26.2736 18.5395 22.749C18.6267 22.6707 18.762 22.678 18.8411 22.7653L21.9866 26.2572C22.0502 26.3273 22.0593 26.431 22.0102 26.512C21.8113 26.8378 17.1016 34.496 13.5047 34.496L13.5056 34.495ZM1.70556 17.0447C1.64834 17.0447 1.59202 17.0465 1.53843 17.0502C1.12514 17.0766 0.841745 17.1967 0.694596 17.4069C0.472966 17.7227 0.392125 17.9912 0.445716 18.2269C0.55744 18.7174 1.27683 19.1206 2.03891 19.5465C2.64386 19.885 3.32964 20.269 3.86464 20.775C4.06084 20.9607 4.29428 21.5449 4.80476 22.8481C6.2281 26.4866 9.19105 34.0582 13.5029 34.0664H13.5074C16.6184 34.0664 20.9102 27.4576 21.5633 26.4228L18.6685 23.2085C14.8835 26.5685 12.8589 27.1918 12.6418 27.2519C12.0423 27.4976 11.3501 27.2619 11.025 26.6995C9.87956 24.7183 7.11462 19.9988 6.16452 18.9567C5.27981 17.9857 3.05714 17.0447 1.70828 17.0447H1.70556Z" fill="#263238"/>
<path d="M40.6298 21.8572L38.8086 27.9809C38.2627 29.6745 37.9066 31.4246 37.7468 33.1965L36.7504 44.2409C36.7504 44.2409 30.8145 48.1232 19.6839 44.6541L19.2443 34.1548C19.1525 31.9679 18.7628 29.8047 18.0861 27.7234L16.7155 23.508C16.7155 23.508 19.6058 21.4677 22.5687 20.6996C26.7088 19.6266 37.2481 19.5438 40.628 21.8562L40.6298 21.8572Z" fill="#E8F2F8"/>
<path d="M28.4447 46.2985C26.0013 46.2985 23.0511 45.9281 19.6204 44.8588C19.5341 44.8315 19.4741 44.7532 19.4705 44.6632L19.0309 34.1638C18.94 31.997 18.554 29.852 17.8837 27.7898L16.513 23.5744C16.4839 23.4852 16.5166 23.3869 16.5929 23.3332C16.7119 23.2486 19.5495 21.261 22.5161 20.4921C26.5073 19.4573 37.1919 19.2453 40.7498 21.6797C40.8261 21.7325 40.8606 21.828 40.8343 21.9181L39.0131 28.0419C38.4717 29.7228 38.1175 31.4619 37.9594 33.2155L36.963 44.26C36.9566 44.3255 36.9212 44.3847 36.8667 44.4202C36.8249 44.4475 33.9056 46.2976 28.4438 46.2976L28.4447 46.2985ZM19.8911 44.4948C29.9816 47.5944 35.7813 44.5567 36.547 44.1144L37.5334 33.1782C37.6942 31.3927 38.0548 29.6217 38.6052 27.9154L40.3792 21.9491C36.9021 19.7504 26.5536 19.8896 22.6233 20.9079C20.0818 21.5668 17.5612 23.1967 16.969 23.5953L18.2906 27.6587C18.9737 29.7582 19.3661 31.9415 19.4587 34.1474L19.892 44.4957L19.8911 44.4948Z" fill="#263238"/>
<path d="M31.9318 15.2483L31.2533 20.8979L33.0953 21.4667C33.7275 21.6623 33.7639 22.5496 33.1462 22.789C31.4158 23.4579 28.4511 24.0876 25.0167 22.6397C24.4245 22.3895 24.3872 21.5631 24.9577 21.2665L26.3556 20.5412L28.0569 13.9851L31.9318 15.2492V15.2483Z" fill="white"/>
<path d="M29.2668 23.7355C27.957 23.7355 26.4928 23.4934 24.9341 22.8355C24.5817 22.6871 24.3528 22.3568 24.3373 21.9745C24.3219 21.595 24.5226 21.2501 24.8596 21.0754L26.173 20.3938L27.8507 13.9306C27.8652 13.8732 27.9034 13.825 27.9552 13.7968C28.0069 13.7686 28.0678 13.7631 28.1241 13.7813L31.999 15.0454C32.0962 15.0772 32.1571 15.1728 32.1453 15.2747L31.4885 20.746L33.1599 21.262C33.5377 21.3785 33.7911 21.7106 33.8048 22.1074C33.8184 22.5015 33.5904 22.8473 33.2243 22.9883C32.1943 23.3869 30.8418 23.7355 29.2686 23.7355H29.2668ZM28.2068 14.2582L26.5627 20.594C26.5473 20.6531 26.5082 20.7023 26.4537 20.7305L25.0558 21.4558C24.8651 21.555 24.7561 21.7425 24.7642 21.9582C24.7733 22.1757 24.8978 22.3568 25.0994 22.4414C28.4002 23.8338 31.2551 23.2896 33.069 22.5888C33.3043 22.4978 33.3815 22.2885 33.376 22.122C33.3706 21.9536 33.277 21.747 33.0327 21.6715L31.1906 21.1027C31.0916 21.0718 31.0289 20.9753 31.0416 20.8725L31.6993 15.3976L28.2077 14.2582H28.2068Z" fill="#263238"/>
<path d="M26.8052 14.7505C26.8052 14.7505 25.0739 14.5876 24.9431 13.1788C24.7433 11.0329 26.4737 11.5098 26.4737 11.5098C26.4737 11.5098 26.3438 9.646 28.7663 9.90627C30.2841 10.0692 31.5657 10.2539 32.3859 10.3822C32.9718 10.4741 33.4305 10.9392 33.5122 11.5271C33.673 12.6847 33.8665 14.6468 33.6149 16.2166C33.3842 17.6554 32.781 18.7648 31.4385 18.6255C27.7635 18.2451 26.8052 14.7505 26.8052 14.7505Z" fill="white"/>
<path d="M31.6566 18.8512C31.5758 18.8512 31.495 18.8466 31.4168 18.8384C28.066 18.4917 26.8761 15.615 26.6436 14.9452C25.9578 14.8369 24.8388 14.3673 24.7298 13.1979C24.658 12.4234 24.8161 11.8665 25.2012 11.5434C25.5509 11.2495 25.9951 11.2322 26.2703 11.2586C26.3021 10.9828 26.412 10.5433 26.7762 10.192C27.2186 9.76517 27.8962 9.59681 28.7891 9.69236C30.316 9.85617 31.6058 10.0427 32.4187 10.1701C33.1036 10.2775 33.6277 10.8108 33.724 11.497C33.8738 12.5736 34.0864 14.623 33.8257 16.2502C33.4887 18.3561 32.5059 18.8512 31.6557 18.8512H31.6566ZM26.0886 11.6781C25.8979 11.6781 25.659 11.7172 25.4746 11.8729C25.2048 12.1004 25.0976 12.5336 25.1558 13.1579C25.2693 14.3755 26.8098 14.5348 26.8253 14.5366C26.9134 14.5448 26.9879 14.6076 27.0115 14.6931C27.0496 14.8305 27.9797 18.0521 31.4604 18.4125C32.5105 18.5208 33.1454 17.7919 33.4033 16.1829C33.6549 14.6112 33.4469 12.61 33.2998 11.5571C33.2308 11.0593 32.8493 10.6716 32.3524 10.5942C31.544 10.4677 30.2615 10.2821 28.7427 10.1192C27.9843 10.0382 27.4229 10.1647 27.0751 10.4978C26.6545 10.9009 26.6854 11.4906 26.6854 11.4961C26.6899 11.5653 26.66 11.6326 26.6064 11.6763C26.5528 11.72 26.4819 11.7354 26.4147 11.7172C26.412 11.7172 26.2712 11.6799 26.0859 11.6799L26.0886 11.6781Z" fill="#263238"/>
<path d="M50.5152 65.9776C50.5152 65.9776 49.5733 61.5984 47.5132 60.0577C45.7038 58.7054 46.0762 60.9878 46.8683 62.2473C47.0173 62.4839 47.1235 62.7023 47.198 62.9007C47.3915 63.4167 46.7811 63.8581 46.3533 63.5114C44.6302 62.1144 40.9724 59.2459 40.4982 59.6564C40.0186 60.0723 40.4528 61.2972 41.7208 62.6031C42.0179 62.9089 42.1659 63.3348 42.1178 63.7589C42.0224 64.6052 42.0433 66.0677 43.1006 66.9705C44.4831 68.1499 48.0301 69.3876 48.0301 69.3876C48.0301 69.3876 51.8214 74.787 60.5595 79.8259C65.2936 82.5561 66.5135 78.8549 67.3037 75.181C68.4364 69.9172 61.0727 71.4926 61.0727 71.4926C61.0727 71.4926 56.8726 71.9931 50.5134 65.9776H50.5152Z" fill="white"/>
<path d="M63.4152 80.9862C62.5632 80.9862 61.584 80.6632 60.4541 80.0116C52.2528 75.282 48.3352 70.1611 47.8983 69.5678C47.3978 69.3894 44.2741 68.2527 42.9634 67.1343C41.8198 66.1587 41.8107 64.5861 41.907 63.7352C41.9479 63.3739 41.8244 63.0163 41.5691 62.7523C40.6172 61.7722 40.0668 60.7775 40.0967 60.0913C40.1076 59.8402 40.1985 59.6336 40.3602 59.4934C40.5591 59.3205 41.0251 58.9174 46.4895 63.3439C46.6321 63.4595 46.7874 63.4249 46.8846 63.3548C46.9827 63.2838 47.0636 63.1473 46.9991 62.9744C46.9246 62.776 46.8202 62.5694 46.6894 62.3601C46.1689 61.532 45.7065 60.064 46.2325 59.5762C46.5277 59.3023 47.0027 59.4061 47.6422 59.8848C49.6278 61.3691 50.5797 65.2869 50.7105 65.8656C56.898 71.6973 61.0091 71.2832 61.0499 71.2787C61.1989 71.2459 65.1637 70.4214 66.8768 72.1414C67.5871 72.8549 67.8024 73.8923 67.5154 75.2247C67.0294 77.4834 66.3636 79.9588 64.6106 80.7387C64.2427 80.9025 63.8448 80.9844 63.4161 80.9844L63.4152 80.9862ZM40.6263 59.8302C40.5636 59.892 40.5291 59.9867 40.5237 60.1105C40.5055 60.5309 40.8488 61.3964 41.8752 62.4538C42.2204 62.8097 42.3866 63.2947 42.3312 63.7834C42.2449 64.5488 42.2477 65.9603 43.2405 66.8076C44.5766 67.9479 48.0664 69.1728 48.1018 69.1855C48.1445 69.2001 48.1808 69.2283 48.2063 69.2647C48.2435 69.3184 52.0775 74.6868 60.6675 79.6403C62.2389 80.5467 63.4715 80.7778 64.4362 80.3492C65.9313 79.6839 66.598 77.4507 67.0966 75.1364C67.351 73.9551 67.1747 73.0496 66.5743 72.4463C65.0257 70.891 61.158 71.6946 61.1199 71.7027C60.9255 71.7264 56.7272 72.1496 50.3699 66.1341C50.3381 66.1041 50.3163 66.0659 50.3072 66.0231C50.2981 65.9803 49.358 61.704 47.3869 60.2306C46.8846 59.8556 46.6076 59.8147 46.5231 59.8929C46.2851 60.1132 46.5022 61.2617 47.0509 62.1344C47.1971 62.3674 47.3152 62.6004 47.3997 62.8261C47.5214 63.1491 47.4142 63.5022 47.1353 63.7043C46.8556 63.9063 46.4886 63.8963 46.2207 63.6788C42.6128 60.7548 40.9597 59.7801 40.6272 59.8302H40.6263Z" fill="#263238"/>
<path d="M72.6992 127.132H24.192V166.775H72.6992V127.132Z" fill="white"/>
<path d="M72.6992 166.99H24.192C24.0739 166.99 23.9785 166.895 23.9785 166.776V127.133C23.9785 127.015 24.0739 126.92 24.192 126.92H72.6992C72.8172 126.92 72.9126 127.015 72.9126 127.133V166.776C72.9126 166.895 72.8172 166.99 72.6992 166.99ZM24.4064 166.562H72.4857V127.347H24.4064V166.562Z" fill="#263238"/>
<path d="M65.9077 135.607H30.9845V166.775H65.9077V135.607Z" fill="white"/>
<path d="M65.9076 166.99H30.9844C30.8664 166.99 30.771 166.895 30.771 166.776V135.608C30.771 135.489 30.8664 135.394 30.9844 135.394H65.9076C66.0257 135.394 66.1211 135.489 66.1211 135.608V166.776C66.1211 166.895 66.0257 166.99 65.9076 166.99ZM31.1979 166.562H65.6933V135.821H31.1979V166.562Z" fill="#263238"/>
<path d="M62.6331 139.781H34.258C34.14 139.781 34.0446 139.686 34.0446 139.567C34.0446 139.449 34.14 139.354 34.258 139.354H62.6331C62.7512 139.354 62.8466 139.449 62.8466 139.567C62.8466 139.686 62.7512 139.781 62.6331 139.781Z" fill="#263238"/>
<path d="M62.6331 144.216H34.258C34.1399 144.216 34.0445 144.12 34.0445 144.002C34.0445 143.884 34.1399 143.788 34.258 143.788H62.6331C62.7512 143.788 62.8465 143.884 62.8465 144.002C62.8465 144.12 62.7512 144.216 62.6331 144.216Z" fill="#263238"/>
<path d="M62.6331 148.65H34.258C34.1399 148.65 34.0445 148.554 34.0445 148.436C34.0445 148.318 34.1399 148.222 34.258 148.222H62.6331C62.7512 148.222 62.8465 148.318 62.8465 148.436C62.8465 148.554 62.7512 148.65 62.6331 148.65Z" fill="#263238"/>
<path d="M62.6331 153.085H34.258C34.1399 153.085 34.0445 152.989 34.0445 152.871C34.0445 152.752 34.1399 152.657 34.258 152.657H62.6331C62.7512 152.657 62.8465 152.752 62.8465 152.871C62.8465 152.989 62.7512 153.085 62.6331 153.085Z" fill="#263238"/>
<path d="M62.6331 157.519H34.258C34.1399 157.519 34.0445 157.424 34.0445 157.305C34.0445 157.187 34.1399 157.092 34.258 157.092H62.6331C62.7512 157.092 62.8465 157.187 62.8465 157.305C62.8465 157.424 62.7512 157.519 62.6331 157.519Z" fill="#263238"/>
<path d="M62.6331 161.953H34.258C34.1399 161.953 34.0445 161.857 34.0445 161.739C34.0445 161.621 34.1399 161.525 34.258 161.525H62.6331C62.7512 161.525 62.8465 161.621 62.8465 161.739C62.8465 161.857 62.7512 161.953 62.6331 161.953Z" fill="#263238"/>
<path d="M167.529 94.344H103.94V166.775H167.529V94.344Z" fill="white"/>
<path d="M167.529 166.99H103.94C103.822 166.99 103.727 166.895 103.727 166.776V94.345C103.727 94.2267 103.822 94.1311 103.94 94.1311H167.529C167.647 94.1311 167.742 94.2267 167.742 94.345V166.776C167.742 166.895 167.647 166.99 167.529 166.99ZM104.154 166.562H167.315V94.5588H104.154V166.562Z" fill="#263238"/>
<path d="M163.237 79.5675H75.7112L66.1611 96.2825H172.787L163.237 79.5675Z" fill="#263238"/>
<path d="M172.787 96.4964H66.1611C66.0848 96.4964 66.0148 96.4554 65.9758 96.3899C65.9376 96.3235 65.9376 96.2425 65.9758 96.176L75.5259 79.461C75.564 79.3946 75.6349 79.3536 75.7112 79.3536H163.237C163.313 79.3536 163.384 79.3946 163.422 79.461L172.973 96.176C173.011 96.2425 173.01 96.3235 172.973 96.3899C172.934 96.4563 172.864 96.4964 172.787 96.4964ZM66.5298 96.0677H172.418L163.113 79.7814H75.8347L66.5289 96.0677H66.5298Z" fill="white"/>
<path d="M115.439 113.684H27.9133L18.3632 130.399H124.989L115.439 113.684Z" fill="#263238"/>
<path d="M124.989 130.613H18.3633C18.287 130.613 18.217 130.572 18.178 130.506C18.1398 130.44 18.1398 130.359 18.178 130.292L27.7281 113.577C27.7662 113.511 27.8371 113.47 27.9134 113.47H115.439C115.516 113.47 115.586 113.511 115.625 113.577L125.175 130.292C125.213 130.359 125.212 130.44 125.175 130.506C125.137 130.573 125.066 130.613 124.989 130.613ZM18.732 130.184H124.621L115.315 113.898H28.0378L18.732 130.184Z" fill="white"/>
<path d="M123.199 95.6409H71.6991V166.775H123.199V95.6409Z" fill="white"/>
<path d="M123.199 166.99H71.6991C71.5811 166.99 71.4857 166.895 71.4857 166.776V95.6418C71.4857 95.5235 71.5811 95.428 71.6991 95.428H123.199C123.317 95.428 123.413 95.5235 123.413 95.6418V166.776C123.413 166.895 123.317 166.99 123.199 166.99ZM71.9135 166.562H122.986V95.8557H71.9135V166.562Z" fill="#263238"/>
<path d="M123.026 98.807H71.8735L97.4492 75.2192L123.026 98.807Z" fill="white"/>
<path d="M97.4492 75.2192L122.302 98.1389H126.343L97.4492 71.4916L68.5564 98.1389H72.5975L97.4492 75.2192Z" fill="#263238"/>
<path d="M126.343 98.3528H122.302C122.248 98.3528 122.196 98.3328 122.157 98.2964L97.4501 75.5095L72.7428 98.2964C72.7038 98.3328 72.652 98.3528 72.5984 98.3528H68.5573C68.4692 98.3528 68.3901 98.2991 68.3583 98.2163C68.3266 98.1344 68.3484 98.0407 68.4128 97.9806L97.3057 71.3333C97.3874 71.2577 97.5137 71.2577 97.5954 71.3333L126.488 97.9806C126.553 98.0407 126.575 98.1335 126.543 98.2163C126.511 98.2982 126.432 98.3528 126.344 98.3528H126.343ZM122.385 97.9242H125.795L97.4501 71.7828L69.105 97.9242H72.5148L97.3057 75.0609C97.3874 74.9853 97.5137 74.9853 97.5954 75.0609L122.386 97.9242H122.385Z" fill="white"/>
<path d="M111.312 104.14H83.5874C83.4693 104.14 83.3739 104.044 83.3739 103.926V101.422C83.3739 94.4923 89.0019 88.8536 95.9187 88.8536H98.9816C105.898 88.8536 111.526 94.4923 111.526 101.422V103.926C111.526 104.044 111.431 104.14 111.313 104.14H111.312ZM83.8017 103.711H111.099V101.422C111.099 94.7281 105.663 89.2823 98.9816 89.2823H95.9187C89.2371 89.2823 83.8017 94.7281 83.8017 101.422V103.711Z" fill="#263238"/>
<path d="M97.4491 102.363C97.3311 102.363 97.2357 102.268 97.2357 102.15V91.6521C97.2357 91.5338 97.3311 91.4382 97.4491 91.4382C97.5672 91.4382 97.6626 91.5338 97.6626 91.6521V102.15C97.6626 102.268 97.5672 102.363 97.4491 102.363Z" fill="#263238"/>
<path d="M86.642 101.188C86.5875 101.188 86.533 101.167 86.4912 101.125C86.4077 101.041 86.4077 100.906 86.4912 100.822L94.687 92.6104C94.7706 92.5267 94.9059 92.5267 94.9895 92.6104C95.0731 92.6941 95.0731 92.8297 94.9895 92.9134L86.7937 101.125C86.7519 101.167 86.6974 101.188 86.6429 101.188H86.642Z" fill="#263238"/>
<path d="M100.326 99.7597C100.271 99.7597 100.217 99.7388 100.175 99.6969C100.092 99.6132 100.092 99.4776 100.175 99.3939L105.591 93.9672C105.675 93.8835 105.81 93.8835 105.894 93.9672C105.978 94.0509 105.978 94.1865 105.894 94.2703L100.478 99.6969C100.436 99.7388 100.381 99.7597 100.327 99.7597H100.326Z" fill="#263238"/>
<path d="M126.343 160.639H68.5563V168.714H126.343V160.639Z" fill="white"/>
<path d="M126.343 168.928H68.5563C68.4382 168.928 68.3428 168.832 68.3428 168.714V160.639C68.3428 160.521 68.4382 160.425 68.5563 160.425H126.343C126.461 160.425 126.556 160.521 126.556 160.639V168.714C126.556 168.832 126.461 168.928 126.343 168.928ZM68.7707 168.499H126.129V160.853H68.7707V168.499Z" fill="#263238"/>
<path d="M79.1647 132.547H74.6513V160.638H79.1647V132.547Z" fill="white"/>
<path d="M79.1647 160.853H74.6513C74.5332 160.853 74.4378 160.757 74.4378 160.639V132.548C74.4378 132.43 74.5332 132.334 74.6513 132.334H79.1647C79.2828 132.334 79.3782 132.43 79.3782 132.548V160.639C79.3782 160.757 79.2828 160.853 79.1647 160.853ZM74.8656 160.424H78.9513V132.761H74.8656V160.424Z" fill="#263238"/>
<path d="M120.248 132.547H115.735V160.638H120.248V132.547Z" fill="white"/>
<path d="M120.248 160.853H115.735C115.617 160.853 115.521 160.757 115.521 160.639V132.548C115.521 132.43 115.617 132.334 115.735 132.334H120.248C120.366 132.334 120.462 132.43 120.462 132.548V160.639C120.462 160.757 120.366 160.853 120.248 160.853ZM115.949 160.424H120.035V132.761H115.949V160.424Z" fill="#263238"/>
<path d="M96.1267 135.607H84.3603V160.639H96.1267V135.607Z" fill="white"/>
<path d="M96.1275 160.853H84.3611C84.243 160.853 84.1476 160.757 84.1476 160.639V135.607C84.1476 135.489 84.243 135.393 84.3611 135.393H96.1275C96.2456 135.393 96.341 135.489 96.341 135.607V160.639C96.341 160.757 96.2456 160.853 96.1275 160.853ZM84.5746 160.424H95.914V135.821H84.5746V160.424Z" fill="#263238"/>
<path d="M110.538 135.607H98.7718V160.639H110.538V135.607Z" fill="white"/>
<path d="M110.538 160.853H98.7717C98.6536 160.853 98.5582 160.757 98.5582 160.639V135.607C98.5582 135.489 98.6536 135.393 98.7717 135.393H110.538C110.656 135.393 110.752 135.489 110.752 135.607V160.639C110.752 160.757 110.656 160.853 110.538 160.853ZM98.9851 160.424H110.325V135.821H98.9851V160.424Z" fill="#263238"/>
<path d="M120.248 163.493H74.6521C74.534 163.493 74.4387 163.397 74.4387 163.279C74.4387 163.161 74.534 163.065 74.6521 163.065H120.248C120.366 163.065 120.462 163.161 120.462 163.279C120.462 163.397 120.366 163.493 120.248 163.493Z" fill="#263238"/>
<path d="M120.248 166.262H74.6521C74.534 166.262 74.4387 166.167 74.4387 166.048C74.4387 165.93 74.534 165.834 74.6521 165.834H120.248C120.366 165.834 120.462 165.93 120.462 166.048C120.462 166.167 120.366 166.262 120.248 166.262Z" fill="#263238"/>
<path d="M125.803 121.718H69.0959L62.9075 132.547H131.991L125.803 121.718Z" fill="#263238"/>
<path d="M131.991 132.762H62.9075C62.8312 132.762 62.7612 132.721 62.7222 132.656C62.684 132.589 62.684 132.508 62.7222 132.442L68.9097 121.612C68.9478 121.546 69.0187 121.505 69.095 121.505H125.802C125.879 121.505 125.95 121.546 125.988 121.612L132.175 132.442C132.213 132.508 132.213 132.589 132.175 132.656C132.137 132.722 132.066 132.762 131.99 132.762H131.991ZM63.2763 132.333H131.622L125.679 121.932H69.2194L63.2763 132.333Z" fill="white"/>
<path d="M111.29 117.848H83.5782C83.4601 117.848 83.3648 117.753 83.3648 117.634V106.209C83.3648 106.091 83.4601 105.995 83.5782 105.995H111.29C111.408 105.995 111.504 106.091 111.504 106.209V117.634C111.504 117.753 111.408 117.848 111.29 117.848ZM83.7926 117.419H111.077V106.423H83.7926V117.419Z" fill="#263238"/>
<path d="M89.0655 114.823C89.011 114.823 88.9565 114.802 88.9147 114.76C88.8311 114.677 88.8311 114.541 88.9147 114.457L95.2802 108.08C95.3638 107.997 95.4991 107.997 95.5827 108.08C95.6663 108.164 95.6663 108.3 95.5827 108.384L89.2172 114.76C89.1754 114.802 89.1209 114.823 89.0664 114.823H89.0655Z" fill="#263238"/>
<path d="M100.419 115.8C100.365 115.8 100.31 115.78 100.269 115.738C100.185 115.654 100.185 115.518 100.269 115.435L102.883 112.815C102.966 112.732 103.102 112.732 103.185 112.815C103.269 112.899 103.269 113.035 103.185 113.119L100.571 115.738C100.529 115.78 100.475 115.8 100.42 115.8H100.419Z" fill="#263238"/>
<path d="M158.886 125H131.967C131.849 125 131.754 124.905 131.754 124.786V102.015C131.754 101.897 131.849 101.801 131.967 101.801H158.886C159.004 101.801 159.1 101.897 159.1 102.015V124.786C159.1 124.905 159.004 125 158.886 125ZM132.182 124.572H158.673V102.229H132.182V124.572Z" fill="#263238"/>
<path d="M145.428 122.256C145.31 122.256 145.214 122.16 145.214 122.042V104.277C145.214 104.159 145.31 104.063 145.428 104.063C145.546 104.063 145.641 104.159 145.641 104.277V122.042C145.641 122.16 145.546 122.256 145.428 122.256Z" fill="#263238"/>
<path d="M133.395 122.443C133.341 122.443 133.286 122.422 133.244 122.38C133.161 122.296 133.161 122.161 133.244 122.077L143.935 111.366C144.019 111.282 144.154 111.282 144.238 111.366C144.321 111.449 144.321 111.585 144.238 111.669L133.547 122.38C133.505 122.422 133.451 122.443 133.396 122.443H133.395Z" fill="#263238"/>
<path d="M135.088 112.133C135.034 112.133 134.979 112.112 134.937 112.07C134.854 111.986 134.854 111.851 134.937 111.767L142.242 104.447C142.326 104.364 142.461 104.364 142.545 104.447C142.628 104.531 142.628 104.667 142.545 104.75L135.24 112.07C135.198 112.112 135.144 112.133 135.089 112.133H135.088Z" fill="#263238"/>
<path d="M147.935 118.705C147.88 118.705 147.826 118.684 147.784 118.643C147.7 118.559 147.7 118.423 147.784 118.339L154.841 111.268C154.925 111.185 155.06 111.185 155.144 111.268C155.228 111.352 155.228 111.488 155.144 111.571L148.086 118.643C148.045 118.684 147.99 118.705 147.936 118.705H147.935Z" fill="#263238"/>
<path d="M158.886 158.592H131.967C131.849 158.592 131.754 158.497 131.754 158.378V135.607C131.754 135.489 131.849 135.393 131.967 135.393H158.886C159.004 135.393 159.1 135.489 159.1 135.607V158.378C159.1 158.497 159.004 158.592 158.886 158.592ZM132.182 158.164H158.673V135.821H132.182V158.164Z" fill="#263238"/>
<path d="M145.428 155.847C145.31 155.847 145.214 155.751 145.214 155.633V137.868C145.214 137.75 145.31 137.655 145.428 137.655C145.546 137.655 145.641 137.75 145.641 137.868V155.633C145.641 155.751 145.546 155.847 145.428 155.847Z" fill="#263238"/>
<path d="M133.395 156.034C133.341 156.034 133.286 156.013 133.244 155.971C133.161 155.888 133.161 155.752 133.244 155.668L143.935 144.957C144.019 144.873 144.154 144.873 144.238 144.957C144.321 145.041 144.321 145.176 144.238 145.26L133.547 155.971C133.505 156.013 133.451 156.034 133.396 156.034H133.395Z" fill="#263238"/>
<path d="M135.088 145.724C135.034 145.724 134.979 145.703 134.937 145.661C134.854 145.578 134.854 145.442 134.937 145.358L142.242 138.039C142.326 137.955 142.461 137.955 142.545 138.039C142.628 138.122 142.628 138.258 142.545 138.342L135.24 145.661C135.198 145.703 135.144 145.724 135.089 145.724H135.088Z" fill="#263238"/>
<path d="M147.935 152.296C147.88 152.296 147.826 152.275 147.784 152.234C147.7 152.15 147.7 152.014 147.784 151.931L154.841 144.859C154.925 144.776 155.06 144.776 155.144 144.859C155.228 144.943 155.228 145.079 155.144 145.162L148.086 152.234C148.045 152.275 147.99 152.296 147.936 152.296H147.935Z" fill="#263238"/>
<path d="M138.741 23.7318C138.686 23.7318 138.632 23.7109 138.59 23.669C121.675 6.79567 101.102 3.99725 86.8245 4.62064C71.3366 5.29681 59.7019 10.0309 59.5866 10.0792C59.4776 10.1237 59.3522 10.0719 59.3077 9.96267C59.2632 9.85346 59.315 9.72787 59.424 9.68328C59.5403 9.63505 71.2331 4.87545 86.7918 4.19382C95.9331 3.7934 104.603 4.85634 112.562 7.35445C122.513 10.4778 131.371 15.8653 138.891 23.366C138.975 23.4497 138.975 23.5853 138.891 23.669C138.85 23.7109 138.795 23.7318 138.74 23.7318H138.741Z" fill="#263238"/>
<path d="M127.88 21.8062C127.825 21.8062 127.771 21.7853 127.729 21.7443C115.219 9.30929 93.5424 7.89507 93.3253 7.88142C93.2072 7.87414 93.1173 7.77312 93.1246 7.65481C93.1318 7.53651 93.2317 7.44732 93.3507 7.45369C93.4052 7.45733 98.9097 7.79769 105.896 9.68333C112.35 11.4243 121.429 14.8779 128.03 21.4394C128.114 21.5232 128.115 21.6588 128.031 21.7425C127.99 21.7843 127.934 21.8062 127.88 21.8062Z" fill="#263238"/>
<path d="M87.7101 9.45123C86.9244 9.45123 86.2858 8.81146 86.2858 8.02426C86.2858 7.23706 86.9253 6.59729 87.7101 6.59729C88.4949 6.59729 89.1343 7.23797 89.1343 8.02426C89.1343 8.81055 88.4949 9.45123 87.7101 9.45123ZM87.7101 7.02502C87.1605 7.02502 86.7127 7.47276 86.7127 8.02335C86.7127 8.57393 87.1596 9.02168 87.7101 9.02168C88.2605 9.02168 88.7065 8.57393 88.7065 8.02335C88.7065 7.47276 88.2596 7.02502 87.7101 7.02502Z" fill="#263238"/>
<path d="M11.8806 68.5922C11.7625 68.5922 11.6671 68.4966 11.6671 68.3783V66.7165C11.6671 66.5982 11.7625 66.5027 11.8806 66.5027C11.9987 66.5027 12.0941 66.5982 12.0941 66.7165V68.3783C12.0941 68.4966 11.9987 68.5922 11.8806 68.5922Z" fill="#263238"/>
<path d="M11.8806 72.4635C11.7625 72.4635 11.6671 72.368 11.6671 72.2496V70.5879C11.6671 70.4696 11.7625 70.374 11.8806 70.374C11.9987 70.374 12.0941 70.4696 12.0941 70.5879V72.2496C12.0941 72.368 11.9987 72.4635 11.8806 72.4635Z" fill="#263238"/>
<path d="M10.7779 69.697H9.11928C9.0012 69.697 8.90582 69.6015 8.90582 69.4832C8.90582 69.3648 9.0012 69.2693 9.11928 69.2693H10.7779C10.896 69.2693 10.9913 69.3648 10.9913 69.4832C10.9913 69.6015 10.896 69.697 10.7779 69.697Z" fill="#263238"/>
<path d="M14.6419 69.697H12.9833C12.8652 69.697 12.7698 69.6015 12.7698 69.4832C12.7698 69.3648 12.8652 69.2693 12.9833 69.2693H14.6419C14.76 69.2693 14.8553 69.3648 14.8553 69.4832C14.8553 69.6015 14.76 69.697 14.6419 69.697Z" fill="#263238"/>
<path d="M15.4448 126.274C15.3712 126.274 15.2986 126.236 15.2595 126.167C8.75863 114.877 6.96651 102.943 6.60773 94.92C6.21896 86.2272 7.38343 80.118 7.39524 80.057C7.41795 79.9405 7.52876 79.865 7.64594 79.8877C7.7622 79.9105 7.83759 80.0224 7.81489 80.1389C7.80308 80.199 6.64769 86.2681 7.03555 94.9127C7.39342 102.885 9.17465 114.741 15.6301 125.952C15.6891 126.055 15.6537 126.186 15.552 126.245C15.5184 126.264 15.482 126.274 15.4457 126.274H15.4448Z" fill="#263238"/>
<path d="M18.415 123.924C18.3387 123.924 18.2643 123.882 18.2261 123.81C11.7825 111.591 10.9841 102.333 10.9768 102.242C10.9677 102.123 11.0549 102.02 11.173 102.011C11.2938 102.001 11.3937 102.09 11.4028 102.208C11.4101 102.299 12.2048 111.476 18.604 123.61C18.6594 123.714 18.6194 123.844 18.515 123.899C18.4832 123.916 18.4486 123.924 18.415 123.924Z" fill="#263238"/>
</svg>
