<svg width="173" height="170" viewBox="0 0 173 170" fill="none" xmlns="http://www.w3.org/2000/svg">
<path d="M7.04171 58.6389C22.1215 43.5486 34.8895 56.2091 40.2666 35.9438C52.4172 -9.83427 102.812 -9.38667 109.441 23.1768C121.383 81.8498 173.383 44.5888 172.996 86.6156C172.583 131.481 139.63 166.428 80.5289 169.919C27.5454 173.048 -17.9408 83.6444 7.04171 58.6389Z" fill="#E8F2F8"/>
<path opacity="0.2" d="M7.04171 58.6389C22.1215 43.5486 34.8895 56.2091 40.2666 35.9438C52.4172 -9.83427 102.812 -9.38667 109.441 23.1768C121.383 81.8498 173.383 44.5888 172.996 86.6156C172.583 131.481 139.63 166.428 80.5289 169.919C27.5454 173.048 -17.9408 83.6444 7.04171 58.6389Z" fill="#006CB5"/>
<path d="M44.4517 32.93C44.358 32.1159 44.7199 31.6171 45.499 31.5233C46.2781 31.4338 46.7464 31.8345 46.8443 32.6487L47.1466 35.2447C47.2403 36.0589 46.8784 36.5577 46.0993 36.6515C45.3202 36.741 44.8519 36.3403 44.754 35.5261L44.4517 32.93ZM45.5501 35.492C45.5927 35.8415 45.7544 35.9737 46.0142 35.9396C46.2611 35.9097 46.4016 35.7435 46.3633 35.3939L46.0482 32.6828C46.0056 32.3333 45.8311 32.2054 45.5842 32.2352C45.3244 32.265 45.1967 32.4313 45.235 32.7808L45.5501 35.492ZM48.6154 31.2164L49.3477 31.1311L47.1594 39.401L46.4271 39.4862L48.6154 31.2164ZM48.7006 35.3641C48.6069 34.5499 48.9688 34.0512 49.7479 33.9574C50.527 33.8679 50.9953 34.2686 51.0932 35.0828L51.3955 37.6788C51.4892 38.493 51.1273 38.9917 50.3482 39.0855C49.5691 39.175 49.1008 38.7743 49.0029 37.9601L48.7006 35.3641ZM49.799 37.926C49.8416 38.2756 50.0033 38.4077 50.263 38.3736C50.51 38.3438 50.6505 38.1775 50.6122 37.828L50.2971 35.1169C50.2545 34.7673 50.08 34.6394 49.8331 34.6693C49.5733 34.6991 49.4456 34.8653 49.4839 35.2149L49.799 37.926Z" fill="#263238"/>
<path d="M53.2475 40.8631L44.0302 41.9458C43.5917 41.997 43.2 41.6858 43.1489 41.2467L42.0335 31.7151C41.9909 31.3571 42.1186 30.9947 42.374 30.7432L46.2228 26.9451C46.6059 26.5657 47.1934 26.4975 47.6532 26.7788L52.2725 29.5838C52.5833 29.7713 52.7877 30.091 52.8303 30.4534L53.9457 39.985C53.9968 40.424 53.686 40.8162 53.2475 40.8674V40.8631Z" stroke="#263238" stroke-linecap="round" stroke-linejoin="round"/>
<path d="M47.666 28.0023C47.7043 28.3262 47.4702 28.6204 47.1466 28.6587C46.8231 28.6971 46.5293 28.4626 46.491 28.1387C46.4527 27.8147 46.6868 27.5206 47.0104 27.4822C47.334 27.4438 47.6277 27.6783 47.666 28.0023Z" stroke="#263238" stroke-linecap="round" stroke-linejoin="round"/>
<path d="M47.0785 21.3267C47.0785 21.3267 48.8794 28.2708 47.0785 28.0705" stroke="#263238" stroke-linecap="round" stroke-linejoin="round"/>
<path d="M46.6187 26.6851C46.972 24.754 48.7389 21.5015 48.7389 21.5015" stroke="#263238" stroke-linecap="round" stroke-linejoin="round"/>
<path d="M47.0785 28.0705C46.8401 28.0449 46.6953 27.9085 46.6187 27.6953" stroke="#263238" stroke-linecap="round" stroke-linejoin="round"/>
<path d="M55.1207 23.9015C56.7087 25.1846 57.9689 26.8854 58.714 28.8676" stroke="#263238" stroke-linecap="round" stroke-linejoin="round"/>
<path d="M36.4605 30.0654C37.61 25.6535 41.2926 22.1324 46.0822 21.429C48.9645 21.007 51.7531 21.6763 54.0351 23.1214" stroke="#263238" stroke-linecap="round" stroke-linejoin="round"/>
<path d="M40.1006 41.8307C38.0698 40.0617 36.635 37.5807 36.2136 34.7034" stroke="#263238" stroke-linecap="round" stroke-linejoin="round"/>
<path d="M47.3212 44.7039C45.1414 44.6186 43.0765 43.928 41.3267 42.7686" stroke="#263238" stroke-linecap="round" stroke-linejoin="round"/>
<path d="M59.3441 31.3102C60.2807 37.7044 55.8615 43.651 49.4712 44.5888" stroke="#263238" stroke-linecap="round" stroke-linejoin="round"/>
<path d="M18.3143 70.4013L33.0211 73.2397L31.3266 82.0423C31.2532 82.4232 30.8835 82.6774 30.4989 82.6032L17.1757 80.0319C16.7953 79.9585 16.5414 79.5882 16.6155 79.2031L18.3101 70.4005L18.3143 70.4013Z" stroke="#263238" stroke-linecap="round" stroke-linejoin="round"/>
<path d="M33.3893 73.3175L17.9383 70.3356L18.3855 68.0125C18.4589 67.6316 18.8286 67.3774 19.2132 67.4516L33.2805 70.1665C33.6609 70.2399 33.9148 70.6102 33.8407 70.9953L33.3935 73.3184L33.3893 73.3175Z" stroke="#263238" stroke-linecap="round" stroke-linejoin="round"/>
<path d="M27.3032 69.0132L25.2005 68.6074L22.7928 81.1144L24.8956 81.5202L27.3032 69.0132Z" stroke="#263238" stroke-linecap="round" stroke-linejoin="round"/>
<path d="M26.247 68.8099C26.247 68.8099 29.8913 66.1457 31.5773 66.9514C33.2632 67.757 32.433 70.0035 31.5815 69.8373" stroke="#263238" stroke-linecap="round" stroke-linejoin="round"/>
<path d="M27.6902 69.087C27.6902 69.087 30.6577 67.6078 31.0877 68.2771C31.5177 68.9463 30.2362 69.5772 29.2527 69.3897" stroke="#263238" stroke-linecap="round" stroke-linejoin="round"/>
<path d="M26.3449 68.6266C26.3449 68.6266 27.8861 65.826 27.6817 64.9308H28.7078C28.7078 64.9308 29.0441 65.9922 27.8435 67.8082" stroke="#263238" stroke-linecap="round" stroke-linejoin="round"/>
<path d="M26.247 68.8099C26.247 68.8099 23.8501 64.9819 21.9853 65.1013C20.1206 65.2207 20.061 67.6164 20.9082 67.7783" stroke="#263238" stroke-linecap="round" stroke-linejoin="round"/>
<path d="M24.808 68.5328C24.808 68.5328 22.6026 66.0562 21.9555 66.5165C21.3084 66.9769 22.262 68.0426 23.2455 68.2302" stroke="#263238" stroke-linecap="round" stroke-linejoin="round"/>
<path d="M26.2257 68.6053C26.2257 68.6053 25.8383 65.4295 26.3534 64.675L25.3998 64.2914C25.3998 64.2914 24.693 65.1525 25.1358 67.2838" stroke="#263238" stroke-linecap="round" stroke-linejoin="round"/>
<path d="M37.1034 64.3212C38.7212 66.3716 39.8069 68.844 40.1772 71.5253" stroke="#263238" stroke-linecap="round" stroke-linejoin="round"/>
<path d="M12.1251 66.7212C14.7988 61.5504 20.3802 58.2084 26.545 58.6858C30.2532 58.9757 33.5399 60.5955 35.9709 63.0424" stroke="#263238" stroke-linecap="round" stroke-linejoin="round"/>
<path d="M13.3385 82.404C11.3077 79.6246 10.2221 76.1334 10.5073 72.429" stroke="#263238" stroke-linecap="round" stroke-linejoin="round"/>
<path d="M21.517 88.0223C18.822 87.3019 16.4507 85.8526 14.5987 83.9173" stroke="#263238" stroke-linecap="round" stroke-linejoin="round"/>
<path d="M40.2709 74.7437C39.6323 82.9752 32.4543 89.1264 24.2332 88.487" stroke="#263238" stroke-linecap="round" stroke-linejoin="round"/>
<path d="M99.3169 34.9421L98.0652 34.3027C98.2909 33.7485 98.2866 33.0537 98.2483 32.5933C98.657 32.7808 99.07 32.9769 99.4574 33.1602C99.4361 33.676 99.3936 34.2856 99.3169 34.9421Z" stroke="#263238" stroke-linecap="round" stroke-linejoin="round"/>
<path d="M101.139 33.9872C101.544 34.1961 101.969 34.3325 102.399 34.4092C102.697 36.0547 102.825 38.7914 101.373 41.6304C101.05 42.2613 97.6565 40.5221 97.9759 39.8912C98.7507 38.3736 99.1296 36.5193 99.3127 34.9463C99.3893 34.2899 99.4319 33.6803 99.4532 33.1645C100.16 33.5013 100.786 33.8082 101.135 33.9915L101.139 33.9872Z" stroke="#263238" stroke-linecap="round" stroke-linejoin="round"/>
<path d="M105.184 26.0712C106.274 26.6296 107.036 27.5802 107.38 28.663C107.734 29.7415 107.67 30.9606 107.112 32.0519C106.555 33.1474 105.605 33.9062 104.524 34.26C103.847 34.4817 103.119 34.5371 102.399 34.4135C101.969 34.3368 101.548 34.2003 101.139 33.9915C100.79 33.8124 100.164 33.5055 99.4574 33.1645C99.07 32.9769 98.657 32.7851 98.2483 32.5975C97.2691 32.1457 96.3197 31.7279 95.8301 31.5702L100.117 23.181C101.024 23.846 104.179 25.5597 105.184 26.0755V26.0712Z" stroke="#263238" stroke-linecap="round" stroke-linejoin="round"/>
<path d="M95.9578 19.2166C97.1669 20.7214 98.5634 22.0557 100.117 23.1768L95.8301 31.5659C94.0122 30.9606 92.1176 30.6068 90.189 30.5088L88.5244 30.4235L94.9148 17.9208L95.9578 19.2209V19.2166Z" stroke="#263238" stroke-linecap="round" stroke-linejoin="round"/>
<path d="M86.5958 30.7731L94.0761 16.1347C94.1953 15.9045 94.4762 15.8107 94.7061 15.93L95.2596 16.2114C95.4895 16.3307 95.5832 16.6121 95.464 16.8423L94.919 17.908L88.5286 30.4107L87.9837 31.4764C87.8645 31.7066 87.5835 31.8004 87.3536 31.681L86.8001 31.3997C86.5702 31.2803 86.4766 30.999 86.5958 30.7688V30.7731Z" stroke="#263238" stroke-linecap="round" stroke-linejoin="round"/>
<path d="M86.8172 21.655L83.9349 20.18" stroke="#263238" stroke-linecap="round" stroke-linejoin="round"/>
<path d="M90.1933 17.0256L88.3754 13.8413" stroke="#263238" stroke-linecap="round" stroke-linejoin="round"/>
<path d="M85.0418 27.1028L81.4017 27.4907" stroke="#263238" stroke-linecap="round" stroke-linejoin="round"/>
<path d="M109.135 13.3255C106.661 11.0364 103.587 9.38666 100.177 8.64067" stroke="#263238" stroke-linecap="round" stroke-linejoin="round"/>
<path d="M103.553 45.2964C110.476 42.3636 115.329 35.5048 115.329 27.5035C115.329 22.6951 113.571 18.2959 110.667 14.9155" stroke="#263238" stroke-linecap="round" stroke-linejoin="round"/>
<path d="M83.4964 42.1675C86.8683 45.0662 91.2534 46.8139 96.0473 46.8139" stroke="#263238" stroke-linecap="round" stroke-linejoin="round"/>
<path d="M77.089 31.0544C77.7446 34.6011 79.371 37.8067 81.6785 40.3857" stroke="#263238" stroke-linecap="round" stroke-linejoin="round"/>
<path d="M96.0473 8.19734C85.3952 8.19734 76.7612 16.8423 76.7612 27.5078" stroke="#263238" stroke-linecap="round" stroke-linejoin="round"/>
<path d="M61.8943 58.5963C60.2765 57.1469 58.5991 57.7821 57.7391 58.2936C57.5645 57.3089 56.9557 55.6209 54.8014 55.331C52.4641 55.0198 50.5568 57.3004 51.1826 60.4762C51.6339 62.761 53.0942 64.8541 53.8733 65.843C53.967 65.9624 54.0521 66.0647 54.1245 66.15C54.2352 66.15 54.3714 66.15 54.5205 66.1414C55.7807 66.0903 58.3138 65.8388 60.3403 64.6963C63.1587 63.1106 63.6441 60.1693 61.89 58.5963H61.8943Z" stroke="#263238" stroke-linecap="round" stroke-linejoin="round"/>
<path d="M52.8047 67.6291C52.8047 67.6291 52.6898 67.8423 52.5365 68.2089" stroke="#263238" stroke-linecap="round" stroke-linejoin="round"/>
<path d="M52.115 69.3897C51.4934 71.4912 51.123 74.9867 54.4651 77.1181C62.8607 82.4764 65.6876 69.8373 59.2589 70.9712C54.8525 71.7513 59.4846 83.3887 66.3773 81.1337" stroke="#263238" stroke-linecap="round" stroke-linejoin="round"/>
<path d="M66.9606 80.9077C67.1522 80.8267 67.3438 80.733 67.5354 80.6264" stroke="#263238" stroke-linecap="round" stroke-linejoin="round"/>
<path d="M56.6449 158.145C56.6449 158.145 51.9064 161.372 49.9991 161.159C49.7607 161.133 49.5776 161.061 49.4371 160.92C48.1897 159.633 47.1934 157.378 47.1934 157.378C47.1934 157.378 47.7852 156.555 49.6159 158.738L50.7782 157.668L48.377 155.251C48.377 155.251 49.7266 154.177 52.0214 155.545C51.9447 155.379 50.4631 152.156 51.5786 147.765L45.9843 142.369L50.9357 138.05L51.3189 137.718C51.3189 137.718 51.6297 138.025 52.1363 138.502C52.6259 138.967 53.2943 139.585 54.0266 140.224C55.7721 141.759 57.8838 143.426 58.7992 143.409C60.4936 143.375 56.6449 158.141 56.6449 158.141V158.145Z" fill="white"/>
<mask id="mask0_29_3065" style="mask-type:luminance" maskUnits="userSpaceOnUse" x="45" y="137" width="15" height="25">
<path d="M56.6449 158.145C56.6449 158.145 51.9064 161.372 49.9991 161.159C49.7607 161.133 49.5776 161.061 49.4371 160.92C48.1897 159.633 47.1934 157.378 47.1934 157.378C47.1934 157.378 47.7852 156.555 49.6159 158.738L50.7782 157.668L48.377 155.251C48.377 155.251 49.7266 154.177 52.0214 155.545C51.9447 155.379 50.4631 152.156 51.5786 147.765L45.9843 142.369L50.9357 138.05L51.3189 137.718C51.3189 137.718 51.6297 138.025 52.1363 138.502C52.6259 138.967 53.2943 139.585 54.0266 140.224C55.7721 141.759 57.8838 143.426 58.7992 143.409C60.4936 143.375 56.6449 158.141 56.6449 158.141V158.145Z" fill="white"/>
</mask>
<g mask="url(#mask0_29_3065)">
<path opacity="0.4" d="M52.9835 156.031C52.9835 156.031 50.2843 158.819 49.9991 161.159C49.7607 161.133 49.5776 161.061 49.4371 160.92C48.1897 159.633 47.1934 157.378 47.1934 157.378C47.1934 157.378 47.7852 156.555 49.6159 158.738L50.7782 157.668L48.377 155.251C48.377 155.251 49.7266 154.177 52.0214 155.545C51.9447 155.379 50.4631 152.156 51.5786 147.765L45.9843 142.369L50.9357 138.05L52.132 138.502C52.6216 138.967 53.2901 139.585 54.0223 140.224C52.975 141.763 50.7314 144.943 50.7314 144.943L52.6685 147.578C52.6685 147.578 51.4934 154.219 52.9793 156.027L52.9835 156.031Z" fill="#E8F2F8"/>
</g>
<path d="M56.6449 158.145C56.6449 158.145 51.9064 161.372 49.9991 161.159C49.7607 161.133 49.5776 161.061 49.4371 160.92C48.1897 159.633 47.1934 157.378 47.1934 157.378C47.1934 157.378 47.7852 156.555 49.6159 158.738L50.7782 157.668L48.377 155.251C48.377 155.251 49.7266 154.177 52.0214 155.545C51.9447 155.379 50.4631 152.156 51.5786 147.765L45.9843 142.369L50.9357 138.05L51.3189 137.718C51.3189 137.718 51.6297 138.025 52.1363 138.502C52.6259 138.967 53.2943 139.585 54.0266 140.224C55.7721 141.759 57.8838 143.426 58.7992 143.409C60.4936 143.375 56.6449 158.141 56.6449 158.141V158.145Z" stroke="#263238" stroke-linecap="round" stroke-linejoin="round"/>
<path d="M50.7782 157.672C50.7782 157.672 51.1912 156.376 52.0256 155.553" stroke="#263238" stroke-linecap="round" stroke-linejoin="round"/>
<path d="M139.205 120.556C138.532 121.579 137.617 122.542 136.522 123.45C136.522 123.45 136.522 123.45 136.518 123.45C127.803 130.676 107.713 134.244 107.713 134.244C107.713 134.244 107.04 135.254 106.005 136.691C104.149 139.274 101.105 143.238 98.623 145.225C97.5757 146.069 96.6263 146.555 95.911 146.423L99.6788 160.362L101.365 166.415C101.365 166.415 84.0414 173.981 54.4055 165.328C54.4055 165.328 54.0692 161.457 54.3203 160.63C54.3331 160.592 54.3459 160.549 54.3587 160.511C54.6354 159.846 55.5209 159.049 55.5209 159.049C55.5209 159.049 55.3549 156.559 55.2698 154.023C55.2016 152.054 55.1846 150.059 55.3294 149.172C55.538 147.893 56.4746 144.803 56.9429 143.285C57.109 142.748 57.2196 142.407 57.2196 142.407L55.7466 128.578L55.3208 124.597C55.3208 124.597 55.3123 124.525 55.2996 124.388C55.2996 124.358 55.2996 124.328 55.291 124.29L55.0569 122.154L47.4361 124.486C47.4361 124.486 47.8406 125.377 48.3855 126.635C49.386 128.928 50.8591 132.424 51.1869 133.805C51.2124 133.92 51.2465 134.026 51.2848 134.137C51.9915 136.153 54.678 137.982 54.678 137.982L47.4617 146.427L45.3287 144.935C45.3287 144.935 45.0179 145.178 44.4687 145.476C43.0637 146.239 40.1219 147.36 36.9075 145.647C35.7325 145.02 34.5234 144.018 33.3398 142.488C27.6519 135.113 25.2082 129.107 26.0085 122.039C26.8089 114.967 58.5139 93.2229 64.8021 93.4488L74.1599 95.5206C74.36 95.3543 74.9092 94.9195 75.3307 94.9408C77.0337 95.0261 77.0762 97.0083 77.0762 97.0083L98.044 100.419C98.044 100.419 100.215 99.3272 100.594 99.3485C101.522 99.3954 101.918 100.193 101.918 100.193C101.918 100.193 107.351 96.9358 109.1 97.6946C114.844 100.176 143.449 114.094 139.205 120.552V120.556Z" fill="#E8F2F8"/>
<path opacity="0.2" d="M66.3561 155.063C66.3561 155.063 63.0991 159.066 57.2793 159.991C56.1766 160.166 55.2059 160.345 54.3587 160.52C54.6354 159.855 55.5209 159.057 55.5209 159.057C55.5209 159.057 55.3549 156.568 55.2698 154.032C57.7305 155.643 62.0178 157.519 66.3561 155.063Z" fill="black"/>
<path opacity="0.2" d="M56.9472 143.298C57.1132 142.761 57.2239 142.42 57.2239 142.42L55.7509 128.591C57.9562 131.754 65.8154 142.539 71.2351 143.703C76.8974 144.918 61.7538 147.062 56.9514 143.298H56.9472Z" fill="black"/>
<path opacity="0.2" d="M99.6746 160.375C93.7568 159.701 85.3867 158.209 84.548 155.106C83.2452 150.263 89.5888 147.356 98.6145 145.233C97.5671 146.077 96.6177 146.563 95.9025 146.431L99.6703 160.37L99.6746 160.375Z" fill="black"/>
<path opacity="0.2" d="M136.518 123.455C127.803 130.68 107.713 134.248 107.713 134.248C107.713 134.248 107.04 135.258 106.005 136.695C104.307 132.722 101.859 124.503 104.724 114.4C104.724 114.4 106.274 122.794 112.698 124.789C112.698 124.789 107.781 121.123 109.496 112.29C109.496 112.29 111.174 122.683 122.094 125.552C127.407 126.946 132.593 125.403 136.523 123.45L136.518 123.455Z" fill="black"/>
<path opacity="0.2" d="M55.2995 124.401L55.0569 122.167L47.4361 124.499C47.4361 124.499 47.8406 125.39 48.3855 126.647C45.4692 126.345 39.9431 129.056 38.9766 126.106C37.8144 122.542 44.9711 123.77 44.9711 123.77L51.7233 119.836C50.4461 114.366 53.6945 110.257 53.6945 110.257L54.3118 114.072C54.6098 106.821 57.441 102.853 57.441 102.853C55.0867 108.586 55.1505 122.7 55.2995 124.401Z" fill="black"/>
<path opacity="0.2" d="M54.678 137.991L47.4617 146.435L45.3287 144.943C45.3287 144.943 45.0179 145.186 44.4687 145.485C43.0637 146.248 40.1219 147.369 36.9075 145.655C39.2449 142.416 44.077 137.645 49.8245 135.804C49.8245 135.804 47.4574 139.27 45.9886 142.364L47.4702 143.826C47.4702 143.826 51.1699 139.602 54.678 137.986V137.991Z" fill="black"/>
<path opacity="0.2" d="M72.2057 100.794C72.2057 101.535 71.7374 109.988 77.8766 112.222C84.0158 114.456 89.4738 110.666 89.4738 110.666C89.4738 110.666 80.0564 119.759 74.3302 114.899C68.604 110.04 72.2057 100.794 72.2057 100.794Z" fill="black"/>
<path d="M54.4055 165.337C54.4055 165.337 54.0734 161.466 54.3204 160.639C54.529 159.948 55.521 159.057 55.521 159.057C55.521 159.057 55.0015 151.21 55.3336 149.185C55.6189 147.45 57.2239 142.415 57.2239 142.415L55.0612 122.167L47.4404 124.499C47.4404 124.499 50.6845 131.678 51.1869 133.817C51.6893 135.957 54.678 137.999 54.678 137.999L47.4574 146.444L45.3244 144.956C45.3244 144.956 39.0277 149.888 33.3356 142.509C27.6477 135.13 25.2039 129.128 26.0043 122.056C26.8047 114.984 58.5097 93.24 64.8021 93.4659L74.1599 95.5376C74.3643 95.3714 74.9092 94.9366 75.3307 94.9579C77.0337 95.0431 77.0762 97.0253 77.0762 97.0253L98.044 100.431C98.044 100.431 100.22 99.3443 100.598 99.3613C101.527 99.4082 101.922 100.201 101.922 100.201C101.922 100.201 107.355 96.9443 109.105 97.7031C114.848 100.184 143.449 114.102 139.205 120.56C133.18 129.729 107.713 134.252 107.713 134.252C107.713 134.252 99.2403 147.045 95.9068 146.435L101.365 166.432" stroke="#263238" stroke-linecap="round" stroke-linejoin="round"/>
<path d="M117.045 121.954C126.667 128.318 134.424 127.142 140.495 118.953C140.495 118.953 145.548 112.431 145.191 105.389C144.833 98.3468 143.156 75.3917 121.247 81.2615C117.641 82.2292 109.228 93.5128 108.517 96.6118C108.194 98.0271 104.813 105.244 101.535 112.708" fill="#E8F2F8"/>
<path d="M117.045 121.954C126.667 128.318 134.424 127.142 140.495 118.953C140.495 118.953 145.548 112.431 145.191 105.389C144.833 98.3468 143.156 75.3917 121.247 81.2615C117.641 82.2292 109.228 93.5128 108.517 96.6118C108.194 98.0271 104.813 105.244 101.535 112.708" stroke="#263238" stroke-linecap="round" stroke-linejoin="round"/>
<path d="M91.0107 54.5296C91.0107 54.5296 97.1372 53.6003 101.399 57.4155C106.784 62.241 112.83 75.251 104.217 96.8122C104.217 96.8122 91.5003 88.3548 69.7918 94.0115C69.7918 94.0115 71.6608 88.9516 68.3783 73.0344C66.8967 65.8345 70.6262 49.2395 91.0107 54.5296Z" fill="#263238"/>
<path d="M81.7169 108.637C90.7894 110.108 100.432 100.052 100.432 100.052C100.432 100.052 95.4981 99.4423 95.0596 97.1234C93.6461 89.8084 99.3383 80.7713 99.3383 80.7713C99.3383 80.7713 77.3104 81.3809 81.1591 86.3726C81.9681 87.4213 82.5215 88.423 82.9004 89.3651C84.2373 92.6517 83.3091 95.1284 82.5981 95.7337C82.5471 95.7763 82.4875 95.8147 82.4364 95.8403C81.1038 96.4499 75.6288 95.5419 75.6288 95.5419C75.6288 95.5419 73.4405 107.29 81.7169 108.633V108.637Z" fill="white" stroke="#263238" stroke-linecap="round" stroke-linejoin="round"/>
<path d="M97.3074 102.836C97.3074 102.836 93.1224 104.511 86.996 104.012L84.2372 105.368" stroke="#263238" stroke-linecap="round" stroke-linejoin="round"/>
<path d="M81.4869 105.146L81.2825 103.33C81.2825 103.33 76.7654 101.915 75.3647 99.2207" stroke="#263238" stroke-linecap="round" stroke-linejoin="round"/>
<path d="M82.5981 95.738C89.3461 97.5028 92.5136 88.8408 92.5136 88.8408C92.5136 88.8408 87.1152 87.2294 82.9004 89.3694C84.2372 92.656 83.3091 95.1327 82.5981 95.738Z" fill="#263238"/>
<path d="M99.7214 76.2144C101.365 66.9897 99.5383 55.9193 85.5187 56.8358C75.501 57.4922 75.5819 68.4902 76.246 71.7726C77.3615 77.2929 75.7649 79.4669 77.4807 84.1048C78.7153 87.4383 81.5848 91.164 84.9609 92.5622C87.0386 93.4233 95.447 87.5151 96.0685 84.8124" fill="white"/>
<path d="M99.7214 76.2144C101.365 66.9897 99.5383 55.9193 85.5187 56.8358C75.501 57.4922 75.5819 68.4902 76.246 71.7726C77.3615 77.2929 75.7649 79.4669 77.4807 84.1048C78.7153 87.4383 81.5848 91.164 84.9609 92.5622C87.0386 93.4233 95.447 87.5151 96.0685 84.8124" stroke="#263238" stroke-linecap="round" stroke-linejoin="round"/>
<path d="M82.1042 73.4947C82.0191 74.5306 81.8999 77.0968 79.7073 78.9895C78.2896 80.2129 81.5423 81.4661 81.5423 81.4661" stroke="#263238" stroke-linecap="round" stroke-linejoin="round"/>
<path d="M79.7754 69.8373C79.7754 69.8373 76.6803 68.3282 74.5899 70.8177" stroke="#263238" stroke-linecap="round" stroke-linejoin="round"/>
<path d="M84.9652 69.6412C84.9652 69.6412 87.9539 68.5669 91.5812 69.9012" stroke="#263238" stroke-linecap="round" stroke-linejoin="round"/>
<path d="M88.1795 73.9977C88.2775 74.8887 88.8735 75.5537 89.5164 75.4812C90.1592 75.413 90.602 74.6329 90.5041 73.742C90.4062 72.851 89.8101 72.186 89.1673 72.2585C88.5244 72.3267 88.0816 73.1068 88.1795 73.9977Z" fill="#263238"/>
<path d="M81.6955 84.3819C85.5868 83.9087 88.6138 81.8498 88.6138 81.8498C88.6138 81.8498 88.9033 85.7204 85.6677 86.5261C83.1856 87.1442 82.2234 84.3052 82.2234 84.3052" stroke="#263238" stroke-linecap="round" stroke-linejoin="round"/>
<path d="M90.7979 60.3526C90.7979 60.3526 89.9123 71.2823 99.5469 75.2553L104.06 64.7475L97.2308 57.1725L86.9407 54.1971C71.5671 55.1562 64.9469 64.7219 73.483 90.2091C73.483 90.2091 71.0946 59.8581 90.7979 60.3568V60.3526Z" fill="#263238"/>
<path d="M97.4394 75.7199C97.3074 74.4922 100.411 71.3633 101.458 73.3711C103.247 76.7941 101.944 79.7781 100.092 80.9461C99.2616 81.4704 98.21 82.4509 97.4735 81.5258" fill="white"/>
<path d="M97.4394 75.7199C97.3074 74.4922 100.411 71.3633 101.458 73.3711C103.247 76.7941 101.944 79.7781 100.092 80.9461C99.2616 81.4704 98.21 82.4509 97.4735 81.5258" stroke="#263238" stroke-linecap="round" stroke-linejoin="round"/>
<path d="M78.7962 74.4027C78.8941 75.2936 79.4902 75.9586 80.133 75.8862C80.7759 75.818 81.2187 75.0379 81.1208 74.1469C81.0228 73.256 80.4268 72.591 79.7839 72.6635C79.1411 72.7317 78.6983 73.5118 78.7962 74.4027Z" fill="#263238"/>
<g opacity="0.2">
<path d="M72.1206 72.6081C72.0056 73.3498 71.9247 74.0958 71.8822 74.846" stroke="white" stroke-linecap="round" stroke-linejoin="round"/>
<path d="M89.2013 58.3661C81.4145 58.1615 74.1769 63.1319 72.4527 70.9371" stroke="white" stroke-linecap="round" stroke-linejoin="round"/>
<path d="M87.8092 56.1367C87.8092 56.1367 76.5781 53.4937 72.3675 60.9493" stroke="white" stroke-linecap="round" stroke-linejoin="round"/>
<path d="M96.92 69.1339C97.6055 70.0888 98.4059 70.9712 99.3425 71.6916" stroke="white" stroke-linecap="round" stroke-linejoin="round"/>
<path d="M92.4668 57.5945C93.0671 61.1113 94.2251 64.6793 96.0302 67.757" stroke="white" stroke-linecap="round" stroke-linejoin="round"/>
<path d="M103.753 91.424C103.553 92.3192 103.319 93.2059 103.055 94.084" stroke="white" stroke-linecap="round" stroke-linejoin="round"/>
<path d="M103.102 76.5639C104.924 80.6136 104.8 85.6522 104.051 89.915" stroke="white" stroke-linecap="round" stroke-linejoin="round"/>
<path d="M101.765 83.6189C101.765 83.6189 102.323 88.1374 98.5974 91.9526" stroke="white" stroke-linecap="round" stroke-linejoin="round"/>
<path d="M96.5837 58.8989C98.4953 61.4865 99.913 64.2615 102.127 66.6231C104.46 69.1126 106.789 71.9601 107.227 75.4641" stroke="white" stroke-linecap="round" stroke-linejoin="round"/>
<path d="M93.893 56.2091C94.4422 56.5672 94.9403 56.9935 95.3916 57.4667" stroke="white" stroke-linecap="round" stroke-linejoin="round"/>
</g>
<path d="M132.316 116.233C132.095 116.285 131.869 116.323 131.639 116.353C125.611 117.214 118.85 112.214 116.568 106.199C114.767 101.454 116.342 96.0705 117.202 93.7643C117.475 93.0439 117.671 92.6219 117.671 92.6219C121.307 87.4213 142.445 97.5923 142.687 103.198C142.934 108.799 138.506 114.869 132.312 116.229L132.316 116.233Z" fill="#263238" stroke="#263238" stroke-linecap="round" stroke-linejoin="round"/>
<path d="M138.928 103.961C138.928 103.961 137.727 112.866 131.639 116.353C125.611 117.214 118.85 112.214 116.568 106.199C114.767 101.454 116.342 96.0705 117.202 93.7643C117.202 93.76 117.207 93.7643 117.207 93.7643C124.329 89.6933 138.928 103.961 138.928 103.961Z" fill="white"/>
<mask id="mask1_29_3065" style="mask-type:luminance" maskUnits="userSpaceOnUse" x="115" y="93" width="24" height="24">
<path d="M138.928 103.961C138.928 103.961 137.727 112.866 131.639 116.353C125.611 117.214 118.85 112.214 116.568 106.199C114.767 101.454 116.342 96.0705 117.202 93.7643C117.202 93.76 117.207 93.7643 117.207 93.7643C124.329 89.6933 138.928 103.961 138.928 103.961Z" fill="white"/>
</mask>
<g mask="url(#mask1_29_3065)">
<path opacity="0.4" d="M138.928 103.961C138.928 103.961 137.727 112.866 131.639 116.353C125.611 117.214 118.85 112.214 116.568 106.199C114.767 101.454 116.342 96.0705 117.202 93.7643C117.202 93.76 117.207 93.7643 117.207 93.7643C124.329 89.6933 138.928 103.961 138.928 103.961Z" fill="#E8F2F8"/>
</g>
<path d="M138.928 103.961C138.928 103.961 137.727 112.866 131.639 116.353C125.611 117.214 118.85 112.214 116.568 106.199C114.767 101.454 116.342 96.0705 117.202 93.7643C117.202 93.76 117.207 93.7643 117.207 93.7643C124.329 89.6933 138.928 103.961 138.928 103.961Z" stroke="#263238" stroke-linecap="round" stroke-linejoin="round"/>
<path d="M114.005 108.65C114.005 108.65 120.868 118.514 128.885 119.337C136.897 120.159 142.023 113.399 142.359 108.3" stroke="#263238" stroke-linecap="round" stroke-linejoin="round"/>
<path d="M110.144 64.1251C110.748 62.4328 115.078 62.9998 116.449 68.2728C117.82 73.5459 123.239 86.347 123.239 86.347C123.239 86.347 144.752 54.6489 148.609 53.4298C152.467 52.2064 150.938 57.7011 145.787 65.323C145.787 65.323 150.615 64.4704 151.879 65.323C153.148 66.1755 152.53 71.2951 153.203 73.0898C154.336 76.095 151.819 76.7302 151.819 76.7302C151.819 76.7302 153.799 76.7131 155.179 78.009C156.562 79.3049 155.868 84.6675 156.26 86.1851C156.656 87.7026 154.016 88.9814 154.016 88.9814C154.016 88.9814 160.36 92.4471 158.925 93.3124C156.511 94.7746 155.132 93.2783 155.132 93.2783C155.132 93.2783 145.386 105.534 138.038 108.262C130.69 110.99 116.376 100.146 114.84 94.2375C113.303 88.3292 115.138 88.6958 113.971 78.8616C112.804 69.0316 110.135 64.1209 110.135 64.1209L110.144 64.1251Z" fill="white" stroke="#263238" stroke-linecap="round" stroke-linejoin="round"/>
<path d="M141.529 44.6527L113.185 52.0504C112.179 52.3128 111.577 53.3419 111.839 54.3488L125.238 105.816C125.5 106.823 126.528 107.426 127.533 107.164L155.877 99.7662C156.883 99.5037 157.485 98.4747 157.223 97.4677L143.824 46.0007C143.562 44.9937 142.535 44.3902 141.529 44.6527Z" fill="white" stroke="#263238" stroke-linecap="round" stroke-linejoin="round"/>
<path d="M125.291 50.5652C125.355 50.8124 125.206 51.0639 124.964 51.1279C124.717 51.1918 124.466 51.0426 124.402 50.7997C124.338 50.5524 124.487 50.3009 124.729 50.237C124.976 50.173 125.228 50.3222 125.291 50.5652Z" fill="#E8F2F8" stroke="#263238" stroke-linecap="round" stroke-linejoin="round"/>
<path d="M131.128 49.0391C131.167 49.1926 131.077 49.3503 130.92 49.3929C130.766 49.4313 130.609 49.3418 130.566 49.184C130.528 49.0306 130.617 48.8729 130.775 48.8302C130.928 48.7919 131.086 48.8814 131.128 49.0391Z" fill="#E8F2F8" stroke="#263238" stroke-linecap="round" stroke-linejoin="round"/>
<path d="M129.524 49.2869L126.125 50.174C126.052 50.193 126.009 50.2675 126.028 50.3404L126.042 50.394C126.061 50.4669 126.135 50.5106 126.208 50.4916L129.607 49.6046C129.679 49.5856 129.723 49.5111 129.704 49.4382L129.69 49.3845C129.671 49.3116 129.597 49.2679 129.524 49.2869Z" fill="#E8F2F8" stroke="#263238" stroke-linecap="round" stroke-linejoin="round"/>
<path d="M142.972 46.5283L156.26 97.571C156.413 98.1678 156.06 98.7773 155.464 98.9308L127.484 106.233C126.888 106.386 126.279 106.033 126.126 105.436L112.839 54.3932C112.685 53.7964 113.039 53.1868 113.635 53.0334L119.378 51.5329C119.757 51.4348 120.157 51.5797 120.378 51.8995L120.791 52.492C121.017 52.8117 121.417 52.9609 121.792 52.8586L134.402 49.5677C134.781 49.4697 135.058 49.1457 135.096 48.7578L135.169 48.0374C135.207 47.6495 135.484 47.3255 135.863 47.2274L141.606 45.7269C142.202 45.5735 142.811 45.9273 142.964 46.5241L142.972 46.5283Z" fill="#E8F2F8" stroke="#263238" stroke-linecap="round" stroke-linejoin="round"/>
<path d="M143.947 75.1762C146.547 69.1814 143.8 62.2117 137.813 59.6088C131.826 57.0059 124.865 59.7556 122.265 65.7504C119.666 71.7451 122.412 78.7149 128.399 81.3178C134.386 83.9207 141.347 81.171 143.947 75.1762Z" fill="white" stroke="#263238" stroke-linecap="round" stroke-linejoin="round"/>
<path d="M128.225 77.2588C128.421 77.7533 128.983 77.9962 129.494 77.847L133.376 76.7217C133.385 76.8027 133.402 76.8879 133.427 76.9689C133.674 77.8257 134.568 78.316 135.42 78.0687C136.276 77.8215 136.765 76.9263 136.518 76.0737C136.493 75.9927 136.463 75.9117 136.429 75.8393L140.312 74.7139C140.823 74.5647 141.172 74.0617 141.074 73.5374C140.963 72.9363 140.363 72.5782 139.792 72.7445L139.464 72.5484C138.758 72.1221 138.238 71.4486 138.008 70.6557L137.268 68.0938C136.629 65.8857 134.47 64.5386 132.261 64.8626C132.55 64.5557 132.674 64.1123 132.55 63.6775C132.363 63.0253 131.678 62.6459 131.026 62.8335C130.375 63.0211 129.996 63.7074 130.183 64.3596C130.307 64.7944 130.652 65.1013 131.06 65.2079C129.021 66.1159 127.91 68.4092 128.544 70.6174L129.289 73.2049C129.553 74.1171 129.404 75.1018 128.885 75.899C128.314 76.0652 127.999 76.6876 128.221 77.2545L128.225 77.2588ZM132.056 63.8225C132.167 64.2061 131.946 64.6026 131.567 64.7134C131.184 64.8242 130.788 64.6026 130.677 64.2232C130.566 63.8438 130.788 63.4431 131.167 63.3323C131.55 63.2214 131.946 63.4431 132.056 63.8225Z" fill="#E8F2F8" stroke="#263238" stroke-linecap="round" stroke-linejoin="round"/>
<path d="M135.722 75.9032L134.006 76.402" stroke="#263238" stroke-linecap="round" stroke-linejoin="round"/>
<path d="M138.255 73.158L130.4 75.43" stroke="#263238" stroke-linecap="round" stroke-linejoin="round"/>
<path d="M146.468 89.0539L130.52 93.2144C128.608 93.7131 126.654 92.5665 126.156 90.6525C125.658 88.7385 126.803 86.7819 128.714 86.2831L144.663 82.1226C146.574 81.6239 148.528 82.7706 149.027 84.6846C149.525 86.5986 148.379 88.5552 146.468 89.0539Z" fill="#263238"/>
<path d="M127.816 91.2237L127.297 89.2311L128.218 88.9992C128.438 88.9438 128.643 88.9367 128.832 88.9779C129.022 89.0172 129.183 89.0989 129.316 89.2231C129.449 89.3473 129.542 89.5109 129.595 89.714C129.648 89.9151 129.646 90.1026 129.591 90.2763C129.535 90.4482 129.434 90.597 129.287 90.7228C129.141 90.8467 128.957 90.9363 128.737 90.9918L127.816 91.2237ZM128.187 90.7269L128.615 90.619C128.75 90.585 128.861 90.5309 128.946 90.4568C129.033 90.3802 129.092 90.2887 129.122 90.1821C129.153 90.075 129.153 89.9588 129.12 89.8336C129.087 89.7064 129.031 89.6044 128.951 89.5274C128.873 89.448 128.777 89.3963 128.664 89.3722C128.552 89.3458 128.428 89.3496 128.293 89.3836L127.865 89.4915L128.187 90.7269Z" fill="white"/>
<path d="M131.269 90.3925C131.1 90.4351 130.937 90.4475 130.778 90.4299C130.621 90.4118 130.477 90.367 130.346 90.2956C130.217 90.2238 130.105 90.1292 130.012 90.0121C129.92 89.8944 129.854 89.7576 129.814 89.6015C129.773 89.4455 129.764 89.2943 129.787 89.1479C129.811 89.0011 129.864 88.8653 129.944 88.7406C130.024 88.616 130.129 88.5087 130.257 88.4188C130.385 88.3289 130.533 88.263 130.7 88.2209C130.869 88.1784 131.031 88.1665 131.185 88.1851C131.342 88.2032 131.485 88.2482 131.614 88.3201C131.745 88.3915 131.858 88.4858 131.951 88.6029C132.044 88.7181 132.111 88.8547 132.152 89.0127C132.193 89.1687 132.201 89.3212 132.177 89.4701C132.153 89.6169 132.1 89.7527 132.02 89.8774C131.941 89.9995 131.837 90.1056 131.709 90.1954C131.583 90.2848 131.436 90.3505 131.269 90.3925ZM131.158 89.9792C131.254 89.9551 131.337 89.9171 131.408 89.8651C131.481 89.8126 131.541 89.7487 131.586 89.6733C131.631 89.5979 131.66 89.5151 131.671 89.4249C131.684 89.3342 131.678 89.2388 131.652 89.1388C131.626 89.0388 131.584 88.9521 131.529 88.8788C131.475 88.805 131.409 88.7458 131.333 88.7011C131.258 88.656 131.176 88.6276 131.086 88.6161C130.996 88.6046 130.903 88.6109 130.808 88.635C130.712 88.6591 130.628 88.6974 130.555 88.7499C130.484 88.8019 130.425 88.8656 130.38 88.941C130.335 89.0163 130.305 89.0994 130.292 89.1901C130.281 89.2803 130.288 89.3755 130.314 89.4755C130.34 89.5735 130.38 89.6604 130.434 89.7362C130.49 89.8095 130.556 89.8687 130.63 89.9139C130.707 89.9585 130.79 89.9866 130.88 89.9981C130.97 90.0096 131.063 90.0033 131.158 89.9792Z" fill="white"/>
<path d="M133.242 89.8574L131.995 87.9331L132.508 87.8039L133.601 89.5113L133.344 89.5759L133.494 87.5556L133.952 87.4403L135.048 89.1469L134.801 89.2092L134.938 87.192L135.412 87.0729L135.26 89.3493L134.729 89.483L133.763 87.9868L133.903 87.9515L133.773 89.7236L133.242 89.8574Z" fill="white"/>
<path d="M136.235 89.1037L135.688 87.0034L136.097 86.9004L137.752 88.0951L137.553 88.1451L137.159 86.6328L137.648 86.5098L138.195 88.6102L137.789 88.7124L136.131 87.5184L136.329 87.4685L136.724 88.9807L136.235 89.1037Z" fill="white"/>
<path d="M138.701 88.4829L138.153 86.3825L138.648 86.258L139.092 87.9623L140.164 87.6925L140.267 88.0885L138.701 88.4829Z" fill="white"/>
<path d="M141.555 87.8026C141.386 87.8451 141.222 87.8576 141.063 87.84C140.907 87.8218 140.763 87.7771 140.632 87.7057C140.502 87.6338 140.391 87.5393 140.297 87.4221C140.206 87.3045 140.14 87.1676 140.099 87.0116C140.059 86.8556 140.05 86.7044 140.072 86.558C140.097 86.4111 140.149 86.2753 140.229 86.1507C140.31 86.026 140.414 85.9187 140.542 85.8289C140.671 85.739 140.819 85.673 140.985 85.631C141.154 85.5885 141.316 85.5765 141.471 85.5952C141.627 85.6133 141.77 85.6583 141.899 85.7302C142.031 85.8015 142.143 85.8958 142.237 86.013C142.33 86.1281 142.397 86.2647 142.438 86.4228C142.478 86.5788 142.487 86.7312 142.463 86.8801C142.438 87.027 142.386 87.1628 142.305 87.2874C142.227 87.4096 142.123 87.5156 141.995 87.6055C141.868 87.6949 141.722 87.7606 141.555 87.8026ZM141.444 87.3893C141.539 87.3652 141.623 87.3272 141.694 87.2752C141.767 87.2227 141.826 87.1587 141.872 87.0833C141.917 87.008 141.945 86.9252 141.956 86.8349C141.97 86.7442 141.963 86.6488 141.937 86.5488C141.911 86.4488 141.87 86.3621 141.814 86.2888C141.76 86.215 141.695 86.1558 141.618 86.1112C141.543 86.066 141.461 86.0377 141.371 86.0262C141.282 86.0147 141.189 86.021 141.093 86.0451C140.998 86.0691 140.913 86.1074 140.84 86.1599C140.769 86.2119 140.711 86.2756 140.666 86.351C140.62 86.4264 140.591 86.5095 140.578 86.6002C140.566 86.6904 140.574 86.7855 140.6 86.8855C140.626 86.9835 140.666 87.0705 140.72 87.1463C140.776 87.2196 140.841 87.2788 140.916 87.3239C140.993 87.3686 141.076 87.3967 141.166 87.4082C141.255 87.4197 141.348 87.4134 141.444 87.3893Z" fill="white"/>
<path d="M142.773 87.4576L143.178 85.1174L143.666 84.9944L145.169 86.8541L144.65 86.9848L143.385 85.3273L143.581 85.2781L143.279 87.33L142.773 87.4576ZM143.131 86.8876L143.167 86.4855L144.266 86.2087L144.496 86.544L143.131 86.8876Z" fill="white"/>
<path d="M145.391 86.7983L144.843 84.6979L145.814 84.4535C146.046 84.3951 146.262 84.3876 146.462 84.431C146.662 84.4724 146.832 84.5586 146.972 84.6895C147.112 84.8204 147.21 84.9929 147.266 85.2069C147.322 85.419 147.32 85.6166 147.261 85.7997C147.202 85.9808 147.096 86.1377 146.942 86.2703C146.787 86.4009 146.594 86.4954 146.362 86.5538L145.391 86.7983ZM145.781 86.2747L146.233 86.1609C146.376 86.125 146.492 86.068 146.582 85.9899C146.674 85.9092 146.736 85.8127 146.767 85.7004C146.8 85.5875 146.8 85.465 146.766 85.333C146.731 85.199 146.671 85.0914 146.587 85.0102C146.505 84.9266 146.404 84.8721 146.284 84.8467C146.166 84.8188 146.036 84.8228 145.894 84.8587L145.442 84.9725L145.781 86.2747Z" fill="white"/>
<path d="M107.713 134.248C107.713 134.248 102.872 122.973 105.341 109.298" stroke="#263238" stroke-linecap="round" stroke-linejoin="round"/>
<path d="M95.9068 146.431C95.9068 146.431 86.1232 149.428 85.1313 151.679C84.1393 153.934 89.5206 152.037 89.5206 152.037" stroke="#263238" stroke-linecap="round" stroke-linejoin="round"/>
<path d="M101.922 100.197C101.922 100.197 92.9138 109.136 86.8853 111.523" stroke="#263238" stroke-linecap="round" stroke-linejoin="round"/>
<path d="M72.4016 97.7926C72.4016 97.7926 70.7625 109.861 76.8847 112.141" stroke="#263238" stroke-linecap="round" stroke-linejoin="round"/>
<path d="M55.0611 122.163C55.0611 122.163 55.0101 106.34 58.152 101.446" stroke="#263238" stroke-linecap="round" stroke-linejoin="round"/>
<path d="M53.8904 106.045C53.8904 106.045 53.0091 115.871 54.9845 119.077" stroke="#263238" stroke-linecap="round" stroke-linejoin="round"/>
<path d="M47.4404 124.499C47.4404 124.499 40.5902 122.137 39.1682 125.066C37.7463 127.994 43.2554 125.398 43.2554 125.398" stroke="#263238" stroke-linecap="round" stroke-linejoin="round"/>
<path d="M51.5616 134.76C51.5616 134.76 44.8349 138.553 44.4857 140.727" stroke="#263238" stroke-linecap="round" stroke-linejoin="round"/>
<path d="M62.5499 124.26C62.5499 124.26 75.4286 143.75 82.5385 141.959" stroke="#263238" stroke-linecap="round" stroke-linejoin="round"/>
<path d="M71.35 151.598C71.35 151.598 61.2514 159.011 59.7826 158.384" stroke="#263238" stroke-linecap="round" stroke-linejoin="round"/>
<path opacity="0.2" d="M142.087 119.968C142.768 119.409 143.219 119.038 143.364 118.919C143.211 119.051 142.772 119.435 142.087 119.968Z" fill="black"/>
</svg>
