<svg width="210" height="34" viewBox="0 0 210 34" fill="none" xmlns="http://www.w3.org/2000/svg">
<path d="M186.799 1.51158C186.787 1.241 186.875 0.97607 187.043 0.772416C187.131 0.676471 187.237 0.601596 187.354 0.552907C187.471 0.504218 187.597 0.482863 187.722 0.490302H208.575C208.706 0.481759 208.838 0.503181 208.961 0.553123C209.084 0.603064 209.196 0.680364 209.288 0.779807C209.464 0.994834 209.554 1.2734 209.54 1.55716V7.06639C209.536 7.32907 209.447 7.58236 209.288 7.78461C209.201 7.90047 209.088 7.99248 208.96 8.05292C208.832 8.11336 208.693 8.14048 208.553 8.13202H194.944V13.6412H205.443C205.68 13.6316 205.912 13.702 206.108 13.842C206.283 13.9751 206.367 14.1968 206.367 14.5073V19.3279C206.361 19.5512 206.278 19.7644 206.134 19.9278C206.05 20.0268 205.946 20.1043 205.829 20.1545C205.713 20.2046 205.587 20.2261 205.462 20.2173H194.944V25.8596H209.054C209.684 25.8596 209.999 26.2 210 26.8809V32.48C209.999 32.5553 209.984 32.6295 209.955 32.6982C209.926 32.7669 209.884 32.8285 209.831 32.8792C209.775 33.2948 209.488 33.5021 208.971 33.5013H187.725C187.481 33.5131 187.242 33.4288 187.054 33.2648C186.885 33.1083 186.801 32.8718 186.801 32.5466L186.799 1.51158ZM163.626 1.46723C163.622 1.21187 163.712 0.964979 163.877 0.778575C163.967 0.679658 164.076 0.602537 164.197 0.55255C164.317 0.502563 164.447 0.480903 164.576 0.489069H170.813C171.054 0.489956 171.286 0.585198 171.464 0.7564C171.561 0.844551 171.639 0.95351 171.693 1.07606C171.747 1.19861 171.776 1.33194 171.778 1.46723V25.6366H183.328C183.569 25.6328 183.802 25.7281 183.979 25.9027C184.071 25.9972 184.143 26.1115 184.19 26.2379C184.237 26.3644 184.258 26.5 184.251 26.6357V32.4788C184.253 32.7303 184.171 32.9744 184.018 33.1675C183.933 33.2722 183.828 33.3562 183.71 33.4136C183.591 33.471 183.463 33.5005 183.332 33.5001H164.551C163.936 33.5001 163.628 33.1744 163.628 32.5232L163.626 1.46723ZM153.928 11.2673C153.928 10.8132 153.854 10.3625 153.711 9.93434C153.568 9.49818 153.35 9.09385 153.067 8.74183C152.784 8.39153 152.439 8.10248 152.052 7.89055C151.632 7.66331 151.166 7.54867 150.694 7.5567H146.242V14.9767H150.694C151.167 14.9831 151.634 14.8716 152.059 14.6514C152.45 14.4513 152.798 14.1688 153.081 13.8211C153.358 13.4734 153.572 13.0745 153.711 12.6446C153.857 12.2017 153.93 11.736 153.928 11.2673ZM138.091 1.51527C138.079 1.24675 138.162 0.983043 138.324 0.776111C138.413 0.677292 138.522 0.600724 138.643 0.551936C138.764 0.503148 138.894 0.483359 139.023 0.493997H152.455C153.38 0.487408 154.3 0.629894 155.184 0.916552C156.016 1.18807 156.808 1.5816 157.537 2.08566C158.255 2.58411 158.907 3.18197 159.476 3.86335C160.043 4.54764 160.531 5.30068 160.931 6.10671C161.332 6.90622 161.64 7.75424 161.848 8.63218C162.057 9.50845 162.163 10.4089 162.163 11.3129C162.163 12.6515 161.933 13.979 161.484 15.2304C161.041 16.4833 160.381 17.6379 159.538 18.6355C158.686 19.6391 157.657 20.4589 156.511 21.0501C155.294 21.6759 153.958 21.9999 152.605 21.9975H146.242V32.5503C146.242 33.1868 145.921 33.505 145.277 33.505H139.019C138.775 33.5166 138.536 33.4324 138.347 33.2685C138.18 33.112 138.096 32.8755 138.096 32.5503L138.091 1.51527ZM103.58 17.0241C103.575 15.4985 103.766 13.9791 104.148 12.5079C104.517 11.0795 105.065 9.70983 105.778 8.43507C106.475 7.17558 107.32 6.01379 108.291 4.97702C109.258 3.94638 110.35 3.05501 111.537 2.32589C112.745 1.58659 114.036 1.01165 115.38 0.614727C118.179 -0.204909 121.135 -0.204909 123.933 0.614727C125.28 1.01117 126.573 1.58611 127.783 2.32589C130.177 3.79489 132.165 5.90053 133.552 8.43384C134.251 9.714 134.794 11.0824 135.169 12.5066C135.944 15.4646 135.944 18.5898 135.169 21.5478C134.795 22.9654 134.252 24.3266 133.552 25.5984C132.858 26.8492 132.013 27.9992 131.039 29.0195C130.06 30.0444 128.965 30.937 127.778 31.6768C125.313 33.1983 122.51 34 119.656 34C116.801 34 113.998 33.1983 111.533 31.6768C109.159 30.197 107.178 28.1061 105.773 25.5984C105.06 24.332 104.511 22.9695 104.143 21.5478C103.762 20.0739 103.573 18.5521 103.58 17.0241ZM111.732 16.9946C111.721 18.1707 111.918 19.3387 112.314 20.4378C112.685 21.4706 113.244 22.4165 113.958 23.222C114.667 24.0158 115.519 24.6506 116.464 25.0884C117.475 25.538 118.56 25.7696 119.656 25.7696C120.752 25.7696 121.838 25.538 122.848 25.0884C123.8 24.6516 124.658 24.015 125.37 23.2171C126.085 22.4115 126.644 21.4657 127.014 20.4329C127.799 18.2149 127.799 15.7718 127.014 13.5538C126.643 12.5144 126.085 11.5613 125.37 10.7474C124.638 9.92248 123.755 9.26498 122.773 8.81551C121.792 8.36605 120.734 8.13416 119.664 8.13416C118.595 8.13416 117.537 8.36605 116.555 8.81551C115.574 9.26498 114.69 9.92248 113.958 10.7474C113.244 11.5613 112.685 12.5144 112.314 13.5538C111.918 14.6522 111.72 15.8191 111.728 16.9946H111.732ZM79.0402 1.51158C79.0283 1.241 79.116 0.97607 79.2848 0.772416C79.372 0.676339 79.4778 0.601375 79.595 0.552676C79.7122 0.503978 79.838 0.482699 79.9637 0.490302H100.815C100.947 0.481516 101.078 0.502825 101.202 0.55278C101.325 0.602736 101.436 0.680167 101.529 0.779807C101.707 0.993317 101.799 1.27167 101.786 1.55593V7.06516C101.782 7.32806 101.693 7.5815 101.533 7.78338C101.446 7.8993 101.334 7.99136 101.206 8.05182C101.078 8.11227 100.938 8.13936 100.799 8.13078H87.187V13.64H97.6871C97.9233 13.6304 98.1562 13.7008 98.352 13.8408C98.5267 13.9739 98.6105 14.1956 98.6105 14.5061V19.3266C98.6047 19.55 98.5219 19.7634 98.3776 19.9266C98.2939 20.0255 98.19 20.103 98.0738 20.1532C97.9576 20.2034 97.8321 20.2249 97.7069 20.2161H87.187V25.8584H101.298C101.928 25.8584 102.243 26.1988 102.243 26.8797V32.4788C102.242 32.5539 102.226 32.6281 102.198 32.6967C102.169 32.7653 102.127 32.827 102.075 32.878C102.019 33.2935 101.732 33.5009 101.214 33.5001H79.9637C79.7198 33.5118 79.4804 33.4276 79.2918 33.2636C79.1241 33.1071 79.0402 32.8706 79.0402 32.5453V1.51158ZM68.589 11.2673C68.5887 10.8132 68.5155 10.3625 68.3724 9.93434C68.2292 9.49818 68.0109 9.09385 67.7285 8.74183C67.445 8.39153 67.1002 8.10248 66.7131 7.89055C66.2931 7.66331 65.8269 7.54867 65.3553 7.5567H60.9035V14.9767H65.3553C65.828 14.9831 66.2956 14.8716 66.72 14.6514C67.1106 14.451 67.4585 14.1685 67.7425 13.8211C68.0193 13.4734 68.2328 13.0745 68.3724 12.6446C68.5177 12.2017 68.5909 11.736 68.589 11.2673ZM52.7614 1.51158C52.749 1.24306 52.8321 0.979348 52.9943 0.772416C53.0831 0.674432 53.1913 0.598355 53.311 0.549595C53.4308 0.500835 53.5592 0.480591 53.6872 0.490302H67.1125C68.0373 0.483713 68.9577 0.626199 69.842 0.912857C70.6739 1.18437 71.4657 1.5779 72.1943 2.08197C72.9126 2.58041 73.5647 3.17828 74.1331 3.85965C74.6988 4.54407 75.1862 5.29663 75.5852 6.10178C75.9861 6.90129 76.2939 7.74931 76.5017 8.62725C76.7115 9.50352 76.8175 10.404 76.8173 11.308C76.8175 12.6466 76.5874 13.9741 76.1384 15.2255C75.6949 16.4783 75.035 17.633 74.1925 18.6306C73.3396 19.6341 72.3116 20.454 71.1649 21.0452C69.948 21.671 68.6122 21.995 67.2592 21.9926H60.9035V32.5453C60.9035 33.1818 60.5817 33.5001 59.9381 33.5001H53.6802C53.4363 33.5118 53.1969 33.4276 53.0083 33.2636C52.8406 33.1071 52.7568 32.8706 52.7568 32.5453L52.7614 1.51158ZM27.1708 1.51158C27.1589 1.241 27.2465 0.97607 27.4154 0.772416C27.5026 0.676339 27.6084 0.601375 27.7256 0.552676C27.8428 0.503978 27.9685 0.482699 28.0942 0.490302H48.9408C49.0724 0.481516 49.2043 0.502825 49.3275 0.55278C49.4507 0.602736 49.5622 0.680167 49.6546 0.779807C49.831 0.994385 49.9217 1.27316 49.9073 1.55716V7.06639C49.903 7.32929 49.8138 7.58273 49.6546 7.78461C49.5674 7.90053 49.4551 7.99259 49.3272 8.05305C49.1993 8.11351 49.0596 8.14059 48.9198 8.13202H35.3129V13.6412H45.8118C46.048 13.6313 46.2811 13.7017 46.4767 13.842C46.6526 13.9751 46.7364 14.1968 46.7364 14.5073V19.3279C46.7306 19.5512 46.6478 19.7646 46.5035 19.9278C46.4198 20.0268 46.3159 20.1043 46.1997 20.1544C46.0835 20.2046 45.958 20.2261 45.8328 20.2173H35.3129V25.8596H49.424C50.0544 25.8596 50.3692 26.2 50.3684 26.8809V32.48C50.3676 32.5551 50.3523 32.6293 50.3235 32.6979C50.2947 32.7665 50.2529 32.8282 50.2007 32.8792C50.1448 33.2948 49.858 33.5021 49.3402 33.5013H28.0896C27.8457 33.5131 27.6063 33.4288 27.4177 33.2648C27.25 33.1083 27.1662 32.8718 27.1662 32.5466L27.1708 1.51158ZM16.425 11.3967C16.4224 10.9413 16.3435 10.49 16.1921 10.0637C16.0394 9.62311 15.8221 9.2107 15.5481 8.84161C15.2669 8.4704 14.9259 8.15468 14.5409 7.90903C14.1457 7.65271 13.7049 7.48499 13.246 7.41626C12.8605 7.38669 12.489 7.35713 12.1537 7.33495C11.8183 7.31278 11.4399 7.30538 11.0334 7.30538H8.14787V15.4584H11.9907C12.2422 15.4584 12.4658 15.451 12.6626 15.4362C12.8594 15.4214 13.0678 15.3992 13.3065 15.3697C13.7712 15.318 14.2199 15.1613 14.6224 14.9101C15.003 14.676 15.3378 14.367 15.6087 13.9997C15.8723 13.6307 16.0758 13.2177 16.2107 12.7777C16.3495 12.332 16.4203 11.8658 16.4203 11.3967H16.425ZM0.00582231 1.51158C-0.00717575 1.24297 0.0759814 0.97905 0.238718 0.772416C0.327478 0.674363 0.435596 0.598239 0.555362 0.549474C0.675128 0.500709 0.803589 0.480505 0.931584 0.490302H14.4896C15.8819 0.482553 17.2609 0.776013 18.542 1.35266C19.7688 1.8973 20.8873 2.68226 21.8387 3.66624C22.7805 4.6496 23.5337 5.81629 24.057 7.10211C24.597 8.42418 24.8714 9.85053 24.8628 11.2907C24.868 12.2656 24.7381 13.236 24.4774 14.171C24.2226 15.0691 23.8577 15.9281 23.3921 16.726C22.9333 17.5156 22.3807 18.2398 21.7478 18.8807C21.1153 19.5213 20.4115 20.0782 19.6518 20.5389L25.0689 31.2986C25.1667 31.5056 25.2925 31.7499 25.4462 32.0316C25.5825 32.2505 25.6628 32.5031 25.6791 32.7646C25.6857 32.8665 25.6694 32.9687 25.6315 33.0627C25.5937 33.1566 25.5354 33.2398 25.4614 33.3054C25.2881 33.4411 25.0758 33.509 24.8605 33.4976H17.6407C17.4112 33.4995 17.1874 33.4216 17.0037 33.2759C16.8157 33.1299 16.6841 32.9167 16.6334 32.6759L11.5388 22.526H8.14787V32.5453C8.14787 33.1818 7.82569 33.5001 7.18135 33.5001H0.924597C0.680659 33.5121 0.441209 33.4278 0.252692 33.2636C0.0838428 33.1071 0 32.8706 0 32.5453L0.00582231 1.51158Z" fill="#006CB5"/>
</svg>
