<svg width="498" height="498" viewBox="0 0 498 498" fill="none" xmlns="http://www.w3.org/2000/svg">
<path d="M110.555 191.513C108.587 191.156 106.59 190.985 104.59 191.005C102.396 190.967 100.204 191.15 98.0467 191.552C86.9666 193.903 77.9639 203.036 75.641 214.246C74.727 218.587 74.7912 223.077 75.8289 227.389C76.8666 231.702 78.8517 235.727 81.6391 239.172C84.4095 242.575 87.9041 245.314 91.8668 247.188C95.8296 249.061 100.16 250.022 104.541 250C112.486 250 119.138 247.364 124.875 241.95C127.804 239.203 130.129 235.872 131.7 232.171C133.271 228.47 134.054 224.48 133.997 220.458C133.964 206.278 124.34 194.357 110.555 191.513ZM104.514 244.558C91.4869 244.558 80.4886 233.528 80.4886 220.497C80.55 214.131 83.1245 208.049 87.6481 203.582C90.4927 200.665 94.0371 198.529 97.9414 197.379C101.846 196.23 105.979 196.107 109.945 197.02C120.54 199.519 128.523 209.598 128.523 220.475C128.533 233.55 117.53 244.597 104.514 244.597V244.558Z" fill="black"/>
<path d="M162 315.936V323.286L161.172 324.113C160.343 324.94 160.343 324.94 159.278 324.94C158.928 324.99 158.572 324.952 158.24 324.831C157.909 324.71 157.613 324.509 157.378 324.246L156.666 323.617L156.45 315.346C156.229 308.498 155.981 305.354 155.511 303.766C152.016 291.431 143.456 282.813 131.418 279.56C127.9 278.584 127.9 278.584 104.492 278.584C83.3858 278.584 80.9395 278.611 78.1287 279.394C74.727 280.293 68.52 283.133 66.2559 284.831C61.4903 288.415 56.7467 294.481 54.9851 299.206C52.9861 304.516 52.8149 306.187 52.5388 315.385L52.3234 323.656L51.6055 324.279C51.3739 324.543 51.0799 324.746 50.7501 324.868C50.4203 324.99 50.0652 325.028 49.7169 324.979C48.6567 324.979 48.6125 324.979 47.8228 324.152L47 323.275V315.936C47 309.369 47.3037 306.303 47.5522 304.875C50.479 288.018 63.4893 275.601 80.6855 273.229C81.9501 273.092 93.011 272.965 106.027 273.009C125.079 273.119 129.331 273.241 131.308 273.709C142.904 276.466 152.148 283.403 157.339 293.179C161.012 299.918 162 304.809 162 315.936Z" fill="black"/>
<path d="M110.555 191.513C108.587 191.156 106.59 190.985 104.59 191.005C102.396 190.967 100.204 191.15 98.0467 191.552C86.9666 193.903 77.9639 203.036 75.641 214.246C74.727 218.587 74.7912 223.077 75.8289 227.389C76.8666 231.702 78.8517 235.727 81.6391 239.172C84.4095 242.575 87.9041 245.314 91.8668 247.188C95.8296 249.061 100.16 250.022 104.541 250C112.486 250 119.138 247.364 124.875 241.95C127.804 239.203 130.129 235.872 131.7 232.171C133.271 228.47 134.054 224.48 133.997 220.458C133.964 206.278 124.34 194.357 110.555 191.513ZM104.514 244.558C91.4869 244.558 80.4886 233.528 80.4886 220.497C80.55 214.131 83.1245 208.049 87.6481 203.582C90.4927 200.665 94.0371 198.529 97.9414 197.379C101.846 196.23 105.979 196.107 109.945 197.02C120.54 199.519 128.523 209.598 128.523 220.475C128.533 233.55 117.53 244.597 104.514 244.597V244.558Z" stroke="black" stroke-width="14"/>
<path d="M162 315.936V323.286L161.172 324.113C160.343 324.94 160.343 324.94 159.278 324.94C158.928 324.99 158.572 324.952 158.24 324.831C157.909 324.71 157.613 324.509 157.378 324.246L156.666 323.617L156.45 315.346C156.229 308.498 155.981 305.354 155.511 303.766C152.016 291.431 143.456 282.813 131.418 279.56C127.9 278.584 127.9 278.584 104.492 278.584C83.3858 278.584 80.9395 278.611 78.1287 279.394C74.727 280.293 68.52 283.133 66.2559 284.831C61.4903 288.415 56.7467 294.481 54.9851 299.206C52.9861 304.516 52.8149 306.187 52.5388 315.385L52.3234 323.656L51.6055 324.279C51.3739 324.543 51.0799 324.746 50.7501 324.868C50.4203 324.99 50.0652 325.028 49.7169 324.979C48.6567 324.979 48.6125 324.979 47.8228 324.152L47 323.275V315.936C47 309.369 47.3037 306.303 47.5522 304.875C50.479 288.018 63.4893 275.601 80.6855 273.229C81.9501 273.092 93.011 272.965 106.027 273.009C125.079 273.119 129.331 273.241 131.308 273.709C142.904 276.466 152.148 283.403 157.339 293.179C161.012 299.918 162 304.809 162 315.936Z" stroke="black" stroke-width="14"/>
<path d="M399.555 47.5134C397.587 47.1557 395.59 46.9854 393.59 47.0048C391.396 46.9672 389.204 47.1504 387.047 47.5517C375.967 49.9031 366.964 59.0356 364.641 70.2462C363.727 74.5866 363.791 79.077 364.829 83.3894C365.867 87.7018 367.852 91.7273 370.639 95.1719C373.41 98.5755 376.904 101.314 380.867 103.188C384.83 105.061 389.16 106.022 393.541 106C401.486 106 408.138 103.364 413.875 97.9499C416.804 95.2029 419.129 91.872 420.7 88.171C422.271 84.47 423.054 80.4805 422.997 76.4585C422.964 62.2785 413.34 50.357 399.555 47.5134ZM393.514 100.558C380.487 100.558 369.489 89.5283 369.489 76.4967C369.55 70.1308 372.124 64.0487 376.648 59.5825C379.493 56.6646 383.037 54.5286 386.941 53.3795C390.846 52.2304 394.979 52.1067 398.945 53.0202C409.54 55.5193 417.523 65.5979 417.523 76.4749C417.533 89.5502 406.53 100.597 393.514 100.597V100.558Z" fill="black"/>
<path d="M451 171.936V179.286L450.172 180.113C449.343 180.94 449.343 180.94 448.278 180.94C447.928 180.99 447.572 180.952 447.24 180.831C446.909 180.71 446.613 180.509 446.378 180.246L445.666 179.617L445.45 171.346C445.229 164.498 444.981 161.354 444.511 159.766C441.016 147.431 432.456 138.813 420.418 135.56C416.9 134.584 416.9 134.584 393.492 134.584C372.386 134.584 369.939 134.611 367.129 135.394C363.727 136.293 357.52 139.133 355.256 140.831C350.49 144.415 345.747 150.481 343.985 155.206C341.986 160.516 341.815 162.187 341.539 171.385L341.323 179.656L340.606 180.279C340.374 180.543 340.08 180.746 339.75 180.868C339.42 180.99 339.065 181.028 338.717 180.979C337.657 180.979 337.612 180.979 336.823 180.152L336 179.275V171.936C336 165.369 336.304 162.303 336.552 160.875C339.479 144.018 352.489 131.601 369.685 129.229C370.95 129.092 382.011 128.965 395.027 129.009C414.079 129.119 418.331 129.241 420.308 129.709C431.904 132.466 441.148 139.403 446.339 149.179C450.012 155.918 451 160.809 451 171.936Z" fill="black"/>
<path d="M399.555 47.5134C397.587 47.1557 395.59 46.9854 393.59 47.0048C391.396 46.9672 389.204 47.1504 387.047 47.5517C375.967 49.9031 366.964 59.0356 364.641 70.2462C363.727 74.5866 363.791 79.077 364.829 83.3894C365.867 87.7018 367.852 91.7273 370.639 95.1719C373.41 98.5755 376.904 101.314 380.867 103.188C384.83 105.061 389.16 106.022 393.541 106C401.486 106 408.138 103.364 413.875 97.9499C416.804 95.2029 419.129 91.872 420.7 88.171C422.271 84.47 423.054 80.4805 422.997 76.4585C422.964 62.2785 413.34 50.357 399.555 47.5134ZM393.514 100.558C380.487 100.558 369.489 89.5283 369.489 76.4967C369.55 70.1308 372.124 64.0487 376.648 59.5825C379.493 56.6646 383.037 54.5286 386.941 53.3795C390.846 52.2304 394.979 52.1067 398.945 53.0202C409.54 55.5193 417.523 65.5979 417.523 76.4749C417.533 89.5502 406.53 100.597 393.514 100.597V100.558Z" stroke="black" stroke-width="14"/>
<path d="M451 171.936V179.286L450.172 180.113C449.343 180.94 449.343 180.94 448.278 180.94C447.928 180.99 447.572 180.952 447.24 180.831C446.909 180.71 446.613 180.509 446.378 180.246L445.666 179.617L445.45 171.346C445.229 164.498 444.981 161.354 444.511 159.766C441.016 147.431 432.456 138.813 420.418 135.56C416.9 134.584 416.9 134.584 393.492 134.584C372.386 134.584 369.939 134.611 367.129 135.394C363.727 136.293 357.52 139.133 355.256 140.831C350.49 144.415 345.747 150.481 343.985 155.206C341.986 160.516 341.815 162.187 341.539 171.385L341.323 179.656L340.606 180.279C340.374 180.543 340.08 180.746 339.75 180.868C339.42 180.99 339.065 181.028 338.717 180.979C337.657 180.979 337.612 180.979 336.823 180.152L336 179.275V171.936C336 165.369 336.304 162.303 336.552 160.875C339.479 144.018 352.489 131.601 369.685 129.229C370.95 129.092 382.011 128.965 395.027 129.009C414.079 129.119 418.331 129.241 420.308 129.709C431.904 132.466 441.148 139.403 446.339 149.179C450.012 155.918 451 160.809 451 171.936Z" stroke="black" stroke-width="14"/>
<path d="M399.555 336.513C397.587 336.156 395.59 335.985 393.59 336.005C391.396 335.967 389.204 336.15 387.047 336.552C375.967 338.903 366.964 348.036 364.641 359.246C363.727 363.587 363.791 368.077 364.829 372.389C365.867 376.702 367.852 380.727 370.639 384.172C373.41 387.575 376.904 390.314 380.867 392.188C384.83 394.061 389.16 395.022 393.541 395C401.486 395 408.138 392.364 413.875 386.95C416.804 384.203 419.129 380.872 420.7 377.171C422.271 373.47 423.054 369.48 422.997 365.458C422.964 351.278 413.34 339.357 399.555 336.513ZM393.514 389.558C380.487 389.558 369.489 378.528 369.489 365.497C369.55 359.131 372.124 353.049 376.648 348.582C379.493 345.665 383.037 343.529 386.941 342.379C390.846 341.23 394.979 341.107 398.945 342.02C409.54 344.519 417.523 354.598 417.523 365.475C417.533 378.55 406.53 389.597 393.514 389.597V389.558Z" fill="black"/>
<path d="M451 460.936V468.286L450.172 469.113C449.343 469.94 449.343 469.94 448.278 469.94C447.928 469.99 447.572 469.952 447.24 469.831C446.909 469.71 446.613 469.509 446.378 469.246L445.666 468.617L445.45 460.346C445.229 453.498 444.981 450.354 444.511 448.766C441.016 436.431 432.456 427.813 420.418 424.56C416.9 423.584 416.9 423.584 393.492 423.584C372.386 423.584 369.939 423.611 367.129 424.394C363.727 425.293 357.52 428.133 355.256 429.831C350.49 433.415 345.747 439.481 343.985 444.206C341.986 449.516 341.815 451.187 341.539 460.385L341.323 468.656L340.606 469.279C340.374 469.543 340.08 469.746 339.75 469.868C339.42 469.99 339.065 470.028 338.717 469.979C337.657 469.979 337.612 469.979 336.823 469.152L336 468.275V460.936C336 454.369 336.304 451.303 336.552 449.875C339.479 433.018 352.489 420.601 369.685 418.229C370.95 418.092 382.011 417.965 395.027 418.009C414.079 418.119 418.331 418.241 420.308 418.709C431.904 421.466 441.148 428.403 446.339 438.179C450.012 444.918 451 449.809 451 460.936Z" fill="black"/>
<path d="M399.555 336.513C397.587 336.156 395.59 335.985 393.59 336.005C391.396 335.967 389.204 336.15 387.047 336.552C375.967 338.903 366.964 348.036 364.641 359.246C363.727 363.587 363.791 368.077 364.829 372.389C365.867 376.702 367.852 380.727 370.639 384.172C373.41 387.575 376.904 390.314 380.867 392.188C384.83 394.061 389.16 395.022 393.541 395C401.486 395 408.138 392.364 413.875 386.95C416.804 384.203 419.129 380.872 420.7 377.171C422.271 373.47 423.054 369.48 422.997 365.458C422.964 351.278 413.34 339.357 399.555 336.513ZM393.514 389.558C380.487 389.558 369.489 378.528 369.489 365.497C369.55 359.131 372.124 353.049 376.648 348.582C379.493 345.665 383.037 343.529 386.941 342.379C390.846 341.23 394.979 341.107 398.945 342.02C409.54 344.519 417.523 354.598 417.523 365.475C417.533 378.55 406.53 389.597 393.514 389.597V389.558Z" stroke="black" stroke-width="14"/>
<path d="M451 460.936V468.286L450.172 469.113C449.343 469.94 449.343 469.94 448.278 469.94C447.928 469.99 447.572 469.952 447.24 469.831C446.909 469.71 446.613 469.509 446.378 469.246L445.666 468.617L445.45 460.346C445.229 453.498 444.981 450.354 444.511 448.766C441.016 436.431 432.456 427.813 420.418 424.56C416.9 423.584 416.9 423.584 393.492 423.584C372.386 423.584 369.939 423.611 367.129 424.394C363.727 425.293 357.52 428.133 355.256 429.831C350.49 433.415 345.747 439.481 343.985 444.206C341.986 449.516 341.815 451.187 341.539 460.385L341.323 468.656L340.606 469.279C340.374 469.543 340.08 469.746 339.75 469.868C339.42 469.99 339.065 470.028 338.717 469.979C337.657 469.979 337.612 469.979 336.823 469.152L336 468.275V460.936C336 454.369 336.304 451.303 336.552 449.875C339.479 433.018 352.489 420.601 369.685 418.229C370.95 418.092 382.011 417.965 395.027 418.009C414.079 418.119 418.331 418.241 420.308 418.709C431.904 421.466 441.148 428.403 446.339 438.179C450.012 444.918 451 449.809 451 460.936Z" stroke="black" stroke-width="14"/>
<path d="M193.686 203.979L308.686 148.979" stroke="black" stroke-width="20"/>
<path d="M192.575 292.109L305.926 350.433" stroke="black" stroke-width="20"/>
<path d="M199 248.5C199 300.691 156.691 343 104.5 343C52.3091 343 10 300.691 10 248.5C10 196.309 52.3091 154 104.5 154C156.691 154 199 196.309 199 248.5Z" stroke="black" stroke-width="20"/>
<path d="M488 104.5C488 156.691 445.691 199 393.5 199C341.309 199 299 156.691 299 104.5C299 52.3091 341.309 10 393.5 10C445.691 10 488 52.3091 488 104.5Z" stroke="black" stroke-width="20"/>
<path d="M488 393.5C488 445.691 445.691 488 393.5 488C341.309 488 299 445.691 299 393.5C299 341.309 341.309 299 393.5 299C445.691 299 488 341.309 488 393.5Z" stroke="black" stroke-width="20"/>
</svg>
