<svg width="512" height="512" viewBox="0 0 512 512" fill="none" xmlns="http://www.w3.org/2000/svg">
<g clip-path="url(#clip0_220_85)">
<path d="M222.6 1.60003C133.6 13 55.6999 72 20.1999 155C10.7999 176.7 4.39994 200.5 1.49994 224C-0.500064 240.4 -0.500064 272.1 1.59994 288.2C7.19994 332.8 23.6999 373.4 51.3999 411.1L54.0999 414.6L51.2999 420.6C48.6999 426 48.4999 427.5 48.4999 438C48.4999 448.8 48.6999 449.9 51.5999 456.1C55.5999 464.5 62.9999 471.9 71.6999 476.2C78.1999 479.4 78.8999 479.5 89.9999 479.5C100.9 479.5 101.9 479.3 108.2 476.3C133 464.6 140.1 431.9 122.5 410.4C112.1 397.8 92.5999 392.4 76.4999 397.8C71.7999 399.4 70.1999 399.6 69.0999 398.7C65.5999 395.8 50.9999 372.1 44.3999 358.5C28.1999 325.2 20.9999 293.6 20.9999 256.2C20.9999 246.5 21.4999 234.4 21.9999 229.5C26.6999 188.7 42.9999 147.9 68.2999 114.1C77.4999 101.8 101.8 77.5 114.1 68.3C147.8 43.1 187.6 27.1 229.5 22C247.4 19.8 278.9 20.8 296.2 24C304.8 25.7 308.5 25.3 311.9 22.4C314.6 20.2 315 19.2 315 15.1C315 8.80003 312.2 5.60003 305.2 4.10003C285.8 2.85804e-05 245.1 -1.29997 222.6 1.60003ZM99.7999 419.2C108.3 423.2 113 433.6 110.6 442.9C107.8 453.7 99.6999 459.5 88.5999 458.8C77.2999 458.1 69.8999 450.7 69.1999 439.3C68.4999 428.4 74.3999 420.2 84.7999 417.4C90.2999 416 93.7999 416.4 99.7999 419.2Z" fill="black"/>
<path d="M409.5 33.3001C389.2 40.0001 377.5 58.5001 380.1 79.9001C380.9 86.9001 384.7 95.8001 389.5 101.6C399.9 114.2 419.5 119.6 435.5 114.1L441.5 112.1L443.7 114.3C448.4 119.1 459.6 137.3 467.1 152.5C483.6 186.1 491 217.9 491 256C491 283.6 487.7 304.9 479.4 330C471.4 354 456.3 381.9 440.2 402.4C432 412.9 408.9 435.5 397.9 443.7C364.2 468.9 324.6 484.9 282.5 490C267.1 491.9 240.1 491.4 222.2 488.9C213.5 487.7 205.2 487 203.7 487.4C202.1 487.8 200.1 489.5 199 491.3C196.2 495.9 196.4 500.3 199.8 504C202.2 506.8 203.7 507.3 214 509.1C230.8 512.1 268.7 512.8 287 510.6C362.5 501.4 429.6 459.4 471.3 395.5C492.3 363.2 505.7 326.3 510.5 288C512.5 271.8 512.5 239.8 510.5 224.3C504.7 179 488.4 138.7 460.6 100.9L457.9 97.4001L460.7 91.4001C463.3 86.0001 463.5 84.5001 463.5 74.0001C463.5 63.2001 463.3 62.1001 460.4 55.9001C456.3 47.4001 448.6 39.6001 440.1 35.6001C434.3 32.9001 432.3 32.5001 423.5 32.3001C417.2 32.1001 412 32.5001 409.5 33.3001ZM433.5 56.3001C435.7 57.8001 438.6 60.6001 440 62.7001C442.1 65.8001 442.5 67.5001 442.5 74.1001C442.5 81.1001 442.2 82.2001 439.5 86.1001C428.9 101.1 406 96.8001 401.4 78.9001C399 69.6001 403.6 59.4001 412.2 55.1001C418.3 52.0001 427.9 52.5001 433.5 56.3001Z" fill="black"/>
<path d="M218.7 75.1008C215.2 77.2008 214 81.5008 214 92.3008V102.701L205.7 105.401C201.2 106.901 193 110.201 187.5 112.901L177.5 117.701L169.4 109.901C161.5 102.301 161.1 102.001 156.4 102.001H151.6L126.8 126.801C103.2 150.401 102 151.801 102 155.301C102 160.501 103.8 163.401 111.3 170.901L117.8 177.201L112.9 187.301C110.3 192.901 106.9 201.201 105.4 205.701L102.7 214.001H92.2998C81.3998 214.001 76.9998 215.201 75.1998 218.801C73.5998 221.701 72.7998 286.901 74.2998 291.001C76.1998 296.401 80.3998 298.001 92.6998 298.001H102.8L105.9 307.201C107.6 312.301 111 320.501 113.4 325.501L117.7 334.501L109.9 342.601C102.3 350.501 102 350.901 102 355.601V360.401L126.8 385.201C150.4 408.801 151.8 410.001 155.4 410.001C160.5 410.001 162.4 408.901 170.5 401.001L177.5 394.101L186 398.301C190.7 400.601 198.9 404.001 204.3 405.901L214 409.201V419.701C214 430.701 215.2 435.001 218.9 437.001C221.6 438.401 290.4 438.401 293.1 437.001C296.8 435.001 298 430.701 298 419.601V409.201L307.3 406.101C312.3 404.401 320.6 401.001 325.5 398.601L334.5 394.101L341.5 401.001C349.6 408.901 351.5 410.001 356.6 410.001C360.2 410.001 361.6 408.801 385.2 385.201L410 360.401V355.601C410 350.901 409.7 350.501 402.1 342.601L394.3 334.501L398.6 325.501C401 320.501 404.4 312.301 406.1 307.201L409.2 298.001H419.3C431.7 298.001 435.9 296.401 437.7 291.001C439.2 286.401 439.5 227.201 437.9 221.701C436.2 215.501 432.6 214.001 419.9 214.001H409.3L406.6 205.701C405.1 201.201 401.7 192.901 399.1 187.301L394.2 177.201L400.7 170.901C408.2 163.401 410 160.501 410 155.301C410 151.801 408.8 150.401 385.2 126.801L360.4 102.001H355.6C350.9 102.001 350.5 102.301 342.6 109.901L334.5 117.701L324.5 112.901C319 110.201 310.8 106.901 306.3 105.401L298 102.701V92.3008C298 81.3008 296.8 77.0008 293.1 75.0008C290.5 73.6008 221.1 73.7008 218.7 75.1008ZM277 104.501C277 114.601 277.1 115.101 279.8 117.901C281.8 120.001 284.7 121.301 291 123.001C302.1 125.901 314.4 131.001 325.3 137.201C337.1 143.901 338.8 143.601 348.5 134.001L355.5 127.001L370.2 141.701L384.9 156.401L377.5 164.101C368.1 173.701 368 174.901 375 187.101C380.8 197.101 387 212.401 389.5 222.801C390.8 228.401 391.9 230.601 394.2 232.501C396.9 234.801 397.9 235.001 407.6 235.001H418V256.001V277.001H408C402.6 277.001 397 277.501 395.6 278.101C393.3 279.201 390 284.301 390 286.901C390 290.801 382.7 309.601 376.9 320.801C372.7 328.801 370 335.301 370 337.201C370 339.701 371.4 341.701 377.5 347.901L384.9 355.501L370.3 370.201L355.6 384.901L347.9 377.501C341.7 371.401 339.6 370.001 337.1 370.001C335.3 370.001 329.2 372.601 321.8 376.401C309.8 382.701 297.5 387.501 287.5 389.901C278.3 392.101 277 394.301 277 407.901V418.001H256H235V407.901C235 394.301 233.7 392.101 224.5 389.901C214.5 387.501 202.2 382.701 190.2 376.401C182.8 372.601 176.7 370.001 174.9 370.001C172.4 370.001 170.3 371.401 164.1 377.501L156.4 384.901L141.7 370.201L127.1 355.501L134.5 347.901C140.6 341.701 142 339.701 142 337.201C142 335.301 139.3 328.801 135.1 320.801C129.3 309.601 122 290.801 122 286.901C122 284.301 118.7 279.201 116.4 278.101C115 277.501 109.4 277.001 103.8 277.001H93.6998L94.2998 257.201C94.6998 246.401 94.9998 236.901 94.9998 236.201C94.9998 235.301 97.6998 235.001 104.9 235.001C118.1 235.001 119.8 233.701 122.9 221.301C125.7 210.301 130.8 197.901 137.1 187.001C144 174.901 143.9 173.701 134.5 164.101L127.1 156.401L141.8 141.701L156.5 127.001L163.5 134.001C173.3 143.801 174.8 143.901 187.6 136.701C199 130.301 212.4 124.901 222.8 122.401C228.4 121.101 230.6 120.001 232.5 117.801C234.8 115.101 235 114.001 235 104.401V94.0008H256H277V104.501Z" fill="black"/>
<path d="M243.5 173.601C216 178.101 192.2 196.001 180.6 221.201C174.8 233.601 173.6 239.801 173.6 256.001C173.6 272.201 174.8 278.401 180.5 290.701C190.9 313.201 210.7 329.901 235 336.601C244.1 339.201 267.9 339.201 277 336.601C306.1 328.601 328.6 306.101 336.6 277.001C339.2 267.901 339.2 244.101 336.6 235.001C328.6 206.101 306 183.301 277.5 175.501C271.5 173.901 249.5 172.701 243.5 173.601ZM275.8 197.201C294.2 203.701 309.1 218.901 315.1 237.101C318.5 247.701 318.5 264.301 315.1 274.901C309 293.401 293.3 309.001 274.8 315.101C264.3 318.501 247.7 318.501 237.1 315.101C223.7 310.701 211 300.701 203.1 288.301C195.1 275.601 192 257.201 195.4 242.501C200.7 219.901 219.1 201.201 241.5 195.601C250.7 193.201 266.6 194.001 275.8 197.201Z" fill="black"/>
</g>
<defs>
<clipPath id="clip0_220_85">
<rect width="512" height="512" fill="white"/>
</clipPath>
</defs>
</svg>
