<svg width="15" height="16" viewBox="0 0 15 16" fill="none" xmlns="http://www.w3.org/2000/svg">
<path d="M12.5904 10.9702C11.6937 12.0383 10.447 12.794 9.04644 13.1184C8.93717 13.1418 8.83391 13.1855 8.74266 13.247C8.6514 13.3085 8.57396 13.3865 8.51484 13.4765L7.49192 15L6.47705 13.4765C6.42064 13.3858 6.345 13.3072 6.25489 13.2456C6.16479 13.184 6.06218 13.1407 5.95351 13.1184C4.58877 12.8023 3.3691 12.0764 2.47725 11.0495C1.58539 10.0226 1.06938 8.75008 1.00651 7.42253C0.943647 6.09497 1.33732 4.7839 2.12854 3.68574C2.91977 2.58758 4.06594 1.76147 5.39533 1.33118C6.72472 0.900897 8.16574 0.889605 9.50248 1.299C10.8392 1.70839 11.9997 2.51643 12.8101 3.60204C13.6204 4.68765 14.037 5.99237 13.9974 7.32073C13.9578 8.64908 13.4642 9.92953 12.5904 10.9702V10.9702Z" stroke="white" stroke-width="0.6" stroke-miterlimit="10"/>
<path d="M7.69 5.37V11.06" stroke="white" stroke-miterlimit="10" stroke-linecap="round"/>
<path d="M8.38 3.69C8.38 3.30892 8.07108 3 7.69 3C7.30892 3 7 3.30892 7 3.69C7 4.07108 7.30892 4.38 7.69 4.38C8.07108 4.38 8.38 4.07108 8.38 3.69Z" fill="white"/>
</svg>
