<svg width="13" height="15" viewBox="0 0 13 15" fill="none" xmlns="http://www.w3.org/2000/svg">
<path d="M2.17524 0.0387456C2.0739 0.116241 2.05303 0.2146 2.03813 0.733222L2.02025 1.25184H1.37346C0.753496 1.25184 0.72369 1.25483 0.643214 1.31742L0.559758 1.38001L0.577641 1.9344C0.595525 2.51561 0.652156 2.85242 0.807146 3.30845C1.13501 4.25032 1.79372 5.067 2.64915 5.57966C2.85183 5.70484 2.87567 5.72869 3.05451 6.02973C3.3317 6.48874 3.54929 6.76891 3.90696 7.1236C4.38385 7.59752 4.90545 7.9373 5.41513 8.1072L5.60589 8.17277V9.45144V10.7301H4.93824C4.32722 10.7301 4.26463 10.7361 4.20204 10.7867C4.1305 10.8434 4.1305 10.8523 4.12156 11.4723L4.11262 12.1012H3.56419C3.07239 12.1012 3.01278 12.1071 2.95019 12.1578L2.87865 12.2144L2.86971 13.2904L2.86077 14.3664H1.49566H0.130553L0.0679607 14.435C-0.0274181 14.5363 -0.0214569 14.7003 0.0798831 14.7807L0.160359 14.8433H6.50007H12.8398L12.9203 14.7807C13.0246 14.6973 13.0276 14.5423 12.9232 14.4409L12.8517 14.3664H11.4627H10.0768V13.2815V12.1936L9.99928 12.134C9.92476 12.0744 9.88005 12.0714 9.37335 12.0714H8.82493V11.4604C8.82493 10.8493 8.82493 10.8464 8.75041 10.7748L8.67888 10.7003H8.00526H7.33463V9.45442C7.33463 8.77187 7.34655 8.19661 7.35848 8.17873C7.3704 8.16383 7.46578 8.11912 7.57308 8.08037C8.46726 7.76443 9.30778 7.02226 9.87409 6.05059C10.0738 5.70782 10.1036 5.67802 10.4642 5.44553C10.8011 5.22795 11.2601 4.79278 11.5253 4.44107C11.7966 4.08638 12.1006 3.46344 12.2168 3.0402C12.348 2.55138 12.3808 2.30995 12.3837 1.8122C12.3867 1.4277 12.3808 1.36809 12.3331 1.3204C12.2854 1.27271 12.2079 1.26675 11.6297 1.25781L10.9769 1.24886L10.959 1.13858C10.9501 1.07897 10.9411 0.888213 10.9411 0.715339C10.9382 0.295076 10.9054 0.122202 10.8219 0.0536485C10.7593 0.00297856 10.5656 -2.02749e-06 6.48815 -2.02749e-06C3.18267 0.00297856 2.211 0.00893973 2.17524 0.0387456ZM10.503 0.944844C10.5328 1.6125 10.5268 2.10429 10.4911 2.51859C10.3331 4.34569 9.75785 5.77041 8.78022 6.75401C8.35697 7.17725 7.96056 7.43358 7.3853 7.64818C7.08426 7.75847 7.02167 7.80616 6.94418 7.97307C6.89351 8.08335 6.88754 8.19363 6.88754 9.39481V10.7003H6.51497H6.1424V9.43952C6.1424 8.61986 6.13048 8.13998 6.10961 8.06249C6.06192 7.88961 5.87116 7.71674 5.6506 7.64818C5.22736 7.51704 4.72364 7.21302 4.3451 6.85833C3.3168 5.88964 2.66405 4.33377 2.50608 2.47389C2.47329 2.07449 2.46733 1.56183 2.49714 0.929941L2.51502 0.476892H6.50007H10.4851L10.503 0.944844ZM2.00832 2.16688C2.04707 3.01933 2.19908 3.88668 2.44051 4.61097C2.54185 4.90903 2.52396 4.90604 2.17226 4.55135C1.50758 3.88668 1.10521 2.98953 1.05454 2.04766L1.03665 1.72874H1.51355H1.99044L2.00832 2.16688ZM11.9456 2.04766C11.9069 2.75108 11.6744 3.43662 11.272 4.03571C11.1319 4.25032 10.6967 4.72721 10.5507 4.83153L10.4702 4.88816L10.5566 4.63183C10.7981 3.91649 10.9531 3.04616 10.9918 2.16987L11.0097 1.72874H11.4866H11.9635L11.9456 2.04766ZM8.34803 11.6541V12.1012H6.48516H4.6223V11.6541V11.207H6.48516H8.34803V11.6541ZM9.62968 13.4573V14.3664H6.51497H3.40026V13.4573V12.5483H6.51497H9.62968V13.4573Z" fill="white"/>
<path d="M6.41661 1.54096C6.39575 1.54991 6.23778 1.83902 6.06192 2.18477C5.88905 2.5335 5.74598 2.81964 5.743 2.82262C5.73704 2.82858 5.43004 2.87627 5.06044 2.93588C4.68787 2.99251 4.35703 3.05212 4.32722 3.06702C4.26165 3.10279 4.23482 3.1624 4.23482 3.27567C4.23482 3.35912 4.24078 3.36508 5.07535 4.1758L5.27207 4.36656L5.15284 5.04911C5.05746 5.60946 5.04256 5.74657 5.06939 5.81513C5.10813 5.90752 5.24524 5.97608 5.3436 5.94925C5.38235 5.94031 5.67743 5.79426 6.00231 5.62139L6.59247 5.31141L7.16176 5.63629C7.47174 5.81513 7.74595 5.96117 7.76682 5.96117C7.7847 5.96117 7.84431 5.94627 7.89498 5.92839C8.0619 5.87176 8.06488 5.81214 7.93671 5.04613L7.82047 4.35464L8.32419 3.87476C8.60436 3.60651 8.83387 3.3621 8.84281 3.32037C8.86963 3.21605 8.83387 3.10577 8.76233 3.07C8.72955 3.05212 8.3987 2.98953 8.02613 2.9329C7.65654 2.87627 7.34954 2.82858 7.34655 2.82262C7.34357 2.81964 7.20051 2.5335 7.02763 2.18775C6.85476 1.842 6.69083 1.54991 6.664 1.53798C6.60737 1.51712 6.47324 1.51712 6.41661 1.54096ZM6.76832 2.80473C6.91139 3.09385 7.01273 3.26374 7.05148 3.28163C7.10215 3.30249 7.96354 3.42767 8.05892 3.42767C8.0768 3.42767 7.93075 3.59161 7.73105 3.79131C7.47174 4.05062 7.36146 4.18474 7.34954 4.24734C7.34059 4.29503 7.37338 4.5454 7.42107 4.79875C7.46876 5.05209 7.50453 5.26372 7.50155 5.2667C7.49856 5.26968 7.30185 5.16536 7.06638 5.03719C6.82197 4.90307 6.59843 4.80173 6.55074 4.79875C6.50007 4.79875 6.27652 4.8971 6.00529 5.04017C5.72512 5.18622 5.54628 5.26372 5.54628 5.23987C5.54628 5.21901 5.58503 4.99248 5.63272 4.73913C5.69233 4.40829 5.71021 4.25628 5.68935 4.20263C5.67445 4.1609 5.49859 3.97312 5.29889 3.78236L4.93824 3.43662L5.44196 3.37104C5.72213 3.3323 5.97548 3.28461 6.00827 3.26374C6.04106 3.24288 6.16922 3.03126 6.29143 2.78983C6.41363 2.55138 6.52093 2.35466 6.53285 2.35466C6.5418 2.35466 6.64612 2.55734 6.76832 2.80473Z" fill="white"/>
</svg>
