<svg width="11" height="14" viewBox="0 0 11 14" fill="none" xmlns="http://www.w3.org/2000/svg">
<line x1="0.25" y1="11.75" x2="1.75" y2="11.75" stroke="white" stroke-width="0.5" stroke-linecap="round"/>
<mask id="path-2-inside-1_81_499" fill="white">
<rect x="1" width="10" height="14" rx="0.4"/>
</mask>
<rect x="1" width="10" height="14" rx="0.4" stroke="white" mask="url(#path-2-inside-1_81_499)"/>
<line x1="2.25" y1="10.75" x2="9.75" y2="10.75" stroke="white" stroke-width="0.5" stroke-linecap="round"/>
<line x1="3.06818" y1="12.1029" x2="8.93181" y2="12.1029" stroke="white" stroke-width="0.5" stroke-linecap="round"/>
<path d="M6.82042 7.432H5.136C4.8911 7.43248 4.65641 7.52523 4.48341 7.68991C4.31042 7.85459 4.21327 8.07775 4.21327 8.3104V8.71C4.21374 8.71962 4.21625 8.72905 4.22063 8.73774C4.22501 8.74642 4.23119 8.75418 4.23878 8.76056C4.24638 8.76694 4.25525 8.7718 4.26486 8.77487C4.27447 8.77793 4.28463 8.77913 4.29474 8.7784C4.3049 8.7794 4.31517 8.77838 4.3249 8.77542C4.33463 8.77245 4.34361 8.7676 4.35127 8.76118C4.35892 8.75475 4.36509 8.74688 4.36939 8.73807C4.37368 8.72926 4.37601 8.71971 4.37621 8.71V8.3104C4.37621 8.11945 4.45606 7.93631 4.5982 7.80128C4.74033 7.66626 4.9331 7.5904 5.13411 7.5904H6.81853C7.01954 7.5904 7.21231 7.66626 7.35444 7.80128C7.49657 7.93631 7.57643 8.11945 7.57643 8.3104V8.71C7.5769 8.71962 7.57941 8.72905 7.58379 8.73774C7.58817 8.74642 7.59435 8.75418 7.60194 8.76056C7.60954 8.76694 7.61841 8.7718 7.62802 8.77487C7.63763 8.77793 7.64779 8.77913 7.6579 8.7784C7.66806 8.7794 7.67833 8.77838 7.68806 8.77542C7.69779 8.77245 7.70677 8.7676 7.71443 8.76118C7.72208 8.75475 7.72825 8.74688 7.73254 8.73807C7.73684 8.72926 7.73916 8.71971 7.73937 8.71V8.3104C7.73888 8.07851 7.64209 7.85617 7.47002 7.6917C7.29795 7.52722 7.06451 7.4339 6.82042 7.432V7.432Z" fill="white" stroke="white" stroke-width="0.2" stroke-miterlimit="10"/>
<path d="M5.98863 6.9874C6.1733 6.98705 6.35371 6.9347 6.50707 6.83697C6.66044 6.73925 6.77987 6.60053 6.85028 6.43835C6.92069 6.27617 6.93892 6.0978 6.90266 5.92578C6.86641 5.75376 6.77729 5.59581 6.64658 5.47188C6.51587 5.34796 6.34942 5.26362 6.16827 5.22952C5.98713 5.19543 5.79941 5.21311 5.62883 5.28032C5.45826 5.34754 5.31248 5.46128 5.20993 5.60718C5.10737 5.75307 5.05263 5.92457 5.05263 6.1C5.05263 6.21669 5.07685 6.33223 5.12391 6.44001C5.17098 6.54779 5.23995 6.6457 5.32689 6.72812C5.41383 6.81055 5.51703 6.87588 5.63058 6.92037C5.74413 6.96486 5.8658 6.98764 5.98863 6.9874V6.9874ZM5.21747 6.1C5.21747 5.95511 5.2627 5.81347 5.34744 5.69299C5.43217 5.57251 5.55261 5.47862 5.69352 5.42317C5.83443 5.36772 5.98949 5.35321 6.13908 5.38148C6.28867 5.40975 6.42607 5.47952 6.53392 5.58197C6.64177 5.68443 6.71522 5.81497 6.74497 5.95708C6.77473 6.09919 6.75946 6.24649 6.70109 6.38036C6.64272 6.51422 6.54388 6.62864 6.41706 6.70914C6.29025 6.78963 6.14115 6.8326 5.98863 6.8326C5.78426 6.83213 5.5884 6.75479 5.44389 6.6175C5.29938 6.48022 5.21797 6.29415 5.21747 6.1V6.1Z" fill="white" stroke="white" stroke-width="0.2" stroke-miterlimit="10"/>
<line x1="0.25" y1="3.75" x2="1.75" y2="3.75" stroke="white" stroke-width="0.5" stroke-linecap="round"/>
<line x1="0.25" y1="1.75" x2="1.75" y2="1.75" stroke="white" stroke-width="0.5" stroke-linecap="round"/>
<line x1="0.25" y1="5.75" x2="1.75" y2="5.75" stroke="white" stroke-width="0.5" stroke-linecap="round"/>
<line x1="0.25" y1="7.75" x2="1.75" y2="7.75" stroke="white" stroke-width="0.5" stroke-linecap="round"/>
<line x1="0.25" y1="9.75" x2="1.75" y2="9.75" stroke="white" stroke-width="0.5" stroke-linecap="round"/>
<circle cx="6" cy="7" r="2.8" stroke="white" stroke-width="0.4"/>
</svg>
