<svg width="14" height="14" viewBox="0 0 14 14" fill="none" xmlns="http://www.w3.org/2000/svg">
<g clip-path="url(#clip0_81_487)">
<path d="M6.45312 0.0492189C6.13594 0.166797 5.87891 0.396484 5.75586 0.664453C5.65195 0.885938 5.63281 1.05273 5.63281 1.65156C5.63281 2.2668 5.65742 2.42539 5.79141 2.66055L5.87617 2.81094L5.78594 2.82734C5.48789 2.88477 5.14883 3.16914 4.9957 3.4918L4.9082 3.67773L4.9 5.27188L4.8918 6.86328L4.96016 6.93164L5.02851 7H7H8.97148L9.03984 6.93164L9.1082 6.86328L9.1 5.27188L9.0918 3.67773L9.0043 3.4918C8.85117 3.16914 8.51211 2.88477 8.21406 2.82734L8.12383 2.81094L8.20859 2.66055C8.25508 2.57852 8.30976 2.43906 8.32891 2.3543C8.37266 2.16836 8.38086 1.17305 8.33984 0.957031C8.26055 0.533203 7.95156 0.188672 7.53047 0.0437501C7.34453 -0.0191405 6.62812 -0.0164061 6.45312 0.0492189ZM7.47851 0.552344C7.59609 0.615234 7.73281 0.757422 7.80117 0.885938C7.85586 0.989844 7.86133 1.04453 7.86953 1.56406C7.88047 2.26406 7.85859 2.3707 7.65898 2.57031C7.49492 2.73438 7.33086 2.78906 7 2.78906C6.66914 2.78906 6.50508 2.73438 6.34375 2.57031C6.14961 2.37891 6.125 2.27227 6.125 1.61602C6.12773 1.23867 6.13867 1.05 6.16328 0.976172C6.23984 0.768359 6.39844 0.598828 6.58437 0.527734C6.73203 0.475781 7.36641 0.492188 7.47851 0.552344ZM6.75391 3.39063V3.5H7H7.24609V3.38789V3.27852L7.67812 3.28672C8.15391 3.29492 8.23867 3.31953 8.41094 3.4918C8.60781 3.68867 8.59961 3.60938 8.60781 5.13242L8.61601 6.50781H7H5.38672V5.18711C5.38672 4.41055 5.39766 3.83086 5.41406 3.77617C5.47148 3.57656 5.64101 3.4043 5.86523 3.3168C5.91445 3.29766 6.11133 3.28398 6.35195 3.28398L6.75391 3.28125V3.39063Z" fill="white"/>
<path d="M6.75391 4.9082V5.85156H7H7.24609V4.9082V3.96484H7H6.75391V4.9082Z" fill="white"/>
<path d="M4.80977 2.08633C4.4543 2.24766 4.24922 2.36524 3.92383 2.59219C2.73984 3.4207 1.94141 4.68672 1.69805 6.12227C1.62148 6.56797 1.62422 6.60352 1.71992 6.70195C1.89219 6.87149 2.11094 6.75938 2.14375 6.47774C2.32422 5.03399 3.07344 3.78711 4.26016 2.9668C4.38867 2.87656 4.68125 2.70977 4.9082 2.59766C5.22813 2.43633 5.32656 2.37617 5.35391 2.31602C5.42227 2.1711 5.3293 2.0043 5.16797 1.97969C5.09414 1.96875 5.01211 1.99336 4.80977 2.08633Z" fill="white"/>
<path d="M8.7582 1.99609C8.62969 2.05078 8.5832 2.26406 8.67617 2.37344C8.69258 2.39531 8.85937 2.48281 9.04805 2.57305C10.1965 3.11719 11.0797 4.05508 11.5391 5.21719C11.673 5.55898 11.7934 6.01836 11.8426 6.37109C11.8727 6.59258 11.8891 6.6418 11.952 6.70469C12.0531 6.80859 12.1734 6.80586 12.2801 6.70195C12.3758 6.60352 12.3785 6.56797 12.302 6.12227C12.0887 4.86445 11.4488 3.73516 10.4727 2.89297C10.1883 2.64961 9.69336 2.32695 9.32969 2.15469C8.97969 1.98516 8.85937 1.95234 8.7582 1.99609Z" fill="white"/>
<path d="M1.54212 7.05195C1.15384 7.19414 0.883134 7.48945 0.776494 7.88867C0.74915 7.98438 0.738213 8.21406 0.738213 8.6543C0.738213 9.24492 0.743681 9.29414 0.803838 9.46641C0.839384 9.56484 0.894072 9.68516 0.926884 9.72891L0.984306 9.81094L0.883134 9.83008C0.639775 9.87383 0.349931 10.0762 0.196806 10.3059C-0.00280301 10.6066 -6.86275e-05 10.5766 -6.86275e-05 12.3238V13.8824L0.062822 13.9398L0.125713 14H2.10267H4.07688L4.14251 13.9316L4.21087 13.866V12.3402C4.21087 11.1535 4.20267 10.7844 4.17259 10.6777C4.06595 10.273 3.74056 9.93945 3.36048 9.84375L3.23196 9.81094L3.3222 9.64141C3.45345 9.38711 3.48079 9.17109 3.46438 8.50664C3.45071 7.88594 3.43157 7.78477 3.27298 7.54141C3.14993 7.34727 2.98313 7.20234 2.76438 7.09844C2.58665 7.01641 2.57571 7.01367 2.13274 7.0082C1.75267 7.00273 1.6597 7.01094 1.54212 7.05195ZM2.61126 7.57695C2.75892 7.67266 2.8847 7.81758 2.92845 7.94883C2.95579 8.02266 2.96673 8.2168 2.96673 8.64063V9.22852L2.88743 9.38711C2.79993 9.57031 2.62767 9.7125 2.44173 9.75898C2.2722 9.80273 1.89212 9.79453 1.72532 9.74531C1.55853 9.69609 1.38899 9.55664 1.30423 9.39531C1.24681 9.28867 1.24407 9.24766 1.24407 8.64063C1.24407 7.92422 1.25228 7.88047 1.44368 7.68906C1.61868 7.5168 1.71438 7.48945 2.13274 7.49766C2.47728 7.50586 2.51009 7.51133 2.61126 7.57695ZM1.85931 10.3906V10.5H2.1054H2.35149V10.3906V10.2813H2.75618C3.11985 10.2813 3.17181 10.2867 3.29485 10.3469C3.46712 10.4262 3.57376 10.5328 3.65306 10.7051L3.71868 10.8418V12.1734V13.5078H2.1054H0.492119V12.1598V10.8117L0.563213 10.6695C0.601494 10.5902 0.678056 10.4918 0.732744 10.4453C0.896806 10.3113 1.00892 10.2867 1.45735 10.284L1.85931 10.2813V10.3906Z" fill="white"/>
<path d="M1.85938 11.9082V12.8516H2.10547H2.35156V11.9082V10.9648H2.10547H1.85938V11.9082Z" fill="white"/>
<path d="M11.3723 7.04102C11.0824 7.14766 10.8773 7.30625 10.727 7.54141C10.5684 7.78477 10.5492 7.88594 10.5355 8.50664C10.5191 9.17109 10.5465 9.38711 10.6777 9.64141L10.768 9.81094L10.6395 9.84375C10.2594 9.93945 9.93398 10.273 9.82734 10.6777C9.79727 10.7844 9.78906 11.1535 9.78906 12.3402V13.866L9.85742 13.9316L9.92305 14H11.9027H13.8824L13.9398 13.9371L14 13.8742V12.3211C14 10.5766 14.0027 10.6066 13.8031 10.3059C13.65 10.0762 13.3602 9.87383 13.1168 9.83008L13.0156 9.81094L13.073 9.72891C13.1059 9.68516 13.1605 9.56484 13.1961 9.46641C13.2562 9.29414 13.2617 9.24492 13.2617 8.6543C13.2617 8.21406 13.2508 7.98438 13.2234 7.88867C13.1168 7.48398 12.8406 7.18594 12.4469 7.05195C12.3238 7.0082 12.2199 7 11.8836 7.00273C11.6156 7.00273 11.4379 7.01641 11.3723 7.04102ZM12.3484 7.54414C12.4879 7.60703 12.6328 7.74922 12.7039 7.89141C12.7504 7.98711 12.7559 8.06094 12.7559 8.64063C12.7559 9.24766 12.7531 9.28867 12.6957 9.39531C12.6109 9.55664 12.4414 9.69609 12.2746 9.74531C12.1078 9.79453 11.7277 9.80273 11.5582 9.75898C11.3723 9.7125 11.2 9.57031 11.1125 9.38711L11.0332 9.22852V8.64063C11.0332 8.21133 11.0441 8.02266 11.0715 7.94609C11.1344 7.76836 11.334 7.57695 11.5254 7.5168C11.5555 7.50586 11.7277 7.49766 11.9082 7.49492C12.1734 7.49492 12.2582 7.50313 12.3484 7.54414ZM11.6484 10.3906V10.5H11.8945H12.1406V10.3906V10.2813H12.5316C13.0949 10.2813 13.2836 10.3633 13.4367 10.6695L13.5078 10.8117V12.1598V13.5078H11.8945H10.2812V12.1734V10.8418L10.3469 10.7051C10.4262 10.5328 10.5328 10.4262 10.7051 10.3469C10.8281 10.2867 10.8801 10.2813 11.2465 10.2813H11.6484V10.3906Z" fill="white"/>
<path d="M11.6484 11.9082V12.8516H11.8945H12.1406V11.9082V10.9648H11.8945H11.6484V11.9082Z" fill="white"/>
<path d="M4.59375 11.3395C4.50078 11.375 4.42969 11.468 4.42969 11.5582C4.42969 11.7004 4.4707 11.7496 4.67031 11.8508C5.34844 12.1926 6.14141 12.3676 7 12.3676C7.54687 12.3676 7.86953 12.3293 8.35078 12.2062C8.85664 12.0777 9.48281 11.8152 9.54297 11.7059C9.59219 11.6129 9.57578 11.4707 9.51016 11.4078C9.39258 11.3012 9.32148 11.3039 9.03164 11.4379C7.74375 12.0258 6.25898 12.0258 4.97383 11.4406C4.71406 11.3203 4.67305 11.3094 4.59375 11.3395Z" fill="white"/>
</g>
<defs>
<clipPath id="clip0_81_487">
<rect width="14" height="14" fill="white"/>
</clipPath>
</defs>
</svg>
