<svg width="16" height="10" viewBox="0 0 16 10" fill="none" xmlns="http://www.w3.org/2000/svg">
<path d="M13.7838 4H11.5545C11.2304 4.00071 10.9198 4.13845 10.6909 4.38301C10.4619 4.62756 10.3333 4.95895 10.3333 5.30445V5.89787C10.334 5.91216 10.3373 5.92617 10.3431 5.93906C10.3489 5.95196 10.357 5.96349 10.3671 5.97296C10.3772 5.98243 10.3889 5.98965 10.4016 5.9942C10.4143 5.99875 10.4278 6.00054 10.4412 5.99945C10.4546 6.00093 10.4682 5.99942 10.4811 5.99502C10.494 5.99062 10.5058 5.98341 10.516 5.97387C10.5261 5.96432 10.5343 5.95264 10.5399 5.93956C10.5456 5.92648 10.5487 5.91228 10.549 5.89787V5.30445C10.549 5.02088 10.6547 4.74892 10.8428 4.5484C11.0309 4.34788 11.286 4.23523 11.552 4.23523H13.7813C14.0473 4.23523 14.3024 4.34788 14.4906 4.5484C14.6787 4.74892 14.7843 5.02088 14.7843 5.30445V5.89787C14.785 5.91216 14.7883 5.92617 14.7941 5.93906C14.7999 5.95196 14.8081 5.96349 14.8181 5.97296C14.8282 5.98243 14.8399 5.98965 14.8526 5.9942C14.8653 5.99875 14.8788 6.00054 14.8922 5.99945C14.9056 6.00093 14.9192 5.99942 14.9321 5.99502C14.945 5.99062 14.9568 5.98341 14.967 5.97387C14.9771 5.96432 14.9853 5.95264 14.991 5.93956C14.9966 5.92648 14.9997 5.91228 15 5.89787V5.30445C14.9993 4.96009 14.8712 4.62991 14.6435 4.38566C14.4158 4.14141 14.1068 4.00282 13.7838 4V4Z" fill="white" stroke="white" stroke-width="0.2" stroke-miterlimit="10"/>
<path d="M4.45048 4H2.22121C1.89709 4.00071 1.58648 4.13845 1.35753 4.38301C1.12858 4.62756 0.999999 4.95895 1 5.30445V5.89787C1.00063 5.91216 1.00395 5.92617 1.00975 5.93906C1.01555 5.95196 1.02372 5.96349 1.03377 5.97296C1.04383 5.98243 1.05556 5.98965 1.06828 5.9942C1.081 5.99875 1.09445 6.00054 1.10783 5.99945C1.12128 6.00093 1.13487 5.99942 1.14775 5.99502C1.16063 5.99062 1.17251 5.98341 1.18264 5.97387C1.19277 5.96432 1.20094 5.95264 1.20662 5.93956C1.2123 5.92648 1.21538 5.91228 1.21565 5.89787V5.30445C1.21565 5.02088 1.32133 4.74892 1.50944 4.5484C1.69755 4.34788 1.95267 4.23523 2.2187 4.23523H4.44797C4.71399 4.23523 4.96912 4.34788 5.15723 4.5484C5.34533 4.74892 5.45102 5.02088 5.45102 5.30445V5.89787C5.45165 5.91216 5.45496 5.92617 5.46076 5.93906C5.46656 5.95196 5.47473 5.96349 5.48479 5.97296C5.49484 5.98243 5.50658 5.98965 5.5193 5.9942C5.53202 5.99875 5.54546 6.00054 5.55884 5.99945C5.57229 6.00093 5.58588 5.99942 5.59876 5.99502C5.61164 5.99062 5.62352 5.98341 5.63365 5.97387C5.64379 5.96432 5.65195 5.95264 5.65763 5.93956C5.66332 5.92648 5.66639 5.91228 5.66667 5.89787V5.30445C5.66602 4.96009 5.53791 4.62991 5.31019 4.38566C5.08246 4.14141 4.77352 4.00282 4.45048 4V4Z" fill="white" stroke="white" stroke-width="0.2" stroke-miterlimit="10"/>
<path d="M9.11715 7H6.88788C6.56377 7.00071 6.25315 7.13845 6.0242 7.38301C5.79525 7.62756 5.66667 7.95895 5.66667 8.30445V8.89787C5.6673 8.91216 5.67062 8.92617 5.67642 8.93906C5.68222 8.95196 5.69039 8.96349 5.70044 8.97296C5.7105 8.98243 5.72223 8.98965 5.73495 8.9942C5.74767 8.99875 5.76112 9.00054 5.7745 8.99945C5.78795 9.00093 5.80154 8.99942 5.81442 8.99502C5.8273 8.99062 5.83918 8.98341 5.84931 8.97387C5.85944 8.96432 5.86761 8.95264 5.87329 8.93956C5.87898 8.92648 5.88205 8.91228 5.88233 8.89787V8.30445C5.88233 8.02088 5.98801 7.74892 6.17611 7.5484C6.36422 7.34788 6.61935 7.23523 6.88537 7.23523H9.11464C9.38067 7.23523 9.63579 7.34788 9.8239 7.5484C10.012 7.74892 10.1177 8.02088 10.1177 8.30445V8.89787C10.1183 8.91216 10.1216 8.92617 10.1274 8.93906C10.1332 8.95196 10.1414 8.96349 10.1515 8.97296C10.1615 8.98243 10.1732 8.98965 10.186 8.9942C10.1987 8.99875 10.2121 9.00054 10.2255 8.99945C10.239 9.00093 10.2526 8.99942 10.2654 8.99502C10.2783 8.99062 10.2902 8.98341 10.3003 8.97387C10.3105 8.96432 10.3186 8.95264 10.3243 8.93956C10.33 8.92648 10.3331 8.91228 10.3333 8.89787V8.30445C10.3327 7.96009 10.2046 7.62991 9.97686 7.38566C9.74913 7.14141 9.44019 7.00282 9.11715 7V7Z" fill="white" stroke="white" stroke-width="0.2" stroke-miterlimit="10"/>
<path d="M12.6695 4C12.9463 3.9994 13.2167 3.91091 13.4465 3.74572C13.6764 3.58054 13.8554 3.34606 13.9609 3.07192C14.0664 2.79777 14.0938 2.49627 14.0394 2.2055C13.9851 1.91473 13.8515 1.64774 13.6556 1.43827C13.4597 1.22879 13.2102 1.08623 12.9387 1.0286C12.6672 0.970969 12.3859 1.00085 12.1302 1.11447C11.8746 1.22809 11.6561 1.42035 11.5024 1.66696C11.3487 1.91357 11.2667 2.20346 11.2667 2.5C11.2667 2.69724 11.303 2.89254 11.3735 3.07472C11.444 3.25691 11.5474 3.42241 11.6777 3.56173C11.808 3.70106 11.9627 3.81149 12.1329 3.88669C12.3031 3.96189 12.4854 4.0004 12.6695 4V4ZM11.5137 2.5C11.5137 2.25508 11.5815 2.01566 11.7085 1.81201C11.8355 1.60837 12.016 1.44965 12.2272 1.35592C12.4384 1.2622 12.6708 1.23767 12.895 1.28545C13.1192 1.33324 13.3251 1.45118 13.4868 1.62436C13.6484 1.79755 13.7585 2.0182 13.8031 2.25841C13.8477 2.49862 13.8248 2.74761 13.7373 2.97389C13.6498 3.20016 13.5017 3.39357 13.3116 3.52964C13.1216 3.66571 12.8981 3.73833 12.6695 3.73833C12.3632 3.73753 12.0697 3.6068 11.8531 3.37475C11.6365 3.14269 11.5145 2.82818 11.5137 2.5V2.5Z" fill="white" stroke="white" stroke-width="0.2" stroke-miterlimit="10"/>
<path d="M3.33616 4C3.61293 3.9994 3.88332 3.91091 4.11318 3.74572C4.34303 3.58054 4.52204 3.34606 4.62756 3.07192C4.73309 2.79777 4.76041 2.49627 4.70607 2.2055C4.65173 1.91473 4.51817 1.64774 4.32226 1.43827C4.12636 1.22879 3.8769 1.08623 3.6054 1.0286C3.33391 0.970969 3.05256 1.00085 2.79691 1.11447C2.54125 1.22809 2.32278 1.42035 2.16907 1.66696C2.01536 1.91357 1.93332 2.20346 1.93332 2.5C1.93332 2.69724 1.96962 2.89254 2.04016 3.07472C2.11069 3.25691 2.21407 3.42241 2.34437 3.56173C2.47467 3.70106 2.62934 3.81149 2.79953 3.88669C2.96971 3.96189 3.15207 4.0004 3.33616 4V4ZM2.18038 2.5C2.18038 2.25508 2.24816 2.01566 2.37516 1.81201C2.50216 1.60837 2.68267 1.44965 2.89386 1.35592C3.10505 1.2622 3.33744 1.23767 3.56164 1.28545C3.78584 1.33324 3.99178 1.45118 4.15342 1.62436C4.31506 1.79755 4.42513 2.0182 4.46973 2.25841C4.51433 2.49862 4.49144 2.74761 4.40396 2.97389C4.31648 3.20016 4.16834 3.39357 3.97828 3.52964C3.78821 3.66571 3.56475 3.73833 3.33616 3.73833C3.02986 3.73753 2.73631 3.6068 2.51972 3.37475C2.30314 3.14269 2.18113 2.82818 2.18038 2.5V2.5Z" fill="white" stroke="white" stroke-width="0.2" stroke-miterlimit="10"/>
<path d="M8.00285 7C8.27962 6.9994 8.55001 6.91091 8.77987 6.74572C9.00972 6.58054 9.18872 6.34606 9.29425 6.07192C9.39978 5.79777 9.4271 5.49627 9.37276 5.2055C9.31842 4.91473 9.18486 4.64774 8.98895 4.43827C8.79305 4.22879 8.54358 4.08623 8.27209 4.0286C8.00059 3.97097 7.71924 4.00085 7.46359 4.11447C7.20794 4.22809 6.98946 4.42035 6.83575 4.66696C6.68205 4.91357 6.60001 5.20346 6.60001 5.5C6.60001 5.69724 6.63631 5.89254 6.70684 6.07472C6.77738 6.25691 6.88076 6.42241 7.01106 6.56173C7.14136 6.70106 7.29603 6.81149 7.46621 6.88669C7.6364 6.96189 7.81876 7.0004 8.00285 7V7ZM6.84706 5.5C6.84706 5.25508 6.91485 5.01566 7.04185 4.81201C7.16885 4.60837 7.34936 4.44965 7.56055 4.35592C7.77174 4.2622 8.00413 4.23767 8.22833 4.28545C8.45253 4.33324 8.65847 4.45118 8.82011 4.62436C8.98175 4.79755 9.09182 5.0182 9.13642 5.25841C9.18101 5.49862 9.15813 5.74761 9.07065 5.97389C8.98317 6.20016 8.83503 6.39357 8.64496 6.52964C8.4549 6.66571 8.23144 6.73833 8.00285 6.73833C7.69654 6.73753 7.403 6.6068 7.18641 6.37475C6.96982 6.14269 6.84781 5.82818 6.84706 5.5V5.5Z" fill="white" stroke="white" stroke-width="0.2" stroke-miterlimit="10"/>
</svg>
