<svg width="15" height="14" viewBox="0 0 15 14" fill="none" xmlns="http://www.w3.org/2000/svg">
<path d="M0.957031 0.0498171C0.527734 0.183801 0.180469 0.536536 0.0519531 0.965833C0.00273438 1.12443 0 1.33497 0 5.6881C0 10.0713 0.00273438 10.249 0.0519531 10.3912C0.136719 10.6401 0.21875 10.774 0.380078 10.9381C0.544141 11.0994 0.678125 11.1815 0.926953 11.2662C1.05547 11.31 1.15938 11.3182 1.70078 11.3182C2.35977 11.3182 2.3543 11.3182 2.30781 11.4385C2.28047 11.5123 2.21484 11.5315 1.59414 11.66C1.26602 11.7256 0.940625 11.8049 0.869531 11.8377C0.525 11.9881 0.246094 12.2998 0.139453 12.6471C0.0847656 12.8193 0 13.4701 0 13.708C0 13.7983 0.0164062 13.8502 0.0710938 13.9131L0.142188 13.9979H3.23203H6.32188L6.40117 13.9186C6.49688 13.8229 6.49961 13.7709 6.43945 13.2322C6.36289 12.5486 6.25898 12.3135 5.91445 12.0264C5.70117 11.8514 5.53438 11.7912 4.8918 11.66C4.56094 11.5916 4.26836 11.526 4.24102 11.5096C4.17266 11.474 4.15625 11.4221 4.15625 11.2526V11.1104L4.41875 10.96C4.71406 10.7959 4.86445 10.6455 4.97383 10.4158C5.04219 10.2682 5.04492 10.249 5.05313 9.59825L5.06406 8.92833L5.16523 8.81349C5.30469 8.6549 5.33203 8.54825 5.35117 8.10529C5.37031 7.65138 5.3375 7.40255 5.23086 7.19747C5.13516 7.00607 4.91094 6.80099 4.70859 6.71896C4.55547 6.6588 4.53086 6.65607 3.21289 6.6424L1.87305 6.62872L1.7418 6.54943C1.56953 6.44825 1.38086 6.45646 1.25508 6.57677C1.1293 6.69708 1.11289 6.80919 1.1293 7.43536C1.14297 8.05607 1.16211 8.15997 1.32344 8.42794L1.41914 8.58654L1.42734 9.42599C1.43555 10.2354 1.43828 10.2709 1.49844 10.4022C1.53398 10.476 1.59688 10.5854 1.64336 10.6401L1.72539 10.744H1.42734C1.16484 10.744 1.11563 10.7358 0.989844 10.6729C0.828516 10.5936 0.7 10.4568 0.617969 10.2818C0.560547 10.1561 0.560547 10.1397 0.552344 7.22208L0.544141 4.29083H2.05625C3.00781 4.29083 3.60664 4.2799 3.66953 4.26349C3.79258 4.22794 3.88281 4.1213 3.88281 4.01193C3.88281 3.91349 3.81719 3.78224 3.74883 3.74396C3.71328 3.72755 3.14727 3.71661 2.12188 3.71661H0.546875V3.34747V2.97833H6.26172H11.9766V3.2381V3.49786H9.63047C7.04922 3.49786 7.13672 3.4924 6.78125 3.67013C6.53789 3.79044 6.19609 4.13224 6.07852 4.37286C5.90625 4.72286 5.90625 4.73654 5.90625 6.27325C5.90625 7.80997 5.90625 7.82365 6.07852 8.17365C6.13867 8.29669 6.23164 8.417 6.38477 8.57013C6.7375 8.92286 7.05195 9.04865 7.57969 9.04865H7.875V9.49708C7.875 9.93458 7.87773 9.94825 7.94336 10.0276C8.02539 10.126 8.14844 10.1561 8.26602 10.1041C8.31523 10.0822 8.58047 9.83615 8.85938 9.55724L9.36524 9.04865H10.675H11.982L11.9711 9.60372C11.9602 10.0877 11.952 10.1725 11.9027 10.2818C11.8234 10.4568 11.6949 10.5908 11.5336 10.6729L11.3914 10.744H9.36797C8.03086 10.744 7.30625 10.7549 7.23789 10.774C7.12578 10.8041 7.02734 10.9272 7.02734 11.0393C7.02734 11.124 7.09844 11.2553 7.16133 11.2908C7.19688 11.31 7.93242 11.3182 9.33242 11.3182C11.6539 11.3182 11.5309 11.3264 11.8672 11.1541C12.023 11.0748 12.2801 10.8178 12.3594 10.6619C12.5098 10.3666 12.5234 10.2846 12.5234 9.65021V9.05411L12.652 9.03497C13.2508 8.94474 13.8004 8.44161 13.959 7.83185C14.0191 7.59122 14.0191 4.95529 13.959 4.71466C13.825 4.2088 13.4367 3.77677 12.9473 3.59357C12.857 3.55802 12.723 3.52247 12.652 3.51154L12.5234 3.4924V2.30841C12.5234 1.20646 12.5207 1.11349 12.4688 0.952161C12.3375 0.525598 11.9711 0.167395 11.5418 0.0416136C11.4078 0.00333233 10.8691 -0.00213642 6.25078 0.000597954C1.43828 0.00333233 1.09648 0.00606709 0.957031 0.0498171ZM11.5063 0.656848C11.6977 0.752551 11.7934 0.850989 11.8918 1.06427C11.9574 1.20919 11.9629 1.23927 11.9711 1.80802L11.982 2.40411H6.26172H0.541406L0.552344 1.80802C0.560547 1.23927 0.566016 1.20919 0.631641 1.06427C0.730078 0.850989 0.825781 0.752551 1.01719 0.656848L1.18398 0.572083H6.26172H11.3395L11.5063 0.656848ZM12.4742 4.06935C12.9801 4.13497 13.3629 4.51779 13.4285 5.01818C13.4586 5.26427 13.4586 7.28224 13.4285 7.52833C13.3629 8.02872 12.9801 8.41154 12.4742 8.47716C12.373 8.4881 11.5719 8.49904 10.6941 8.50177H9.09727L8.77188 8.82169L8.44922 9.14161V8.97482C8.44922 8.74239 8.42461 8.64943 8.34531 8.57013C8.27969 8.5045 8.26328 8.50177 7.94609 8.50177C7.76563 8.49904 7.5332 8.4881 7.43203 8.47716C7.06016 8.42794 6.7457 8.20646 6.58164 7.8756L6.49414 7.69513V6.27325V4.85138L6.56797 4.69552C6.72109 4.37013 7.06016 4.11583 7.40195 4.07208C7.62617 4.04474 12.2527 4.042 12.4742 4.06935ZM3.13086 7.21661C4.2957 7.21661 4.39688 7.22208 4.50078 7.26857C4.63477 7.32872 4.71953 7.43263 4.76055 7.58029C4.80156 7.73614 4.78242 8.37872 4.73594 8.42521C4.70859 8.45255 4.44609 8.46075 3.4918 8.46075H2.2832L2.14102 8.39513C1.98242 8.32404 1.82383 8.16544 1.75547 8.01232C1.72539 7.94396 1.70898 7.79904 1.70078 7.53927L1.68984 7.16466L1.78008 7.18927C1.83477 7.20568 2.40898 7.21661 3.13086 7.21661ZM3.28945 9.01583L4.48711 9.02404L4.47891 9.59005C4.4707 10.126 4.46797 10.1615 4.41055 10.2436C4.34492 10.3311 3.38789 10.9053 3.26211 10.9299C3.16914 10.9463 2.18203 10.383 2.08086 10.2545L2.00977 10.1615L2.00156 9.55997C1.99336 8.98849 1.99609 8.96115 2.04258 8.98302C2.06992 8.99669 2.63047 9.01036 3.28945 9.01583ZM3.24023 11.5096C3.28945 11.5096 3.38516 11.4932 3.45352 11.4713C3.57383 11.4358 3.58203 11.4358 3.58203 11.4822C3.58203 11.5068 3.61758 11.5998 3.66133 11.6846L3.73789 11.8404L3.64766 11.8787C3.39883 11.9826 3.07344 11.9826 2.82461 11.8787L2.73711 11.8404L2.8 11.7229C2.83555 11.6572 2.87383 11.567 2.88477 11.5205L2.90117 11.433L3.02695 11.4713C3.09531 11.4932 3.19102 11.5096 3.24023 11.5096ZM2.28867 12.2315C2.58945 12.442 2.85195 12.524 3.24023 12.524C3.63398 12.524 3.89922 12.442 4.1918 12.226L4.32578 12.1303L4.81797 12.2315C5.35391 12.3408 5.45781 12.3818 5.6082 12.5404C5.775 12.7154 5.81602 12.8303 5.86523 13.2651L5.88164 13.4236H3.24297C1.14844 13.4236 0.601563 13.4154 0.601563 13.3881C0.601563 13.2322 0.672656 12.8412 0.719141 12.7428C0.790234 12.5951 0.943359 12.4393 1.08555 12.3736C1.17852 12.3326 1.99336 12.1467 2.11094 12.1412C2.13828 12.1385 2.21758 12.1795 2.28867 12.2315Z" fill="white"/>
<path d="M1.34805 1.26115C1.26328 1.30216 1.19492 1.46076 1.21406 1.5674C1.23867 1.70138 1.34258 1.78341 1.4875 1.78615C1.63516 1.78888 1.73906 1.70685 1.76641 1.56466C1.81016 1.32677 1.57227 1.15451 1.34805 1.26115Z" fill="white"/>
<path d="M2.64961 1.26935C2.55664 1.31857 2.50469 1.44708 2.52656 1.56466C2.58125 1.86271 3.02148 1.86544 3.0789 1.5674C3.12265 1.32677 2.87109 1.14904 2.64961 1.26935Z" fill="white"/>
<path d="M3.96758 1.26661C3.81172 1.35138 3.78437 1.55919 3.90742 1.69865C3.97578 1.77521 4.00586 1.78888 4.1125 1.78888C4.2875 1.78888 4.38867 1.68771 4.38867 1.51271C4.38867 1.40607 4.375 1.37599 4.29844 1.30763C4.2 1.22013 4.07969 1.20372 3.96758 1.26661Z" fill="white"/>
<path d="M7.3582 1.26661C7.20234 1.35138 7.175 1.55919 7.29804 1.69865L7.37734 1.78888H9.16015H10.943L11.0223 1.69865C11.148 1.55919 11.1125 1.33497 10.9512 1.26115C10.8418 1.21193 7.44844 1.2174 7.3582 1.26661Z" fill="white"/>
<path d="M7.45117 5.49396C7.37461 5.52404 7.25977 5.59786 7.19687 5.65802C7.02461 5.82482 6.96445 5.96154 6.95078 6.22677C6.93984 6.43732 6.94531 6.46466 7.02461 6.62872C7.17227 6.92404 7.4293 7.08536 7.76562 7.08536C8.09922 7.08536 8.35898 6.92404 8.50391 6.63146C8.71992 6.19396 8.52031 5.66075 8.07734 5.49396C7.88594 5.42286 7.63437 5.42286 7.45117 5.49396ZM7.94062 6.08458C8.03633 6.18302 8.03906 6.33341 7.94336 6.43458C7.7957 6.59318 7.51953 6.48107 7.51953 6.25958C7.51953 6.18575 7.53867 6.13654 7.59062 6.08458C7.64258 6.03263 7.6918 6.01349 7.76562 6.01349C7.83945 6.01349 7.88867 6.03263 7.94062 6.08458Z" fill="white"/>
<path d="M9.63867 5.49396C9.56211 5.52404 9.44727 5.59786 9.38437 5.65802C9.21211 5.82482 9.15195 5.96154 9.13828 6.22677C9.12734 6.43732 9.13281 6.46466 9.21211 6.62872C9.35977 6.92404 9.6168 7.08536 9.95312 7.08536C10.284 7.08536 10.5465 6.92677 10.6887 6.63693C10.8008 6.41544 10.809 6.13107 10.7078 5.91232C10.5246 5.5213 10.0516 5.33536 9.63867 5.49396ZM10.1281 6.08458C10.2238 6.18302 10.2266 6.33341 10.1309 6.43458C9.9832 6.59318 9.70703 6.48107 9.70703 6.25958C9.70703 6.18575 9.72617 6.13654 9.77812 6.08458C9.83008 6.03263 9.8793 6.01349 9.95312 6.01349C10.027 6.01349 10.0762 6.03263 10.1281 6.08458Z" fill="white"/>
<path d="M11.8262 5.49396C11.7496 5.52404 11.6348 5.59786 11.5719 5.65802C11.3996 5.82482 11.3395 5.96154 11.3258 6.22677C11.3148 6.43732 11.3203 6.46466 11.3996 6.62872C11.5473 6.92404 11.8043 7.08536 12.1406 7.08536C12.4715 7.08536 12.734 6.92677 12.8762 6.63693C12.9883 6.41544 12.9965 6.13107 12.8953 5.91232C12.7121 5.5213 12.2391 5.33536 11.8262 5.49396ZM12.3156 6.08458C12.3676 6.13654 12.3867 6.18575 12.3867 6.25958C12.3867 6.33341 12.3676 6.38263 12.3156 6.43458C12.2637 6.48654 12.2145 6.50568 12.1406 6.50568C12.0668 6.50568 12.0176 6.48654 11.9656 6.43458C11.9137 6.38263 11.8945 6.33341 11.8945 6.25958C11.8945 6.18575 11.9137 6.13654 11.9656 6.08458C12.0176 6.03263 12.0668 6.01349 12.1406 6.01349C12.2145 6.01349 12.2637 6.03263 12.3156 6.08458Z" fill="white"/>
<path d="M4.42696 3.79591C4.31758 3.90528 4.31485 4.06388 4.42422 4.18146C4.6211 4.39474 4.95742 4.21427 4.9 3.92169C4.86172 3.71661 4.58281 3.64278 4.42696 3.79591Z" fill="white"/>
<path d="M6.1332 10.7658C5.99922 10.7877 5.89805 10.96 5.92813 11.1131C5.96641 11.3182 6.24531 11.392 6.40117 11.2389C6.59531 11.042 6.41485 10.7193 6.1332 10.7658Z" fill="white"/>
</svg>
