<svg width="12" height="14" viewBox="0 0 12 14" fill="none" xmlns="http://www.w3.org/2000/svg">
<g clip-path="url(#clip0_92_26)">
<path d="M6.82042 7.575H5.136C4.8911 7.5755 4.6564 7.67212 4.48341 7.84366C4.31042 8.0152 4.21326 8.24765 4.21326 8.49V8.90625C4.21374 8.91627 4.21625 8.9261 4.22063 8.93514C4.22501 8.94419 4.23118 8.95227 4.23878 8.95892C4.24638 8.96556 4.25525 8.97063 4.26486 8.97382C4.27447 8.97701 4.28463 8.97826 4.29474 8.9775C4.3049 8.97854 4.31517 8.97748 4.3249 8.97439C4.33463 8.97131 4.34361 8.96625 4.35127 8.95956C4.35892 8.95286 4.36509 8.94467 4.36939 8.93549C4.37368 8.92632 4.376 8.91636 4.37621 8.90625V8.49C4.37621 8.29109 4.45606 8.10032 4.5982 7.95967C4.74033 7.81902 4.9331 7.74 5.13411 7.74H6.81853C7.01954 7.74 7.21231 7.81902 7.35444 7.95967C7.49657 8.10032 7.57642 8.29109 7.57642 8.49V8.90625C7.5769 8.91627 7.5794 8.9261 7.58379 8.93514C7.58817 8.94419 7.59434 8.95227 7.60194 8.95892C7.60954 8.96556 7.6184 8.97063 7.62802 8.97382C7.63763 8.97701 7.64779 8.97826 7.6579 8.9775C7.66806 8.97854 7.67833 8.97748 7.68806 8.97439C7.69779 8.97131 7.70677 8.96625 7.71442 8.95956C7.72208 8.95286 7.72825 8.94467 7.73254 8.93549C7.73684 8.92632 7.73916 8.91636 7.73937 8.90625V8.49C7.73888 8.24845 7.64208 8.01685 7.47002 7.84552C7.29795 7.67419 7.06451 7.57698 6.82042 7.575V7.575Z" fill="white" stroke="white" stroke-width="0.14" stroke-miterlimit="10"/>
<path d="M5.98863 7.11188C6.1733 7.1115 6.35371 7.05698 6.50707 6.95518C6.66043 6.85338 6.77987 6.70888 6.85028 6.53995C6.92069 6.37101 6.93892 6.1852 6.90266 6.00602C6.8664 5.82683 6.77729 5.6623 6.64658 5.53321C6.51586 5.40412 6.34942 5.31627 6.16827 5.28075C5.98713 5.24524 5.7994 5.26365 5.62883 5.33367C5.45825 5.40369 5.31248 5.52217 5.20992 5.67414C5.10737 5.82611 5.05263 6.00476 5.05263 6.1875C5.05263 6.30905 5.07685 6.4294 5.12391 6.54168C5.17097 6.65395 5.23995 6.75593 5.32689 6.8418C5.41383 6.92766 5.51703 6.99571 5.63058 7.04205C5.74413 7.08839 5.8658 7.11212 5.98863 7.11188V7.11188ZM5.21747 6.1875C5.21747 6.03657 5.2627 5.88903 5.34743 5.76353C5.43217 5.63803 5.55261 5.54022 5.69352 5.48246C5.83443 5.4247 5.98948 5.40959 6.13907 5.43904C6.28866 5.46848 6.42607 5.54116 6.53392 5.64789C6.64177 5.75461 6.71521 5.89059 6.74497 6.03862C6.77472 6.18665 6.75945 6.34009 6.70109 6.47954C6.64272 6.61898 6.54388 6.73816 6.41706 6.82201C6.29024 6.90587 6.14115 6.95062 5.98863 6.95062C5.78426 6.95013 5.5884 6.86957 5.44389 6.72656C5.29938 6.58356 5.21797 6.38974 5.21747 6.1875V6.1875Z" fill="white" stroke="white" stroke-width="0.14" stroke-miterlimit="10"/>
</g>
<mask id="path-3-inside-1_92_26" fill="white">
<rect width="12" height="14" rx="0.4"/>
</mask>
<rect width="12" height="14" rx="0.4" stroke="white" mask="url(#path-3-inside-1_92_26)"/>
<line y1="9.63235" x2="12" y2="9.63235" stroke="white" stroke-width="0.5"/>
<line x1="2.43181" y1="11.2794" x2="9.56817" y2="11.2794" stroke="white" stroke-width="0.5" stroke-linecap="round"/>
<mask id="path-6-inside-2_92_26" fill="white">
<rect x="2.18181" y="2.47059" width="7.63636" height="7.41176" rx="0.4"/>
</mask>
<rect x="2.18181" y="2.47059" width="7.63636" height="7.41176" rx="0.4" stroke="white" mask="url(#path-6-inside-2_92_26)"/>
<defs>
<clipPath id="clip0_92_26">
<rect width="6" height="5" fill="white" transform="translate(3 4)"/>
</clipPath>
</defs>
</svg>
