<svg width="9" height="14" viewBox="0 0 9 14" fill="none" xmlns="http://www.w3.org/2000/svg">
<g clip-path="url(#clip0_81_480)">
<path d="M5.18369 6.86H3.78C3.57592 6.8604 3.38034 6.93769 3.23618 7.07493C3.09202 7.21216 3.01105 7.39812 3.01105 7.592V7.925C3.01145 7.93302 3.01354 7.94088 3.01719 7.94812C3.02085 7.95535 3.02599 7.96182 3.03232 7.96713C3.03865 7.97245 3.04604 7.9765 3.05405 7.97906C3.06206 7.98161 3.07053 7.98261 3.07895 7.982C3.08742 7.98283 3.09598 7.98199 3.10409 7.97951C3.1122 7.97704 3.11968 7.973 3.12606 7.96765C3.13244 7.96229 3.13758 7.95573 3.14116 7.94839C3.14473 7.94105 3.14667 7.93309 3.14684 7.925V7.592C3.14684 7.43287 3.21339 7.28026 3.33183 7.16774C3.45027 7.05521 3.61092 6.992 3.77842 6.992H5.18211C5.34961 6.992 5.51026 7.05521 5.6287 7.16774C5.74714 7.28026 5.81369 7.43287 5.81369 7.592V7.925C5.81409 7.93302 5.81617 7.94088 5.81982 7.94812C5.82348 7.95535 5.82862 7.96182 5.83495 7.96713C5.84128 7.97245 5.84867 7.9765 5.85668 7.97906C5.86469 7.98161 5.87316 7.98261 5.88158 7.982C5.89005 7.98283 5.89861 7.98199 5.90672 7.97951C5.91483 7.97704 5.92231 7.973 5.92869 7.96765C5.93507 7.96229 5.94021 7.95573 5.94379 7.94839C5.94736 7.94105 5.9493 7.93309 5.94948 7.925V7.592C5.94907 7.39876 5.8684 7.21348 5.72501 7.07642C5.58162 6.93935 5.38709 6.86158 5.18369 6.86V6.86Z" fill="white" stroke="white" stroke-width="0.14" stroke-miterlimit="10"/>
<path d="M4.49053 6.4895C4.64442 6.4892 4.79476 6.44558 4.92256 6.36414C5.05036 6.28271 5.14989 6.16711 5.20857 6.03196C5.26724 5.89681 5.28243 5.74816 5.25222 5.60481C5.222 5.46146 5.14774 5.32984 5.03882 5.22657C4.92989 5.1233 4.79118 5.05301 4.64023 5.0246C4.48927 4.99619 4.33284 5.01092 4.19069 5.06694C4.04855 5.12295 3.92707 5.21774 3.8416 5.33931C3.75614 5.46089 3.71053 5.60381 3.71053 5.75C3.71053 5.84724 3.73071 5.94352 3.76993 6.03334C3.80915 6.12316 3.86663 6.20475 3.93908 6.27344C4.01153 6.34213 4.09753 6.39657 4.19215 6.43364C4.28678 6.47072 4.38817 6.4897 4.49053 6.4895V6.4895ZM3.84789 5.75C3.84789 5.62926 3.88558 5.51122 3.9562 5.41082C4.02681 5.31043 4.12718 5.23218 4.2446 5.18597C4.36203 5.13976 4.49124 5.12767 4.6159 5.15123C4.74056 5.17479 4.85506 5.23293 4.94494 5.31831C5.03481 5.40369 5.09601 5.51247 5.12081 5.6309C5.1456 5.74932 5.13288 5.87207 5.08424 5.98363C5.0356 6.09518 4.95323 6.19053 4.84755 6.25761C4.74187 6.3247 4.61763 6.3605 4.49053 6.3605C4.32022 6.3601 4.157 6.29566 4.03658 6.18125C3.91615 6.06685 3.84831 5.91179 3.84789 5.75V5.75Z" fill="white" stroke="white" stroke-width="0.14" stroke-miterlimit="10"/>
</g>
<mask id="path-3-inside-1_81_480" fill="white">
<rect width="9" height="13.5" rx="0.4"/>
</mask>
<rect width="9" height="13.5" rx="0.4" stroke="white" mask="url(#path-3-inside-1_81_480)"/>
<mask id="path-4-inside-2_81_480" fill="white">
<rect x="1.63636" y="2.38235" width="5.72727" height="7.14706" rx="0.4"/>
</mask>
<rect x="1.63636" y="2.38235" width="5.72727" height="7.14706" rx="0.4" stroke="white" mask="url(#path-4-inside-2_81_480)"/>
<line y1="9.27941" x2="9" y2="9.27941" stroke="white" stroke-width="0.5"/>
<line x1="1.88636" y1="10.8676" x2="7.11363" y2="10.8676" stroke="white" stroke-width="0.5" stroke-linecap="round"/>
<defs>
<clipPath id="clip0_81_480">
<rect width="5" height="4" fill="white" transform="translate(2 4)"/>
</clipPath>
</defs>
</svg>
