<svg width="14" height="14" viewBox="0 0 14 14" fill="none" xmlns="http://www.w3.org/2000/svg">
<path d="M5.81055 0.0601565C5.80234 0.0957034 5.73398 0.497656 5.66016 0.957031C5.58359 1.41641 5.51523 1.82383 5.50703 1.86211C5.49609 1.92773 5.46055 1.94688 5.2418 2.02344C5.10508 2.06992 4.87812 2.16563 4.73594 2.23125L4.47891 2.35156L3.76523 1.84023C3.37148 1.55859 3.01055 1.30156 2.9668 1.26875L2.88203 1.20586L2.04531 2.04531L1.20859 2.88477L1.78008 3.6832L2.35156 4.47891L2.23125 4.73594C2.16562 4.87813 2.06992 5.10508 2.02344 5.2418C1.94687 5.46055 1.92773 5.49609 1.86211 5.50703C1.82383 5.51523 1.41641 5.58359 0.957031 5.66016C0.497656 5.73398 0.0957031 5.80234 0.0628906 5.81055L0 5.82422V7V8.17578L0.0628906 8.18945C0.0957031 8.19766 0.497656 8.26602 0.957031 8.33984C1.41641 8.41641 1.82383 8.48477 1.86211 8.49297C1.92773 8.50391 1.94687 8.53945 2.02344 8.7582C2.06992 8.89492 2.16562 9.12188 2.23125 9.26406L2.35156 9.52109L1.78008 10.3168L1.20859 11.1152L2.04531 11.9547L2.88203 12.7941L2.9668 12.7313C3.01055 12.6984 3.37148 12.4414 3.76523 12.1598L4.47891 11.6484L4.73594 11.7688C4.87812 11.8344 5.10508 11.9301 5.2418 11.9766C5.46055 12.0531 5.49609 12.0723 5.50703 12.1379C5.51523 12.1762 5.58359 12.5836 5.66016 13.043C5.73398 13.5023 5.80234 13.9043 5.81055 13.9398L5.82422 14H7H8.17578L8.18945 13.9398C8.19766 13.9043 8.26602 13.5023 8.33984 13.043C8.41641 12.5836 8.48477 12.1762 8.49297 12.1379C8.50391 12.0723 8.53945 12.0531 8.7582 11.9766C8.89492 11.9301 9.12187 11.8344 9.26406 11.7688L9.52109 11.6484L10.2348 12.1598C10.6285 12.4414 10.9895 12.6984 11.0332 12.7313L11.118 12.7941L11.9547 11.9547L12.7914 11.1152L12.2199 10.3168L11.6484 9.52109L11.7687 9.26406C11.8344 9.12188 11.9301 8.89492 11.9766 8.7582C12.0531 8.53945 12.0723 8.50391 12.1379 8.49297C12.1762 8.48477 12.5836 8.41641 13.043 8.33984C13.5023 8.26602 13.9043 8.19766 13.9398 8.18945L14 8.17578V7V5.82422L13.9398 5.81055C13.9043 5.80234 13.5023 5.73398 13.043 5.66016C12.5836 5.58359 12.1762 5.51523 12.1379 5.50703C12.0723 5.49609 12.0531 5.46055 11.9766 5.2418C11.9301 5.10508 11.8344 4.87813 11.7687 4.73594L11.6484 4.47891L12.2199 3.6832L12.7914 2.88477L11.9547 2.04531L11.118 1.20586L11.0332 1.26875C10.9895 1.30156 10.6285 1.55859 10.2348 1.84023L9.52109 2.35156L9.26406 2.23125C9.12187 2.16563 8.89492 2.06992 8.7582 2.02344C8.53945 1.94688 8.50391 1.92773 8.49297 1.86211C8.48477 1.82383 8.41641 1.41641 8.33984 0.957031C8.26602 0.497656 8.19766 0.0957034 8.18945 0.0601565L8.17578 2.38419e-07H7H5.82422L5.81055 0.0601565ZM7.95703 1.32891C8.03906 1.83203 8.11289 2.25313 8.12109 2.26406C8.1293 2.27773 8.29336 2.33789 8.4875 2.40078C8.79375 2.50195 9.38164 2.76719 9.48008 2.84922C9.49922 2.86563 9.53203 2.87109 9.55391 2.86289C9.57578 2.85469 9.92031 2.61133 10.3223 2.32695C10.7215 2.03984 11.0551 1.80469 11.0687 1.80469C11.0934 1.80469 12.1953 2.90664 12.1953 2.93125C12.1953 2.94219 11.9602 3.27852 11.673 3.67773C11.3887 4.07969 11.1453 4.42422 11.1371 4.44609C11.1289 4.46797 11.1344 4.50078 11.1508 4.51992C11.2328 4.61836 11.498 5.20625 11.5992 5.5125C11.6621 5.70664 11.7223 5.8707 11.7359 5.87891C11.7469 5.88711 12.168 5.96094 12.6711 6.04297L13.5898 6.19336V7V7.80664L12.6711 7.95703C12.168 8.03906 11.7469 8.11289 11.7359 8.12109C11.7223 8.1293 11.6621 8.29336 11.5992 8.4875C11.498 8.79375 11.2328 9.38164 11.1508 9.48008C11.1344 9.49922 11.1289 9.53203 11.1371 9.55391C11.1453 9.57578 11.3887 9.92031 11.673 10.3223C11.9602 10.7215 12.1953 11.0551 12.1953 11.0688C12.1953 11.0934 11.0934 12.1953 11.0687 12.1953C11.0578 12.1953 10.7215 11.9602 10.3223 11.673C9.92031 11.3887 9.57578 11.1453 9.55391 11.1371C9.53203 11.1289 9.49922 11.1344 9.48008 11.1508C9.38164 11.2328 8.79375 11.498 8.4875 11.5992C8.29336 11.6621 8.1293 11.7223 8.12109 11.7359C8.11289 11.7469 8.03906 12.168 7.95703 12.6711L7.80664 13.5898H7H6.19336L6.04297 12.6711C5.96094 12.168 5.88711 11.7469 5.87891 11.7359C5.8707 11.7223 5.70664 11.6621 5.5125 11.5992C5.20625 11.498 4.61836 11.2328 4.51992 11.1508C4.50078 11.1344 4.46797 11.1289 4.44609 11.1371C4.42422 11.1453 4.07969 11.3887 3.67773 11.673C3.27852 11.9602 2.94492 12.1953 2.93125 12.1953C2.90664 12.1953 1.80469 11.0934 1.80469 11.0688C1.80469 11.0578 2.03984 10.7215 2.32695 10.3223C2.61133 9.92031 2.85469 9.57578 2.86289 9.55391C2.87109 9.53203 2.86562 9.49922 2.84922 9.48008C2.76719 9.38164 2.50195 8.79375 2.40078 8.4875C2.33789 8.29336 2.27773 8.1293 2.26406 8.12109C2.25312 8.11289 1.83203 8.03906 1.32891 7.95703L0.410156 7.80664V7V6.19336L1.32891 6.04297C1.83203 5.96094 2.25312 5.88711 2.26406 5.87891C2.27773 5.8707 2.33789 5.70664 2.40078 5.5125C2.50195 5.20625 2.76719 4.61836 2.84922 4.51992C2.86562 4.50078 2.87109 4.46797 2.86289 4.44609C2.85469 4.42422 2.61133 4.07969 2.32695 3.67773C2.03984 3.27852 1.80469 2.94492 1.80469 2.93125C1.80469 2.90664 2.90664 1.80469 2.93125 1.80469C2.94219 1.80469 3.27852 2.03984 3.67773 2.32695C4.07969 2.61133 4.42422 2.85469 4.44609 2.86289C4.46797 2.87109 4.50078 2.86563 4.51992 2.84922C4.61836 2.76719 5.20625 2.50195 5.5125 2.40078C5.70664 2.33789 5.8707 2.27773 5.87891 2.26406C5.88711 2.25313 5.96094 1.83203 6.04297 1.32891L6.19336 0.410156H7H7.80664L7.95703 1.32891Z" fill="white"/>
<path d="M6.36014 2.80273C6.02381 2.86015 5.77772 2.92578 5.52068 3.02421C4.13436 3.54921 3.15818 4.68945 2.83826 6.15234C2.78631 6.39843 2.77811 6.51875 2.77811 7C2.77811 7.48125 2.78631 7.60156 2.83826 7.84765C3.2074 9.54023 4.45975 10.7926 6.15233 11.1617C6.39842 11.2137 6.51873 11.2219 6.99998 11.2219C7.48123 11.2219 7.60154 11.2137 7.84764 11.1617C9.54022 10.7926 10.7926 9.54023 11.1617 7.84765C11.2137 7.60156 11.2219 7.48125 11.2219 7C11.2219 6.51875 11.2137 6.39843 11.1617 6.15234C10.7926 4.46523 9.53748 3.20468 7.86131 2.84375C7.50857 2.76718 6.68826 2.74531 6.36014 2.80273ZM7.50037 3.22929C9.41443 3.5164 10.8008 5.0996 10.8008 7C10.8008 9.09179 9.09178 10.8008 6.99998 10.8008C4.90818 10.8008 3.1992 9.09179 3.1992 7C3.1992 4.9164 4.88358 3.21835 6.96717 3.20195C7.15311 3.19921 7.39373 3.21289 7.50037 3.22929Z" fill="white"/>
<path d="M4.83984 7V9.84375H7H9.16016V7.92148V6.00195L8.2168 5.55078L7.27344 5.09961V4.62656V4.15625H6.05664H4.83984V7ZM6.83594 7V9.40625H6.05664H5.27734V7V4.59375H6.05664H6.83594V7ZM8.01172 5.9418L8.70898 6.27813L8.71719 7.84219L8.72266 9.40625H7.99805H7.27344V7.50586C7.27344 6.46133 7.28164 5.60547 7.29531 5.60547C7.30625 5.60547 7.62891 5.75859 8.01172 5.9418Z" fill="white"/>
<path d="M5.44141 5.23633V5.44141H6.04297H6.64453V5.23633V5.03125H6.04297H5.44141V5.23633Z" fill="white"/>
<path d="M5.44141 5.87891V6.09766H6.04297H6.64453V5.87891V5.66016H6.04297H5.44141V5.87891Z" fill="white"/>
<path d="M5.44141 6.50781V6.72656H6.04297H6.64453V6.50781V6.28906H6.04297H5.44141V6.50781Z" fill="white"/>
<path d="M5.44141 7.16406V7.38281H6.04297H6.64453V7.16406V6.94531H6.04297H5.44141V7.16406Z" fill="white"/>
<path d="M5.44141 7.79297V8.01172H6.04297H6.64453V7.79297V7.57422H6.04297H5.44141V7.79297Z" fill="white"/>
<path d="M7.46484 7.80664V9.13281H7.68359H7.90234V7.80664V6.48047H7.68359H7.46484V7.80664Z" fill="white"/>
<path d="M8.09375 6.69922V6.91797H8.3125H8.53125V6.69922V6.48047H8.3125H8.09375V6.69922Z" fill="white"/>
<path d="M8.09375 7.38281V7.60156H8.3125H8.53125V7.38281V7.16406H8.3125H8.09375V7.38281Z" fill="white"/>
<path d="M8.09375 8.49023V9.13281H8.3125H8.53125V8.49023V7.84766H8.3125H8.09375V8.49023Z" fill="white"/>
<path d="M7.5879 4.43242C7.56056 4.5418 7.54962 4.63477 7.56329 4.6457C7.57696 4.65938 7.65626 4.68945 7.73829 4.71406C8.1922 4.85625 8.61602 5.15977 8.91134 5.55078C8.99884 5.66836 9.07813 5.78047 9.0836 5.79961C9.09181 5.82422 9.15196 5.80234 9.28595 5.72852C9.38985 5.67109 9.47735 5.62188 9.48282 5.61641C9.49649 5.60547 9.35157 5.38945 9.19845 5.19531C8.88399 4.79609 8.36993 4.44609 7.86134 4.29024C7.7711 4.26289 7.6836 4.23828 7.6672 4.23828C7.64806 4.23828 7.61251 4.32578 7.5879 4.43242Z" fill="white"/>
<path d="M10.1883 5.92266C10.0844 5.9582 9.99413 5.99375 9.98593 5.99922C9.98046 6.00742 9.99413 6.10039 10.0215 6.20703C10.0598 6.36016 10.0789 6.39844 10.1144 6.3875C10.1391 6.3793 10.2348 6.36016 10.3305 6.34102L10.5027 6.3082L10.4836 6.22344C10.4754 6.17695 10.4453 6.07578 10.4207 5.99922L10.3769 5.85977L10.1883 5.92266Z" fill="white"/>
<path d="M4.26561 6.20156C4.14257 6.63906 4.12889 7.23789 4.2328 7.66445C4.26288 7.78203 4.29022 7.88047 4.29569 7.88594C4.30116 7.89141 4.39413 7.86953 4.49804 7.83672C4.71679 7.76836 4.70858 7.79024 4.63749 7.42383C4.57186 7.07656 4.58554 6.77305 4.69218 6.31094C4.71132 6.22891 4.70311 6.22344 4.43514 6.14414L4.29569 6.10039L4.26561 6.20156Z" fill="white"/>
<path d="M9.48829 6.16328C9.28594 6.23438 9.29141 6.21524 9.36251 6.57617C9.38438 6.69649 9.40352 6.88789 9.40352 7C9.40352 7.11211 9.38438 7.30352 9.36251 7.42383C9.29141 7.79024 9.28321 7.76563 9.50743 7.83399L9.70704 7.89688L9.73712 7.78203C9.87384 7.27617 9.87384 6.7211 9.73712 6.2125C9.71798 6.14961 9.6961 6.09766 9.68516 6.10039C9.67423 6.10039 9.58673 6.13047 9.48829 6.16328Z" fill="white"/>
<path d="M10.418 6.57891C10.3797 6.58711 10.2977 6.59805 10.2348 6.60625L10.1172 6.61992V6.78125C10.1172 7.02734 10.1172 7.02734 10.3687 7.02734C10.5574 7.02734 10.5848 7.02188 10.5711 6.98359C10.5629 6.95898 10.5547 6.85508 10.5547 6.75117C10.5547 6.61719 10.5437 6.5625 10.5219 6.56523C10.5027 6.56797 10.4562 6.57344 10.418 6.57891Z" fill="white"/>
<path d="M10.0926 7.47578C10.0242 7.91328 9.84648 8.36992 9.59765 8.7418L9.45273 8.95234L9.55937 9.04531C9.61953 9.09726 9.69335 9.15742 9.7289 9.18203C9.78906 9.22305 9.79726 9.22031 9.85742 9.14375C10.1746 8.75 10.4672 8.02266 10.541 7.4457L10.5602 7.30351L10.4672 7.28984C10.418 7.28164 10.3195 7.2707 10.2512 7.26523L10.1254 7.2543L10.0926 7.47578Z" fill="white"/>
</svg>
