<svg width="14" height="12" viewBox="0 0 14 12" fill="none" xmlns="http://www.w3.org/2000/svg">
<g clip-path="url(#clip0_72_5)">
<path fill-rule="evenodd" clip-rule="evenodd" d="M12.1547 1.09311C11.5395 0.43479 10.7053 0.0649696 9.83546 0.0649696C8.96563 0.0649696 8.13141 0.43479 7.51625 1.09311L6.58462 2.08336L5.63988 1.07204C5.33728 0.736648 4.97531 0.469129 4.57509 0.285092C4.17488 0.101054 3.74443 0.00418428 3.30886 0.000132586C2.8733 -0.00391911 2.44134 0.0849285 2.0382 0.261493C1.63506 0.438057 1.2688 0.698802 0.960796 1.02851C0.652794 1.35822 0.409213 1.75029 0.244274 2.18185C0.0793344 2.61341 -0.00366107 3.07581 0.00012386 3.54207C0.00390879 4.00833 0.0944023 4.46912 0.266323 4.89754C0.438243 5.32597 0.688148 5.71345 1.00146 6.03738L6.56494 12L12.1547 6.07952C12.4621 5.75307 12.7062 5.36469 12.8727 4.93677C13.0393 4.50886 13.125 4.04988 13.125 3.58631C13.125 3.12274 13.0393 2.66376 12.8727 2.23585C12.7062 1.80793 12.4621 1.41955 12.1547 1.09311V1.09311ZM11.6889 5.55981L10.672 6.64839L10.0159 7.30154L6.5715 10.9957L1.48695 5.54576C1.24295 5.28486 1.04938 4.97503 0.917319 4.63399C0.785254 4.29295 0.717277 3.9274 0.717277 3.55822C0.717277 3.18904 0.785254 2.82348 0.917319 2.48245C1.04938 2.14141 1.24295 1.83158 1.48695 1.57068C1.98617 1.06023 2.64998 0.775389 3.34035 0.775389C4.03072 0.775389 4.69453 1.06023 5.19375 1.57068L6.60431 3.08065L7.99518 1.58472C8.4955 1.07381 9.1604 0.78877 9.85186 0.78877C10.5433 0.78877 11.2082 1.07381 11.7085 1.58472C11.9513 1.84701 12.1433 2.15793 12.2737 2.49972C12.4041 2.84151 12.4702 3.20745 12.4684 3.57663C12.4666 3.94581 12.3968 4.31099 12.263 4.65127C12.1293 4.99156 11.9342 5.30029 11.6889 5.55981V5.55981Z" fill="black"/>
</g>
<defs>
<clipPath id="clip0_72_5">
<rect width="14" height="12" fill="white"/>
</clipPath>
</defs>
</svg>
