<svg xmlns="http://www.w3.org/2000/svg" viewBox="0 0 12.92 11.76"><defs><style>.cls-1{fill-rule:evenodd;}</style></defs><g id="Layer_2" data-name="Layer 2"><g id="Layer_1-2" data-name="Layer 1"><path class="cls-1" d="M12.68,2.17A3.66,3.66,0,0,0,12,1.06a3,3,0,0,0-4.49,0l-1,1.07L5.46,1A3.11,3.11,0,0,0,3.21,0h0A3.07,3.07,0,0,0,2,.25,3.26,3.26,0,0,0,.93,1,3.39,3.39,0,0,0,.24,2.12,3.32,3.32,0,0,0,0,3.44,3.49,3.49,0,0,0,.26,4.76,3.24,3.24,0,0,0,1,5.87l5.49,5.89L12,5.91a3.55,3.55,0,0,0,.7-1.11,3.72,3.72,0,0,0,0-2.63Zm-.43,2.42a3.05,3.05,0,0,1-.59.94l-1,1.09L10,7.27,6.47,11,6.4,11,1.31,5.52a3.1,3.1,0,0,1-.59-.95,3,3,0,0,1,0-2.22,3.1,3.1,0,0,1,.59-1,2.67,2.67,0,0,1,3.85,0L6.5,2.84,7.82,1.42a2.66,2.66,0,0,1,3.86,0,2.79,2.79,0,0,1,.58,1,2.8,2.8,0,0,1,.2,1.11A3,3,0,0,1,12.25,4.59Z"/></g></g></svg>