<svg width="24" height="24" viewBox="0 0 24 24" fill="none" xmlns="http://www.w3.org/2000/svg">
<path d="M7.8 21.6C7.8 22.1523 8.24772 22.6 8.8 22.6C9.35229 22.6 9.8 22.1523 9.8 21.6H7.8ZM14.2 21.6C14.2 22.1523 14.6477 22.6 15.2 22.6C15.7523 22.6 16.2 22.1523 16.2 21.6H14.2ZM11.2582 2.62525L11.8184 3.45361L11.8184 3.45361L11.2582 2.62525ZM12.7418 2.62525L13.302 1.79689L12.7418 2.62525ZM21.0618 8.25177L20.5016 9.08013L21.0618 8.25177ZM2.93821 8.25177L2.37802 7.4234L2.37802 7.4234L2.93821 8.25177ZM9.8 21.6V14.2964H7.8V21.6H9.8ZM10.08 14.0791H13.92V12.0791H10.08V14.0791ZM14.2 14.2964V21.6H16.2V14.2964H14.2ZM13.92 14.0791C14.1226 14.0791 14.2 14.2231 14.2 14.2964H16.2C16.2 13.025 15.1313 12.0791 13.92 12.0791V14.0791ZM9.8 14.2964C9.8 14.2231 9.87742 14.0791 10.08 14.0791V12.0791C8.86873 12.0791 7.8 13.025 7.8 14.2964H9.8ZM20.6 9.24379V19.7741H22.6V9.24379H20.6ZM19.68 20.6H4.32V22.6H19.68V20.6ZM3.4 19.7741V9.24379H1.4V19.7741H3.4ZM3.4984 9.08013L11.8184 3.45361L10.698 1.79689L2.37802 7.4234L3.4984 9.08013ZM12.1816 3.45361L20.5016 9.08013L21.622 7.4234L13.302 1.79689L12.1816 3.45361ZM11.8184 3.45361C11.9241 3.38213 12.0759 3.38213 12.1816 3.45362L13.302 1.79689C12.5195 1.26771 11.4805 1.2677 10.698 1.79689L11.8184 3.45361ZM4.32 20.6C3.76396 20.6 3.4 20.1835 3.4 19.7741H1.4C1.4 21.3815 2.75527 22.6 4.32 22.6V20.6ZM20.6 19.7741C20.6 20.1835 20.236 20.6 19.68 20.6V22.6C21.2447 22.6 22.6 21.3815 22.6 19.7741H20.6ZM22.6 9.24379C22.6 8.50427 22.2233 7.83006 21.622 7.4234L20.5016 9.08013C20.5756 9.13017 20.6 9.19526 20.6 9.24379H22.6ZM3.4 9.24379C3.4 9.19526 3.42441 9.13017 3.4984 9.08013L2.37802 7.4234C1.77669 7.83006 1.4 8.50428 1.4 9.24379H3.4Z" fill="black"/>
</svg>
