<?xml version="1.0" encoding="iso-8859-1"?>
<!-- Generator: Adobe Illustrator 19.0.0, SVG Export Plug-In . SVG Version: 6.00 Build 0)  -->
<svg version="1.1" id="Layer_1" xmlns="http://www.w3.org/2000/svg" xmlns:xlink="http://www.w3.org/1999/xlink" x="0px" y="0px"
	 viewBox="0 0 512 512" style="enable-background:new 0 0 512 512;" xml:space="preserve">
<g>
	<g>
		<path d="M435.703,381.937l-68.717-34.358c-2.267-1.135-4.936-1.135-7.202,0l-68.717,34.358c-2.728,1.364-4.452,4.152-4.452,7.202
			v111.665c0,4.448,3.605,8.053,8.053,8.053h51.538c4.447,0,8.053-3.604,8.053-8.053v-52.074h18.253v52.074
			c0,4.448,3.605,8.053,8.053,8.053h51.538c4.447,0,8.053-3.604,8.053-8.053V389.139
			C440.154,386.089,438.431,383.301,435.703,381.937z M424.049,492.751h-35.432v-52.074c0-4.448-3.606-8.053-8.053-8.053h-34.358
			c-4.447,0-8.053,3.604-8.053,8.053v52.074h-35.432v-98.634l60.664-30.332l60.664,30.332V492.751z"/>
	</g>
</g>
<g>
	<g>
		<path d="M461.727,364.891l-94.486-51.538c-2.404-1.311-5.309-1.311-7.712,0l-94.486,51.538c-3.905,2.13-5.344,7.021-3.214,10.926
			c2.129,3.903,7.021,5.342,10.925,3.213l90.63-49.434l90.63,49.434c1.224,0.668,2.546,0.986,3.848,0.985
			c2.852,0,5.614-1.518,7.078-4.197C467.071,371.911,465.631,367.02,461.727,364.891z"/>
	</g>
</g>
<g>
	<g>
		<path d="M221.656,115.882h-56.369V87.966h72.475c11.544,0,20.937-9.393,20.937-20.937s-9.393-20.937-20.937-20.937H212.53V24.081
			c0-11.544-9.393-20.937-20.937-20.937s-20.937,9.393-20.937,20.937v22.011h-10.2c-20.425,0-37.043,16.618-37.043,37.043v37.579
			c0,20.425,16.618,37.043,37.043,37.043h56.369v33.285H144.35c-11.544,0-20.937,9.393-20.937,20.937
			c0,11.544,9.393,20.937,20.937,20.937h26.306V256c0,11.544,9.393,20.937,20.937,20.937S212.53,267.545,212.53,256v-23.085h9.126
			c20.425,0,37.043-16.618,37.043-37.043v-42.948C258.699,132.5,242.081,115.882,221.656,115.882z M242.593,195.873
			c0,11.544-9.393,20.937-20.937,20.937h-17.179c-4.447,0-8.053,3.604-8.053,8.053V256c0,2.664-2.168,4.832-4.832,4.832
			c-2.664,0-4.832-2.168-4.832-4.832v-31.137c0-4.448-3.605-8.053-8.053-8.053H144.35c-2.664,0-4.832-2.168-4.832-4.832
			s2.168-4.832,4.832-4.832h77.306c6.217,0,11.274-5.057,11.274-11.274v-42.948c0-6.217-5.057-11.274-11.274-11.274h-61.201
			c-11.544,0-20.937-9.393-20.937-20.937V83.135c0-11.544,9.393-20.937,20.937-20.937h18.253c4.447,0,8.053-3.604,8.053-8.053
			V24.081c0-2.664,2.168-4.832,4.832-4.832c2.664,0,4.832,2.168,4.832,4.832v30.064c0,4.448,3.605,8.053,8.053,8.053h33.285
			c2.664,0,4.832,2.168,4.832,4.832c0,2.664-2.168,4.832-4.832,4.832h-77.306c-6.217,0-11.274,5.057-11.274,11.274v37.579
			c0,6.217,5.057,11.274,11.274,11.274h61.201c11.544,0,20.937,9.393,20.937,20.937V195.873z"/>
	</g>
</g>
<g>
	<g>
		<path d="M504.01,238.092h-34.1c-4.632-44.784-22.556-86.46-52.094-120.949c-2.894-3.377-7.977-3.771-11.354-0.877
			c-3.378,2.893-3.771,7.977-0.878,11.354c28.911,33.758,45.824,74.938,48.908,119.086c0.294,4.22,3.804,7.492,8.033,7.492h22.043
			l-41.297,41.298l-41.297-41.298h28.248c4.638,0,8.407-4.089,8.026-8.714c-6.733-81.716-65.783-149.837-144.941-168.669
			l5.042-15.345c27.652,6.802,54.018,19.527,76.649,37.043c3.516,2.722,8.575,2.078,11.296-1.439
			c2.722-3.517,2.078-8.575-1.44-11.296C358.4,65.301,327.2,50.893,294.627,44.114c-4.009-0.832-8.012,1.476-9.291,5.371
			l-10.13,30.829c-1.499,4.562,1.459,9.548,6.168,10.429c73.636,13.785,130.037,73.735,139.882,147.351h-38.722
			c-7.02,0-10.662,8.779-5.694,13.748l60.737,60.738c1.51,1.51,3.558,2.358,5.694,2.358c2.137,0,4.184-0.848,5.695-2.36
			l60.738-60.738C514.673,246.869,511.03,238.092,504.01,238.092z"/>
	</g>
</g>
<g>
	<g>
		<path d="M230.624,423.825c-73.636-13.785-130.037-73.735-139.882-147.351h38.723c7.02,0,10.662-8.779,5.694-13.748l-60.738-60.737
			c-3.144-3.144-8.243-3.144-11.388,0L2.296,262.726c-4.969,4.97-1.326,13.748,5.694,13.748h34.104
			c6.254,59.927,36.967,115.105,85.052,152.319c3.516,2.723,8.573,2.077,11.296-1.439c2.722-3.517,2.078-8.575-1.44-11.296
			c-46.454-35.954-75.428-89.97-79.496-148.197c-0.294-4.22-3.804-7.492-8.033-7.492H27.43l41.297-41.297l41.297,41.298H81.776
			c-4.638,0-8.407,4.089-8.026,8.714c6.734,81.716,65.783,149.837,144.943,168.67l-5.043,15.349
			c-14.17-3.477-27.961-8.476-41.09-14.899c-3.993-1.953-8.818-0.302-10.772,3.695c-1.954,3.994-0.301,8.818,3.695,10.772
			c16.489,8.066,33.948,14.05,51.891,17.786c0.551,0.114,1.102,0.17,1.646,0.17c3.413,0,6.541-2.183,7.644-5.541l10.13-30.83
			C238.291,429.691,235.333,424.705,230.624,423.825z"/>
	</g>
</g>
<g>
</g>
<g>
</g>
<g>
</g>
<g>
</g>
<g>
</g>
<g>
</g>
<g>
</g>
<g>
</g>
<g>
</g>
<g>
</g>
<g>
</g>
<g>
</g>
<g>
</g>
<g>
</g>
<g>
</g>
</svg>
