<svg xmlns="http://www.w3.org/2000/svg" viewBox="0 0 12.85 14.3"><defs><style>.cls-1{stroke:#000;stroke-miterlimit:10;stroke-width:0.3px;}</style></defs><g id="Layer_2" data-name="Layer 2"><g id="Layer_1-2" data-name="Layer 1"><path class="cls-1" d="M1.28,14.15a1.13,1.13,0,0,1-.81-.32A1.13,1.13,0,0,1,.15,13V1.28A1.13,1.13,0,0,1,.47.47,1.13,1.13,0,0,1,1.28.15h5.3V.61H1.28A.63.63,0,0,0,.82.82a.63.63,0,0,0-.21.46V13a.63.63,0,0,0,.21.46.63.63,0,0,0,.46.21h5.3v.46Zm8.93-4.57-.36-.31,1.89-1.89H4.24V6.92h7.5L9.85,5l.34-.33,2.45,2.45Z"/></g></g></svg>