<svg xmlns="http://www.w3.org/2000/svg" viewBox="0 0 11.69 12.38"><g id="Layer_2" data-name="Layer 2"><g id="Layer_1-2" data-name="Layer 1"><g id="Layer_2-2" data-name="Layer 2"><g id="Layer_1-2-2" data-name="Layer 1-2"><path d="M0,11V.53A.71.71,0,0,1,.79,0H9.51a.62.62,0,0,1,.6.63v1H11a.64.64,0,0,1,.69.58v8.55a1.76,1.76,0,0,1-.09.55A1.59,1.59,0,0,1,10,12.38H1.49A1.61,1.61,0,0,1,.07,11.22.38.38,0,0,1,0,11ZM10.11,2.23v8c0,.19,0,.21.22.26a.29.29,0,0,1,.25.33.3.3,0,0,1-.28.28h-.23a.79.79,0,0,1-.59-.85V.65H.64v10a1,1,0,0,0,1,1H10a1,1,0,0,0,1-1V2.23Z"/><path d="M4.54,5.4V3.91c0-.31.1-.42.41-.42H8c.31,0,.42.11.42.43v3c0,.3-.11.42-.41.42H5c-.31,0-.42-.11-.42-.42Zm.64,1.28H7.72V4.14H5.18Z"/><path d="M5.08,1.91H8a.33.33,0,0,1,.14,0,.28.28,0,0,1,.19.28.3.3,0,0,1-.17.31H2.08a.3.3,0,0,1-.31-.35A.3.3,0,0,1,2,1.87H5.08Z"/><path d="M6.38,10.44H4.85a.38.38,0,0,1-.28-.14.31.31,0,0,1,.1-.43.15.15,0,0,1,.07,0H8.15a.29.29,0,0,1,.22.31.31.31,0,0,1-.25.28H6.38Z"/><path d="M6.47,8.87H5a.34.34,0,0,1-.38-.3.3.3,0,0,1,.24-.32H8c.23,0,.35.09.39.26a.29.29,0,0,1-.21.35H6.47Z"/><path d="M2.82,4.11H2c-.12,0-.19-.12-.2-.3a.32.32,0,0,1,.13-.32H3.62c.13,0,.19.09.21.26a.37.37,0,0,1-.11.35h-.9Z"/><path d="M2.82,5.37H2c-.12,0-.19-.12-.2-.3a.33.33,0,0,1,.13-.32H3.62c.13,0,.19.09.21.26a.38.38,0,0,1-.11.36h-.9Z"/><path d="M2.82,6.64H2c-.12,0-.19-.12-.2-.3A.33.33,0,0,1,1.93,6H3.62c.13,0,.19.09.21.26a.36.36,0,0,1-.11.35h-.9Z"/><path d="M2.82,7.91H2c-.12,0-.19-.12-.2-.3a.33.33,0,0,1,.13-.32H3.62c.13,0,.19.09.21.26a.37.37,0,0,1-.11.35h-.9Z"/><path d="M2.82,9.18H2c-.12,0-.19-.12-.2-.3a.32.32,0,0,1,.13-.32H3.62c.13,0,.19.09.21.26a.37.37,0,0,1-.11.35h-.9Z"/><path d="M2.82,10.44H2c-.12,0-.19-.12-.2-.3a.33.33,0,0,1,.13-.32H3.62c.13,0,.19.09.21.26s0,.32-.11.35h-.9Z"/></g></g></g></g></svg>