<svg xmlns="http://www.w3.org/2000/svg" viewBox="0 0 13.97 12.34"><g id="Layer_2" data-name="Layer 2"><g id="Layer_1-2" data-name="Layer 1"><path d="M0,11V.52A.72.72,0,0,1,.79,0h11a.62.62,0,0,1,.6.63v1c.31,0,.6,0,.89,0a.64.64,0,0,1,.69.69v8.44a1.67,1.67,0,0,1-.09.55,1.58,1.58,0,0,1-1.57,1.06H1.49A1.59,1.59,0,0,1,.07,11.21C0,11.12,0,11,0,11ZM12.39,2.22v8c0,.19,0,.21.22.26a.3.3,0,0,1,.25.33.29.29,0,0,1-.28.28.58.58,0,0,1-.23,0,.8.8,0,0,1-.59-.85V.64H.64a.71.71,0,0,0,0,.14v9.89a1,1,0,0,0,1,1H12.32a1,1,0,0,0,1-1V2.22Z"/><path d="M1.9,5.39V3.9c0-.31.1-.42.41-.42h3c.31,0,.42.11.42.43v3c0,.3-.11.42-.41.42h-3c-.31,0-.42-.11-.42-.42Zm.64,1.28H5.08V4.13H2.54Z"/><path d="M6.21,1.9h3.85a.65.65,0,0,1,.19,0,.3.3,0,0,1,.24.28.29.29,0,0,1-.22.31.58.58,0,0,1-.19,0H2.31c-.27,0-.42-.13-.41-.35a.33.33,0,0,1,.26-.28H6.21Z"/><path d="M8.58,5.06H10.1a.37.37,0,0,1,.35.16.31.31,0,0,1-.19.46l-.2,0H7.11l-.19,0a.29.29,0,0,1-.24-.31.28.28,0,0,1,.25-.29l.18,0Z"/><path d="M8.59,7.28H7.06c-.22,0-.35-.1-.38-.26a.3.3,0,0,1,.25-.36l.16,0h3c.25,0,.38.09.4.28a.28.28,0,0,1-.24.34l-.18,0Z"/><path d="M8.59,4.12H7.06c-.26,0-.41-.15-.38-.37a.3.3,0,0,1,.25-.25l.18,0h3a.67.67,0,0,1,.24,0,.29.29,0,0,1,.18.3.3.3,0,0,1-.24.28l-.19,0Z"/><path d="M8.58,8.86H7.05c-.23,0-.36-.11-.37-.29a.3.3,0,0,1,.23-.33l.19,0h3a.79.79,0,0,1,.3.08.28.28,0,0,1,.11.32.28.28,0,0,1-.23.22l-.19,0Z"/><path d="M3.81,10.43H2.28A.36.36,0,0,1,2,10.29a.31.31,0,0,1,.17-.46l.21,0h3a.64.64,0,0,1,.2,0,.3.3,0,0,1,.22.31.3.3,0,0,1-.25.28H3.81Z"/><path d="M8.58,10.43H7c-.25,0-.39-.16-.35-.38A.33.33,0,0,1,7,9.8h3.06a.69.69,0,0,1,.2,0,.28.28,0,0,1,.22.3.29.29,0,0,1-.24.29H8.58Z"/><path d="M3.8,8.86H2.28c-.23,0-.36-.12-.38-.3a.3.3,0,0,1,.24-.32l.16,0h3c.23,0,.35.09.39.26a.29.29,0,0,1-.26.36c-.17,0-.35,0-.53,0Z"/></g></g></svg>