<svg xmlns="http://www.w3.org/2000/svg" viewBox="0 0 11.54 12.23"><g id="Layer_2" data-name="Layer 2"><g id="Layer_1-2" data-name="Layer 1"><g id="Layer_2-2" data-name="Layer 2"><g id="Layer_1-2-2" data-name="Layer 1-2"><path d="M11.35,1.77a.64.64,0,0,0-.42-.13H10V.57A.55.55,0,0,0,9.43,0H.72A.64.64,0,0,0,0,.47V10.94a.27.27,0,0,0,.06.16v0a1.52,1.52,0,0,0,1.35,1.1H10a1.51,1.51,0,0,0,1.43-1,1.82,1.82,0,0,0,.08-.52V2.16A.58.58,0,0,0,11.35,1.77ZM11,10.61A1.07,1.07,0,0,1,10,11.68H1.57A1.08,1.08,0,0,1,.49,10.61V.5h9v9.68A.72.72,0,0,0,10,11a.41.41,0,0,0,.19,0,.21.21,0,0,0,.22-.21.22.22,0,0,0-.18-.25c-.26-.06-.29-.11-.29-.33V2.08H11Z"/><path d="M7.88,3.49h-3c-.27,0-.34.07-.34.35v3c0,.26.08.34.35.34h3c.25,0,.33-.08.33-.34v-3C8.22,3.57,8.15,3.49,7.88,3.49ZM7.72,6.68H5V4H7.72Z"/><path d="M8.22,2.12a.21.21,0,0,1-.11.23H2a.24.24,0,0,1-.17-.06.28.28,0,0,1-.07-.21.25.25,0,0,1,.14-.21h3v0H8a.2.2,0,0,1,.11,0A.22.22,0,0,1,8.22,2.12Z"/><path d="M8.22,10.07a.22.22,0,0,1-.17.21H4.78A.23.23,0,0,1,4.53,10a.27.27,0,0,1,.11-.15l0,0H8.06A.22.22,0,0,1,8.22,10.07Z"/><path d="M8.22,8.45a.25.25,0,0,1,0,.17.22.22,0,0,1-.13.1H4.88c-.18,0-.29-.08-.31-.23a.22.22,0,0,1,.17-.24H7.9C8.14,8.25,8.19,8.35,8.22,8.45Z"/><path d="M3.69,3.69A.3.3,0,0,1,3.62,4H1.93c-.1,0-.12-.16-.13-.23a.3.3,0,0,1,.08-.24H3.55S3.66,3.49,3.69,3.69Z"/><path d="M3.69,5a.31.31,0,0,1-.07.28H1.93c-.1,0-.12-.16-.13-.23s0-.22.08-.24H3.55S3.66,4.76,3.69,5Z"/><path d="M3.69,6.22a.31.31,0,0,1-.07.28H1.93c-.1,0-.12-.17-.13-.23s0-.22.08-.24H3.55S3.66,6,3.69,6.22Z"/><path d="M3.69,7.49a.29.29,0,0,1-.07.27H1.93c-.1,0-.12-.16-.13-.23a.32.32,0,0,1,.08-.24H3.55S3.66,7.29,3.69,7.49Z"/><path d="M3.69,8.75A.31.31,0,0,1,3.62,9H1.93c-.1,0-.12-.16-.13-.23s0-.22.08-.24H3.55S3.66,8.56,3.69,8.75Z"/><path d="M3.69,10a.31.31,0,0,1-.07.28H1.93c-.1,0-.12-.16-.13-.23s0-.22.08-.24H3.55S3.66,9.83,3.69,10Z"/></g></g></g></g></svg>