<svg width="13" height="13" viewBox="0 0 13 13" fill="none" xmlns="http://www.w3.org/2000/svg">
<path d="M1.57959 1.47122L0 2.93972V7.74082V12.5446H4.74149H9.48298V10.3852V8.22581L11.0653 6.63809C12.1518 5.5489 12.6828 4.99889 12.756 4.88238C12.9212 4.62498 12.9808 4.42449 12.9971 4.07768C13.0215 3.55205 12.8941 3.21608 12.5338 2.85844C12.2032 2.5306 11.8591 2.38429 11.4013 2.38429C11.1168 2.38429 10.9461 2.42493 10.6751 2.55228C10.4638 2.65523 10.4069 2.70129 9.96526 3.13751L9.48298 3.61437V1.80718V-1.56928e-07L6.32108 0.00270927H3.15648L1.57959 1.47122ZM9.04947 2.25424V4.05059L6.96593 6.13684L4.87967 8.2231L4.44616 9.66451C4.20502 10.4557 4.00995 11.1357 4.00995 11.1737C4.00995 11.2712 4.12103 11.3796 4.22128 11.3796C4.26463 11.3796 4.84716 11.2143 5.51639 11.0111C6.18561 10.8106 6.83587 10.6128 6.96322 10.5749L7.19352 10.5071L8.12285 9.58323L9.04947 8.65661V10.3717V12.084H4.75504H0.460602V7.68121V3.2784H1.97788H3.49516V1.8695V0.460602H6.27231H9.04947V2.25424ZM3.02643 2.80967C3.02101 2.81509 2.52518 2.81509 1.9264 2.81238L0.837212 2.80425L1.92911 1.79093L3.02101 0.777604L3.02913 1.78822C3.03184 2.34365 3.03184 2.80425 3.02643 2.80967ZM11.9025 2.9614C12.3577 3.18628 12.6232 3.6794 12.5446 4.15625C12.5148 4.3405 12.3956 4.60873 12.2872 4.73607L12.2114 4.82819L11.3904 4.00724C10.9379 3.55476 10.5749 3.17815 10.5803 3.17002C10.6128 3.11855 10.8946 2.94785 11.0274 2.89908C11.1466 2.85573 11.2278 2.84489 11.4365 2.85302C11.6749 2.85844 11.7155 2.86928 11.9025 2.9614ZM11.3796 5.64915L10.8919 6.13684L10.0736 5.3186L9.25268 4.49764L9.74038 4.00995L10.2281 3.52225L11.0463 4.3405L11.8673 5.16145L11.3796 5.64915ZM8.81375 8.21497L7.05805 9.97068L6.2398 9.15243L5.41885 8.33148L7.17184 6.57848L8.92755 4.82277L9.74579 5.64102L10.5667 6.46197L8.81375 8.21497ZM6.58932 10.1901C6.57848 10.201 6.42946 10.2525 6.25877 10.3039L5.94718 10.3988L5.47032 9.92462L4.99347 9.45047L5.08559 9.14972C5.13707 8.98174 5.18313 8.8273 5.19125 8.80833C5.19938 8.78124 5.44594 9.00883 5.90654 9.46943C6.29399 9.85688 6.60015 10.182 6.58932 10.1901ZM5.41072 10.5559C5.40801 10.5586 5.23461 10.6128 5.02598 10.6751C4.81735 10.7402 4.63311 10.7971 4.61686 10.8025C4.6006 10.8079 4.64124 10.6236 4.71169 10.3933L4.83632 9.97339L5.12623 10.2606C5.28608 10.4204 5.41343 10.5532 5.41072 10.5559Z" fill="white"/>
<path d="M1.44955 3.98827C1.31137 4.06955 1.28427 4.24025 1.39536 4.34862L1.46038 4.41636H3.73359H6.0068L6.06369 4.35404C6.14498 4.26734 6.14498 4.09123 6.0664 4.02078C6.01222 3.97201 5.92822 3.9693 3.75527 3.96389C2.09168 3.95847 1.49019 3.96389 1.44955 3.98827Z" fill="white"/>
<path d="M1.44955 4.85529C1.31137 4.93657 1.28427 5.10726 1.39536 5.21564L1.46038 5.28337H3.73359H6.0068L6.06369 5.22106C6.14498 5.13436 6.14498 4.95824 6.0664 4.8878C6.01222 4.83903 5.92822 4.83632 3.75527 4.8309C2.09168 4.82548 1.49019 4.8309 1.44955 4.85529Z" fill="white"/>
<path d="M1.44955 5.7223C1.31137 5.80358 1.28427 5.97428 1.39536 6.08266L1.46038 6.15039H3.73359H6.0068L6.06369 6.08807C6.14498 6.00137 6.14498 5.82526 6.0664 5.75481C6.01222 5.70605 5.92822 5.70334 3.75527 5.69792C2.09168 5.6925 1.49019 5.69792 1.44955 5.7223Z" fill="white"/>
</svg>
