<svg width="14" height="14" viewBox="0 0 14 14" fill="none" xmlns="http://www.w3.org/2000/svg">
<g clip-path="url(#clip0_77_51)">
<path d="M13.3231 7.18697C13.2924 7.13046 13.2764 7.06767 13.2764 7.00394C13.2764 6.94021 13.2924 6.87742 13.3231 6.82091L13.8679 5.7526C14.0134 5.46844 14.038 5.141 13.9363 4.83974C13.8346 4.53848 13.6147 4.28711 13.3231 4.13894L12.2258 3.57864C12.1637 3.54881 12.1105 3.50441 12.0711 3.44956C12.0316 3.39471 12.0072 3.33118 12.0001 3.26488L11.7667 2.1144C11.7094 1.80257 11.5279 1.52442 11.2606 1.33893C10.9932 1.15344 10.6612 1.0752 10.3348 1.1208L9.10521 1.28515C9.04055 1.29572 8.97417 1.29105 8.91181 1.27153C8.84945 1.25201 8.79297 1.21823 8.74723 1.17309L7.87563 0.343852C7.63802 0.125146 7.32155 0.00303841 6.99236 0.00303841C6.66317 0.00303841 6.34672 0.125146 6.1091 0.343852L5.21416 1.17309C5.16842 1.21823 5.11193 1.25201 5.04957 1.27153C4.98721 1.29105 4.92084 1.29572 4.85618 1.28515L3.62661 1.1208C3.30112 1.07535 2.97002 1.15381 2.70396 1.33944C2.4379 1.52507 2.25793 1.80317 2.20248 2.1144L1.99237 3.26488C1.98191 3.32725 1.95686 3.38653 1.91912 3.43829C1.88139 3.49004 1.83193 3.53292 1.77447 3.5637L0.67719 4.11653C0.385642 4.2647 0.165688 4.51607 0.0639886 4.81733C-0.0377109 5.11858 -0.0131526 5.44602 0.132445 5.73019L0.67719 6.79849C0.704022 6.85608 0.71789 6.91844 0.71789 6.98152C0.71789 7.0446 0.704022 7.10698 0.67719 7.16456L0.132445 8.23286C-0.0131526 8.51703 -0.0377109 8.84447 0.0639886 9.14572C0.165688 9.44698 0.385642 9.69835 0.67719 9.84652L1.77447 10.4068C1.83173 10.436 1.8812 10.4774 1.919 10.528C1.9568 10.5785 1.98191 10.6368 1.99237 10.6982L2.21026 11.8711C2.2585 12.1541 2.41046 12.4112 2.63877 12.5961C2.86707 12.7811 3.15669 12.8816 3.4554 12.8796C3.51483 12.8867 3.57496 12.8867 3.63439 12.8796L4.86396 12.7153C4.92854 12.7076 4.99409 12.7136 5.05595 12.733C5.11782 12.7524 5.17448 12.7846 5.22193 12.8273L6.1091 13.6566C6.34672 13.8753 6.66317 13.9974 6.99236 13.9974C7.32155 13.9974 7.63802 13.8753 7.87563 13.6566L8.77058 12.8273C8.8174 12.7837 8.87399 12.7509 8.93604 12.7315C8.99808 12.712 9.06393 12.7065 9.12855 12.7153L10.3581 12.8796C10.68 12.9211 11.0062 12.8416 11.2686 12.6579C11.531 12.4742 11.7094 12.2004 11.7667 11.8935L12.0001 10.7355C12.0106 10.6741 12.0357 10.6159 12.0735 10.5653C12.1113 10.5148 12.1608 10.4733 12.218 10.4442L13.3153 9.88387C13.6069 9.73571 13.8268 9.48433 13.9285 9.18307C14.0302 8.88182 14.0057 8.55438 13.8601 8.27021L13.3231 7.18697ZM11.5566 10.6384L11.3387 11.8113C11.3256 11.9128 11.2911 12.0106 11.237 12.0988C11.183 12.1869 11.1107 12.2635 11.0247 12.3237C10.9386 12.3839 10.8405 12.4265 10.7366 12.4489C10.6326 12.4713 10.525 12.473 10.4204 12.4538L9.19081 12.2894C9.05857 12.2722 8.92397 12.2841 8.79723 12.3242C8.67049 12.3644 8.55492 12.4317 8.45929 12.521L7.56435 13.3428C7.49045 13.4152 7.40197 13.4724 7.30431 13.5109C7.20664 13.5495 7.10184 13.5685 6.99626 13.5669C6.89068 13.5685 6.78587 13.5495 6.6882 13.5109C6.59054 13.4724 6.50206 13.4152 6.42816 13.3428L5.541 12.521C5.46169 12.4441 5.36709 12.3833 5.26281 12.3423C5.15853 12.3012 5.04671 12.2807 4.934 12.282H4.80948L3.57992 12.4463C3.47528 12.4655 3.36766 12.4638 3.26372 12.4415C3.15978 12.4191 3.06173 12.3765 2.97564 12.3162C2.88956 12.256 2.81727 12.1794 2.76326 12.0913C2.70924 12.0032 2.67465 11.9053 2.66163 11.8038L2.42816 10.6384C2.40445 10.5127 2.35158 10.3937 2.27344 10.2902C2.19531 10.1867 2.09392 10.1015 1.9768 10.0408L0.871743 9.48046C0.775227 9.43699 0.689042 9.37496 0.618536 9.29819C0.54803 9.22143 0.494704 9.13158 0.461869 9.03422C0.429033 8.93685 0.417387 8.83404 0.427652 8.73218C0.437918 8.63031 0.469881 8.53156 0.52155 8.44204L1.0663 7.37373C1.1238 7.25695 1.15363 7.12938 1.15363 7.0002C1.15363 6.87103 1.1238 6.74346 1.0663 6.62667L0.52155 5.55837C0.469881 5.46885 0.437918 5.37009 0.427652 5.26823C0.417387 5.16636 0.429033 5.06356 0.461869 4.96619C0.494704 4.86883 0.54803 4.77898 0.618536 4.70221C0.689042 4.62545 0.775227 4.56341 0.871743 4.51995L1.96902 3.96712C2.08567 3.90395 2.18651 3.81706 2.26448 3.71252C2.34245 3.60799 2.39566 3.48835 2.42038 3.362L2.63828 2.1891C2.6513 2.08761 2.68589 1.98977 2.73991 1.90163C2.79392 1.81349 2.86621 1.73694 2.9523 1.67671C3.03838 1.61648 3.13643 1.57386 3.24038 1.55148C3.34432 1.52911 3.45193 1.52745 3.55656 1.54663L4.78614 1.71098C4.91779 1.72916 5.05202 1.71844 5.17873 1.67962C5.30544 1.6408 5.42132 1.57489 5.51766 1.48686L6.4126 0.657618C6.48539 0.582978 6.57337 0.523479 6.67109 0.482801C6.76881 0.442123 6.87418 0.421134 6.98069 0.421134C7.0872 0.421134 7.19258 0.442123 7.2903 0.482801C7.38801 0.523479 7.47599 0.582978 7.54879 0.657618L8.44373 1.48686C8.54007 1.57489 8.65595 1.6408 8.78266 1.67962C8.90937 1.71844 9.04359 1.72916 9.17524 1.71098L10.4048 1.54663C10.5094 1.52745 10.6171 1.52911 10.721 1.55148C10.825 1.57386 10.923 1.61648 11.0091 1.67671C11.0952 1.73694 11.1675 1.81349 11.2215 1.90163C11.2755 1.98977 11.3101 2.08761 11.3231 2.1891L11.541 3.362C11.5647 3.48774 11.6176 3.60675 11.6957 3.71021C11.7739 3.81367 11.8752 3.89892 11.9924 3.95965L13.0896 4.51995C13.1872 4.56333 13.2744 4.62565 13.3456 4.70297C13.4168 4.7803 13.4706 4.87096 13.5035 4.96923C13.5364 5.0675 13.5477 5.17125 13.5368 5.27393C13.5258 5.37662 13.4928 5.47601 13.4398 5.56584L12.8951 6.62667C12.8376 6.74346 12.8078 6.87103 12.8078 7.0002C12.8078 7.12938 12.8376 7.25695 12.8951 7.37373L13.4398 8.44204C13.5318 8.62631 13.5467 8.83737 13.4816 9.03188C13.4164 9.22639 13.2762 9.38958 13.0896 9.48793L11.9924 10.0408C11.8781 10.1032 11.7798 10.1892 11.7044 10.2925C11.6291 10.3959 11.5786 10.514 11.5566 10.6384V10.6384Z" fill="white"/>
<path d="M13.3231 7.18697C13.2924 7.13046 13.2764 7.06767 13.2764 7.00394C13.2764 6.94021 13.2924 6.87742 13.3231 6.82091L13.8679 5.7526C14.0134 5.46844 14.038 5.141 13.9363 4.83974C13.8346 4.53848 13.6147 4.28711 13.3231 4.13894L12.2258 3.57864C12.1637 3.54881 12.1105 3.50441 12.0711 3.44956C12.0316 3.39471 12.0072 3.33118 12.0001 3.26488L11.7667 2.1144C11.7094 1.80257 11.5279 1.52442 11.2606 1.33893C10.9932 1.15344 10.6612 1.0752 10.3348 1.1208L9.10521 1.28515C9.04055 1.29572 8.97417 1.29105 8.91181 1.27153C8.84945 1.25201 8.79297 1.21823 8.74723 1.17309L7.87563 0.343852C7.63802 0.125146 7.32155 0.00303841 6.99236 0.00303841C6.66317 0.00303841 6.34672 0.125146 6.1091 0.343852L5.21416 1.17309C5.16842 1.21823 5.11193 1.25201 5.04957 1.27153C4.98721 1.29105 4.92084 1.29572 4.85618 1.28515L3.62661 1.1208C3.30112 1.07535 2.97002 1.15381 2.70396 1.33944C2.4379 1.52507 2.25793 1.80317 2.20248 2.1144L1.99237 3.26488C1.98191 3.32725 1.95686 3.38653 1.91912 3.43829C1.88139 3.49004 1.83193 3.53292 1.77447 3.5637L0.67719 4.11653C0.385642 4.2647 0.165688 4.51607 0.0639886 4.81733C-0.0377109 5.11858 -0.0131526 5.44602 0.132445 5.73019L0.67719 6.79849C0.704022 6.85608 0.71789 6.91844 0.71789 6.98152C0.71789 7.0446 0.704022 7.10698 0.67719 7.16456L0.132445 8.23286C-0.0131526 8.51703 -0.0377109 8.84447 0.0639886 9.14572C0.165688 9.44698 0.385642 9.69835 0.67719 9.84652L1.77447 10.4068C1.83173 10.436 1.8812 10.4774 1.919 10.528C1.9568 10.5785 1.98191 10.6368 1.99237 10.6982L2.21026 11.8711C2.2585 12.1541 2.41046 12.4112 2.63877 12.5961C2.86707 12.7811 3.15669 12.8816 3.4554 12.8796C3.51483 12.8867 3.57496 12.8867 3.63439 12.8796L4.86396 12.7153C4.92854 12.7076 4.99409 12.7136 5.05595 12.733C5.11782 12.7524 5.17448 12.7846 5.22193 12.8273L6.1091 13.6566C6.34672 13.8753 6.66317 13.9974 6.99236 13.9974C7.32155 13.9974 7.63802 13.8753 7.87563 13.6566L8.77058 12.8273C8.8174 12.7837 8.87399 12.7509 8.93604 12.7315C8.99808 12.712 9.06393 12.7065 9.12855 12.7153L10.3581 12.8796C10.68 12.9211 11.0062 12.8416 11.2686 12.6579C11.531 12.4742 11.7094 12.2004 11.7667 11.8935L12.0001 10.7355C12.0106 10.6741 12.0357 10.6159 12.0735 10.5653C12.1113 10.5148 12.1608 10.4733 12.218 10.4442L13.3153 9.88387C13.6069 9.73571 13.8268 9.48433 13.9285 9.18307C14.0302 8.88182 14.0057 8.55438 13.8601 8.27021L13.3231 7.18697ZM13.1286 9.54022L12.0391 10.1005C11.9282 10.1539 11.8322 10.2319 11.7591 10.328C11.686 10.4242 11.6379 10.5357 11.6188 10.6534L11.4009 11.8262C11.3627 12.0442 11.2369 12.239 11.0507 12.3689C10.8644 12.4988 10.6325 12.5534 10.4048 12.521L9.18303 12.3567C9.05982 12.3391 8.93407 12.3488 8.81537 12.3851C8.69668 12.4213 8.5882 12.4832 8.4982 12.5658L7.60326 13.3951C7.44027 13.5488 7.22088 13.635 6.99236 13.635C6.76384 13.635 6.54447 13.5488 6.38147 13.3951L5.49431 12.5658C5.33802 12.426 5.1321 12.3485 4.91843 12.3492H4.80948L3.57992 12.5135C3.3531 12.5458 3.12216 12.491 2.93717 12.3609C2.75217 12.2309 2.62801 12.0361 2.59159 11.8188L2.37369 10.6534C2.35576 10.5344 2.3082 10.4213 2.23504 10.3238C2.16188 10.2263 2.06529 10.1471 1.95345 10.0931L0.871743 9.54022C0.668363 9.43824 0.515075 9.26339 0.445144 9.0536C0.375212 8.84381 0.394276 8.61601 0.498199 8.41963L1.04295 7.35132C1.09686 7.24283 1.12484 7.12414 1.12484 7.00394C1.12484 6.88373 1.09686 6.76505 1.04295 6.65655L0.498199 5.58825C0.394624 5.39298 0.375774 5.16629 0.445767 4.95771C0.51576 4.74914 0.668907 4.57564 0.871743 4.47512L1.96902 3.91482C2.08085 3.86077 2.17744 3.78161 2.2506 3.68407C2.32376 3.58653 2.37132 3.47348 2.38925 3.35452L2.60715 2.18163C2.64544 1.96519 2.77005 1.77158 2.95457 1.64187C3.13908 1.51216 3.36897 1.45656 3.59548 1.48686L4.82505 1.65869C4.94882 1.67415 5.07462 1.66271 5.19316 1.62521C5.31169 1.58771 5.41994 1.52511 5.50987 1.44204L6.39703 0.612796C6.56134 0.458567 6.78202 0.372211 7.01182 0.372211C7.24162 0.372211 7.4623 0.458567 7.62661 0.612796L8.51377 1.44204C8.60338 1.52557 8.71159 1.58847 8.83022 1.626C8.94885 1.66353 9.0748 1.6747 9.19859 1.65869L10.4282 1.48686C10.655 1.45459 10.8859 1.50941 11.0709 1.63946C11.2559 1.76951 11.3801 1.96431 11.4165 2.18163L11.6344 3.35452C11.6523 3.47348 11.6999 3.58653 11.773 3.68407C11.8462 3.78161 11.9428 3.86077 12.0546 3.91482L13.1519 4.46765C13.3552 4.56977 13.5088 4.74411 13.5801 4.95347C13.6513 5.16283 13.6345 5.39062 13.5332 5.58825L12.9885 6.65655C12.9298 6.7637 12.8992 6.88291 12.8992 7.00394C12.8992 7.12496 12.9298 7.24418 12.9885 7.35132L13.5254 8.41963C13.5761 8.51822 13.6059 8.62541 13.6134 8.7351C13.6208 8.84478 13.6057 8.9548 13.5688 9.05886C13.532 9.16293 13.4741 9.259 13.3986 9.34159C13.323 9.42419 13.2313 9.49168 13.1286 9.54022V9.54022Z" fill="white"/>
<line x1="4.63412" y1="9.84365" x2="9.84365" y2="3.76587" stroke="white" stroke-width="0.6" stroke-linecap="round"/>
<circle cx="8.4" cy="8.4" r="0.733333" stroke="white" stroke-width="0.4"/>
<circle cx="5.6" cy="5.6" r="0.733333" stroke="white" stroke-width="0.4"/>
</g>
<defs>
<clipPath id="clip0_77_51">
<rect width="14" height="14" fill="white"/>
</clipPath>
</defs>
</svg>
