<svg width="14" height="15" viewBox="0 0 14 15" fill="none" xmlns="http://www.w3.org/2000/svg">
<path d="M12.0297 2.89703C11.995 3.48001 11.8069 4.04347 11.4844 4.53032C11.1619 5.01717 10.7164 5.4101 10.193 5.66931C10.1087 5.70397 10.014 5.70397 9.92972 5.66931C9.88542 5.6574 9.84412 5.63647 9.80832 5.60785C9.77262 5.57923 9.74312 5.54352 9.72172 5.50297C9.68982 5.45339 9.67302 5.39561 9.67322 5.33664C9.67382 5.27445 9.69072 5.21351 9.72242 5.15996C9.75402 5.10642 9.79922 5.06217 9.85342 5.03169C10.2749 4.83402 10.6353 4.52618 10.8963 4.14069C11.1574 3.7552 11.3095 3.30637 11.3366 2.84159C11.311 2.37642 11.1594 1.92695 10.8982 1.5412C10.637 1.15546 10.2759 0.847934 9.85342 0.651489C9.77312 0.605024 9.71432 0.52883 9.68962 0.439357C9.66502 0.349883 9.67652 0.25431 9.72172 0.173271C9.75202 0.120897 9.79542 0.0773477 9.84772 0.0469512C9.90002 0.0165546 9.95932 0.000369343 10.0198 4.34347e-06C10.08 -0.000285957 10.1395 0.0139796 10.193 0.0415884C10.7292 0.306386 11.1834 0.711953 11.5069 1.21491C11.8304 1.71787 12.0111 2.29931 12.0297 2.89703Z" fill="black"/>
<path d="M6.16825 0.0556641C5.60623 0.0556641 5.05684 0.22232 4.58955 0.534557C4.12225 0.846795 3.75804 1.29059 3.54296 1.80982C3.32789 2.32905 3.27162 2.9004 3.38126 3.45161C3.49091 4.00282 3.76154 4.50915 4.15894 4.90655C4.55635 5.30395 5.06267 5.57458 5.61388 5.68423C6.16509 5.79387 6.73644 5.7376 7.25567 5.52253C7.77491 5.30745 8.2187 4.94324 8.53094 4.47594C8.84317 4.00865 9.00983 3.45926 9.00983 2.89724C9.008 2.14417 8.70803 1.42247 8.17553 0.889966C7.64302 0.357462 6.92132 0.0574941 6.16825 0.0556641ZM6.16825 5.04576C5.74331 5.04576 5.32792 4.91975 4.9746 4.68367C4.62127 4.44759 4.34589 4.11204 4.18328 3.71945C4.02066 3.32686 3.97811 2.89486 4.06102 2.47809C4.14392 2.06132 4.34854 1.67849 4.64902 1.37801C4.94949 1.07754 5.33232 0.872918 5.74909 0.790017C6.16586 0.707116 6.59786 0.749664 6.99045 0.912279C7.38304 1.07489 7.71859 1.35027 7.95467 1.70359C8.19075 2.05691 8.31676 2.47231 8.31676 2.89724C8.31676 3.17939 8.26119 3.45878 8.15322 3.71945C8.04524 3.98012 7.88698 4.21697 7.68748 4.41647C7.48797 4.61598 7.25112 4.77424 6.99045 4.88221C6.72978 4.99019 6.45039 5.04576 6.16825 5.04576Z" fill="black"/>
<path d="M7.34653 8.7401C7.34653 8.832 7.31002 8.92015 7.24504 8.98514C7.18005 9.05012 7.09191 9.08663 7 9.08663H2.84158C2.27232 9.08846 1.7269 9.3154 1.32437 9.71793C0.921844 10.1204 0.694897 10.6658 0.693069 11.2351V13.7302C0.693069 13.8221 0.65656 13.9102 0.591572 13.9752C0.526584 14.0402 0.438441 14.0767 0.346535 14.0767C0.255183 14.0749 0.168066 14.0378 0.103459 13.9732C0.0388519 13.9086 0.00177431 13.8215 0 13.7302V11.2351C0.00183007 10.482 0.301797 9.76037 0.834301 9.22787C1.36681 8.69536 2.08851 8.39538 2.84158 8.39355H7C7.09191 8.39355 7.18005 8.43007 7.24504 8.49506C7.31002 8.56005 7.34653 8.64819 7.34653 8.7401Z" fill="black"/>
<path d="M13.2772 9.75874C13.2783 9.80529 13.2696 9.85155 13.2517 9.89453C13.2338 9.93751 13.2071 9.97625 13.1732 10.0082L11.3851 11.6716C11.3533 11.7053 11.3145 11.7315 11.2713 11.7483C11.2281 11.7651 11.1818 11.772 11.1356 11.7687C11.0456 11.7638 10.9611 11.724 10.9 11.6578C10.8675 11.6256 10.8417 11.5872 10.8241 11.545C10.8065 11.5028 10.7975 11.4575 10.7975 11.4117C10.7975 11.366 10.8065 11.3207 10.8241 11.2785C10.8417 11.2362 10.8675 11.1979 10.9 11.1657L12.0574 10.1261H8.35642C8.26507 10.1243 8.17796 10.0872 8.11335 10.0226C8.04874 9.958 8.01166 9.87088 8.00989 9.77953C8.00989 9.68763 8.0464 9.59948 8.11138 9.5345C8.17637 9.46951 8.26451 9.433 8.35642 9.433H12.0574L10.9138 8.34488C10.8816 8.31326 10.8559 8.27552 10.8384 8.23387C10.8209 8.19221 10.8119 8.14749 10.8119 8.1023C10.8119 8.05712 10.8209 8.0124 10.8384 7.97074C10.8559 7.92909 10.8816 7.89135 10.9138 7.85973C10.9431 7.8257 10.9792 7.79824 11.0198 7.77913C11.0604 7.76002 11.1046 7.7497 11.1495 7.74884C11.1952 7.74243 11.2419 7.74729 11.2854 7.76299C11.3289 7.77869 11.3679 7.80476 11.399 7.83894L13.1871 9.50231C13.2183 9.53699 13.2423 9.5775 13.2578 9.62152C13.2732 9.66553 13.2798 9.71217 13.2772 9.75874Z" fill="black"/>
</svg>
