<svg width="12" height="14" viewBox="0 0 12 14" fill="none" xmlns="http://www.w3.org/2000/svg">
<path d="M6.59805 0.0327418C6.33008 0.092898 6.08398 0.180398 5.84336 0.300711C5.63555 0.404617 5.22813 0.667117 5.22813 0.697195C5.22813 0.716336 5.44961 1.00071 5.47695 1.01985C5.49063 1.02805 5.60547 0.965164 5.73125 0.883132C6.60625 0.297976 7.57422 0.273367 8.44102 0.809304C9.0207 1.16751 9.42813 1.65696 9.64141 2.25579L9.72617 2.49368V3.88821V5.28274L9.32969 5.31555C9.11094 5.33196 8.87578 5.3511 8.80742 5.3593L8.67891 5.37024L8.8457 5.16243C8.93594 5.04759 9.05625 4.85618 9.11641 4.73587C9.27227 4.41048 9.30234 4.22727 9.30234 3.56555V2.99954H7.14219H4.98203V3.5929C4.98203 4.22454 5.00391 4.39134 5.12148 4.65384C5.20078 4.83704 5.3457 5.05852 5.49063 5.23352L5.61094 5.37571L5.46875 5.36204C5.38945 5.35384 5.15156 5.33196 4.94102 5.31555L4.5582 5.28274L4.55 3.95657C4.54453 2.80266 4.55 2.60579 4.58828 2.43899C4.66758 2.1054 4.88086 1.70071 5.14336 1.38352L5.22539 1.28509L5.07773 1.14016C4.9875 1.05266 4.91641 1.00071 4.8918 1.01165C4.81797 1.03899 4.48984 1.50657 4.3668 1.7554C4.11797 2.26399 4.12344 2.22024 4.1125 3.83899L4.1043 5.26907H2.76445H1.42461L1.43281 6.99719L1.44102 8.72805L1.51484 8.92766C1.6707 9.35423 2.05898 9.83548 2.43359 10.0652L2.60313 10.1718V10.314C2.60313 10.3906 2.58672 10.4726 2.57031 10.4972C2.55117 10.5191 2.1793 10.6449 1.7418 10.7761C1.30703 10.9074 0.858594 11.0577 0.746484 11.1152C0.385547 11.2929 0.161328 11.5745 0.0601563 11.982C0.0382813 12.0695 0.021875 12.4495 0.0136719 13.0566L0 13.9917H1.49297H2.98594V13.7866V13.5816H2.38438H1.78281V13.1167V12.6519H1.56406H1.34531V13.1167V13.5816H0.894141H0.442969V12.9855C0.442969 12.6601 0.456641 12.3046 0.470313 12.2007C0.522266 11.8452 0.672656 11.6347 0.976172 11.4925C1.10469 11.4324 2.53477 10.9839 2.60039 10.9839C2.6168 10.9839 2.63047 11.0003 2.63047 11.0195C2.63047 11.0878 2.74805 11.2738 2.86836 11.3995C3.34961 11.8917 4.21367 11.7359 4.49258 11.107C4.52266 11.0386 4.55547 10.9839 4.56367 10.9839C4.61563 10.9839 6.05664 11.4351 6.17148 11.487C6.45313 11.6156 6.61719 11.8261 6.67461 12.146C6.69102 12.2335 6.70469 12.5945 6.70469 12.9445V13.5816H6.25352H5.80234V13.1167V12.6491L5.5918 12.6574L5.37852 12.6656L5.37031 13.1222L5.36484 13.5816H4.77695H4.18906V13.7866V13.9917H5.66836H7.14766L7.13672 13.0402C7.12305 12.0366 7.11211 11.9327 6.97813 11.6511C6.85508 11.3995 6.5707 11.1589 6.24258 11.0359C6.15781 11.0058 5.75313 10.8773 5.34297 10.7515C4.93281 10.6284 4.59102 10.5218 4.58555 10.5136C4.57734 10.5054 4.56641 10.4288 4.55547 10.3386L4.5418 10.1773L4.74961 10.0406C4.94648 9.91204 5.18711 9.68509 5.34023 9.48548L5.40859 9.39798L6.82227 9.40344L8.23594 9.41165L7.76836 10.0132L7.30078 10.6148L7.73008 10.623L8.15938 10.6312L8.14844 11.2929C8.14023 11.9409 8.1375 11.9601 8.07188 12.0913C7.98984 12.2499 7.80391 12.3921 7.63438 12.4195L7.525 12.4386V12.6546V12.8706H8.4082C8.89219 12.8706 9.34063 12.857 9.40625 12.8433C9.83555 12.7421 10.1418 12.4113 10.2047 11.9792C10.2184 11.8753 10.232 11.5281 10.232 11.2081V10.6284H10.6422C10.8691 10.6284 11.0523 10.623 11.0523 10.6148C11.0523 10.6066 10.8445 10.3331 10.5875 10.0077L10.1254 9.41165L10.4098 9.40344L10.6969 9.39524V8.61594C10.6969 7.76282 10.6723 7.5468 10.5383 7.26516C10.4344 7.04368 10.2238 6.8468 9.95313 6.71829C9.76172 6.62805 8.25234 6.14407 8.15664 6.14407C8.14023 6.14407 8.12656 6.10305 8.12656 6.05384C8.12656 6.00735 8.11836 5.94173 8.11016 5.91165C8.09648 5.85969 8.12656 5.85423 9.04805 5.7804C9.57031 5.73665 10.0406 5.69563 10.0898 5.68743L10.1801 5.67376L10.1719 4.05501L10.1637 2.43899L10.0871 2.19837C9.77813 1.20852 8.9332 0.393679 7.89414 0.0846949C7.68086 0.0218043 7.58789 0.0108668 7.21055 0.00266366C6.89883 -0.00553946 6.72383 0.00539803 6.59805 0.0327418ZM8.85938 3.83899C8.84844 4.2218 8.84297 4.25462 8.76094 4.44876C8.53398 4.98196 8.02539 5.41946 7.47031 5.55891C7.11211 5.64915 6.68008 5.56985 6.30273 5.34837C6.10039 5.22805 5.75859 4.88899 5.63828 4.68118C5.46602 4.3886 5.42227 4.20813 5.41953 3.79798V3.43704H7.14492H8.87031L8.85938 3.83899ZM4.31211 5.70657C4.41602 5.72298 4.56641 5.76399 4.6457 5.80227C4.84805 5.89251 5.075 6.11673 5.17617 6.3218C5.27734 6.52962 5.31016 6.73469 5.31016 7.20227C5.31016 7.5304 5.30469 7.56594 5.26094 7.56594C5.23633 7.56594 4.59922 7.47571 3.85 7.3636L2.48555 7.16126L2.1875 7.30891C2.02617 7.39094 1.88672 7.45657 1.87852 7.45657C1.87031 7.45657 1.86484 7.05735 1.86484 6.5679V5.67923H2.99414C3.61211 5.67923 4.20547 5.6929 4.31211 5.70657ZM5.92539 5.83782L6.14414 5.85696V5.99094V6.12766L5.89805 6.20423C5.76406 6.24524 5.65195 6.27532 5.64922 6.27259C5.64648 6.26985 5.61094 6.19876 5.56992 6.11673C5.52891 6.03469 5.46602 5.92532 5.42773 5.8761L5.35938 5.78587L5.53438 5.80227C5.63008 5.81321 5.80508 5.82688 5.92539 5.83782ZM7.14219 6.03469C7.2543 6.03469 7.42383 6.01829 7.51953 5.99641L7.68906 5.96087V6.08665C7.68906 6.20969 7.68086 6.2179 7.41016 6.49134L7.12852 6.77298L6.85508 6.49954L6.58164 6.2261L6.58984 6.09485L6.60078 5.9636L6.76758 5.99915C6.86055 6.01829 7.03008 6.03469 7.14219 6.03469ZM6.70469 6.97805L7.12852 7.40188L7.55781 6.97259L7.98711 6.54602L8.77461 6.78391C9.65508 7.04915 9.90664 7.15579 10.0516 7.32259C10.2211 7.52219 10.2402 7.61516 10.2539 8.32337L10.2648 8.96048H10.0188H9.77539L9.59492 8.72805L9.41172 8.49563V8.16751V7.83938H9.19297H8.97422V8.1511V8.46009L8.78008 8.71165L8.58867 8.96048H7.11211C5.71758 8.96048 5.63555 8.95774 5.64922 8.91126C5.72852 8.64876 5.73398 8.55305 5.73398 7.65344V6.71555L5.98008 6.63899C6.1168 6.59524 6.23984 6.55696 6.25352 6.55696C6.26992 6.55423 6.47227 6.74563 6.70469 6.97805ZM3.89102 7.81204C4.60469 7.91594 5.21719 8.00891 5.25273 8.01712C5.31836 8.03352 5.31836 8.03626 5.30195 8.31243C5.29102 8.48743 5.26367 8.65423 5.22539 8.76634C5.10508 9.11907 4.75508 9.53469 4.39961 9.74798C3.98945 9.99407 3.53008 10.0515 3.10898 9.90657C2.6168 9.73977 2.21484 9.37337 1.97695 8.87844C1.88398 8.68157 1.87852 8.65969 1.87031 8.3179L1.85938 7.96243L2.19844 7.7929C2.38164 7.69993 2.54844 7.62337 2.56484 7.62337C2.58125 7.62063 3.17734 7.7054 3.89102 7.81204ZM9.69883 9.58938L10.1555 10.1773L9.975 10.1855L9.79453 10.1937V11.0058C9.79453 11.4597 9.78086 11.8726 9.76445 11.9409C9.72617 12.1159 9.625 12.2527 9.47461 12.3429C9.34609 12.4167 9.33242 12.4195 8.87031 12.4277L8.39727 12.4386L8.46563 12.2991C8.56953 12.0968 8.59141 11.8781 8.59141 10.9921V10.1937L8.39727 10.1855L8.20586 10.1773L8.68984 9.55384C9.08359 9.05071 9.18203 8.9386 9.20938 8.96594C9.22852 8.98509 9.45 9.26673 9.69883 9.58938ZM3.34961 10.4097C3.56289 10.4398 3.93477 10.4152 4.06602 10.3659C4.11797 10.3441 4.14258 10.4972 4.12891 10.7214C4.1207 10.8581 4.10156 10.921 4.04141 11.0085C3.94844 11.1425 3.73242 11.2574 3.57656 11.2574C3.28672 11.2546 3.01328 10.9866 3.01328 10.7023C3.01328 10.5109 3.04609 10.3523 3.08438 10.3659C3.10625 10.3741 3.22383 10.3933 3.34961 10.4097Z" fill="white"/>
<path d="M7.38828 1.14016V1.35891H7.60703H7.82578V1.14016V0.921413H7.60703H7.38828V1.14016Z" fill="white"/>
<path d="M8.20859 1.55032V1.76907H8.42734H8.64609V1.55032V1.33157H8.42734H8.20859V1.55032Z" fill="white"/>
<path d="M3.36874 13.7866V13.9917H3.58749H3.80624V13.7866V13.5816H3.58749H3.36874V13.7866Z" fill="white"/>
</svg>
