<svg xmlns="http://www.w3.org/2000/svg" viewBox="0 0 13.8 13.88"><g id="Layer_2" data-name="Layer 2"><g id="Layer_1-2" data-name="Layer 1"><path d="M12.55,2.79A3.08,3.08,0,0,1,12,4.37a3.15,3.15,0,0,1-1.24,1.11.28.28,0,0,1-.2,0l-.09,0-.06-.08a.23.23,0,0,1,0-.11.28.28,0,0,1,0-.13A.26.26,0,0,1,10.52,5,2.61,2.61,0,0,0,11.6,4.1a2.77,2.77,0,0,0,.46-1.37,2.66,2.66,0,0,0-.46-1.35A2.64,2.64,0,0,0,10.53.46a.23.23,0,0,1-.12-.15.25.25,0,0,1,0-.19A.26.26,0,0,1,10.52,0a.42.42,0,0,1,.13,0,.27.27,0,0,1,.12,0,3.27,3.27,0,0,1,1.28,1.14A3.24,3.24,0,0,1,12.55,2.79Z"/><path d="M8,.86A2.82,2.82,0,0,0,6.07.05,2.65,2.65,0,0,0,4.55.52a2.59,2.59,0,0,0-1,1.23,2.68,2.68,0,0,0-.16,1.58,2.74,2.74,0,0,0,5,1A2.75,2.75,0,0,0,8,.86Zm.14,2.8a2.4,2.4,0,0,1-.49.73,2.21,2.21,0,0,1-.73.48A2.13,2.13,0,0,1,6.07,5a2.29,2.29,0,0,1-1.25-.37,2.27,2.27,0,0,1-.83-1,2.31,2.31,0,0,1-.13-1.3,2.2,2.2,0,0,1,.62-1.15A2.23,2.23,0,0,1,6.93.72a2.27,2.27,0,0,1,1,.83A2.22,2.22,0,0,1,8.32,2.8,2.35,2.35,0,0,1,8.15,3.66Z"/><path d="M7.15,8.64a.26.26,0,0,1-.07.17.24.24,0,0,1-.18.07H2.74A2.27,2.27,0,0,0,.49,11.13v2.5a.22.22,0,0,1-.07.17.23.23,0,0,1-.17.08.3.3,0,0,1-.18-.08A.28.28,0,0,1,0,13.63v-2.5A2.69,2.69,0,0,1,.81,9.2a2.69,2.69,0,0,1,1.93-.81H6.9a.24.24,0,0,1,.17.07A.25.25,0,0,1,7.15,8.64Z"/><path d="M13.8,9.65h0a.2.2,0,0,1,0,.1l0,.07-1.8,1.67a.22.22,0,0,1-.17.07.26.26,0,0,1-.17-.09.16.16,0,0,1-.05-.08.24.24,0,0,1,0-.09.29.29,0,0,1,0-.09.16.16,0,0,1,.05-.08l1.35-1.22H9a.22.22,0,0,1-.17-.07.25.25,0,0,1-.08-.17.25.25,0,0,1,.08-.18A.24.24,0,0,1,9,9.43h3.95L11.61,8.17l-.06-.08a.25.25,0,0,1,0-.09.28.28,0,0,1,0-.09l.06-.09.07-.05.11,0a.14.14,0,0,1,.09,0,.15.15,0,0,1,.07,0l1.79,1.66a.22.22,0,0,1,0,.08A.38.38,0,0,1,13.8,9.65Z"/></g></g></svg>