<svg width="14" height="14" viewBox="0 0 14 14" fill="none" xmlns="http://www.w3.org/2000/svg">
<g clip-path="url(#clip0_81_373)">
<path d="M13.56 9.54C13.4775 8.99071 13.2574 8.47124 12.92 8.03L12.78 7.83V4.34C12.78 1.82 12.78 1.02 12.78 0.919999H12.72C12.66 0.919999 12.25 0.919999 11.64 0.919999H10.29V0.419999C10.29 0.149999 10.29 0.139999 10.2 0.0899991C10.1228 0.0598771 10.0372 0.0598771 9.95999 0.0899991C9.87999 0.139999 9.86999 0.149999 9.86999 0.419999V0.919999H7.86999V0.419999C7.86999 0.149999 7.86999 0.139999 7.77999 0.0899991C7.70282 0.0598771 7.61715 0.0598771 7.53999 0.0899991C7.45999 0.139999 7.44999 0.149999 7.44999 0.419999V0.919999H5.44999V0.419999C5.44999 0.149999 5.44999 0.139999 5.35999 0.0899991C5.28282 0.0598771 5.19715 0.0598771 5.11999 0.0899991C5.03999 0.139999 5.02999 0.149999 5.02999 0.419999V0.919999H3.02999V0.419999C3.04301 0.333822 3.04301 0.246176 3.02999 0.159999C3.01069 0.127963 2.98237 0.102335 2.94857 0.0863251C2.91477 0.0703152 2.877 0.0646362 2.83999 0.0699991C2.75999 0.0699991 2.72999 0.0699991 2.71999 0.0699991C2.70999 0.0699991 2.62999 0.129999 2.62999 0.399999V0.899999H1.16999C0.559989 0.899999 0.169989 0.899999 0.0899887 0.899999L0.019989 0.969999C0.019989 1.06 0.019989 2.09 0.019989 6.44C0.019989 10.79 0.019989 11.81 0.019989 11.93H0.0799885C0.159988 11.93 1.07999 11.93 3.52999 11.93H7.09999L7.28999 12.18C7.83416 12.8995 8.63119 13.3856 9.51999 13.54C9.98024 13.6156 10.4497 13.6156 10.91 13.54C11.4013 13.4224 11.8617 13.2008 12.26 12.89C12.8807 12.396 13.3202 11.7103 13.51 10.94C13.6042 10.4793 13.6211 10.0062 13.56 9.54V9.54ZM0.419989 1.27H2.48999V1.75C2.48999 1.95 2.48999 1.99 2.48999 2C2.51346 2.02744 2.5426 2.04948 2.5754 2.06459C2.60819 2.07969 2.64388 2.08752 2.67999 2.08752C2.7161 2.08752 2.75178 2.07969 2.78458 2.06459C2.81738 2.04948 2.84652 2.02744 2.86999 2C2.86999 2 2.86999 2 2.86999 1.75V1.27H4.86999V1.75C4.86999 2.01 4.86999 2.02 4.95999 2.07C5.03715 2.10012 5.12282 2.10012 5.19999 2.07C5.26999 2.02 5.28999 2.01 5.28999 1.75V1.27H7.28999V1.75C7.28999 2.01 7.28999 2.02 7.37999 2.07C7.45715 2.10012 7.54282 2.10012 7.61999 2.07C7.68999 2.02 7.70999 2.01 7.70999 1.75V1.27H9.70999V1.75C9.70999 2.01 9.70999 2.02 9.79999 2.07C9.87715 2.10012 9.96282 2.10012 10.04 2.07C10.12 2.02 10.13 2.01 10.13 1.75V1.27H12.2V3.27H0.419989V1.27ZM5.80999 10.27C5.80999 10.34 5.86999 10.35 6.12999 10.36H6.59999L6.66999 10.78C6.66999 10.9 6.71999 11.02 6.72999 11.07C6.74979 11.1223 6.76649 11.1757 6.77999 11.23L6.85999 11.56H0.419989V3.73H12.36V7.4L11.96 7.13C11.7118 6.98169 11.4466 6.86416 11.17 6.78C10.8257 6.68242 10.467 6.6452 10.11 6.67C9.39735 6.64748 8.6963 6.85429 8.10999 7.26C7.7931 7.47721 7.51004 7.74004 7.26999 8.04L7.06999 8.33H6.39999C5.83999 8.33 5.82999 8.33 5.77999 8.4C5.75013 8.48066 5.75013 8.56934 5.77999 8.65C5.82999 8.73 5.82999 8.74 6.18999 8.74H6.81999L6.74999 9.06C6.72874 9.11522 6.71201 9.17207 6.69999 9.23C6.66849 9.32451 6.64507 9.42153 6.62999 9.52L6.55999 9.94H6.08999C5.82999 9.94 5.81999 9.94 5.77999 10.03C5.77223 10.0981 5.78258 10.1671 5.80999 10.23V10.27ZM13.07 10.9C12.9662 11.3234 12.7746 11.7202 12.5076 12.0648C12.2406 12.4093 11.9041 12.6939 11.52 12.9C11.1096 13.1349 10.6426 13.2525 10.17 13.24H9.98999C9.31238 13.2264 8.6611 12.9751 8.14999 12.53C7.62656 12.0697 7.27414 11.4459 7.14999 10.76C7.06987 10.327 7.06987 9.88299 7.14999 9.45C7.29735 8.89199 7.59708 8.38599 8.01564 7.98862C8.4342 7.59125 8.95508 7.3182 9.51999 7.2C9.96392 7.13014 10.4161 7.13014 10.86 7.2C11.2674 7.30077 11.6502 7.48297 11.9853 7.7356C12.3204 7.98823 12.601 8.30608 12.81 8.67C12.9497 8.9377 13.0507 9.22389 13.11 9.52C13.1809 9.96522 13.1673 10.4198 13.07 10.86V10.9Z" fill="white"/>
<path d="M3.73001 5.19C3.73597 5.22821 3.72945 5.26732 3.71144 5.30154C3.69343 5.33576 3.66488 5.36328 3.63001 5.38C3.45696 5.39406 3.28306 5.39406 3.11001 5.38C2.93363 5.3943 2.75639 5.3943 2.58001 5.38C2.55257 5.35653 2.53053 5.32739 2.51542 5.2946C2.50032 5.2618 2.49249 5.22611 2.49249 5.19C2.49249 5.15389 2.50032 5.11821 2.51542 5.08541C2.53053 5.05261 2.55257 5.02347 2.58001 5C2.75638 4.98539 2.93365 4.98539 3.11001 5C3.28305 4.98562 3.45698 4.98562 3.63001 5C3.66488 5.01673 3.69343 5.04424 3.71144 5.07846C3.72945 5.11268 3.73597 5.15179 3.73001 5.19V5.19Z" fill="white"/>
<path d="M7.01999 5.31C6.95999 5.4 6.95999 5.4 6.41999 5.4C6.24361 5.4143 6.06637 5.4143 5.88999 5.4C5.81999 5.4 5.79999 5.32 5.79999 5.21C5.79999 5.1 5.79999 5.06 5.88999 5.02C6.06635 5.00539 6.24362 5.00539 6.41999 5.02C6.95999 5.02 6.95999 5.02 7.01999 5.11C7.03374 5.17596 7.03374 5.24404 7.01999 5.31Z" fill="white"/>
<path d="M10.3 5.31C10.24 5.4 10.24 5.4 9.70001 5.4C9.52363 5.4143 9.34639 5.4143 9.17001 5.4C9.14256 5.37653 9.12053 5.34739 9.10542 5.3146C9.09031 5.2818 9.08249 5.24611 9.08249 5.21C9.08249 5.17389 9.09031 5.13821 9.10542 5.10541C9.12053 5.07261 9.14256 5.04347 9.17001 5.02C9.34637 5.00539 9.52364 5.00539 9.70001 5.02C10.24 5.02 10.24 5.02 10.3 5.11C10.3207 5.17506 10.3207 5.24494 10.3 5.31V5.31Z" fill="white"/>
<path d="M3.73001 6.83C3.73538 6.86701 3.7297 6.90478 3.71369 6.93858C3.69768 6.97238 3.67205 7.0007 3.64001 7.02C3.46376 7.03719 3.28626 7.03719 3.11001 7.02C2.93363 7.0343 2.75639 7.0343 2.58001 7.02C2.53913 6.96819 2.5204 6.90232 2.52789 6.83676C2.53539 6.77119 2.5685 6.71125 2.62001 6.67C2.79638 6.65539 2.97365 6.65539 3.15001 6.67C3.30646 6.65826 3.46357 6.65826 3.62001 6.67C3.65172 6.68336 3.67894 6.70554 3.69844 6.7339C3.71793 6.76225 3.72889 6.79561 3.73001 6.83V6.83Z" fill="white"/>
<path d="M7.01999 6.95C6.95999 7.04 6.95999 7.04 6.41999 7.04C6.24378 7.05805 6.06619 7.05805 5.88999 7.04C5.81999 7.04 5.79999 6.96 5.79999 6.85C5.79999 6.74 5.79999 6.7 5.88999 6.66C6.06635 6.64539 6.24362 6.64539 6.41999 6.66C6.95999 6.66 6.95999 6.66 7.01999 6.75C7.03374 6.81596 7.03374 6.88404 7.01999 6.95Z" fill="white"/>
<path d="M3.72999 8.47C3.7358 8.51075 3.72821 8.55229 3.70837 8.58836C3.68853 8.62443 3.65752 8.65308 3.61999 8.67C3.44374 8.68719 3.26624 8.68719 3.08999 8.67C2.93352 8.68124 2.77645 8.68124 2.61999 8.67C2.59254 8.64653 2.57051 8.61739 2.5554 8.58459C2.54029 8.55179 2.53247 8.51611 2.53247 8.48C2.53247 8.44389 2.54029 8.4082 2.5554 8.37541C2.57051 8.34261 2.59254 8.31347 2.61999 8.29C2.79637 8.2757 2.97361 8.2757 3.14999 8.29C3.32286 8.27214 3.49712 8.27214 3.66999 8.29C3.69576 8.31144 3.71503 8.33965 3.72563 8.37145C3.73623 8.40325 3.73774 8.43739 3.72999 8.47V8.47Z" fill="white"/>
<path d="M3.73001 10.11C3.73597 10.1482 3.72945 10.1873 3.71144 10.2215C3.69343 10.2558 3.66488 10.2833 3.63001 10.3C3.28115 10.34 2.92887 10.34 2.58001 10.3C2.55257 10.2765 2.53053 10.2474 2.51542 10.2146C2.50032 10.1818 2.49249 10.1461 2.49249 10.11C2.49249 10.0739 2.50032 10.0382 2.51542 10.0054C2.53053 9.97261 2.55257 9.94347 2.58001 9.92C2.75639 9.9057 2.93363 9.9057 3.11001 9.92C3.28289 9.90214 3.45714 9.90214 3.63001 9.92C3.66488 9.93673 3.69343 9.96424 3.71144 9.99846C3.72945 10.0327 3.73597 10.0718 3.73001 10.11V10.11Z" fill="white"/>
<path d="M11.96 10.11C11.9654 10.147 11.9597 10.1848 11.9437 10.2186C11.9277 10.2524 11.902 10.2807 11.87 10.3C11.5569 10.317 11.2431 10.317 10.93 10.3C10.6169 10.3174 10.3031 10.3174 9.98999 10.3C9.96185 10.282 9.93796 10.2581 9.91999 10.23C9.90179 9.91693 9.90179 9.60307 9.91999 9.29C9.90206 8.97692 9.90206 8.66308 9.91999 8.35C9.93796 8.32186 9.96185 8.29798 9.98999 8.28C9.98999 8.28 9.98999 8.28 10.11 8.28C10.147 8.27464 10.1848 8.28032 10.2186 8.29633C10.2524 8.31234 10.2807 8.33796 10.3 8.37C10.3147 8.58975 10.3147 8.81025 10.3 9.03V9.92H11.19C11.4096 9.90182 11.6304 9.90182 11.85 9.92C11.8857 9.93639 11.9155 9.96347 11.9352 9.9975C11.9549 10.0315 11.9636 10.0708 11.96 10.11V10.11Z" fill="white"/>
</g>
<defs>
<clipPath id="clip0_81_373">
<rect width="13.6" height="13.61" fill="white"/>
</clipPath>
</defs>
</svg>
