<svg width="14" height="13" viewBox="0 0 14 13" fill="none" xmlns="http://www.w3.org/2000/svg">
<path d="M6.43125 0.0500834C5.01758 0.356333 4.07695 1.56766 4.13711 3.00321C4.15898 3.51454 4.25742 3.91102 4.49805 4.4579C4.56367 4.60555 4.61016 4.72586 4.59922 4.7204C4.58828 4.71493 4.47891 4.66024 4.35586 4.59461C4.23008 4.53172 4.1043 4.47977 4.07148 4.47977C3.99219 4.47977 1.15117 6.06297 1.11836 6.12313C1.10469 6.15047 0.913281 7.16219 0.694531 8.37626C0.311719 10.4817 0.298047 10.5829 0.341797 10.6485C0.412891 10.7579 0.503125 10.7852 0.615234 10.7333C0.727344 10.6786 0.727344 10.6813 0.864062 9.90751C0.91875 9.59032 0.978906 9.31961 0.995312 9.30321C1.03359 9.26219 3.58203 7.91688 3.5957 7.92782C3.61484 7.94969 3.39336 10.613 3.37148 10.6321C3.34961 10.654 0.538672 11.9173 0.514062 11.9173C0.505859 11.9173 0.522266 11.786 0.552344 11.6247C0.609766 11.3075 0.601562 11.2419 0.486719 11.1681C0.407422 11.1161 0.235156 11.1544 0.194141 11.2282C0.158594 11.2938 0 12.1798 0 12.3083C0 12.4341 0.0765625 12.5188 0.191406 12.5188C0.240625 12.5188 0.943359 12.2181 1.92227 11.7778C2.82734 11.3704 3.58203 11.0341 3.5957 11.0341C3.61211 11.0341 4.36953 11.3677 5.27734 11.7751C6.18789 12.1852 6.96172 12.5188 7 12.5188C7.03828 12.5188 7.81211 12.1852 8.72266 11.7751C9.63047 11.3677 10.3879 11.0341 10.4043 11.0341C10.418 11.0341 11.1727 11.3704 12.0777 11.7778C13.0566 12.2181 13.7594 12.5188 13.8086 12.5188C13.9234 12.5188 14 12.4341 14 12.3083C14 12.1962 13.2207 7.85672 13.177 7.7118C13.1441 7.61063 13.0812 7.56961 12.9637 7.56961C12.8406 7.56961 12.7695 7.65438 12.7695 7.79383C12.7723 7.85946 12.8434 8.30516 12.9309 8.78641C13.0184 9.26766 13.0895 9.66415 13.0867 9.66415C13.0785 9.67235 10.5273 6.69188 10.5219 6.66454C10.5164 6.63993 10.798 6.5661 11.375 6.43485L12.2363 6.24071L12.3457 6.3036C12.4059 6.33641 12.4633 6.36922 12.4742 6.37196C12.4852 6.37743 12.5234 6.53876 12.5617 6.7329C12.6328 7.12118 12.6711 7.1868 12.8297 7.1868C12.9254 7.1868 13.043 7.07743 13.043 6.98719C13.043 6.89149 12.9062 6.17235 12.8789 6.1204C12.8461 6.05751 10.0023 4.47977 9.92305 4.47977C9.8875 4.47977 9.75625 4.53446 9.63594 4.60008L9.41172 4.7204L9.50469 4.51805C9.92578 3.5911 10.0078 2.71063 9.74258 1.93954C9.43359 1.03446 8.67617 0.331724 7.74922 0.0883646C7.36914 -0.0128073 6.79766 -0.0292135 6.43125 0.0500834ZM7.60703 0.501255C8.47109 0.739146 9.10547 1.36258 9.3707 2.22938C9.43359 2.43993 9.4418 2.51922 9.44453 2.85282C9.44453 3.0661 9.43086 3.30672 9.41172 3.39969C9.25586 4.1243 8.89219 4.82704 8.26328 5.61454C7.9707 5.97821 7.0793 6.88602 7.01367 6.88602C6.98906 6.88602 6.75937 6.67274 6.49961 6.41297C5.38125 5.29735 4.77695 4.30477 4.60469 3.30399C4.44883 2.39344 4.81797 1.47196 5.55625 0.922349C5.8625 0.695396 6.25078 0.52313 6.59531 0.46024C6.80039 0.424693 7.42109 0.449302 7.60703 0.501255ZM5.30742 5.75946C5.43047 5.91532 5.60273 6.12313 5.69023 6.2243C5.77773 6.32274 5.84609 6.40751 5.84336 6.41024C5.83242 6.42391 4.21094 6.18602 4.19453 6.16961C4.18633 6.16141 4.2 5.91532 4.22187 5.62274C4.24648 5.33016 4.26562 5.08407 4.26562 5.0704C4.26562 5.05946 4.45156 5.14696 4.67578 5.26454L5.08867 5.47782L5.30742 5.75946ZM9.74805 5.3493C9.72344 5.37391 8.70898 5.81415 8.69805 5.80321C8.69258 5.79774 8.75 5.71844 8.82383 5.62547C8.94414 5.47508 8.99609 5.4368 9.33789 5.25633L9.7207 5.05672L9.74258 5.19618C9.75352 5.27274 9.75625 5.3411 9.74805 5.3493ZM3.81992 5.19618C3.81172 5.2454 3.78984 5.49696 3.7707 5.75672L3.73789 6.22704L2.5375 6.86141C1.87578 7.20868 1.32891 7.48485 1.3207 7.47665C1.30156 7.45751 1.49844 6.3829 1.52578 6.37196C1.53672 6.36922 2.04805 6.08211 2.66602 5.73758C3.28398 5.39305 3.79805 5.11141 3.81172 5.10868C3.82266 5.10868 3.82812 5.14969 3.81992 5.19618ZM10.2785 5.14696L10.3414 5.18251L10.2785 5.19891C10.2047 5.21805 10.1719 5.20165 10.1719 5.14696C10.1719 5.10047 10.1937 5.10047 10.2785 5.14696ZM11.2957 5.71571C11.4898 5.82235 11.6457 5.91532 11.6402 5.91805C11.6293 5.92899 10.273 6.22977 10.2676 6.22157C10.2621 6.21883 10.2512 6.09305 10.243 5.93993L10.2238 5.66649L10.5191 5.5954C10.6805 5.55711 10.8418 5.5243 10.8773 5.52157C10.9129 5.51883 11.1016 5.60633 11.2957 5.71571ZM9.85742 6.6454C9.89297 7.08563 9.92031 7.4493 9.91758 7.4493C9.91484 7.45204 9.71797 7.30165 9.47734 7.11571C9.13281 6.84501 9.02891 6.77665 8.95781 6.77665C8.90859 6.77665 8.53125 6.9243 8.0582 7.13211C7.60977 7.32899 7.23789 7.48758 7.22969 7.48758C7.22422 7.48758 7.21875 7.44657 7.21875 7.39735C7.21875 7.31805 7.24062 7.28524 7.36367 7.1868C7.44023 7.12118 7.60703 6.96805 7.73281 6.84774L7.95703 6.62899L8.86758 6.22977C9.36523 6.00829 9.77812 5.83055 9.78359 5.83329C9.78906 5.83876 9.82187 6.20243 9.85742 6.6454ZM6.43672 6.98719C6.46953 7.01454 6.55977 7.0911 6.63906 7.15946C6.77852 7.27977 6.78125 7.28524 6.78125 7.43563V7.58602L6.05117 7.49852C5.15977 7.38915 5.03125 7.38368 4.96289 7.46024C4.84805 7.58876 4.85898 7.61336 5.84609 9.16649L6.78125 10.6403L6.77578 11.0942L6.76758 11.5454L5.42227 9.50555L4.07969 7.46297L4.10703 7.07196C4.1207 6.85594 4.13711 6.66727 4.14258 6.65086C4.15625 6.60438 6.35742 6.92704 6.43672 6.98719ZM3.66953 7.08836C3.65586 7.24696 3.63945 7.38368 3.63398 7.38915C3.62852 7.39461 3.05703 7.6954 2.36523 8.0618C1.67344 8.42547 1.09922 8.72899 1.09102 8.73446C1.06914 8.7454 1.18945 8.09461 1.21406 8.07001C1.25781 8.02626 3.67773 6.76024 3.68594 6.77938C3.69141 6.78758 3.6832 6.92704 3.66953 7.08836ZM11.8836 8.95047L13.248 10.5364L13.3355 11.0013C13.382 11.2556 13.423 11.477 13.423 11.488C13.4258 11.5016 12.7449 10.6895 11.9164 9.68876C10.2402 7.67079 10.3906 7.8868 10.3523 7.39735L10.3359 7.15946L10.4262 7.26063C10.4781 7.31805 11.1316 8.07821 11.8836 8.95047ZM9.4418 7.65165L9.9668 8.05907L10.0652 9.33876C10.1199 10.0415 10.1582 10.6266 10.1473 10.6376C10.1363 10.6485 9.69883 10.8509 9.17656 11.086L8.22227 11.5126L7.72187 10.9985L7.22148 10.4817L7.22695 9.22938L7.23242 7.97704L8.06641 7.61063C8.52578 7.40829 8.90312 7.24422 8.90859 7.24422C8.91406 7.24149 9.15469 7.42469 9.4418 7.65165ZM6.77031 8.03993C6.77578 8.04813 6.77852 8.44188 6.77578 8.9204L6.76758 9.78446L6.37383 9.16376C6.15508 8.81922 5.88437 8.39266 5.76953 8.21219L5.55898 7.88133L6.15781 7.95516C6.48594 7.99344 6.76211 8.03446 6.77031 8.03993ZM5.23359 10.0278C5.8625 10.9794 6.37109 11.7614 6.36562 11.7669C6.35469 11.7778 3.87461 10.6649 3.85273 10.6376C3.8418 10.6266 3.87461 10.0962 3.92656 9.45633C3.97578 8.81649 4.0168 8.26961 4.01953 8.23954C4.01953 8.17391 3.86914 7.94969 5.23359 10.0278ZM11.7441 10.1809C12.4031 10.9766 12.9555 11.6466 12.9719 11.6657C13.0074 11.7122 13.0895 11.7477 11.7305 11.138C11.1371 10.8727 10.6395 10.6431 10.6285 10.6321C10.6148 10.6212 10.5766 10.2247 10.541 9.75438C10.5055 9.28133 10.4672 8.8329 10.459 8.75907C10.4426 8.62508 10.4426 8.62235 10.4945 8.67704C10.5246 8.70711 11.0852 9.38251 11.7441 10.1809ZM7.525 11.827C7.38281 11.8927 7.2543 11.9446 7.24062 11.9446C7.22969 11.9446 7.21875 11.7559 7.21875 11.5263L7.22148 11.1106L7.50312 11.4114L7.78477 11.7095L7.525 11.827Z" fill="white"/>
<path d="M6.95626 1.60321C6.82501 1.62235 6.75938 1.79735 6.83321 1.9286C6.86329 1.99149 7.01094 2.04618 7.13946 2.04618C7.2461 2.04618 7.53321 2.1993 7.62618 2.30868C7.76563 2.46727 7.82852 2.61493 7.84219 2.82547C7.88868 3.58016 6.98087 4.00672 6.44219 3.48446C6.26993 3.31766 6.20157 3.16727 6.18516 2.93211C6.17149 2.70243 6.20157 2.59305 6.33555 2.39344C6.48321 2.17469 6.48594 2.16376 6.45313 2.06258C6.42032 1.95594 6.30274 1.89305 6.1961 1.9204C6.07579 1.95047 5.85977 2.26219 5.78321 2.51649C5.73126 2.69149 5.73126 3.0579 5.78048 3.22469C5.95274 3.78797 6.43673 4.15165 7.01368 4.15165C7.59063 4.15165 8.07462 3.78797 8.24688 3.22469C8.2961 3.0579 8.2961 2.70516 8.24141 2.52196C8.09923 2.02704 7.6836 1.67157 7.17774 1.61415C7.08751 1.60321 6.98634 1.59774 6.95626 1.60321Z" fill="white"/>
</svg>
