<svg xmlns="http://www.w3.org/2000/svg" viewBox="0 0 14.8 14"><g id="Layer_2" data-name="Layer 2"><g id="Layer_1-2" data-name="Layer 1"><path d="M.33,10.38,0,10.13,3,5.32,5.19,7.88,8.08,3.22l1.35,2-.19.07-.19,0L8.1,4,5.28,8.55,3.07,6ZM14.48,14l-2.62-2.6a2.39,2.39,0,0,1-.69.39,2.49,2.49,0,0,1-.77.13,2.3,2.3,0,1,1,2.28-2.29,2.36,2.36,0,0,1-.13.8,2.06,2.06,0,0,1-.41.68l2.63,2.6ZM10.4,11.51a1.86,1.86,0,0,0,1.88-1.88A1.88,1.88,0,0,0,10.4,7.75,1.88,1.88,0,0,0,8.52,9.63a1.86,1.86,0,0,0,1.88,1.88ZM11.59,5.3l-.21,0-.19,0L14.48,0l.32.26Z"/></g></g></svg>