<svg width="15" height="14" viewBox="0 0 15 14" fill="none" xmlns="http://www.w3.org/2000/svg">
<path d="M9.48508 0.0322275C9.24161 0.119767 9.03918 0.333145 8.97352 0.568408C8.95711 0.62312 8.94617 1.10185 8.94617 1.69001V2.71586L9.02276 2.88C9.1486 3.14262 9.3401 3.28214 9.65196 3.33138C9.73402 3.34506 9.81609 3.37241 9.83798 3.38883C9.86807 3.41345 9.87628 3.53928 9.87628 4.00707C9.87628 4.66089 9.89269 4.74022 10.0459 4.83597C10.169 4.9153 10.3742 4.89888 10.4672 4.80587C10.5027 4.76757 10.7161 4.43657 10.9377 4.06999C11.203 3.62409 11.3617 3.38883 11.4082 3.36694C11.4602 3.34232 11.7283 3.33138 12.4505 3.33138H13.4216L13.5611 3.26025C13.7253 3.18092 13.8812 3.01952 13.9551 2.85538C13.9961 2.76511 14.0071 2.67757 14.0071 2.3958C14.0071 2.05385 14.0071 2.04837 13.9359 1.99366C13.8457 1.92254 13.7608 1.9198 13.6733 1.99093C13.6104 2.04017 13.6022 2.06479 13.5912 2.32467C13.5776 2.642 13.5393 2.74322 13.3997 2.84444C13.3095 2.90736 13.304 2.90736 12.2672 2.92104L11.2249 2.93471L11.1182 3.00584C11.0334 3.06329 10.9404 3.1946 10.6696 3.64597L10.3277 4.21772L10.314 3.75266C10.303 3.356 10.2921 3.27667 10.2456 3.19733C10.1526 3.0414 10.0158 2.95113 9.8243 2.9183C9.60545 2.88547 9.50423 2.8335 9.43858 2.72134C9.3866 2.63927 9.38387 2.57635 9.38387 1.67633C9.38387 0.603971 9.3866 0.582086 9.57809 0.480868C9.66563 0.434363 9.78053 0.431627 11.4766 0.431627C13.1399 0.431627 13.2903 0.434363 13.3779 0.480868C13.5311 0.557465 13.5748 0.664154 13.594 1.02526C13.6077 1.29335 13.6186 1.34532 13.6624 1.37815C13.7417 1.4356 13.8867 1.42739 13.9523 1.36174C14.0016 1.31249 14.0071 1.27146 14.0071 0.967807C14.0071 0.582086 13.9742 0.456248 13.832 0.283904C13.78 0.220985 13.6733 0.133445 13.594 0.0896754L13.4463 0.00760694L11.5176 0.00213572C9.94193 -0.00333551 9.56989 0.00213572 9.48508 0.0322275Z" fill="#151515"/>
<path d="M4.06311 0.800663C3.38468 0.951122 2.85124 1.41891 2.61597 2.06999C2.52296 2.3244 2.49013 2.61985 2.49013 3.18065L2.4874 3.6457L2.38345 3.71683C2.32053 3.7606 2.25214 3.8454 2.20563 3.93568C2.1345 4.07793 2.1345 4.09161 2.1345 4.62779C2.1345 5.14755 2.13998 5.18585 2.20016 5.31443C2.32053 5.57431 2.51202 5.68373 2.84029 5.68373H3.05367L3.0865 5.87523C3.17951 6.41961 3.51052 6.94485 3.98378 7.30322L4.1315 7.41264V7.72724C4.1315 8.05004 4.10962 8.13758 4.00293 8.23333C3.95642 8.2771 3.83879 8.28257 2.72266 8.28804C1.50531 8.29625 1.49164 8.29625 1.3658 8.35916C1.20987 8.43576 1.05667 8.58075 0.985547 8.72027C0.8898 8.90629 0.873387 9.04854 0.900743 9.46435L0.922628 9.85281L0.802261 10.0306C0.528699 10.43 0.290701 11.0154 0.208633 11.4969C0.178541 11.6665 0.164863 11.9209 0.164863 12.3121V12.8784L0.0910012 12.9933C-0.0074809 13.1383 -0.0293658 13.42 0.0417601 13.6033C0.0964724 13.7511 0.282494 13.9234 0.432953 13.9672C0.515021 13.9918 1.78161 14 5.51846 14H10.4945L10.6368 13.9289C10.9322 13.7812 11.069 13.4392 10.9569 13.1219C10.9322 13.0562 10.8967 12.9851 10.8775 12.9605C10.8474 12.9304 10.8365 12.7635 10.8255 12.2766C10.8091 11.6036 10.7763 11.3683 10.6423 10.9607C10.5575 10.7063 10.3413 10.2686 10.1936 10.047L10.065 9.85828L10.0815 9.41785C10.1006 9.01298 10.0979 8.96921 10.0432 8.82695C9.9693 8.62999 9.83799 8.47953 9.65471 8.37831L9.50698 8.29625L8.25954 8.28804C7.07229 8.27983 7.00937 8.2771 6.96286 8.22785C6.87806 8.13484 6.8425 7.97618 6.83976 7.69167V7.41538L6.94645 7.34425C7.11879 7.22936 7.38415 6.97221 7.51272 6.78892L7.63582 6.61931L7.94221 6.60837C8.19389 6.6029 8.27049 6.58922 8.37444 6.53725C8.54678 6.45244 8.69451 6.30198 8.77931 6.12143L8.85044 5.97097V5.04086C8.85044 3.96577 8.84496 3.93568 8.62338 3.73871L8.49481 3.62655L8.48113 2.98095C8.46745 2.34081 8.46745 2.32987 8.39085 2.17668C8.26228 1.91406 8.01881 1.73898 7.71242 1.68427C7.58658 1.66238 7.55102 1.64597 7.55102 1.60767C7.55102 1.58031 7.5264 1.4791 7.49631 1.38061C7.42518 1.15356 7.25557 0.956593 7.03672 0.849904L6.88079 0.773307L5.55402 0.767836C4.52817 0.7651 4.18895 0.770571 4.06311 0.800663ZM6.90541 1.29034C7.02305 1.37788 7.11059 1.55022 7.11332 1.687C7.11332 1.88944 7.32123 2.09734 7.5264 2.10008C7.64403 2.10282 7.8109 2.163 7.88476 2.22865C7.91486 2.25601 7.9641 2.3244 7.99145 2.37911C8.03796 2.47212 8.04343 2.54872 8.04343 3.1998C8.04343 3.79342 8.03522 3.93021 8.0024 3.97945C7.9723 4.02322 7.55376 4.2065 7.47989 4.2065C7.47442 4.2065 7.46895 3.97671 7.46895 3.69221C7.46895 3.22168 7.46348 3.16697 7.40603 3.02745C7.29114 2.75116 7.09964 2.57061 6.82608 2.48033C6.65647 2.42562 6.33914 2.43656 6.07379 2.51042C5.74004 2.60617 5.22301 2.60617 4.91115 2.51316C4.59656 2.42015 4.27923 2.42015 4.07132 2.51589C3.85521 2.61711 3.68833 2.77851 3.59532 2.98368C3.52146 3.14782 3.51599 3.17244 3.50231 3.67579L3.48863 4.1983L3.24243 4.11349C3.05641 4.05057 2.98802 4.01227 2.96066 3.9603C2.90321 3.85087 2.93057 2.52136 2.99622 2.31893C3.1631 1.78548 3.59806 1.36967 4.12603 1.23836C4.24913 1.20827 4.54184 1.2028 5.54308 1.20553L6.8042 1.21101L6.90541 1.29034ZM4.78805 2.93991C5.03699 3.00557 5.13 3.01377 5.48563 3.01377C5.84673 3.01377 5.93154 3.00557 6.19416 2.93718C6.5279 2.85237 6.62091 2.85784 6.8042 2.96453C7.0039 3.07943 7.03125 3.17791 7.03125 3.77154C7.03125 4.24207 7.03672 4.28584 7.09417 4.398C7.16256 4.53478 7.32123 4.6442 7.45254 4.6442H7.53187L7.51546 5.16944C7.50178 5.62629 7.47442 5.87796 7.43612 5.91626C7.43065 5.92447 7.365 5.89711 7.29114 5.85881C7.15983 5.79316 7.13521 5.79042 6.75769 5.79863C6.28717 5.80957 6.19416 5.8424 6.05464 6.05031C5.97531 6.16794 5.96436 6.2035 5.96436 6.3649C5.96436 6.58649 6.03549 6.72327 6.2051 6.84363C6.30632 6.91476 6.35282 6.92844 6.53064 6.93665L6.73581 6.94759L6.65921 7.0023C6.49781 7.10899 6.20783 7.24303 6.02181 7.29501C5.60873 7.40991 5.23395 7.39349 4.81267 7.24577C4.50355 7.13634 4.30932 7.01051 4.0467 6.75062C3.847 6.55366 3.79229 6.47706 3.6856 6.25821C3.51599 5.90805 3.47496 5.69194 3.47496 5.11473V4.65241L3.58164 4.63326C3.64183 4.62505 3.72663 4.58402 3.77587 4.54572C3.92907 4.41714 3.94001 4.36517 3.94001 3.83172C3.94001 3.56363 3.95369 3.29828 3.9701 3.24083C4.02208 3.0466 4.24913 2.87152 4.4461 2.86605C4.47619 2.86605 4.62938 2.89888 4.78805 2.93991ZM2.8868 4.45544L3.03726 4.51836V4.89588V5.27339H2.94972C2.80747 5.27339 2.65974 5.22142 2.61324 5.15576C2.58041 5.10926 2.5722 5.0053 2.5722 4.6442V4.19282L2.65427 4.29404C2.70351 4.35423 2.79652 4.41714 2.8868 4.45544ZM8.41274 5.0436C8.39085 5.17491 8.29237 5.24604 8.11456 5.26518L7.96136 5.2816V4.89861V4.51836L8.09267 4.45818C8.1638 4.42535 8.26501 4.35423 8.31699 4.30225L8.41274 4.20377L8.42094 4.58128C8.42642 4.78919 8.42094 4.99709 8.41274 5.0436ZM8.41547 5.78495C8.38265 6.02569 8.2103 6.17614 7.96957 6.17614C7.86014 6.17614 7.82458 6.16794 7.83279 6.14058C7.84099 6.12417 7.86835 6.01201 7.89571 5.89711L7.94221 5.68647L8.1638 5.67553C8.2869 5.67279 8.39632 5.66458 8.41 5.66185C8.42368 5.65911 8.42642 5.71383 8.41547 5.78495ZM7.12426 6.27463C7.18445 6.33207 7.17898 6.4415 7.11606 6.47706C7.08597 6.49074 6.93824 6.50442 6.78505 6.50442C6.63185 6.50442 6.48413 6.49074 6.45404 6.47706C6.38565 6.43876 6.38291 6.29925 6.4513 6.26095C6.47592 6.24453 6.62912 6.23086 6.79052 6.23086C7.02031 6.23086 7.09144 6.23906 7.12426 6.27463ZM4.91662 7.74092C5.10538 7.78742 5.23395 7.8011 5.51299 7.79836C5.85494 7.79563 5.93974 7.78195 6.33641 7.66705C6.39112 7.65064 6.39385 7.66158 6.41027 7.8777C6.41848 8.00353 6.43489 8.14579 6.44583 8.19229L6.46498 8.28257H5.48563C4.56647 8.28257 4.50902 8.27983 4.52817 8.23333C4.54184 8.20871 4.55552 8.06098 4.56373 7.90779C4.57467 7.64517 4.57741 7.62876 4.62665 7.65338C4.654 7.66979 4.78531 7.70809 4.91662 7.74092ZM9.46868 8.78318C9.52066 8.81601 9.58632 8.89261 9.61367 8.95006C9.66565 9.05675 9.66565 9.07316 9.57811 10.6872C9.5316 11.5845 9.4851 12.3997 9.47689 12.5036L9.46048 12.6869H7.87382H6.28443L6.30358 12.6048C6.3282 12.4708 6.44857 12.2437 6.55252 12.1179C6.70024 11.9456 6.83429 11.7103 6.89447 11.5133C6.97381 11.2644 6.96833 10.8732 6.88627 10.6325C6.76316 10.2714 6.50328 9.95129 6.22972 9.81725C6.082 9.74612 6.00266 9.74612 5.88777 9.81451C5.73731 9.90752 5.71816 9.99506 5.71816 10.5668V11.0756L5.49384 11.0674L5.26678 11.0592L5.2531 10.5121C5.2449 10.1565 5.22848 9.94582 5.2066 9.90752C5.15736 9.82272 4.99049 9.75159 4.88106 9.76801C4.67589 9.80083 4.35856 10.0935 4.20263 10.389C3.90445 10.9553 3.97831 11.5708 4.4078 12.0878C4.5227 12.2273 4.63212 12.427 4.67315 12.5857L4.70051 12.6869H3.10838H1.51352L1.49711 12.3532C1.48069 12.0632 1.46975 12.0112 1.41777 11.9565C1.33297 11.8635 1.17157 11.869 1.09771 11.9674C1.04299 12.0331 1.04026 12.0604 1.05667 12.3641L1.07582 12.6869H0.826881H0.575205V12.4735C0.57794 11.8416 0.670951 11.2999 0.851502 10.865C0.930835 10.6762 0.944513 10.6571 0.960926 10.7173C0.971869 10.7556 0.980076 10.8732 0.982811 10.9826C0.985547 11.2179 1.02111 11.3054 1.12506 11.3465C1.22902 11.3902 1.33023 11.3629 1.38768 11.2753C1.43145 11.2069 1.42872 11.144 1.37674 10.1483C1.34118 9.49992 1.33023 9.06222 1.34391 9.01298C1.37127 8.91997 1.4889 8.78045 1.5737 8.74762C1.6038 8.73394 3.371 8.723 5.50204 8.723L9.37567 8.72027L9.46868 8.78318ZM6.42668 10.6626C6.4896 10.7939 6.49781 10.8486 6.49781 11.0866C6.49781 11.33 6.4896 11.3765 6.42395 11.5106C6.38291 11.5927 6.29264 11.7294 6.22698 11.8115C6.06011 12.0112 5.94521 12.2328 5.88503 12.4735L5.83305 12.6732L5.49384 12.6814L5.15736 12.6896L5.10812 12.5036C5.03973 12.241 4.95766 12.0769 4.76343 11.8197C4.51722 11.4942 4.47619 11.3848 4.47345 11.0866C4.47345 10.8623 4.48166 10.8212 4.56099 10.6626C4.61023 10.5641 4.68683 10.4492 4.7306 10.4054L4.81541 10.3233V10.7063C4.81541 11.1659 4.83729 11.2562 4.97954 11.3848C5.11906 11.5079 5.15462 11.5161 5.54581 11.5051C5.83305 11.4969 5.87956 11.4887 5.95889 11.434C6.1285 11.3136 6.15586 11.2124 6.15586 10.7255L6.15859 10.2932L6.25707 10.4027C6.30905 10.4629 6.38565 10.5805 6.42668 10.6626ZM10.1827 11.0045C10.3277 11.393 10.3714 11.6474 10.3879 12.1863L10.4043 12.6869H10.1526H9.90091L9.91733 12.4763C9.93374 12.2383 10.0131 10.8322 10.0131 10.7036L10.0158 10.6215L10.0596 10.7036C10.0842 10.7474 10.1389 10.8841 10.1827 11.0045ZM10.4344 13.1547C10.5137 13.193 10.5739 13.3161 10.5465 13.3982C10.5356 13.4283 10.5027 13.4802 10.4699 13.5076C10.4152 13.5623 10.3468 13.5623 5.49657 13.5623H0.583412L0.50955 13.5049C0.413804 13.4283 0.411068 13.286 0.506814 13.193L0.572469 13.1246H5.46922C9.05014 13.1246 10.3851 13.1328 10.4344 13.1547Z" fill="#151515"/>
<path d="M9.9337 1.05302C9.90361 1.08038 9.86805 1.14056 9.85984 1.1898C9.84616 1.26366 9.8571 1.29102 9.92823 1.36488C10.013 1.44695 10.0212 1.44969 10.21 1.43874C10.3714 1.43054 10.4097 1.41686 10.4535 1.36488C10.5246 1.27734 10.5191 1.14056 10.4425 1.0667C10.3905 1.01746 10.3468 1.00652 10.1854 1.00652C10.0404 1.00652 9.97747 1.01746 9.9337 1.05302Z" fill="#151515"/>
<path d="M10.9431 1.06037C10.8529 1.15065 10.8611 1.2929 10.9595 1.38044C11.0279 1.44336 11.0307 1.44336 11.9717 1.44336C13.0386 1.44336 13.0605 1.44062 13.0933 1.26281C13.107 1.18895 13.0988 1.14791 13.0578 1.0932L13.003 1.01934L12.0018 1.01113C11.0279 1.00566 10.9978 1.00566 10.9431 1.06037Z" fill="#151515"/>
<path d="M9.95561 1.99103C9.93099 2.0047 9.89542 2.05394 9.87628 2.10045C9.83524 2.1962 9.87628 2.33024 9.96108 2.37401C9.99117 2.39042 10.5957 2.40137 11.4903 2.40137H12.9703L13.0359 2.33298C13.1262 2.24544 13.1262 2.1196 13.0359 2.03206L12.9703 1.96367H11.4848C10.6012 1.96367 9.98023 1.97461 9.95561 1.99103Z" fill="#151515"/>
</svg>
