<svg width="12" height="15" viewBox="0 0 12 15" fill="none" xmlns="http://www.w3.org/2000/svg">
<path d="M1.51421 0.0729739C1.44966 0.140334 1.44685 0.165595 1.43843 0.550111L1.4272 0.954274H0.79289C0.108058 0.957081 0.085604 0.959888 0.0294702 1.10584C-0.00982341 1.21249 -0.00982341 14.112 0.0294702 14.2187C0.0912174 14.3787 -0.256812 14.3674 5.29482 14.3703H10.4339L10.5012 14.2973C10.5686 14.2271 10.5686 14.2187 10.577 13.5816L10.5854 12.9388H11.2254H11.8653L11.9326 12.8659L12 12.7929V8.13659V3.4803L10.2599 1.74015L8.51971 0H5.05064H1.58157L1.51421 0.0729739ZM8.1408 2.04888C8.1408 3.69641 8.14361 3.74412 8.27552 3.81429C8.31482 3.83674 8.83686 3.84516 9.92024 3.84516H11.5088V8.1394V12.4336H6.72342H1.93802V6.46942V0.505204H5.03941H8.1408V2.04888ZM9.89498 2.10502L11.1299 3.33996H9.88656H8.64601V2.10502C8.64601 1.4258 8.64881 0.870074 8.65443 0.870074C8.65723 0.870074 9.21576 1.4258 9.89498 2.10502ZM1.43843 7.1318L1.44685 12.8041L1.52544 12.8715L1.60402 12.9388H5.84212H10.0774V13.4019V13.865H5.29201H0.506607V7.66226V1.45948H0.969711H1.43281L1.43843 7.1318Z" fill="white"/>
<path d="M3.06069 2.15273C3.03824 2.16115 2.99052 2.19483 2.95684 2.2257C2.89229 2.28184 2.89229 2.28745 2.89229 3.11543V3.94901L2.96526 4.01637C3.03824 4.08373 3.03824 4.08373 3.7764 4.09215C4.25915 4.09777 4.55666 4.08935 4.63244 4.0697C4.82048 4.01918 4.8289 3.97427 4.8289 3.10139C4.8289 2.27342 4.82048 2.22009 4.6577 2.16396C4.56508 2.13308 3.14489 2.12186 3.06069 2.15273ZM4.3237 3.11543V3.59256H3.8606H3.39749V3.11543V2.63829H3.8606H4.3237V3.11543Z" fill="white"/>
<path d="M2.96246 4.61701C2.86423 4.71243 2.86703 4.87803 2.96527 4.97065C3.02982 5.02959 3.06631 5.03801 3.30768 5.04924C3.65852 5.06046 3.78202 5.02398 3.83534 4.89487C3.88306 4.7826 3.86622 4.70121 3.78202 4.60859C3.72869 4.54965 3.70062 4.54684 3.37785 4.54684C3.04666 4.54684 3.02702 4.54965 2.96246 4.61701Z" fill="white"/>
<path d="M4.39387 4.61701C4.30125 4.70682 4.30125 4.85277 4.39106 4.95942L4.45843 5.03801L7.37458 5.04643C9.45433 5.05204 10.3188 5.04643 10.3946 5.02398C10.577 4.97065 10.6247 4.76015 10.49 4.60859L10.4339 4.54684H7.44755H4.46123L4.39387 4.61701Z" fill="white"/>
<path d="M2.96246 6.04842C2.91194 6.09613 2.89229 6.14665 2.89229 6.22243C2.89509 6.43013 2.99052 6.48346 3.36943 6.48346C3.69219 6.48346 3.79604 6.44697 3.84095 6.32067C3.88024 6.2084 3.85218 6.09894 3.76798 6.03439C3.70903 5.98667 3.65571 5.97825 3.36381 5.97825C3.04666 5.97825 3.02701 5.98106 2.96246 6.04842Z" fill="white"/>
<path d="M4.39668 6.05122C4.29564 6.15226 4.29564 6.30663 4.39668 6.40206L4.46965 6.46942L7.40545 6.47784C9.62554 6.48345 10.3637 6.47503 10.4254 6.44977C10.5826 6.38522 10.6135 6.14103 10.476 6.03438C10.4086 5.97825 10.3525 5.97825 7.43913 5.97825H4.47246L4.39668 6.05122Z" fill="white"/>
<path d="M3.01859 7.44334C2.86984 7.52473 2.84177 7.72962 2.96526 7.8447C3.03543 7.91206 3.06069 7.91486 3.36943 7.91486C3.7371 7.91486 3.82411 7.88118 3.85498 7.72682C3.87463 7.61735 3.80727 7.47141 3.72026 7.43773C3.62203 7.40124 3.08876 7.40405 3.01859 7.44334Z" fill="white"/>
<path d="M4.45 7.44334C4.30125 7.52754 4.27599 7.7212 4.39668 7.84189L4.47246 7.91486H7.43071C9.49643 7.91486 10.4058 7.90644 10.4479 7.88399C10.5349 7.83628 10.5882 7.68472 10.5517 7.58087C10.4872 7.40124 10.6528 7.40966 7.43352 7.40966C5.28359 7.41247 4.4921 7.42089 4.45 7.44334Z" fill="white"/>
<path d="M3.03543 8.87194C2.9372 8.91124 2.89509 8.98141 2.89229 9.10209C2.89229 9.17787 2.91194 9.22839 2.96246 9.27611C3.02701 9.34347 3.04666 9.34628 3.37785 9.34628C3.70061 9.34628 3.72868 9.34347 3.78201 9.28172C3.8634 9.19191 3.88024 9.12455 3.84376 9.01789C3.79885 8.88036 3.68658 8.84107 3.36381 8.84388C3.22067 8.84388 3.07192 8.85791 3.03543 8.87194Z" fill="white"/>
<path d="M4.4921 8.86072C4.31809 8.92527 4.26476 9.14981 4.39387 9.27611L4.46123 9.34628H7.43351C10.3525 9.34628 10.4086 9.34628 10.476 9.29014C10.6219 9.17787 10.5826 8.93089 10.4142 8.87194C10.3469 8.84949 9.51888 8.84107 7.4279 8.84388C5.83651 8.84388 4.51456 8.8523 4.4921 8.86072Z" fill="white"/>
<path d="M3.07473 10.2921C2.8951 10.3398 2.82493 10.5924 2.95685 10.7159C3.01579 10.7721 3.05228 10.7777 3.37224 10.7777C3.71185 10.7777 3.72588 10.7749 3.79044 10.7075C3.88586 10.6065 3.88025 10.4633 3.78202 10.3623C3.71185 10.2921 3.6894 10.2865 3.41995 10.2809C3.25997 10.2781 3.1056 10.2837 3.07473 10.2921Z" fill="white"/>
<path d="M4.50053 10.2921C4.33493 10.3258 4.26757 10.584 4.39387 10.7075L4.46123 10.7777H7.44755H10.4339L10.4956 10.7103C10.5882 10.6121 10.5826 10.4577 10.4872 10.3595L10.4142 10.2865L7.48684 10.2837C5.87861 10.2809 4.53421 10.2865 4.50053 10.2921Z" fill="white"/>
</svg>
