<svg width="12" height="12" viewBox="0 0 12 12" fill="none" xmlns="http://www.w3.org/2000/svg">
<g clip-path="url(#clip0_73_30)">
<path d="M8.73474 7.44H3.12C2.30367 7.44159 1.52135 7.75078 0.944706 8.29971C0.368064 8.84864 0.0442106 9.59248 0.0442123 10.368V11.7C0.045804 11.7321 0.0541525 11.7635 0.0687629 11.7925C0.0833733 11.8214 0.103947 11.8473 0.12927 11.8685C0.154593 11.8898 0.184149 11.906 0.216187 11.9162C0.248225 11.9264 0.282095 11.9304 0.315791 11.928C0.349671 11.9313 0.383909 11.9279 0.41634 11.9181C0.448772 11.9082 0.478695 11.892 0.504217 11.8706C0.529738 11.8492 0.550305 11.8229 0.564617 11.7936C0.57893 11.7642 0.586678 11.7324 0.587371 11.7V10.368C0.587371 9.73148 0.853538 9.12103 1.32731 8.67094C1.80109 8.22086 2.44366 7.968 3.11368 7.968H8.72843C9.39845 7.968 10.041 8.22086 10.5148 8.67094C10.9886 9.12103 11.2547 9.73148 11.2547 10.368V11.7C11.2563 11.7321 11.2647 11.7635 11.2793 11.7925C11.2939 11.8214 11.3145 11.8473 11.3398 11.8685C11.3651 11.8898 11.3947 11.906 11.4267 11.9162C11.4588 11.9264 11.4926 11.9304 11.5263 11.928C11.5602 11.9313 11.5944 11.9279 11.6269 11.9181C11.6593 11.9082 11.6892 11.892 11.7147 11.8706C11.7403 11.8492 11.7608 11.8229 11.7751 11.7936C11.7895 11.7642 11.7972 11.7324 11.7979 11.7V10.368C11.7963 9.59504 11.4736 8.85391 10.9 8.30566C10.3265 7.75741 9.54836 7.44632 8.73474 7.44V7.44Z" fill="black" stroke="black" stroke-width="0.14" stroke-miterlimit="10"/>
<path d="M5.9621 5.958C6.57766 5.95682 7.17903 5.78232 7.69024 5.45657C8.20145 5.13082 8.59957 4.66843 8.83427 4.12783C9.06897 3.58722 9.12973 2.99265 9.00887 2.41925C8.88802 1.84585 8.59097 1.31935 8.15526 0.906266C7.71956 0.493182 7.16474 0.212056 6.56092 0.0984064C5.95709 -0.0152432 5.33136 0.0436843 4.76277 0.267744C4.19419 0.491803 3.70828 0.87094 3.36642 1.35725C3.02456 1.84356 2.8421 2.41522 2.8421 3C2.8421 3.38896 2.92284 3.77409 3.07972 4.13336C3.23659 4.49264 3.46651 4.81899 3.75631 5.09375C4.04611 5.3685 4.3901 5.58626 4.7686 5.73456C5.1471 5.88286 5.55268 5.95879 5.9621 5.958V5.958ZM3.39157 3C3.39157 2.51702 3.54234 2.04488 3.82479 1.6433C4.10724 1.24171 4.5087 0.928714 4.9784 0.743885C5.44811 0.559056 5.96496 0.510697 6.46359 0.604922C6.96222 0.699147 7.42025 0.931726 7.77974 1.27325C8.13924 1.61477 8.38405 2.04989 8.48323 2.52359C8.58242 2.99729 8.53152 3.4883 8.33696 3.93451C8.14241 4.38073 7.81293 4.76212 7.39021 5.03045C6.96749 5.29878 6.47051 5.442 5.9621 5.442C5.28087 5.44042 4.62801 5.18263 4.1463 4.72501C3.6646 4.26738 3.39324 3.64717 3.39157 3V3Z" fill="black" stroke="black" stroke-width="0.14" stroke-miterlimit="10"/>
</g>
<defs>
<clipPath id="clip0_73_30">
<rect width="12" height="12" fill="white"/>
</clipPath>
</defs>
</svg>
