<svg width="14" height="14" viewBox="0 0 14 14" fill="none" xmlns="http://www.w3.org/2000/svg">
<path d="M4.64653 0.0175847C4.45236 0.0531379 4.24724 0.124244 4.064 0.219964C3.86436 0.323889 3.54165 0.635664 3.43225 0.829839C3.38302 0.920089 3.31739 0.991196 3.25175 1.02948C3.10133 1.11426 2.83879 1.36587 2.74307 1.51629C2.58991 1.75422 2.53795 1.96207 2.53795 2.31487C2.53795 2.75518 2.66923 3.2037 2.91263 3.60846L3.00561 3.76161L3.01929 4.33046C3.03296 4.98136 3.06852 5.17007 3.25175 5.5338C3.41584 5.85925 3.64557 6.13 3.95461 6.3652L4.09135 6.46912L4.08315 6.70706L4.07221 6.94499L3.85069 6.7262C3.60728 6.48553 3.53891 6.44998 3.42405 6.49921C3.33106 6.5375 3.35021 6.49647 3.02202 7.34155C2.87707 7.71349 2.75401 8.03073 2.7458 8.04988C2.7376 8.06628 2.64188 8.08816 2.52428 8.0991C1.35923 8.19482 0.423904 8.95511 0.079311 10.0846C0.019144 10.2843 0.019144 10.3171 0.00820459 11.8623L0 13.4403L0.0738413 13.4977L0.147683 13.5552L5.51895 13.5497L10.893 13.5415L10.9449 13.4758C10.9969 13.4102 10.9996 13.3637 10.9914 11.8623C10.9805 10.3444 10.9805 10.3089 10.9176 10.0956C10.6003 8.98246 9.64859 8.20029 8.49175 8.0991L8.27296 8.07996L7.99947 7.36616C7.61659 6.35426 7.59198 6.33785 7.15987 6.74535L6.90006 6.99148L6.88365 6.9067C6.87544 6.85748 6.86724 6.76996 6.86724 6.70706C6.86997 6.59766 6.87271 6.59219 7.06415 6.47186C7.30482 6.32144 7.6959 5.93583 7.81897 5.72798C7.97486 5.46543 8.09246 5.15639 8.13895 4.90205C8.18544 4.62309 8.19091 4.00501 8.15262 3.12165L8.12801 2.54733L8.19365 2.45161C8.38235 2.17539 8.45893 1.83353 8.45619 1.24827C8.45619 1.01581 8.43705 0.687626 8.41517 0.523534C8.37688 0.263722 8.36321 0.214495 8.30304 0.159798C8.21006 0.0804865 8.16083 0.0832214 7.9858 0.173472C7.84358 0.247313 7.83264 0.250048 7.37319 0.247313C6.89185 0.244578 6.26283 0.178942 5.71039 0.069547C5.39862 0.00664522 4.84344 -0.0207034 4.64653 0.0175847ZM5.6092 0.482511C6.22181 0.60558 6.70315 0.654808 7.26379 0.657542C7.56463 0.660277 7.85179 0.652073 7.89828 0.641133C7.98033 0.621989 7.98853 0.627459 8.00768 0.695831C8.01862 0.736853 8.02955 0.991196 8.02955 1.26195C8.02955 1.84721 7.98853 2.02771 7.81897 2.22462L7.71505 2.34495V2.8509C7.71505 3.12712 7.70958 3.35412 7.70137 3.35412C7.6959 3.35412 7.633 3.32677 7.56463 3.29395C7.44156 3.23378 7.43882 3.23378 7.45797 3.11892C7.48258 2.95483 7.42515 2.71963 7.32943 2.58836C7.27473 2.51178 7.19542 2.44888 7.0915 2.40238L6.93561 2.32854L5.51622 2.32034L4.09682 2.31213L3.95188 2.38324C3.73035 2.49264 3.60728 2.68134 3.57173 2.97671C3.55259 3.11892 3.54165 3.1408 3.41584 3.24472C3.342 3.30762 3.27636 3.35685 3.27363 3.35138C3.23534 3.30762 3.11227 3.02593 3.04937 2.83449C2.98647 2.64305 2.9728 2.5528 2.9728 2.31487C2.97006 2.04412 2.97553 2.01677 3.05758 1.84721C3.15877 1.64209 3.31465 1.48621 3.54438 1.35493C3.65651 1.29203 3.71121 1.24007 3.75497 1.15529C3.95735 0.753263 4.30741 0.49892 4.76139 0.427814C4.9583 0.397731 5.28375 0.416875 5.6092 0.482511ZM6.88638 2.788C7.00398 2.8509 7.0368 2.97397 6.99851 3.19276C6.95202 3.46078 6.95749 3.46625 7.37592 3.67683L7.74786 3.86007L7.73692 4.36602C7.72599 4.83094 7.71778 4.88837 7.64941 5.09075C7.34857 5.96591 6.47615 6.51562 5.47519 6.46366C4.64653 6.4199 3.95735 5.97958 3.62369 5.28219C3.49242 5.00871 3.44866 4.74343 3.44866 4.2156V3.77255L3.69206 3.56197C3.82607 3.44437 3.94367 3.33224 3.95188 3.31036C3.96008 3.28575 3.96828 3.22284 3.96828 3.16815C3.96828 3.00405 4.02025 2.87005 4.1105 2.79347L4.19528 2.72236L5.49707 2.73057C6.6758 2.73877 6.80707 2.74424 6.88638 2.788ZM4.63833 6.73441C5.0677 6.91217 5.79791 6.93405 6.3777 6.78637L6.4488 6.76996L6.46795 7.079L6.48709 7.38804L6.01396 7.84476C5.75415 8.09637 5.53263 8.30422 5.52169 8.30422C5.51075 8.30422 5.27555 8.08543 4.99659 7.82015L4.48791 7.33334V7.13917C4.48791 6.9614 4.51252 6.69065 4.52893 6.69065C4.53167 6.69065 4.58363 6.70979 4.63833 6.73441ZM4.83524 8.32063L5.25094 8.72812L5.04035 9.29424C4.92549 9.60601 4.82156 9.86309 4.81062 9.86309C4.80242 9.86309 4.43321 9.52397 3.99016 9.10827C3.54985 8.69257 3.17244 8.33704 3.15056 8.31789C3.12048 8.28781 3.1533 8.18388 3.342 7.69434L3.56899 7.10361L3.9929 7.50837C4.2281 7.73263 4.60551 8.0991 4.83524 8.32063ZM7.67129 7.69981L7.88187 8.26046L7.7506 8.389C7.19269 8.93597 6.1972 9.86035 6.18352 9.84394C6.16711 9.82754 5.80338 8.84299 5.76782 8.72812C5.75688 8.68983 7.41968 7.09267 7.44156 7.12002C7.4525 7.13096 7.55642 7.39351 7.67129 7.69981ZM3.76591 9.472C4.31561 9.9971 4.80242 10.4401 4.84618 10.4593C4.92002 10.4894 4.9419 10.4866 5.01574 10.4429C5.08958 10.4019 5.11966 10.3472 5.20444 10.1202L5.30563 9.84941L5.30837 10.7C5.30837 11.1676 5.30016 11.9033 5.28922 12.3327L5.27281 13.1176H3.49789H1.7257V12.7265C1.7257 12.3655 1.72023 12.3299 1.671 12.2834C1.59169 12.2123 1.43854 12.2151 1.36196 12.2916C1.30726 12.3491 1.30179 12.3846 1.29359 12.7347L1.28265 13.1176H0.845072H0.407494L0.421169 11.813C0.432108 10.5824 0.434843 10.4921 0.492275 10.2733C0.60167 9.84394 0.866951 9.39543 1.17052 9.12468C1.57528 8.76367 2.13046 8.53121 2.59538 8.52574L2.76768 8.52301L3.76591 9.472ZM8.97855 8.6324C9.73611 8.88401 10.2968 9.48021 10.5101 10.2596C10.5675 10.4675 10.5702 10.5441 10.5812 11.7966L10.5894 13.1176H10.1518H9.7115V12.7511C9.7115 12.4038 9.70876 12.3792 9.64586 12.3081C9.59663 12.2479 9.55834 12.2315 9.4763 12.2342C9.2958 12.2397 9.27392 12.2944 9.27392 12.7374V13.1176H7.49079H5.70492L5.71313 11.6763C5.71586 10.8805 5.72133 10.1585 5.7268 10.0682L5.73227 9.90411L5.82252 10.1585C5.92918 10.4483 5.98935 10.5085 6.13977 10.4812C6.21634 10.4675 6.42693 10.2788 7.25559 9.49115L8.27569 8.51754L8.49995 8.53121C8.64216 8.54215 8.8172 8.5777 8.97855 8.6324Z" fill="white"/>
<path d="M4.30468 3.70965C4.17614 3.76161 4.14879 3.94758 4.25545 4.05151C4.31288 4.11168 4.3457 4.11988 4.5262 4.11988C4.77234 4.11988 4.80789 4.10894 4.85712 4.00775C4.91455 3.89836 4.90908 3.85186 4.81883 3.76161C4.74499 3.68777 4.72311 3.6823 4.55082 3.68504C4.44963 3.68504 4.3375 3.69598 4.30468 3.70965Z" fill="white"/>
<path d="M6.16985 3.75067C6.08507 3.83272 6.08233 3.95032 6.15891 4.04877C6.21087 4.11441 6.23001 4.11988 6.4406 4.11988C6.64024 4.11988 6.67306 4.11168 6.72502 4.05698C6.81254 3.96399 6.80707 3.81358 6.71408 3.73973C6.65392 3.69324 6.60196 3.6823 6.43786 3.6823C6.2601 3.6823 6.22728 3.69051 6.16985 3.75067Z" fill="white"/>
<path d="M1.56982 10.7492L1.49324 10.8148V11.3344C1.49324 11.8076 1.49871 11.8595 1.5452 11.9115C1.59717 11.9689 1.61357 11.9689 2.75675 11.9689C3.87804 11.9689 3.91633 11.9662 3.96829 11.9142C4.02025 11.8623 4.02299 11.824 4.02299 11.3317C4.02299 10.8285 4.02025 10.7984 3.96556 10.7492C3.91086 10.7 3.84522 10.6972 2.77863 10.689L1.64913 10.6808L1.56982 10.7492ZM3.61276 11.3399V11.5587H2.76495H1.91714V11.3399V11.1211H2.76495H3.61276V11.3399Z" fill="white"/>
<path d="M7.09424 10.7109C6.99031 10.7547 6.97664 10.823 6.97664 11.3509C6.97664 11.824 6.97937 11.8623 7.03134 11.9142C7.0833 11.9662 7.12159 11.9689 8.24288 11.9689C9.38605 11.9689 9.40246 11.9689 9.45442 11.9115C9.50092 11.8595 9.50639 11.7994 9.51459 11.3509L9.5228 10.8476L9.44075 10.7656L9.36144 10.6835L8.25655 10.6863C7.64941 10.6863 7.12706 10.6972 7.09424 10.7109ZM9.08248 11.3399V11.5587H8.23468H7.38687V11.3399V11.1211H8.23468H9.08248V11.3399Z" fill="white"/>
<path d="M10.9203 1.19631C9.98497 1.28656 9.14263 1.88823 8.7242 2.76612C8.54917 3.13533 8.47806 3.42522 8.45892 3.84092C8.43157 4.49455 8.58472 5.03059 8.95119 5.56115C9.11802 5.80182 9.45714 6.13274 9.70875 6.29409C10.3214 6.69065 11.0926 6.83013 11.8146 6.67697C12.914 6.44177 13.7728 5.55294 13.9669 4.44259C14.0244 4.11167 14.0052 3.60025 13.9232 3.27207C13.7646 2.62938 13.3297 2.0195 12.7609 1.63936C12.2358 1.28656 11.5849 1.13067 10.9203 1.19631ZM11.8529 1.69679C12.2576 1.81712 12.5503 1.98395 12.8538 2.27111C13.8056 3.17908 13.8302 4.66138 12.9113 5.5967C11.7681 6.75355 9.84823 6.45545 9.13443 5.00871C8.95119 4.63677 8.88829 4.37695 8.88556 3.98313C8.88009 2.82629 9.67046 1.87182 10.8191 1.64209C11.1035 1.58739 11.552 1.60927 11.8529 1.69679Z" fill="white"/>
<path d="M10.9285 1.96207C10.6933 1.99763 10.5046 2.05779 10.3022 2.16172C9.7033 2.47349 9.31222 3.03414 9.21923 3.70965C9.16453 4.10894 9.24384 4.53558 9.44622 4.92393C9.60485 5.2357 9.96585 5.59397 10.2776 5.75533C10.5894 5.91668 10.8601 5.98232 11.2157 5.98232C11.5794 5.98506 11.8119 5.93036 12.1455 5.769C12.3643 5.66234 12.4409 5.60764 12.6542 5.39433C12.8621 5.18648 12.9222 5.10443 13.0316 4.88564C13.1848 4.5766 13.2395 4.33593 13.2395 3.97493C13.2395 3.40335 13.0426 2.91654 12.6542 2.52819C12.3506 2.22736 11.9377 2.02224 11.5056 1.96207C11.2676 1.92926 11.1637 1.92926 10.9285 1.96207ZM11.6095 2.41333C11.8994 2.48717 12.1127 2.61024 12.337 2.83449C12.5749 3.06969 12.6952 3.27754 12.7746 3.58932C12.8429 3.8546 12.8429 4.05424 12.7773 4.31679C12.6159 4.94854 12.1483 5.39706 11.5138 5.53107C10.9942 5.64046 10.3952 5.43261 10.0233 5.01145C9.87833 4.85009 9.7033 4.49729 9.65954 4.28944C9.55015 3.75888 9.70877 3.24746 10.1081 2.84817C10.3405 2.61571 10.5511 2.4899 10.8355 2.41333C11.0324 2.35863 11.4017 2.35863 11.6095 2.41333Z" fill="white"/>
<path d="M11.0871 2.68408C11.057 2.70596 11.0242 2.75245 11.0133 2.788C11.0051 2.82355 10.9695 2.86458 10.9312 2.88372C10.696 2.99038 10.5484 3.25566 10.5648 3.54282C10.5839 3.88742 10.7562 4.07065 11.15 4.16364C11.4126 4.22654 11.4892 4.28124 11.4892 4.40977C11.4892 4.53558 11.4509 4.60121 11.3497 4.65591C11.1856 4.74069 11.0215 4.6395 10.9723 4.42345C10.9394 4.2703 10.8847 4.21833 10.7617 4.21833C10.6468 4.21833 10.532 4.32499 10.532 4.43165C10.532 4.64771 10.6988 4.92666 10.8875 5.02238C10.9449 5.05247 11.0023 5.10716 11.0215 5.15366C11.0543 5.2357 11.15 5.29587 11.2403 5.29587C11.3114 5.29587 11.4345 5.19195 11.4345 5.13178C11.4345 5.10443 11.4618 5.07708 11.4974 5.06614C11.5958 5.04153 11.779 4.86923 11.842 4.74069C11.883 4.65591 11.8994 4.57113 11.8994 4.43165C11.8966 4.07886 11.7517 3.89836 11.3852 3.79443C10.9996 3.6823 10.9695 3.66042 10.9695 3.49086C10.9695 3.37053 11.0981 3.24472 11.2239 3.24472C11.3469 3.24472 11.4536 3.34318 11.4782 3.47992C11.5138 3.69051 11.6997 3.77802 11.8474 3.65769C11.9021 3.61393 11.9131 3.58111 11.9103 3.45804C11.9049 3.22011 11.7517 2.99312 11.5247 2.87825C11.4755 2.85364 11.4345 2.81535 11.4345 2.79347C11.4345 2.66767 11.2102 2.59656 11.0871 2.68408Z" fill="white"/>
</svg>
