<svg width="512" height="512" viewBox="0 0 512 512" fill="none" xmlns="http://www.w3.org/2000/svg">
<path d="M131.5 32.1C68.7001 36.8 17.2001 84 6.40011 147C4.40011 158.9 4.90011 187.7 7.40011 198.5C11.5001 216.6 18.4001 232.7 28.4001 248C32.3001 253.9 57.6001 279.8 144.7 367L246.092 468.574C251.561 474.053 260.439 474.053 265.908 468.574L367.3 367C454.4 279.8 479.7 253.9 483.6 248C493.6 232.7 500.5 216.5 504.6 198.5C507.1 187.3 507.6 159.4 505.5 146.8C495.8 88.9 450.2 43.1 392.5 33.5C379.5 31.3 358.4 31.3 345.5 33.5C325.9 36.9 304.9 45.5 289.2 56.7C284.6 60 275.3 68 268.4 74.4L256 86.1L243.6 74.4C228.1 59.9 217.7 52.3 203.5 45.5C180.7 34.5 157.6 30.2 131.5 32.1ZM153.1 53.1C165.3 54.3 176.2 56.9 186.7 61.1C203.8 67.9 212.3 74.2 235.8 97.4L256 117.4L276.3 97.4C287.4 86.3 299.3 75.5 302.7 73.2C336.9 50.2 378.8 46.3 416.3 62.5C432.8 69.7 453.4 86.2 463.6 100.5C478.8 121.9 486 144 486 169.8C486 190.1 482.3 205.8 473.2 223.5C470.6 228.4 466 235.8 462.8 240C459.7 244.1 411.9 292.7 356.6 348L256 448.5L155.4 348C93.7001 286.3 52.5001 244.4 48.8001 239.6C41.0001 229.1 32.7001 212 29.4001 199.5C25.5001 184.9 24.9001 161.9 28.0001 147.1C34.3001 116.2 52.1001 89.7 78.1001 72.4C96.8001 59.9 114 54.4 141.1 52.1C142 52.1 147.4 52.5 153.1 53.1Z" fill="black"/>
</svg>
