<svg width="512" height="512" viewBox="0 0 512 512" fill="none" xmlns="http://www.w3.org/2000/svg">
<path fill-rule="evenodd" clip-rule="evenodd" d="M462.255 131.056C469.294 131.056 475 135.537 475 141.065L475 460.991C475 466.519 469.294 471 462.255 471C455.217 471 449.511 466.519 449.511 460.991L449.511 141.065C449.511 135.537 455.217 131.056 462.255 131.056ZM266.5 41C273.539 41 279.245 45.4813 279.245 51.0093L279.244 460.991C279.244 466.519 273.539 471 266.5 471C259.461 471 253.756 466.519 253.756 460.991L253.756 51.0093C253.756 45.4813 259.461 41 266.5 41ZM70.7445 207.555C77.7831 207.555 83.489 212.036 83.489 217.564L83.489 460.991C83.489 466.519 77.7831 471 70.7445 471C63.7059 471 58 466.519 58 460.991L58 217.564C58 212.036 63.7059 207.555 70.7445 207.555Z" fill="black"/>
</svg>
