<svg width="512" height="512" viewBox="0 0 512 512" fill="none" xmlns="http://www.w3.org/2000/svg">
<g clip-path="url(#clip0_213_46)">
<path d="M278.51 34.8691C271.292 33.5614 263.965 32.9519 256.63 33.0491C248.597 32.949 240.574 33.6491 232.68 35.1391C192.04 43.7491 159.02 77.1391 150.51 118.139C147.139 134.009 147.359 150.433 151.153 166.207C154.947 181.981 162.22 196.708 172.44 209.309C182.602 221.756 195.42 231.771 209.954 238.622C224.489 245.472 240.372 248.983 256.44 248.899C285.58 248.899 309.98 239.269 331.01 219.459C352.9 198.789 364.47 171.609 364.47 140.869C364.38 88.8691 329.07 45.2591 278.51 34.8691ZM256.35 228.939C208.59 228.939 168.24 188.599 168.24 140.839C168.24 118.049 177.82 95.4891 194.51 78.9591C204.946 68.2969 217.948 60.4975 232.268 56.3103C246.588 52.1231 261.744 51.6888 276.28 55.0491C315.13 64.1791 344.43 101.049 344.43 140.829C344.45 188.599 304.11 228.939 256.35 228.939Z" fill="black"/>
<path d="M464.5 446.78V473.44L461.5 476.44C458.5 479.44 458.5 479.44 454.64 479.44C451.09 479.44 450.32 479.16 447.77 476.91L445.18 474.63L444.39 444.63C443.61 419.8 442.69 408.39 441 402.55C428.34 357.81 397.34 326.61 353.73 314.74C341 311.21 341 311.21 256.22 311.21C179.77 311.21 170.91 311.3 160.74 314.15C148.42 317.4 125.94 327.69 117.74 333.85C100.48 346.85 83.3 368.85 76.92 386C69.67 405.26 69.05 411.32 68.06 444.67L67.27 474.61L64.68 476.87C62.15 479.11 61.39 479.39 57.83 479.39C54 479.39 53.93 479.39 50.97 476.39L47.97 473.39V446.78C47.97 422.95 49.08 411.84 50.03 406.66C60.63 345.51 107.77 300.47 170.13 291.88C174.71 291.38 214.78 290.93 261.91 291.08C330.91 291.49 346.32 291.92 353.48 293.62C395.48 303.7 428.95 328.78 447.77 364.24C460.91 388.68 464.5 406.42 464.5 446.78Z" fill="black"/>
</g>
<defs>
<clipPath id="clip0_213_46">
<rect width="416.5" height="446.36" fill="white" transform="translate(48 33)"/>
</clipPath>
</defs>
</svg>
