<svg width="512" height="512" viewBox="0 0 512 512" fill="none" xmlns="http://www.w3.org/2000/svg">
<g clip-path="url(#clip0_228_385)">
<g clip-path="url(#clip1_228_385)">
<path d="M493.88 226.962C487.3 185.962 456.77 155.022 416.09 148.142L405.68 146.352L399.6 137.352C392.19 126.352 369.95 103.872 358.6 95.9018C351.08 90.6818 349.85 89.3618 349.85 86.5418C349.85 77.0618 343.85 58.5418 337.06 46.9718C324.99 26.3518 303.06 9.76182 279.74 3.68182C273.39 2.03182 261.04 1.00182 251.24 1.00182C247.51 0.926712 243.781 1.16421 240.09 1.71182C230.608 3.35651 221.419 6.38906 212.82 10.7118C204.365 15.0071 196.61 20.5603 189.82 27.1818C173.54 42.8318 163.82 62.5718 160.95 85.8418C160.31 90.6018 159.95 91.0318 151.17 97.4018C138.94 106.292 121.17 124.332 112.39 136.802C105.81 146.172 104.66 147.282 101.23 147.612C94.5902 148.132 82.5902 151.092 75.5402 153.952C48.4302 164.952 28.6502 187.032 19.8502 215.952C17.3102 224.272 16.9902 226.262 16.9902 241.952C16.9902 257.642 17.3402 259.812 19.7502 267.852C24.9602 284.712 33.5402 298.932 45.2402 310.132C55.3426 319.835 67.4642 327.187 80.7383 331.661C94.0125 336.135 108.111 337.62 122.026 336.011C135.941 334.402 149.329 329.738 161.232 322.354C173.135 314.969 183.259 305.045 190.88 293.292C196.501 284.562 200.685 274.987 203.27 264.932C206.21 254.262 206.05 229.182 202.96 217.852C198.5 201.552 191.18 188.672 179.21 176.082C167.405 163.695 152.412 154.806 135.88 150.392L127.1 148.032L135.88 137.452C141.101 131.362 146.727 125.632 152.72 120.302L161.64 112.712L164.32 121.782C168.854 137.328 177.263 151.468 188.759 162.874C200.254 174.28 214.459 182.579 230.04 186.992C240.69 190.062 261.33 190.902 272.52 188.732C290.571 185.354 307.267 176.847 320.611 164.229C333.954 151.611 343.38 135.416 347.76 117.582L349.07 112.442L352.96 115.242C360.79 120.782 382.7 143.642 382.7 147.032C382.7 148.252 378.53 149.222 376.7 149.582C362.6 152.582 344.64 162.722 333.02 174.342C321.713 185.709 313.416 199.714 308.88 215.092C306.43 223.342 306.12 225.352 306.12 241.492C306.12 257.632 306.43 259.642 308.88 267.902C321.64 309.372 357.48 336.172 400.19 336.172C421.06 336.209 441.358 329.358 457.937 316.681C474.515 304.005 486.447 286.212 491.88 266.062C494.7 255.512 495.63 237.602 493.88 226.962ZM129.71 167.962C135.221 169.624 140.576 171.769 145.71 174.372C163.06 183.052 176.92 199.202 183.71 218.702C186.28 226.202 186.51 228.162 186.51 242.012C186.51 255.862 186.28 257.832 183.71 265.332C174.71 290.952 154.04 310.002 128.3 316.282C122.667 317.448 116.923 317.994 111.17 317.912C105.198 317.996 99.2344 317.416 93.3902 316.182C53.1902 306.492 27.3902 264.562 36.9402 224.612C42.8802 200.052 59.9502 180.512 83.8202 170.852C97.3102 165.392 115.33 164.252 129.71 167.952V167.962ZM309.27 149.332C302.251 156.403 293.893 162.007 284.686 165.815C275.478 169.623 265.604 171.559 255.64 171.512C220.36 171.512 189.64 147.242 180.97 112.512C178.56 102.992 179.07 84.5118 181.97 75.2018C188.97 52.5818 204.66 34.5018 225.06 25.6018C240.15 18.9218 261.46 17.6018 276.86 22.3918C292.675 27.1655 306.565 36.8367 316.53 50.0118C327.302 64.734 332.487 82.8077 331.157 101.001C329.827 119.195 322.069 136.323 309.27 149.322V149.332ZM472.93 264.332C462.23 296.232 433.01 317.662 400.22 317.662C389 317.569 377.933 315.05 367.778 310.277C357.623 305.505 348.622 298.591 341.39 290.012C335.12 282.512 327.96 267.802 325.74 257.902C323.68 247.086 323.68 235.978 325.74 225.162C327.8 215.702 334.97 200.842 341.08 193.362C359.58 170.932 390.47 160.532 417.94 167.472C424.585 169.064 430.978 171.564 436.94 174.902C442.891 178.35 448.344 182.592 453.15 187.512C463.6 197.852 468.8 206.082 473.03 218.982C475.43 226.072 475.73 228.592 475.73 241.472C475.73 254.352 475.44 256.742 472.93 264.292V264.332Z" fill="black"/>
<path d="M263.8 29.5108C255.26 28.2508 252.43 28.3308 244.8 30.0208C233.632 32.3542 223.617 38.4853 216.46 47.3708C209.382 56.3871 205.593 67.5489 205.72 79.0108C205.72 93.1108 211.83 107.541 221.29 115.781L225.29 119.221L225.5 138.221L225.8 156.571L255.98 156.871L286.03 157.071V118.831L291.43 113.541C297.88 107.121 303.32 96.3208 304.88 86.6508C308.88 59.8208 290.11 33.6408 263.8 29.5108ZM267.46 138.591H243.82V128.751L255.64 128.641H267.46V138.591ZM283.66 92.5908C281.003 97.8301 276.964 102.243 271.979 105.35C266.994 108.458 261.254 110.142 255.38 110.221C251.138 110.222 246.946 109.308 243.09 107.541C235.02 103.811 231.23 100.231 227.51 92.8008C225.406 88.678 224.258 84.1347 224.149 79.5076C224.04 74.8805 224.973 70.2881 226.88 66.0708C228.951 61.5932 232.004 57.6398 235.813 54.5045C239.621 51.3692 244.088 49.1325 248.88 47.9608C253.43 46.7208 262.62 47.8108 268.14 50.2508C271.384 51.7551 274.341 53.8124 276.88 56.3308C279.595 58.9542 281.877 61.992 283.64 65.3308C286 69.8308 286.48 72.1208 286.48 78.9408C286.48 85.7608 286.02 88.0108 283.66 92.6108V92.5908Z" fill="black"/>
<path d="M175.17 229.579L168.75 236.099L162.17 242.669L156.56 238.119C143.715 227.646 127.644 221.936 111.07 221.959C94.44 221.959 80.67 226.749 66.41 237.499L59.88 242.569L53.39 235.989L46.98 229.569L51.98 225.089C57.5221 220.206 63.6855 216.077 70.31 212.809C77.0591 209.335 84.2188 206.725 91.62 205.039C101.15 203.039 120.06 203.039 129.8 205.039C143.95 207.929 160.19 215.989 170.21 225.089L175.17 229.579Z" fill="black"/>
<path d="M156.31 248.509L149.71 255.109L143.13 261.789L139.67 259.089C122.6 245.569 99.8898 245.409 83.1798 258.669L79.1798 261.799L73.1098 255.799C69.1098 251.799 66.8698 248.949 66.7798 248.439C66.7798 246.999 75.6698 240.159 84.0798 236.239C88.3659 234.327 92.8091 232.788 97.3598 231.639C117.07 227.429 136.03 232.129 152.19 245.229L156.31 248.509Z" fill="black"/>
<path d="M136.82 267.339C136.37 268.609 125.11 279.879 123.59 280.589C122.326 280.007 121.129 279.289 120.02 278.449C117.73 276.679 115.47 276.079 111.02 276.079C106.57 276.079 104.36 276.679 102.09 278.429C100.973 279.279 99.7657 280.003 98.4898 280.589C96.9798 279.889 85.7098 268.699 85.2798 267.539C85.5098 266.229 95.7598 260.019 101.37 258.539C108.61 256.629 112.83 256.599 120.15 258.439C126.16 260.059 136.56 266.159 136.82 267.339Z" fill="black"/>
<path d="M431.57 226.899C424.708 214.069 416.226 202.174 406.33 191.509L400.12 184.809L393.07 192.509C378.55 208.359 366.59 227.509 362.63 241.389C361.39 245.599 361 250.009 361.31 256.149C361.71 266.379 364.5 273.679 370.65 280.529C375.877 286.403 382.748 290.571 390.372 292.493C397.997 294.415 406.023 294.003 413.41 291.309C428.35 286.049 438.2 273.129 439.13 257.579C439.74 246.579 437.98 239.409 431.57 226.899ZM418.67 263.309C417.041 266.78 414.473 269.726 411.256 271.813C408.04 273.9 404.303 275.045 400.47 275.119C398.846 275.122 397.228 274.91 395.66 274.489C388.82 272.659 383.92 268.849 381.5 263.489C378.31 256.369 379.43 247.019 384.75 236.489C389.13 227.909 397.87 214.939 400.22 214.209C400.323 214.165 400.433 214.143 400.545 214.143C400.657 214.143 400.767 214.165 400.87 214.209C401.52 214.689 405.01 219.479 407.21 222.589C419.53 240.509 423.27 253.799 418.67 263.309V263.309Z" fill="black"/>
<path d="M361.98 344.05C359.55 341.75 339.38 331.21 310.6 317.21L302.09 313.04C255.63 290.27 255.63 290.27 237.5 299.04L233.88 300.79C210.01 312.18 189.57 322.17 174.74 329.67C159.91 337.17 150.66 342.17 149.2 343.57C143.31 349.11 140.07 357 140.07 365.79C140.07 374.79 141.79 379.64 147.18 385.87C151.797 391.029 158.032 394.464 164.86 395.61C165.38 395.69 165.86 395.73 166.25 395.76C170.44 396.07 170.44 396.07 174.71 431C175.17 434.78 175.71 439 176.25 443.62C178.87 464.97 181.42 484.62 181.8 487.2L182.47 492.05L176.18 492.84C171.18 493.38 167.23 496.11 165.86 499.96C164.74 503.14 165.62 506.48 168.27 509.14L171.02 512.01H339.68L342.42 509.15C345.08 506.48 345.96 503.15 344.84 499.96C343.47 496.11 339.52 493.38 334.53 492.84L328.23 492.05L328.9 487.2C329.28 484.66 331.83 464.98 334.45 443.62C335.02 438.96 335.53 434.77 335.99 430.99C340.26 396.07 340.26 396.07 344.45 395.76C344.86 395.76 345.32 395.69 345.84 395.61C352.672 394.461 358.91 391.023 363.53 385.86C368.91 379.64 370.63 374.76 370.63 365.79C370.63 356.82 367.8 349.76 361.98 344.05ZM269.09 492.51H241.56V445.59H269.09V492.51ZM316.15 431.95C313.81 451.68 310.69 477.29 309.38 486.89L308.6 492.51H288.6V435.65L285.6 432.05C281.4 427.05 276.6 426.05 255.34 426.05C234.08 426.05 229.29 427 225.09 432.05L222.09 435.65V492.51H202.09L201.31 486.89C199.39 473.34 196.51 449.89 193.98 427.24C189.77 389.55 190.27 389.4 190.81 389.24C191.35 389.08 205.36 382.24 221.97 373.94C236.97 366.41 253.14 358.79 254.88 358.79C257.08 358.79 277.2 368.28 288.83 373.94L304.18 381.51C318.5 388.51 320.51 389.51 320.7 389.75C320.89 389.99 321.14 389.99 316.15 431.92V431.95ZM348.57 372.82C343 378.39 342.09 378.1 299.62 357.33C269.21 342.47 258.86 337.94 255.32 337.94C251.78 337.94 241.44 342.47 211.03 357.33C182.81 371.14 172.94 375.89 167.86 375.9C165.29 375.9 163.95 374.69 162.08 372.82C159.53 370.26 158.78 364.82 160.4 360.69C161.19 358.59 251.32 313.04 254.95 312.91C256.81 312.91 301.76 334.96 302.21 335.18C313.44 340.7 325.03 346.5 333.93 351.1C342.83 355.7 349.04 359.1 349.55 359.72C352.01 363.02 351.48 369.87 348.57 372.79V372.82Z" fill="black"/>
</g>
</g>
<defs>
<clipPath id="clip0_228_385">
<rect width="512" height="512" fill="white"/>
</clipPath>
<clipPath id="clip1_228_385">
<rect width="477.76" height="511.01" fill="white" transform="translate(17 1)"/>
</clipPath>
</defs>
</svg>
