<svg width="512" height="512" viewBox="0 0 512 512" fill="none" xmlns="http://www.w3.org/2000/svg">
<path d="M68.6 7.60001L66 10.3V37.6V65H38.6H11.3L8.6 67.6L6 70.3V105V139.7L8.6 142.4L11.3 145H38.6H66V316V487H40.6H15.3L12.6 489.6C10.5 491.7 10 493.2 10 497C10 500.8 10.5 502.3 12.6 504.4L15.3 507H121H226.7L229.4 504.4C233.1 500.6 233.1 493.4 229.4 489.6L226.7 487H201.4H176V316V145H278.5H381V168.3V191.6L331 234.4C303.5 258 279.9 278.4 278.5 279.8C274.9 283.4 274.9 290.7 278.6 294.4L281.3 297H391H500.7L503.4 294.4C507.1 290.7 507.1 283.4 503.5 279.8C502.1 278.4 478.5 258 451 234.4L401 191.6V160.6V129.6L368.7 97.3L336.4 65H256.2H176V37.6V10.3L173.4 7.60001L170.7 5H121H71.3L68.6 7.60001ZM156 45V65H121H86V45V25H121H156V45ZM66 105V125H46H26V105V85H46H66V105ZM156 105V125H121H86V105V85H121H156V105ZM345.5 105L365.5 125H270.7H176V105V85H250.8H325.5L345.5 105ZM156 173.5C156 189.2 155.9 202 155.7 202C155.6 202 142.7 189.2 127 173.5L98.5 145H127.3H156V173.5ZM138 215.1L149.9 227.6L118 260.1L86.1 292.5V227.5L86 162.5L106.1 182.5C117.1 193.5 131.5 208.1 138 215.1ZM429.2 243.7L467.4 276.5L429.2 276.8C408.2 276.9 373.8 276.9 352.8 276.8L314.6 276.5L352.6 243.8C373.4 225.9 390.6 211.1 390.8 211.1C390.9 211 408.2 225.7 429.2 243.7ZM156 316.7V380.5L124 348.5L92 316.5L123.7 284.8C141.2 267.3 155.6 253 155.7 253C155.9 253 156 281.7 156 316.7ZM117.3 371.8L148 402.5L117 433.5L86 464.5V402.7C86 368.8 86.1 341 86.3 341C86.4 341 100.3 354.8 117.3 371.8ZM156 456V487H124.8H93.5L124.5 456C141.5 438.9 155.6 425 155.7 425C155.9 425 156 438.9 156 456Z" fill="black"/>
<path d="M293.6 339.6L291 342.3V422V501.7L293.6 504.4L296.3 507H391H485.7L488.4 504.4L491 501.7V422V342.3L488.4 339.6L485.7 337H391H296.3L293.6 339.6ZM471 422V487H451H431V444.6V402.3L428.4 399.6L425.7 397H391H356.3L353.6 399.6L351 402.3V444.6V487H331H311V422V357H391H471V422ZM411 452V487H391H371V452V417H391H411V452Z" fill="black"/>
</svg>
