<svg width="512" height="512" viewBox="0 0 512 512" fill="none" xmlns="http://www.w3.org/2000/svg">
<path d="M106.321 45.09C94.3592 47.4576 82.5055 57.1431 78.0874 68.3353C76.0399 73.6086 75.5011 77.1599 75.1778 90.3969L74.7468 106.109L57.9361 106.539C42.3109 106.862 40.5867 107.078 35.0909 109.66C26.2545 113.857 20.5432 119.346 16.5561 127.632L13 134.843V287.121V439.399L15.3707 444.457C18.388 451.13 26.7933 459.954 32.9357 463.075C35.6297 464.367 40.3712 466.088 43.4962 466.734C51.1472 468.348 396.304 468.456 404.817 466.842C413.223 465.228 419.581 461.784 425.938 455.434C434.344 446.717 436.283 440.906 436.822 421.427L437.253 405.715L454.064 405.285C469.689 404.962 471.413 404.747 477.125 402.056C484.991 398.397 492.427 390.972 496.09 383.116L499 376.981V224.703V72.4248L496.629 67.3668C493.612 60.6945 485.207 51.8699 479.064 48.749C476.37 47.4576 471.629 45.7357 468.504 45.09C461.607 43.691 113.756 43.5834 106.321 45.09ZM465.379 65.5373C470.875 67.0439 476.586 72.3171 477.987 77.0523C478.741 79.7427 479.064 105.14 478.849 154.214L478.526 227.501L431.65 194.355C405.895 176.168 383.588 160.994 382.08 160.671C380.463 160.348 378.093 160.456 376.584 161.101C375.183 161.639 347.704 185.1 315.484 213.296C283.263 241.491 256.539 264.521 256 264.521C255.461 264.521 243.284 254.19 228.844 241.599C214.404 229.008 201.473 217.923 199.965 216.847C198.564 215.878 195.654 215.018 193.499 215.018C190.158 215.018 184.447 219.107 143.067 251.607C117.42 271.732 96.1911 288.197 95.9756 288.197C95.6523 288.197 95.4368 241.384 95.4368 184.131C95.4368 80.8189 95.4368 80.0656 97.6998 75.438C100.071 70.5953 103.519 67.582 108.907 65.6449C113.433 64.0306 459.667 63.923 465.379 65.5373ZM75.1778 251.285L75.5011 375.905L78.4106 382.039C82.3978 390.649 89.7255 398.074 97.9153 401.841L104.596 404.962L260.634 405.285L416.779 405.5L416.348 419.813C416.024 433.265 415.809 434.449 413.115 438.538C411.606 440.906 408.481 443.704 406.11 444.888C402.123 446.825 396.628 446.933 226.474 447.255C108.045 447.363 49.6386 447.148 46.8368 446.395C41.6643 444.995 36.2763 440.476 34.4443 435.956C33.1512 433.05 32.9357 407.329 32.9357 286.583C32.9357 127.632 32.5047 138.071 39.078 131.937C43.7118 127.525 46.4058 126.879 61.169 126.879L74.9623 126.771L75.1778 251.285ZM432.62 220.398L479.064 253.222V312.196C479.064 360.946 478.849 371.708 477.556 374.076C475.508 377.95 470.551 382.47 466.887 383.869C464.732 384.73 409.343 385.053 287.143 385.053C115.911 385.053 110.308 384.945 106.428 383.008C96.2989 377.842 95.4368 374.721 95.4368 342.221V315.424L144.037 277.328C170.654 256.343 192.96 239.231 193.499 239.231C194.038 239.231 207.4 250.531 223.133 264.199C250.181 287.767 252.121 289.273 256.108 289.273C260.095 289.273 262.897 287.013 320.333 236.649L380.463 184.131L383.265 185.853C384.882 186.822 407.08 202.319 432.62 220.398Z" fill="black"/>
<path d="M243.5 119.1C232 123.1 223.1 132.2 219.4 143.8C216.8 152.1 217.8 164 221.8 172.3C225.6 180 231.9 186.1 239.8 189.8C244.8 192.2 246.7 192.5 256 192.5C265.3 192.5 267.2 192.2 272.2 189.8C280.1 186.1 286.4 180 290.2 172.3C294.2 164 295.2 152.1 292.6 143.8C286 123.3 263.8 112.1 243.5 119.1ZM264 138.2C273.9 143.3 277.7 153.8 273 163.6C266.3 177.4 245.8 177.6 239.1 163.8C234.2 153.5 238.1 142.7 248.5 137.9C253.8 135.4 258.7 135.5 264 138.2Z" fill="black"/>
</svg>
