<svg width="512" height="512" viewBox="0 0 512 512" fill="none" xmlns="http://www.w3.org/2000/svg">
<path d="M234 26.1C222.4 27.2 202.6 31 190.7 34.5C123.7 53.9001 67.2002 105.3 41.7002 170C8.00019 255.3 26.7002 350.9 89.9002 416.3C160.5 489.3 270.3 507.7 361 461.7C419.6 432 463.6 377 479.5 313.5C484.8 292.3 486.4 279.2 486.4 256C486.4 218.1 479.1 186.4 462.9 153.5C420.7 67.9001 329.8 17.4001 234 26.1ZM275 45.1C324.6 49.7 370.3 71.2 405.6 106.4C438.2 139 458 178.2 465.6 225.5C468.3 242 468.1 272.4 465.2 289.1C459.6 320.8 449.5 346.7 433.1 371.6C399.2 423.1 348.6 455.5 286.5 465.6C270 468.3 239.6 468.1 222.9 465.2C199.7 461.1 181.7 455.3 161.7 445.5C121.2 425.5 86.8002 391.2 66.9002 351C56.7002 330.4 50.1002 309.6 46.4002 286.5C43.9002 271.3 43.9002 240.6 46.4002 225.5C54.0002 178.2 73.7002 139.1 106.4 106.4C151.1 61.8 212.8 39.3 275 45.1Z" fill="black"/>
<path d="M244.7 126C223.8 139.6 205.6 163.2 197.7 187.2C194.8 195.8 192 209.4 192 214.5V217.8L185.2 214.5C130.6 188 86.5004 215.2 97.6004 268.7C102.4 292.3 115.8 314.8 138 337C157.7 356.8 176.9 368.8 199.5 375.6C207.1 377.9 210.5 378.3 221 378.4C232.8 378.5 237.8 377.7 245.8 374.4C246.7 374 247 375.4 247 380C247 387.8 249.6 391 256 391C262.4 391 265 387.8 265 380C265 375.4 265.3 374 266.3 374.4C274.2 377.7 279.2 378.5 291 378.4C301.5 378.3 304.9 377.9 312.5 375.6C335.1 368.8 354.3 356.8 374 337C401.2 309.8 416 280.3 416 253.1C416 237.5 411.6 225.7 402.4 217C385.1 200.6 357.1 199.9 325.9 215L320 217.8V214.5C320 209.4 317.2 195.8 314.3 187.2C306.4 163.2 288.2 139.6 267.3 126C257.2 119.4 254.8 119.4 244.7 126ZM262.9 146.4C274.8 155.6 285.2 168.8 292.1 183.4C297.2 194.4 299.8 204.3 301.1 218L302.2 229.4L299.3 231.5C289.9 238.4 279.8 248.6 267.1 264L265.1 266.5L265 243.7C265 222.5 264.9 220.9 263 219C261.9 217.9 259.9 216.8 258.5 216.4C255.2 215.6 251.4 216.6 249 219C247.1 220.9 247 222.5 247 243.7L246.9 266.5L244.9 264C233 249.4 220.8 237.2 211.7 230.7C210 229.5 209.9 228.6 210.9 218C213.1 194.1 221.7 174.5 237.2 157.5C243.2 150.9 253.8 142.1 255.8 142C256.6 142 259.7 144 262.9 146.4ZM155.8 224.6C187.9 231.1 225 262 242.3 296.5L245.8 303.5L243.8 311C242.8 315.1 241.8 322.4 241.7 327.2L241.5 335.9L214.9 309.4C190.3 284.8 188 282.8 184.2 282.3C180.6 281.8 179.7 282.1 177 284.8C174.7 287.1 174 288.7 174 291.7C174 295.3 175.2 296.6 205.1 326.6L236.2 357.7L231.7 358.9C214 363.3 187 353.6 162.8 334.1C146.9 321.3 133.2 304.3 124.5 286.6C108.5 254.3 113 229.5 135.7 224.1C141.6 222.7 147.4 222.9 155.8 224.6ZM381.9 226.1C399.8 233.7 402 257.4 387.5 286.6C380.5 300.9 372.4 311.9 359.6 324.5C334 349.8 301.1 364.1 280.3 358.9L275.8 357.7L306.9 326.6C336.8 296.6 338 295.3 338 291.7C338 288.7 337.3 287.1 335 284.8C332.3 282.1 331.4 281.8 327.8 282.3C324 282.8 321.7 284.8 297.1 309.4L270.5 335.9L270.3 327.2C270.1 322.4 269.2 315.1 268.1 311L266.2 303.5L269.7 296.5C278.5 279 295.6 258.5 311.7 246.4C338.2 226.4 364.9 218.7 381.9 226.1Z" fill="black"/>
</svg>
