<svg width="512" height="512" viewBox="0 0 512 512" fill="none" xmlns="http://www.w3.org/2000/svg">
<path d="M52.4002 7.59999C46.5002 10.7 38.8002 18 35.6002 23.5C29.6002 33.6 30.0002 18 30.0002 256C30.0002 494 29.6002 478.4 35.6002 488.5C38.8002 494 46.5002 501.3 52.4002 504.4L57.3002 507H224.6H391.9L393.4 504.8C395.9 501.3 395.4 495.4 392.5 492.5C391.2 491.1 389.5 490 388.8 490C388.1 490 315.3 489.9 227 489.7C72.6002 489.5 66.4002 489.4 63.0002 487.6C58.1002 485 54.2002 481.2 51.7002 476.5L49.5002 472.5V256C49.5002 46.7 49.6002 39.4 51.4002 36C54.0002 31.1 57.8002 27.2 62.5002 24.7L66.5002 22.5L189.3 22.2L312 22V47.3C312 61.3 312.5 75.2 313 78.1C316.1 94.7 329.4 108.4 345.8 111.9C348.9 112.5 361.6 113 377 113H403V243.1C403 334.3 403.3 373.7 404.1 375.2C405.6 377.9 411.5 380.3 415.1 379.5C416.7 379.1 418.9 377.7 420 376.3C422 373.8 422 372.5 422 239.9V106.1L419.9 100.3C417.9 94.9 414.9 91.7 376.1 52.6C353.2 29.6 332.5 9.49999 330.1 7.89999L325.6 4.99999H191.5H57.3002L52.4002 7.59999ZM369.3 92.8C354.1 93 349.7 92.8 346.3 91.5C341.1 89.5 334.5 82.4 333.1 77.4C332.5 75.2 332 65.2 332 55V36.5L360 64.5L388 92.5L369.3 92.8Z" fill="black"/>
<path d="M85.8 50.4994C82.8 52.1994 80.6 57.5994 81.5 61.2994C81.9 62.6994 83.3 64.8994 84.7 66.1994L87.2 68.4994L131.8 68.7994C164.1 68.9994 177.2 68.6994 179.3 67.8994C185.7 65.1994 187.1 56.9994 182.1 51.8994L179.2 48.9994H133.8C96.2 49.0994 88 49.2994 85.8 50.4994Z" fill="black"/>
<path d="M85.8 84.4984C82.8 86.1984 80.6 91.5984 81.5 95.2984C81.9 96.6984 83.3 98.8984 84.7 100.198L87.2 102.498L130.3 102.798C154.1 102.998 175 102.798 176.9 102.498C185 100.998 187.9 91.6984 182.1 85.8984L179.2 82.9984H133.8C96.2 83.0984 88 83.2984 85.8 84.4984Z" fill="black"/>
<path d="M280.1 157.5C265.5 161.6 255.9 174.1 255.8 189.2C255.8 193.2 256.3 197.7 256.8 199.1C257.8 201.5 257.2 202.2 245.2 212.1C225 228.7 187.6 266.9 177.9 280.7C176.5 282.7 175.9 282.8 172.9 282C171 281.4 166.7 281 163.3 281C140.4 281 124.8 303.7 132.4 325.9C134.1 330.8 137 334.2 159.5 357.4C211.2 410.8 213.2 412.4 228.5 412.5C235.6 412.5 237.3 412.1 243.2 409.2C246.8 407.4 251.3 404.3 253.1 402.3C262 392 264.2 377 258.6 363.9C258.1 362.7 260.3 360.2 267.7 354.1C273 349.6 277.7 346.1 278.1 346.2C278.5 346.4 308.3 378.9 344.5 418.5C417.5 498.4 422.3 503.6 426.2 505.6C428.1 506.6 432.5 507 440.5 507C451.7 507 452.3 506.9 456.3 504.1C462.4 499.9 477.2 484.2 479.5 479.5C482.5 473.3 482.7 462.6 480.1 456.4C477.3 450 477.2 449.8 393.5 372.5C355.6 337.4 323.4 307.7 322.1 306.5L319.7 304.2L328.1 294.1C334 287 336.9 284.2 338 284.6C347.5 288.7 357.8 289.2 366.5 285.9C373.2 283.4 380.6 276.5 384 269.5C386.1 265.3 386.5 263 386.5 255C386.5 240.1 386.8 240.5 345.1 198.7C314.8 168.3 308.6 162.5 303.5 160C296 156.3 287.6 155.5 280.1 157.5ZM294.3 177.4C297.5 178.7 362 243 365.4 248.2C367.7 251.7 367.7 258 365.4 261.9C362.7 266.4 356.4 269.5 351.4 268.6C347.9 267.9 343.7 264.1 312.8 233.2C293.7 214.1 277.3 197 276.4 195.1C273.5 189.1 276 181.8 282.3 178C286.1 175.7 289.8 175.5 294.3 177.4ZM320.7 272C311.3 283.3 299.2 296.9 289.1 307.2C277.4 319.3 255.1 339.4 247.4 344.9L243.9 347.4L229.9 333.4C222.2 325.8 210.5 313.9 204 307L192.2 294.4L202.8 282C216.6 265.7 240.2 242.2 256.4 228.7L269.4 217.9L295.7 244.2C318.2 266.6 321.7 270.6 320.7 272ZM167.7 301C170.9 302.2 238.4 369 240.6 373.2C246.7 384.7 233.7 397.6 222.3 391.2C218.8 389.3 153 322.7 151.2 319.3C148.1 313.5 151.4 305.1 158 301.8C162 299.7 163.8 299.6 167.7 301ZM384.4 391.2C437 440 462 463.8 462.4 465.6C463.3 469.2 461 472.6 450.7 482C441.9 490.1 440.4 490.8 437 489C435.9 488.4 404.2 454.1 366.4 412.7C328.6 371.4 296.5 336.3 295.1 334.7L292.6 332L299 325.5C302.6 321.9 305.8 319.1 306.2 319.2C306.6 319.4 341.8 351.8 384.4 391.2Z" fill="black"/>
</svg>
