<svg width="512" height="512" viewBox="0 0 512 512" fill="none" xmlns="http://www.w3.org/2000/svg">
<path d="M226.5 6.99844C205 10.8984 188.2 16.8984 169.9 27.1984C124.9 52.4984 94.0001 95.3984 83.4001 147.498C80.9001 159.698 80.4001 190.598 82.4001 205.098C88.0001 245.498 105.8 289.398 138.9 344.498C151.7 365.798 175.5 401.298 204.1 441.498C217 459.598 232.3 481.198 238 489.498C243.7 497.698 249 504.998 249.9 505.698C252 507.298 260 507.298 262.2 505.698C263.1 504.998 268.3 497.898 273.8 489.998C279.2 481.998 294.4 460.398 307.5 441.998C347.8 385.498 368.5 353.798 387 320.598C411.1 277.398 425.8 236.798 430.1 201.698C431.9 186.298 430.7 157.198 427.7 143.398C412.3 74.3984 360.3 22.7984 291 7.89844C275.7 4.69843 242.3 4.19843 226.5 6.99844ZM276.8 27.0984C287.7 28.3984 301.7 32.0984 312.7 36.4984C360.5 55.6984 395.8 97.4984 407.1 148.298C410.1 161.698 410.8 188.898 408.5 203.498C404.1 232.498 393.9 261.098 375.1 297.498C357.9 330.898 333.7 368.498 288.9 431.498C276 449.598 263.5 467.298 261.1 470.798C258.7 474.198 256.4 476.998 256 476.998C255.6 476.998 253.3 474.198 250.9 470.698C248.5 467.298 236 449.598 223.1 431.498C178.6 368.998 154 330.798 136.9 297.498C112.4 250.098 102 214.898 102 179.698C102 154.298 106.7 134.098 118 111.498C133.2 81.0984 157.1 57.1984 187.5 41.9984C216 27.7984 244.1 23.0984 276.8 27.0984Z" fill="black"/>
<path d="M239.1 96C208.2 102.5 183.5 125.1 173.8 156C171.8 162.6 171.5 165.5 171.5 180C171.5 194.5 171.8 197.4 173.8 204C182.7 232.2 203.8 253.3 232 262.2C238.6 264.2 241.5 264.5 256 264.5C270.5 264.5 273.4 264.2 280 262.2C308 253.4 329.4 232 338.2 204C340.2 197.4 340.5 194.5 340.5 180C340.5 165.5 340.2 162.6 338.2 156C331.1 133.5 315.9 114.9 296 104.6C281.8 97.3 275.8 95.8 258.5 95.4C250.3 95.2 241.5 95.5 239.1 96ZM271.5 117.6C282.8 120.3 291.7 125.5 301.1 134.9C314.5 148.3 320 161.5 320 180C320 198.5 314.5 211.6 301.1 225C287.7 238.5 274.3 244.1 256 244.1C237.6 244.1 224.3 238.4 210.9 225.1C197.5 211.7 192 198.5 192 180C192 168.7 193.7 161.2 198.6 151.1C202.9 142.3 214 130.2 222.4 125.1C237.2 116.2 254.5 113.5 271.5 117.6Z" fill="black"/>
</svg>
