<svg width="512" height="512" viewBox="0 0 512 512" fill="none" xmlns="http://www.w3.org/2000/svg">
<path d="M391 15C391 20.5228 395.478 25 401 25H431.201H471.5L399.5 97.1C359.9 136.7 324.901 171.4 321.701 174.2L315.8 179.3L256 119.5L203.153 66.6523C199.255 62.7544 192.938 62.746 189.029 66.6336L101.7 153.5L15.0132 239.911C10.7947 244.117 10.7444 250.933 14.9005 255.2C19.0193 259.484 25.8519 259.553 30.0564 255.353L108.5 177C155.9 129.7 195 91 195.6 91C196.1 91 223.4 117.9 256.2 150.7L308.929 203.429C312.835 207.334 319.166 207.334 323.072 203.429L401.5 125L487 39.5V79.8V110C487 115.523 491.478 120 497 120C502.523 120 507 115.523 507 110V62.5V15C507 9.47716 502.523 5 497 5H449H401C395.478 5 391 9.47716 391 15Z" fill="black"/>
<path d="M396 336V487H376H356V396V313C356 308.582 352.418 305 348 305H316H284C279.582 305 276 308.582 276 313V396V487H256H236V366V253C236 248.582 232.418 245 228 245H196H164C159.582 245 156 248.582 156 253V366V487H136H116V411V343C116 338.582 112.418 335 108 335H76H44C39.5817 335 36 338.582 36 343V411V487H18H6C2.68629 487 0 489.686 0 493V497V501C0 504.314 2.68629 507 6 507H256H506C509.314 507 512 504.314 512 501V497V493C512 489.686 509.314 487 506 487H494H476V336V193C476 188.582 472.418 185 468 185H436H404C399.582 185 396 188.582 396 193V336ZM456 346V487H436H416V346V205H436H456V346ZM216 376V487H196H176V376V265H196H216V376ZM336 406V487H316H296V406V325H316H336V406ZM96 421V487H76H56V421V355H76H96V421Z" fill="black"/>
</svg>
