<svg width="512" height="512" viewBox="0 0 512 512" fill="none" xmlns="http://www.w3.org/2000/svg">
<path d="M125 246V487H90H55V470.5C55 455.6 55.2 453.9 56.8 453.4C67.2 449.9 77.2 441.1 81.8 431.3L84.5 425.5V390V354.5L81.6 348.5C77.8 340.8 70.2 333.2 62.5 329.4C56.9 326.7 55.7 326.5 45 326.5C34.3 326.5 33.1 326.7 27.5 329.4C19.8 333.2 12.2 340.8 8.4 348.5L5.5 354.5V390V425.5L8.2 431.3C12.8 441.1 22.8 449.9 33.2 453.4C34.8 453.9 35 455.6 35 470.5V487H17.5H8C3.58172 487 0 490.582 0 495V497V499C0 503.418 3.58172 507 8 507H256H504C508.418 507 512 503.418 512 499V497V495C512 490.582 508.418 487 504 487H495H478V470.1V453.2L480.8 452.5C492.7 449.6 504.6 435.1 507 420.9C508.3 412.8 508.3 367.4 507 359.5C504.9 346.4 496.1 334.8 484 329.1C479.1 326.8 477.3 326.5 467 326.5C456.3 326.5 455.1 326.7 449.5 329.4C441.9 333.2 434.3 340.8 430.5 348.5L427.5 354.5V390V425.5L430.7 432.1C434.8 440.3 441.8 447.1 450.5 451.2L457 454.2V470.6V487H422H387V246V19C387 11.268 380.732 5 373 5H256H139C131.268 5 125 11.268 125 19V246ZM366 256V487H332H298V456V431C298 427.686 295.314 425 292 425H256H220C216.686 425 214 427.686 214 431V456V487H180H146V256V25H256H366V256ZM53.8 348.9C58.1 351.1 60 353.1 62.6 358C64.2 361.1 64.5 364.5 64.8 386.1C65.2 413.9 64.4 420.6 60.2 426C56.7 430.3 49.8 434 45 434C40.2 434 33.3 430.3 29.8 426C25.6 420.6 24.8 413.9 25.2 386.1C25.5 363.3 25.7 361.2 27.7 357.5C30 353 32.1 351 36.5 348.7C40.7 346.5 49.2 346.6 53.8 348.9ZM476 349C480.9 351.5 484.5 356.2 486 362.1C486.8 365.1 487 375.4 486.8 393.1C486.5 421.9 486.4 422.5 480.3 428.2C470.5 437.5 456.1 434.9 449.9 422.8C448.2 419.4 448 416.6 448 389.9V360.7L450.5 356.4C455.6 347.7 467 344.4 476 349ZM277 466V487H256H235V466V445H256H277V466Z" fill="black"/>
<path d="M186 90V114C186 117.314 188.686 120 192 120H196H200C203.314 120 206 117.314 206 114V90V66C206 62.6863 203.314 60 200 60H196H192C188.686 60 186 62.6863 186 66V90Z" fill="black"/>
<path d="M246 90V114C246 117.314 248.686 120 252 120H256H260C263.314 120 266 117.314 266 114V90V66C266 62.6863 263.314 60 260 60H256H252C248.686 60 246 62.6863 246 66V90Z" fill="black"/>
<path d="M306 90V114C306 117.314 308.686 120 312 120H316H320C323.314 120 326 117.314 326 114V90V66C326 62.6863 323.314 60 320 60H316H312C308.686 60 306 62.6863 306 66V90Z" fill="black"/>
<path d="M186 180V204C186 207.314 188.686 210 192 210H196H200C203.314 210 206 207.314 206 204V180V156C206 152.686 203.314 150 200 150H196H192C188.686 150 186 152.686 186 156V180Z" fill="black"/>
<path d="M246 180V204C246 207.314 248.686 210 252 210H256H260C263.314 210 266 207.314 266 204V180V156C266 152.686 263.314 150 260 150H256H252C248.686 150 246 152.686 246 156V180Z" fill="black"/>
<path d="M306 180V204C306 207.314 308.686 210 312 210H316H320C323.314 210 326 207.314 326 204V180V156C326 152.686 323.314 150 320 150H316H312C308.686 150 306 152.686 306 156V180Z" fill="black"/>
<path d="M186 270V294C186 297.314 188.686 300 192 300H196H200C203.314 300 206 297.314 206 294V270V246C206 242.686 203.314 240 200 240H196H192C188.686 240 186 242.686 186 246V270Z" fill="black"/>
<path d="M246 270V294C246 297.314 248.686 300 252 300H256H260C263.314 300 266 297.314 266 294V270V246C266 242.686 263.314 240 260 240H256H252C248.686 240 246 242.686 246 246V270Z" fill="black"/>
<path d="M306 270V294C306 297.314 308.686 300 312 300H316H320C323.314 300 326 297.314 326 294V270V246C326 242.686 323.314 240 320 240H316H312C308.686 240 306 242.686 306 246V270Z" fill="black"/>
<path d="M186 360V384C186 387.314 188.686 390 192 390H196H200C203.314 390 206 387.314 206 384V360V336C206 332.686 203.314 330 200 330H196H192C188.686 330 186 332.686 186 336V360Z" fill="black"/>
<path d="M246 360V384C246 387.314 248.686 390 252 390H256H260C263.314 390 266 387.314 266 384V360V336C266 332.686 263.314 330 260 330H256H252C248.686 330 246 332.686 246 336V360Z" fill="black"/>
<path d="M306 360V384C306 387.314 308.686 390 312 390H316H320C323.314 390 326 387.314 326 384V360V336C326 332.686 323.314 330 320 330H316H312C308.686 330 306 332.686 306 336V360Z" fill="black"/>
</svg>
