<svg width="512" height="512" viewBox="0 0 512 512" fill="none" xmlns="http://www.w3.org/2000/svg">
<g clip-path="url(#clip0_226_314)">
<path d="M196 0.89917C187.5 3.49917 180.1 9.89916 176.6 17.6992C175.1 21.0992 174 22.0992 170.1 23.4992C163.1 26.0992 149.9 33.1992 143.9 37.6992C120.1 55.2992 103.7 82.0992 99.6999 109.599C98.4999 117.799 98.2999 118.199 95.1999 119.699C90.9999 121.799 87.2999 126.099 85.9999 130.799C85.4999 132.799 84.9999 141.299 84.9999 149.599C84.9999 164.299 85.0999 164.899 87.7999 170.099C90.0999 174.599 91.4999 175.899 95.7999 177.999L101 180.499V197.499C101.1 221.299 104.1 235.699 112.3 251.999C121.9 270.999 138.8 288.799 155.7 297.699L161 300.499V311.999V323.499L144.8 326.899C102.4 335.699 75.9999 345.299 54.4999 359.499C27.6999 377.199 12.2999 402.599 8.99987 434.099C7.59987 447.899 7.69987 501.799 9.09987 505.899C11.3999 512.499 -3.60013 511.999 210.3 511.999C423.3 511.999 409.3 512.399 419.2 506.099L423.9 503.099L429 506.499C436.2 511.299 441.8 512.199 461.5 511.799C478.5 511.499 478.6 511.499 485.3 508.199C492.7 504.599 497.5 499.399 501.2 491.399L503.5 486.499V367.499V248.499L500.9 242.899C497.5 235.699 491.3 229.499 484.1 226.099C478.9 223.699 477.4 223.499 461.8 223.199C442.2 222.799 436 223.799 429 228.499L424 231.899L418.4 228.499C410.3 223.599 405 222.699 385.5 223.099C369.3 223.499 368.2 223.599 362.8 226.299C355.7 229.799 348.8 237.299 346.1 244.599C344.1 249.799 344 252.099 344 299.099V347.999L340.3 346.399C325.1 339.699 295.3 331.199 266 325.199L257.5 323.499L257.2 312.399L256.9 301.299L264 297.099C293.9 279.299 313.1 249.799 316.9 215.699C317.5 210.399 318 200.299 318 193.299V180.499L322.1 178.499C324.4 177.399 327.7 174.799 329.4 172.699L332.5 168.799L332.8 151.699C333 142.299 332.9 133.099 332.5 131.299C331.8 127.499 327 121.599 323 119.499C320.6 118.299 320.1 117.199 319.1 110.299C316.5 93.9991 308.2 73.9992 298.7 61.4992C286.6 45.4992 268.1 31.2992 250.5 24.4992C243.7 21.7992 243.4 21.4992 240.7 15.8992C237.3 8.89917 231.2 3.69918 223.7 1.49918C218.3 -0.100824 200.5 -0.40083 196 0.89917ZM221.6 23.2992L224 26.0992V71.5992V116.999H209H194V71.8992V26.7992L197.5 23.2992L201 19.7992L210.1 20.1992C218.6 20.4992 219.3 20.6992 221.6 23.2992ZM174 80.4992V116.999H146.4H118.8L119.5 112.299C122.7 90.7991 137.1 67.7992 155.7 54.2992C161.9 49.8992 171.8 44.0992 173.3 43.9992C173.7 43.9992 174 60.3992 174 80.4992ZM250.3 46.5992C275.9 59.5992 294.2 84.5991 299.4 113.699L300 116.999H272H244V80.4992C244 60.3992 244.2 43.9992 244.5 43.9992C244.8 43.9992 247.4 45.1992 250.3 46.5992ZM313 148.499V159.899L281.6 160.199L120.2 160.499L117.6 162.899C112.8 167.399 113.6 176.099 118.9 178.999C120.1 179.599 260.2 179.999 274.6 179.999H298.3L297.7 198.199C297.1 219.299 295.4 227.399 288.9 240.899C262.9 295.399 192.6 308.799 149.3 267.599C140 258.899 134.2 250.799 129.1 239.799C122.8 226.299 121.8 220.899 121.3 199.199L120.8 179.999H144.5H168.2L171.1 177.099C174.2 173.899 175 168.699 172.9 164.799C170.6 160.499 166.9 159.999 135 159.999H105V148.499V136.999H209H313V148.499ZM405.9 244.799C410.9 247.299 413.5 251.299 413.5 256.499C413.5 261.699 410.9 265.699 405.9 268.299C403 269.799 400.3 269.999 387.5 269.799C374.3 269.499 372.2 269.299 369.8 267.499C360.9 260.799 362.5 248.499 373 243.799C373.8 243.399 380.8 243.099 388.5 243.099C400 242.999 403.1 243.299 405.9 244.799ZM475.9 244.799C480.9 247.299 483.5 251.299 483.5 256.499C483.5 261.699 480.9 265.699 475.9 268.199C471.1 270.699 446.5 270.799 441.4 268.399C432.6 264.199 431.5 251.899 439.4 245.999C443 243.299 444.3 243.099 458.5 243.099C470 242.999 473.1 243.299 475.9 244.799ZM412.3 483.799C408.9 490.699 406.7 491.499 390 491.799C373.1 492.199 369.6 491.299 366 485.499C364 482.299 364 480.799 364 384.999V287.799L366.3 288.499C370.7 289.999 404.2 290.199 409 288.799L413.5 287.399L413.8 383.899C414 474.099 413.9 480.599 412.3 483.799ZM483.5 479.699C483.2 481.999 481.9 485.099 480.8 486.599C477.2 491.099 473.4 491.999 458.4 491.999C443 491.999 439.4 490.999 436 485.499C434 482.299 434 480.799 434 384.999V287.799L436.3 288.499C440.7 289.999 474.2 290.199 479 288.799L483.5 287.399L483.8 381.499C483.9 433.199 483.8 477.399 483.5 479.699ZM203 311.599C211.4 312.199 221.6 311.399 233.3 309.399L237 308.699V318.499V328.199L223.1 345.599L209.3 362.899L195.1 345.199L181 327.499V317.899V308.299L187.3 309.699C190.7 310.399 197.8 311.299 203 311.599ZM180.2 358.999L192.7 374.499L181.2 378.899C170.1 383.099 169.7 383.199 168 381.399C162.8 375.799 140.9 348.799 141.2 348.399C141.9 347.699 164.3 343.099 166.2 343.299C167.1 343.399 173.4 350.499 180.2 358.999ZM265.3 345.599C276.7 347.999 277.9 348.499 276.7 349.899C275.9 350.799 269.5 358.499 262.5 366.999C255.5 375.499 249.6 382.699 249.4 382.899C249.2 383.099 243.9 381.299 237.5 378.999C229.8 376.099 226.3 374.299 226.8 373.599C234.2 364.099 251.4 342.999 251.9 342.999C252.2 342.999 258.2 344.199 265.3 345.599ZM139.6 378.999C153.1 395.399 161.1 404.199 162.7 404.599C164 404.999 166.6 404.999 168.5 404.699C172.4 404.099 171.5 402.199 176.5 420.999L178.8 429.499L176.4 457.999C175.1 473.699 174 487.699 174 489.199V491.999H100.9H27.7999L28.1999 462.199C28.6999 435.799 28.9999 431.599 30.8999 424.499C39.3999 392.799 62.0999 372.299 104.5 358.099C111.1 355.799 117 353.999 117.7 353.999C118.3 353.999 128.2 365.299 139.6 378.999ZM312.4 357.599C323.9 361.399 338 367.199 341.8 369.599L344 370.999V408.499V445.999H315.1H286.2L283.1 448.599L280 451.199V471.599V491.999H262.6H245.1L244.6 487.799C244.3 485.399 243.1 471.299 241.9 456.399L239.7 429.299L243.1 416.799L246.4 404.299L251 404.799C254.8 405.099 256.1 404.799 258.5 402.699C260.2 401.299 270.1 389.799 280.5 377.099C291 364.399 300 353.999 300.5 353.999C301.1 353.999 306.4 355.599 312.4 357.599ZM218.3 393.199C227.9 396.799 227.8 396.699 225.6 404.599C224.8 407.299 223.6 411.399 223 413.699L221.9 417.999H209.2H196.4L194 408.199C192.6 402.899 191.5 398.099 191.5 397.499C191.5 396.799 206.6 390.299 209 389.999C209.3 389.999 213.4 391.399 218.3 393.199ZM220.4 440.199C220.7 441.499 221.6 452.199 222.5 463.999C223.3 475.799 224.3 486.999 224.6 488.699L225.1 491.999H209.5C195.4 491.999 194 491.799 194 490.199C194 489.299 194.9 477.899 196 464.999C197.1 452.099 198 440.699 198 439.699C198 438.199 199.2 437.999 209 437.999C219.6 437.999 220 438.099 220.4 440.199ZM344.3 476.699C344.5 482.699 345.1 488.499 345.5 489.699L346.2 491.999H323.1H300V478.999V465.999H321.9H343.8L344.3 476.699Z" fill="black"/>
</g>
<defs>
<clipPath id="clip0_226_314">
<rect width="512" height="512" fill="white"/>
</clipPath>
</defs>
</svg>
