<svg width="512" height="512" viewBox="0 0 512 512" fill="none" xmlns="http://www.w3.org/2000/svg">
<g clip-path="url(#clip0_229_1000)">
<path d="M170.099 368.402H71.0664" stroke="black" stroke-width="20" stroke-linecap="round" stroke-linejoin="round"/>
<path d="M170.099 412.969H71.0664" stroke="black" stroke-width="20" stroke-linecap="round" stroke-linejoin="round"/>
<path d="M170.099 457.535H71.0664" stroke="black" stroke-width="20" stroke-linecap="round" stroke-linejoin="round"/>
<path d="M303.041 267.395C273.174 253.831 242.198 246.171 210.94 244.617" stroke="black" stroke-width="20" stroke-linecap="round" stroke-linejoin="round"/>
<path d="M210.861 363.651C237.379 365.287 262.386 376.557 281.175 395.342L320.233 434.4C363.198 477.37 421.378 501.658 482.142 501.99C484.752 502.005 487.34 501.503 489.755 500.514C492.171 499.525 494.367 498.068 496.218 496.228C498.069 494.387 499.537 492.199 500.54 489.788C501.542 487.378 502.058 484.794 502.058 482.184V403.066C502.058 397.813 499.971 392.775 496.256 389.061C492.542 385.346 487.504 383.26 482.251 383.26C467.953 383.26 453.795 380.445 440.585 374.973C427.375 369.502 415.373 361.482 405.263 351.371L366.105 312.213C346.733 292.848 324.067 277.087 299.169 265.668" stroke="black" stroke-width="20" stroke-linecap="round" stroke-linejoin="round"/>
<path d="M71.0663 325.137V482.292C71.0663 487.545 68.9795 492.583 65.2651 496.298C61.5506 500.012 56.5127 502.099 51.2597 502.099C46.0067 502.099 40.9688 500.012 37.2543 496.298C33.5399 492.583 31.4531 487.545 31.4531 482.292V324.969" stroke="black" stroke-width="20" stroke-linecap="round" stroke-linejoin="round"/>
<path d="M209.712 324.969V482.292C209.712 487.545 207.625 492.583 203.911 496.298C200.196 500.012 195.158 502.099 189.905 502.099C184.652 502.099 179.614 500.012 175.9 496.298C172.185 492.583 170.099 487.545 170.099 482.292V324.969" stroke="black" stroke-width="20" stroke-linecap="round" stroke-linejoin="round"/>
<path d="M96.3875 21.7902L15.7464 102.431C3.2683 114.909 12.102 136.241 29.7497 136.241H211.435C229.083 136.241 237.917 114.909 225.439 102.431L141.588 18.6098C138.829 15.8505 135.553 13.6616 131.948 12.1683C128.343 10.6749 124.48 9.90625 120.578 9.90625C116.676 9.90625 112.812 10.6749 109.207 12.1683C105.602 13.6616 102.327 15.8505 99.5679 18.6098L68.5409 49.6368" stroke="black" stroke-width="20" stroke-linecap="round" stroke-linejoin="round"/>
<path d="M211.435 323.84H29.7099C24.4569 323.84 19.419 321.753 15.7045 318.039C11.9901 314.324 9.90332 309.286 9.90332 304.033C9.90332 298.78 11.9901 293.742 15.7045 290.028C19.419 286.313 24.4569 284.227 29.7099 284.227H211.435C216.688 284.227 221.726 286.313 225.441 290.028C229.155 293.742 231.242 298.78 231.242 304.033C231.242 309.286 229.155 314.324 225.441 318.039C221.726 321.753 216.688 323.84 211.435 323.84Z" stroke="black" stroke-width="20" stroke-linecap="round" stroke-linejoin="round"/>
<path d="M160.196 210.238C160.196 218.073 157.873 225.732 153.52 232.246C149.167 238.76 142.981 243.838 135.742 246.836C128.504 249.834 120.539 250.619 112.855 249.09C105.171 247.562 98.1122 243.789 92.5722 238.249C87.0322 232.709 83.2594 225.65 81.7309 217.966C80.2024 210.282 80.9869 202.317 83.9851 195.079C86.9833 187.841 92.0607 181.654 98.575 177.301C105.089 172.948 112.748 170.625 120.583 170.625C131.089 170.625 141.165 174.799 148.594 182.227C156.023 189.656 160.196 199.732 160.196 210.238Z" stroke="black" stroke-width="20" stroke-linecap="round" stroke-linejoin="round"/>
<path d="M31.4531 136.953V283.522" stroke="black" stroke-width="20" stroke-linecap="round" stroke-linejoin="round"/>
<path d="M209.712 136.953V283.522" stroke="black" stroke-width="20" stroke-linecap="round" stroke-linejoin="round"/>
<path d="M340.891 289.387H472.387C480.266 289.387 487.823 286.257 493.395 280.685C498.967 275.113 502.097 267.556 502.097 259.677C502.097 251.797 498.967 244.241 493.395 238.669C487.823 233.097 480.266 229.967 472.387 229.967H451.59C454.599 218.259 454.891 206.018 452.444 194.18C449.997 182.341 444.876 171.219 437.472 161.663C430.069 152.108 420.578 144.371 409.726 139.045C398.874 133.719 386.948 130.945 374.859 130.934C374.864 107.317 367.832 84.2333 354.66 64.6302C341.488 45.027 322.773 29.7932 300.905 20.8729C279.037 11.9526 255.007 9.75051 231.882 14.5476C208.756 19.3447 187.585 30.9234 171.069 47.806" stroke="black" stroke-width="20" stroke-linecap="round" stroke-linejoin="round"/>
</g>
<defs>
<clipPath id="clip0_229_1000">
<rect width="512" height="512" fill="white"/>
</clipPath>
</defs>
</svg>
