<svg width="512" height="512" viewBox="0 0 512 512" fill="none" xmlns="http://www.w3.org/2000/svg">
<path d="M480.56 206.7H472.707V185.345C472.707 160.72 452.673 140.687 428.048 140.687H416.909C412.182 123.139 396.138 110.184 377.117 110.184C354.393 110.184 335.906 128.67 335.906 151.394V219.591H176.093V151.394C176.093 128.67 157.606 110.184 134.883 110.184C115.863 110.184 99.819 123.139 95.092 140.687H83.952C59.327 140.687 39.293 160.72 39.293 185.345V206.7H31.44C14.104 206.7 0 220.805 0 238.14V273.749C0 291.085 14.104 305.188 31.44 305.188H39.294V326.657C39.294 351.282 59.328 371.315 83.953 371.315H95.093C99.82 388.863 115.864 401.818 134.884 401.818C157.608 401.818 176.094 383.332 176.094 360.608V292.411H342.093C346.236 292.411 349.593 289.054 349.593 284.911C349.593 280.768 346.236 277.411 342.093 277.411H176.093V234.59H335.906V360.609C335.906 383.333 354.393 401.819 377.117 401.819C396.138 401.819 412.182 388.864 416.909 371.316H428.048C452.673 371.316 472.707 351.283 472.707 326.658V305.189H480.56C497.896 305.189 512 291.086 512 273.75V238.141C512 220.804 497.896 206.7 480.56 206.7ZM39.294 290.19H31.44C22.375 290.19 15 282.814 15 273.75V238.141C15 229.076 22.375 221.701 31.44 221.701H39.294V290.19ZM161.093 360.609C161.093 375.061 149.335 386.819 134.883 386.819C120.43 386.819 108.673 375.061 108.673 360.609V209.285C108.673 205.142 105.315 201.785 101.173 201.785C97.031 201.785 93.673 205.142 93.673 209.285V356.317H83.953C67.599 356.317 54.294 343.012 54.294 326.659V185.344C54.294 168.99 67.599 155.686 83.953 155.686H93.673V226.058C93.673 230.201 97.031 233.558 101.173 233.558C105.315 233.558 108.673 230.201 108.673 226.058V151.393C108.673 136.941 120.431 125.183 134.883 125.183C149.336 125.183 161.093 136.941 161.093 151.393V360.609ZM403.328 360.609C403.328 375.061 391.57 386.819 377.117 386.819C362.664 386.819 350.906 375.061 350.906 360.609V151.393C350.906 136.941 362.664 125.183 377.117 125.183C391.57 125.183 403.328 136.941 403.328 151.393V360.609ZM457.707 326.658C457.707 343.011 444.402 356.316 428.048 356.316H418.328V155.686H428.048C444.402 155.686 457.707 168.991 457.707 185.344V326.658ZM497 273.75C497 282.814 489.625 290.189 480.56 290.189H472.707V221.7H480.56C489.625 221.7 497 229.075 497 238.14V273.75Z" fill="black"/>
</svg>
