<svg width="512" height="512" viewBox="0 0 512 512" fill="none" xmlns="http://www.w3.org/2000/svg">
<path d="M144.3 50.0998C127.6 52.0998 111.2 59.9998 99 71.9998C86.7 84.0998 79.9 96.2998 76.4 112.7L74.7 120.8L68.6 121.5C50.3 123.4 34.5 132.3 24.6 146.3C7.7 170.3 9.9 202.6 29.8 222.8C33.5 226.6 37.7 230.5 39.2 231.6C41.8 233.5 41.8 233.6 40.8 239.5C38.8 251.5 41 267.6 46.5 281.5L49 287.6L39.7 297.1C20.1 317.1 7.5 341.5 2 369.5C0.2 379 0 384 0 418.1C0 443.4 0.4 456.8 1.1 458.2C3.7 463.1 1.8 463 110.5 463C379.2 463 377.3 463.1 379.9 458.2C380.5 457 381 454.1 381 451.7C381 447.9 380.5 446.8 377.9 444.6L374.8 442H117.3H19.7L20.3 412.7C20.7 393 21.3 380.8 22.4 375C25.3 359.2 32.4 341.7 41.2 328.7C46.3 321.2 56.4 309.4 59.6 307.4C61.9 305.8 62.2 305.9 67.7 310.5C89.3 328.2 116.1 334 142.3 326.4C143.9 325.9 144 327.5 144 350.5V375.2L146.9 378.1C149.2 380.4 150.7 381 154 381C159.2 381 161.6 379.7 163.5 376C164.7 373.7 165 368.6 165 349.7V326.3L170.8 327.7C174.2 328.6 181.5 329.2 189 329.2C204.3 329.2 213 327.2 226.3 320.3C233.8 316.5 237.2 313.9 245 306C252.9 298.2 255.5 294.8 259.3 287.3C265.9 274.4 268.2 265.3 268.4 250.7L268.5 239H273C286.8 239 322.6 245.3 344 251.5C389.9 264.9 432.9 287.7 456.1 310.9C471.5 326.4 480.8 341.8 486.4 361.3C490.5 375.5 491.1 380.9 491.7 412.2L492.3 442H394.7H297.2L294.1 444.6C291.5 446.8 291 447.9 291 451.7C291 454.1 291.5 457 292.1 458.2C294.7 463.1 292.8 463 401.5 463C510.2 463 508.3 463.1 510.9 458.2C511.6 456.8 512 443.5 512 418.2C512 375.9 511.4 369.4 505.4 351.3C495.9 322.1 478 297.8 452.5 279.5C428.9 262.5 391.2 244.1 359.9 234.2C339.2 227.6 308.5 221 290.7 219.4L283.3 218.8L286.6 213.2C293.8 201.4 296.7 187.9 295 174.6C291.3 145.6 269.7 124.6 240.2 121.5C234.9 120.9 233.9 120.5 233.6 118.7C231.3 107.4 229 100.3 225.4 92.9998C210.3 63.0998 178.1 45.9998 144.3 50.0998ZM170 72.5998C195.3 79.7998 212.9 103.1 213 129.6C213 135.3 213.4 137.3 215.1 139.4C218.3 143.5 221.4 144.3 229 142.9C249.8 139.3 270 153.9 273.9 175.5C276.8 191.4 267.9 209 253.2 216.4C243.5 221.3 243 223.1 246.4 239.5C252.4 267.8 234.3 297.3 205.5 306.2C195.5 309.3 182 309.3 172.3 306.1L165 303.7L165.1 256.1L165.2 208.5L181.5 193.3C198.7 177.2 199.5 175.9 197.8 169.2C196.8 165.6 192 162 188.2 162C184.7 162 182.3 163.6 173.5 171.7L165.5 179.2L165 152.3C164.5 124.5 164.1 122.2 160 120C159 119.5 156.3 119 154 119C150.7 119 149.2 119.6 146.9 121.9L144 124.8V178.6V232.4L124.7 213.2C105.4 194 105.4 194 100.9 194C95.7 194 92.8 195.8 91 199.9C88.3 206.5 89.2 207.7 117.5 236L144 262.5V283.1V303.7L138.8 305.4C115.8 312.8 93.6 307.1 76.9 289.3C64 275.7 58.7 257 62.6 238.9C65.9 223.5 65.2 221.4 54.8 215.8C44.3 210.2 37.2 200.2 34.9 187.7C30.2 162.3 54.8 138 80.1 142.9C85.4 144 86.5 143.9 89.8 142.3C94.6 140 96 137 96 128.8C96 103.6 112.9 80.7998 137.4 72.9998C147.3 69.7998 159.5 69.6998 170 72.5998Z" fill="black"/>
<path d="M257.8 321.601C252.5 324.401 252 326.901 252 350.501C252 374.201 252.7 377.601 257.6 379.901C259.1 380.601 266.2 381.001 276 381.001H292V392.001C292 404.501 293.1 408.001 298 410.501C301.7 412.401 303.4 412.401 307.5 410.501C312.1 408.201 313 405.401 313 392.501V381.001H348H383V391.501C383 403.701 384.4 408.101 388.9 410.401C392.7 412.401 394.4 412.401 398.5 410.501C403.1 408.201 404 405.401 404 392.501V381.001H421.1H438.2L441.1 378.101L444 375.201V350.801C444 327.401 443.9 326.301 441.9 324.101C440.8 322.901 438.7 321.501 437.3 320.901C435.9 320.401 399.7 320.001 347.7 320.001C272.5 320.101 260.1 320.301 257.8 321.601ZM423 350.501V360.001H348H273V350.501V341.001H348H423V350.501Z" fill="black"/>
</svg>
