<svg width="512" height="512" viewBox="0 0 512 512" fill="none" xmlns="http://www.w3.org/2000/svg">
<path d="M160.3 1.39999C150.3 4.60001 141 12.6 141 17.8C141 19.3 146.2 38.7 152.6 61L164.3 101.4L161.9 103C151.4 109.9 146 117 143.9 126.8C141.1 140.4 147.3 155.5 158.7 163C160.9 164.5 160.6 165.1 122 225.5C100.5 259 80.6 291.2 77.6 297C64.9001 321.8 59.5 348.8 62 375.5C68.1 443.9 117.8 498.8 183.8 510.1C194.2 511.8 200.3 512 256 512C311.7 512 317.8 511.8 328.2 510.1C393.9 498.8 443.9 443.8 450 375.8C452.4 349.3 447.2 322.5 435 298C432.4 292.8 412.4 260.6 390.6 226.5C351.5 165.1 351.1 164.5 353.3 163C364.7 155.5 370.9 140.4 368.1 126.8C366 117.1 360.6 109.9 350.1 103L347.8 101.5L359.4 61C365.8 38.7 371 19.3 371 17.8C371 13.7 364.9 7.59998 357.3 3.79999C351.8 1.09998 349.3 0.499969 342 0.199982C328.7 -0.400024 322.1 2 309.3 12.4C301.4 18.8 292.8 18.1 283.8 10.4C275.2 3.10001 269.2 0.599976 258.4 0.199982C246.7 -0.300049 240 1.60001 231.8 7.89999C217 19.2 210.9 19.7 199.9 10.3C191.4 3 185.3 0.599976 174 0.299988C167.9 0.0999756 163 0.5 160.3 1.39999ZM264.1 22.6C265.5 23.3 268.6 25.5 271 27.5C287.6 41.4 309.1 41.1 325.9 26.7C329 24 332.8 21.8 334.7 21.4C338.3 20.7 346.7 21.3 347.7 22.4C348 22.7 343.4 40.2 337.4 61.2L326.4 99.5H256.1H185.7L174.7 61.2C168.7 40.1 164 22.7 164.3 22.3C165.3 21.3 173.7 20.7 177.3 21.4C179.2 21.7 183 24 186 26.6C192.9 32.5 199.2 35.6 207.3 37.1C219 39.3 232.2 35.5 241.1 27.5C249.1 20.3 256.4 18.7 264.1 22.6ZM340.8 122.5C344.4 124.6 348 130.5 348 134C348 137.5 344.4 143.4 340.8 145.5C337.8 147.3 335.4 147.5 316.8 147.8C296.1 148.2 296.1 148.2 293.5 150.7C289.9 154.4 289.9 161.6 293.6 165.3C296.2 167.9 296.5 168 312.3 168.2L328.4 168.5L366.8 228.5C387.9 261.5 407.8 293 411 298.4C424.9 321.6 431.4 349.1 429 374C426 403.8 413.9 430.6 393.8 451.7C370.9 475.6 343.7 488.4 310 491C293.8 492.2 218.2 492.2 202 491C168.3 488.4 141.1 475.6 118.2 451.7C86.1 418 74.4 368.4 88.5 325.5C93.4 310.6 99.8 299.6 141.7 234L183.6 168.5L199.7 168.2C215.5 168 335.8 167.9 338.4 165.3C342.1 161.6 342.1 154.4 338.5 150.7C335.9 148.2 215.9 148.2 195.2 147.8C176.6 147.5 174.2 147.3 171.2 145.5C167.6 143.4 164 137.5 164 133.9C164 128.2 169 122.5 175.5 120.9C177.1 120.5 214.3 120.2 258 120.3C335.6 120.5 337.6 120.5 340.8 122.5Z" fill="black"/>
<path d="M297.832 306.049C303.914 306.049 308.292 311.89 306.584 317.728C305.447 321.615 301.882 324.287 297.832 324.287H215.168C209.086 324.287 204.708 318.446 206.416 312.608C207.553 308.721 211.118 306.049 215.168 306.049H297.832ZM270.186 429C265.199 429 260.476 426.757 257.325 422.891L206.975 361.13C205.619 359.466 204.855 357.398 204.804 355.251C204.675 349.824 209.039 345.355 214.468 345.355H233.123C240.549 345.355 246.877 344.307 252.107 342.211C257.337 340.062 261.337 336.865 264.109 332.62C266.881 328.323 268.267 322.924 268.267 316.426C268.267 306.835 265.391 299.314 259.638 293.864C253.885 288.361 245.047 285.609 233.123 285.609H214.867C208.959 285.609 204.728 279.906 206.44 274.252C207.565 270.539 210.987 268 214.867 268H233.123C245.884 268 256.343 270.123 264.501 274.368C272.712 278.56 278.779 284.325 282.701 291.663C286.675 298.947 288.663 307.202 288.663 316.426C288.663 324.759 286.832 332.437 283.172 339.459C279.563 346.43 273.758 352.038 265.757 356.283C257.807 360.528 247.296 362.65 234.221 362.65C234.033 362.65 233.929 362.869 234.048 363.015L286.572 427.486C286.706 427.652 286.78 427.859 286.78 428.072C286.78 428.585 286.365 429 285.852 429H270.186ZM297.868 268C303.932 268 308.297 273.824 306.594 279.645C305.453 283.546 301.861 286.216 297.796 286.184L236.483 285.702C230.573 285.656 226.368 279.941 228.081 274.285C229.212 270.553 232.653 268 236.553 268H297.868Z" fill="black"/>
</svg>
