<svg width="512" height="512" viewBox="0 0 512 512" fill="none" xmlns="http://www.w3.org/2000/svg">
<path d="M502.37 367.05L502.29 366.96C500.01 364.36 481.77 357.71 448.9 346.35C387.68 325.26 373.14 322.59 369.9 322.89C367.1 323.37 356.78 329.5 339.27 341.09L309.27 360.95L293.39 351.81C238.03 319.81 185.7 267.18 156.83 214.54L150.6 203.3L167.71 177.3C176.29 164.42 184.71 150.89 186.55 147.39C189.24 142.13 189.24 142.13 187.91 136.39C185.77 126.53 161.14 51.55 152.77 29.39C148.71 18.73 145.7 12.24 144.77 10.9C142.71 10.09 128.83 10.02 115.91 10.02L99.19 10H95.85C71.48 10 45.94 10.2 41.37 11.67H41.25C29.48 15.37 17.93 25.55 11.89 37.63C9.16 43.09 9 43.42 9 69.11C9 108.94 12.43 132.56 23.69 170.24C46.44 245.17 87.8 312.44 146.6 370.17C210.08 432.28 283.08 473.68 363.69 493.21C394.36 500.61 406.4 502.01 439.46 502.01C469.4 502.01 469.74 501.85 475.38 499.2C482.9 495.5 494.16 484.12 498.99 475.33L502.49 468.92L502.89 418.25C503.21 389.68 503.45 369 502.37 367.05ZM483.76 421.61C483.08 458.05 483.08 461 479.24 467.8C472.15 480.8 460.93 483.39 445.13 483.39C441.37 483.39 437.03 483.22 431.85 482.88C371.92 479.12 310.21 459.49 253.4 426.12C196.59 392.75 146.08 346.47 106.95 292.16C86.08 263.28 64.31 222.33 51.42 187.81C43.36 165.81 34.95 134.05 31.42 112.22C28.34 93.12 27.28 52.22 31.63 44.06C34.79 38.23 43.39 32.27 51.21 30.48C52.82 30.11 56.97 29.82 63.92 29.6C70.69 29.38 79.97 29.23 92.27 29.14L131.53 29L150.08 84.43L168.08 138.69L150.44 165.21C134.86 188.82 129.72 198.05 129.44 202.95C129.83 204.78 132.81 212.26 136.94 220.67C152.14 250.79 169.3 273.24 202.51 306.46C235.72 339.68 259.77 358.1 291.51 374.21L292.31 374.62C302.41 379.73 307.01 382.06 312.63 380.8C319.06 379.34 327.94 373.48 345.63 361.8L347.33 360.68C372.22 344.35 374.09 344.35 375.33 344.35C376.09 344.35 377.87 344.35 429.99 361.64L484.52 379.91L483.76 421.61Z" fill="black"/>
</svg>
