<svg width="512" height="512" viewBox="0 0 512 512" fill="none" xmlns="http://www.w3.org/2000/svg">
<path d="M123.3 6.39999C113.2 9.69998 104.3 17.7 99.2 28C96.7 33.2 96.5 34.5 96.2 49.2L95.8 65H71C49.1 65 45.5 65.2 39.8 67C24.2 71.8 11.8 84.2 7 99.9C5 106.1 5 110.1 5 286C5 461.9 5 465.9 7 472.1C11.8 487.8 24.2 500.2 39.8 505C46.1 507 49.6 507 256 507C461.7 507 465.9 507 472.1 505C487.8 500.2 500.2 487.8 505 472.2C507 465.9 507 462.5 507 286C507 109.5 507 106.1 505 99.8C500.2 84.2 487.8 71.8 472.1 67C466.6 65.2 462.8 65 441 65H416.2L415.8 49.2C415.5 34.2 415.4 33.2 412.6 27.5C408.8 19.8 401.2 12.2 393.5 8.39999C387.9 5.69998 386.7 5.5 376 5.5C365.3 5.5 364.1 5.69998 358.5 8.39999C350.8 12.2 343.2 19.8 339.4 27.5C336.6 33.2 336.5 34.2 336.2 49.2L335.8 65H256H176.2L175.8 49.2C175.5 34.2 175.4 33.2 172.6 27.5C168.8 19.8 161.2 12.2 153.5 8.5C148.3 5.89999 146.3 5.5 137.5 5.29999C131.1 5.10001 126 5.5 123.3 6.39999ZM144.8 27.9C149 30.1 151 32.1 153.6 37C155.4 40.2 155.5 43.2 155.5 75C155.5 108.4 155.4 109.6 153.4 113.5C149.6 120.6 143.9 124 136 124C128.1 124 122.4 120.6 118.6 113.5C116.6 109.6 116.5 108.4 116.5 75C116.5 41.6 116.6 40.4 118.6 36.5C121 32 123.1 30 127.5 27.7C131.7 25.5 140.2 25.6 144.8 27.9ZM384.8 27.9C389 30.1 391 32.1 393.6 37C395.4 40.2 395.5 43.2 395.5 75C395.5 108.4 395.4 109.6 393.4 113.5C389.6 120.6 383.9 124 376 124C368.1 124 362.4 120.6 358.6 113.5C356.6 109.6 356.5 108.4 356.5 75C356.5 41.6 356.6 40.4 358.6 36.5C361 32 363.1 30 367.5 27.7C371.7 25.5 380.2 25.6 384.8 27.9ZM96.2 100.7C96.5 115.8 96.6 116.8 99.4 122.5C103.2 130.2 110.8 137.8 118.5 141.6C124.1 144.3 125.3 144.5 136 144.5C146.7 144.5 147.9 144.3 153.5 141.6C161.2 137.8 168.8 130.2 172.6 122.5C175.4 116.8 175.5 115.8 175.8 100.7L176.2 85H256H335.8L336.2 100.7C336.5 115.8 336.6 116.8 339.4 122.5C343.2 130.2 350.8 137.8 358.5 141.6C364.1 144.3 365.3 144.5 376 144.5C386.7 144.5 387.9 144.3 393.5 141.6C401.2 137.8 408.8 130.2 412.6 122.5C415.4 116.8 415.5 115.8 415.8 100.6L416.2 84.8L439.3 85.2C466.7 85.8 469.6 86.5 477.6 94.4C486.3 103.1 486.3 103.5 486.8 148.2L487.1 187H256H24.9L25.2 148.2C25.7 104.7 25.8 104 33.1 95.6C37.5 90.6 43.7 87.2 50.7 86C53.4 85.6 64.6 85.2 75.7 85.1L95.8 85L96.2 100.7ZM487 330.7C487 404.2 486.6 456.9 486 460.3C484.2 471.8 477.2 480.8 467.2 484.7C462.7 486.4 453.3 486.5 260.5 486.8C134.5 487 56.1 486.7 52.2 486.1C40.4 484.3 31.3 477.4 27.3 467.2C25.6 462.8 25.5 455.6 25.2 334.7L24.9 207H256H487V330.7Z" fill="black"/>
<path d="M194.5 249.401C182.2 253.301 172.3 261.101 164.8 272.501C160.1 279.701 156.5 290.701 157.4 295.401C158.3 300.401 162.3 303.501 167.5 303.501C172.9 303.501 176.5 300.401 178.1 294.601C181.9 280.701 193 270.201 206.2 268.301C221.3 266.001 234.8 272.701 242.1 286.201C245.3 292.101 245.5 293.101 245.5 302.001C245.5 310.901 245.3 311.901 242.1 317.801C236.2 328.601 227.5 334.401 214.8 336.101C210.8 336.701 206.5 337.801 205.3 338.501C202.1 340.601 200.6 346.201 202 350.501C203.6 355.201 206.1 356.701 214.8 357.901C227.5 359.601 236.2 365.401 242.1 376.201C245.3 382.101 245.5 383.101 245.5 392.001C245.5 400.901 245.3 401.901 242.1 407.801C235.8 419.301 226.6 425.201 213.5 425.801C207.1 426.101 204.4 425.701 199.8 424.001C187.8 419.501 178.7 407.401 177.3 394.001C176.5 385.501 173.4 382.001 166.8 382.001C158.7 382.001 155.3 387.201 156.6 397.701C158.7 415.001 168.4 430.501 182.7 439.401C198.5 449.101 221.5 449.701 238.4 440.701C251.3 433.901 263 418.401 265.9 404.201C269.7 385.601 264.3 366.401 251.4 353.301L245.2 347.001L251.4 340.701C272.5 319.201 272.3 284.301 251 263.001C239.7 251.701 227.8 247.001 211 247.001C203.9 247.101 199.7 247.701 194.5 249.401Z" fill="black"/>
<path d="M300.3 248.5C297.1 250.8 295.6 256.2 297 260.5C299 266.5 300.5 267 318.7 267H335V354.1V441.2L337.9 444.1C340.2 446.4 341.7 447 345 447C347.3 447 350 446.5 351.2 445.9C356.1 443.3 356 444.4 356 347C356 249.6 356.1 250.7 351.2 248.1C349.9 247.4 340.6 247 325.8 247C306.6 247 302.1 247.3 300.3 248.5Z" fill="black"/>
</svg>
