<svg width="512" height="512" viewBox="0 0 512 512" fill="none" xmlns="http://www.w3.org/2000/svg">
<path d="M16.2 84.1C9.3 87.5 5.8 91.2 2.4 98.5L0 103.5V256V408.5L2.4 413.5C5.8 420.8 9.3 424.5 16.2 427.9L22.3 431H256H489.7L495.8 427.9C502.7 424.5 506.2 420.8 509.6 413.5L512 408.5V256V103.5L509.6 98.5C506.2 91.2 502.7 87.5 495.8 84.1L489.7 81H390.5H291.3L288.6 83.6C284.9 87.4 284.9 94.6 288.6 98.4L291.3 101H382.2H473.1L365.1 190C305.7 238.9 256.6 279 256 279C255.4 279 206.4 239.1 147.2 190.2L39.5 101.5L130.1 101.2L350.7 101L353.4 98.4C357.1 94.6 357.1 87.4 353.4 83.6L350.7 81H121.5H22.3L16.2 84.1ZM192.5 256C192.5 256.4 153.7 288.8 106.3 327.9L20 399V256V113L106.3 184.1C153.7 223.2 192.5 255.6 192.5 256ZM492 256V399L405.8 327.9C358.3 288.8 319.5 256.4 319.5 256C319.5 255.4 490.5 113.5 491.8 113.1C491.9 113 492 177.3 492 256ZM228 284.5C245.5 299 248.9 301 256 301C262.3 301 266 299.2 274.8 292C279.6 288.1 287.6 281.5 292.7 277.4L301.9 269.9L387.5 340.4L473.1 411H256.3C60.1 411 39.7 410.9 41.1 409.4C43.4 407.2 209.4 270.2 210 270.1C210.3 270 218.4 276.5 228 284.5Z" fill="black"/>
</svg>
