<svg width="512" height="512" viewBox="0 0 512 512" fill="none" xmlns="http://www.w3.org/2000/svg">
<path d="M227.5 11.0989C113.8 24.9989 25.5 112.699 11.4 225.999C9.60005 240.699 9.60005 271.299 11.4 285.999C14.9 313.999 22.7 339.999 35.1 364.999C70.9001 437.099 136.6 485.599 217.4 499.599C229.7 501.699 267.5 502.599 282.2 501.099C377.9 491.199 459.8 424.999 490 332.999C498.7 306.599 502 285.499 502 255.999C502 226.499 498.7 205.399 490 178.999C460.1 87.9989 381.4 23.2989 286 11.3989C273.5 9.89886 239.2 9.69888 227.5 11.0989ZM246 47.4989C246 63.6989 246.1 64.0989 248.4 66.4989C252.9 70.9989 259.1 70.9989 263.6 66.4989C265.9 64.0989 266 63.6989 266 47.4989V30.9989H270.3C283.6 31.0989 308.2 35.9989 328 42.5989C360.5 53.3989 389 71.0989 414.1 95.9989C433.7 115.499 447.1 133.899 458.6 157.499C470.9 182.799 481 220.899 481 242.199V245.999H464.5C448.3 245.999 447.9 246.099 445.5 248.399C441 252.899 441 259.099 445.5 263.599C447.9 265.899 448.3 265.999 464.5 265.999H481V269.799C481 291.099 470.9 329.199 458.6 354.499C447.3 377.599 433.9 396.299 415.1 415.099C396.3 433.899 377.6 447.299 354.5 458.599C329.2 470.899 291.1 480.999 269.8 480.999H266V464.499C266 448.299 265.9 447.899 263.6 445.499C259.1 440.999 252.9 440.999 248.4 445.499C246.1 447.899 246 448.299 246 464.499V480.999H241.8C228.4 480.899 203.7 475.999 184.2 469.499C151 458.399 122.7 440.799 97.0001 414.999C67.1 385.099 47.6 350.999 37.4 310.699C34.6 299.799 31 276.899 31 270.199V265.999H47.5C63.7001 265.999 64.1 265.899 66.5 263.599C71 259.099 71 252.899 66.5 248.399C64.1 246.099 63.7001 245.999 47.5 245.999H31V241.699C31 235.099 34.6 212.199 37.4 201.299C42.9001 179.599 53.7001 154.199 64.6 136.999C82.8 108.399 108.4 82.7989 137 64.5989C165.3 46.5989 210.9 31.7989 240.8 31.0989L246 30.9989V47.4989Z" fill="black"/>
<path d="M248.6 130.599L246 133.299V197.299V261.399L286.3 301.799C308.4 323.999 327.7 342.799 329.2 343.599C339.1 348.799 348.8 339.099 343.6 329.199C342.8 327.699 325 309.399 304.1 288.499L266 250.499V191.899V133.299L263.4 130.599C261.3 128.499 259.8 127.999 256 127.999C252.2 127.999 250.7 128.499 248.6 130.599Z" fill="black"/>
</svg>
