<svg width="173" height="167" viewBox="0 0 173 167" fill="none" xmlns="http://www.w3.org/2000/svg">
<path d="M114.11 85.3225C117.973 90.8574 123.975 93.5794 128.812 92.137C133.684 90.6836 136.233 85.3443 136.429 84.9202C138.312 80.8395 136.767 78.7282 138.565 77.1857C141.776 74.4327 147.924 80.1088 152.393 77.1875C154.773 75.6313 155.677 72.2905 155.696 70.0781C155.732 66.0011 152.778 64.3712 153.649 62.551C154.846 60.0484 160.617 62.7276 165.299 59.4614C168.199 57.4384 170.299 53.4013 169.484 49.9358C168.125 44.1497 158.952 41.2885 154.564 43.7884C151.478 45.5466 152.281 49.0904 148.629 50.976C145.054 52.8216 142.729 50.2271 140.252 51.9935C136.617 54.5844 139.872 61.4198 135.904 64.5222C133.587 66.3342 131.778 64.5495 129.538 66.3205C125.859 69.23 129.048 75.3847 126.037 80.1361C124.578 82.4376 121.426 84.7874 114.109 85.3225H114.11Z" fill="white"/>
<path d="M126.164 92.7286C121.839 92.7286 117.114 90.0011 113.935 85.4463C113.891 85.3835 113.884 85.3016 113.917 85.2315C113.95 85.1624 114.018 85.1151 114.095 85.1096C120.036 84.6755 123.995 82.9637 125.859 80.0224C127.252 77.8237 127.287 75.3374 127.319 72.933C127.356 70.2666 127.391 67.7484 129.407 66.1531C130.579 65.2267 131.645 65.2249 132.676 65.223C133.699 65.2212 134.667 65.2203 135.774 64.3539C137.723 62.8296 137.864 60.3251 137.999 57.9025C138.136 55.4572 138.266 53.1475 140.129 51.8197C141.405 50.9106 142.643 51.0935 143.954 51.2873C145.333 51.4912 146.758 51.7023 148.533 50.7859C150.387 49.8285 151.062 48.4107 151.714 47.0392C152.315 45.776 152.937 44.4701 154.46 43.6019C156.781 42.2796 160.592 42.3761 163.945 43.8413C167.01 45.1809 169.107 47.385 169.694 49.8877C170.582 53.6662 168.157 57.7315 165.422 59.638C162.885 61.4081 160.053 61.4681 157.777 61.5164C155.861 61.5573 154.347 61.5892 153.842 62.6448C153.475 63.412 153.887 64.1628 154.457 65.2012C155.113 66.3979 155.93 67.8877 155.91 70.0809C155.888 72.6163 154.828 75.8525 152.51 77.3677C150.118 78.9303 147.239 78.1094 144.698 77.385C142.368 76.7207 140.168 76.0937 138.704 77.3495C137.865 78.0694 137.815 78.8985 137.74 80.1525C137.665 81.4011 137.571 82.9546 136.623 85.0113C136.348 85.6074 133.794 90.8757 128.872 92.3436C128.001 92.6039 127.091 92.7295 126.164 92.7295V92.7286ZM114.504 85.5073C118.27 90.6882 124.081 93.3256 128.751 91.9323C133.574 90.4935 136.129 85.0614 136.235 84.8311C137.15 82.8481 137.241 81.3392 137.314 80.127C137.39 78.8621 137.45 77.8619 138.427 77.0237C140.066 75.6186 142.373 76.2766 144.816 76.9728C147.389 77.7063 150.049 78.4653 152.277 77.0092C154.775 75.3775 155.468 71.8847 155.485 70.0782C155.503 67.9969 154.716 66.5617 154.084 65.4078C153.476 64.3002 152.997 63.4248 153.458 62.4592C154.077 61.166 155.706 61.1314 157.769 61.0877C159.987 61.0404 162.747 60.9822 165.179 59.2867C167.797 57.4612 170.123 53.5807 169.279 49.9869C168.722 47.6171 166.716 45.5203 163.775 44.2353C160.539 42.822 156.881 42.7173 154.672 43.976C153.265 44.7777 152.7 45.9662 152.101 47.2249C151.418 48.66 150.712 50.1443 148.729 51.1672C146.833 52.1464 145.27 51.9153 143.892 51.7114C142.616 51.5221 141.514 51.3592 140.378 52.1683C138.682 53.3768 138.559 55.5865 138.427 57.9262C138.285 60.4443 138.14 63.0471 136.037 64.6916C134.814 65.648 133.727 65.6499 132.677 65.6508C131.675 65.6526 130.728 65.6535 129.673 66.488C127.816 67.9569 127.784 70.2648 127.747 72.9376C127.714 75.2864 127.678 77.9493 126.219 80.2508C124.319 83.2494 120.379 85.0168 114.504 85.5064V85.5073Z" fill="#263238"/>
<path d="M120.281 86.7468C120.104 86.7468 119.927 86.7449 119.748 86.7395C117.292 86.6767 114.899 86.1097 112.635 85.055C112.528 85.0049 112.482 84.8775 112.532 84.7701C112.582 84.6627 112.709 84.6163 112.816 84.6664C115.026 85.6966 117.362 86.2499 119.76 86.3118C123.2 86.4 126.282 85.6138 128.914 83.972C131.653 82.2647 133.005 80.1652 135.245 76.6879C136.805 74.2681 137.455 72.7638 138.084 71.3095C138.704 69.8752 139.29 68.5211 140.667 66.4106C141.802 64.6724 143.913 61.4372 147.509 58.5778C151.114 55.7111 155.624 53.7745 160.552 52.9773C160.67 52.9582 160.778 53.0383 160.797 53.1548C160.816 53.2713 160.736 53.3814 160.62 53.4005C155.764 54.1859 151.322 56.0924 147.774 58.9136C144.232 61.7293 142.145 64.9273 141.024 66.6454C139.667 68.7249 139.088 70.0636 138.475 71.4797C137.839 72.9503 137.182 74.471 135.604 76.92C133.331 80.4483 131.959 82.5778 129.139 84.336C126.572 85.9368 123.593 86.7468 120.28 86.7468H120.281Z" fill="#263238"/>
<path d="M112.474 84.6828C113.792 85.1842 117.845 86.5257 122.405 84.8939C123.21 84.6064 128.971 82.5442 129.876 78.1513C130.641 74.4429 127.274 72.3324 128.468 70.1656C129.997 67.3908 136.165 69.6751 138.086 66.418C139.068 64.7535 138.438 62.4929 138.23 61.743C137.72 59.9065 136.898 59.6508 135.483 57.1627C135.239 56.7331 132.711 52.2311 133.734 51.3129C134.485 50.6376 136.257 52.7025 138.856 52.1019C139.093 52.0473 140.738 51.6414 141.627 50.1889C142.454 48.8393 142.17 47.3314 141.916 46.0782C141.206 42.58 139.346 41.4879 139.792 40.6534C140.469 39.3866 144.944 41.547 151.322 41.7609C155.253 41.8929 160.455 42.0676 163.308 38.6558C165.294 36.2815 165.816 32.5611 164.628 29.7527C162.296 24.2423 153.497 22.536 147.811 24.4252C144.745 25.4445 144.31 26.9352 141.028 27.4075C136.371 28.0773 135.12 25.3817 131.732 26.1707C127.158 27.2364 123.261 33.5904 123.696 38.8442C123.978 42.2359 125.957 43.8759 125 45.23C123.441 47.436 117.547 44.0051 115.175 46.5605C113.319 48.5599 114.84 52.9127 115.137 53.76C116.655 58.1028 119.855 59.5316 119.268 60.9767C118.55 62.7441 113.68 60.8138 111.911 63.1254C110.189 65.3732 112.41 70.3176 114.341 74.6149C116.119 78.5718 117.598 80.3455 116.812 82.1437C116.12 83.7282 114.086 84.3798 112.476 84.6828H112.474Z" fill="white"/>
<path d="M117.835 85.8941C115.525 85.8941 113.59 85.3371 112.398 84.883C112.309 84.8493 112.253 84.7592 112.261 84.6637C112.269 84.5681 112.34 84.4899 112.435 84.4717C114.694 84.0467 116.099 83.234 116.613 82.0573C117.155 80.8169 116.507 79.5246 115.434 77.3832C115.046 76.6088 114.606 75.7306 114.143 74.7013C112.173 70.3148 109.939 65.3432 111.738 62.9934C112.743 61.6793 114.621 61.6511 116.277 61.6265C117.623 61.6065 118.786 61.5892 119.068 60.8939C119.3 60.3242 118.762 59.6917 117.949 58.7353C117.017 57.6377 115.74 56.1352 114.933 53.8292C114.239 51.8416 113.326 48.235 115.017 46.4131C116.329 44.9989 118.638 45.3101 120.675 45.585C122.463 45.8261 124.153 46.0536 124.824 45.1054C125.271 44.4729 124.971 43.7476 124.518 42.6491C124.116 41.6744 123.615 40.4613 123.483 38.8615C123.031 33.4202 127.093 27.0307 131.683 25.9614C133.372 25.5674 134.562 26.0133 135.822 26.4847C137.203 27.0016 138.63 27.5358 140.998 27.1954C142.82 26.9333 143.719 26.3646 144.76 25.7057C145.565 25.1961 146.398 24.6691 147.745 24.2223C153.735 22.232 162.501 24.1777 164.826 29.6699C166.047 32.5584 165.479 36.3952 163.473 38.7941C160.553 42.286 155.215 42.1067 151.316 41.9757C148.308 41.8747 145.679 41.335 143.76 40.9409C141.733 40.5241 140.267 40.2238 139.983 40.7553C139.848 41.0083 140.052 41.3605 140.455 42.013C140.962 42.832 141.728 44.0688 142.128 46.0363C142.369 47.2249 142.699 48.8521 141.812 50.3018C140.903 51.7852 139.232 52.2366 138.906 52.3112C137.364 52.6679 136.105 52.1283 135.184 51.7351C134.513 51.4475 134.092 51.2819 133.878 51.473C133.278 52.0127 134.325 54.691 135.671 57.0571C136.258 58.09 136.75 58.7444 137.146 59.2695C137.718 60.0312 138.131 60.5809 138.438 61.6857C138.652 62.4519 139.3 64.7844 138.272 66.5272C137.218 68.3136 135.034 68.5138 132.92 68.7077C131.077 68.8769 129.338 69.0362 128.657 70.2693C128.132 71.2222 128.581 72.1695 129.15 73.369C129.781 74.7013 130.497 76.212 130.088 78.195C129.249 82.2666 124.487 84.377 122.48 85.096C120.846 85.6802 119.27 85.8941 117.838 85.8941H117.835ZM113.258 84.7319C115.285 85.3872 118.661 86.006 122.333 84.6928C123.846 84.1513 128.848 82.0755 129.666 78.1086C130.046 76.2657 129.363 74.8242 128.761 73.5528C128.189 72.347 127.649 71.2076 128.28 70.0627C129.07 68.6303 130.92 68.461 132.878 68.2808C134.884 68.097 136.958 67.9068 137.9 66.3088C138.836 64.7234 138.224 62.5229 138.022 61.8003C137.737 60.7738 137.364 60.2778 136.799 59.527C136.397 58.9919 135.896 58.3248 135.295 57.2683C134.62 56.0806 132.502 52.1292 133.589 51.1527C134.015 50.7695 134.603 51.0207 135.348 51.3402C136.262 51.7315 137.399 52.2174 138.805 51.8926C139.102 51.8243 140.623 51.4139 141.443 50.0761C142.242 48.7702 141.943 47.3013 141.704 46.1201C141.32 44.2281 140.608 43.0777 140.088 42.2369C139.656 41.5388 139.345 41.0338 139.603 40.5505C140.038 39.7369 141.469 40.0309 143.843 40.5187C145.747 40.91 148.355 41.4451 151.327 41.5452C155.138 41.6735 160.357 41.8483 163.143 38.5165C165.051 36.2341 165.592 32.583 164.43 29.8346C162.193 24.5481 153.694 22.6934 147.877 24.6264C146.58 25.0577 145.77 25.5701 144.987 26.0652C143.95 26.7213 142.97 27.342 141.057 27.6168C138.582 27.9726 137.036 27.3938 135.671 26.8833C134.421 26.4155 133.342 26.0124 131.779 26.3764C127.371 27.4038 123.473 33.5686 123.909 38.8232C124.036 40.3567 124.523 41.5361 124.913 42.4835C125.385 43.6247 125.756 44.5266 125.173 45.3511C124.353 46.5114 122.539 46.2675 120.619 46.0081C118.59 45.7351 116.493 45.4521 115.331 46.7034C114.191 47.932 114.193 50.4119 115.338 53.6863C116.117 55.9177 117.364 57.3848 118.275 58.4559C119.157 59.4934 119.794 60.2432 119.465 61.0541C119.076 62.0115 117.782 62.0306 116.284 62.0533C114.725 62.077 112.959 62.1034 112.079 63.2528C110.435 65.3996 112.613 70.2466 114.534 74.5238C114.992 75.5449 115.43 76.4186 115.817 77.1894C116.947 79.4427 117.628 80.8023 117.006 82.2275C116.494 83.4005 115.235 84.2405 113.26 84.7292L113.258 84.7319Z" fill="#263238"/>
<path d="M111.608 84.9877C110.088 84.9877 108.769 84.7502 107.763 84.4817C107.649 84.4517 107.581 84.3343 107.611 84.2196C107.641 84.1059 107.759 84.0376 107.873 84.0676C109.641 84.54 112.4 84.9122 115.506 84.0021C115.692 83.9475 120.099 82.6234 122.819 78.914C125.15 75.7361 124.938 72.6246 124.643 68.3182C124.501 66.2342 124.339 63.8717 124.454 61.1315C124.605 57.5386 125.065 46.6061 130.586 39.7279C133.785 35.7436 138.676 33.1436 145.125 32.0006C148.856 31.3399 153.106 31.1888 157.413 31.5656C157.531 31.5756 157.617 31.6793 157.607 31.7976C157.597 31.915 157.495 32.0033 157.376 31.9924C151.748 31.501 137.903 31.2962 130.92 39.9963C125.487 46.7653 125.031 57.5905 124.882 61.1488C124.768 63.8662 124.929 66.216 125.07 68.2891C125.359 72.5208 125.588 75.8635 123.165 79.1679C120.407 82.9282 116.107 84.2733 115.626 84.4144C114.195 84.833 112.835 84.9886 111.607 84.9886L111.608 84.9877Z" fill="#263238"/>
<path d="M88.0852 45.342C88.0852 45.342 84.2593 44.0879 84.7843 37.2707C85.1876 32.0297 83.8415 27.5058 78.6532 26.0879C73.4657 24.6701 68.5926 27.6632 68.7497 32.7031C68.9069 37.743 68.8878 41.8101 65.606 44.0433C61.3614 46.9309 57.3793 44.8305 49.5187 51.8662C39.6235 60.7228 42.4974 87.6714 71.1077 80.269L88.0852 45.3429V45.342Z" fill="#263238"/>
<path d="M79.606 41.6981C79.606 41.6981 78.823 42.5618 77.188 42.2587L79.606 41.6981Z" fill="white"/>
<path d="M77.8666 42.5372C77.6468 42.5372 77.4079 42.5172 77.1481 42.469C77.0318 42.4471 76.9555 42.3361 76.9764 42.2196C76.9982 42.1031 77.1081 42.0267 77.2253 42.0476C78.7131 42.3234 79.418 41.5844 79.4471 41.5525C79.527 41.4661 79.6623 41.4606 79.7486 41.5407C79.8349 41.6208 79.8413 41.7546 79.7623 41.8419C79.7323 41.8747 79.1146 42.5372 77.8648 42.5372H77.8666Z" fill="#263238"/>
<path d="M79.0082 144.006C79.0082 144.006 80.3716 148.192 81.735 149.471C83.0984 150.748 88.5211 153.261 88.5964 155.993C88.6845 159.166 86.8452 159.752 81.9185 158.607C78.3596 157.778 75.4221 155.598 74.373 154.354C73.4456 153.255 73.9634 152.32 74.1895 151.031C74.4675 149.45 74.5211 147.839 74.5211 146.234V143.61L79.0073 144.007L79.0082 144.006Z" fill="white"/>
<path d="M85.6245 159.361C84.6607 159.361 83.4327 159.179 81.8704 158.816C78.2316 157.97 75.2405 155.715 74.2096 154.493C73.3993 153.533 73.6055 152.654 73.8235 151.723C73.878 151.49 73.9344 151.249 73.9789 150.995C74.2677 149.35 74.3068 147.666 74.3068 146.234V143.61C74.3068 143.55 74.3322 143.492 74.3758 143.451C74.4203 143.41 74.4793 143.39 74.5393 143.396L79.0255 143.793C79.1109 143.8 79.1835 143.858 79.2099 143.939C79.2235 143.98 80.5724 148.088 81.8794 149.314C82.2419 149.653 82.9213 150.097 83.7079 150.609C85.8361 151.996 88.7509 153.896 88.809 155.987C88.8463 157.32 88.5556 158.193 87.8953 158.733C87.3839 159.152 86.6545 159.361 85.6236 159.361H85.6245ZM74.7346 143.844V146.234C74.7346 147.684 74.6946 149.392 74.4003 151.069C74.354 151.334 74.2959 151.581 74.2395 151.82C74.0215 152.749 73.8644 153.42 74.5357 154.216C75.5312 155.396 78.4287 157.575 81.9666 158.397C85.0168 159.107 86.7626 159.108 87.6255 158.401C88.175 157.951 88.4148 157.188 88.3821 155.998C88.3304 154.133 85.5236 152.304 83.4754 150.968C82.6724 150.444 81.9785 149.992 81.5888 149.626C80.3244 148.441 79.1 144.95 78.8493 144.206L74.7346 143.842V143.844Z" fill="#263238"/>
<path d="M88.4029 157.522C88.3974 157.522 88.3929 157.522 88.3874 157.522L86.6362 157.394C82.1027 157.066 77.8618 155.109 74.6954 151.887C74.2703 151.454 74.0368 151.183 74.0277 151.171C73.9505 151.081 73.9605 150.947 74.0505 150.869C74.1395 150.792 74.2748 150.802 74.352 150.892C74.3547 150.895 74.5864 151.164 75.0006 151.585C78.0934 154.734 82.2372 156.645 86.6671 156.967L88.4183 157.094C88.5364 157.102 88.6245 157.205 88.6163 157.323C88.6081 157.436 88.5146 157.522 88.4029 157.522Z" fill="#263238"/>
<path d="M77.8311 150.788C77.7284 150.788 77.6376 150.714 77.6203 150.609C77.6013 150.493 77.6794 150.382 77.7956 150.362C77.8183 150.359 80.0819 149.968 80.923 148.868C80.9948 148.774 81.1292 148.756 81.2227 148.828C81.3163 148.9 81.3345 149.035 81.2627 149.128C80.318 150.362 77.9664 150.767 77.8665 150.785C77.8547 150.786 77.8429 150.787 77.8311 150.787V150.788Z" fill="#263238"/>
<path d="M79.9138 152.206C79.8148 152.206 79.7258 152.137 79.7049 152.036C79.6803 151.92 79.7548 151.807 79.8702 151.782C79.892 151.777 82.0265 151.315 82.6515 150.255C82.7114 150.153 82.8431 150.119 82.944 150.179C83.0457 150.239 83.0793 150.371 83.0193 150.472C82.2981 151.695 80.0537 152.181 79.9583 152.201C79.9438 152.203 79.9283 152.205 79.9138 152.205V152.206Z" fill="#263238"/>
<path d="M82.1546 153.545C82.0674 153.545 81.9865 153.491 81.9538 153.406C81.9129 153.295 81.9693 153.172 82.0801 153.13C82.0973 153.123 83.8395 152.463 84.3454 151.401C84.3963 151.294 84.5244 151.249 84.6306 151.3C84.7369 151.351 84.7823 151.479 84.7315 151.585C84.151 152.805 82.3072 153.502 82.229 153.531C82.2045 153.54 82.1791 153.545 82.1546 153.545Z" fill="#263238"/>
<path d="M68.4952 133.708C68.329 133.708 65.9583 133.473 64.5876 133.335C64.0554 133.281 63.5803 133.668 63.5231 134.202L63.2542 136.69C63.1588 137.569 62.9826 138.438 62.7356 139.287C62.2859 140.829 61.6229 143.485 61.9862 144.696C62.374 145.993 63.5876 147.799 64.3887 148.826C64.7584 149.3 65.3824 149.489 65.9519 149.298C66.9702 148.955 68.597 148.297 69.5516 147.341C71.0176 145.872 69.4344 143.052 69.4344 143.052L68.4961 133.709L68.4952 133.708Z" fill="white"/>
<path d="M65.5033 149.584C65.011 149.584 64.5332 149.36 64.2198 148.957C63.3351 147.822 62.1652 146.041 61.781 144.757C61.4195 143.549 61.989 141.083 62.5303 139.226C62.7783 138.377 62.95 137.516 63.0417 136.666L63.3115 134.178C63.3814 133.531 63.9664 133.057 64.6104 133.121C66.9239 133.353 68.3763 133.493 68.4962 133.494C68.6052 133.494 68.6979 133.577 68.7088 133.687L69.6425 142.985C69.8432 143.359 71.1848 146.006 69.7025 147.491C68.746 148.449 67.1719 149.112 66.0201 149.5C65.8512 149.557 65.6768 149.584 65.5042 149.584H65.5033ZM64.4905 133.545C64.1081 133.545 63.7775 133.836 63.7357 134.224L63.4659 136.712C63.3714 137.587 63.1943 138.473 62.9391 139.347C62.5094 140.821 61.84 143.469 62.1888 144.635C62.5322 145.784 63.6249 147.502 64.555 148.695C64.8675 149.096 65.4006 149.257 65.8821 149.095C66.7895 148.79 68.4535 148.136 69.3982 147.19C70.7316 145.854 69.261 143.184 69.2456 143.157C69.231 143.131 69.222 143.102 69.2192 143.073L68.2991 133.91C67.834 133.872 66.5824 133.751 64.565 133.549C64.5396 133.546 64.5141 133.545 64.4896 133.545L64.4905 133.545Z" fill="#263238"/>
<path d="M66.5914 149.174C66.5242 149.174 66.4588 149.143 66.417 149.084C63.514 144.992 63.7111 143.921 64.1417 141.572C64.2298 141.091 64.3297 140.546 64.4124 139.909C64.6313 138.212 65.2862 133.548 65.2925 133.502C65.3089 133.384 65.4188 133.303 65.5341 133.32C65.6513 133.336 65.7322 133.444 65.7158 133.562C65.7094 133.608 65.0545 138.27 64.8365 139.964C64.753 140.612 64.6522 141.164 64.5622 141.65C64.1535 143.876 63.9673 144.892 66.7658 148.836C66.8339 148.933 66.8112 149.066 66.7159 149.135C66.6786 149.161 66.635 149.174 66.5923 149.174H66.5914Z" fill="#263238"/>
<path d="M66.198 142.047C66.0936 142.047 66.0028 141.971 65.9864 141.864C65.9691 141.747 66.05 141.639 66.1672 141.621L68.8394 141.227C68.9548 141.21 69.0647 141.291 69.082 141.408C69.0992 141.526 69.0184 141.634 68.9012 141.651L66.2289 142.045C66.218 142.047 66.208 142.048 66.1971 142.048L66.198 142.047Z" fill="#263238"/>
<path d="M66.4733 143.976C66.3688 143.976 66.278 143.9 66.2616 143.794C66.2444 143.676 66.3252 143.568 66.4424 143.551L69.1147 143.157C69.23 143.139 69.34 143.22 69.3572 143.338C69.3745 143.455 69.2936 143.563 69.1765 143.581L66.5042 143.975C66.4933 143.976 66.4833 143.977 66.4724 143.977L66.4733 143.976Z" fill="#263238"/>
<path d="M69.379 144.855C70.9368 145.931 74.2349 147.318 79.7766 145.652L77.2333 89.345L66.794 87.3474C66.794 87.3474 65.4315 101.347 66.9111 115.434C68.2618 128.294 68.3172 139.255 68.2945 142.737C68.2891 143.579 68.6869 144.378 69.3781 144.856L69.379 144.855Z" fill="#263238"/>
<path d="M67.2635 85.702L92.2469 87.1126L91.3968 114.485C91.2977 117.681 90.3122 120.785 88.5501 123.45C85.7252 127.725 81.2126 134.012 77.6429 136.47C72.0131 140.348 67.2626 85.702 67.2626 85.702H67.2635Z" fill="#263238"/>
<path d="M79.6786 135.53C79.5651 135.53 79.4706 135.441 79.4651 135.326L78.6395 117.588C78.634 117.469 78.7249 117.369 78.8429 117.364C78.9574 117.358 79.0609 117.449 79.0664 117.568L79.8921 135.306C79.8975 135.425 79.8067 135.525 79.6886 135.53C79.685 135.53 79.6822 135.53 79.6786 135.53Z" fill="white"/>
<path d="M55.4492 92.6859C55.2921 92.6596 55.1367 92.7442 55.0741 92.8907C54.7852 93.566 53.9704 95.2405 52.7042 95.8666C51.8041 96.3107 50.9957 96.5937 49.8993 97.6348C48.8039 98.6759 46.9228 101.372 47.3333 102.037C47.8211 102.826 49.3825 102.021 50.5833 101.288C51.7832 100.554 52.9767 98.7933 54.1448 98.6159C55.3129 98.4384 52.8423 101.255 53.1947 101.699C53.5481 102.143 54.807 101.483 55.6145 100.151C55.9333 99.6251 57.839 94.9884 58.414 93.5842C58.4984 93.3785 58.3695 93.1483 58.1505 93.1118L55.4492 92.6859Z" fill="white"/>
<path d="M47.9955 102.581C47.6376 102.581 47.3424 102.456 47.1526 102.15C46.6003 101.255 48.8929 98.2964 49.7531 97.4792C50.6978 96.5819 51.4544 96.2242 52.1865 95.8784C52.3264 95.812 52.4672 95.7455 52.6107 95.6745C53.8024 95.0857 54.5936 93.4731 54.8788 92.807C54.9805 92.5694 55.2285 92.4329 55.4846 92.4748L58.1851 92.9007C58.3567 92.9298 58.5012 93.0317 58.5847 93.1819C58.6674 93.3311 58.6783 93.5077 58.6129 93.666C57.8726 95.4752 56.1159 99.7398 55.7989 100.263C55.1177 101.387 54.1685 102.013 53.5844 102.05C53.2829 102.07 53.1157 101.943 53.0294 101.834C52.7969 101.541 53.0848 101.018 53.6153 100.12C53.8569 99.7106 54.2539 99.0381 54.2511 98.8233C54.2357 98.8233 54.2121 98.8233 54.1785 98.8288C53.5426 98.9253 52.8414 99.5951 52.1638 100.242C51.6878 100.697 51.1946 101.168 50.6969 101.472C49.7876 102.027 48.7531 102.582 47.9964 102.582L47.9955 102.581ZM55.392 92.8952C55.3402 92.8952 55.2921 92.9262 55.2712 92.9753C54.9678 93.6852 54.1194 95.407 52.7996 96.0586C52.6543 96.1305 52.5108 96.1978 52.3691 96.2652C51.6352 96.6119 50.943 96.9395 50.0474 97.7895C48.8584 98.9189 47.2253 101.453 47.5159 101.924C47.8102 102.4 48.8048 102.124 50.4725 101.105C50.9312 100.825 51.4072 100.37 51.8677 99.9309C52.5934 99.2374 53.3446 98.5212 54.1131 98.4038C54.4019 98.3601 54.5409 98.4666 54.6063 98.564C54.8206 98.8816 54.5245 99.4176 53.9823 100.336C53.7479 100.734 53.3582 101.392 53.3737 101.577C53.41 101.612 53.4718 101.627 53.5563 101.622C54.025 101.592 54.8552 100.992 55.4329 100.04C55.679 99.6342 57.0324 96.3971 58.2169 93.5031C58.2378 93.4522 58.2214 93.4103 58.2105 93.3894C58.1987 93.3685 58.1714 93.3321 58.116 93.323L55.4165 92.8971C55.4165 92.8971 55.4156 92.8971 55.4147 92.8971C55.4074 92.8961 55.4002 92.8952 55.3929 92.8952H55.392Z" fill="#263238"/>
<path d="M114.02 28.5806L113.294 28.9191C111.661 29.6826 110.507 31.2015 110.209 32.9825L109.661 36.2587L112.333 36.8894C112.333 36.8894 115.22 34.4987 115.519 31.0768C115.76 30.8739 115.983 30.468 116.289 30.5363C117.671 30.8448 117.798 30.3843 117.487 29.7518C116.86 28.4805 115.302 27.9808 114.02 28.5796V28.5806Z" fill="white"/>
<path d="M112.334 37.1042C112.317 37.1042 112.301 37.1024 112.285 37.0987L109.612 36.4681C109.503 36.4426 109.432 36.3352 109.451 36.2242L109.999 32.948C110.309 31.0978 111.507 29.5189 113.205 28.7262L113.93 28.3877C115.329 27.7333 117.012 28.3039 117.679 29.659C117.879 30.064 117.895 30.3789 117.725 30.5955C117.505 30.8758 117.034 30.924 116.243 30.7474C116.144 30.7256 116.004 30.8812 115.88 31.0177C115.83 31.0732 115.779 31.1297 115.725 31.1815C115.384 34.607 112.59 36.9577 112.47 37.0569C112.431 37.0887 112.383 37.106 112.334 37.106V37.1042ZM109.905 36.0968L112.276 36.6564C112.734 36.246 115.046 34.0355 115.307 31.0587C115.311 31.0023 115.339 30.9504 115.382 30.914C115.439 30.8657 115.499 30.7993 115.563 30.7292C115.755 30.5172 115.995 30.2533 116.336 30.3288C117.189 30.519 117.362 30.3634 117.389 30.3297C117.444 30.2587 117.409 30.0785 117.296 29.8483C116.73 28.7007 115.301 28.2193 114.11 28.7763L113.386 29.1148C111.816 29.8483 110.708 31.308 110.422 33.0189L109.906 36.0977L109.905 36.0968Z" fill="#263238"/>
<path d="M111.906 33.9981C111.87 33.9981 111.833 33.989 111.8 33.9699C111.697 33.9108 111.662 33.7806 111.721 33.6778L112.08 33.0517C112.793 31.8049 114.072 30.9868 115.502 30.8648C115.618 30.8539 115.723 30.9422 115.734 31.0596C115.744 31.1779 115.656 31.2807 115.538 31.2916C114.249 31.4017 113.094 32.1398 112.45 33.2646L112.091 33.8907C112.051 33.9599 111.98 33.9981 111.906 33.9981Z" fill="#263238"/>
<path d="M80.1184 45.7834C82.3456 45.2792 84.63 45.0818 86.9099 45.2064C89.5177 45.3484 92.8158 45.7525 94.9749 46.8336C99.0215 48.8612 100.957 51.3284 103.332 50.3592C105.326 49.5456 107.931 39.5204 108.717 36.3188C108.851 35.7728 109.39 35.4306 109.94 35.5407L112.436 36.0413C112.959 36.1459 113.32 36.6255 113.277 37.157C112.922 41.4115 111.248 58.8172 107.467 60.054C103.156 61.4646 92.3362 55.8232 92.3362 55.8232C92.3362 55.8232 92.4243 77.2413 95.2392 88.5224C95.2392 88.5224 90.7966 88.4987 87.9081 89.6973C72.5084 96.0886 66.0076 88.5224 66.0076 88.5224C66.1048 84.1423 67.0649 81.1391 70.2149 76.253C71.9371 73.582 72.4312 69.2665 69.0241 65.3715C69.0241 65.3715 60.7248 91.0578 59.1779 94.0837C59.0716 94.2912 53.9614 93.1537 53.9514 93.0335C53.1239 83.8229 59.4304 66.6392 60.3469 62.472C60.6249 61.2089 60.9945 59.9675 61.4932 58.7736C63.0483 55.0496 66.5244 48.944 73.0126 47.3906L80.1202 45.7825L80.1184 45.7834Z" fill="#E8F2F8"/>
<path d="M59.0525 94.324C58.8 94.324 58.3186 94.2567 57.3594 94.0701C56.6364 93.93 55.7771 93.7434 55.0605 93.5732C53.7552 93.262 53.7525 93.2265 53.7361 93.0536C53.1003 85.9697 56.6428 74.2482 58.7601 67.2444C59.4095 65.0966 59.9218 63.3994 60.1362 62.4265C60.4377 61.0587 60.8156 59.8365 61.2943 58.6917C62.8039 55.0751 66.3264 48.7711 72.9608 47.1822L80.0702 45.5732C82.3274 45.0627 84.6318 44.8661 86.9208 44.9908C89.405 45.1255 92.8358 45.5213 95.0693 46.6407C96.4019 47.3087 97.5 48.0185 98.4692 48.6456C100.448 49.9251 101.755 50.7705 103.251 50.1599C104.764 49.542 106.959 42.5782 108.509 36.2661C108.671 35.6081 109.318 35.1958 109.982 35.3296L112.478 35.8301C113.108 35.9566 113.542 36.5345 113.489 37.1743C113.065 42.2706 111.382 58.9984 107.532 60.2579C107.031 60.4217 106.447 60.4945 105.807 60.4945C101.362 60.4945 94.1692 56.9917 92.5515 56.1745C92.5796 59.0047 92.8658 78.1323 95.4454 88.4705C95.4617 88.5352 95.4472 88.6025 95.4063 88.6544C95.3655 88.7062 95.3001 88.7372 95.2374 88.7363C95.1947 88.7363 90.8048 88.7263 87.9899 89.8948C79.9757 93.221 74.3923 92.7187 71.1196 91.7112C67.5517 90.6128 65.9131 88.7408 65.845 88.6616C65.8105 88.6216 65.7923 88.5697 65.7932 88.517C65.894 83.9676 66.925 80.9589 70.0351 76.1356C71.5856 73.7313 72.2387 69.6187 69.1086 65.801C68.0504 69.069 60.8219 91.3345 59.3677 94.1802C59.3268 94.2603 59.2951 94.3222 59.0525 94.3222V94.324ZM54.1521 92.8943C54.8243 93.1273 58.3931 93.8936 59.0307 93.8972C60.6603 90.5373 68.7371 65.5599 68.8197 65.306C68.8433 65.2322 68.9042 65.1776 68.9796 65.1622C69.055 65.1467 69.1331 65.1731 69.1831 65.2304C72.7491 69.3075 72.0633 73.7795 70.3929 76.3695C67.3528 81.0854 66.3318 84.0322 66.2219 88.4414C66.5298 88.7654 68.1603 90.3598 71.2749 91.3117C74.4768 92.29 79.9476 92.7696 87.8255 89.4998C90.3406 88.456 93.9439 88.3258 94.9658 88.3104C92.2399 77.0639 92.1218 56.037 92.1209 55.8241C92.1209 55.7495 92.1591 55.6794 92.2236 55.6402C92.2871 55.6011 92.3671 55.5984 92.4334 55.633C92.5406 55.6885 103.223 61.2162 107.399 59.8502C110.259 58.9146 112.199 47.5043 113.062 37.1388C113.098 36.7156 112.81 36.3343 112.394 36.2506L109.898 35.7501C109.458 35.6618 109.03 35.9339 108.924 36.3689C107.945 40.3577 105.447 49.7258 103.412 50.5567C101.71 51.252 100.254 50.3091 98.2376 49.0059C97.2775 48.3853 96.1902 47.6818 94.8786 47.0247C92.7104 45.939 89.3424 45.5523 86.8981 45.4194C84.6482 45.2975 82.3837 45.4895 80.1656 45.9918L73.058 47.5999C66.6107 49.1443 63.1672 55.3154 61.6894 58.8573C61.2216 59.9785 60.8501 61.1761 60.5549 62.5194C60.3369 63.5086 59.8219 65.2122 59.1706 67.3691C57.0751 74.3028 53.5753 85.8814 54.153 92.8943H54.1521Z" fill="#263238"/>
<path d="M80.5371 90.3825C80.5054 90.3825 80.4736 90.3753 80.4436 90.3607C80.3373 90.3088 80.2937 90.1805 80.3455 90.074L86.4449 77.6172C86.4966 77.5107 86.6247 77.467 86.731 77.5189C86.8373 77.5708 86.8809 77.6991 86.8291 77.8056L80.7297 90.2624C80.6925 90.338 80.6162 90.3825 80.5371 90.3825Z" fill="#263238"/>
<path d="M87.2496 82.4032C87.2224 82.4032 87.1951 82.3977 87.1679 82.3868C87.0589 82.3413 87.0071 82.2166 87.0516 82.1074L88.7229 78.0531C88.7683 77.9439 88.8928 77.892 89.0018 77.9366C89.1108 77.9821 89.1625 78.1068 89.118 78.216L87.4467 82.2703C87.4131 82.3531 87.3332 82.4032 87.2487 82.4032H87.2496Z" fill="#263238"/>
<path d="M75.1626 40.1792L74.3624 46.2966L71.3486 47.9101C71.3486 47.9101 72.5021 50.4246 76.4924 50.6958C80.4817 50.967 82.3683 47.385 82.5927 45.9107L80.1193 45.7824L79.2746 40.3594L75.1626 40.1792Z" fill="white"/>
<path d="M76.921 50.9261C76.7757 50.9261 76.6286 50.9215 76.4778 50.9106C72.4085 50.6339 71.2041 48.1076 71.1541 48.0002C71.1069 47.8974 71.1477 47.7755 71.2477 47.7218L74.1643 46.1601L74.95 40.1519C74.9645 40.0418 75.0553 39.9599 75.1716 39.9653L79.2836 40.1455C79.3853 40.1501 79.4698 40.2256 79.4852 40.3266L80.3027 45.5786L82.6035 45.6978C82.6635 45.7005 82.7198 45.7296 82.7579 45.7761C82.7961 45.8234 82.8124 45.8834 82.8033 45.9435C82.5944 47.3186 80.8196 50.9252 76.921 50.9261ZM71.6428 47.9966C71.9916 48.5545 73.315 50.2663 76.5068 50.4838C80.2001 50.735 81.9831 47.5752 82.3346 46.1128L80.1074 45.9972C80.0066 45.9917 79.923 45.9162 79.9076 45.8161L79.0901 40.566L75.3496 40.4022L74.5748 46.3248C74.5658 46.3931 74.524 46.4531 74.4631 46.4859L71.6428 47.9966Z" fill="#263238"/>
<path d="M81.3473 35.5507C81.1874 35.5106 81.0157 35.567 80.8559 35.6935C80.8531 35.6589 80.8504 35.6235 80.8468 35.5898V31.894C76.6821 34.9245 75.9091 32.987 73.2777 33.8543C73.2777 33.8543 73.2496 35.5716 73.2414 35.6917C73.0824 35.5661 72.9117 35.5106 72.7527 35.5507C72.3476 35.6526 72.1668 36.3269 72.3494 37.0577C72.5265 37.7639 73.2405 38.5502 73.6547 38.5102C74.2905 40.374 75.5712 41.9793 77.05 41.9793C78.5287 41.9793 79.8086 40.374 80.4453 38.5102C80.8586 38.5511 81.5734 37.7648 81.7506 37.0577C81.9331 36.3269 81.7533 35.6517 81.3473 35.5507Z" fill="white"/>
<path d="M77.05 42.1941C75.3514 42.1941 74.0898 40.3485 73.4994 38.7122C72.958 38.5966 72.3122 37.7867 72.1432 37.1105C72.046 36.7219 72.0397 36.3324 72.1251 36.013C72.2222 35.6499 72.4266 35.4114 72.7018 35.3432C72.8118 35.3159 72.9253 35.3177 73.0379 35.3477C73.0461 34.9619 73.057 34.3212 73.0652 33.8507C73.067 33.7597 73.126 33.6796 73.2123 33.6505C74.2015 33.3247 74.9445 33.3793 75.663 33.4311C76.9283 33.524 78.1236 33.6113 80.7232 31.7202C80.7886 31.6729 80.8749 31.6665 80.9458 31.7029C81.0175 31.7393 81.062 31.8131 81.062 31.8941V35.3486C81.1756 35.3177 81.29 35.3159 81.3999 35.3441C81.9277 35.4769 82.1729 36.2532 81.9586 37.1114C81.7896 37.7876 81.1429 38.5975 80.6015 38.7131C80.0111 40.3494 78.7495 42.195 77.0509 42.195L77.05 42.1941ZM73.6547 38.2963C73.7455 38.2963 73.8273 38.3536 73.8572 38.441C74.4222 40.0955 75.6276 41.7654 77.05 41.7654C78.4724 41.7654 79.6778 40.0955 80.2427 38.441C80.2745 38.3473 80.3663 38.2863 80.4662 38.2972C80.7223 38.3218 81.3772 37.6684 81.5425 37.0058C81.7024 36.3679 81.5435 35.821 81.2946 35.7582C81.1838 35.7299 81.0666 35.7991 80.9885 35.861C80.9267 35.9101 80.8431 35.9211 80.7705 35.8892C80.6978 35.8574 80.6488 35.7891 80.6424 35.7099L80.6333 35.6107C80.6333 35.6034 80.6324 35.5962 80.6324 35.588V32.3072C78.1327 34.0409 76.8611 33.9481 75.6294 33.858C74.959 33.8088 74.325 33.7624 73.4885 34.0108C73.4812 34.4522 73.4612 35.6007 73.4548 35.7054C73.4494 35.7845 73.4003 35.8546 73.3286 35.8865C73.2568 35.9183 73.1724 35.9083 73.1097 35.8592C73.0316 35.7973 72.9153 35.7299 72.8054 35.7582C72.69 35.7873 72.5919 35.9201 72.5383 36.124C72.472 36.3706 72.4793 36.6919 72.5583 37.0058C72.7236 37.6684 73.3767 38.3218 73.6347 38.2972C73.642 38.2972 73.6492 38.2963 73.6556 38.2963H73.6547Z" fill="#263238"/>
<path d="M27.7263 94.2986L35.1491 96.2251C41.8598 97.967 49.2372 95.792 56.0678 94.6052L60.7293 93.7953L60.1961 85.694L32.6521 86.7624L27.7263 94.2976V94.2986Z" fill="white"/>
<path d="M40.6444 97.0915C38.7641 97.0915 36.9075 96.904 35.0954 96.4326L27.6726 94.506C27.6063 94.4887 27.5518 94.4405 27.5273 94.3759C27.5028 94.3113 27.51 94.2394 27.5482 94.1811L32.474 86.6459C32.5122 86.5876 32.5757 86.5521 32.6448 86.5494L60.1888 85.481C60.3041 85.4765 60.4031 85.5656 60.4104 85.6812L60.9436 93.7825C60.9508 93.8917 60.8745 93.9891 60.7664 94.0073L56.1049 94.8173C54.8187 95.0402 53.4835 95.3051 52.1928 95.5608C48.3706 96.318 44.4611 97.0924 40.6453 97.0924L40.6444 97.0915ZM28.0677 94.1666L35.2026 96.0185C40.5999 97.42 46.4513 96.2606 52.1092 95.1403C53.4027 94.8846 54.7397 94.6198 56.0304 94.395L60.5021 93.6178L59.9953 85.9169L32.7692 86.9726L28.0668 94.1657L28.0677 94.1666Z" fill="#263238"/>
<path d="M37.9695 148.988L38.7216 154.351L42.3685 154.651L42.146 148.269L37.9695 148.988Z" fill="white"/>
<path d="M42.3685 154.865C42.363 154.865 42.3566 154.865 42.3512 154.865L38.7043 154.565C38.6044 154.557 38.5235 154.481 38.5099 154.381L37.7578 149.018C37.7415 148.904 37.8196 148.797 37.9331 148.777L42.1096 148.057C42.1704 148.047 42.2331 148.063 42.2803 148.102C42.3285 148.141 42.3566 148.198 42.3594 148.26L42.5819 154.643C42.5837 154.704 42.5601 154.763 42.5156 154.805C42.4756 154.843 42.423 154.864 42.3675 154.864L42.3685 154.865ZM38.9087 154.152L42.1459 154.418L41.9397 148.522L38.2092 149.165L38.9087 154.152Z" fill="#263238"/>
<path d="M42.5274 164.229C41.0078 164.4 38.5217 164.519 35.6196 164.035C34.6668 163.876 34.0546 162.933 34.3116 162C35.0256 159.405 36.2681 154.476 38.231 152.23L38.6679 153.49L39.3519 152.334C39.4455 152.175 39.6089 152.072 39.7915 152.053L40.8098 152.007C41.1086 151.978 41.3802 152.183 41.4338 152.479L41.6309 153.567L42.7754 152.071L43.0706 156.27C43.1641 157.605 43.3294 158.933 43.5638 160.25L43.9544 162.445C44.0461 163.332 43.4112 164.13 42.5274 164.229Z" fill="#263238"/>
<path d="M39.7952 164.593C38.5589 164.593 37.1301 164.504 35.5842 164.246C35.0664 164.16 34.6086 163.858 34.3271 163.416C34.0482 162.98 33.9674 162.443 34.1054 161.943L34.2589 161.382C34.9883 158.702 36.2091 154.218 38.0693 152.089C38.1193 152.032 38.1965 152.005 38.271 152.02C38.3455 152.034 38.4072 152.088 38.4318 152.16L38.7179 152.984L39.1666 152.225C39.2947 152.009 39.5199 151.865 39.7688 151.84L40.7979 151.793C41.1931 151.754 41.5691 152.038 41.6427 152.441L41.7535 153.053L42.6046 151.941C42.6591 151.87 42.7508 151.84 42.8353 151.866C42.9207 151.891 42.9806 151.967 42.987 152.056L43.2822 156.255C43.3749 157.577 43.5402 158.909 43.7727 160.214L44.1633 162.409C44.2696 163.425 43.5447 164.331 42.5501 164.443C41.8134 164.526 40.8779 164.594 39.7942 164.594L39.7952 164.593ZM38.1538 152.66C36.4889 154.818 35.3589 158.969 34.6713 161.493L34.5178 162.057C34.4106 162.445 34.4715 162.846 34.6877 163.185C34.9038 163.525 35.2563 163.757 35.655 163.823C38.5062 164.299 40.9533 164.191 42.5038 164.015C43.2659 163.93 43.8217 163.234 43.7418 162.466L43.3531 160.287C43.1187 158.967 42.9516 157.62 42.8571 156.283L42.601 152.649L41.7998 153.696C41.748 153.763 41.6618 153.793 41.58 153.774C41.4974 153.754 41.4347 153.688 41.4201 153.604L41.223 152.517C41.1894 152.332 41.0178 152.202 40.8297 152.22L39.8006 152.267C39.6971 152.278 39.5944 152.344 39.5354 152.443L38.8514 153.599C38.8087 153.671 38.7279 153.711 38.6461 153.702C38.5635 153.694 38.4926 153.639 38.4654 153.56L38.1538 152.661V152.66Z" fill="#263238"/>
<path d="M38.8179 162.836C37.7233 162.836 36.5062 162.731 35.299 162.42C35.1846 162.391 35.1155 162.273 35.1455 162.159C35.1746 162.044 35.2908 161.975 35.4062 162.005C38.9405 162.916 42.6973 161.975 42.7345 161.966C42.8481 161.937 42.9653 162.006 42.9943 162.12C43.0234 162.235 42.9544 162.352 42.8399 162.381C42.7345 162.408 41.0269 162.836 38.8179 162.836Z" fill="#263238"/>
<path d="M37.6025 158.802C37.4853 158.802 37.389 158.707 37.389 158.589C37.389 158.471 37.4835 158.375 37.6016 158.374L41.0105 158.356H41.0114C41.1286 158.356 41.2249 158.451 41.2249 158.569C41.2249 158.687 41.1304 158.783 41.0123 158.784L37.6034 158.802H37.6025Z" fill="#263238"/>
<path d="M54.8833 145.527L55.7017 153.362L60.0725 153.208L60.0017 145.346L54.8833 145.527Z" fill="white"/>
<path d="M55.7017 153.576C55.5927 153.576 55.501 153.493 55.4891 153.384L54.6707 145.548C54.6644 145.489 54.6835 145.43 54.7225 145.385C54.7616 145.341 54.817 145.314 54.876 145.312L59.9944 145.132C60.0526 145.132 60.108 145.152 60.1497 145.192C60.1915 145.232 60.2151 145.286 60.2161 145.344L60.2869 153.206C60.2878 153.323 60.1961 153.419 60.0807 153.422L55.7099 153.575C55.7099 153.575 55.7044 153.575 55.7026 153.575L55.7017 153.576ZM55.1195 145.732L55.8933 153.141L59.8564 153.002L59.7891 145.568L55.1185 145.732H55.1195Z" fill="#263238"/>
<path d="M54.7152 157.836C54.7298 158.579 55.2593 159.214 55.9878 159.357C58.5211 159.854 64.2272 160.96 65.8504 161.145C67.9568 161.384 71.0096 160.534 71.5746 159.384C72.3031 157.898 68.9496 155.311 67.2101 154.303C64.626 152.807 62.0872 149.759 61.0635 149.655C60.0398 149.549 58.2414 152.577 58.2414 152.577L55.0877 151.377C55.0877 151.377 54.6389 154.065 54.7152 157.835V157.836Z" fill="#263238"/>
<path d="M66.5843 161.399C66.3209 161.399 66.0656 161.386 65.8258 161.359C64.1854 161.172 58.3703 160.045 55.946 159.568C55.1249 159.407 54.5172 158.681 54.5009 157.841C54.4255 154.093 54.8715 151.37 54.876 151.343C54.8869 151.279 54.925 151.224 54.9805 151.193C55.0359 151.161 55.1031 151.155 55.163 151.178L58.1505 152.314C58.6119 151.56 60.0662 149.338 61.0844 149.442C61.6657 149.502 62.5195 150.258 63.7003 151.305C64.7994 152.278 66.0456 153.383 67.3155 154.118C68.7461 154.947 72.6328 157.709 71.7644 159.479C71.2085 160.613 68.6226 161.399 66.5825 161.399H66.5843ZM55.2593 151.673C55.153 152.432 54.8669 154.789 54.9287 157.832C54.9414 158.471 55.4037 159.025 56.0287 159.147C58.4475 159.622 64.2499 160.748 65.874 160.933C67.9549 161.169 70.8897 160.294 71.382 159.29C72.0088 158.012 68.9041 155.533 67.1029 154.49C65.7959 153.733 64.5324 152.613 63.4179 151.626C62.4242 150.746 61.4859 149.914 61.0417 149.868C60.3895 149.799 59.0942 151.562 58.4257 152.687C58.373 152.776 58.2631 152.814 58.1659 152.778L55.2602 151.673H55.2593Z" fill="#263238"/>
<path d="M66.6805 159.453C62.4332 159.453 56.1603 157.836 55.7934 157.74C55.6789 157.71 55.6108 157.594 55.6408 157.479C55.6707 157.365 55.787 157.295 55.9015 157.325C59.324 158.217 68.5208 160.117 69.9577 158.217C70.0286 158.124 70.163 158.104 70.2575 158.176C70.352 158.248 70.3701 158.382 70.2984 158.477C69.7552 159.196 68.3791 159.454 66.6805 159.454V159.453Z" fill="#263238"/>
<path d="M61.8446 155.372C61.7892 155.372 61.7329 155.351 61.6911 155.307C61.6093 155.222 61.6112 155.087 61.6965 155.004L63.8493 152.917C63.9337 152.835 64.0691 152.837 64.1517 152.923C64.2335 153.007 64.2317 153.143 64.1463 153.226L61.9936 155.312C61.9518 155.352 61.8982 155.372 61.8446 155.372Z" fill="#263238"/>
<path d="M35.3525 87.3657C35.3525 87.3657 34.3443 119.563 33.931 128.063C33.5995 134.901 35.3725 145 36.0801 148.691C36.2345 149.496 36.9712 150.054 37.7859 149.982L41.6309 149.645C42.4574 149.572 43.0905 148.877 43.0869 148.046C43.0724 144.828 43.0524 137.04 43.1732 131.93C43.2231 129.816 43.5937 127.723 44.2868 125.726C45.107 123.365 46.2106 119.741 46.6012 116.387C47.2515 110.794 49.8221 101.908 49.8221 101.908C49.8221 101.908 53.1784 139.88 53.9177 147.866C53.984 148.583 54.5981 149.119 55.3156 149.089C56.7344 149.031 58.6792 149.271 60.1288 148.698C60.5712 148.523 60.8891 148.132 60.9663 147.662C61.4795 144.54 63.8966 130.746 63.2053 123.114C62.4187 114.431 61.8229 85.582 61.8229 85.582L35.3516 87.3667L35.3525 87.3657Z" fill="#263238"/>
<path d="M30.9179 88.8563C30.9179 88.8563 41.1665 91.8595 50.3987 92.2536C55.8505 92.4857 59.5047 90.8658 59.5047 90.8658L54.3036 48.6109C54.3036 48.6109 54.0184 45.2983 48.2324 43.7585C45.125 42.9313 42.767 46.5269 42.767 46.5269L30.9179 88.8573V88.8563Z" fill="#E8F2F8"/>
<path d="M51.4552 92.4903C51.1082 92.4903 50.753 92.483 50.3897 92.4675C41.2374 92.0771 30.9607 89.0921 30.858 89.0621C30.7454 89.0293 30.6809 88.9119 30.7118 88.7991L42.5609 46.4687C42.5672 46.4478 42.5763 46.4278 42.5881 46.4086C42.688 46.2567 45.0669 42.6947 48.2869 43.5511C54.1511 45.1118 54.5044 48.4508 54.5162 48.5919L59.7164 90.8394C59.7282 90.9332 59.6764 91.0232 59.591 91.0615C59.5565 91.0769 56.3083 92.4893 51.4552 92.4893V92.4903ZM31.1814 88.709C32.6692 89.1285 42.0186 91.6812 50.4079 92.0389C55.1411 92.2409 58.5437 91.0178 59.2722 90.7293L54.0911 48.6365C54.0875 48.5982 53.7278 45.4422 48.177 43.9651C45.3921 43.2234 43.1831 46.2994 42.9633 46.618L31.1814 88.709Z" fill="#263238"/>
<path d="M35.9955 60.0886C33.9418 58.8027 28.896 60.5236 24.8903 59.5098C20.8846 58.496 12.7261 56.0552 12.8042 48.2651C12.8768 41.0475 20.5231 43.6348 22.3942 47.8374C23.0491 49.3081 31.0242 47.4843 33.0888 46.5324C36.5886 44.9189 39.9194 45.7461 39.9194 45.7461L35.9955 60.0895V60.0886Z" fill="white"/>
<path d="M35.9956 60.3025C35.9556 60.3025 35.9165 60.2916 35.882 60.2697C34.8892 59.6482 33.1053 59.7747 31.0407 59.9212C29.0641 60.0613 26.8251 60.2197 24.8377 59.7173C21.7876 58.9456 12.5063 56.5967 12.5899 48.2634C12.6253 44.726 14.4311 43.8232 15.5038 43.6002C18.0126 43.0779 21.3897 45.0563 22.5887 47.7501C22.6341 47.852 22.7504 47.9394 22.9348 48.0085C24.7551 48.6947 31.2232 47.1558 32.999 46.3368C36.526 44.7105 39.8314 45.5022 39.9704 45.5368C40.0258 45.5505 40.0739 45.5869 40.103 45.636C40.1321 45.6861 40.1402 45.7452 40.1248 45.8007L36.2008 60.1432C36.1827 60.2088 36.1354 60.2615 36.0728 60.2861C36.0473 60.2961 36.021 60.3007 35.9946 60.3007L35.9956 60.3025ZM33.4586 59.3733C34.4087 59.3733 35.2298 59.468 35.8611 59.771L39.6534 45.91C38.8695 45.7671 36.0664 45.3958 33.1788 46.7272C31.3068 47.5908 24.7314 49.1443 22.7849 48.4108C22.4897 48.2998 22.2926 48.1359 22.199 47.9257C21.0936 45.4422 17.8827 43.5447 15.5919 44.0207C13.9333 44.3656 13.0432 45.8344 13.0186 48.2688C12.9387 56.2655 21.9747 58.5515 24.9431 59.3033C26.8633 59.7892 29.0669 59.6327 31.0116 59.4953C31.8863 59.4334 32.712 59.3742 33.4586 59.3742V59.3733Z" fill="#263238"/>
<path d="M46.9289 41.6536C51.7721 42.1395 54.3618 45.2902 56.9541 49.0141C56.9541 49.0141 71.5445 52.7817 70.1657 67.3918C69.7451 71.8529 68.4635 77.7701 64.9201 76.385C61.3767 74.9999 60.3203 73.7513 60.3203 73.7513C60.3203 73.7513 61.6211 77.8483 61.8799 81.2256C61.988 82.6334 62.0207 83.8447 62.0225 84.7802C62.0253 86.3191 62.2251 87.8499 62.6111 89.3387L63.1034 91.2353C63.4504 92.5703 63.0644 94.0037 62.058 94.9447C60.5474 96.3589 58.4165 97.5192 55.0403 97.3609C55.0403 97.3609 55.3146 90.5254 54.5507 86.6686C54.1874 84.8348 53.1491 76.9829 52.8903 69.4494C52.715 64.3677 55.8142 53.1094 53.1064 49.3345C52.4679 48.4444 43.669 45.1364 43.1876 46.1402C41.8532 48.9204 42.123 50.9735 41.9304 52.3631C40.6543 61.5693 40.3518 62.6322 37.1136 70.506C33.5257 79.2325 34.2806 81.4422 32.6038 98.1517C32.6038 98.1517 29.2112 95.5244 27.4827 94.3122C27.4827 94.3122 29.7262 71.5271 31.0233 67.5438C32.3195 63.5605 33.0107 58.192 31.6283 56.1999L36.7948 49.2198C36.7948 49.2198 38.0219 40.7599 46.9262 41.6527L46.9289 41.6536Z" fill="#263238"/>
<path d="M32.6066 98.3665C32.5602 98.3665 32.5139 98.351 32.4758 98.3219C32.4422 98.2955 29.0677 95.6845 27.3628 94.4887C27.2992 94.4441 27.2647 94.3695 27.2729 94.2921C27.3646 93.3611 29.5337 71.4379 30.8226 67.4782C32.1188 63.4958 32.781 58.233 31.4557 56.3237C31.403 56.2481 31.4049 56.148 31.4594 56.0734L36.595 49.1342C36.7267 48.3925 38.3281 40.5761 46.9499 41.4397C51.8766 41.9339 54.5616 45.2092 57.085 48.8275C57.6363 48.9841 61.018 50.0133 64.2098 52.556C67.4226 55.1142 71.0995 59.7691 70.3783 67.4118C70.0558 70.8309 69.2392 75.1728 67.1828 76.4414C66.487 76.8709 65.6995 76.9192 64.842 76.5843C62.6421 75.7243 61.3877 74.9161 60.74 74.4129C61.1234 75.7497 61.8991 78.691 62.0925 81.2092C62.1852 82.4205 62.2342 83.6217 62.236 84.7793C62.2388 86.2927 62.435 87.808 62.8183 89.2841L63.3106 91.1807C63.6821 92.6122 63.2588 94.1138 62.2043 95.1012C60.2804 96.9022 57.9342 97.7112 55.0312 97.5747C54.9141 97.5693 54.8232 97.4701 54.8278 97.3517C54.8305 97.2835 55.0921 90.4972 54.3418 86.7105C53.973 84.8494 52.9366 76.9838 52.6769 69.4567C52.6169 67.7203 52.9357 65.2686 53.2736 62.674C53.9313 57.6187 54.6761 51.889 52.9339 49.46C52.4607 48.8011 45.9326 46.2148 43.8107 46.1684C43.4492 46.1602 43.3811 46.2348 43.3802 46.2357C42.3874 48.3052 42.302 49.9396 42.233 51.2537C42.2112 51.6633 42.1912 52.0491 42.143 52.394C40.8714 61.5729 40.5998 62.5931 37.3126 70.5897C34.6194 77.1403 34.3914 79.9178 33.7147 88.1647C33.4995 90.7939 33.2306 94.0655 32.8182 98.1754C32.81 98.2527 32.761 98.32 32.6901 98.351C32.6629 98.3628 32.6347 98.3683 32.6057 98.3683L32.6066 98.3665ZM27.7107 94.2093C29.1377 95.2177 31.5783 97.0896 32.4322 97.7467C32.8227 93.8198 33.0807 90.6728 33.2896 88.1274C33.9709 79.8313 34.1998 77.0366 36.9184 70.4241C40.1865 62.4747 40.4554 61.4609 41.7207 52.3331C41.7661 52.0073 41.7852 51.6469 41.807 51.2292C41.8742 49.9487 41.9659 48.195 42.9969 46.0464C43.1222 45.7843 43.461 45.7552 43.5727 45.7452C45.3921 45.5859 52.6496 48.3279 53.2818 49.2088C55.123 51.7752 54.3663 57.5941 53.6987 62.7287C53.3636 65.3059 53.0475 67.7403 53.1056 69.4412C53.3636 76.9437 54.3954 84.7748 54.7624 86.6267C55.4463 90.0795 55.301 95.9612 55.2629 97.1543C57.9479 97.2371 60.1251 96.4617 61.9136 94.7872C62.8528 93.9072 63.2298 92.5667 62.8982 91.288L62.4059 89.3915C62.0135 87.8808 61.8128 86.3291 61.81 84.7793C61.8082 83.6317 61.7601 82.4414 61.6674 81.241C61.4131 77.9275 60.1306 73.8559 60.1169 73.815C60.0861 73.7176 60.1278 73.612 60.2169 73.5629C60.3059 73.5137 60.4176 73.5338 60.4839 73.612C60.4939 73.6238 61.5657 74.8424 64.9983 76.1847C65.734 76.4723 66.3753 76.4368 66.9593 76.0765C68.9658 74.8379 69.6961 70.0901 69.9532 67.3708C70.5172 61.3881 68.4962 56.5166 63.9437 52.8909C60.5429 50.1826 56.9369 49.2298 56.9006 49.2207C56.8515 49.2079 56.8079 49.1779 56.7789 49.136C54.2065 45.4421 51.6886 42.3452 46.9072 41.8665C43.303 41.5052 40.5444 42.631 38.7069 45.2137C37.328 47.1521 37.011 49.2307 37.0083 49.2516C37.0029 49.2862 36.9892 49.3199 36.9683 49.3481L31.8908 56.2081C33.1988 58.3404 32.5621 63.5131 31.2286 67.6102C30.0033 71.3742 27.8915 92.3865 27.7107 94.2093Z" fill="white"/>
<path d="M24.9666 31.5337C24.9666 31.5337 23.4379 36.4571 22.6132 42.1241C21.9138 46.9291 21.5341 48.1768 20.1416 49.2216C18.7501 50.2663 16.5211 50.6285 14.8497 47.7901C13.1712 44.9398 22.1708 29.3814 22.6858 27.9363C23.4207 25.8741 25.0339 24.4553 27.0004 24.0531C28.6499 23.7154 30.8062 23.9721 31.9262 24.7857C32.4094 25.1369 35.069 27.3575 34.504 28.5496C33.9981 29.6171 32.6238 29.9439 29.2049 28.597C29.2049 28.597 31.8926 30.6337 31.4493 31.2971C30.9852 31.9906 30.3121 31.3827 29.1858 30.6637C27.9532 29.8765 25.7669 29.4251 24.9675 31.5328L24.9666 31.5337Z" fill="white"/>
<path d="M18.0117 50.2063C17.8146 50.2063 17.6102 50.1881 17.4004 50.1453C16.3376 49.9324 15.4175 49.177 14.6654 47.8993C13.4555 45.8453 17.0761 38.3109 21.1699 30.4753C21.8448 29.1831 22.378 28.1629 22.4842 27.8653C23.2327 25.7676 24.9049 24.2642 26.9577 23.8438C28.7535 23.4761 30.9434 23.8074 32.0516 24.6128C32.0852 24.6373 35.4069 27.1436 34.6966 28.6425C34.1417 29.8146 32.7347 30.0067 30.3076 29.2231C31.1378 29.9593 31.9762 30.8931 31.6256 31.4173C31.1079 32.1908 30.3685 31.7012 29.5119 31.1351C29.373 31.0432 29.2249 30.9458 29.0696 30.8457C28.4011 30.4189 27.2993 30.0285 26.3928 30.3297C25.8314 30.5163 25.4199 30.9449 25.1683 31.6038C25.1057 31.8058 23.6242 36.661 22.824 42.1559C22.1291 46.9283 21.7558 48.2779 20.2697 49.3945C19.8338 49.7212 19.0172 50.2072 18.0117 50.2072V50.2063ZM28.5182 24.1204C28.0186 24.1204 27.5173 24.1668 27.0431 24.2633C25.1375 24.6528 23.5842 26.0534 22.8866 28.0091C22.7704 28.3349 22.2844 29.2659 21.5487 30.6737C19.2234 35.1248 13.778 45.5495 15.0342 47.6818C15.7218 48.8503 16.5465 49.5374 17.4848 49.7258C18.6048 49.9496 19.5504 49.3991 20.0145 49.0505C21.3125 48.0758 21.6922 46.9701 22.4025 42.0931C23.2209 36.4744 24.7478 31.5192 24.7632 31.47C24.765 31.4655 24.7659 31.4618 24.7678 31.4573C25.0666 30.6683 25.5689 30.1514 26.2592 29.922C27.3065 29.5744 28.5173 29.9839 29.3003 30.4835C29.4583 30.5846 29.6082 30.6828 29.749 30.7766C30.7409 31.4327 31.0243 31.5483 31.2714 31.1779C31.4448 30.9185 30.3975 29.7701 29.0759 28.7681C28.9906 28.7035 28.966 28.5861 29.0187 28.4923C29.0714 28.3986 29.184 28.3586 29.283 28.3977C33.1025 29.9029 33.9818 29.153 34.3115 28.4578C34.7557 27.5195 32.5957 25.5365 31.8018 24.9586C31.067 24.4244 29.8017 24.1195 28.5191 24.1195L28.5182 24.1204Z" fill="#263238"/>
<path d="M47.9773 38.7414L46.1979 43.2616C43.7944 44.6895 43.2803 46.0464 43.2803 46.0464C45.2986 49.551 48.8138 50.7305 52.9512 49.4245L53.1084 49.3353C53.1084 49.3353 51.3426 47.6254 51.5688 45.4267L54.0112 36.8912L47.9773 38.7423V38.7414Z" fill="white"/>
<path d="M49.822 50.1526C46.9735 50.1526 44.6073 48.7757 43.0959 46.152C43.0641 46.0965 43.0587 46.0291 43.0814 45.969C43.1032 45.9117 43.64 44.5503 46.0261 43.1142L47.7783 38.6622C47.8019 38.6012 47.8519 38.5548 47.9145 38.5357L53.9485 36.6847C54.0239 36.6619 54.1057 36.6819 54.1611 36.7365C54.2174 36.792 54.2383 36.873 54.2165 36.9486L51.7785 45.4658C51.5769 47.528 53.2391 49.1643 53.2555 49.1797C53.3036 49.2271 53.3272 49.2935 53.3191 49.3608C53.3109 49.4282 53.2709 49.4864 53.2128 49.5201L53.0556 49.6093C53.0429 49.6166 53.0284 49.6229 53.0139 49.6275C51.8994 49.9788 50.8293 50.1526 49.8202 50.1526H49.822ZM43.5228 46.0337C45.4475 49.2862 48.7983 50.4584 52.7495 49.2616C52.2709 48.7138 51.1691 47.2322 51.3571 45.403C51.358 45.3903 51.3607 45.3784 51.3644 45.3657L53.6987 37.2098L48.1398 38.9152L46.3986 43.339C46.3813 43.3836 46.3495 43.42 46.3086 43.4446C44.3566 44.604 43.6836 45.7179 43.5228 46.0337Z" fill="#263238"/>
<path d="M46.6575 26.4593C48.4287 26.6522 46.6129 28.4205 53.2083 27.5268C55.9124 27.1601 54.1093 29.9949 54.8124 29.9139C57.4093 29.6154 58.1777 30.5928 58.68 31.1179C59.2613 31.7249 59.7219 33.0208 59.3876 34.0947C58.9471 35.5125 56.9497 35.6309 55.3737 38.5185C54.2674 40.547 54.232 41.8857 53.3136 42.0549C52.3853 42.226 51.9339 40.9465 50.9057 41.0566C49.575 41.1995 49.4596 43.4355 48.0699 44.1381C47.1943 44.5813 45.3331 44.543 42.6581 42.6447C42.2248 42.3371 42.0713 41.7619 42.2957 41.2796C42.5827 40.6607 42.9497 39.8817 43.3621 39.1655C45.3295 35.7555 46.7655 35.1513 46.4522 34.1302C45.9717 32.5658 43.0932 32.9344 42.837 31.673C42.5709 30.3625 44.2313 26.1945 46.6575 26.4584V26.4593Z" fill="#263238"/>
<path d="M51.3616 34.5343C51.0509 34.9356 50.7694 35.3579 50.5168 35.7974C50.0445 36.6219 49.2225 38.0307 48.702 38.7852C48.0571 39.7198 45.244 38.2673 44.3766 37.7868C44.2367 37.7095 44.1922 37.5302 44.2776 37.3946L44.7454 36.571L44.0487 36.2643C43.9678 36.2142 43.897 36.1478 43.8516 36.0641C43.7389 35.8557 43.7789 35.6109 43.9315 35.4507C44.7227 34.6216 46.1097 33.2711 46.9862 31.461C47.0752 31.2763 47.2641 31.1598 47.4685 31.1671C48.1725 31.1898 49.8147 31.3982 51.2226 32.7451C51.7186 33.2192 51.7821 33.9901 51.3625 34.5334L51.3616 34.5343Z" fill="white"/>
<path d="M47.9373 39.3039C46.8736 39.3039 45.2959 38.5403 44.2722 37.9743C44.1541 37.9087 44.0669 37.7968 44.0342 37.6658C44.0006 37.5347 44.0242 37.3936 44.0969 37.2799L44.4411 36.6729L43.9615 36.4617C43.9524 36.4581 43.9443 36.4536 43.9361 36.4481C43.8171 36.3744 43.7226 36.2779 43.6627 36.1678C43.5083 35.8839 43.5537 35.5371 43.7753 35.3042L43.9988 35.0712C44.799 34.2412 46.008 32.9881 46.7919 31.3682C46.9181 31.107 47.1843 30.945 47.474 30.9532C48.1534 30.975 49.8929 31.1789 51.3689 32.5904C51.9475 33.1437 52.0165 34.0355 51.5297 34.6644C51.2263 35.0557 50.9483 35.4725 50.7013 35.903C50.2471 36.6947 49.4069 38.1372 48.8774 38.9053C48.6821 39.1883 48.3478 39.302 47.9373 39.302V39.3039ZM44.1477 36.0759L44.8299 36.3762C44.8853 36.4008 44.928 36.4472 44.9471 36.5045C44.9661 36.5619 44.9598 36.6246 44.9298 36.6774L44.4629 37.501C44.4439 37.5311 44.4466 37.5502 44.4493 37.5602C44.452 37.572 44.4602 37.5884 44.4793 37.5993C46.2015 38.5512 48.1216 39.2502 48.5259 38.6632C49.0472 37.9078 49.8802 36.4772 50.3307 35.6909C50.5877 35.2432 50.8775 34.81 51.1918 34.4032C51.5442 33.9482 51.4933 33.3029 51.0737 32.9016C49.704 31.592 48.0908 31.4037 47.4604 31.3827C47.345 31.3791 47.2297 31.4473 47.177 31.5565C46.3631 33.2374 45.126 34.5206 44.3067 35.3697L44.0851 35.6008C43.9924 35.6982 43.9733 35.8438 44.0387 35.9639C44.0605 36.0049 44.0987 36.044 44.1486 36.0759H44.1477Z" fill="#263238"/>
<path d="M51.19 37.9379C52.865 38.9717 53.8532 37.4128 53.6734 36.3162C53.598 35.8548 53.0221 35.6828 52.6951 36.0158L51.1455 37.5957C51.0465 37.6967 51.0692 37.8632 51.19 37.9379Z" fill="white"/>
<path d="M34.4952 69.6478L33.4379 72.3361C33.1863 73.106 33.5841 73.9187 34.3053 74.1107L35.1392 74.3327C35.8149 74.5129 36.5234 74.0779 36.7396 73.3508L37.9931 69.9162L34.4952 69.6469V69.6478Z" fill="white"/>
<path d="M35.4543 74.5884C35.3317 74.5884 35.2082 74.573 35.0846 74.5393L34.2508 74.3172C33.8638 74.2144 33.5423 73.9569 33.3452 73.5928C33.1299 73.1951 33.09 72.7128 33.2353 72.2687L34.2971 69.5686C34.3316 69.4812 34.4197 69.4266 34.5124 69.4339L38.0103 69.7032C38.0766 69.7087 38.1375 69.7442 38.1738 69.8006C38.2102 69.857 38.2174 69.9271 38.1947 69.9899L36.9412 73.4245C36.7332 74.1261 36.1183 74.5884 35.4552 74.5884H35.4543ZM34.6359 69.8734L33.6359 72.4143C33.5314 72.7347 33.5605 73.0941 33.7203 73.389C33.8611 73.6483 34.0882 73.8313 34.3598 73.9041L35.1936 74.1261C35.7613 74.2772 36.3499 73.9104 36.5343 73.2907L37.6951 70.1091L34.6359 69.8734Z" fill="#263238"/>
<path d="M33.2635 72.4871C33.2635 72.4871 32.1063 73.2242 31.6803 74.2407C31.2552 75.2564 30.4586 77.4096 31.1453 77.7827C31.6539 78.0593 37.4118 78.8911 40.263 79.2925C41.1613 79.419 41.819 78.4416 41.3448 77.6671C40.9851 77.0792 40.2121 76.3967 39.2747 75.7724C37.8678 74.8341 37.2474 74.117 36.9749 73.6574C36.7878 73.3416 36.4044 73.2042 36.0638 73.338L34.1927 74.0751L33.2635 72.488V72.4871Z" fill="white"/>
<path d="M40.4192 79.5182C40.3584 79.5182 40.2966 79.5136 40.2339 79.5054C34.5333 78.7037 31.4405 78.1877 31.0435 77.972C30.4177 77.6316 30.5657 76.3485 31.4831 74.1589C31.9291 73.0932 33.099 72.3388 33.1481 72.3078C33.1971 72.2769 33.2571 72.2669 33.3134 72.2805C33.3697 72.2942 33.4179 72.3306 33.4478 72.3806L34.2844 73.8094L35.9848 73.1387C36.4217 72.9667 36.9158 73.1387 37.1583 73.5482C37.4072 73.9687 37.9976 74.6639 39.3928 75.5949C40.4092 76.272 41.1668 76.9691 41.5265 77.5561C41.7872 77.9811 41.7781 78.5062 41.5028 78.9267C41.2576 79.3016 40.8534 79.5191 40.4174 79.5191L40.4192 79.5182ZM33.1971 72.7965C32.8665 73.0422 32.1744 73.6174 31.8783 74.3245C31.0263 76.3576 30.9481 77.4323 31.2479 77.5962C31.3723 77.6635 32.3924 77.9711 40.293 79.0814C40.6309 79.1287 40.9579 78.9794 41.1459 78.6919C41.3321 78.407 41.3384 78.0666 41.1622 77.78C40.8343 77.2449 40.1222 76.5951 39.1557 75.9508C37.6924 74.9752 37.0621 74.2244 36.7905 73.7666C36.6551 73.5391 36.3826 73.4427 36.141 73.5373L34.2699 74.2744C34.1718 74.3127 34.0601 74.2744 34.0074 74.1834L33.1953 72.7965H33.1971Z" fill="#263238"/>
<path d="M36.0084 76.4859C35.9276 76.4859 35.8495 76.4395 35.8141 76.3603C35.765 76.2529 35.8122 76.1255 35.9194 76.0764L37.4835 75.3593C37.5907 75.3101 37.7179 75.3574 37.7669 75.4648C37.816 75.5722 37.7688 75.6996 37.6616 75.7488L36.0974 76.4659C36.0684 76.4786 36.0384 76.485 36.0084 76.485V76.4859Z" fill="#263238"/>
<path d="M26.0369 72.7693L24.7334 76.6844C24.5618 77.4761 25.0068 78.2405 25.7063 78.3534L26.5138 78.4844C27.1687 78.5909 27.8008 78.0831 27.9425 77.3378L29.3405 73.2325L26.0369 72.7693Z" fill="white"/>
<path d="M26.6899 78.7129C26.62 78.7129 26.55 78.7074 26.4792 78.6956L25.6717 78.5646C25.3075 78.5054 24.9859 78.2952 24.7661 77.9721C24.5099 77.5963 24.4218 77.1094 24.5245 76.638C24.5263 76.6307 24.5281 76.6234 24.5308 76.6161L25.8343 72.7011C25.867 72.6028 25.9642 72.5427 26.0668 72.5564L29.3704 73.0196C29.434 73.0287 29.4894 73.0651 29.523 73.1197C29.5566 73.1743 29.5639 73.2407 29.543 73.3008L28.1496 77.3915C27.9952 78.1687 27.3775 78.7111 26.6899 78.7111V78.7129ZM24.9396 76.7408C24.866 77.0939 24.9314 77.4552 25.1194 77.7319C25.272 77.9566 25.4928 78.1023 25.7398 78.1423L26.5473 78.2733C27.0923 78.3616 27.611 77.933 27.7327 77.2978C27.7345 77.2877 27.7372 77.2786 27.7399 77.2686L29.0543 73.4091L26.1831 73.0059L24.9396 76.7408Z" fill="#263238"/>
<path d="M22.0602 79.4337C21.8095 79.8351 21.8704 80.3574 22.2083 80.6878C23.3837 81.8381 26.0351 84.4199 26.8353 85.0852C27.8735 85.9488 29.4876 86.4503 30.4949 86.1472C31.5023 85.8451 30.5158 83.0621 29.9408 81.9182C29.0861 80.2191 28.7955 77.7101 28.2877 77.2969C27.7799 76.8828 25.7689 77.8666 25.7689 77.8666L24.5073 76.1266C24.5073 76.1266 23.3328 77.4007 22.0611 79.4337H22.0602Z" fill="white"/>
<path d="M29.84 86.4484C28.8399 86.4484 27.5873 85.9907 26.6981 85.2508C25.887 84.5764 23.1838 81.9427 22.0584 80.8416C21.6514 80.4439 21.5761 79.8041 21.8785 79.32C23.1465 77.2933 24.3364 75.9946 24.3483 75.9819C24.3919 75.9345 24.4536 75.9091 24.5181 75.9136C24.5817 75.9172 24.6407 75.95 24.6789 76.0019L25.8361 77.5981C26.4674 77.3033 27.9025 76.7108 28.4212 77.1322C28.7146 77.3715 28.8962 77.9949 29.1914 79.0779C29.4367 79.977 29.7146 80.9954 30.1306 81.8244C30.5021 82.5634 31.4668 84.9022 31.0326 85.9124C30.9363 86.1372 30.771 86.2901 30.5557 86.3547C30.3414 86.4193 30.0988 86.4493 29.84 86.4493V86.4484ZM22.2409 79.5475C22.0447 79.8614 22.0938 80.2764 22.3572 80.5349C23.4781 81.6324 26.1722 84.2561 26.9706 84.9204C27.9743 85.7559 29.5275 86.2136 30.4322 85.9424C30.4912 85.9251 30.5775 85.8842 30.6393 85.7413C30.9345 85.0533 30.3123 83.1358 29.7482 82.0155C29.3122 81.1492 29.0288 80.1081 28.7781 79.1898C28.5692 78.4217 28.3521 77.6282 28.1514 77.4643C27.9107 77.2687 26.7726 77.6145 25.8615 78.0604C25.768 78.1059 25.6562 78.0777 25.5945 77.994L24.49 76.4697C24.1194 76.9001 23.2047 78.0095 22.2409 79.5484V79.5475Z" fill="#263238"/>
<path d="M26.7862 80.7141C26.689 80.7141 26.6 80.6467 26.5782 80.5476C26.5518 80.432 26.6245 80.3173 26.739 80.2909L28.2259 79.9533C28.3421 79.9269 28.4557 79.9997 28.482 80.1153C28.5084 80.2309 28.4357 80.3455 28.3213 80.3719L26.8343 80.7095C26.818 80.7132 26.8025 80.715 26.7871 80.715L26.7862 80.7141Z" fill="#263238"/>
<path d="M38.0984 71.9466C38.325 72.0522 38.3251 72.0521 38.3251 72.052L38.3254 72.0514L38.3263 72.0494L38.3301 72.0413L38.3448 72.0096L38.4018 71.8861C38.4517 71.7777 38.5248 71.6182 38.6176 71.4137C38.8033 71.0048 39.0681 70.4157 39.3849 69.6945C40.0183 68.2524 40.8598 66.2814 41.6917 64.1666C42.5234 62.0525 43.3469 59.791 43.9433 57.7689C44.5364 55.7577 44.9159 53.9482 44.8342 52.7546C44.743 51.423 44.0625 50.0393 43.1256 48.7279C42.1856 47.4121 40.9696 46.1444 39.7711 45.0415C38.5717 43.9376 37.384 42.9936 36.4967 42.3258C36.0529 41.9917 35.6837 41.7264 35.4252 41.5445C35.2959 41.4535 35.1943 41.3833 35.1248 41.3357C35.0901 41.3119 35.0634 41.2938 35.0452 41.2816L35.0381 41.2768L34.9661 41.2047L34.8424 41.2222L25.2432 42.5837L24.783 42.6489L25.0912 42.9969L25.2784 42.8312C25.0912 42.9969 25.0912 42.997 25.0913 42.997L25.0915 42.9973L25.0926 42.9985L25.0967 43.0031L25.113 43.0215L25.1768 43.0937L25.4207 43.3699C25.6315 43.6089 25.9345 43.953 26.303 44.3729C27.0399 45.2127 28.0384 46.3558 29.0852 47.5691C31.1844 50.0021 33.4613 52.6991 34.2255 53.8107C34.8052 54.6541 35.0398 56.0817 35.0356 57.8075C35.0314 59.5194 34.7933 61.4712 34.4756 63.3182C34.1581 65.1637 33.7625 66.8969 33.446 68.1692C33.2878 68.8052 33.1496 69.3256 33.0509 69.6867C33.0016 69.8673 32.9621 70.008 32.9351 70.1034L32.9041 70.2119L32.8962 70.2394L32.8942 70.2462L32.8937 70.2479L32.8936 70.2483L33.1335 70.3185L32.8936 70.2483L32.8666 70.3406L32.9083 70.4271C33.1412 70.9099 33.6119 71.2466 34.136 71.4853C34.6649 71.7263 35.2838 71.8836 35.8657 71.9875C36.4494 72.0917 37.0065 72.1438 37.4168 72.17C37.6223 72.1831 37.7917 72.1898 37.9101 72.1931C37.9693 72.1948 38.0158 72.1957 38.0478 72.1961L38.0846 72.1965L38.0943 72.1966L38.097 72.1966L38.0978 72.1966H38.098C38.0981 72.1966 38.0981 72.1966 38.0984 71.9466ZM38.0984 71.9466L38.325 72.0522L38.2577 72.1968L38.0981 72.1966L38.0984 71.9466Z" fill="#263238" stroke="white" stroke-width="0.5"/>
<path d="M20.9139 41.6493L20.9028 41.8962C20.6724 41.8418 20.6724 41.8419 20.6723 41.8421L20.6722 41.8425L20.672 41.8437L20.6711 41.8475L20.668 41.8612C20.6654 41.8729 20.6618 41.8897 20.6573 41.9115C20.6484 41.955 20.6362 42.018 20.6224 42.0984C20.5949 42.2592 20.5613 42.4899 20.5361 42.7731C20.4856 43.3387 20.4678 44.118 20.6004 44.9705C20.8663 46.6794 21.7416 48.6965 24.1705 49.8453L24.1705 49.8453C24.758 50.1231 25.2344 50.3239 25.6203 50.4861L25.6283 50.4895C26.0141 50.6517 26.2969 50.7706 26.5171 50.8899C26.7345 51.0076 26.8735 51.117 26.9759 51.2505C27.0791 51.385 27.1591 51.5621 27.2287 51.8373C27.5002 52.9127 27.5383 54.485 27.4208 56.3124C27.3037 58.1335 27.0339 60.1844 26.7032 62.2048C26.0418 66.2452 25.1392 70.1473 24.7374 71.8134L24.7374 71.8136C24.5719 72.502 24.8125 73.2378 25.3805 73.6738L25.3806 73.6739C26.1651 74.2752 27.5131 74.8992 29.3586 74.3296C29.9063 74.1609 30.3351 73.7366 30.526 73.2019L30.526 73.2018C31.122 71.53 32.7227 67.0112 34.207 62.5542C34.949 60.3259 35.6626 58.1112 36.207 56.2748C36.7484 54.4486 37.131 52.9698 37.1984 52.2293C37.3767 50.2715 36.2667 48.573 34.8781 47.1931C33.6477 45.9703 32.1583 44.9587 31.0458 44.2031C30.8999 44.104 30.7605 44.0093 30.629 43.9191C30.0221 43.5029 29.1049 43.159 28.0948 42.8753C27.0785 42.5898 25.9439 42.3589 24.8856 42.1779C23.8265 41.9967 22.8398 41.8649 22.118 41.7784C21.7571 41.7351 21.4621 41.7031 21.2572 41.682C21.2461 41.6808 21.2353 41.6797 21.2247 41.6786L21.2316 41.6493H20.9157H20.9139Z" fill="#263238" stroke="white" stroke-width="0.5"/>
<path d="M34.2889 62.6905C34.2662 62.6905 34.2435 62.6868 34.2217 62.6796C34.11 62.6422 34.0491 62.5212 34.0863 62.4084C35.6141 57.8171 36.8095 53.528 36.9294 52.2103C37.2237 48.9759 33.2634 46.274 31.3596 44.9762C31.2624 44.9098 31.2369 44.776 31.3032 44.6786C31.3696 44.5813 31.5031 44.5558 31.6003 44.6222C33.723 46.0692 37.6733 48.7639 37.3554 52.2494C37.231 53.6172 36.0538 57.8508 34.4915 62.544C34.4615 62.6341 34.3779 62.6905 34.2889 62.6905Z" fill="white"/>
<path d="M21.1482 24.0685C20.4333 23.9693 18.5059 23.5625 16.4803 21.2118C13.6881 23.214 10.1293 22.6834 8.21003 20.3609C5.86474 17.5225 6.18538 12.2687 9.60067 9.57131C6.89478 9.54856 6.16721 8.50564 5.95194 8.0952C4.68574 5.67354 8.032 0.00935165 11.1548 0.000251083C12.3075 -0.00338914 13.8371 1.42449 16.8482 4.27843C19.9583 7.2261 20.0909 7.79761 21.0319 7.90045C23.7996 8.20077 24.6352 3.534 28.2976 2.95338C31.2623 2.48289 34.1944 4.83993 34.1944 8.41463C34.1944 9.85252 32.4223 9.55402 31.3941 12.4043C30.0734 16.0655 25.5263 24.6773 21.1482 24.0694V24.0685Z" fill="#263238"/>
<path d="M37.7886 19.8668C40.3392 20.0215 42.8952 19.6857 45.3195 18.8776C45.3195 18.8776 47.2397 18.1841 47.0117 17.3797L45.5811 7.47824C45.4267 6.37252 45.7446 5.25042 46.4658 4.40043C47.257 3.46762 48.3878 2.42014 49.5705 2.26544C51.7641 1.97695 48.7921 5.9812 48.753 7.10421C48.7139 8.22722 53.4109 16.4951 52.1674 19.845C50.328 24.7984 37.1192 27.1018 37.1192 27.1018L37.7886 19.8677V19.8668Z" fill="white"/>
<path d="M37.1192 27.3156C37.0656 27.3156 37.0139 27.2956 36.9739 27.2592C36.9248 27.2137 36.9003 27.1482 36.9058 27.0817L37.5752 19.8477C37.5861 19.7321 37.6878 19.6466 37.8014 19.6539C40.3347 19.8077 42.8426 19.4782 45.2514 18.6755C45.8119 18.4726 46.9364 17.9011 46.8056 17.4388C46.8028 17.4297 46.801 17.4206 46.7992 17.4106L45.3686 7.50916C45.2051 6.337 45.5448 5.15393 46.3024 4.26116C47.079 3.34565 48.2716 2.219 49.5423 2.05246C49.9738 1.99603 50.2799 2.08704 50.4507 2.32456C50.8676 2.90518 50.2799 4.111 49.6577 5.38781C49.3234 6.074 48.9783 6.78384 48.9665 7.11146C48.9565 7.40723 49.4324 8.52387 49.9357 9.70694C51.26 12.8157 53.261 17.5134 52.3672 19.9187C50.5061 24.9304 37.6996 27.2164 37.1556 27.312C37.1437 27.3138 37.131 27.3147 37.1192 27.3147V27.3156ZM37.9821 20.0925L37.3581 26.8388C39.2565 26.4729 50.3362 24.1623 51.9667 19.7703C52.8005 17.5243 50.7613 12.7365 49.5423 9.8753C48.8738 8.30637 48.5259 7.47002 48.5386 7.0969C48.5532 6.67827 48.8865 5.99391 49.2726 5.20034C49.7358 4.24933 50.3698 2.94704 50.1028 2.57483C50.0138 2.45106 49.7785 2.45379 49.5968 2.47745C48.4614 2.6267 47.3551 3.68055 46.6275 4.53873C45.9499 5.33776 45.6447 6.39889 45.7919 7.44818L47.2207 17.3359C47.4723 18.297 45.6057 19.0013 45.3913 19.0796C42.9906 19.8796 40.5009 20.2199 37.9821 20.0925Z" fill="#263238"/>
<path d="M21.8276 24.0121L18.6821 20.5203C14.6455 24.1377 12.57 24.6619 12.57 24.6619C12.0659 24.8758 11.4818 24.681 11.2066 24.206C10.0812 22.2585 7.28628 17.487 6.31891 16.4259C5.0954 15.0845 1.3513 13.7076 0.518364 14.897C-0.726946 16.6762 2.15698 17.0675 3.71566 18.5436C4.4732 19.2617 7.75679 31.8823 13.5001 31.8941C17.018 31.9014 21.8276 24.0131 21.8276 24.0131V24.0121Z" fill="white"/>
<path d="M13.5056 32.108H13.5001C8.89673 32.0989 5.86294 24.3443 4.40508 20.6176C4.04448 19.6966 3.70476 18.8266 3.56942 18.6992C3.07348 18.2296 2.44129 17.8756 1.82908 17.5334C0.945278 17.0383 0.182287 16.6115 0.0278724 15.9354C-0.0538767 15.575 0.0487638 15.1946 0.343969 14.7741C0.569233 14.452 0.961628 14.2709 1.51025 14.2363C2.96266 14.1425 5.46782 15.1755 6.47696 16.2821C7.45523 17.355 10.2401 22.1064 11.3919 24.0995C11.6117 24.4799 12.0822 24.6373 12.4864 24.4653C12.4964 24.4608 12.5073 24.4571 12.5173 24.4553C12.5373 24.4498 14.6065 23.8865 18.5395 20.3619C18.6267 20.2836 18.762 20.2909 18.8411 20.3782L21.9866 23.8701C22.0502 23.9402 22.0592 24.044 22.0102 24.1249C21.8113 24.4507 17.1016 32.1089 13.5047 32.1089L13.5056 32.108ZM1.70554 14.6576C1.64832 14.6576 1.592 14.6595 1.53841 14.6631C1.12513 14.6895 0.841729 14.8096 0.694581 15.0198C0.47295 15.3356 0.39211 15.6041 0.445701 15.8398C0.557424 16.3303 1.27682 16.7335 2.0389 17.1594C2.64384 17.4979 3.32963 17.882 3.86463 18.388C4.06082 18.5736 4.29426 19.1579 4.80474 20.4611C6.22808 24.0995 9.19103 31.6711 13.5028 31.6793H13.5074C16.6184 31.6793 20.9102 25.0705 21.5633 24.0358L18.6685 20.8214C14.8835 24.1814 12.8588 24.8048 12.6417 24.8648C12.0423 25.1105 11.3501 24.8748 11.0249 24.3124C9.87954 22.3312 7.11461 17.6117 6.1645 16.5697C5.27979 15.5986 3.05713 14.6576 1.70827 14.6576H1.70554Z" fill="#263238"/>
<path d="M40.6298 19.4701L38.8086 25.5938C38.2627 27.2875 37.9066 29.0375 37.7468 30.8094L36.7503 41.8538C36.7503 41.8538 30.8144 45.7361 19.6839 42.267L19.2442 31.7677C19.1525 29.5808 18.7628 27.4176 18.0861 25.3363L16.7155 21.1209C16.7155 21.1209 19.6057 19.0806 22.5687 18.3125C26.7088 17.2395 37.2481 17.1567 40.628 19.4692L40.6298 19.4701Z" fill="#E8F2F8"/>
<path d="M28.4447 43.9114C26.0013 43.9114 23.0511 43.541 19.6204 42.4717C19.5341 42.4444 19.4741 42.3662 19.4705 42.2761L19.0309 31.7767C18.94 29.6099 18.554 27.4649 17.8836 25.4027L16.513 21.1873C16.4839 21.0981 16.5166 20.9999 16.5929 20.9462C16.7119 20.8615 19.5495 18.874 22.5161 18.105C26.5073 17.0702 37.1919 16.8582 40.7498 19.2926C40.8261 19.3454 40.8606 19.4409 40.8342 19.531L39.013 25.6548C38.4717 27.3357 38.1174 29.0748 37.9594 30.8285L36.963 41.8729C36.9566 41.9384 36.9212 41.9976 36.8667 42.0331C36.8249 42.0604 33.9055 43.9105 28.4438 43.9105L28.4447 43.9114ZM19.891 42.1077C29.9816 45.2074 35.7812 42.1696 36.5469 41.7273L37.5334 30.7912C37.6942 29.0056 38.0548 27.2347 38.6052 25.5283L40.3792 19.562C36.9021 17.3633 26.5536 17.5025 22.6233 18.5209C20.0818 19.1797 17.5612 20.8097 16.969 21.2083L18.2906 25.2717C18.9736 27.3712 19.366 29.5544 19.4587 31.7604L19.8919 42.1086L19.891 42.1077Z" fill="#263238"/>
<path d="M31.9318 12.8612L31.2533 18.5108L33.0953 19.0796C33.7275 19.2753 33.7639 20.1626 33.1462 20.4019C31.4159 21.0708 28.4511 21.7006 25.0167 20.2527C24.4245 20.0024 24.3873 19.1761 24.9577 18.8794L26.3556 18.1541L28.0569 11.598L31.9318 12.8621V12.8612Z" fill="white"/>
<path d="M29.2668 21.3484C27.957 21.3484 26.4928 21.1063 24.9341 20.4484C24.5817 20.3 24.3528 19.9697 24.3373 19.5875C24.3219 19.208 24.5226 18.8631 24.8596 18.6883L26.1731 18.0067L27.8507 11.5435C27.8653 11.4861 27.9034 11.4379 27.9552 11.4097C28.007 11.3815 28.0678 11.376 28.1241 11.3942L31.999 12.6583C32.0962 12.6901 32.1571 12.7857 32.1453 12.8876L31.4886 18.3589L33.1599 18.8749C33.5377 18.9914 33.7912 19.3235 33.8048 19.7203C33.8184 20.1144 33.5904 20.4602 33.2244 20.6013C32.1943 20.9999 30.8418 21.3484 29.2686 21.3484H29.2668ZM28.2068 11.8711L26.5627 18.2069C26.5473 18.2661 26.5082 18.3152 26.4537 18.3434L25.0558 19.0687C24.8651 19.1679 24.7561 19.3554 24.7642 19.5711C24.7733 19.7886 24.8978 19.9697 25.0994 20.0543C28.4003 21.4467 31.2551 20.9025 33.069 20.2017C33.3043 20.1107 33.3815 19.9014 33.3761 19.7349C33.3706 19.5665 33.277 19.3599 33.0327 19.2844L31.1906 18.7156C31.0916 18.6847 31.0289 18.5882 31.0417 18.4854L31.6993 13.0105L28.2077 11.8711H28.2068Z" fill="#263238"/>
<path d="M26.8052 12.3634C26.8052 12.3634 25.0739 12.2005 24.9431 10.7918C24.7433 8.64584 26.4737 9.12271 26.4737 9.12271C26.4737 9.12271 26.3438 7.25891 28.7663 7.51919C30.2841 7.68209 31.5657 7.86683 32.3859 7.99515C32.9718 8.08706 33.4305 8.5521 33.5122 9.14C33.673 10.2976 33.8665 12.2597 33.6149 13.8295C33.3842 15.2683 32.781 16.3777 31.4385 16.2384C27.7635 15.858 26.8052 12.3634 26.8052 12.3634Z" fill="white"/>
<path d="M31.6566 16.4641C31.5758 16.4641 31.4949 16.4595 31.4168 16.4513C28.066 16.1046 26.8761 13.2279 26.6436 12.5581C25.9578 12.4498 24.8388 11.9802 24.7298 10.8108C24.658 10.0364 24.816 9.4794 25.2012 9.15633C25.5509 8.86238 25.995 8.84509 26.2703 8.87149C26.3021 8.59574 26.412 8.15618 26.7762 7.8049C27.2186 7.37808 27.8962 7.20972 28.789 7.30528C30.3159 7.46909 31.6058 7.65565 32.4187 7.78306C33.1036 7.89044 33.6277 8.42374 33.724 9.10992C33.8738 10.1865 34.0864 12.236 33.8257 13.8631C33.4887 15.969 32.5059 16.4641 31.6557 16.4641H31.6566ZM26.0886 9.29102C25.8979 9.29102 25.659 9.33015 25.4746 9.48577C25.2048 9.71329 25.0976 10.1465 25.1558 10.7708C25.2693 11.9884 26.8098 12.1477 26.8253 12.1495C26.9134 12.1577 26.9878 12.2205 27.0115 12.306C27.0496 12.4435 27.9797 15.6651 31.4604 16.0254C32.5104 16.1337 33.1454 15.4048 33.4033 13.7958C33.6549 12.2241 33.4469 10.2229 33.2998 9.16998C33.2307 8.67218 32.8492 8.2845 32.3524 8.20714C31.544 8.08065 30.2614 7.89499 28.7427 7.73209C27.9843 7.6511 27.4229 7.7776 27.075 8.11068C26.6545 8.51383 26.6854 9.10355 26.6854 9.10901C26.6899 9.17817 26.6599 9.24552 26.6063 9.2892C26.5528 9.33288 26.4819 9.34835 26.4147 9.33015C26.412 9.33015 26.2712 9.29284 26.0859 9.29284L26.0886 9.29102Z" fill="#263238"/>
<path d="M50.5152 63.5905C50.5152 63.5905 49.5733 59.2113 47.5132 57.6706C45.7038 56.3183 46.0762 58.6007 46.8683 59.8602C47.0173 60.0968 47.1235 60.3152 47.198 60.5136C47.3915 61.0296 46.7811 61.471 46.3533 61.1243C44.6302 59.7273 40.9724 56.8588 40.4982 57.2693C40.0186 57.6852 40.4528 58.9101 41.7208 60.216C42.0179 60.5218 42.1659 60.9477 42.1178 61.3718C42.0224 62.2182 42.0433 63.6806 43.1006 64.5834C44.4831 65.7628 48.0301 67.0005 48.0301 67.0005C48.0301 67.0005 51.8214 72.3999 60.5595 77.4389C65.2936 80.169 66.5135 76.4678 67.3037 72.7939C68.4364 67.5302 61.0727 69.1055 61.0727 69.1055C61.0727 69.1055 56.8726 69.606 50.5134 63.5905H50.5152Z" fill="white"/>
<path d="M63.4152 78.5991C62.5632 78.5991 61.584 78.2761 60.4541 77.6245C52.2528 72.8949 48.3352 67.774 47.8983 67.1807C47.3978 67.0023 44.2741 65.8656 42.9634 64.7472C41.8198 63.7716 41.8107 62.199 41.907 61.3481C41.9479 60.9868 41.8244 60.6292 41.5691 60.3653C40.6172 59.3851 40.0668 58.3904 40.0967 57.7043C40.1076 57.4531 40.1985 57.2465 40.3601 57.1063C40.5591 56.9334 41.025 56.5303 46.4895 60.9568C46.6321 61.0724 46.7874 61.0378 46.8846 60.9677C46.9827 60.8967 47.0636 60.7602 46.9991 60.5873C46.9246 60.3889 46.8201 60.1823 46.6893 59.973C46.1689 59.1449 45.7065 57.6769 46.2325 57.1892C46.5277 56.9152 47.0027 57.019 47.6422 57.4977C49.6278 58.982 50.5797 62.8998 50.7105 63.4786C56.898 69.3102 61.009 68.8961 61.0499 68.8916C61.1989 68.8588 65.1637 68.0343 66.8768 69.7543C67.5871 70.4678 67.8024 71.5053 67.5154 72.8376C67.0294 75.0963 66.3636 77.5717 64.6105 78.3516C64.2427 78.5154 63.8448 78.5973 63.4161 78.5973L63.4152 78.5991ZM40.6263 57.4431C40.5636 57.505 40.5291 57.5996 40.5236 57.7234C40.5055 58.1438 40.8488 59.0093 41.8752 60.0668C42.2204 60.4226 42.3866 60.9077 42.3312 61.3964C42.2449 62.1617 42.2476 63.5732 43.2404 64.4205C44.5766 65.5608 48.0664 66.7857 48.1018 66.7984C48.1445 66.813 48.1808 66.8412 48.2062 66.8776C48.2435 66.9313 52.0775 72.2997 60.6675 77.2532C62.2389 78.1596 63.4715 78.3907 64.4361 77.9621C65.9312 77.2969 66.5979 75.0636 67.0966 72.7493C67.3509 71.5681 67.1747 70.6625 66.5743 70.0592C65.0256 68.5039 61.158 69.3075 61.1199 69.3157C60.9255 69.3393 56.7272 69.7625 50.3699 63.747C50.3381 63.717 50.3163 63.6788 50.3072 63.636C50.2981 63.5932 49.358 59.3169 47.3869 57.8435C46.8846 57.4685 46.6076 57.4276 46.5231 57.5059C46.2851 57.7261 46.5022 58.8746 47.0508 59.7473C47.1971 59.9803 47.3152 60.2133 47.3996 60.439C47.5214 60.762 47.4142 61.1151 47.1353 61.3172C46.8556 61.5192 46.4886 61.5092 46.2206 61.2917C42.6128 58.3677 40.9596 57.393 40.6272 57.4431H40.6263Z" fill="#263238"/>
<path d="M72.6992 124.745H24.192V164.388H72.6992V124.745Z" fill="white"/>
<path d="M72.6991 164.603H24.192C24.0739 164.603 23.9785 164.508 23.9785 164.389V124.746C23.9785 124.628 24.0739 124.532 24.192 124.532H72.6991C72.8172 124.532 72.9126 124.628 72.9126 124.746V164.389C72.9126 164.508 72.8172 164.603 72.6991 164.603ZM24.4064 164.175H72.4857V124.96H24.4064V164.175Z" fill="#263238"/>
<path d="M65.9077 133.22H30.9845V164.388H65.9077V133.22Z" fill="white"/>
<path d="M65.9076 164.603H30.9844C30.8664 164.603 30.771 164.508 30.771 164.389V133.221C30.771 133.102 30.8664 133.007 30.9844 133.007H65.9076C66.0257 133.007 66.1211 133.102 66.1211 133.221V164.389C66.1211 164.508 66.0257 164.603 65.9076 164.603ZM31.1979 164.174H65.6933V133.434H31.1979V164.174Z" fill="#263238"/>
<path d="M62.6331 137.394H34.2581C34.14 137.394 34.0446 137.299 34.0446 137.18C34.0446 137.062 34.14 136.967 34.2581 136.967H62.6331C62.7512 136.967 62.8466 137.062 62.8466 137.18C62.8466 137.299 62.7512 137.394 62.6331 137.394Z" fill="#263238"/>
<path d="M62.6331 141.829H34.258C34.1399 141.829 34.0446 141.733 34.0446 141.615C34.0446 141.497 34.1399 141.401 34.258 141.401H62.6331C62.7512 141.401 62.8466 141.497 62.8466 141.615C62.8466 141.733 62.7512 141.829 62.6331 141.829Z" fill="#263238"/>
<path d="M62.6331 146.263H34.258C34.1399 146.263 34.0446 146.167 34.0446 146.049C34.0446 145.931 34.1399 145.835 34.258 145.835H62.6331C62.7512 145.835 62.8466 145.931 62.8466 146.049C62.8466 146.167 62.7512 146.263 62.6331 146.263Z" fill="#263238"/>
<path d="M62.6331 150.698H34.258C34.1399 150.698 34.0446 150.602 34.0446 150.484C34.0446 150.365 34.1399 150.27 34.258 150.27H62.6331C62.7512 150.27 62.8466 150.365 62.8466 150.484C62.8466 150.602 62.7512 150.698 62.6331 150.698Z" fill="#263238"/>
<path d="M62.6331 155.132H34.258C34.1399 155.132 34.0446 155.037 34.0446 154.918C34.0446 154.8 34.1399 154.704 34.258 154.704H62.6331C62.7512 154.704 62.8466 154.8 62.8466 154.918C62.8466 155.037 62.7512 155.132 62.6331 155.132Z" fill="#263238"/>
<path d="M62.6331 159.566H34.258C34.1399 159.566 34.0446 159.47 34.0446 159.352C34.0446 159.234 34.1399 159.138 34.258 159.138H62.6331C62.7512 159.138 62.8466 159.234 62.8466 159.352C62.8466 159.47 62.7512 159.566 62.6331 159.566Z" fill="#263238"/>
<path d="M167.529 91.9569H103.94V164.388H167.529V91.9569Z" fill="white"/>
<path d="M167.529 164.603H103.94C103.822 164.603 103.727 164.508 103.727 164.389V91.9579C103.727 91.8396 103.822 91.744 103.94 91.744H167.529C167.647 91.744 167.742 91.8396 167.742 91.9579V164.389C167.742 164.508 167.647 164.603 167.529 164.603ZM104.154 164.175H167.315V92.1717H104.154V164.175Z" fill="#263238"/>
<path d="M163.237 77.1804H75.7111L66.161 93.8954H172.787L163.237 77.1804Z" fill="#263238"/>
<path d="M172.787 94.1093H66.161C66.0847 94.1093 66.0148 94.0683 65.9757 94.0028C65.9376 93.9364 65.9376 93.8554 65.9757 93.7889L75.5258 77.0739C75.564 77.0075 75.6348 76.9666 75.7111 76.9666H163.237C163.313 76.9666 163.384 77.0075 163.422 77.0739L172.973 93.7889C173.011 93.8554 173.01 93.9364 172.973 94.0028C172.934 94.0693 172.864 94.1093 172.787 94.1093ZM66.5298 93.6807H172.418L163.113 77.3943H75.8347L66.5289 93.6807H66.5298Z" fill="white"/>
<path d="M115.439 111.297H27.9134L18.3633 128.012H124.989L115.439 111.297Z" fill="#263238"/>
<path d="M124.989 128.225H18.3633C18.287 128.225 18.217 128.185 18.178 128.119C18.1398 128.053 18.1398 127.972 18.178 127.905L27.7281 111.19C27.7662 111.124 27.8371 111.083 27.9134 111.083H115.439C115.516 111.083 115.586 111.124 115.625 111.19L125.175 127.905C125.213 127.972 125.212 128.053 125.175 128.119C125.137 128.185 125.066 128.225 124.989 128.225ZM18.7321 127.797H124.621L115.315 111.51H28.0378L18.7321 127.797Z" fill="white"/>
<path d="M123.199 93.2538H71.6991V164.388H123.199V93.2538Z" fill="white"/>
<path d="M123.199 164.603H71.6992C71.5811 164.603 71.4857 164.508 71.4857 164.389V93.2548C71.4857 93.1364 71.5811 93.0409 71.6992 93.0409H123.199C123.317 93.0409 123.413 93.1364 123.413 93.2548V164.389C123.413 164.508 123.317 164.603 123.199 164.603ZM71.9135 164.175H122.986V93.4686H71.9135V164.175Z" fill="#263238"/>
<path d="M123.026 96.4199H71.8735L97.4492 72.8322L123.026 96.4199Z" fill="white"/>
<path d="M97.4492 72.8321L122.302 95.7519H126.343L97.4492 69.1045L68.5564 95.7519H72.5975L97.4492 72.8321Z" fill="#263238"/>
<path d="M126.343 95.9658H122.302C122.248 95.9658 122.196 95.9457 122.157 95.9093L97.4501 73.1224L72.7428 95.9093C72.7038 95.9457 72.652 95.9658 72.5984 95.9658H68.5573C68.4692 95.9658 68.3901 95.9121 68.3583 95.8292C68.3266 95.7473 68.3484 95.6536 68.4128 95.5935L97.3057 68.9462C97.3874 68.8706 97.5137 68.8706 97.5954 68.9462L126.488 95.5935C126.553 95.6536 126.575 95.7464 126.543 95.8292C126.511 95.9111 126.432 95.9658 126.344 95.9658H126.343ZM122.385 95.5371H125.795L97.4501 69.3957L69.105 95.5371H72.5148L97.3057 72.6738C97.3874 72.5982 97.5137 72.5982 97.5954 72.6738L122.386 95.5371H122.385Z" fill="white"/>
<path d="M111.312 101.753H83.5874C83.4693 101.753 83.3739 101.657 83.3739 101.539V99.0353C83.3739 92.1053 89.0019 86.4666 95.9187 86.4666H98.9816C105.898 86.4666 111.526 92.1053 111.526 99.0353V101.539C111.526 101.657 111.431 101.753 111.313 101.753H111.312ZM83.8017 101.324H111.099V99.0353C111.099 92.341 105.663 86.8952 98.9816 86.8952H95.9187C89.2371 86.8952 83.8017 92.341 83.8017 99.0353V101.324Z" fill="#263238"/>
<path d="M97.4491 99.9764C97.3311 99.9764 97.2357 99.8808 97.2357 99.7625V89.265C97.2357 89.1467 97.3311 89.0511 97.4491 89.0511C97.5672 89.0511 97.6626 89.1467 97.6626 89.265V99.7625C97.6626 99.8808 97.5672 99.9764 97.4491 99.9764Z" fill="#263238"/>
<path d="M86.642 98.8006C86.5875 98.8006 86.533 98.7797 86.4912 98.7378C86.4077 98.6541 86.4077 98.5185 86.4912 98.4348L94.687 90.2233C94.7706 90.1396 94.9059 90.1396 94.9895 90.2233C95.0731 90.307 95.0731 90.4426 94.9895 90.5264L86.7937 98.7378C86.7519 98.7797 86.6974 98.8006 86.6429 98.8006H86.642Z" fill="#263238"/>
<path d="M100.326 97.3726C100.271 97.3726 100.217 97.3517 100.175 97.3098C100.092 97.2261 100.092 97.0905 100.175 97.0068L105.591 91.5801C105.675 91.4964 105.81 91.4964 105.894 91.5801C105.978 91.6639 105.978 91.7995 105.894 91.8832L100.478 97.3098C100.436 97.3517 100.381 97.3726 100.327 97.3726H100.326Z" fill="#263238"/>
<path d="M126.343 158.252H68.5564V166.327H126.343V158.252Z" fill="white"/>
<path d="M126.343 166.541H68.5563C68.4382 166.541 68.3428 166.445 68.3428 166.327V158.252C68.3428 158.134 68.4382 158.038 68.5563 158.038H126.343C126.461 158.038 126.556 158.134 126.556 158.252V166.327C126.556 166.445 126.461 166.541 126.343 166.541ZM68.7707 166.112H126.129V158.466H68.7707V166.112Z" fill="#263238"/>
<path d="M79.1647 130.16H74.6513V158.251H79.1647V130.16Z" fill="white"/>
<path d="M79.1647 158.466H74.6513C74.5332 158.466 74.4378 158.37 74.4378 158.252V130.161C74.4378 130.043 74.5332 129.947 74.6513 129.947H79.1647C79.2828 129.947 79.3782 130.043 79.3782 130.161V158.252C79.3782 158.37 79.2828 158.466 79.1647 158.466ZM74.8656 158.037H78.9513V130.374H74.8656V158.037Z" fill="#263238"/>
<path d="M120.248 130.16H115.735V158.251H120.248V130.16Z" fill="white"/>
<path d="M120.248 158.466H115.735C115.617 158.466 115.521 158.37 115.521 158.252V130.161C115.521 130.043 115.617 129.947 115.735 129.947H120.248C120.366 129.947 120.462 130.043 120.462 130.161V158.252C120.462 158.37 120.366 158.466 120.248 158.466ZM115.949 158.037H120.035V130.374H115.949V158.037Z" fill="#263238"/>
<path d="M96.1267 133.22H84.3603V158.252H96.1267V133.22Z" fill="white"/>
<path d="M96.1275 158.466H84.3611C84.243 158.466 84.1476 158.37 84.1476 158.252V133.22C84.1476 133.102 84.243 133.006 84.3611 133.006H96.1275C96.2456 133.006 96.341 133.102 96.341 133.22V158.252C96.341 158.37 96.2456 158.466 96.1275 158.466ZM84.5746 158.037H95.914V133.434H84.5746V158.037Z" fill="#263238"/>
<path d="M110.538 133.22H98.7718V158.252H110.538V133.22Z" fill="white"/>
<path d="M110.538 158.466H98.7717C98.6536 158.466 98.5582 158.37 98.5582 158.252V133.22C98.5582 133.102 98.6536 133.006 98.7717 133.006H110.538C110.656 133.006 110.752 133.102 110.752 133.22V158.252C110.752 158.37 110.656 158.466 110.538 158.466ZM98.9851 158.037H110.325V133.434H98.9851V158.037Z" fill="#263238"/>
<path d="M120.248 161.106H74.6521C74.534 161.106 74.4387 161.01 74.4387 160.892C74.4387 160.774 74.534 160.678 74.6521 160.678H120.248C120.366 160.678 120.462 160.774 120.462 160.892C120.462 161.01 120.366 161.106 120.248 161.106Z" fill="#263238"/>
<path d="M120.248 163.875H74.6521C74.534 163.875 74.4387 163.78 74.4387 163.661C74.4387 163.543 74.534 163.447 74.6521 163.447H120.248C120.366 163.447 120.462 163.543 120.462 163.661C120.462 163.78 120.366 163.875 120.248 163.875Z" fill="#263238"/>
<path d="M125.803 119.331H69.0959L62.9075 130.16H131.991L125.803 119.331Z" fill="#263238"/>
<path d="M131.991 130.375H62.9075C62.8312 130.375 62.7612 130.334 62.7222 130.268C62.684 130.202 62.684 130.121 62.7222 130.055L68.9097 119.225C68.9478 119.159 69.0187 119.118 69.095 119.118H125.802C125.879 119.118 125.95 119.159 125.988 119.225L132.175 130.055C132.213 130.121 132.213 130.202 132.175 130.268C132.137 130.335 132.066 130.375 131.99 130.375H131.991ZM63.2763 129.946H131.622L125.679 119.545H69.2194L63.2763 129.946Z" fill="white"/>
<path d="M111.29 115.461H83.5782C83.4601 115.461 83.3648 115.365 83.3648 115.247V103.822C83.3648 103.704 83.4601 103.608 83.5782 103.608H111.29C111.408 103.608 111.504 103.704 111.504 103.822V115.247C111.504 115.365 111.408 115.461 111.29 115.461ZM83.7926 115.032H111.077V104.036H83.7926V115.032Z" fill="#263238"/>
<path d="M89.0655 112.436C89.011 112.436 88.9565 112.415 88.9147 112.373C88.8311 112.29 88.8311 112.154 88.9147 112.07L95.2802 105.693C95.3638 105.61 95.4991 105.61 95.5827 105.693C95.6663 105.777 95.6663 105.913 95.5827 105.996L89.2172 112.373C89.1754 112.415 89.1209 112.436 89.0664 112.436H89.0655Z" fill="#263238"/>
<path d="M100.419 113.413C100.365 113.413 100.31 113.392 100.269 113.351C100.185 113.267 100.185 113.131 100.269 113.048L102.883 110.428C102.966 110.345 103.102 110.345 103.185 110.428C103.269 110.512 103.269 110.648 103.185 110.731L100.571 113.351C100.529 113.392 100.475 113.413 100.42 113.413H100.419Z" fill="#263238"/>
<path d="M158.886 122.613H131.967C131.849 122.613 131.754 122.518 131.754 122.399V99.6278C131.754 99.5095 131.849 99.4139 131.967 99.4139H158.886C159.004 99.4139 159.1 99.5095 159.1 99.6278V122.399C159.1 122.518 159.004 122.613 158.886 122.613ZM132.182 122.184H158.673V99.8417H132.182V122.184Z" fill="#263238"/>
<path d="M145.428 119.868C145.31 119.868 145.214 119.773 145.214 119.655V101.89C145.214 101.772 145.31 101.676 145.428 101.676C145.546 101.676 145.641 101.772 145.641 101.89V119.655C145.641 119.773 145.546 119.868 145.428 119.868Z" fill="#263238"/>
<path d="M133.395 120.056C133.341 120.056 133.286 120.035 133.244 119.993C133.161 119.909 133.161 119.774 133.244 119.69L143.935 108.979C144.019 108.895 144.154 108.895 144.238 108.979C144.321 109.062 144.321 109.198 144.238 109.282L133.547 119.993C133.505 120.035 133.451 120.056 133.396 120.056H133.395Z" fill="#263238"/>
<path d="M135.088 109.746C135.034 109.746 134.979 109.725 134.937 109.683C134.854 109.599 134.854 109.464 134.937 109.38L142.242 102.06C142.326 101.977 142.461 101.977 142.545 102.06C142.628 102.144 142.628 102.28 142.545 102.363L135.24 109.683C135.198 109.725 135.144 109.746 135.089 109.746H135.088Z" fill="#263238"/>
<path d="M147.935 116.318C147.88 116.318 147.826 116.297 147.784 116.255C147.7 116.172 147.7 116.036 147.784 115.952L154.841 108.881C154.925 108.798 155.06 108.798 155.144 108.881C155.228 108.965 155.228 109.101 155.144 109.184L148.086 116.255C148.045 116.297 147.99 116.318 147.936 116.318H147.935Z" fill="#263238"/>
<path d="M158.886 156.205H131.967C131.849 156.205 131.754 156.11 131.754 155.991V133.22C131.754 133.102 131.849 133.006 131.967 133.006H158.886C159.004 133.006 159.1 133.102 159.1 133.22V155.991C159.1 156.11 159.004 156.205 158.886 156.205ZM132.182 155.776H158.673V133.434H132.182V155.776Z" fill="#263238"/>
<path d="M145.428 153.459C145.31 153.459 145.214 153.364 145.214 153.246V135.481C145.214 135.363 145.31 135.267 145.428 135.267C145.546 135.267 145.641 135.363 145.641 135.481V153.246C145.641 153.364 145.546 153.459 145.428 153.459Z" fill="#263238"/>
<path d="M133.395 153.647C133.341 153.647 133.286 153.626 133.244 153.584C133.161 153.5 133.161 153.365 133.244 153.281L143.935 142.57C144.019 142.486 144.154 142.486 144.238 142.57C144.321 142.653 144.321 142.789 144.238 142.873L133.547 153.584C133.505 153.626 133.451 153.647 133.396 153.647H133.395Z" fill="#263238"/>
<path d="M135.088 143.337C135.034 143.337 134.979 143.316 134.937 143.274C134.854 143.19 134.854 143.055 134.937 142.971L142.242 135.652C142.326 135.568 142.461 135.568 142.545 135.652C142.628 135.735 142.628 135.871 142.545 135.955L135.24 143.274C135.198 143.316 135.144 143.337 135.089 143.337H135.088Z" fill="#263238"/>
<path d="M147.935 149.909C147.88 149.909 147.826 149.888 147.784 149.847C147.7 149.763 147.7 149.627 147.784 149.543L154.841 142.472C154.925 142.389 155.06 142.389 155.144 142.472C155.228 142.556 155.228 142.692 155.144 142.775L148.086 149.847C148.045 149.888 147.99 149.909 147.936 149.909H147.935Z" fill="#263238"/>
<path d="M138.741 21.3447C138.686 21.3447 138.632 21.3238 138.59 21.2819C121.675 4.40859 101.102 1.61016 86.8244 2.23355C71.3366 2.90972 59.7019 7.64384 59.5866 7.69207C59.4776 7.73666 59.3522 7.68479 59.3077 7.57558C59.2632 7.46638 59.315 7.34079 59.424 7.2962C59.5402 7.24796 71.2331 2.48837 86.7917 1.80674C95.9331 1.40631 104.603 2.46926 112.562 4.96736C122.513 8.09068 131.371 13.4782 138.891 20.9789C138.975 21.0626 138.975 21.1982 138.891 21.2819C138.85 21.3238 138.795 21.3447 138.74 21.3447H138.741Z" fill="#263238"/>
<path d="M127.88 19.4191C127.825 19.4191 127.771 19.3982 127.729 19.3572C115.219 6.92221 93.5424 5.50798 93.3253 5.49433C93.2072 5.48705 93.1173 5.38604 93.1245 5.26773C93.1318 5.14942 93.2317 5.06023 93.3507 5.06661C93.4052 5.07025 98.9096 5.41061 105.896 7.29624C112.35 9.03718 121.429 12.4908 128.03 19.0524C128.114 19.1361 128.115 19.2717 128.031 19.3554C127.99 19.3973 127.934 19.4191 127.88 19.4191Z" fill="#263238"/>
<path d="M87.7101 7.06414C86.9244 7.06414 86.2858 6.42437 86.2858 5.63717C86.2858 4.84997 86.9253 4.21021 87.7101 4.21021C88.4949 4.21021 89.1343 4.85088 89.1343 5.63717C89.1343 6.42346 88.4949 7.06414 87.7101 7.06414ZM87.7101 4.63793C87.1605 4.63793 86.7127 5.08568 86.7127 5.63626C86.7127 6.18685 87.1596 6.6346 87.7101 6.6346C88.2605 6.6346 88.7065 6.18685 88.7065 5.63626C88.7065 5.08568 88.2596 4.63793 87.7101 4.63793Z" fill="#263238"/>
<path d="M11.8806 66.2051C11.7625 66.2051 11.6671 66.1095 11.6671 65.9912V64.3295C11.6671 64.2112 11.7625 64.1156 11.8806 64.1156C11.9986 64.1156 12.094 64.2112 12.094 64.3295V65.9912C12.094 66.1095 11.9986 66.2051 11.8806 66.2051Z" fill="#263238"/>
<path d="M11.8806 70.0764C11.7625 70.0764 11.6671 69.9809 11.6671 69.8626V68.2008C11.6671 68.0825 11.7625 67.9869 11.8806 67.9869C11.9986 67.9869 12.094 68.0825 12.094 68.2008V69.8626C12.094 69.9809 11.9986 70.0764 11.8806 70.0764Z" fill="#263238"/>
<path d="M10.7778 67.3099H9.11923C9.00115 67.3099 8.90578 67.2144 8.90578 67.0961C8.90578 66.9778 9.00115 66.8822 9.11923 66.8822H10.7778C10.8959 66.8822 10.9913 66.9778 10.9913 67.0961C10.9913 67.2144 10.8959 67.3099 10.7778 67.3099Z" fill="#263238"/>
<path d="M14.6419 67.3099H12.9833C12.8652 67.3099 12.7698 67.2144 12.7698 67.0961C12.7698 66.9778 12.8652 66.8822 12.9833 66.8822H14.6419C14.7599 66.8822 14.8553 66.9778 14.8553 67.0961C14.8553 67.2144 14.7599 67.3099 14.6419 67.3099Z" fill="#263238"/>
<path d="M15.4448 123.887C15.3712 123.887 15.2985 123.849 15.2595 123.78C8.75862 112.49 6.9665 100.556 6.60771 92.5329C6.21895 83.8401 7.38342 77.7309 7.39523 77.6699C7.41793 77.5534 7.52875 77.4779 7.64592 77.5006C7.76219 77.5234 7.83758 77.6353 7.81487 77.7518C7.80306 77.8119 6.64768 83.881 7.03553 92.5257C7.39341 100.498 9.17463 112.354 15.6301 123.565C15.6891 123.668 15.6537 123.799 15.552 123.858C15.5184 123.877 15.482 123.887 15.4457 123.887H15.4448Z" fill="#263238"/>
<path d="M18.415 121.537C18.3387 121.537 18.2642 121.495 18.2261 121.423C11.7825 109.204 10.984 99.9463 10.9768 99.8544C10.9677 99.7361 11.0549 99.6333 11.173 99.6242C11.2938 99.6142 11.3937 99.7025 11.4028 99.8208C11.41 99.9118 12.2048 109.089 18.604 121.223C18.6594 121.327 18.6194 121.456 18.5149 121.512C18.4831 121.529 18.4486 121.537 18.415 121.537Z" fill="#263238"/>
</svg>
