<svg width="173" height="173" viewBox="0 0 173 173" fill="none" xmlns="http://www.w3.org/2000/svg">
<path d="M151.339 108.966C151.339 108.966 169.019 89.1 163.398 54.5287C157.777 19.9574 128.912 7.22256 109.758 13.8782C90.6032 20.5339 86.2944 32.1107 70.649 38.7359C55.0036 45.3611 25.3012 40.8077 10.4419 63.0535C-4.41707 85.2988 14.551 122.16 38.699 145.273C62.8471 168.386 124.491 153.913 151.339 108.966Z" fill="#006CB5"/>
<path opacity="0.7" d="M151.339 108.966C151.339 108.966 169.019 89.1 163.398 54.5287C157.777 19.9574 128.912 7.22256 109.758 13.8782C90.6032 20.5339 86.2944 32.1107 70.649 38.7359C55.0036 45.3611 25.3012 40.8077 10.4419 63.0535C-4.41707 85.2988 14.551 122.16 38.699 145.273C62.8471 168.386 124.491 153.913 151.339 108.966Z" fill="white"/>
<path d="M16.4698 103.484C16.4698 103.484 15.5588 105.989 13.6226 106.331C11.6864 106.673 8.26962 102.914 10.4335 100.978C12.5974 99.0417 15.5585 102.117 16.4698 103.484Z" fill="#006CB5" stroke="#263238" stroke-width="0.346" stroke-miterlimit="10" stroke-linecap="round" stroke-linejoin="round"/>
<path d="M19.431 91.1832C19.431 91.1832 16.5837 98.1306 17.7224 101.547C18.8615 104.964 25.9226 107.47 27.9727 103.028C30.0227 98.5859 25.4669 92.3219 23.7587 90.9552C22.0505 89.5885 20.0005 90.0442 19.431 91.1832Z" fill="#006CB5" stroke="#263238" stroke-width="0.346" stroke-miterlimit="10" stroke-linecap="round" stroke-linejoin="round"/>
<path d="M36.0595 94.1443C36.0595 94.1443 31.1622 98.5863 30.5927 103.028C30.0232 107.47 33.3261 109.064 36.7429 108.495C40.1596 107.925 41.8682 99.2693 40.843 95.283C39.8181 91.2971 36.0595 94.1443 36.0595 94.1443Z" fill="#006CB5" stroke="#263238" stroke-width="0.346" stroke-miterlimit="10" stroke-linecap="round" stroke-linejoin="round"/>
<path d="M36.9709 118.745C36.9709 118.745 31.5041 118.973 31.276 121.593C31.0484 124.212 33.6679 124.782 36.2872 122.504C38.9067 120.226 39.2486 118.859 36.9709 118.745Z" fill="#006CB5" stroke="#263238" stroke-width="0.346" stroke-miterlimit="10" stroke-linecap="round" stroke-linejoin="round"/>
<path d="M31.3667 122.217C31.3667 122.217 35.6751 120.246 37.6155 119.903" stroke="#263238" stroke-width="0.346" stroke-miterlimit="10"/>
<path d="M38.1896 135.886C38.1896 135.886 34.1739 132.169 32.1557 133.854C30.1372 135.539 31.58 137.799 35.0424 138.051C38.5045 138.303 39.7148 137.581 38.1896 135.886Z" fill="#006CB5" stroke="#263238" stroke-width="0.346" stroke-miterlimit="10" stroke-linecap="round" stroke-linejoin="round"/>
<path d="M31.7766 134.358C31.7766 134.358 36.212 136.024 37.8226 137.159" stroke="#263238" stroke-width="0.346" stroke-miterlimit="10"/>
<path d="M17.0072 134.791C17.0072 134.791 22.5428 129.668 25.325 131.991C28.1072 134.314 26.1184 137.429 21.3457 137.776C16.5729 138.123 14.9049 137.129 17.0072 134.791Z" fill="#006CB5" stroke="#263238" stroke-width="0.346" stroke-miterlimit="10" stroke-linecap="round" stroke-linejoin="round"/>
<path d="M25.8474 132.687C25.8474 132.687 19.7332 134.983 17.5129 136.547" stroke="#263238" stroke-width="0.346" stroke-miterlimit="10"/>
<path d="M23.4173 124.212C23.4173 124.212 22.8478 126.945 20.7978 127.971C18.7477 128.996 15.103 126.832 17.0392 123.529C18.9754 120.226 22.3925 122.845 23.4173 124.212Z" fill="#006CB5" stroke="#263238" stroke-width="0.346" stroke-miterlimit="10" stroke-linecap="round" stroke-linejoin="round"/>
<path d="M18.6338 115.67C18.6338 115.67 17.6086 113.392 13.6223 114.873C9.63607 116.353 8.0417 118.631 10.5471 119.429C13.0532 120.226 18.6338 115.67 18.6338 115.67Z" fill="#006CB5" stroke="#263238" stroke-width="0.346" stroke-miterlimit="10" stroke-linecap="round" stroke-linejoin="round"/>
<path d="M17.8705 115.566C17.8705 115.566 13.6476 116.023 11.365 117.963" stroke="#263238" stroke-width="0.346" stroke-miterlimit="10"/>
<path d="M30.0232 88.3357C30.0232 88.3357 30.7065 89.9301 32.0732 89.5886C33.4399 89.2471 33.7818 87.197 35.9457 87.7662C38.1096 88.3357 39.9319 90.8414 39.9319 89.7024C39.9319 88.5634 37.1985 85.6023 34.1233 85.6023C31.0484 85.6023 30.137 86.8552 30.0232 88.3357Z" fill="#006CB5" stroke="#263238" stroke-width="0.346" stroke-miterlimit="10" stroke-linecap="round" stroke-linejoin="round"/>
<path d="M18.6338 115.67C18.6338 115.67 23.538 114.729 25.5801 120.175C25.7804 120.709 25.9496 121.268 26.0918 121.841" stroke="#263238" stroke-width="0.346" stroke-miterlimit="10"/>
<path d="M39.1011 110.394C39.1011 110.394 40.1263 108.117 44.1125 109.597C48.0988 111.078 49.6932 113.356 47.1874 114.153C44.6817 114.95 39.1011 110.394 39.1011 110.394Z" fill="#006CB5" stroke="#263238" stroke-width="0.346" stroke-miterlimit="10" stroke-linecap="round" stroke-linejoin="round"/>
<path d="M40.0117 110.544C40.0117 110.544 44.1205 110.316 46.0605 112.713" stroke="#263238" stroke-width="0.346" stroke-miterlimit="10"/>
<path d="M39.101 110.394C39.101 110.394 37.4755 110.082 35.7061 110.857" stroke="#263238" stroke-width="0.346" stroke-miterlimit="10"/>
<path d="M21.2483 106.309C18.8446 103.854 16.47 103.484 16.47 103.484C16.47 103.484 12.963 102.556 11.5935 103.811" stroke="#263238" stroke-width="0.346" stroke-miterlimit="10"/>
<path d="M21.7358 93.6921L21.5227 92.7402" stroke="#263238" stroke-width="0.346" stroke-miterlimit="10"/>
<path d="M27.2819 144.043C27.2819 144.043 27.7926 124.429 27.2819 118.473C26.7712 112.517 24.3886 105.539 24.3886 105.539L21.9614 94.701" stroke="#263238" stroke-width="0.346" stroke-miterlimit="10"/>
<path d="M37.4045 97.9032L37.8433 96.9631" stroke="#263238" stroke-width="0.346" stroke-miterlimit="10"/>
<path d="M28.4731 144.021C28.4731 144.021 28.6434 126.131 29.324 121.025C30.0045 115.92 32.7276 107.921 32.7276 107.921L36.9062 98.9697" stroke="#263238" stroke-width="0.346" stroke-miterlimit="10"/>
<path d="M31.3665 122.217C31.3665 122.217 30.1752 132.473 29.4946 144.046" stroke="#263238" stroke-width="0.346" stroke-miterlimit="10"/>
<path d="M25.58 144.021C25.58 144.021 25.9205 127.663 25.2396 125.45C24.559 123.238 23.4172 124.212 23.4172 124.212C23.4172 124.212 20.2672 124.583 19.1257 126.409" stroke="#263238" stroke-width="0.346" stroke-miterlimit="10"/>
<path d="M26.3621 123.115C27.2523 128.104 26.4313 144.038 26.4313 144.038" stroke="#263238" stroke-width="0.346" stroke-miterlimit="10"/>
<path d="M34.7414 111.392C33.7556 112.066 32.8086 113.155 32.1547 114.899C30.1126 120.345 30.3454 144.046 30.3454 144.046" stroke="#263238" stroke-width="0.346" stroke-miterlimit="10"/>
<path d="M21.8408 106.958C22.9048 108.207 23.9362 109.896 24.7292 112.176C27.4522 120.005 28.4733 140.277 27.9626 144.022" stroke="#263238" stroke-width="0.346" stroke-miterlimit="10"/>
<path d="M28.7564 114.284C28.5907 124.164 28.4734 144.021 28.4734 144.021" stroke="#263238" stroke-width="0.346" stroke-miterlimit="10"/>
<path d="M28.7771 113.055C28.8895 106.522 29.0217 100.128 29.1539 96.6892C29.4944 87.8396 30.023 88.3361 30.023 88.3361C30.023 88.3361 30.6531 86.349 34.1913 86.5774" stroke="#263238" stroke-width="0.346" stroke-miterlimit="10"/>
<path d="M24.4188 120.515C24.4188 120.515 21.5716 117.976 22.7106 116.727C23.8496 115.479 30.9108 114.563 32.9609 116.186C35.0109 117.81 30.4551 120.099 28.7469 120.598C27.0384 121.098 24.9883 120.932 24.4188 120.515Z" fill="#006CB5" stroke="#263238" stroke-width="0.346" stroke-miterlimit="10" stroke-linecap="round" stroke-linejoin="round"/>
<path d="M27.0484 118.437C27.0086 118.694 26.9851 118.949 26.9851 119.195" stroke="#263238" stroke-width="0.346" stroke-miterlimit="10"/>
<path d="M28.0271 115.472C28.0271 115.472 27.6036 116.32 27.2964 117.358" stroke="#263238" stroke-width="0.346" stroke-miterlimit="10"/>
<path d="M24.4188 137.117C24.4188 137.117 21.5716 134.578 22.7106 133.329C23.8496 132.081 30.9108 131.165 32.9609 132.788C35.0109 134.412 30.4551 136.701 28.7469 137.2C27.0384 137.7 24.9883 137.533 24.4188 137.117Z" fill="#006CB5" stroke="#263238" stroke-width="0.346" stroke-miterlimit="10" stroke-linecap="round" stroke-linejoin="round"/>
<path d="M28.0273 132.074C28.0273 132.074 26.9851 134.159 26.9851 135.796" stroke="#263238" stroke-width="0.346" stroke-miterlimit="10"/>
<path d="M26.5384 130.096C26.5384 130.096 24.6053 128.372 25.3786 127.524C26.152 126.676 30.9461 126.054 32.3381 127.156C33.73 128.259 30.6368 129.813 29.477 130.152C28.3172 130.492 26.9253 130.378 26.5384 130.096Z" fill="#006CB5" stroke="#263238" stroke-width="0.346" stroke-miterlimit="10" stroke-linecap="round" stroke-linejoin="round"/>
<path d="M28.9886 126.672C28.9886 126.672 28.281 128.087 28.281 129.199" stroke="#263238" stroke-width="0.346" stroke-miterlimit="10"/>
<path d="M31.5721 141.198H23.8643V158.289H31.5721V141.198Z" fill="#263238" stroke="#263238" stroke-width="0.346" stroke-miterlimit="10" stroke-linecap="round" stroke-linejoin="round"/>
<path d="M55.2908 36.2291H20.5735V79.4113H55.2908V36.2291Z" stroke="#263238" stroke-width="0.2595" stroke-miterlimit="10" stroke-linecap="round" stroke-linejoin="round"/>
<path d="M53.5017 38.4546H22.363V77.1855H53.5017V38.4546Z" stroke="#263238" stroke-width="0.2595" stroke-miterlimit="10" stroke-linecap="round" stroke-linejoin="round"/>
<path d="M44.8934 49.1613H30.9707V66.4789H44.8934V49.1613Z" stroke="#263238" stroke-width="0.2595" stroke-miterlimit="10" stroke-linecap="round" stroke-linejoin="round"/>
<path d="M150.112 60.2417H132.5V82.1473H150.112V60.2417Z" stroke="#263238" stroke-width="0.2595" stroke-miterlimit="10" stroke-linecap="round" stroke-linejoin="round"/>
<path d="M149.204 61.3707H133.408V81.0183H149.204V61.3707Z" stroke="#263238" stroke-width="0.2595" stroke-miterlimit="10" stroke-linecap="round" stroke-linejoin="round"/>
<path d="M144.838 66.8019H137.775V75.5868H144.838V66.8019Z" stroke="#263238" stroke-width="0.2595" stroke-miterlimit="10" stroke-linecap="round" stroke-linejoin="round"/>
<path d="M164.687 54.3169H152.77V69.1388H164.687V54.3169Z" stroke="#263238" stroke-width="0.2595" stroke-miterlimit="10" stroke-linecap="round" stroke-linejoin="round"/>
<path d="M164.073 55.0806H153.385V68.3746H164.073V55.0806Z" stroke="#263238" stroke-width="0.2595" stroke-miterlimit="10" stroke-linecap="round" stroke-linejoin="round"/>
<path d="M161.118 58.7557H156.339V64.7H161.118V58.7557Z" stroke="#263238" stroke-width="0.2595" stroke-miterlimit="10" stroke-linecap="round" stroke-linejoin="round"/>
<path d="M108.182 102.976L106.225 109.103C106.225 109.103 99.4459 128.967 99.3473 129.758C99.2483 130.548 104.723 152.238 104.723 152.238L103.734 154.313L104.228 156.092C104.228 156.092 102.252 157.674 101.56 158.069C100.868 158.465 99.0888 159.058 99.8794 159.749C100.67 160.441 102.647 160.837 103.734 160.54C104.821 160.243 105.81 159.749 106.699 159.156C107.589 158.563 109.565 157.377 109.862 157.279C110.158 157.18 111.147 157.378 110.949 156.191C110.751 155.005 110.158 153.523 110.158 153.523C110.158 153.523 110.652 152.238 110.257 151.645C109.862 151.052 109.467 150.755 109.368 150.261C109.269 149.767 108.754 130.526 108.754 130.526L113.888 118.575L115.089 119.775C115.089 119.775 115.792 134.448 116.088 134.942C116.385 135.436 124.862 155.569 124.862 155.569L125.873 155.895L126.367 156.883C126.367 156.883 126.96 161.133 127.652 162.319C128.344 163.506 129.233 164.593 130.222 162.814C131.21 161.034 131.408 159.256 130.419 157.575C129.431 155.895 129.134 154.808 129.134 154.808C129.134 154.808 129.647 153.734 129.351 153.141C129.054 152.548 128.688 150.566 128.688 150.566C128.688 150.566 124.884 133.559 124.786 133.064C124.687 132.57 126.613 112.049 126.415 110.369C126.218 108.689 125.229 102.66 125.229 102.66L108.229 100.782L108.182 102.976Z" fill="#263238" stroke="#263238" stroke-width="0.346" stroke-miterlimit="10"/>
<path d="M139.032 47.708L135.83 46.7226C135.691 46.6797 135.545 46.7682 135.519 46.9111L135.424 47.4374L134.267 47.5097L133.977 49.5342L135.496 52.3541L135.597 52.3793L131.118 68.4842L123.907 75.8693C123.907 75.8693 121.04 78.1283 120.432 78.0415C119.824 77.9546 118.781 77.9546 118.781 77.9546L110.267 74.7399L105.923 68.9188L103.403 62.1421L102.165 48.0253L103.763 45.1856L103.473 43.1612L102.316 43.0889L102.263 42.793C102.214 42.5273 101.945 42.3633 101.687 42.4429L98.7756 43.3387C98.566 43.403 98.4348 43.6103 98.467 43.8272C98.5362 44.2919 98.6521 45.0389 98.7009 45.186C98.75 45.3337 99.3022 46.8561 99.6496 47.8121L98.6248 63.1849L101.666 72.7418L105.662 83.1674L108.182 102.976C108.182 102.976 110.267 104.627 113.916 105.235C117.565 105.844 124.602 104.975 124.95 104.627C125.298 104.28 125.385 103.324 125.385 103.324L127.209 83.7757C127.209 83.7757 135.289 71.3515 135.463 70.3959C135.637 69.4402 137.81 52.9329 137.81 52.9329C137.81 52.9329 138.967 49.7515 139.04 49.5345C139.091 49.3795 139.217 48.5605 139.284 48.1052C139.31 47.9284 139.203 47.7602 139.032 47.708Z" fill="white" stroke="#263238" stroke-width="0.346" stroke-miterlimit="10"/>
<path d="M135.424 47.4374C135.424 47.4374 137.178 47.4709 137.344 47.5813C137.509 47.6917 137.73 48.0232 137.344 48.2443C136.957 48.4653 135.63 48.5757 135.63 48.5757C135.63 48.5757 136.293 48.9625 136.515 49.4597C136.736 49.957 136.625 50.5649 136.459 50.6752" stroke="#263238" stroke-width="0.346" stroke-miterlimit="10" stroke-linecap="round" stroke-linejoin="round"/>
<path d="M136.515 49.4601C136.515 49.4601 138.062 50.1784 138.283 49.9573C138.504 49.7362 138.614 49.4601 138.614 49.4601" stroke="#263238" stroke-width="0.346" stroke-miterlimit="10" stroke-linecap="round" stroke-linejoin="round"/>
<path d="M102.316 43.0889L100.489 43.2716C100.489 43.2716 100.379 43.603 100.71 43.9345C101.042 44.266 102.092 44.266 102.092 44.266C102.092 44.266 100.876 44.5421 100.821 45.15C100.765 45.7579 100.987 46.863 100.987 46.863" stroke="#263238" stroke-width="0.346" stroke-miterlimit="10" stroke-linecap="round" stroke-linejoin="round"/>
<path d="M99.053 44.5425C99.053 44.5425 99.1634 45.5372 99.4952 45.5372C99.8266 45.5372 100.821 45.1504 100.821 45.1504" stroke="#263238" stroke-width="0.346" stroke-miterlimit="10" stroke-linecap="round" stroke-linejoin="round"/>
<path d="M135.035 71.2861L130.913 68.6949L123.907 75.8689C123.907 75.8689 121.04 78.1279 120.432 78.0411C119.824 77.9542 118.781 77.9542 118.781 77.9542L110.267 74.7396L105.923 68.9184L103.9 63.4786L99.176 64.9166L101.666 72.7414L105.662 83.1671L108.182 102.976C108.182 102.976 110.267 104.627 113.916 105.235C117.565 105.843 124.603 104.974 124.95 104.627C125.298 104.279 125.385 103.324 125.385 103.324L127.209 83.7753C127.209 83.7753 133.341 74.3462 135.035 71.2861Z" fill="#E8F2F8" stroke="#263238" stroke-width="0.346" stroke-miterlimit="10"/>
<path d="M111.887 82.398L112.875 84.7698L110.108 98.3102L112.085 102.461L114.556 98.5081L113.864 84.9677L115.445 82.8921L113.039 79.6777L111.887 82.398Z" fill="#006CB5" stroke="#263238" stroke-width="0.346" stroke-miterlimit="10"/>
<path d="M112.439 76.9118C112.439 76.9118 111.049 78.5626 110.962 79.3445C110.875 80.1265 110.614 83.6886 110.614 83.6886L113.464 82.1035L116.088 85.0788C116.088 85.0788 118.52 82.3855 119.563 81.169C120.605 79.9528 120.605 78.9099 120.432 78.0411C120.258 77.1723 119.209 76.1876 119.209 76.1876L112.439 76.9118Z" fill="white" stroke="#263238" stroke-width="0.346" stroke-miterlimit="10"/>
<path d="M113.422 65.2505C113.422 65.2505 110.826 67.9742 110.784 68.2295C110.741 68.4849 110.784 69.6765 110.698 69.8467C110.613 70.017 108.698 71.9321 108.698 72.1449C108.698 72.3576 109.677 73.4216 109.677 73.4216C109.677 73.4216 109.677 77.6348 110.06 77.8051C110.443 77.9753 112.614 77.72 112.614 77.72L113.465 82.1034L119.465 78.4434L119.21 76.1879C119.21 76.1879 123.083 73.9323 123.636 71.2511C124.189 68.57 122.998 66.1442 121.508 65.1228C120.019 64.1014 117.55 63.463 117.423 63.463C117.295 63.463 117.721 62.6544 117.082 62.4416C116.444 62.2288 115.125 62.4842 114.103 63.3779C113.082 64.2716 113.422 65.2505 113.422 65.2505Z" fill="white" stroke="#263238" stroke-width="0.346" stroke-miterlimit="10"/>
<path d="M121.508 65.1228C120.019 64.1014 117.55 63.463 117.423 63.463C117.295 63.463 117.721 62.6544 117.082 62.4416C116.444 62.2288 115.124 62.4842 114.103 63.3779C113.082 64.2716 113.422 65.2505 113.422 65.2505C113.422 65.2505 113.678 65.5909 114.358 65.2079C115.039 64.8249 115.465 64.4844 117.082 65.0802C118.699 65.676 119.976 66.1867 118.614 66.7825C117.252 67.3784 116.061 67.4635 116.188 67.9316C116.316 68.3998 117.21 69.6765 117.21 69.8467C117.21 70.017 116.614 71.6342 116.869 71.8044C117.125 71.9746 117.721 72.0597 117.848 71.8044C117.976 71.549 118.529 70.9107 118.912 70.783C119.295 70.6553 120.614 71.3788 120.529 72.1023C120.444 72.8258 119.21 73.8897 118.742 74.0174C118.274 74.1451 117.891 74.1876 118.104 74.4855C118.316 74.7834 118.827 76.1879 119.21 76.1879C119.21 76.1879 123.083 73.9323 123.636 71.2511C124.189 68.57 122.997 66.1442 121.508 65.1228Z" fill="#263238" stroke="#263238" stroke-width="0.346" stroke-miterlimit="10"/>
<path d="M112.483 70.0619C112.435 70.3758 112.264 70.6096 112.102 70.5851C111.939 70.5602 111.846 70.2858 111.894 69.9723C111.941 69.6585 112.112 69.4246 112.275 69.4492C112.437 69.4737 112.53 69.7481 112.483 70.0619Z" fill="#263238"/>
<path d="M111.762 68.4849C111.762 68.4849 112.528 67.8891 113.124 68.6977" stroke="#263238" stroke-width="0.346" stroke-miterlimit="10" stroke-linecap="round" stroke-linejoin="round"/>
<path d="M110.656 73.8046C110.656 73.8046 111.635 74.1451 112.826 73.5918" stroke="#263238" stroke-width="0.346" stroke-miterlimit="10" stroke-linecap="round" stroke-linejoin="round"/>
<path d="M111.209 74.06C111.209 74.06 110.996 74.8686 111.379 75.0813C111.762 75.2941 112.486 73.8472 112.486 73.8472L111.209 74.06Z" fill="#263238" stroke="#263238" stroke-width="0.346" stroke-miterlimit="10" stroke-linecap="round" stroke-linejoin="round"/>
<path d="M112.614 77.72L114.444 77.5072L113.039 79.6777L112.614 77.72Z" fill="#263238" stroke="#263238" stroke-width="0.346" stroke-miterlimit="10" stroke-linecap="round" stroke-linejoin="round"/>
<path d="M103.403 62.1421L97.8525 63.9157L98.6432 66.4854L104.87 64.1136L103.403 62.1421Z" fill="white" stroke="#263238" stroke-width="0.346" stroke-miterlimit="10"/>
<path d="M130.27 67.5725L128.689 69.8457L134.718 73.305L135.463 70.3955L130.27 67.5725Z" fill="white" stroke="#263238" stroke-width="0.346" stroke-miterlimit="10"/>
<path d="M121.474 78.0491C121.474 78.0491 122.067 81.3105 121.77 83.3861" stroke="#263238" stroke-width="0.346" stroke-miterlimit="10" stroke-linecap="round" stroke-linejoin="round"/>
<path d="M120.782 80.2236C120.782 80.2236 120.585 85.2642 119.992 86.9443" stroke="#263238" stroke-width="0.346" stroke-miterlimit="10" stroke-linecap="round" stroke-linejoin="round"/>
<path d="M110.06 77.8052C110.06 77.8052 108.428 82.0028 108.428 83.683" stroke="#263238" stroke-width="0.346" stroke-miterlimit="10" stroke-linecap="round" stroke-linejoin="round"/>
<path d="M110.306 79.5316C110.306 79.5316 109.12 85.0662 109.515 86.9443" stroke="#263238" stroke-width="0.346" stroke-miterlimit="10" stroke-linecap="round" stroke-linejoin="round"/>
<path d="M105.662 83.1671L105.66 76.9619" stroke="#263238" stroke-width="0.346" stroke-miterlimit="10" stroke-linecap="round" stroke-linejoin="round"/>
<path d="M52.5931 75.5336C53.7093 74.7527 54.438 73.4902 54.438 72.0608C54.438 69.6883 52.4385 67.7649 49.9718 67.7649C47.5052 67.7649 45.5056 69.6883 45.5056 72.0608C45.5056 72.9137 45.7672 73.7064 46.2129 74.3749C44.0525 75.179 42.5283 77.1142 42.5283 79.377C42.5283 81.5582 43.9462 83.4328 45.9835 84.2857C45.0759 84.9289 44.4849 85.9565 44.4849 87.1181C44.4849 89.0678 46.1416 90.6483 48.1854 90.6483C50.2292 90.6483 51.8859 89.0678 51.8859 87.1181C51.8859 86.0323 51.371 85.0618 50.5624 84.4141C52.7779 83.6342 54.3525 81.6758 54.3525 79.3767C54.3529 77.8726 53.6789 76.5132 52.5931 75.5336Z" fill="#263238" stroke="#263238" stroke-width="0.346" stroke-miterlimit="10"/>
<path d="M51.7048 134.633L51.2329 155.738C51.2329 155.738 49.817 157.693 49.2102 158.772C48.6033 159.851 48.3337 161.065 48.5358 161.739C48.7382 162.413 50.3565 162.615 51.3003 162.009C52.2442 161.402 53.0535 157.963 53.2556 157.222C53.458 156.48 53.7275 154.727 53.7275 154.727L57.2339 135.443L51.7048 134.633Z" fill="white" stroke="#263238" stroke-width="0.346" stroke-miterlimit="10"/>
<path d="M51.57 159.514C49.7472 159.845 49.5085 158.73 49.4815 158.315C49.3808 158.478 49.2885 158.633 49.2099 158.772C48.603 159.851 48.3335 161.065 48.5356 161.739C48.738 162.413 50.3562 162.615 51.3001 162.009C52.244 161.402 53.0533 157.963 53.2553 157.222C53.2553 157.222 52.5741 159.332 51.57 159.514Z" fill="#263238" stroke="#263238" stroke-width="0.346" stroke-miterlimit="10"/>
<path d="M67.3209 158.138L64.8916 135.818L70.0297 135.668L69.865 156.542C69.865 156.542 71.9102 158.238 72.6088 158.687C73.307 159.136 74.9533 160.583 74.9533 160.982C74.9533 161.381 73.7063 161.58 72.2593 161.331C70.8127 161.081 68.418 160.233 67.8195 159.834C67.2212 159.435 67.3707 159.086 67.3209 158.138Z" fill="white" stroke="#263238" stroke-width="0.346" stroke-miterlimit="10"/>
<path d="M68.6678 158.287C68.1664 157.929 67.6322 157.469 67.2097 157.086L67.3208 158.138C67.3706 159.086 67.2211 159.435 67.8197 159.834C68.4183 160.233 70.813 161.081 72.2596 161.331C73.7062 161.58 74.9535 161.38 74.9535 160.981C74.9535 160.582 73.3073 159.136 72.609 158.687L71.0126 159.535C71.0126 159.535 69.7155 159.036 68.6678 158.287Z" fill="#263238" stroke="#263238" stroke-width="0.346" stroke-miterlimit="10"/>
<path d="M56.9189 99.4962C56.9189 99.4962 52.6503 105.69 51.8133 108.535C50.9763 111.381 51.5621 135.654 51.5621 135.654C51.5621 135.654 58.8437 136.826 62.2753 136.742C65.7069 136.658 70.2267 135.989 70.2267 135.989C70.2267 135.989 70.8962 130.214 71.0637 126.615C71.2312 123.016 73.4071 113.474 72.3193 108.452C71.2312 103.43 68.1798 99.0181 68.1798 99.0181L56.9189 99.4962Z" fill="#263238" stroke="#263238" stroke-width="0.346" stroke-miterlimit="10"/>
<path d="M80.9316 73.5552C80.9316 73.5552 80.6033 88.1191 80.5268 88.9574C80.4507 89.7958 68.942 88.119 68.942 88.119C68.942 88.119 68.942 93.3018 68.7895 94.6737C68.6369 96.0456 68.4846 97.1126 68.4846 97.6462C68.4846 98.1797 68.4085 98.5606 68.1798 99.018C67.9511 99.4755 67.0366 100.314 63.3784 100.923C59.7201 101.533 57.586 100.39 57.2811 100.009C56.9763 99.6281 56.7476 97.951 56.7476 97.951L54.0225 91.3898L50.4598 98.1589L49.4207 104.067L48.5893 110.658C48.5893 110.658 48.6782 110.955 49.0048 111.519C49.3315 112.083 50.43 113.27 50.4892 113.478C50.5487 113.686 50.5487 114.31 50.5487 114.636C50.5487 114.962 50.5487 116.714 50.4892 116.981C50.4297 117.248 50.1625 116.714 50.1625 116.714C50.1625 116.714 50.0439 117.13 49.8657 117.338C49.6875 117.546 49.5688 117.041 49.5688 117.041C49.3906 117.605 49.2719 117.486 49.1827 117.546C49.0937 117.605 48.9453 116.417 48.9453 116.417C48.9453 116.417 48.8858 116.744 48.8266 117.041C48.7671 117.338 48.5457 117.385 48.5457 117.385C48.2419 117.142 48.3633 115.016 48.3633 115.016C48.3633 115.016 47.5129 114.226 47.2091 113.922C46.9053 113.619 46.541 112.039 46.541 112.039C46.541 112.039 46.0552 98.7966 46.0552 98.4928C46.0552 98.189 50.5504 85.3113 50.5504 84.886C50.5504 84.4608 56.6248 82.2132 56.6248 82.2132L63.732 80.6946C63.732 80.6946 68.1234 80.3064 68.5428 80.5164C68.9621 80.7264 76.7263 83.8463 76.7263 83.8463L79.0058 72.3937C79.0058 72.3937 79.1632 70.1914 79.3203 69.9817C79.4777 69.7721 80.1594 68.5659 80.2116 68.2514C80.2639 67.9369 80.369 67.1501 80.6835 67.2549C80.9981 67.3597 81.2081 67.8843 81.1555 68.3036C81.1032 68.723 80.6313 69.4572 80.6313 69.6669C80.6313 69.8765 83.5678 69.0375 83.3581 70.3485C83.1485 71.6595 82.991 72.6556 82.7288 72.8656C82.4665 73.0757 80.9316 73.5552 80.9316 73.5552Z" fill="white" stroke="#263238" stroke-width="0.346" stroke-miterlimit="10"/>
<path d="M49.5691 117.041C49.5691 117.041 49.6155 115.788 49.6155 115.515C49.6155 115.243 49.6155 114.672 49.6155 114.672" stroke="#263238" stroke-width="0.346" stroke-miterlimit="10"/>
<path d="M50.1629 116.714L50.1113 114.449" stroke="#263238" stroke-width="0.346" stroke-miterlimit="10"/>
<path d="M48.9456 116.417L48.9462 114.895" stroke="#263238" stroke-width="0.346" stroke-miterlimit="10"/>
<path d="M77.2342 81.2953L76.7266 83.8463C76.7266 83.8463 68.9627 80.7264 68.543 80.5164C68.1233 80.3064 63.7322 80.6946 63.7322 80.6946L56.625 82.2132C56.625 82.2132 50.5507 84.4608 50.5507 84.886C50.5507 85.3113 46.0554 98.1891 46.0554 98.4928C46.0554 98.5946 46.1101 100.154 46.1827 102.178L49.5479 103.343L50.4597 98.1586L54.0224 91.3895L56.7475 97.9507C56.7475 97.9507 56.9762 99.6274 57.281 100.008C57.5859 100.389 59.72 101.533 63.3783 100.923C67.0365 100.313 67.9513 99.4748 68.1797 99.0174C68.4084 98.56 68.4845 98.179 68.4845 97.6455C68.4845 97.112 68.6371 96.0449 68.7894 94.673C68.9419 93.3011 68.9419 88.1184 68.9419 88.1184C68.9419 88.1184 80.4502 89.7951 80.5267 88.9567C80.5592 88.599 80.6378 85.7438 80.717 82.5869L77.2342 81.2953Z" fill="#E8F2F8" stroke="#263238" stroke-width="0.346" stroke-miterlimit="10"/>
<path d="M81.8467 69.5662C81.8467 69.5662 81.7878 70.4177 81.9934 70.4762C82.1989 70.535 83.0791 70.5143 83.3583 70.3485C83.6376 70.1828 83.6376 69.8012 83.5199 69.5368C83.4026 69.2728 82.1404 69.4195 81.8467 69.5662Z" fill="white" stroke="#263238" stroke-width="0.346" stroke-miterlimit="10"/>
<path d="M83.5494 70.3883C83.5494 70.3883 83.7844 70.535 83.6961 70.8872C83.6079 71.2395 83.3733 71.4156 83.1384 71.4744C82.9035 71.5332 81.9935 71.4744 81.8758 71.2689C81.7582 71.0634 81.6997 70.5056 81.9931 70.4762C82.2869 70.4471 83.5494 70.3883 83.5494 70.3883Z" fill="white" stroke="#263238" stroke-width="0.346" stroke-miterlimit="10"/>
<path d="M83.4025 71.4453C83.4025 71.4453 83.5492 71.7391 83.4907 71.9737C83.4319 72.2086 82.9624 72.4141 82.6392 72.3847C82.3164 72.3553 81.7583 72.238 81.7583 72.0619C81.7583 71.8858 82.1105 71.4453 82.1105 71.4453H83.4025Z" fill="white" stroke="#263238" stroke-width="0.346" stroke-miterlimit="10"/>
<path d="M83.0796 72.3848C83.0796 72.3848 83.3734 72.2965 83.3145 72.5903C83.2557 72.8837 82.9623 73.2363 82.698 73.2363C82.4336 73.2363 81.7586 72.9719 81.817 72.7079C81.8759 72.4436 82.0226 72.3263 82.0226 72.3263L83.0796 72.3848Z" fill="white" stroke="#263238" stroke-width="0.346" stroke-miterlimit="10"/>
<path d="M81.0539 70.5645C81.0539 70.5645 81.1712 71.2104 80.995 71.7682C80.8189 72.3259 80.0847 72.6491 80.0847 72.6491" stroke="#263238" stroke-width="0.346" stroke-miterlimit="10"/>
<path d="M68.9419 88.1191L67.5071 84.382" stroke="#263238" stroke-width="0.346" stroke-miterlimit="10"/>
<path d="M54.0225 91.3898L55.831 88.8623" stroke="#263238" stroke-width="0.346" stroke-miterlimit="10"/>
<path d="M56.4438 76.2772L57.258 79.8722L63.2268 78.7189L62.2096 76.7519L56.4438 76.2772Z" fill="white" stroke="#263238" stroke-width="0.346" stroke-miterlimit="10"/>
<path d="M59.6318 81.4323L62.9554 92.6918L61.1919 93.7772L58.9536 81.6357L59.6318 81.4323Z" fill="#006CB5" stroke="#263238" stroke-width="0.346" stroke-miterlimit="10"/>
<path d="M57.1223 81.7713L58.0039 97.033L62.2096 96.4902L59.6318 81.4323L57.1223 81.7713Z" fill="#006CB5" stroke="#263238" stroke-width="0.346" stroke-miterlimit="10"/>
<path d="M63.973 77.9729L55.9011 79.533L56.4437 82.5173L64.3799 80.8219L63.973 77.9729Z" fill="#006CB5" stroke="#263238" stroke-width="0.346" stroke-miterlimit="10"/>
<path d="M60.1068 63.1863C60.1068 63.1863 61.5991 61.8974 62.9557 62.2365C64.3124 62.5756 65.3296 64.5426 64.6515 65.7636C63.9733 66.9847 61.8025 66.5096 61.8025 66.5096L59.9033 64.1357L60.1068 63.1863Z" fill="#263238" stroke="#263238" stroke-width="0.346" stroke-miterlimit="10"/>
<path d="M54.273 64.2713C54.273 64.2713 52.0347 65.5602 51.56 67.5272C51.0853 69.4942 53.188 73.5638 53.6627 74.4458C54.1374 75.3274 55.5619 76.4806 57.3932 77.2947C59.2246 78.1085 61.3951 78.3123 62.4805 77.6338C63.5659 76.9557 63.8371 72.8857 63.905 71.2577C63.9728 69.6298 62.0058 65.3567 61.5989 64.4748C61.1916 63.5931 57.8679 61.694 54.273 64.2713Z" fill="white" stroke="#263238" stroke-width="0.346" stroke-miterlimit="10"/>
<path d="M62.008 65.3785C61.8281 64.9737 61.6807 64.653 61.5987 64.4751C61.1918 63.5932 57.8681 61.694 54.2732 64.2717C54.2732 64.2717 52.0349 65.5605 51.5599 67.5275C51.1159 69.3662 52.9234 73.0407 53.5494 74.2327L54.2732 72.8182C54.2732 72.8182 55.562 72.0722 55.2904 71.3937C55.0192 70.7156 53.459 69.9014 54.4766 67.9344C55.4714 66.011 59.0594 63.7662 62.008 65.3785Z" fill="#263238" stroke="#263238" stroke-width="0.346" stroke-miterlimit="10"/>
<path d="M55.2909 73.3604C55.2909 73.3604 53.5273 71.1899 52.5097 71.8681C51.4921 72.5462 52.2385 74.1063 52.7132 74.5814C53.1879 75.0561 54.3411 75.1239 54.6802 74.7848" fill="white"/>
<path d="M55.2909 73.3604C55.2909 73.3604 53.5273 71.1899 52.5097 71.8681C51.4921 72.5462 52.2385 74.1063 52.7132 74.5814C53.1879 75.0561 54.3411 75.1239 54.6802 74.7848" stroke="#263238" stroke-width="0.346" stroke-miterlimit="10"/>
<path d="M60.8527 69.0195C60.8527 69.0195 60.5814 70.6475 60.7849 70.9187C60.9883 71.19 62.6163 72.1398 62.345 72.411C62.0737 72.6823 60.9883 72.7501 60.9883 72.7501" stroke="#263238" stroke-width="0.346" stroke-miterlimit="10" stroke-linecap="round" stroke-linejoin="round"/>
<path d="M58.2754 73.3605C58.2754 73.3605 59.3608 74.7171 60.8527 74.1065" stroke="#263238" stroke-width="0.346" stroke-miterlimit="10" stroke-linecap="round" stroke-linejoin="round"/>
<path d="M58.6823 71.529C58.907 71.529 59.0892 71.2558 59.0892 70.9187C59.0892 70.5816 58.907 70.3083 58.6823 70.3083C58.4576 70.3083 58.2754 70.5816 58.2754 70.9187C58.2754 71.2558 58.4576 71.529 58.6823 71.529Z" fill="#263238"/>
<path d="M62.4805 69.8332C62.4805 70.1702 62.2982 70.4436 62.0736 70.4436C61.8487 70.4436 61.6667 70.1702 61.6667 69.8332C61.6667 69.4962 61.8491 69.2229 62.0736 69.2229C62.2982 69.2229 62.4805 69.4962 62.4805 69.8332Z" fill="#263238"/>
<path d="M56.7153 70.1728C56.7153 70.1728 57.0544 69.0874 58.7502 68.8839" stroke="#263238" stroke-width="0.346" stroke-miterlimit="10" stroke-linecap="round" stroke-linejoin="round"/>
<path d="M60.9883 68.477C60.9883 68.477 61.8702 67.4594 62.8197 68.4091" stroke="#263238" stroke-width="0.346" stroke-miterlimit="10" stroke-linecap="round" stroke-linejoin="round"/>
</svg>
