<svg width="512" height="512" viewBox="0 0 512 512" fill="none" xmlns="http://www.w3.org/2000/svg">
<path d="M339.9 3.89999C335.3 8.49999 335.8 13 342.1 22.6C345 27 348.3 32.1 349.6 34.1L351.9 37.7L341.7 33.8C328.1 28.5 310.3 23.7 293.9 20.9C276.1 17.9 240 17.6 221.5 20.3C186.8 25.5 153 38.5 124.6 57.4C108.5 68.2 99.3 75.9 84.9 90.7C55.5 121 35.8 156 25.5 196.4C20.9 214.6 18.9 228.6 18.3 248.5C16.5 304.5 33.7 358.2 67.6 401.7C75.1 411.3 78.3 414 82.1 414C88.5 414 92.5 409.9 92.3 403.5C92.2 400.9 90.6 398.1 85.4 391.5C31.3 323.7 22.9 229 64.2 152.7C92.3 100.8 139.5 62.8 196 46.5C217.5 40.3 230.7 38.6 256 38.6C275 38.6 280.5 38.9 291.3 40.8C307.1 43.7 322.2 47.9 335.9 53.2C347.7 57.8 347.7 58.9 336 59.1C331.9 59.1 324.7 59.5 320.1 59.9C312.7 60.5 311.5 60.8 309.4 63.3C304.8 68.7 307.3 78 313.8 79.4C317.7 80.3 385.7 76.2 388 75C390.9 73.4 393.3 68.2 392.6 64.8C391.9 61.2 355.7 5.69999 352.3 2.99999C348.5 -6.16908e-06 343.5 0.399994 339.9 3.89999Z" fill="black"/>
<path d="M424.4 99.1997C419.1 101.7 418.3 109.3 422.7 115.1C424.2 117.2 428.7 123.3 432.6 128.7C481.6 196 487.5 286 447.8 359.3C425.9 399.7 393.6 430.7 351.9 451.5C297.2 478.6 234.3 481.2 176.5 458.9C164.2 454.1 164.2 453.2 177 453C181.1 452.9 188 452.5 192.4 452.1C199.3 451.5 200.5 451.1 202.6 448.7C207.2 443.3 204.7 434 198.2 432.6C194.3 431.7 126.3 435.8 124 437C121.1 438.6 118.7 443.8 119.4 447.2C120.1 450.8 156.3 506.3 159.7 509C165.9 513.9 175 509.2 175 501.2C175 498.1 173.8 495.5 169.9 489.4C167 485 163.7 479.9 162.4 477.9L160.1 474.3L170.3 478.2C184 483.5 201.7 488.3 218.1 491.1C235.9 494.1 272.1 494.4 290.3 491.7C343.3 483.7 389.8 459.8 427 421.4C462.2 385 483.6 341.8 491.6 291C494.4 273.2 494.2 236.1 491.1 218.1C484.1 177.4 468.5 141.3 444.4 110.3C440.9 105.8 436.8 101.2 435.4 100.1C432.6 97.8997 427.9 97.4997 424.4 99.1997Z" fill="black"/>
</svg>
