<svg width="512" height="512" viewBox="0 0 512 512" fill="none" xmlns="http://www.w3.org/2000/svg">
<g clip-path="url(#clip0_197_337)">
<path d="M183 78.5C145.3 90.8 89.8001 108.9 59.6001 118.7C18.6001 132 4.2001 137.1 2.4001 138.9C-0.999902 142.3 -0.999902 149.8 2.4001 153.1C4.2001 154.9 21.0001 160.7 65.2001 175.1L125.5 194.6L126 232.8C126.4 266.5 126.7 271.2 128.2 272.9C131.7 277 154.3 289.3 173.1 297.3C201.6 309.5 225.1 315.1 250.3 315.8C275.7 316.5 294.2 313.4 321.5 304C343.1 296.5 377.1 279.6 383.6 273.2L386 270.8L386.2 232.7L386.5 194.6L406 188.3C416.7 184.9 425.6 182 425.8 182C425.9 182 426 203.3 426 229.4V276.8L420.6 279.9C410.9 285.3 406.1 294.1 406 306.2C406 312.9 406.4 314.6 409.3 320.1C412.2 325.7 418.2 331.9 422 333.2C422.7 333.4 418.4 352.4 409.6 387.8C402.1 417.6 396 443.9 396 446.3C396 449.7 396.6 451.3 398.6 453.4L401.3 456H436H470.7L473.4 453.4C475.4 451.3 476 449.7 476 446.3C476 443.9 469.9 417.6 462.4 387.8C453.6 352.4 449.3 333.4 450 333.2C453.8 331.9 459.8 325.7 462.7 320.1C465.6 314.6 466 312.9 466 306.2C465.9 294.1 461.1 285.3 451.4 279.9L446 276.8V226.1V175.4L476.6 165.4C511.1 154.3 512 153.8 512 146C512 142.3 511.5 140.7 509.6 138.9C506.4 135.7 261.6 56 255.5 56.1C253.2 56.1 222.3 65.7 183 78.5ZM361.8 111.5C419.1 130.2 466 145.7 466 146C466 146.3 418.8 162 361 180.7L256.1 214.8L151 180.7C93.3001 161.9 46.0001 146.3 46.0001 146C46.0001 145.2 255.2 77.1 256.5 77.4C257.1 77.6 304.4 92.9 361.8 111.5ZM200.3 219C229.1 228.3 254.1 236 256 236C257.9 236 283 228.3 311.8 219C340.6 209.6 364.5 202 365.1 202C365.7 202 365.9 213 365.8 231.2L365.5 260.5L346.5 270C311.9 287.3 284.1 295 256.5 295.1C240.9 295.1 232.9 294 215.2 289.4C198.3 285 180.6 278.1 161.5 268.2L146.5 260.4L146.2 231.2C146.1 211.4 146.3 202 147 202C147.6 202 171.6 209.6 200.3 219ZM444.3 403.2C448.6 420.4 452 434.8 452 435.2C452 435.7 444.8 436 436 436C427.2 436 420 435.7 420 435.2C419.9 433.5 435.5 372 436 372C436.3 372 440 386.1 444.3 403.2Z" fill="black"/>
</g>
<defs>
<clipPath id="clip0_197_337">
<rect width="512" height="512" fill="white"/>
</clipPath>
</defs>
</svg>
