<svg width="512" height="512" viewBox="0 0 512 512" fill="none" xmlns="http://www.w3.org/2000/svg">
<path d="M148.5 6.60001C145.2 7.39999 138.7 9.89999 134 12.2C127.1 15.6 123.8 18.1 116.5 25.5C109.1 32.8 106.6 36.1 103.2 43C95.7 58.4 96 52.1 96 169.7V275H66H36V391V507H256H476V391V275H446H416V169.7C416 52.1 416.3 58.4 408.8 43C405.4 36.1 402.9 32.8 395.5 25.5C388.2 18.1 384.9 15.6 378 12.2C362.6 4.69998 368.5 5 255.5 5.10001C171.1 5.19998 153.5 5.39999 148.5 6.60001ZM215.7 56.2C215.3 78.4 214.6 89.7 213.6 95C204.7 137.8 174.7 169.8 133 180.9C128.9 181.9 123.4 183.1 120.8 183.5L116 184.1V131.3C116 102.3 116.5 74.7 117 70.1C118.9 53 129.1 38.5 144.4 31C154.7 25.8 159 25.3 190.9 25.1L216.3 25L215.7 56.2ZM276 56.9C276 81.1 276.4 90.9 277.5 97.6C279.4 108.1 284.6 124.3 289.1 133.2C301.3 157.7 322.7 179.1 347.1 191.4L357.7 196.7L352.6 199.8C329.4 213.8 311.7 240.2 307 267.7L305.8 275H256H206.2L205 267.7C200.3 240.2 182.6 213.8 159.4 199.8L154.3 196.7L164.9 191.4C189.3 179.1 210.7 157.7 222.9 133.2C227.4 124.3 232.6 108.1 234.5 97.6C235.6 90.9 236 81.1 236 56.9V25H256H276V56.9ZM352 26C374.4 28.9 392.4 47.3 395 70.1C396.1 79.9 396.4 184 395.3 184C392 184 380.5 181.5 373.7 179.4C341.8 169.4 316.2 145.5 304.2 114.5C297.6 97.6 296 84.7 296 47.7V25H320.3C333.6 25 347.9 25.5 352 26ZM127.5 208.7C134.1 210.3 144.8 215.4 151.8 220.2C157.7 224.2 166.8 233.4 170.9 239.4C175.4 246 181.5 259.4 183 266C183.6 269 184.4 272.3 184.7 273.2C185.1 274.9 183 275 150.6 275H116V240.5V206L118.8 206.6C120.3 206.9 124.2 207.9 127.5 208.7ZM396 240.5V275H361.5H327L327.6 272.2C332.1 252.5 338.1 240.9 350 229C357.1 221.9 362.8 217.9 372.6 213.3C378.7 210.4 390.9 206.5 395.3 206.1C395.7 206 396 221.5 396 240.5ZM96 391V487H76H56V391V295H76H96V391ZM156 391V487H136H116V391V295H136H156V391ZM216 391V487H196H176V391V295H196H216V391ZM276 391V487H256H236V391V295H256H276V391ZM336 391V487H316H296V391V295H316H336V391ZM396 391V487H376H356V391V295H376H396V391ZM456 391V487H436H416V391V295H436H456V391Z" fill="black"/>
</svg>
