<svg width="512" height="512" viewBox="0 0 512 512" fill="none" xmlns="http://www.w3.org/2000/svg">
<g clip-path="url(#clip0_229_937)">
<path d="M31.0544 459.602H98.8523C104.428 459.617 109.771 461.838 113.716 465.779C117.66 469.719 119.886 475.06 119.907 480.636V497.392C119.899 498.535 119.439 499.628 118.629 500.433C117.818 501.239 116.722 501.691 115.579 501.691H14.298C13.1597 501.685 12.0695 501.231 11.2646 500.426C10.4597 499.621 10.0052 498.531 10 497.392V480.636C10.0157 475.059 12.2396 469.715 16.1852 465.773C20.1309 461.831 25.4771 459.612 31.0544 459.602V459.602Z" stroke="black" stroke-width="20" stroke-linecap="round" stroke-linejoin="round"/>
<path d="M131.811 193.727H287.787C289.49 193.722 291.122 193.043 292.326 191.839C293.531 190.635 294.209 189.003 294.215 187.3V31.3629C294.212 29.6582 293.534 28.0239 292.33 26.8176C291.125 25.6112 289.492 24.931 287.787 24.9258H131.811C130.104 24.9284 128.468 25.6074 127.262 26.8141C126.055 28.0207 125.376 29.6565 125.374 31.3629V187.34C125.389 189.038 126.074 190.661 127.279 191.857C128.484 193.053 130.113 193.725 131.811 193.727V193.727Z" stroke="black" stroke-width="20" stroke-linecap="round" stroke-linejoin="round"/>
<path d="M45.959 360.975V28.551C46.0723 23.5924 48.1216 18.875 51.6687 15.408C55.2157 11.9411 59.9787 10 64.9386 10C69.8986 10 74.6616 11.9411 78.2086 15.408C81.7556 18.875 83.805 23.5924 83.9183 28.551V459.602H45.959V335.444" stroke="black" stroke-width="20" stroke-linecap="round" stroke-linejoin="round"/>
<path d="M83.918 77.8217H125.373V42.0312H83.918V77.8217Z" stroke="black" stroke-width="20" stroke-linecap="round" stroke-linejoin="round"/>
<path d="M83.918 176.634H125.373V140.844H83.918V176.634Z" stroke="black" stroke-width="20" stroke-linecap="round" stroke-linejoin="round"/>
<path d="M446.299 292.156H479.396C485.403 292.281 491.122 294.755 495.326 299.047C499.53 303.34 501.885 309.109 501.885 315.117C501.885 321.125 499.53 326.894 495.326 331.187C491.122 335.479 485.403 337.953 479.396 338.078H468.027" stroke="black" stroke-width="20" stroke-linecap="round" stroke-linejoin="round"/>
<path d="M346.732 463.733H478.049C485.774 463.733 486.021 460.672 486.021 452.473V387.764C486.021 376.455 486.556 377.049 481.704 366.829L434.564 267.39C422.521 241.988 420.164 242.295 391.415 242.384H267.792C239.073 242.295 236.716 241.988 224.674 267.39L177.534 366.829C172.681 377.049 173.186 376.455 173.186 387.764V452.473C173.186 460.672 173.464 463.733 181.188 463.733H382.225" stroke="black" stroke-width="20" stroke-linecap="round" stroke-linejoin="round"/>
<path d="M191.151 338.078H468.027" stroke="black" stroke-width="20" stroke-linecap="round" stroke-linejoin="round"/>
<path d="M212.938 292.156H179.841C173.834 292.281 168.115 294.755 163.911 299.047C159.707 303.34 157.353 309.109 157.353 315.117C157.353 321.125 159.707 326.894 163.911 331.187C168.115 335.479 173.834 337.953 179.841 338.078H191.151" stroke="black" stroke-width="20" stroke-linecap="round" stroke-linejoin="round"/>
<path d="M367.281 423.869H291.957M291.957 390.297H367.281" stroke="black" stroke-width="20" stroke-linecap="round" stroke-linejoin="round"/>
<path d="M423.116 423.872C427.816 423.872 432.412 422.478 436.32 419.866C440.229 417.254 443.275 413.542 445.074 409.199C446.873 404.856 447.344 400.077 446.427 395.467C445.51 390.856 443.246 386.621 439.922 383.297C436.598 379.973 432.363 377.71 427.752 376.793C423.142 375.876 418.363 376.346 414.02 378.145C409.677 379.944 405.965 382.991 403.353 386.899C400.742 390.808 399.348 395.403 399.348 400.104C399.348 406.407 401.852 412.453 406.309 416.91C410.766 421.368 416.812 423.872 423.116 423.872Z" stroke="black" stroke-width="20" stroke-linecap="round" stroke-linejoin="round"/>
<path d="M236.122 423.872C240.823 423.872 245.418 422.478 249.327 419.866C253.235 417.254 256.282 413.542 258.081 409.199C259.88 404.856 260.35 400.077 259.433 395.467C258.516 390.856 256.252 386.621 252.928 383.297C249.604 379.973 245.369 377.71 240.759 376.793C236.148 375.876 231.369 376.346 227.026 378.145C222.683 379.944 218.971 382.991 216.36 386.899C213.748 390.808 212.354 395.403 212.354 400.104C212.37 406.403 214.879 412.439 219.333 416.893C223.787 421.347 229.823 423.856 236.122 423.872V423.872Z" stroke="black" stroke-width="20" stroke-linecap="round" stroke-linejoin="round"/>
<path d="M237.895 463.73V490.628C237.887 493.577 236.713 496.403 234.63 498.49C232.546 500.577 229.722 501.756 226.773 501.769H192.33C189.378 501.759 186.55 500.581 184.463 498.494C182.376 496.407 181.199 493.579 181.188 490.628V463.73H237.895Z" stroke="black" stroke-width="20" stroke-linecap="round" stroke-linejoin="round"/>
<path d="M478.049 463.73V490.628C478.039 493.579 476.862 496.407 474.775 498.494C472.688 500.581 469.86 501.759 466.908 501.769H432.465C429.512 501.759 426.683 500.582 424.595 498.495C422.506 496.408 421.327 493.58 421.313 490.628V463.73H478.049Z" stroke="black" stroke-width="20" stroke-linecap="round" stroke-linejoin="round"/>
<path d="M181.356 54.6367V164.068" stroke="black" stroke-width="20" stroke-linecap="round" stroke-linejoin="round"/>
<path d="M243.331 85.486C243.331 102.549 228.902 116.384 211.839 116.384C203.371 116.384 181.564 116.523 181.564 116.523C181.564 116.523 181.436 94.092 181.436 85.486C181.436 78.425 181.356 54.5977 181.356 54.5977H211.839C228.902 54.6373 243.331 68.4226 243.331 85.486Z" stroke="black" stroke-width="20" stroke-linecap="round" stroke-linejoin="round"/>
</g>
<defs>
<clipPath id="clip0_229_937">
<rect width="512" height="512" fill="white"/>
</clipPath>
</defs>
</svg>
