<svg width="512" height="512" viewBox="0 0 512 512" fill="none" xmlns="http://www.w3.org/2000/svg">
<g clip-path="url(#clip0_229_445)">
<path d="M164.38 32.4396C161.08 34.3396 159.98 36.5396 159.88 41.0396C159.88 45.2396 160.28 45.8396 170.48 56.2396C176.28 62.1396 182.38 67.6396 184.08 68.3396C191.58 71.4396 199.48 64.5396 196.98 56.9396C195.88 53.6396 177.38 34.4396 173.18 32.3396C171.815 31.6403 170.301 31.284 168.768 31.3014C167.234 31.3188 165.728 31.7095 164.38 32.4396V32.4396Z" fill="black" stroke="black" stroke-miterlimit="10"/>
<path d="M187.88 69.4702C186.535 69.4705 185.203 69.2054 183.96 68.6902C182.05 67.9002 175.46 61.8202 170.23 56.5002C160.03 46.1002 159.52 45.3702 159.52 41.0402C159.63 36.3202 160.81 34.0402 164.21 32.1202C165.611 31.3547 167.179 30.9436 168.775 30.9227C170.372 30.9018 171.949 31.2717 173.37 32.0002C177.6 34.1202 196.21 53.3702 197.37 56.8202C197.958 58.5488 198.024 60.4122 197.56 62.178C197.095 63.9439 196.122 65.534 194.76 66.7502C192.895 68.4978 190.436 69.4703 187.88 69.4702V69.4702ZM168.81 31.6702C167.333 31.6606 165.878 32.0363 164.59 32.7602V32.7602C161.42 34.5902 160.37 36.6002 160.28 41.0502C160.28 45.1202 160.67 45.6802 170.77 55.9802C176.77 62.0702 182.68 67.3502 184.24 67.9802C185.901 68.6837 187.731 68.8891 189.506 68.5713C191.282 68.2535 192.926 67.4262 194.24 66.1902C195.494 65.0713 196.391 63.6075 196.817 61.9819C197.244 60.3563 197.183 58.6409 196.64 57.0502C195.56 53.8002 177.03 34.6602 173.03 32.6702C171.713 32.0126 170.262 31.6703 168.79 31.6702H168.81Z" fill="black" stroke="black" stroke-miterlimit="10"/>
<path d="M337.38 33.1407C332.68 36.1407 316.08 53.4407 314.88 56.6407C312.68 62.5407 317.48 69.2407 323.88 69.2407C327.68 69.2407 331.28 66.5407 341.68 55.9407C351.48 45.8407 351.88 45.1407 351.88 41.0407C351.78 32.6407 344.48 28.6407 337.38 33.1407Z" fill="black" stroke="black" stroke-miterlimit="10"/>
<path d="M323.88 69.6214C322.276 69.5954 320.702 69.1838 319.29 68.4215C317.879 67.6592 316.671 66.5685 315.77 65.2414C314.871 63.9937 314.289 62.5465 314.073 61.0242C313.857 59.5018 314.014 57.9498 314.53 56.5014C315.76 53.2114 332.27 35.9414 337.18 32.8114C340.67 30.6014 344.4 30.2714 347.42 31.9014C350.44 33.5314 352.21 36.9014 352.26 41.0314C352.31 45.1614 351.68 46.1814 341.95 56.2414C331.37 66.9814 327.88 69.6214 323.88 69.6214ZM337.58 33.4614C332.9 36.4614 316.4 53.6614 315.23 56.7714C314.768 58.0996 314.631 59.5194 314.831 60.9114C315.031 62.3035 315.562 63.6272 316.38 64.7714C317.216 65.9921 318.335 66.9931 319.64 67.6895C320.946 68.3858 322.4 68.757 323.88 68.7714C327.53 68.7714 331.13 66.0614 341.41 55.5914C351.27 45.4314 351.5 44.8914 351.5 40.9514C351.5 37.0114 349.84 33.9514 347.06 32.4814C344.28 31.0114 340.88 31.3914 337.58 33.4614Z" fill="black" stroke="black" stroke-miterlimit="10"/>
<path d="M246.5 8.81071C245.29 14.2607 245.79 38.2307 247.2 41.3407C249.82 47.0707 257.95 48.4107 262.48 43.8907C265.16 41.2007 265.8 36.7507 265.66 21.8907C265.45 7.82071 265.23 7.04072 262.33 4.14072C256.33 -1.75928 248.33 0.610715 246.5 8.81071Z" fill="black" stroke="black" stroke-miterlimit="10"/>
<path d="M255.78 46.969C255.156 46.9715 254.533 46.9146 253.92 46.799C252.404 46.5489 250.97 45.9365 249.741 45.0138C248.512 44.0911 247.523 42.8853 246.86 41.499C245.41 38.299 244.86 14.419 246.13 8.72902C247.03 4.72902 249.44 1.82902 252.72 0.849016C256 -0.130984 259.62 0.979017 262.6 3.84902C265.58 6.71902 265.82 7.84902 266.03 21.849C266.18 36.959 265.53 41.319 262.74 44.109C261.826 45.0221 260.741 45.745 259.546 46.236C258.352 46.7269 257.072 46.976 255.78 46.969V46.969ZM246.88 8.89902C245.69 14.319 246.19 38.159 247.56 41.189C248.172 42.4663 249.084 43.5769 250.217 44.4265C251.351 45.2761 252.672 45.8396 254.07 46.069C255.527 46.3471 257.029 46.2696 258.45 45.8431C259.871 45.4166 261.167 44.6536 262.23 43.619C264.81 41.039 265.44 36.619 265.3 21.899C265.09 7.74902 264.87 7.19902 262.09 4.40902C259.31 1.61902 255.99 0.669016 252.96 1.56902C249.93 2.46902 247.7 5.13902 246.88 8.89902Z" fill="black" stroke="black" stroke-miterlimit="10"/>
<path d="M237.08 57.2416C224.58 60.5416 214.58 66.4416 204.38 76.7416C196.98 84.0416 194.48 87.3416 191.18 94.2416C184.98 106.942 183.48 113.542 183.58 128.242C183.58 138.242 184.08 142.142 185.88 147.742C187.08 151.542 188.28 155.542 188.58 156.442C189.08 158.142 186.98 158.242 154.28 158.242C128.38 158.342 118.98 158.642 117.78 159.542C115.945 161.074 114.674 163.175 114.167 165.511C113.66 167.847 113.946 170.286 114.98 172.442C116.98 176.142 121.88 177.242 136.18 177.242H149.58L147.18 194.442C145.88 203.942 144.68 212.742 144.38 213.942L143.88 216.242H96.7799C59.4799 216.242 49.7799 215.942 50.0799 214.942C50.3799 214.342 51.8799 206.642 53.3799 197.942C55.2799 187.442 56.8799 181.242 58.0799 179.742C59.8799 177.442 60.4799 177.342 76.4799 177.042L153.08 176.742L155.48 173.942C158.78 170.042 158.78 164.042 155.38 160.742C152.98 158.242 92.6799 158.242 75.6799 158.242C66.1799 158.242 56.7799 158.742 54.7799 159.242C50.1799 160.542 42.3799 167.342 39.8799 172.342C38.5799 174.842 32.9799 203.342 22.9799 259.442C6.37988 351.642 4.87988 360.542 4.87988 366.042C5.03027 372.928 7.90752 379.474 12.8799 384.242C21.2799 392.742 14.3799 392.242 124.08 392.242H220.88V414.942L210.98 415.442C199.18 416.042 193.88 418.242 187.88 424.942C183.08 430.342 180.88 437.142 180.88 445.942V452.242H173.58C159.58 452.242 150.18 457.042 144.48 467.242C141.58 472.442 141.38 473.442 140.98 485.042C140.58 499.642 141.18 503.142 144.38 506.642L146.78 509.242H364.98L367.38 506.642C370.58 503.142 371.18 499.642 370.78 485.042C370.38 473.442 370.18 472.442 367.28 467.242C361.58 457.042 352.18 452.242 338.18 452.242H330.88V445.942C330.88 437.142 328.68 430.342 323.88 424.942C317.88 418.242 312.58 416.042 300.78 415.442L290.88 414.942V392.242H399.68L402.28 389.142C406.88 383.742 404.78 376.142 398.08 374.342C395.58 373.642 292.88 373.242 186.58 373.242H28.7799L26.3799 370.742C23.5799 368.042 23.3799 366.542 24.9799 357.542L26.0799 351.242H485.68L486.78 357.542C488.28 366.142 488.18 367.642 485.98 370.342L484.08 372.742L430.08 373.242L376.08 373.742L373.58 376.042C372.168 377.424 371.135 379.146 370.58 381.042C369.88 384.442 372.08 389.742 374.68 391.142C376.08 391.942 393.98 392.242 430.68 392.242C492.18 392.242 490.78 392.442 498.88 384.242C503.852 379.474 506.729 372.928 506.88 366.042C506.88 360.542 505.38 351.642 488.78 259.442C478.68 203.142 473.28 174.942 471.88 172.342C469.38 167.342 461.58 160.542 456.98 159.242C454.78 158.642 428.78 158.242 387.98 158.242C326.18 158.242 322.68 158.142 323.18 156.442C323.48 155.542 324.68 151.542 325.88 147.742C327.68 142.142 328.18 138.242 328.18 128.242C328.28 113.542 326.78 106.942 320.58 94.2416C317.28 87.3416 314.78 84.0416 307.38 76.7416C297.08 66.3416 287.08 60.5416 274.28 57.2416C263.98 54.5416 247.28 54.6416 237.08 57.2416ZM271.98 76.5416C285.38 81.1416 296.08 89.7416 302.78 101.642C306.38 107.942 309.88 120.542 309.88 127.142C309.88 134.342 307.28 144.742 303.78 151.742L300.58 158.242H211.28L207.98 151.742C204.48 144.542 201.88 134.342 201.88 127.142C201.88 120.542 205.38 107.942 208.98 101.642C215.68 89.7416 226.38 81.1416 239.78 76.5416C244.78 74.8416 248.68 74.3416 255.88 74.3416C263.08 74.3416 266.98 74.8416 271.98 76.5416V76.5416ZM246.88 196.742V216.242H205.38C165.98 216.242 163.88 216.142 163.88 214.442C163.88 212.542 167.38 186.242 168.38 180.442L168.98 177.242H246.88V196.742ZM343.38 180.442C344.38 186.242 347.88 212.542 347.88 214.442C347.88 216.142 345.78 216.242 306.38 216.242H264.88V177.242H342.78L343.38 180.442ZM453.58 179.642C454.88 181.242 456.48 187.242 458.38 197.942C459.88 206.642 461.38 214.342 461.68 214.942C461.98 215.942 452.28 216.242 414.98 216.242H367.88L367.38 213.942C367.08 212.742 365.88 203.942 364.58 194.442L362.18 177.242H451.78L453.58 179.642ZM138.78 254.442C137.28 265.042 135.98 273.842 135.98 273.942C135.78 274.542 39.8799 274.242 39.8799 273.642C39.8799 272.542 45.9799 238.742 46.4799 236.942C46.9799 235.342 50.0799 235.242 94.2799 235.242H141.48L138.78 254.442ZM246.88 254.742V274.242H201.38C158.18 274.242 155.88 274.142 155.88 272.442C155.88 270.542 159.38 244.242 160.38 238.442L160.98 235.242H246.88V254.742ZM351.38 238.442C352.38 244.242 355.88 270.542 355.88 272.442C355.88 274.142 353.58 274.242 310.38 274.242H264.88V235.242H350.78L351.38 238.442ZM465.28 236.942C465.78 238.742 471.88 272.542 471.88 273.642C471.88 274.242 375.98 274.542 375.78 273.942C375.78 273.842 374.48 265.042 372.98 254.442L370.28 235.242H417.48C461.68 235.242 464.78 235.342 465.28 236.942ZM130.78 312.942C129.18 323.842 127.98 332.842 127.88 332.942C127.78 333.042 105.58 333.242 78.2799 333.242C38.9799 333.242 28.7799 332.942 29.1799 331.942C29.3799 331.342 31.0799 322.342 32.8799 311.942L36.1799 293.242H133.48L130.78 312.942ZM246.88 313.242V333.242H147.18L149.48 316.442C150.78 307.242 152.08 298.242 152.38 296.442L152.98 293.242H246.88V313.242ZM359.38 296.442C359.68 298.242 360.98 307.242 362.28 316.442L364.58 333.242H264.88V293.242H358.78L359.38 296.442ZM478.88 311.942C480.68 322.342 482.38 331.342 482.58 331.942C482.98 332.942 472.78 333.242 433.48 333.242C406.18 333.242 383.88 333.142 383.88 332.942C383.88 332.742 382.58 323.842 380.98 312.942L378.28 293.242H475.58L478.88 311.942ZM271.88 403.742V415.242H239.88V392.242H271.88V403.742ZM309.08 436.942C310.78 438.742 311.38 440.642 311.68 445.742L312.08 452.242H199.88V446.942C199.88 440.842 201.48 437.242 204.88 435.542C206.78 434.542 218.48 434.342 257.08 434.442L306.78 434.742L309.08 436.942ZM348.48 474.642C351.68 477.842 351.88 478.442 351.88 485.142V492.242H159.88V485.142C159.88 478.442 160.08 477.842 163.28 474.642L166.68 471.242H345.08L348.48 474.642Z" fill="black" stroke="black" stroke-miterlimit="10"/>
<path d="M365.14 509.621H146.62L144.1 506.891C140.79 503.281 140.21 499.601 140.61 485.031C141.01 473.351 141.21 472.341 144.15 467.031C149.86 456.801 159.49 451.831 173.58 451.831H180.5V445.941C180.5 436.891 182.76 430.141 187.6 424.691C193.67 417.921 199.13 415.691 210.96 415.071L220.5 414.581V392.581H106.8C20.31 392.581 20.32 392.581 13.88 385.791C13.49 385.371 13.08 384.931 12.61 384.461C10.112 382.076 8.10974 379.221 6.718 376.06C5.32627 372.899 4.57251 369.494 4.5 366.041C4.5 360.451 6.03 351.481 22.61 259.371C29.37 221.451 37.8 175.531 39.55 172.171C42.05 167.171 49.97 160.171 54.68 158.881C56.84 158.341 66.68 157.881 75.68 157.881C96.22 157.881 112.763 158.018 125.31 158.291C130.87 158.051 139.94 157.941 154.31 157.881C179.54 157.881 187.56 157.881 188.26 156.881C188.26 156.881 188.32 156.801 188.26 156.551C188.13 156.151 187.8 155.081 187.37 153.691C186.86 152.031 186.21 149.911 185.56 147.851C183.72 142.131 183.25 138.091 183.25 128.241C183.15 113.561 184.64 106.861 190.88 94.0814C194.2 87.1414 196.68 83.8414 204.16 76.4714C214.24 66.2414 224.38 60.2414 236.98 56.8814C247.43 54.2114 264.2 54.2114 274.37 56.8814C287.37 60.2414 297.37 66.1014 307.64 76.4814C315.11 83.8414 317.64 87.1414 320.91 94.0814C327.15 106.861 328.65 113.561 328.54 128.241C328.54 138.091 328.07 142.131 326.23 147.851C325.57 149.921 324.92 152.051 324.41 153.711C323.99 155.091 323.66 156.151 323.53 156.561C323.53 156.681 323.53 156.701 323.53 156.721C324.35 157.821 337.53 157.861 387.98 157.861C428.31 157.861 454.79 158.251 457.08 158.861C461.79 160.191 469.71 167.151 472.21 172.151C473.59 174.701 478.5 199.971 489.15 259.351C505.73 351.461 507.26 360.431 507.26 366.021C507.192 369.484 506.44 372.898 505.046 376.068C503.653 379.238 501.645 382.101 499.14 384.491L498.69 384.951C491.15 392.601 491.12 392.611 434.97 392.601H430.68C417.75 392.601 407.68 392.601 399.95 392.491L399.85 392.601H291.26V414.601L300.8 415.091C312.63 415.691 318.09 417.941 324.16 424.711C329 430.161 331.26 436.911 331.26 445.961V451.881H338.18C352.27 451.881 361.89 456.881 367.61 467.081C370.55 472.361 370.75 473.371 371.16 485.081C371.55 499.651 370.96 503.331 367.66 506.941L365.14 509.621ZM146.94 508.861H364.82L367.1 506.391C370.24 502.951 370.8 499.391 370.41 485.051C370.01 473.541 369.81 472.561 366.95 467.421C361.31 457.321 352.16 452.621 338.18 452.621H330.5V445.941C330.5 437.081 328.31 430.491 323.6 425.191C317.6 418.511 312.5 416.411 300.76 415.811L290.5 415.301V391.861H376.63C375.901 391.841 375.179 391.71 374.49 391.471C371.73 389.981 369.49 384.471 370.21 380.961C370.781 378.99 371.857 377.201 373.33 375.771L375.02 374.211C340.53 373.851 270.44 373.621 186.58 373.621H28.58L26.07 371.001C23.14 368.181 22.96 366.531 24.57 357.471L25.72 350.861H486L487.15 357.481C488.67 366.181 488.56 367.771 486.27 370.581L484.27 373.111H484.09L397.7 373.901L398.19 373.971C399.71 374.336 401.11 375.088 402.254 376.153C403.398 377.218 404.248 378.561 404.72 380.051C405.181 381.659 405.227 383.357 404.853 384.988C404.478 386.618 403.696 388.126 402.58 389.371L400.58 391.751C409.9 391.841 420.58 391.851 430.69 391.851H434.98C490.85 391.851 490.85 391.851 498.17 384.431L498.62 383.971C501.054 381.65 503.005 378.869 504.359 375.79C505.713 372.711 506.444 369.394 506.51 366.031C506.51 360.561 504.82 350.601 488.42 259.501C477.92 200.971 472.88 174.961 471.56 172.501C469.12 167.621 461.45 160.871 456.89 159.581C454.69 158.981 427.65 158.581 387.99 158.581C328.81 158.581 323.94 158.471 322.94 157.131C322.854 157.011 322.799 156.872 322.78 156.725C322.761 156.579 322.778 156.43 322.83 156.291C322.97 155.871 323.29 154.821 323.72 153.451C324.22 151.791 324.88 149.661 325.53 147.591C327.35 141.951 327.81 137.961 327.81 128.201C327.91 113.661 326.43 107.021 320.25 94.3614C316.98 87.5214 314.52 84.2614 307.13 76.9714C296.95 66.6914 287.13 60.8914 274.2 57.5614C264.14 54.9314 247.53 54.9314 237.2 57.5614C224.74 60.8514 214.7 66.8414 204.68 76.9614C197.28 84.2614 194.82 87.5214 191.55 94.3614C185.37 107.021 183.89 113.661 183.99 128.201C183.99 137.961 184.45 141.951 186.27 147.591C186.92 149.651 187.57 151.771 188.08 153.431C188.5 154.811 188.83 155.871 188.97 156.281C189.033 156.445 189.055 156.621 189.036 156.795C189.017 156.969 188.957 157.135 188.86 157.281C187.96 158.491 183.68 158.571 154.31 158.571C148.95 158.571 144.12 158.571 139.86 158.661C149.72 159.091 154.96 159.661 155.68 160.431C159.16 163.811 159.22 170.091 155.8 174.131L153.28 177.061H150L147.45 195.241C146.16 204.681 145.04 212.831 144.74 214.021L144.18 216.611H96.78C57.43 216.611 50.54 216.281 49.78 215.291C49.7269 215.227 49.6908 215.15 49.6751 215.068C49.6594 214.986 49.6645 214.901 49.69 214.821C49.97 214.221 51.43 206.881 52.98 197.821C54.9 187.181 56.51 181.001 57.76 179.451C59.66 177.011 60.36 176.911 76.44 176.601L120.37 176.431C117.29 175.661 115.63 174.431 114.62 172.561C113.554 170.325 113.26 167.798 113.785 165.376C114.31 162.955 115.624 160.776 117.52 159.181C117.804 159.004 118.12 158.885 118.45 158.831C107.51 158.661 93.51 158.561 75.65 158.561C65.72 158.561 56.71 159.081 54.84 159.561C50.29 160.851 42.62 167.561 40.19 172.471C39.41 173.961 36.19 187.231 23.32 259.471C6.95 350.611 5.26 360.571 5.26 366.041C5.32533 369.402 6.05526 372.717 7.40771 375.794C8.76015 378.871 10.7084 381.651 13.14 383.971L14.43 385.311C20.64 391.891 20.64 391.891 106.8 391.871H221.26V415.311L211 415.821C199.26 416.421 194.14 418.521 188.16 425.201C183.45 430.501 181.26 437.091 181.26 445.951V452.631H173.58C159.58 452.631 150.45 457.331 144.81 467.431C141.95 472.571 141.75 473.551 141.36 485.061C140.96 499.371 141.52 502.961 144.66 506.401L146.94 508.861ZM376.11 374.241L373.83 376.341C372.475 377.669 371.484 379.321 370.95 381.141C370.29 384.331 372.37 389.491 374.86 390.831C375.86 391.381 386.15 391.651 399.6 391.771L401.99 388.921C403.028 387.772 403.756 386.378 404.106 384.87C404.455 383.362 404.416 381.79 403.99 380.301C403.555 378.934 402.774 377.701 401.723 376.724C400.671 375.746 399.386 375.057 397.99 374.721C397.35 374.531 389.6 374.361 376.11 374.241ZM28.94 372.861H186.58C262.07 372.861 338.96 373.071 375.82 373.471L375.93 373.371H376.08L483.9 372.371L485.69 370.111C487.81 367.501 487.89 366.111 486.41 357.601L485.41 351.601H26.41L25.36 357.601C23.73 366.791 24.06 367.971 26.65 370.471L28.94 372.861ZM50.49 214.861C52.16 215.671 68.16 215.861 96.78 215.861H143.58L144.01 213.861C144.3 212.701 145.47 204.171 146.7 195.151L146.81 194.391L149.15 177.621H136.15C131.52 177.621 127.87 177.501 124.98 177.221L76.45 177.411C60.72 177.711 60.04 177.811 58.35 179.971C57.54 180.971 56.09 184.971 53.72 197.971C52.51 205.241 50.97 213.371 50.49 214.901V214.861ZM125.49 158.981C121.05 159.161 118.49 159.421 117.97 159.801C116.211 161.287 114.995 163.315 114.514 165.567C114.032 167.818 114.312 170.166 115.31 172.241C116.6 174.621 119.23 175.881 125.12 176.451L152.91 176.351L155.2 173.681C158.37 169.921 158.34 164.111 155.12 160.991C154.43 160.291 147.88 159.481 125.52 159.021L125.49 158.981ZM352.23 492.581H159.5V485.141C159.5 478.361 159.73 477.661 163.01 474.371L166.52 470.861H345.24L348.75 474.371C352.03 477.661 352.26 478.371 352.26 485.141L352.23 492.581ZM160.23 491.821H351.5V485.141C351.5 478.521 351.35 478.041 348.21 474.911L344.88 471.621H166.88L163.59 474.911C160.45 478.041 160.3 478.521 160.3 485.141L160.23 491.821ZM312.48 452.621H199.48V446.941C199.48 440.711 201.14 436.941 204.69 435.201C206.63 434.201 216.91 433.971 257.06 434.071L306.91 434.371L309.33 436.681C311.13 438.581 311.73 440.611 312.03 445.681L312.48 452.621ZM200.26 451.861H311.68L311.31 445.761C311.02 440.871 310.46 438.951 308.81 437.201L306.63 435.111L257.08 434.821C221.98 434.721 206.99 434.821 205.08 435.871C201.81 437.511 200.29 441.031 200.29 446.941L200.26 451.861ZM272.26 415.621H239.5V391.861H272.26V415.621ZM240.26 414.861H271.5V392.621H240.26V414.861ZM433.48 333.621C419.37 333.621 407.25 333.621 398.48 333.541C386.53 333.471 384.14 333.461 383.66 333.191C383.636 333.166 383.618 333.136 383.606 333.103C383.594 333.071 383.588 333.036 383.59 333.001C383.49 332.561 383.29 331.161 382.59 326.101C382.1 322.581 381.45 318.001 380.72 313.021L377.88 292.861H475.88L479.24 311.861C481.12 322.721 482.75 331.291 482.93 331.801C482.954 331.879 482.961 331.962 482.951 332.043C482.941 332.124 482.913 332.202 482.87 332.271C482.25 333.241 477.39 333.621 433.48 333.621ZM384.19 332.621C386.49 332.771 405.5 332.871 433.48 332.871C463.65 332.871 480.48 332.721 482.18 331.871C481.81 330.361 480.18 321.431 478.51 311.981L475.27 293.591H378.71L381.35 312.861C382.08 317.861 382.73 322.411 383.23 325.931C383.68 329.241 384.06 331.841 384.19 332.611V332.621ZM364.98 333.631H264.5V292.861H359.09L359.75 296.381C360.07 298.281 361.45 307.881 362.65 316.381L364.98 333.631ZM265.23 332.871H364.12L361.88 316.491C360.68 308.001 359.3 298.411 358.98 296.491L358.44 293.601H265.26L265.23 332.871ZM247.23 333.631H146.75L149.11 316.401C150.31 307.921 151.69 298.321 152.01 296.401L152.67 292.881H247.26L247.23 333.631ZM147.58 332.871H246.47V293.621H153.29L152.75 296.511C152.47 298.201 151.25 306.611 149.85 316.511L147.58 332.871ZM78.25 333.631C34.34 333.631 29.48 333.221 28.85 332.301C28.8056 332.229 28.778 332.147 28.7693 332.062C28.7607 331.977 28.7712 331.892 28.8 331.811C28.97 331.321 30.6 322.751 32.48 311.891L35.84 292.891H133.84L131.08 313.021C130.35 318.021 129.71 322.561 129.21 326.071C128.49 331.161 128.29 332.561 128.21 333.001C128.212 333.036 128.206 333.071 128.194 333.103C128.182 333.136 128.164 333.166 128.14 333.191V333.191C127.66 333.461 125.27 333.471 113.33 333.541C104.51 333.591 92.39 333.621 78.28 333.621L78.25 333.631ZM29.55 331.911C31.25 332.721 48.09 332.911 78.25 332.911C106.25 332.911 125.25 332.811 127.54 332.661C127.67 331.891 128.05 329.241 128.54 325.991C129.03 322.471 129.68 317.901 130.41 312.941L133.05 293.671H36.49L33.25 312.061C31.61 321.501 29.93 330.461 29.58 331.901L29.55 331.911ZM404.88 274.651C375.58 274.651 375.48 274.341 375.38 274.061V273.941C375.38 273.861 375.16 272.441 374.87 270.461C374.36 266.911 373.51 261.051 372.58 254.461L369.88 234.861H417.48C463.25 234.861 465.05 234.941 465.64 236.861C466.2 238.861 472.26 272.571 472.26 273.661C472.26 273.791 472.2 274.011 471.83 274.061C469.97 274.371 444.96 274.571 422.52 274.641L404.88 274.651ZM376.08 273.651C381.21 274.161 465.63 273.901 471.43 273.371C470.96 269.811 465.43 239.001 464.88 237.081C464.45 235.731 458.48 235.651 417.44 235.651H370.71L373.35 254.421C374.28 260.971 375.13 266.841 375.64 270.421C375.94 272.391 376.06 273.241 376.12 273.621L376.08 273.651ZM106.6 274.651H89.2C66.75 274.581 41.74 274.381 39.88 274.071C39.52 274.021 39.46 273.801 39.46 273.671C39.46 272.581 45.52 238.871 46.08 236.871C46.64 234.871 48.47 234.871 94.24 234.871H141.88L139.12 254.501C138.2 261.031 137.35 266.881 136.83 270.431C136.54 272.431 136.33 273.871 136.32 273.981C136.25 274.331 136.13 274.651 106.64 274.651H106.6ZM40.29 273.341C46.09 273.871 130.51 274.131 135.64 273.621C135.7 273.251 135.82 272.371 136.12 270.311C136.64 266.761 137.48 260.911 138.41 254.391L141.05 235.621H94.28C53.19 235.621 47.28 235.701 46.84 237.051C46.33 238.901 40.76 269.771 40.29 273.341ZM310.38 274.621H264.5V234.861H351.09L351.75 238.381C352.69 243.841 356.26 270.381 356.26 272.441C356.26 274.501 356.26 274.621 310.38 274.621ZM265.26 273.861H310.38C349.84 273.861 355.5 273.781 355.5 272.441C355.5 270.601 352.06 244.601 351.01 238.501L350.47 235.621H265.26V273.861ZM247.26 274.621H201.38C155.5 274.621 155.5 274.491 155.5 272.441C155.5 270.391 159.07 243.841 160.01 238.381L160.67 234.861H247.26V274.621ZM161.26 235.621L160.72 238.511C159.67 244.591 156.23 270.601 156.23 272.441C156.23 273.781 161.89 273.861 201.35 273.861H246.47V235.621H161.26ZM414.95 216.621H367.58L367.01 214.021C366.72 212.841 365.6 204.691 364.31 195.251L364.21 194.491L361.75 176.861H451.97L453.88 179.411C455.25 181.111 456.88 187.151 458.75 197.871C460.3 206.871 461.75 214.231 462.02 214.771C462.056 214.858 462.069 214.953 462.057 215.046C462.044 215.139 462.008 215.227 461.95 215.301C461.22 216.291 454.33 216.621 414.98 216.621H414.95ZM368.15 215.861H414.95C443.55 215.861 459.55 215.711 461.23 214.861C460.8 213.531 459.23 205.261 457.98 197.961C456.12 187.511 454.53 181.411 453.26 179.841L451.57 177.601H362.57L365.02 195.131C366.25 204.131 367.42 212.681 367.7 213.831L368.15 215.861ZM306.35 216.621H264.5V176.861H343.09L343.75 180.381C344.69 185.841 348.26 212.381 348.26 214.441C348.26 216.501 347.08 216.621 306.38 216.621H306.35ZM265.23 215.861H306.38C342.38 215.861 347.5 215.781 347.5 214.441C347.5 212.601 344.06 186.601 343.01 180.501L342.47 177.621H265.26L265.23 215.861ZM247.23 216.621H205.38C164.68 216.621 163.5 216.551 163.5 214.441C163.5 212.331 167.07 185.841 168.01 180.381L168.67 176.861H247.26L247.23 216.621ZM169.23 177.621L168.69 180.511C167.64 186.591 164.2 212.601 164.2 214.441C164.2 215.781 169.36 215.861 205.32 215.861H246.44V177.621H169.23ZM300.75 158.621H211.05L207.65 151.911C204.03 144.471 201.5 134.291 201.5 127.141C201.5 120.491 205.05 107.771 208.65 101.451C215.33 89.5914 226.05 80.8614 239.65 76.1914C244.59 74.5014 248.53 73.9714 255.87 73.9714C263.21 73.9714 267.15 74.5014 272.09 76.1814C285.7 80.8514 296.42 89.5814 303.09 101.451C306.69 107.761 310.24 120.451 310.24 127.131C310.24 134.371 307.65 144.781 304.1 151.901L300.75 158.621ZM211.45 157.861H300.29L303.38 151.571C306.9 144.571 309.44 134.271 309.44 127.141C309.44 120.591 305.95 108.051 302.44 101.831C295.88 90.1214 285.29 81.5014 271.88 76.8914C267.02 75.2414 263.14 74.7214 255.88 74.7214C248.62 74.7214 244.75 75.2414 239.88 76.8914C226.45 81.5014 215.88 90.1214 209.29 101.821C205.73 108.051 202.24 120.591 202.24 127.141C202.24 134.141 204.73 144.231 208.3 151.581L211.45 157.861Z" fill="black" stroke="black" stroke-miterlimit="10"/>
<path d="M128.38 119.438C125.08 121.238 123.88 123.438 123.88 127.838C123.88 131.338 124.38 132.538 126.98 134.638C129.98 137.238 130.28 137.238 145.98 137.238C165.78 137.238 168.78 136.038 168.88 128.038C168.88 119.238 166.58 118.238 146.18 118.238C136.68 118.238 129.58 118.738 128.38 119.438Z" fill="black" stroke="black" stroke-miterlimit="10"/>
<path d="M145.98 137.619C130.14 137.619 129.84 137.619 126.73 134.919C124.08 132.779 123.5 131.519 123.5 127.839C123.5 123.349 124.78 120.979 128.2 119.109C129.51 118.349 136.57 117.859 146.2 117.859C166.9 117.859 169.28 118.859 169.28 128.039C169.15 136.359 166.11 137.619 145.98 137.619ZM146.18 118.619C135.91 118.619 129.55 119.189 128.57 119.759C125.39 121.489 124.27 123.609 124.27 127.829C124.27 131.249 124.76 132.349 127.27 134.339C130.14 136.829 130.27 136.849 146.03 136.849C165.51 136.849 168.46 135.699 168.55 128.019C168.5 119.799 167.13 118.619 146.18 118.619V118.619Z" fill="black" stroke="black" stroke-miterlimit="10"/>
<path d="M347.38 119.438C344.08 121.238 342.88 123.438 342.88 127.638C342.98 136.038 345.78 137.238 365.78 137.238C381.48 137.238 381.78 137.238 384.78 134.638C387.28 132.638 387.88 131.238 387.88 128.238C387.88 119.238 385.68 118.238 365.18 118.238C355.68 118.238 348.58 118.738 347.38 119.438Z" fill="black" stroke="black" stroke-miterlimit="10"/>
<path d="M365.78 137.62C345.65 137.62 342.61 136.31 342.5 127.62C342.5 123.27 343.78 120.96 347.2 119.09C348.51 118.33 355.57 117.84 365.2 117.84C385.9 117.84 388.28 118.91 388.28 128.22C388.28 131.4 387.55 132.9 385.03 134.91C381.88 137.62 381.62 137.62 365.78 137.62ZM365.18 118.62C354.91 118.62 348.55 119.19 347.57 119.76C344.39 121.49 343.27 123.55 343.27 127.63C343.36 135.73 346.1 136.85 365.79 136.85C381.5 136.85 381.68 136.85 384.55 134.35C386.91 132.46 387.55 131.2 387.55 128.23C387.5 119.82 386.13 118.62 365.18 118.62V118.62Z" fill="black" stroke="black" stroke-miterlimit="10"/>
</g>
<defs>
<clipPath id="clip0_229_445">
<rect width="503.75" height="510.11" fill="white" transform="translate(4)"/>
</clipPath>
</defs>
</svg>
