<svg width="512" height="512" viewBox="0 0 512 512" fill="none" xmlns="http://www.w3.org/2000/svg">
<g clip-path="url(#clip0_231_1377)">
<path d="M228.41 203.138H228.34C223.062 202.181 217.704 201.736 212.34 201.808C206.45 201.739 200.568 202.254 194.78 203.348C164.95 209.668 140.71 234.148 134.47 264.248C130.69 281.74 132.943 299.996 140.861 316.044C148.78 332.092 161.898 344.987 178.08 352.628C180.785 353.913 183.563 355.038 186.4 355.998C193.378 358.345 200.647 359.711 208 360.058C209.28 360.128 210.56 360.158 211.84 360.158H212.23C233.61 360.158 251.5 353.088 266.93 338.558C268.919 336.686 270.811 334.713 272.6 332.648C277.35 327.199 281.3 321.102 284.33 314.538C289.137 303.98 291.581 292.499 291.49 280.898C291.41 242.738 265.48 210.758 228.41 203.138ZM263.72 309.488C258.39 318.784 250.741 326.54 241.52 331.998C237.386 334.447 232.962 336.369 228.35 337.718C218.028 340.759 207.058 340.825 196.7 337.908C171.83 330.908 152.98 307.608 152.98 280.858C153.104 265.161 159.416 250.146 170.545 239.075C181.674 228.003 196.722 221.77 212.42 221.728C216.84 221.728 221.245 222.231 225.55 223.228C251.66 229.358 271.34 254.138 271.34 280.858C271.342 290.903 268.715 300.773 263.72 309.488Z" fill="black"/>
<path d="M506.29 249.79C505.828 248.667 505.149 247.648 504.29 246.79L384.2 126.8L264.22 6.73C263.359 5.86427 262.335 5.17737 261.208 4.70885C260.08 4.24032 258.871 3.99942 257.65 4H254.35C253.128 3.99974 251.918 4.24103 250.79 4.71C249.667 5.17157 248.648 5.85137 247.79 6.71L127.8 126.8L7.73 246.78C6.87137 247.638 6.19157 248.657 5.73 249.78C5.25288 250.91 5.00475 252.123 5 253.35V497C4.99786 499.406 5.93005 501.718 7.6 503.45C9.32654 505.091 11.6183 506.004 14 506H82L82.28 495.44C82.39 491.87 82.49 488.76 82.59 486C83.2 470.63 84.12 466.21 88.35 455C92.7 443.31 104.35 428.4 116.15 419.54C121.59 415.46 137.15 408.32 145.51 406.12C150.7 404.67 155.51 404.29 181.51 404.2C187.26 404.2 194.06 404.2 202.12 404.2H212.12C251.48 404.2 264.77 404.2 271.76 404.9V482.9C271.768 489.342 274.331 495.518 278.886 500.074C283.441 504.629 289.618 507.192 296.06 507.2H452.06C454.583 507.203 457.09 506.808 459.49 506.03H498C499.189 506.057 500.372 505.843 501.476 505.401C502.581 504.958 503.584 504.296 504.425 503.455C505.266 502.614 505.928 501.611 506.371 500.506C506.813 499.402 507.027 498.219 507 497.03V253.35C507 252.128 506.759 250.918 506.29 249.79V249.79ZM456.36 482.87C456.357 484.01 455.903 485.102 455.098 485.908C454.292 486.713 453.2 487.167 452.06 487.17H296C294.86 487.167 293.768 486.713 292.962 485.908C292.157 485.102 291.703 484.01 291.7 482.87V387.19C291.703 386.05 292.157 384.958 292.962 384.152C293.768 383.347 294.86 382.893 296 382.89H452.06C453.2 382.893 454.292 383.347 455.098 384.152C455.903 384.958 456.357 386.05 456.36 387.19V482.87ZM487 476.7C487.001 477.922 486.762 479.132 486.295 480.26C485.828 481.389 485.143 482.415 484.279 483.279C483.415 484.143 482.389 484.828 481.26 485.295C480.132 485.762 478.922 486.001 477.7 486H476.15C476.291 484.963 476.361 483.917 476.36 482.87V387.19C476.352 380.748 473.789 374.571 469.234 370.016C464.679 365.461 458.502 362.898 452.06 362.89H296C289.98 362.896 284.177 365.135 279.712 369.173C275.247 373.211 272.439 378.761 271.83 384.75C263.2 384.31 247.53 384.12 216.08 383.93H202.54C195.25 383.93 188.22 383.93 181.8 383.99C165.52 384.09 153.22 384.29 150.88 384.54C105.54 390.79 71.27 423.54 63.56 468C62.687 473.961 62.2293 479.976 62.19 486H34.3C33.0783 486.001 31.8684 485.762 30.7395 485.295C29.6106 484.828 28.5848 484.143 27.721 483.279C26.8571 482.415 26.1721 481.389 25.7052 480.26C25.2383 479.132 24.9987 477.922 25 476.7V264.35C25.0006 261.886 25.9788 259.523 27.72 257.78L140.2 145.3C203.6 81.9 255.7 30 256 30C256.3 30 308.4 81.9 371.7 145.2L484.28 257.78C486.021 259.523 486.999 261.886 487 264.35V476.7Z" fill="black"/>
<path d="M365.066 423.125C363.866 423.725 362.066 425.825 361.166 427.725C359.666 430.925 359.666 431.825 360.866 435.425C362.966 441.425 366.966 443.125 377.666 442.625C385.666 442.325 386.266 442.125 388.966 439.125C392.966 434.625 392.866 428.925 388.866 424.825C386.066 422.025 385.566 421.925 376.566 422.025C371.466 422.025 366.266 422.525 365.066 423.125Z" fill="#151515"/>
</g>
<defs>
<clipPath id="clip0_231_1377">
<rect width="502" height="503.17" fill="white" transform="translate(5 4)"/>
</clipPath>
</defs>
</svg>
