<svg width="24" height="24" viewBox="0 0 24 24" fill="none" xmlns="http://www.w3.org/2000/svg">
<path d="M14 8V6C14 4.89543 13.1046 4 12 4H5C3.89543 4 3 4.89543 3 6V18C3 19.1046 3.89543 20 5 20H12C13.1046 20 14 19.1046 14 18V16" stroke="black" stroke-linecap="round" stroke-linejoin="round"/>
<path d="M7 11.5C6.72386 11.5 6.5 11.7239 6.5 12C6.5 12.2761 6.72386 12.5 7 12.5V11.5ZM21 12V12.5C21.2022 12.5 21.3845 12.3782 21.4619 12.1913C21.5393 12.0045 21.4966 11.7894 21.3536 11.6464L21 12ZM18.3536 8.64645C18.1583 8.45118 17.8417 8.45118 17.6464 8.64645C17.4512 8.84171 17.4512 9.15829 17.6464 9.35355L18.3536 8.64645ZM17.6464 14.6464C17.4512 14.8417 17.4512 15.1583 17.6464 15.3536C17.8417 15.5488 18.1583 15.5488 18.3536 15.3536L17.6464 14.6464ZM21.3536 12.3536C21.5488 12.1583 21.5488 11.8417 21.3536 11.6464C21.1583 11.4512 20.8417 11.4512 20.6464 11.6464L21.3536 12.3536ZM7 12.5H21V11.5H7V12.5ZM21.3536 11.6464L18.3536 8.64645L17.6464 9.35355L20.6464 12.3536L21.3536 11.6464ZM18.3536 15.3536L21.3536 12.3536L20.6464 11.6464L17.6464 14.6464L18.3536 15.3536Z" fill="black"/>
</svg>
