<svg width="24" height="24" viewBox="0 0 24 24" fill="none" xmlns="http://www.w3.org/2000/svg">
<ellipse cx="11.871" cy="8.33974" rx="2.92812" ry="2.92812" stroke="white" stroke-linecap="round" stroke-linejoin="round"/>
<path d="M7.47888 18.588V17.1239C7.47888 15.5068 8.78985 14.1958 10.407 14.1958H13.3351C14.9523 14.1958 16.2633 15.5068 16.2633 17.1239V18.588" stroke="white" stroke-linecap="round" stroke-linejoin="round"/>
<path d="M16.0541 5.50684C17.3497 5.83857 18.2559 7.00603 18.2559 8.34345C18.2559 9.68088 17.3497 10.8483 16.0541 11.1801" stroke="white" stroke-linecap="round" stroke-linejoin="round"/>
<path d="M19.7143 18.588V17.124C19.7066 15.795 18.805 14.6379 17.5182 14.3057" stroke="white" stroke-linecap="round" stroke-linejoin="round"/>
<path d="M7.37439 5.50684C6.07876 5.83857 5.17255 7.00603 5.17255 8.34345C5.17255 9.68088 6.07876 10.8483 7.37439 11.1801" stroke="white" stroke-linecap="round" stroke-linejoin="round"/>
<path d="M3.71418 18.588V17.124C3.72183 15.795 4.6235 14.6379 5.91028 14.3057" stroke="white" stroke-linecap="round" stroke-linejoin="round"/>
</svg>
