<svg width="24" height="24" viewBox="0 0 24 24" fill="none" xmlns="http://www.w3.org/2000/svg">
<path d="M4.5 21C4.5 21.2761 4.72386 21.5 5 21.5C5.27614 21.5 5.5 21.2761 5.5 21H4.5ZM19 21L18.7226 21.416C18.8761 21.5183 19.0733 21.5278 19.2359 21.4408C19.3985 21.3538 19.5 21.1844 19.5 21H19ZM16 19L16.2774 18.584C16.079 18.4518 15.815 18.4779 15.6464 18.6464L16 19ZM14 21L13.6464 21.3536C13.8417 21.5488 14.1583 21.5488 14.3536 21.3536L14 21ZM12 19L12.3536 18.6464C12.1583 18.4512 11.8417 18.4512 11.6464 18.6464L12 19ZM10 21L9.64645 21.3536C9.84171 21.5488 10.1583 21.5488 10.3536 21.3536L10 21ZM8 19L8.35355 18.6464C8.18502 18.4779 7.92096 18.4518 7.72265 18.584L8 19ZM4.72265 20.584C4.49289 20.7372 4.4308 21.0476 4.58397 21.2773C4.73715 21.5071 5.04759 21.5692 5.27735 21.416L4.72265 20.584ZM9 6.5C8.72386 6.5 8.5 6.72386 8.5 7C8.5 7.27614 8.72386 7.5 9 7.5V6.5ZM15 7.5C15.2761 7.5 15.5 7.27614 15.5 7C15.5 6.72386 15.2761 6.5 15 6.5V7.5ZM9 10.5C8.72386 10.5 8.5 10.7239 8.5 11C8.5 11.2761 8.72386 11.5 9 11.5V10.5ZM15 11.5C15.2761 11.5 15.5 11.2761 15.5 11C15.5 10.7239 15.2761 10.5 15 10.5V11.5ZM13 14.5C12.7239 14.5 12.5 14.7239 12.5 15C12.5 15.2761 12.7239 15.5 13 15.5V14.5ZM15 15.5C15.2761 15.5 15.5 15.2761 15.5 15C15.5 14.7239 15.2761 14.5 15 14.5V15.5ZM5.5 21V5H4.5V21H5.5ZM5.5 5C5.5 4.17157 6.17157 3.5 7 3.5V2.5C5.61929 2.5 4.5 3.61929 4.5 5H5.5ZM7 3.5H17V2.5H7V3.5ZM17 3.5C17.8284 3.5 18.5 4.17157 18.5 5H19.5C19.5 3.61929 18.3807 2.5 17 2.5V3.5ZM18.5 5V21H19.5V5H18.5ZM19.2774 20.584L16.2774 18.584L15.7226 19.416L18.7226 21.416L19.2774 20.584ZM15.6464 18.6464L13.6464 20.6464L14.3536 21.3536L16.3536 19.3536L15.6464 18.6464ZM14.3536 20.6464L12.3536 18.6464L11.6464 19.3536L13.6464 21.3536L14.3536 20.6464ZM11.6464 18.6464L9.64645 20.6464L10.3536 21.3536L12.3536 19.3536L11.6464 18.6464ZM10.3536 20.6464L8.35355 18.6464L7.64645 19.3536L9.64645 21.3536L10.3536 20.6464ZM7.72265 18.584L4.72265 20.584L5.27735 21.416L8.27735 19.416L7.72265 18.584ZM9 7.5H15V6.5H9V7.5ZM9 11.5H15V10.5H9V11.5ZM13 15.5H15V14.5H13V15.5Z" fill="white"/>
</svg>
